<?xml version="1.0" encoding="UTF-8" standalone="no"?>
<svg
   xmlns:dc="http://purl.org/dc/elements/1.1/"
   xmlns:cc="http://creativecommons.org/ns#"
   xmlns:rdf="http://www.w3.org/1999/02/22-rdf-syntax-ns#"
   xmlns:svg="http://www.w3.org/2000/svg"
   xmlns="http://www.w3.org/2000/svg"
   xmlns:sodipodi="http://sodipodi.sourceforge.net/DTD/sodipodi-0.dtd"
   xmlns:inkscape="http://www.inkscape.org/namespaces/inkscape"
   width="45.616"
   height="51.639"
   version="1.1"
   id="svg5920"
   sodipodi:docname="animate12.svg"
   inkscape:version="0.92.2 (5c3e80d, 2017-08-06)">
  <metadata
     id="metadata5926">
    <rdf:RDF>
      <cc:Work
         rdf:about="">
        <dc:format>image/svg+xml</dc:format>
        <dc:type
           rdf:resource="http://purl.org/dc/dcmitype/StillImage" />
      </cc:Work>
    </rdf:RDF>
  </metadata>
  <defs
     id="defs5924" />
  <sodipodi:namedview
     pagecolor="#ffffff"
     bordercolor="#666666"
     borderopacity="1"
     objecttolerance="10"
     gridtolerance="10"
     guidetolerance="10"
     inkscape:pageopacity="0"
     inkscape:pageshadow="2"
     inkscape:window-width="1366"
     inkscape:window-height="745"
     id="namedview5922"
     showgrid="false"
     inkscape:zoom="4.5701892"
     inkscape:cx="22.12724"
     inkscape:cy="7.4806067"
     inkscape:window-x="-8"
     inkscape:window-y="-8"
     inkscape:window-maximized="1"
     inkscape:current-layer="svg5920" />
  <path
     d="M22.799 23.709c-.98.014-1.946.575-2.486 1.56L9.46 44.999c-.588 1.056-.744 2.595-.695 3.953.024.68.099 1.289.32 1.813.11.262.258.533.578.73.32.198.813.184 1.127.018h.002l11.873-6.31L34.857 51.4l.002.002c.317.16.816.161 1.131-.048.315-.21.45-.486.55-.75.199-.53.252-1.137.255-1.815.006-1.354-.193-2.88-.777-3.912l-10.69-19.67-.006-.008c-.56-.97-1.544-1.504-2.523-1.49zm.021 1.5c.443-.007.89.2 1.201.738l.002.002L34.71 45.61l.004.006c.288.508.587 2.017.582 3.168-.002.486-.07.842-.135 1.09L22.648 43.51l-.343.181-11.867 6.311a4.27 4.27 0 0 1-.174-1.103c-.041-1.148.223-2.66.508-3.172l.002-.002 10.853-19.733v-.002c.304-.554.75-.774 1.193-.781z"
     id="path5914">
    <animate
       dur="5s"
       values="#000000; #4e86b1; #d7d7d7; #000000"
       keyTimes="0; 0.5; 0.7; 1"
       attributeName="fill"
       repeatCount="indefinite" />
  </path>
  <g
     transform="matrix(0,0.24473467,-0.24473467,0,93.997169,-67.620736)"
     id="g4001">
    <path
       style="fill:#1d1d1b"
       d="m 353.739,334.23 c -0.965,0 -1.933,-0.347 -2.7,-1.05 -11.737,-10.747 -18.469,-26.034 -18.469,-41.94 0,-16.196 6.932,-31.664 19.019,-42.437 1.649,-1.469 4.177,-1.325 5.648,0.325 1.47,1.649 1.324,4.178 -0.325,5.648 -10.386,9.256 -16.342,22.546 -16.342,36.464 0,13.668 5.785,26.805 15.872,36.04 1.629,1.492 1.741,4.022 0.249,5.651 -0.79,0.862 -1.869,1.299 -2.952,1.299 z"
       id="path3999"
       inkscape:connector-curvature="0" />
  </g>
  <path
     inkscape:connector-curvature="0"
     id="path4007-3"
     d="m 5.0623106,11.426871 c 0,-0.250117 0.0952,-0.500236 0.28585,-0.691375 C 10.046088,6.0270458 16.296367,3.4338378 22.947521,3.4338378 c 6.717722,0 13.011319,2.636528 17.721483,7.4240262 0.379338,0.385213 0.374199,1.005124 -0.01126,1.384464 -0.385458,0.379093 -1.005126,0.373956 -1.384464,-0.01124 C 34.934134,7.8207228 29.136125,5.3919778 22.947519,5.3919778 c -6.127177,0 -11.885295,2.388853 -16.2134284,6.7265312 -0.381786,0.382765 -1.001699,0.383501 -1.384464,0.0014 -0.191627,-0.191383 -0.287318,-0.442235 -0.287318,-0.69309 z"
     style="fill:#4e86b1;fill-opacity:1;stroke-width:0.24473467"
     sodipodi:nodetypes="scscccsccs" />
</svg>
