<svg xmlns="http://www.w3.org/2000/svg" width="270" height="1300">
 

 


 
	 <g  transform="scale(0.85) ">	
          	 
       <path class="path" fill="none" stroke-width="1" stroke ="white" stroke-dasharray= "200" stroke-dashoffset="200"

d="M19.809 66.048l-.13-1.04.948-.123.122 1.05zm.348-1.102l-.479.062a.498.498 0 0 1 .418-.551.485.485 0 0 1 .53.428zm.47-.026l.618 11.537-.949.052-.618-11.536zm.14 11.563l.478-.026a.48.48 0 0 1-.453.507.471.471 0 0 1-.496-.455zm.478-.017l.905 29.733-.949.026-.905-29.733zm.426 29.742l.479-.01c.009.263-.2.49-.461.499a.478.478 0 0 1-.488-.472zm-.47 0l-.008-.883.948-.01.009.892zm-5.387 5.882l5.396-6.32.714.647-5.396 6.31zm43.36 38.132l1.88-1.88.661.691-1.871 1.888zm-10.305-2.946l9.365 2.823-.261.936-9.374-2.823zm5.884-76.413L43.717 87.478l-.784-.542 11.028-16.614zM23.83 63.26l5.622 8.469-.792.542-5.622-8.47zM29.06 72l.392-.271a.49.49 0 0 1-.13.673.461.461 0 0 1-.662-.131zm.453.14l-2.811 9.876-.914-.271 2.811-9.877zm14.204-36.245l1.401-1.407.67.69-1.41 1.416zm11.575 90.275l-.461 3.758-.949-.123.47-3.758zm-.94 3.697l.479.06a.484.484 0 0 1-.531.429.492.492 0 0 1-.418-.55zm.427-.219l2.34 4.702-.843.446-2.342-4.702zm11.645 60.445l-11.245-2.823.226-.944 11.245 2.823zm-11.132-3.295l-.113.472a.486.486 0 0 1-.348-.585.477.477 0 0 1 .574-.359zm-.435.201L39.87 153.123l.862-.402 14.995 33.876zm-14.56-34.077l-.427.201a.486.486 0 0 1 .235-.646.471.471 0 0 1 .627.244zm.208.437l-7.493 3.767-.418-.874 7.502-3.767zm14.526 38.648l10.305 5.174-.418.874-10.305-5.174zm11.715-2.823l4.682 2.351-.418.874-4.682-2.35zm-34.744 55.83l-6.092-6.117.67-.69 6.092 6.109zm2.185 8.653l1.88 5.174-.897.341-1.871-5.174zm-.914.481l-1.41-9.413.94-.14 1.41 9.405zm-.94-9.483l-.47.07c-.035-.262.14-.515.4-.55a.468.468 0 0 1 .54.41zm-.453-.13l5.623-20.697.913.254-5.622 20.704zm25.562 21.7l-6.562 4.702-.549-.795 6.563-4.702zm8.155 4.799h-15.1v-.98h15.1zm-15.1-.49v.49a.48.48 0 0 1-.48-.49c0-.27.21-.49.48-.49zm-.07.48l-17.946-2.805.148-.961 17.937 2.797zM19.469 232.02l3.743 2.35-.496.831-3.743-2.351zm4.909 10.418l-1.871-7.534.922-.236 1.872 7.525zm-1.41-7.648l-.461.114a.487.487 0 0 1 .34-.595.486.486 0 0 1 .582.359zm-.148-.463l5.622-1.888.296.927-5.622 1.887zm27.076-45.133l5.152 2.823-.443.857-5.162-2.823zm4.926 3.251l.226-.428c.227.122.322.42.192.656a.467.467 0 0 1-.635.2zm.287.385l-18.268 14.115-.574-.778 18.268-14.115zm-18.555 13.73l.287.385a.467.467 0 0 1-.67-.096.498.498 0 0 1 .096-.682zm.392.271l-17.337 25.88-.784-.552 17.337-25.878zm-17.73 25.6l.393.28a.476.476 0 0 1-.662.13.5.5 0 0 1-.122-.682zm.358.323l-5.153 6.118-.713-.638 5.152-6.118zm-5.51 5.794l.357.324a.462.462 0 0 1-.67.043.485.485 0 0 1-.043-.681zm.088.481l-4.683.944-.183-.961 4.683-.944zm-1.332 15.146l3.281-2.823.61.743-3.282 2.823zm3.586-2.447l-.305-.376a.463.463 0 0 1 .67.062.494.494 0 0 1-.06.681zm.017-.49l9.844.473-.044.97-9.835-.472zm-9.208-16.422l9.748 16.79-.81.498-9.756-16.79zm9.339 17.034l.409-.244c.14.227.06.533-.166.664a.46.46 0 0 1-.644-.166zm.313-.367l16.71 14.456-.609.743-16.719-14.456zm32.594-62.298l5.622-2.823.418.874-5.622 2.823zm5.831-2.386l-.209-.437a.469.469 0 0 1 .636.219.5.5 0 0 1-.218.655zm.479.035l-.47 5.646-.949-.078.47-5.646zm-36.51 54.8l3.272-7.054.862.42-3.282 7.053zm3.707-6.844l-.435-.21c.113-.244.4-.35.635-.236.244.114.34.411.227.656zm-.34-.35l3.752-3.766.67.699-3.751 3.758zm4.083-3.417l-.331-.35a.469.469 0 0 1 .67.01.503.503 0 0 1 0 .69zm-.314-.358L54.97 203.85l.644.717-28.581 26.814zm28.895-26.456l-.322-.358a.462.462 0 0 1 .67.026.495.495 0 0 1-.026.69zm-.26-.41l9.834-6.59.522.821-9.835 6.581zm10.095-6.18l-.261-.41a.475.475 0 0 1 .661.14.494.494 0 0 1-.139.681zm.374-.306l3.281 4.24-.74.602-3.28-4.23zM13.83 228.715l5.622 3.295-.47.848-5.622-3.295zm5.387 3.714l.235-.42a.495.495 0 0 1 .183.665.475.475 0 0 1-.653.184zm-.453.158l-2.34-7.053.904-.315 2.342 7.062zm22.22 18.135l-8.895-5.646.496-.822 8.904 5.646zm-8.651-6.057l-.244.411a.484.484 0 0 1-.156-.664.462.462 0 0 1 .652-.158zm-.348-.332l9.373-10.348.696.664-9.373 10.348zm-2.046 14.902l12.368-1.407.104.97-12.367 1.407zm3.76-5.646l4.683-.472.087.97-4.683.472zm-10.217 9.832l-.47 5.672-.949-.078.47-5.673zm-.94 5.637l.47.035a.473.473 0 0 1-.514.446.482.482 0 0 1-.435-.524zm.46-.096l.47 2.36-.93.192-.47-2.36zm0 2.456l.47-.096a.484.484 0 0 1-.373.577.48.48 0 0 1-.557-.385zm.027-.48l24.343 1.415-.052.97-24.343-1.415zm24.317 1.905l.026-.49a.48.48 0 0 1 .444.516.466.466 0 0 1-.496.454zm-.026-.49l17.79-.944.043.97-17.78.944zm17.816-.454l-.026-.49a.473.473 0 0 1 .496.464.48.48 0 0 1-.453.507zm-.453-.157l.47-1.425.896.315-.47 1.415zm.914-1.268l-.444-.157a.467.467 0 0 1 .6-.306.495.495 0 0 1 .296.62zm-.374.297l-2.812-3.784.758-.586 2.81 3.785zm-2.429-4.081l-.383.297a.496.496 0 0 1 .096-.682.457.457 0 0 1 .662.096zm-.078.48l-5.622-.943.156-.962 5.614.944zm-5.544-1.424l-.078.48a.492.492 0 0 1-.392-.559.48.48 0 0 1 .548-.402zm-.209.437l-14.978-7.569.426-.874 14.97 7.569zm-14.77-8.006l-.208.437a.5.5 0 0 1-.218-.655c.122-.236.4-.341.644-.219zm-.365.306l-3.742-4.728.73-.612 3.752 4.728zm-3.377-5.034l-.365.306a.486.486 0 0 1 .07-.682c.2-.175.495-.14.66.07zm-.357-.323l2.812-3.313.713.638-2.81 3.313zm3.168-2.99l-.356-.323a.47.47 0 0 1 .67-.044c.191.175.217.481.043.682zm-.478-.017l.47-16.082.948.027-.47 16.081zm.948-16.064l-.478-.018a.478.478 0 0 1 .487-.472c.261.01.47.236.461.499zm-.47-.105l3.743-17.506.931.21-3.742 17.506zm-31.218-2.858l3.28-2.368.55.804-3.282 2.36zm3.55-1.966l-.27-.402a.477.477 0 0 1 .662.122.508.508 0 0 1-.113.682zm-.408-.254l1.41-2.368.809.507-1.401 2.368zm1.819-2.115l-.41-.253a.47.47 0 0 1 .653-.158c.227.14.296.437.157.665zm-.288-.384l1.872-1.425.565.787-1.871 1.415zm2.159-1.032l-.287-.393a.474.474 0 0 1 .67.105.49.49 0 0 1-.105.681zm-.375-.297l17.807-23.187.749.603-17.807 23.178zm18.182-22.89l-.375-.297a.456.456 0 0 1 .662-.087.506.506 0 0 1 .087.69zm-.305-.376l14.987-12.769.61.743-14.996 12.778zm15.292-12.401l-.305-.368a.463.463 0 0 1 .67.062c.166.21.14.515-.06.681zm-.418.244l-10.305-18.93.836-.472 10.305 18.922zm-9.887-19.166l-.418.236a.495.495 0 0 1 .183-.665.476.476 0 0 1 .653.193zm-.435.2l-3.751-8.52.87-.394 3.751 8.513zm-3.316-8.722l-.435.201a.485.485 0 0 1 .243-.638.46.46 0 0 1 .627.245zm-.427.227l-2.81-5.68.852-.437 2.811 5.672zm-2.384-5.899l-.427.218a.5.5 0 0 1 .218-.655.464.464 0 0 1 .635.219zm-.279.393l-10.304-7.568.557-.796 10.304 7.569zm-22.158 73.957l4.116 7.709-.835.463-4.117-7.7zm3.699 7.936l.417-.227a.488.488 0 0 1-.191.656.466.466 0 0 1-.644-.193zm.235-.42l5.622 3.296-.47.847-5.622-3.294zm5.387 3.715l.235-.42a.492.492 0 0 1 .174.665.465.465 0 0 1-.644.183zm.043-.48l5.153.463-.087.97-5.153-.463zm5.11.952l.043-.49a.483.483 0 0 1 .426.534.472.472 0 0 1-.513.437zm-.445-.175l1.402-3.767.896.35-1.41 3.767zm1.854-3.592l-.452-.175a.482.482 0 0 1 .618-.28.5.5 0 0 1 .278.63zm-.374-.306l1.88-2.35.73.611-1.87 2.351zm2.245-2.045l-.365-.306a.454.454 0 0 1 .661-.07.486.486 0 0 1 .07.682zm-.47-.07l.47-3.295.94.14-.47 3.295zm-3.28 5.952l2.34 10.226-.93.218-2.342-10.217zm1.88 10.34l.46-.114a.491.491 0 0 1-.356.585.483.483 0 0 1-.575-.367zm.417-.228l7.032 13.94-.853.446-7.023-13.94zm6.606 14.168l.426-.228a.5.5 0 0 1-.209.656.47.47 0 0 1-.644-.21zm.426.218l-1.88 3.715-.844-.446 1.871-3.715zm-2.297 3.496l.417.219c-.122.244-.409.34-.635.21a.489.489 0 0 1-.209-.656zm-.288.385l-4.22-3.252.574-.778 4.212 3.252zm-3.934-3.636l-.287.384a.486.486 0 0 1-.087-.681.471.471 0 0 1 .662-.096zm-.304.376L12.82 255.109l.61-.743 14.055 12.079zm-13.751-12.463l-.305.375a.495.495 0 0 1-.06-.681.464.464 0 0 1 .67-.062zm-.34.34L.14 241.597l.68-.673 12.654 13.477zM.48 241.265l-.34.332a.495.495 0 0 1 .009-.69.469.469 0 0 1 .67.018zm-.479 0v-1.398h.957v1.398zm.479-1.398H0c0-.271.218-.49.479-.49.26 0 .478.219.478.49zm-.288-.393l6.093-4.641.565.778-6.092 4.65zm6.38-4.257l-.287-.384a.474.474 0 0 1 .67.096.497.497 0 0 1-.105.681zm-.261-.41l4.221-2.78.513.813-4.22 2.788zm58.356-37.276l1.4-7.997.94.175-1.41 7.997zm1.87-7.91l-.47-.087a.488.488 0 0 1 .558-.394.49.49 0 0 1 .383.569zm-.46.114l-8.434-35.283.923-.228 8.433 35.283zm-33.012-.55l4.682-2.352.418.874-4.682 2.351zm-5.562-31.08l5.623-1.87.296.926-5.623 1.87zm9.052 41.855l.94-4.693.931.201-.94 4.685zm1.401-4.588l-.461-.105a.474.474 0 0 1 .557-.376.489.489 0 0 1 .374.577zm-.47 0v-8.443h.949v8.443zm0-8.443v-16.885h.949v16.885zm.47-16.885h-.47c0-.271.209-.49.47-.49a.48.48 0 0 1 .479.49zm-.452.14l-2.342-7.971.914-.28 2.341 7.97zm24.804-16.93l7.963 28.23-.913.271-7.964-28.23zm7.51 28.37l.453-.14a.479.479 0 0 1-.322.603.473.473 0 0 1-.591-.332zm.47-.07l1.402 10.348-.94.14-1.401-10.357zm.932 10.418l.47-.07a.473.473 0 0 1-.4.55.48.48 0 0 1-.54-.41zm.461.14l-2.81 9.876-.915-.27 2.812-9.877zm-3.272 9.736l.461.14a.473.473 0 0 1-.592.332.49.49 0 0 1-.322-.603zm.209.437l-15.927 8.006-.418-.874 15.927-8.006zm-16.136 7.569l.209.437a.472.472 0 0 1-.636-.227.487.487 0 0 1 .218-.647zm.33.35l-23.899 23.055-.652-.708 23.899-23.055zM28.6 125.636v6.59h-.957v-6.59zm-.479 6.59h.48c0 .263-.218.481-.48.481a.484.484 0 0 1-.478-.48zm.47.018l-.46 9.413-.95-.053.462-9.404zm-.94 9.386l.48.027a.491.491 0 0 1-.506.463.48.48 0 0 1-.444-.516zm.314-.367l12.646 11.292-.618.734-12.655-11.292zm-7.537 3.217l7.023-3.287.4.883-7.032 3.295zm-4.64-11.782l12.177-4.23.304.926-12.176 4.23zm12.333-3.767l-.156-.463a.48.48 0 0 1 .609.306.5.5 0 0 1-.305.62zm-.034-.49l12.176-.943.078.979-12.185.935zm-10.096-7.49l10.305 4.23-.349.91-10.313-4.239zm10.13 4.685l.175-.454a.501.501 0 0 1 .27.638.481.481 0 0 1-.619.27zm-.148-.463l9.835-3.295.296.927-9.835 3.295zm.645 84.07l4.212-10.786.888.359-4.221 10.785zm4.656-10.602l-.444-.184c.104-.253.374-.376.618-.27a.491.491 0 0 1 .27.629zm-.479 0v-9.378h.957v9.378zm.479-9.378h-.479c0-.271.218-.49.479-.49.26 0 .478.219.478.49zm-.461.131l-3.273-11.72.914-.271 3.281 11.72zm-2.82-11.851l-.453.13a.48.48 0 0 1 .322-.602.483.483 0 0 1 .592.332zm-.462.096l-2.34-11.72.93-.201 2.342 11.729zm-1.88-11.817l-.46.097a.49.49 0 0 1 .365-.577.478.478 0 0 1 .565.375zm-.478 0v-7.507h.957v7.507zm.478-7.507h-.478c0-.271.217-.49.478-.49.262 0 .48.219.48.49zm-.33.35l-2.341-2.343.661-.7 2.341 2.343zm-2.01-2.692l-.331.35a.495.495 0 0 1-.01-.691.469.469 0 0 1 .671-.01zm-.453.14l-1.41-4.685.914-.289 1.4 4.694zm-.958-4.825l-.452.14a.499.499 0 0 1 .313-.612.484.484 0 0 1 .6.323zm-.417.227l-4.683-8.906.836-.463 4.69 8.906zm-4.265-9.142l-.418.236a.506.506 0 0 1 .192-.664.474.474 0 0 1 .644.201zm-.444.166l-3.281-9.378.896-.323 3.273 9.378zm-2.837-9.544l-.444.166a.49.49 0 0 1 .287-.62.482.482 0 0 1 .61.297zm-.47-.078l1.88-11.72.94.157-1.88 11.72zm2.35-11.642l-.47-.078a.477.477 0 0 1 .54-.402.498.498 0 0 1 .4.559zm-.427-.227l9.374-17.82.835.462-9.365 17.821zm9.791-17.585l-.417-.236a.466.466 0 0 1 .644-.192c.235.122.322.42.191.655zm-.443.158l-6.093-17.812.897-.324 6.092 17.82zm5.187-9.273L26.406 84.2l.835-.471 5.51 10.147zm6.875-3.645l1.497-9.37.94.158-1.497 9.36zm4.152-.114l-3.516.533-.14-.97 3.525-.524zm-3.586.053l.07.48a.48.48 0 0 1-.54-.41.486.486 0 0 1 .4-.56zm.444-.175l10.07 28.081-.897.341-10.07-28.081zm9.617 28.247l.453-.166a.504.504 0 0 1-.288.63.481.481 0 0 1-.609-.289zm.444-.174l3.525 9.002-.888.367-3.525-9.011zM30.932 81.343l1.87 12.699-.94.148-1.87-12.708zm1.4 12.769l.47-.07a.491.491 0 0 1-.4.56.49.49 0 0 1-.54-.412zm.453-.166l5.623 15.522-.897.34-5.622-15.522zm11.75 38.892l-7.137-23.257.905-.297 7.137 23.266zm9.913-.14l-4.682.944-.183-.961 4.682-.935zm-4.778.464l.096.48a.484.484 0 0 1-.566-.384.501.501 0 0 1 .383-.577zm-.035.489l-6.092-.472.07-.97 6.092.472zm7.528 21.09l.94-7.054.94.123-.94 7.061zm1.41-6.993l-.47-.06a.473.473 0 0 1 .531-.42c.261.035.444.28.41.542zm.444-.166l2.341 6.59-.887.332-2.342-6.59zm-7.92 5.183l.461-1.407.906.306-.47 1.416zm.914-1.25l-.453-.157a.48.48 0 0 1 .61-.306.485.485 0 0 1 .296.612zm.392-.28l1.88 2.824-.792.55-1.872-2.823zm-4.979-9.744l1.767 6.118-.914.28-1.766-6.119zm.366 9.91l.47-3.714.949.123-.47 3.714zm.94-3.653l-.47-.06a.473.473 0 0 1 .53-.42.49.49 0 0 1 .419.542zm.479-.052l.47 4.466-.95.105-.47-4.466zm-5.483-14.342l3.707 8.154-.862.42-3.707-8.163zm3.28 8.364l.427-.21a.5.5 0 0 1-.226.656.475.475 0 0 1-.636-.236zm.253-.41l2.785 1.817-.513.813-2.777-1.81zm2.524 2.219l.261-.402a.48.48 0 0 1 .14.664.461.461 0 0 1-.653.149zm.035-.48l7.415.454-.06.97-7.416-.455zm7.38.934l.035-.48a.476.476 0 0 1 .444.515.484.484 0 0 1-.505.455zm-.122-.463l3.247-.909.252.935-3.246.91zm-15.283-13.092l2.133 2.097-.662.708-2.132-2.106zm1.802 2.456l.33-.359c.192.193.2.499.018.69a.48.48 0 0 1-.679.018zm.444.175l-1.062 2.805-.888-.358 1.062-2.806zm-16.85-51.208l.47 8.006-.948.053-.47-7.997zm-.009 8.032l.48-.026a.474.474 0 0 1-.453.507.466.466 0 0 1-.496-.454zm.47-.104l1.872 8.94-.932.202-1.87-8.941zm1.41 9.045l.462-.105a.49.49 0 0 1-.366.577.472.472 0 0 1-.566-.375zm.444-.174l8.434 22.583-.897.341-8.433-22.584zm7.981 22.75l.453-.167a.503.503 0 0 1-.279.63.48.48 0 0 1-.618-.289zm.444-.193l4.212 9.885-.87.385-4.221-9.876zm3.777 10.077l.435-.192a.492.492 0 0 1-.243.638.476.476 0 0 1-.627-.253zm.462-.096l.47 2.351-.932.193-.47-2.351zm.008 2.447l.462-.096a.494.494 0 0 1-.366.577.484.484 0 0 1-.566-.384zm.47-.052l.47 4.23-.948.114-.47-4.24zm0 4.291l.47-.06c.026.27-.156.515-.418.541a.492.492 0 0 1-.53-.428zm.444-.157l2.35 7.053-.905.315-2.341-7.062zm1.897 7.21l.453-.157a.5.5 0 0 1-.305.62.474.474 0 0 1-.6-.305zm.462-.096l.94 4.702-.932.193-.94-4.702zm.47 4.799l.47-.097a.489.489 0 0 1-.375.577.473.473 0 0 1-.557-.384zm.34-.341l1.4 1.407-.661.699-1.41-1.416zm1.07 1.756l.33-.35a.495.495 0 0 1 .01.691.47.47 0 0 1-.671.01zm.209-.437l.94.472-.418.874-.94-.472zm.73.91l.21-.438c.234.114.33.402.217.647a.475.475 0 0 1-.635.227zm.28-.394l1.87 1.407-.557.787-1.88-1.407zm1.592 1.8l.278-.393a.49.49 0 0 1 .105.682.465.465 0 0 1-.662.105zm0-.489h1.401v.979H50.14zm1.401.49v-.49a.48.48 0 0 1 .479.49.48.48 0 0 1-.479.489zm.244-.42l2.34 1.416-.478.839-2.34-1.416zm2.106 1.835l.235-.42a.492.492 0 0 1 .174.665.482.482 0 0 1-.653.175zm0-.49h1.401v.98h-1.401zm1.401.49v-.49c.261 0 .479.22.479.49 0 .263-.218.49-.479.49zm.096-.48l2.341.472-.183.952-2.34-.472zm2.245.944l.096-.472a.487.487 0 0 1 .374.568.48.48 0 0 1-.557.384zm-.33-.341l.94-.944.661.69-.94.944zm1.27-.595l-.33-.35a.461.461 0 0 1 .67.01.484.484 0 0 1-.009.681zm.087-.48l2.342.472-.174.952-2.35-.463zm2.255.952l.087-.48a.492.492 0 0 1 .383.568.473.473 0 0 1-.557.384zm-.331-.35l.931-.943.67.699-.94.935zm1.27-.594l-.339-.35a.48.48 0 0 1 .679.01.503.503 0 0 1-.01.69zm-.478.044l-.47-5.174.949-.087.47 5.174zm.009-5.218l-.479.044a.495.495 0 0 1 .435-.533.484.484 0 0 1 .514.445zm-.47.088l-.94-5.174.94-.175.94 5.174zm-.47-5.262l-.47.088a.49.49 0 0 1 .383-.568.475.475 0 0 1 .557.393zm-.461.105l-.94-4.239.93-.21.932 4.23zm-.47-4.344l-.47.105a.487.487 0 0 1 .365-.577.474.474 0 0 1 .566.367zm-.4.271l-2.812-4.23.792-.55 2.811 4.238zm-2.412-4.5l-.4.27a.497.497 0 0 1 .13-.673.466.466 0 0 1 .662.123zm-.339.34l-2.341-2.35.67-.691 2.341 2.35zm-2.01-2.692l-.331.341a.503.503 0 0 1-.009-.69.48.48 0 0 1 .679 0zm-.453.14l-2.341-7.525.905-.297 2.341 7.534zm-1.889-7.674l-.452.149a.495.495 0 0 1 .313-.612.473.473 0 0 1 .592.315zm-.46.123l-4.683-19.29.922-.235 4.683 19.289zm-4.222-19.412l-.461.123a.495.495 0 0 1 .348-.595.477.477 0 0 1 .574.359zm-.444.166L42.194 92.4l.896-.333 4.683 13.171zm-4.238-13.337l-.453.166a.49.49 0 0 1 .287-.62.467.467 0 0 1 .61.288zm-.47-.078l.47-2.823.93.157-.46 2.823zm.93-2.745l-.46-.078a.466.466 0 0 1 .54-.402.485.485 0 0 1 .39.56zm-.47-.06l.94-7.998.94.114-.93 8.006zM53.396 66.65l1.41 3.767-.897.35-1.4-3.768zm.957 3.941l.453-.174a.5.5 0 0 1-.279.629.482.482 0 0 1-.618-.28zm.479-.017l.47 15.53-.949.027-.47-15.53zm-.009 15.54l.479-.01c.009.263-.2.49-.461.499a.478.478 0 0 1-.488-.472zm.479 0l.47 39.985-.949.009-.47-39.986zm-.009 39.993l.479-.009c0 .271-.209.49-.47.49a.473.473 0 0 1-.479-.481zm-.183.446l-3.28-1.407.365-.9 3.281 1.407zM47.79 56.128l-2.341 8.94-.923-.253 2.341-8.932zm-28.094 9.16l2.34-8.47.923.262-2.35 8.47zm2.802-8.339l-.461-.13c.07-.263.34-.412.592-.342.252.07.4.341.33.603zm-.418-.236l3.282-6.118.835.472-3.281 6.118zm3.7-5.882l-.418-.236a.466.466 0 0 1 .644-.192.498.498 0 0 1 .191.664zm-.192-.445l7.502-3.295.366.891-7.494 3.295zm7.685-2.85l-.183-.445a.469.469 0 0 1 .618.253.486.486 0 0 1-.252.638zm.122-.471l8.433 2.35-.243.944-8.434-2.35zm8.311 2.823l.122-.472c.253.07.41.34.34.603a.472.472 0 0 1-.583.34zm.349-.333l5.152 5.646-.696.665-5.153-5.646zm4.804 5.979l.348-.333a.503.503 0 0 1-.026.69.462.462 0 0 1-.67-.025zm.383-.298l1.4 1.888-.756.586-1.401-1.88zm1.027 2.177l.374-.289a.497.497 0 0 1-.087.682.474.474 0 0 1-.67-.096zm-.435.2l-3.752-8.468.87-.394 3.743 8.47zm-7.294 2.675l4.683 2.823-.48.839-4.682-2.823zm-5.753-1.46l5.623 1.408-.218.943-5.622-1.407zm-6.701.455l7.032-.472.06.979-7.031.463zm-4.944 3.863l4.683-3.758.583.769-4.683 3.758zm17.154 18.275l-.47-20.539.95-.017.47 20.539zm0-20.547l-.47.008c-.008-.27.2-.49.462-.498.27 0 .478.21.487.48zm-.47-.062l1.41-10.986.94.123-1.4 10.986zM33.743 47.45l2.341 13.652-.94.166-2.341-13.643zm1.871 13.73l.47-.078a.486.486 0 0 1-.383.56.483.483 0 0 1-.557-.394zm.479.018l-.47 11.292-.949-.035.47-11.292zm-.949 11.274l.479.018a.486.486 0 0 1-.496.472.48.48 0 0 1-.453-.507zm.479-.026l.47 8.47-.949.052-.47-8.47zm-6.101 9.011L27.65 59.807l.94-.078 1.88 21.64zM28.12 59.772l-.47.035a.48.48 0 0 1 .427-.524.479.479 0 0 1 .513.446zm-.46.123l-2.342-8.941.923-.254 2.34 8.941zm-4.692-3.016l1.41 10.83-.949.121-1.4-10.82zm.931 10.89l.48-.06a.495.495 0 0 1-.419.541.484.484 0 0 1-.53-.42zm.47-.087l1.872 10.348-.932.175-1.87-10.348zm1.41 10.435l.462-.087a.487.487 0 0 1-.375.568.483.483 0 0 1-.557-.393zm.47-.06l.47 3.766-.948.122-.462-3.766zm0 3.827l.47-.06a.495.495 0 0 1-.418.541.484.484 0 0 1-.53-.42zm-.06-.49l7.493-.934.122.961-7.502.944zm7.554-.454l-.061-.48a.474.474 0 0 1 .53.42.472.472 0 0 1-.408.541zm.017-.49l11.245.473-.035.979-11.245-.472zm11.228.962l.017-.49c.261.01.47.237.453.508a.478.478 0 0 1-.488.472zm-.48 0V66.353h.958v15.06zm0-15.059v-7.997h.958v7.997zm.48-7.997h-.48c0-.27.218-.489.48-.489.26 0 .478.218.478.49zm-.48-.052l.47-4.23.95.105-.47 4.23zm-2.784-13.049l.444 4.466-.949.097-.444-4.467zm-16.415 5.672l-.93-4.702.93-.2.932 4.71zm5.605-12.017l2.811 8.47-.905.314-2.81-8.47zm14.657 11.336l-1.41-.935.522-.813 1.41.935zM44.42 48.9l-.26.41a.5.5 0 0 1-.14-.672.47.47 0 0 1 .662-.14zm-.347.332l-4.691-5.148.696-.664 4.69 5.148zm-4.343-5.48l-.348.332a.495.495 0 0 1 .026-.69.462.462 0 0 1 .67.026zm-.331.35l-4.23-4.213.67-.7 4.221 4.213zm-3.9-4.563l-.33.35a.503.503 0 0 1-.009-.69.472.472 0 0 1 .68-.01zm-.034.481l-5.17-.463.087-.979 5.162.472zm-5.126-.953l-.044.49a.483.483 0 0 1-.426-.533.485.485 0 0 1 .513-.446zm.33.35l-2.34 2.342-.67-.699 2.35-2.342zM28 41.41l.33.35a.48.48 0 0 1-.678-.01.503.503 0 0 1 .008-.69zm.383.28L20.4 53.391l-.775-.55 7.981-11.712zM20.018 53.12l.383.271a.46.46 0 0 1-.662.122.495.495 0 0 1-.113-.673zm.461.114l-3.29 13.582-.922-.236 3.29-13.582zm-3.751 13.46l.461.122a.465.465 0 0 1-.574.35.486.486 0 0 1-.348-.586zm.47.07l-1.41 9.84-.94-.148 1.41-9.833zm-1.88 9.77l.47.07a.48.48 0 0 1-.54.411.493.493 0 0 1-.4-.56zm.479.018l-.47 10.767-.949-.043.47-10.768zm-.949 10.75l.479.017a.473.473 0 0 1-.496.464.474.474 0 0 1-.453-.507zm.479-.026l1.41 24.821-.949.053-1.41-24.822zm.93 24.847l.48-.026c.008.262-.192.498-.453.507a.471.471 0 0 1-.496-.454zm.454-.148l2.35 7.49-.906.297-2.35-7.49zm19.843-77.567l-.47 5.174-.94-.087.47-5.174zm16.658-14.395l1.871-.935.418.874-1.871.935zm2.08-.498l-.209-.437a.469.469 0 0 1 .636.219.5.5 0 0 1-.218.655zm0-.49h.94v.98h-.94zm-11.488 3.147l5.152 2.823-.444.857-5.152-2.823zm4.526-1.835l2.106.874-.357.9-2.106-.874zm1.923 1.32l.183-.446a.48.48 0 0 1 .26.629.464.464 0 0 1-.617.27zm0-.49h2.637v.979h-2.637zm2.637.49v-.49c.261 0 .479.227.479.49 0 .27-.218.489-.479.489zm-.296-.376l.522-.437.601.76-.522.437zm.827-.062l-.305-.375a.471.471 0 0 1 .67.07c.166.21.14.515-.07.69zm-.479 0v-1.232h.958v1.232zm-4.404.044l1.054 1.53-.775.559-1.053-1.53zm.662 1.81l.392-.28a.495.495 0 0 1-.114.673.465.465 0 0 1-.661-.114zm.47.095l-.47 2.351-.931-.192.47-2.35zm-.94 2.255l.47.096a.484.484 0 0 1-.566.385.494.494 0 0 1-.365-.577zm.14-.463l6.092 1.88-.27.934-6.093-1.879zm5.952 2.342l.14-.463c.252.079.391.35.322.603a.473.473 0 0 1-.592.332zm-.33-.34l.94-.944.661.69-.931.944zm1.27-.595l-.33-.35a.462.462 0 0 1 .67.01.484.484 0 0 1-.009.681zm-.426.219l-.47-.944.853-.437.47.935zm-.044-1.163l-.426.219a.5.5 0 0 1 .209-.656.473.473 0 0 1 .644.219zm-.452.158l-.932-2.823.897-.315.94 2.823zm-.488-2.98l-.444.157a.488.488 0 0 1 .296-.62.47.47 0 0 1 .6.305zm-.391.27l-.932-1.407.784-.55.94 1.415zm1.444-8.976l-3.75.944-.218-.944 3.742-.943zm-3.385-2.665v3.321h-.949v-3.321zm0 3.321v2.858h-.949v-2.858zm-.479 2.858h.479c0 .262-.209.49-.479.49a.484.484 0 0 1-.47-.49zm.218-.437l3.603 1.905-.435.865-3.603-1.905zm3.385 2.333l.218-.428c.235.123.322.411.2.656a.465.465 0 0 1-.635.21zm-.409.245l-1.349-2.377.818-.49 1.35 2.378zm-.94-2.622l-.409.245a.484.484 0 0 1 .166-.664.478.478 0 0 1 .652.175zm-.452.149l-.905-2.85.905-.297.905 2.85zm2.794.83l-2.342-.472.183-.961 2.341.472zm-2.246-.953l-.096.481a.484.484 0 0 1-.374-.577.475.475 0 0 1 .557-.384zm.087.481l-2.341.472-.183-.961 2.341-.472zm-2.437-.009l.096.481a.47.47 0 0 1-.557-.384.484.484 0 0 1 .374-.577zm.253.411l-3.752 2.36-.496-.839 3.752-2.351zm-3.995 1.94l.243.42a.472.472 0 0 1-.652-.166.504.504 0 0 1 .156-.673zm.461-.122l.47 1.888-.923.236-.47-1.88zm-15.396 9.046l3.742.472-.113.97-3.742-.472zm3.69.961l.052-.49c.261.036.453.28.418.543a.48.48 0 0 1-.53.428zm.305-.375l7.502 6.59-.618.734-7.502-6.582zM47.625 41.4l-4.683-1.879.34-.909 4.69 1.88zm-4.517-2.334l-.166.455a.48.48 0 0 1-.27-.63.466.466 0 0 1 .61-.279zm-.444-.157l.931-2.823.905.315-.94 2.823zm-6.319-4.955l7.024 4.702-.522.821-7.024-4.71zm6.763 5.112l.26-.41a.494.494 0 0 1 .14.681.475.475 0 0 1-.661.14zm.444-.183l2.81 7.062-.878.367-2.811-7.062zm15.535-12.9l1.192-.944.583.769-1.192.944zm1.488-.56l-.296-.384a.472.472 0 0 1 .67.087.497.497 0 0 1-.087.682zm.087.481l-2.34.472-.184-.961 2.342-.472zm-2.34.472l-2.342.463-.183-.952 2.341-.472zm-2.438-.009l.096.472a.469.469 0 0 1-.557-.384.48.48 0 0 1 .374-.568zm.261-.41l1.41.944-.522.812-1.41-.944zm1.15 1.346l.26-.402a.5.5 0 0 1 .14.673.47.47 0 0 1-.662.14zm-.21-.437l2.76-1.408.426.874-2.768 1.408zm-1.836 8.722l-10.105-.918.079-.97 10.113.918zm-10.07-1.407l-.035.49a.49.49 0 0 1-.435-.534.477.477 0 0 1 .514-.437zm-.426-.201l3.847-8.758.87.403-3.856 8.757zm-1.454-16.536l4.683 2.019-.366.9-4.691-2.019zm-9.086 16.431h1.871v.979h-1.871zm1.871.49v-.49c.261 0 .479.219.479.49 0 .27-.218.489-.479.489zm-.47-.053l.461-4.702.95.096-.47 4.702zm.94-4.65l-.479-.052a.48.48 0 0 1 .523-.437.483.483 0 0 1 .426.533zm-.409-.262l1.41-2.35.81.506-1.41 2.36zm-4.587-4.79l6.554 2.36-.313.918-6.554-2.35zm-1.322-7.009l4.682 2.823-.479.84-4.682-2.824zm18.19 20.425l-3.752-3.294.618-.743 3.751 3.295zm-3.438-3.662l-.314.368a.494.494 0 0 1-.052-.682.464.464 0 0 1 .67-.061zm-.383.298l-4.213-5.646.758-.595 4.212 5.646zm-3.838-5.944l-.375.298a.494.494 0 0 1 .087-.682.473.473 0 0 1 .67.087zm-.21.437l-2.81-1.415.417-.874 2.811 1.415zm-2.602-1.852l-.208.437a.487.487 0 0 1-.218-.647c.122-.245.4-.341.635-.227zm-.417.227l-3.282-6.59.845-.446 3.28 6.59zm-2.855-6.809l-.427.219a.492.492 0 0 1 .21-.656.465.465 0 0 1 .635.21zm-.479-.052l.47-4.239.949.105-.47 4.239zm.94-4.186l-.47-.053a.472.472 0 0 1 .522-.428c.262.026.453.27.427.533zm-.296-.376l2.811-2.351.601.751-2.811 2.36zm3.107-1.976l-.296-.375c.2-.175.505-.14.67.07.166.21.131.515-.069.681zm0-.489h1.41v.979h-1.41zm1.41.49v-.49c.261 0 .479.219.479.49 0 .27-.218.489-.479.489zm.174-.455l4.683 1.88-.348.908-4.683-1.88zm4.509 2.334l.174-.455a.501.501 0 0 1 .27.638.47.47 0 0 1-.618.271zm.426.227l-.94 1.879-.844-.446.931-1.879zm-1.366 1.66l.426.219a.462.462 0 0 1-.635.218.5.5 0 0 1-.209-.664zm.478-.052l.47 4.71-.948.097-.47-4.711zm-.008 4.754l.478-.043a.48.48 0 0 1-.426.524.472.472 0 0 1-.522-.428zm.47.097l-.94 4.702-.932-.193.94-4.702zm-1.402 4.605l.462.097a.473.473 0 0 1-.557.384.489.489 0 0 1-.375-.577zm.279.394l-1.871 1.416-.566-.787 1.871-1.416zm-3.238-2.535l1.158-1.844.8.524-1.157 1.845zm1.558-1.582l-.4-.262a.479.479 0 0 1 .661-.148.491.491 0 0 1 .14.672zm-.444.175l-.974-2.596.887-.35.975 2.596zm-.53-2.77l-.444.174a.491.491 0 0 1 .27-.629.475.475 0 0 1 .617.28zm-.47.06l-.331-2.595.948-.122.322 2.595zm.147-2.656l-.478.061a.495.495 0 0 1 .418-.542.479.479 0 0 1 .53.42zm-.104.472l-1.636-.367.209-.953 1.627.376zm-1.532-.84l-.104.473a.482.482 0 0 1-.357-.577.482.482 0 0 1 .566-.376zm.41.245l-1.306 2.23-.81-.5 1.297-2.228zm-1.715 1.976l.409.253a.47.47 0 0 1-.653.166.484.484 0 0 1-.157-.664zm.435-.201l1.958 4.457-.87.393-1.95-4.448zm1.523 4.658l.435-.201a.489.489 0 0 1-.235.638.47.47 0 0 1-.635-.245zm.13-.472l1.306.367-.261.944-1.297-.376zm-7.24.586l2.81 9.413-.913.28-2.803-9.414zm2.358 9.552l.453-.14a.487.487 0 0 1-.322.604.478.478 0 0 1-.592-.324zm.122.464l-3.273.943-.26-.935 3.28-.944zm-8.086-10.244h5.153v.98h-5.153zm5.153.49v-.49c.26 0 .47.219.47.49 0 .27-.21.49-.47.49zm-.47.096l-1.401-7.053.93-.201 1.402 7.062zm-6.093-9.256l1.872 8.941-.932.201-1.87-8.94zm1.41 9.037l.462-.096a.494.494 0 0 1-.366.577.478.478 0 0 1-.566-.376zm.427-.2l3.281 7.533-.862.394-3.28-7.526zm2.846 7.726l.435-.193a.481.481 0 0 1-.235.638.464.464 0 0 1-.627-.244zm.426-.219l1.41 2.823-.853.446-1.4-2.823zm.984 3.042l.426-.219a.497.497 0 0 1-.209.656.477.477 0 0 1-.644-.21zm.47.06l-.47 3.768-.94-.123.47-3.767zm-1.576-23.955l5.623 4.702-.6.76-5.623-4.71zM25.78 9.972l-.94 6.118-.94-.148.94-6.118zm-1.41 6.04l.47.078a.468.468 0 0 1-.54.402c-.26-.035-.434-.288-.4-.55zm.148-.464l5.623 1.888-.296.927-5.622-1.888zm5.475 2.351l.148-.463a.48.48 0 0 1 .304.612.479.479 0 0 1-.6.315zm-.47.035l-.47-6.118.949-.07.47 6.11zm14.117-2.176l4.22-7.053.81.507-4.212 7.053zm-8.06-9.352l3.282 7.525-.87.402-3.282-7.525zm3.308 7.7l.47-8.469.948.053-.47 8.469zm.948-8.443l-.478-.026a.486.486 0 0 1 .504-.463.48.48 0 0 1 .444.516zm.166-.454l8.433 3.295-.34.909-8.433-3.295zm8.268 3.75l.165-.455a.5.5 0 0 1 .279.63.475.475 0 0 1-.618.279zm-.41-.245l3.282-5.646.81.49-3.282 5.645zm7.764-.822l-3.742 3.767-.67-.7 3.75-3.757zm-4.082 3.417l.34.35a.48.48 0 0 1-.68-.009.503.503 0 0 1 .01-.69zm-.27.402l-3.28-2.35.548-.805 3.28 2.351zM40.775.533l-.47 5.174-.948-.087.47-5.174zm-.94 5.13l.47.044a.484.484 0 0 1-.513.446.496.496 0 0 1-.435-.533zm0 .49h-1.88v-.979h1.88zm-7.102-4.055l2.803 4.238-.783.542-2.812-4.23zm2.411 4.51l.392-.272a.489.489 0 0 1-.122.673.476.476 0 0 1-.661-.13zm-.148-.464l2.811-.944.296.927-2.81.944zm2.96-.48l-.149-.464a.479.479 0 0 1 .601.315.48.48 0 0 1-.305.612zm-.453.13L36.093.622l.914-.263 1.41 5.174zm-2.037 1.172l-5.622 5.174-.635-.726L34.83 6.24zm-5.944 4.815l.322.359a.462.462 0 0 1-.67-.035.496.496 0 0 1 .035-.69zm-.183.446l-4.221-1.879.383-.891 4.212 1.879zm-4.03-2.325l-.191.446c-.244-.114-.348-.393-.244-.647.105-.244.383-.358.627-.244zm-.339-.34l7.024-7.526.687.673-7.032 7.525zm7.363-7.193l-.34-.333a.469.469 0 0 1 .67-.017c.192.183.201.498.018.69zm-.183-.446l4.213-1.88.383.892-4.221 1.88zM36.554.489l-.191-.445a.475.475 0 0 1 .626.253.492.492 0 0 1-.243.638zm0-.489h3.743v.979h-3.743zm3.743.49V0a.48.48 0 0 1 .478.49.48.48 0 0 1-.478.489zm.113-.473l7.963 1.88-.217.952L40.192.961zm7.859 2.352l.104-.472a.49.49 0 0 1 .357.585.479.479 0 0 1-.574.367zm.122-.464l3.28.935-.252.944-3.28-.944zm3.15 1.407l.13-.472c.253.08.401.341.332.604a.472.472 0 0 1-.584.34zm.357-.332l3.751 4.24-.705.655-3.75-4.23zm3.394 4.563l.357-.324a.504.504 0 0 1-.035.69.47.47 0 0 1-.67-.034zm.479 0v6.117h-.957V7.543zm-.479 6.117h.479c0 .271-.218.49-.479.49a.486.486 0 0 1-.478-.49zm.462-.122l.94 3.767-.923.245-.94-3.767zm.478 3.89l.462-.123a.492.492 0 0 1-.349.594.465.465 0 0 1-.574-.35zm.47 0v1.878h-.948v-1.879zm-.47 1.878h.47c0 .271-.209.49-.47.49a.48.48 0 0 1-.478-.49zm.383-.28l3.281 4.703-.774.568-3.281-4.702zm2.898 4.991l.383-.288a.49.49 0 0 1-.113.682.467.467 0 0 1-.661-.114zm.392-.28l.931 1.416-.783.542-.94-1.407zm-2.263 3.566v1.915h-.948v-1.915zm-.478 1.915h.478a.48.48 0 0 1-.478.489.479.479 0 0 1-.47-.49zm.27.41l-1.41.953-.523-.813 1.401-.953zm-1.672.55l.261.403a.47.47 0 0 1-.661-.14.501.501 0 0 1 .14-.673zm.453-.156l.47 1.433-.905.306-.47-1.433zm.017 1.59l.453-.157a.5.5 0 0 1-.305.62.476.476 0 0 1-.6-.314zm.392.271l-.94 1.434-.783-.542.931-1.434zm-1.332 1.163l.392.27a.464.464 0 0 1-.653.132.49.49 0 0 1-.13-.673zm.47-.097l.462 2.386-.932.193-.46-2.386zm0 2.483l.462-.097a.485.485 0 0 1-.366.577.484.484 0 0 1-.566-.384zm.462.122l-.47 1.914-.923-.236.47-1.914zm-.932 1.792l.462.122a.465.465 0 0 1-.575.35.483.483 0 0 1-.348-.586zm0 .49h-.94v-.98h.94zm-.94-.49v.49a.479.479 0 0 1-.47-.49c0-.271.21-.49.47-.49zm.044.49l-5.622.48-.079-.98 5.623-.48zm-5.666-.01l.044.49a.486.486 0 0 1-.514-.455.486.486 0 0 1 .435-.524zm.4.271l-.94 1.434-.792-.542.94-1.434zM47.8 39.26l.391.27a.468.468 0 0 1-.661.132.497.497 0 0 1-.13-.673zm.479 0v1.914h-.958V39.26zm-.48 1.914h.48c0 .27-.218.49-.48.49a.486.486 0 0 1-.478-.49zm.445.166L46.37 46.6l-.896-.332 1.871-5.261zm-2.324 5.095l.452.166a.481.481 0 0 1-.609.289.49.49 0 0 1-.287-.62zm.479 0v3.82h-.95v-3.82zm-.48 3.82h.48a.48.48 0 0 1-.48.489.479.479 0 0 1-.47-.49zm.34-.341L48.6 52.3l-.67.69-2.342-2.386zm2.01 2.735l.332-.35a.495.495 0 0 1 0 .691.461.461 0 0 1-.67 0zm.453-.14l1.88 6.695-.922.271-1.871-6.695zm1.419 6.835l.461-.14a.49.49 0 0 1-.33.603.473.473 0 0 1-.592-.332zm.444-.175l4.212 11.249-.887.35-4.213-11.25zm3.768 11.423l.444-.174a.488.488 0 0 1-.27.629.482.482 0 0 1-.617-.28zm-.426.201l-6.092-13.276.861-.41 6.093 13.276z"><animate id="p1" attributeName="stroke-dashoffset" begin="0.1s;f1.end+0.3s" values="500;0;500" dur="14s"calcMode="linear"/> <animate id="f1" attributeName="fill" begin="p1.end-0.01s" values="#3f69aa; #3f69aa; #3f69aa" dur="3s"  calcMode="linear" /></path></g></svg>
