<svg xmlns="http://www.w3.org/2000/svg" viewBox="0 0 68 65">



<path
     d="m 34.531056,50.602133 -10.57555,5.16985 c -1.004733,0.52427 -0.778668,-3.43159 -0.02512,-4.76611 l 9.444249,-16.87149 c 0.728432,-1.31068 1.859001,-1.33451 2.612551,0.0233 l 9.570082,16.4669 c 0.75355,1.31068 1.029852,5.5504 0.02512,5.04995 z"
     

      style="fill:none;stroke:#000000;stroke-width:4.55433083;stroke-linecap:butt;stroke-linejoin:miter;stroke-miterlimit:4;stroke-dasharray:none;stroke-opacity:1"
     inkscape:connector-curvature="0"
     sodipodi:nodetypes="cccccccc"    
     
 />





<path d="m 34.321282,19.741663 c -7.425355,0 -14.020189,4.59163 -15.88516,11.33725 a 1.9074565,1.9074565 0 1 0 3.677138,1.01569 c 1.362415,-4.92785 6.353486,-8.53824 12.208022,-8.53824 5.723028,0 10.628862,3.41121 12.123267,8.13295 a 1.9074565,1.9074565 0 1 0 3.636617,-1.1508 C 48.03073,24.059963 41.560729,19.741663 34.321282,19.741663 Z" >

    <animate dur="2s" values="#4e86b1; #000000; #4e86b1" keyTimes="0; 0.5; 1" attributeName="fill" repeatCount="indefinite"/>
    </path>




<path  fill="#4e86b1" d="m 34.20969,6.9625926 c -11.080136,0 -20.920969,6.8516404 -23.703883,16.9174704 -1.0402697,3.6749 3.005504,4.70168 3.998946,1.01385 2.033,-7.35336 11.252629,-13.76154 19.98878,-13.76154 8.53992,0 17.348515,6.19411 19.578469,13.2399 1.101769,3.69975 4.881866,2.36146 3.654637,-1.2986 C 54.666973,13.406373 45.012416,6.9625926 34.20969,6.9625926 Z">

       <animate dur="2s" values="#000000; #4e86b1; #000000" keyTimes="0; 0.5; 1" attributeName="fill" repeatCount="indefinite"/>
  </path>
  
</svg>
