<svg xmlns="http://www.w3.org/2000/svg" width="45.616" height="51.639">



<path d="M33.535 35.115a.972.972 0 0 1-.257.659 13.915 13.915 0 0 1-10.237 4.508c-3.953 0-7.73-1.692-10.359-4.642a.977.977 0 0 1 1.458-1.3 11.933 11.933 0 0 0 8.901 3.99c3.336 0 6.543-1.413 8.797-3.875a.976.976 0 0 1 1.697.66zM33.532 17.7a.976.976 0 0 1-1.696.66 11.954 11.954 0 0 0-8.795-3.874 11.931 11.931 0 0 0-8.898 3.989.977.977 0 0 1-1.458-1.3 13.885 13.885 0 0 1 10.356-4.642 13.91 13.91 0 0 1 10.235 4.508.971.971 0 0 1 .256.66z">
<animate dur="2s" values="#000000; #4e86b1; #d7d7d7; #000000" keyTimes="0; 0.5; 0.7; 1" attributeName="fill" repeatCount="indefinite"/></path>



<path d="M40.653 42.62c0 .25-.095.499-.285.69-4.685 4.696-10.92 7.282-17.553 7.282-6.7 0-12.978-2.63-17.676-7.405a.976.976 0 1 1 1.392-1.37c4.328 4.4 10.111 6.822 16.284 6.822a22.693 22.693 0 0 0 16.171-6.709.976.976 0 0 1 1.667.69zM40.653 9.454a.976.976 0 0 1-1.667.69 22.7 22.7 0 0 0-16.171-6.707c-6.173 0-11.956 2.423-16.284 6.822a.977.977 0 0 1-1.392-1.37c4.699-4.775 10.976-7.404 17.676-7.404 6.633 0 12.866 2.585 17.553 7.28.19.19.285.44.285.69z" fill="#4e86b1">
<animate dur="3s" values="#000000; #4e86b1; #d7d7d7; #000000" keyTimes="0; 0.5; 0.7; 1" attributeName="fill" repeatCount="indefinite"/></path>



<path d="M28.194 26.651a4.992 4.992 0 0 1-4.986 4.986 4.991 4.991 0 0 1-4.986-4.986 4.991 4.991 0 0 1 4.986-4.985 4.992 4.992 0 0 1 4.986 4.985zm-8.019 0a3.036 3.036 0 0 0 3.033 3.034 3.037 3.037 0 0 0 3.033-3.034 3.036 3.036 0 0 0-3.033-3.033 3.036 3.036 0 0 0-3.033 3.033z">
<animate dur="5s" values="#000000; #4e86b1; #d7d7d7; #000000" keyTimes="0; 0.5; 0.7; 1" attributeName="fill" repeatCount="indefinite"/></path>



</svg>
