<svg version="1.1" xmlns="http://www.w3.org/2000/svg" xmlns:xlink="http://www.w3.org/1999/xlink"



  width="200" height="200" viewBox="0 1 250 300" 
  style="border:0px dotted red;">
<title>EMIIA</title>
  <desk>EIIA.AI
  </desk>


       <path class="path" fill="none" stroke-width="1" stroke ="black" stroke-dasharray= "600" stroke-dashoffset="600" 
       
       d="M48.388 23.766l.108 1.583-1.203.665.297 1.18-.515.995.323 1.974-.42 1.39-1.013.275-4.47.284-.794.976-.12 1.523-1.405 4.375.165 3.095L41 43.936l1.485 5.165 2.453 6.568-3.764-7.54M30.272 6.978l-4.405 4.113-3.411-1.45 5.587-6.261 3.398-1.355 3.301-.134 6.301 1.617 2.668.768 3.195 3.274.134 4.825.616 3.037-.167 1.925 2.927 3.761.515.997" fill="none" stroke-width=".2498108">


	 <animate id="p1" attributeName="stroke-dashoffset" begin="0.1s;f1.end+0.1s" values="1000;0;1000" dur="10s" 
	 calcMode="linear"/>
     
	 <animate id="f1" attributeName="fill" begin="p1.end-0.01s" values="white; white; white" dur="0.1s"  
	 calcMode="linear" />
     
          
	</path>




       <path class="path" fill="none" stroke-width="1" stroke ="black" stroke-dasharray= "600" stroke-dashoffset="600" 
       
       d="M28.043 3.38l2.229 3.598 2.317-.875-1.148-4.078" fill="none" stroke-width=".2498108">

	 <animate id="p1" attributeName="stroke-dashoffset" begin="0.1s;f1.end+0.1s" values="1000;0;1000" dur="10s" 
	 calcMode="linear"/>
     
	 <animate id="f1" attributeName="fill" begin="p1.end-0.01s" values="white; white; white" dur="0.1s"  
	 calcMode="linear" />
     
          
	</path>



       <path class="path" fill="none" stroke-width="1" stroke ="black" stroke-dasharray= "600" stroke-dashoffset="600" 
    
    d="M34.742 1.89l-.447 4.278-1.706-.065M46.906 7.55l-2.96 3.05-2.702-1.955" fill="none" stroke-width=".2498108">
    
	 <animate id="p1" attributeName="stroke-dashoffset" begin="0.1s;f1.end+0.1s" values="1000;0;1000" dur="10s" 
	 calcMode="linear"/>
     
	 <animate id="f1" attributeName="fill" begin="p1.end-0.01s" values="white; white; white" dur="0.1s"  
	 calcMode="linear" />
     
          
	</path>
    
    
    




        <path class="path" fill="none" stroke-width="1" stroke ="black" stroke-dasharray= "600" stroke-dashoffset="600" 
    
    d="M33.934 12.81l.36-6.642 6.95 2.477 2.467-4.369M30.272 6.978l2.62 5.932M37.757 14.284l3.487-5.64M22.456 9.642l-.97 4.855 4.5 1.483-.12-4.889M25.867 11.091l4.498 3.638M21.486 14.497l1.798 7.155 2.653 6.107.905 2.28-.168 3.148" fill="none" stroke-width=".2498108">
    
        	 <animate id="p1" attributeName="stroke-dashoffset" begin="0.1s;f1.end+0.1s" values="1000;0;1000" dur="10s" 
	 calcMode="linear"/>
     
	 <animate id="f1" attributeName="fill" begin="p1.end-0.01s" values="white; white; white" dur="0.1s"  
	 calcMode="linear" />
     
          
	</path>



    <path class="path" fill="none" stroke-width="1" stroke ="black" stroke-dasharray= "600" stroke-dashoffset="600"
    
    d="M23.284 21.652l3.914-.08-1.212-5.592" fill="none" stroke-width=".2498108">
    
            	 <animate id="p1" attributeName="stroke-dashoffset" begin="0.1s;f1.end+0.1s" values="1000;0;1000" dur="10s" 
	 calcMode="linear"/>
     
	 <animate id="f1" attributeName="fill" begin="p1.end-0.01s" values="white; white; white" dur="0.1s"  
	 calcMode="linear" />
     
          
	</path>
    
    
        <path class="path" fill="none" stroke-width="1" stroke ="black" stroke-dasharray= "600" stroke-dashoffset="600"
        
d="M27.198 21.572l2.536 7.833-2.892.634M35.455 23.325l1.09-1.76-1.295-2.372-.33-2.766-1.64-.476-1.682 2.208 2.26 4.632zM33.858 22.791l1.392-3.598M31.598 18.159l3.652 1.034" fill="none" stroke-width=".2498108">

        	 <animate id="p1" attributeName="stroke-dashoffset" begin="0.1s;f1.end+0.1s" values="1000;0;1000" dur="10s" 
	 calcMode="linear"/>
     
	 <animate id="f1" attributeName="fill" begin="p1.end-0.01s" values="white; white; white" dur="0.1s"  
	 calcMode="linear" />
     
          
	</path>
    


    <path class="path" fill="none" stroke-width="1" stroke ="black" stroke-dasharray= "600" stroke-dashoffset="600"
    
    d="M41.495 32.112l-3.103-2.555-3.534-4.6-2.238-1.405-2.591-5.44.336-3.383 2.224-1.722 1.345-.196 3.823 1.473-.95 1.639.48 3.737-.832 3.81-1.597 1.486M25.986 15.98l4.043 2.131M27.198 21.572l5.422 1.98" fill="none" stroke-width=".2498108">

        	 <animate id="p1" attributeName="stroke-dashoffset" begin="0.1s;f1.end+0.1s" values="1000;0;1000" dur="10s" 
	 calcMode="linear"/>
     
	 <animate id="f1" attributeName="fill" begin="p1.end-0.01s" values="white; white; white" dur="0.1s"  
	 calcMode="linear" />
     
          
	</path>
    
    

















    <path class="path" fill="none" stroke-width="1" stroke ="black" stroke-dasharray= "600" stroke-dashoffset="600"
    

 d="M29.734 29.405l1.574-.077.29-3.718 1.022-2.058M36.806 15.923l2.833 1.085M46.549 30.129l-8.157-.572 8.103-7.462M49.068 22.462l-1.71.587 0.03.717 1.883-.918.66-.853z" fill="none" stroke-width=".2498108">

        	 <animate id="p1" attributeName="stroke-dashoffset" begin="0.1s;f1.end+0.1s" values="1000;0;1000" dur="10s" 
	 calcMode="linear"/>
     
	 <animate id="f1" attributeName="fill" begin="p1.end-0.01s" values="white; white; white" dur="0.1s"  
	 calcMode="linear" />
     
          
	</path>


     
 
 
 
 
 
 
 
 
 

    <path class="path" fill="none" stroke-width="1" stroke ="black" stroke-dasharray= "600" stroke-dashoffset="600"

 d="M31.308 29.328l5.763 3.78 2.105 5.878M40.581 34.611l-3.51-1.504.424-2.04M28.346 25.118l3.252.492 5.897 5.457M47.656 15.412l-1.814-.337-1.944.337-3.294 1.977.338 1.595" fill="none" stroke-width=".2498108">
 
         	 <animate id="p1" attributeName="stroke-dashoffset" begin="0.1s;f1.end+0.1s" values="1000;0;1000" dur="10s" 
	 calcMode="linear"/>
     
	 <animate id="f1" attributeName="fill" begin="p1.end-0.01s" values="white; white; white" dur="0.1s"  
	 calcMode="linear" />
     
          
	</path>



    <path class="path" fill="none" stroke-width="1" stroke ="black" stroke-dasharray= "600" stroke-dashoffset="600"

      
    d="M43.946 10.6l-.106 2.843.058 1.97 2.825 1.777-.881-2.115-.693-2.068M47.04 12.375l-3.2 1.068" fill="none" stroke-width=".2498108">  
             	 <animate id="p1" attributeName="stroke-dashoffset" begin="0.1s;f1.end+0.1s" values="1000;0;1000" dur="10s" 
	 calcMode="linear"/>
     
	 <animate id="f1" attributeName="fill" begin="p1.end-0.01s" values="white; white; white" dur="0.1s"  
	 calcMode="linear" />
     
          
	</path>




    <path class="path" fill="none" stroke-width="1" stroke ="black" stroke-dasharray= "600" stroke-dashoffset="600"
    
    d="M43.84 13.443l-4.2 3.565.964.38.891.723M40.942 18.984l.844 1.41-.29 1.7 4.905 1.458.957-.503-.496-1.138-.912-1.909-.764-1.326" fill="none" stroke-width=".2498108">
    
               	 <animate id="p1" attributeName="stroke-dashoffset" begin="0.1s;f1.end+0.1s" values="1000;0;1000" dur="10s" 
	 calcMode="linear"/>
     
	 <animate id="f1" attributeName="fill" begin="p1.end-0.01s" values="white; white; white" dur="0.1s"  
	 calcMode="linear" />
     
          
	</path>  
















    <path class="path" fill="none" stroke-width="1" stroke ="black" stroke-dasharray= "600" stroke-dashoffset="600"
    
        d="M41.495 18.11l1.62.874 1.667-.039.404-.269.214-.796M37.286 19.66l4.21 2.435M46.723 17.19l3.466 5.05M47.59 27.194l-.733.1-.488 1.002.706-.107M46.37 28.296l.179 1.833.43 1.424M47.293 26.014l-1.783.438 1.347.842M44.569 17.79l.83.09M45.4 17.88l1.323-.69.766.147" fill="none" stroke-width=".2498108">

    
                   	 <animate id="p1" attributeName="stroke-dashoffset" begin="0.1s;f1.end+0.1s" values="1000;0;1000" dur="10s" 
	 calcMode="linear"/>
     
	 <animate id="f1" attributeName="fill" begin="p1.end-0.01s" values="white; white; white" dur="0.1s"  
	 calcMode="linear" />
     
          
	</path>
















    <path class="path" fill="none" stroke-width="1" stroke ="black" stroke-dasharray= "600" stroke-dashoffset="600"
    
    d="M44.569 17.79l-3.074.32.535-.495 2.437-.93.933 1.195M46.401 23.552l-.891 2.9 2.986-1.103M31.308 29.328l-.673 4.198M39.341 42.081l-1.238-.726-3.703-4.498-3.765-3.331-4.273-.34-1.792 1.89-6.388 9.673-2.605 10.888-1.153 8.164-.416 8.78 1.105 20.375 1.653 6.042M26.362 33.187l2.425 6.988M22.835 42.71l-.957-3.558M35.248 37.888l.456 4.109" fill="none" stroke-width=".2498108">

               	 <animate id="p1" attributeName="stroke-dashoffset" begin="0.1s;f1.end+0.1s" values="1000;0;1000" dur="10s" 
	 calcMode="linear"/>
     
	 <animate id="f1" attributeName="fill" begin="p1.end-0.01s" values="white; white; white" dur="0.1s"  
	 calcMode="linear" />
     
          
	</path>


    <path class="path" fill="none" stroke-width="1" stroke ="black" stroke-dasharray= "600" stroke-dashoffset="600"
    
    d="M19.908 47.732l1.37 8.861 1.277 8.335.343 3.03 6.283-.6 9.193.106.156-11.88-.217-6.69.558-3.285" fill="none" stroke-width=".2498108">
               	 <animate id="p1" attributeName="stroke-dashoffset" begin="0.1s;f1.end+0.1s" values="1000;0;1000" dur="10s" 
	 calcMode="linear"/>
     
	 <animate id="f1" attributeName="fill" begin="p1.end-0.01s" values="white; white; white" dur="0.1s"  
	 calcMode="linear" />
     
          
	</path>


    <path class="path" fill="none" stroke-width="1" stroke ="black" stroke-dasharray= "600" stroke-dashoffset="600"
    
    d="M26.067 67.655l-1.282-17.547-1.95-7.399M28.787 40.175l1.848 11.082-.208 9.274.21 6.844M34.926 67.425l-.487-16.789 1.265-8.639M20.759 53.15l4.026-3.042M24.785 50.108l5.244-.451M30.029 49.657l4.41.98M34.44 50.636l4.007 2.395" fill="none" stroke-width=".2498108">
    
               	 <animate id="p1" attributeName="stroke-dashoffset" begin="0.1s;f1.end+0.1s" values="1000;0;1000" dur="10s" 
	 calcMode="linear"/>
     
	 <animate id="f1" attributeName="fill" begin="p1.end-0.01s" values="white; white; white" dur="0.1s"  
	 calcMode="linear" />
     
          
	</path>


    <path class="path" fill="none" stroke-width="1" stroke ="black" stroke-dasharray= "600" stroke-dashoffset="600"
    d="M18.07 54.586l1.838-6.854 2.927-5.023 5.952-2.534 6.917 1.822 4.093 4.667 1.377 1.465-3.07-6.774M40.189 47.081l-1.663 7.33M44.938 55.669l1.179 3.253.317 12.695.323 32.509-2.702-1.191" fill="none" stroke-width=".2498108">
    
                   	 <animate id="p1" attributeName="stroke-dashoffset" begin="0.1s;f1.end+0.1s" values="1000;0;1000" dur="10s" 
	 calcMode="linear"/>
     
	 <animate id="f1" attributeName="fill" begin="p1.end-0.01s" values="white; white; white" dur="0.1s"  
	 calcMode="linear" />
     
          
	</path>


<path class="path" fill="none" stroke-width="1" stroke ="black" stroke-dasharray= "600" stroke-dashoffset="600"

d="M23.405 67.957l.411 6.592 1.77 7.4 6.814 18.263 3.526 8.091.285 1.596.519 3.473 1.785 5.709.578 3.941 1.31 1.21.75.34 1.62 1.277 1.133-.127 1.817 1.268 1.135-.068 1.9.458 1.002-.79 1.837.42.594-1.017-.147-4.002-.768-4.286-.797-3.378-2.44-3.57-1.91-1.682-2.074-6.14-3.58-15.779-3.784-10.619.09-2.444 1.017-6.603" fill="none" stroke-width=".2498108">

                   	 <animate id="p1" attributeName="stroke-dashoffset" begin="0.1s;f1.end+0.1s" values="1000;0;1000" dur="10s" 
	 calcMode="linear"/>
     
	 <animate id="f1" attributeName="fill" begin="p1.end-0.01s" values="white; white; white" dur="0.1s"  
	 calcMode="linear" />
     
          
	</path>



<path class="path" fill="none" stroke-width="1" stroke ="black" stroke-dasharray= "600" stroke-dashoffset="600"

d="M35.926 108.303l1.324 1.032-.863 1.552" fill="none" stroke-width=".2498108">

                   	 <animate id="p1" attributeName="stroke-dashoffset" begin="0.1s;f1.end+0.1s" values="1000;0;1000" dur="10s" 
	 calcMode="linear"/>
     
	 <animate id="f1" attributeName="fill" begin="p1.end-0.01s" values="white; white; white" dur="0.1s"  
	 calcMode="linear" />
     
          
	</path>


<path class="path" fill="none" stroke-width="1" stroke ="black" stroke-dasharray= "600" stroke-dashoffset="600"

d="M37.052 109.69l2.753 6.924 2.677 1.662 6.144.406 2.65-.977M41.153 124.571l.549-3.135.305 3.808M39.805 116.614l1.897 4.822M43.906 125.722l.395-1.178 1.422 2.446M48.758 127.38l.631-5.861 2.208 5.491M46.13 109.075l-3.704.8-5.176-.54M38.594 109.475l-6.022-19.45M26.732 67.592l1.227 10.463 4.794 12.561M36.69 76.537l-2.655.111 7.6 20.539 2.675 6.504M34.035 76.648l.404-9.158M27.959 78.055l-4.445-8.356M18.692 67.911l.313 10.916-1.586 2.7-1.206-14.599-.068-7.748.594-6.02 1.528-5.85-.206 7.562.63 13.039" fill="none" stroke-width=".2498108">

                   	 <animate id="p1" attributeName="stroke-dashoffset" begin="0.1s;f1.end+0.1s" values="1000;0;1000" dur="10s" 
	 calcMode="linear"/>
     
	 <animate id="f1" attributeName="fill" begin="p1.end-0.01s" values="white; white; white" dur="0.1s"  
	 calcMode="linear" />
     
          
	</path>



<path class="path" fill="none" stroke-width="1" stroke ="black" stroke-dasharray= "600" stroke-dashoffset="600"

d="M19.005 78.827l.817 9.707-1.29 7.106.377-7.213-1.49-6.9" fill="none" stroke-width=".2498108">

                   	 <animate id="p1" attributeName="stroke-dashoffset" begin="0.1s;f1.end+0.1s" values="1000;0;1000" dur="10s" 
	 calcMode="linear"/>
     
	 <animate id="f1" attributeName="fill" begin="p1.end-0.01s" values="white; white; white" dur="0.1s"  
	 calcMode="linear" />
     
          
	</path>



<path class="path" fill="none" stroke-width="1" stroke ="black" stroke-dasharray= "600" stroke-dashoffset="600"

d="M25.253 172.177l3.401-9.058.364-7.58-2.802-9.457-1.851-9.784-.167-5.943-1.846-1.742-1.294-3.962-3.577-7.405-2.847-7.66 1.454-9.299 7.673-14.594-4.979-14.639" fill="none" stroke-width=".2498108">

                   	 <animate id="p1" attributeName="stroke-dashoffset" begin="0.1s;f1.end+0.1s" values="1000;0;1000" dur="10s" 
	 calcMode="linear"/>
     
	 <animate id="f1" attributeName="fill" begin="p1.end-0.01s" values="white; white; white" dur="0.1s"  
	 calcMode="linear" />
     
          
	</path>


<path class="path" fill="none" stroke-width="1" stroke ="black" stroke-dasharray= "600" stroke-dashoffset="600"

d="M16.088 100.287l8.433 3.474 8.202-2.81M14.634 109.585l9.91-3.352 10.091-.893M18.572 119.251l5.628-2.513" fill="none" stroke-width=".2498108">


                   	 <animate id="p1" attributeName="stroke-dashoffset" begin="0.1s;f1.end+0.1s" values="1000;0;1000" dur="10s" 
	 calcMode="linear"/>
     
	 <animate id="f1" attributeName="fill" begin="p1.end-0.01s" values="white; white; white" dur="0.1s"  
	 calcMode="linear" />
     
          
	</path>




<path class="path" fill="none" stroke-width="1" stroke ="black" stroke-dasharray= "600" stroke-dashoffset="600"

d="M24.521 103.76l.049 5.183-.37 7.795 10.462 8.9M52.113 126.127l6.527 22.897 1.28 8.53-2.419 8.018-13.09 6.664-19.348 18.67M32.053 164.354l.688-3.805.137-6.965-.11-13.512-2.18-6.79M24.198 130.355l4.563-.987M29.018 155.539l3.86-1.955M28.654 163.119l3.51.619" fill="none" stroke-width=".2498108">

                   	 <animate id="p1" attributeName="stroke-dashoffset" begin="0.1s;f1.end+0.1s" values="1000;0;1000" dur="10s" 
	 calcMode="linear"/>
     
	 <animate id="f1" attributeName="fill" begin="p1.end-0.01s" values="white; white; white" dur="0.1s"  
	 calcMode="linear" />
     
          
	</path>



<path class="path" fill="none" stroke-width="1" stroke ="black" stroke-dasharray= "600" stroke-dashoffset="600"

d="M54.956 161.953l1.338-6.319-6.958-28.71M21.231 198.225l1.875 8.375 5.787 11.26-1.52 3.086-3.698-2.509-11.446-10.082L2.138 197.22l-.127-1.23 4.953-3.645 3.361-2.122" fill="none" stroke-width=".2498108">

                   	 <animate id="p1" attributeName="stroke-dashoffset" begin="0.1s;f1.end+0.1s" values="1000;0;1000" dur="10s" 
	 calcMode="linear"/>
     
	 <animate id="f1" attributeName="fill" begin="p1.end-0.01s" values="white; white; white" dur="0.1s"  
	 calcMode="linear" />
     
          
	</path>





<path class="path" fill="none" stroke-width="1" stroke ="black" stroke-dasharray= "600" stroke-dashoffset="600"

d="M9.992 189.598l3.136 5.867 4.433 2.546 4.185.244 1.241-2.862 1.458-1.76.618-2.728M9.992 189.598l2.904-1.903.82-2.013 1.88-1.186 14.463-18.45 12.099-10.267-8.199-15.395-3.37-7.102-2.065-4.422-8.358-6.091M20.372 215.529l-.226 4.564.064 1.94 20.164 1.36 14.58-.743.497-1.426-2.461-2.711-4.682-.77-12.149-6.167-3.063-3.922 2.41-2.764.255-13.14 2.891-13.906M29.215 208.068l3.88-.414M26.11 212.445l10.05-.87" fill="none" stroke-width=".2498108">

                   	 <animate id="p1" attributeName="stroke-dashoffset" begin="0.1s;f1.end+0.1s" values="1000;0;1000" dur="10s" 
	 calcMode="linear"/>
     
	 <animate id="f1" attributeName="fill" begin="p1.end-0.01s" values="white; white; white" dur="0.1s"  
	 calcMode="linear" />
     
          
	</path>




<path class="path" fill="none" stroke-width="1" stroke ="black" stroke-dasharray= "600" stroke-dashoffset="600"

d="M35.506 204.89l-7.255-4.357 7.51-8.784M12.896 187.695l4.459 2.644-1.76-5.843M17.561 198.01l2.99-5.542 2.848-3.222 23.348-21.713 8.21-5.58 2.544 3.62M42.158 155.78l4.85-2.449-.372 4.546M6.964 192.344l8.197 13.81 13.732 11.706" fill="none" stroke-width=".2498108">


                   	 <animate id="p1" attributeName="stroke-dashoffset" begin="0.1s;f1.end+0.1s" values="1000;0;1000" dur="10s" 
	 calcMode="linear"/>
     
	 <animate id="f1" attributeName="fill" begin="p1.end-0.01s" values="white; white; white" dur="0.1s"  
	 calcMode="linear" />
     
          
	</path>



<path class="path" fill="none" stroke-width="1" stroke ="black" stroke-dasharray= "600" stroke-dashoffset="600"

d="M12.229 208.355l2.932-2.2 7.945.445M42.158 155.78l4.478 2.097-15.178 11.338-14.103 21.124-4.227 5.126-3.851.66M21.746 198.255l-1.196-5.787 4.513-1.563M17.355 190.339l3.195 2.13M55.451 221.224l-12.517.275-14.588-2.353M48.308 217.743l-5.374 3.756M29.215 208.068l-.964-7.535 4.34-16.891M29.215 208.068l1.56 3.942M28.251 200.533l-5.264-5.14M56.294 155.634l3.626 1.92M46.636 157.877l8.32 4.076M56.294 155.634l-9.286-2.303-12.346-27.693-6.138 3.222M46.393 103.966l-.132 2.948 1.777 3.842M37.495 31.067l1.204-1.257M20.759 53.15l4.749 6.844-2.61 7.963M18.267 47.31l-.085-2.561" fill="none" stroke-width=".2498108">

                   	 <animate id="p1" attributeName="stroke-dashoffset" begin="0.1s;f1.end+0.1s" values="1000;0;1000" dur="10s" 
	 calcMode="linear"/>
     
	 <animate id="f1" attributeName="fill" begin="p1.end-0.01s" values="white; white; white" dur="0.1s"  
	 calcMode="linear" />
     
          
	</path>




<path class="path" fill="none" stroke-width="1" stroke ="black" stroke-dasharray= "600" stroke-dashoffset="600"

d="M46.117 58.922l-9.133 13.855" fill="#9d9d9c" stroke-width=".2498108"/><path d="M41.702 121.436l7.447 2.316M50.287 123.752l1.772-1.371" fill="#f8f9fa" stroke-width=".2498108">

                   	 <animate id="p1" attributeName="stroke-dashoffset" begin="0.1s;f1.end+0.1s" values="1000;0;1000" dur="10s" 
	 calcMode="linear"/>
     
	 <animate id="f1" attributeName="fill" begin="p1.end-0.01s" values="white; white; white" dur="0.1s"  
	 calcMode="linear" />
     
          
	</path>





<path class="path" fill="none" stroke-width="1" stroke ="black" stroke-dasharray= "600" stroke-dashoffset="600"

d="M15.113 92.956l3.796-4.53.913.108M19.822 88.534l3.94-2.84" fill="none" stroke-width=".2498108">

                   	 <animate id="p1" attributeName="stroke-dashoffset" begin="0.1s;f1.end+0.1s" values="1000;0;1000" dur="10s" 
	 calcMode="linear"/>
     
	 <animate id="f1" attributeName="fill" begin="p1.end-0.01s" values="white; white; white" dur="0.1s"  
	 calcMode="linear" />
     
          
	</path>





</svg>
