<svg xmlns="http://www.w3.org/2000/svg" width="45.616" height="51.639">



<path d="M22.799 23.709c-.98.014-1.946.575-2.486 1.56L9.46 44.999c-.588 1.056-.744 2.595-.695 3.953.024.68.099 1.289.32 1.813.11.262.258.533.578.73.32.198.813.184 1.127.018h.002l11.873-6.31L34.857 51.4l.002.002c.317.16.816.161 1.131-.048.315-.21.45-.486.55-.75.199-.53.252-1.137.255-1.815.006-1.354-.193-2.88-.777-3.912l-10.69-19.67-.006-.008c-.56-.97-1.544-1.504-2.523-1.49zm.021 1.5c.443-.007.89.2 1.201.738l.002.002L34.71 45.61l.004.006c.288.508.587 2.017.582 3.168-.002.486-.07.842-.135 1.09L22.648 43.51l-.343.181-11.867 6.311a4.27 4.27 0 0 1-.174-1.103c-.041-1.148.223-2.66.508-3.172l.002-.002 10.853-19.733v-.002c.304-.554.75-.774 1.193-.781z"
 >
 
<animate dur="5s" values="#000000; #4e86b1; #d7d7d7; #000000" keyTimes="0; 0.5; 0.7; 1" attributeName="fill" repeatCount="indefinite"/>

  </path>




<path d="M22.795 12.629c-6.252 0-11.747 4.24-13.465 10.365a.75.75 0 1 0 1.445.406c1.543-5.5 6.445-9.271 12.02-9.271 5.575 0 10.477 3.771 12.02 9.271a.75.75 0 1 0 1.443-.406C34.54 16.868 29.047 12.63 22.795 12.63z">

<animate dur="4s" values="#000000; #4e86b1; #d7d7d7; #000000" keyTimes="0; 0.5; 0.7; 1" attributeName="fill" repeatCount="indefinite"/>

    </path>




<path  fill="#4e86b1" d="M22.809 0C12.42 0 3.229 7.106.035 17.545a.75.75 0 1 0 1.436.44C4.486 8.131 13.104 1.5 22.809 1.5c9.704 0 18.323 6.632 21.337 16.484a.75.75 0 1 0 1.434-.44C42.386 7.107 33.197 0 22.81 0z">
>

       <animate dur="3s" values="#000000; #4e86b1; #d7d7d7; #000000" keyTimes="0; 0.5; 0.7; 1" attributeName="fill" repeatCount="indefinite"/>

  </path>
  
  
</svg>
