<svg xmlns="http://www.w3.org/2000/svg" width="267" height="300" viewBox="130 0 300 920" >
	

 
	 <g  transform="scale(5.85) ">
     
          	 
       <path d="M14.237 40.065l-.061-.538.512-.06-.006.718zm.205-.578l-.266.04a.269.269 0 0 1 .225-.3c.144 0 .267.1.287.24zm.246 0l.328 6.066-.512.04-.328-6.086zm.082 6.086l.246-.02c.02.14-.102.259-.225.279a.285.285 0 0 1-.287-.24zm.246 0l.492 15.663h-.512l-.492-15.663zm.246 15.663h.246c.02.14-.103.26-.246.26a.268.268 0 0 1-.266-.26zm-.266 0v-.459l.464-.147.048.606z

M12.066 64.561l2.947-3.456.371.352-2.947 3.456zM35.744 85.4l1.03-1.014.371.372-1.03 1.035z

M30.148 83.806l6.186 1.531-.22.456-6.14-1.49zM33.137 42.552l-5.821 8.558-.433-.29 6.017-9.084zM16.435 37.887l3.07 4.615-.432.31-3.07-4.635zm2.865 4.78l.206-.165a.286.286 0 0 1-.062.372c-.124.083-.289.062-.371-.062zm.247.062L18 48.13l-.494-.144 1.545-5.401zM27.295 22.926l.783-.766.35.373-.762.765zM39.72 107.19l-6.14-1.531.103-.518 6.162 1.532zm-6.099-1.8l-.04.269a.297.297 0 0 1-.207-.332c.041-.144.185-.227.31-.186zm-.226.124l-8.202-18.521.474-.228 8.202 18.521zM25.44 86.889l-.247.104c-.041-.124 0-.29.144-.352.124-.062.289 0 .33.124zm.103.228l-4.08 2.07-.226-.476 4.08-2.07zM33.498 108.245l5.625 2.835-.226.476-5.626-2.835z

M39.886 106.693l2.555 1.283-.227.497-2.555-1.304zM20.907 137.216l-3.338-3.352.37-.373 3.318 3.332zM22.095 141.991l1.017 2.774-.478.19-1.038-2.752z

M21.587 142.203l-.763-5.132.516-.082.762 5.132zm-.495-5.173l-.268.041c-.02-.165.083-.29.227-.31.144-.02.268.083.289.228zm-.247-.083l3.07-11.32.495.146-3.07 11.319zM34.796 148.805l-3.586 2.586-.288-.455 3.585-2.566z

M39.268 151.433h-8.264v-.538h8.264zm-8.264-.27v.27c-.144 0-.247-.124-.247-.27 0-.144.103-.268.247-.268zm-.041.27l-9.788-1.532.062-.538 9.808 1.532zM14.045 130.118l2.06 1.283-.267.456-2.061-1.283z

M16.744 135.809l-1.03-4.118.494-.124 1.03 4.097zm-.783-4.18l-.247.062a.266.266 0 0 1 .185-.331.248.248 0 0 1 .31.207zm-.082-.27l3.07-1.013.165.497-3.07 1.034zM30.675 106.714l2.823 1.531-.248.476-2.823-1.552zm2.699 1.759l.124-.228c.123.062.164.228.103.352a.254.254 0 0 1-.35.124zm.165.227l-9.994 7.698-.31-.413 9.974-7.72zm-10.093 7.414l.099.284c-.103.104-.268.083-.371-.04-.083-.125-.062-.29.061-.373zm.16.222l-9.479 14.155-.433-.31 9.48-14.134zm-9.685 14.01l.206.145a.242.242 0 0 1-.35.062.27.27 0 0 1-.083-.373zm.186.165l-2.803 3.353-.391-.352 2.802-3.352zm-3.009 3.167l.206.186a.282.282 0 0 1-.37.02c-.104-.103-.125-.268-.021-.372zm.041.269l-2.555.517-.103-.538 2.576-.517zM10.418 142.224l1.793-1.552.33.414-1.793 1.531zm1.958-1.345l-.165-.207a.264.264 0 1 1 .33.414zm.02-.269l5.379.269-.021.517-5.378-.248z


M7.348 131.65l5.337 9.167-.454.269-5.316-9.167zm5.11 9.291l.227-.124c.082.124.04.29-.083.352a.268.268 0 0 1-.37-.083zm.165-.186l9.15 7.884-.351.414-9.129-7.905zM30.448 106.693l3.07-1.531.227.476-3.07 1.531zm3.173-1.303l-.103-.228a.254.254 0 0 1 .35.124c.062.124 0 .29-.123.352zm.268.02l-.247 3.084-.536-.042.268-3.083zM13.942 135.374l1.793-3.87.473.228-1.792 3.87zm2.02-3.745l-.227-.124a.265.265 0 0 1 .35-.124c.123.062.185.227.123.351zm-.186-.186l2.06-2.07.35.373-2.04 2.07zm2.246-1.883l-.186-.187a.26.26 0 0 1 .371 0 .285.285 0 0 1-.02.373zm-.186-.187l15.62-14.65.35.392-15.62 14.652zm15.785-14.464l-.165-.187a.26.26 0 0 1 .371 0c.083.124.083.29-.02.393zm-.123-.228l5.357-3.6.289.455-5.378 3.6zM39 111.308l-.145-.228a.268.268 0 0 1 .371.083.27.27 0 0 1-.082.373zm.206-.166l1.793 2.318-.392.331-1.793-2.318zM10.974 128.297l3.07 1.8-.267.477-3.07-1.8zm2.947 2.049l.124-.248a.298.298 0 0 1 .103.372c-.083.124-.227.166-.371.104zm-.247.083l-1.278-3.87.495-.165 1.277 3.848zM25.811 140.34l-4.863-3.082.268-.456 4.863 3.084zm-4.719-3.31l-.144.228a.27.27 0 0 1-.082-.373c.082-.124.226-.165.35-.083zm-.206-.186l5.131-5.65.371.352-5.11 5.65zM19.773 144.976l6.76-.765.061.538-6.759.765zM21.834 141.893l2.555-.248.042.538-2.556.248z


M16.25 147.273l-.268 3.104-.515-.041.268-3.104zm-.515 3.084l.247.02c0 .145-.124.249-.268.249a.29.29 0 0 1-.247-.29zm.247-.062l.268 1.303-.515.104-.268-1.304zm0 1.345l.268-.042a.274.274 0 0 1-.206.31c-.145.021-.289-.061-.31-.206zm.02-.27l13.292.787-.02.538-13.292-.786zm13.248 1.023l.044-.236c.144 0 .268.124.247.269a.26.26 0 0 1-.268.27zm.023-.236L39 151.64l.02.538-9.726.517zm9.727-.248v-.27c.144 0 .268.104.268.249a.29.29 0 0 1-.248.29zm-.248-.083l.268-.786.495.165-.268.786zm.516-.704l-.248-.082c.041-.145.186-.207.33-.166.124.041.206.207.165.331zm-.206.166l-1.546-2.07.412-.31 1.546 2.07zm-1.115-2.055l-.431-.014c-.082-.125-.062-.29.062-.373a.242.242 0 0 1 .35.062zm-.266.089l-3.07-.517.082-.518 3.07.518zm-3.03-.786l-.04.269c-.145-.021-.227-.166-.207-.31.021-.146.165-.228.289-.208zm-.102.248l-8.181-4.139.226-.476 8.181 4.139zm-8.078-4.387l-.103.248a.256.256 0 0 1-.124-.352.254.254 0 0 1 .35-.124zm-.206.186l-2.04-2.586.412-.352 2.04 2.586zm-1.834-2.752l-.206.166c-.083-.125-.062-.29.04-.373.104-.103.269-.083.372.02zm-.206-.186l1.545-1.8.392.351-1.546 1.8zm1.73-1.635l-.185-.166c.082-.124.247-.124.371-.041.103.103.103.269.02.393zm-.247 0l.248-8.795.515.02-.248 8.775zm.515-8.795h-.267c0-.145.28-.628.425-.628.144.02.11.504.09.649zm-.402.25l2.195-9.872.495.124-2.04 9.56zM8.915 129.66l1.77-1.342.31.435-1.793 1.283zm1.936-1.135l-.165-.207c.123-.083.288-.062.37.062.083.124.063.29-.061.373zm-.227-.124l.762-1.304.454.27-.783 1.303zm.99-1.16l-.228-.144c.083-.124.248-.165.35-.083.124.062.166.228.104.352zm-.166-.227l1.03-.765.31.434-1.03.766zm1.085-.448l-.054-.317c.123-.083.288-.062.37.062.083.103.062.269-.061.372zm-.096-.276l9.727-12.664.412.33-9.726 12.665zm9.933-12.499l-.206-.165c.082-.125.247-.145.37-.042.104.083.124.248.042.373zm-.165-.207l8.181-6.974.33.394-8.181 6.994zm8.346-6.767l-.165-.207c.124-.103.288-.082.37.021.083.124.083.29-.04.373zm-.227.125l-5.626-10.347.454-.27 5.626 10.348zM24.925 96.47l-.227.124a.298.298 0 0 1 .104-.373c.123-.062.288-.02.35.104zm-.227.103l-2.06-4.656.474-.207 2.06 4.635zm-1.813-4.76l-.247.104c-.062-.124 0-.29.123-.352.145-.062.289 0 .35.145zm-.247.125l-1.525-3.104.453-.249 1.546 3.104zM21.34 88.71l-.227.124c-.062-.145-.02-.29.103-.373a.265.265 0 0 1 .35.124zm-.145.206L15.55 84.78l.31-.435 5.625 4.139z


M9.375 129.399l2.069 4.036-.46.26-2.069-4.036zm1.84 4.166l.229-.13c.063.13.02.304-.104.369-.126.086-.293.021-.356-.109zm.125-.239l3.113 1.888-.25.477-3.114-1.887zm2.988 2.127l.125-.239c.126.065.188.239.105.369a.233.233 0 0 1-.356.108zm.02-.282l2.864.282-.042.542-2.863-.26zm2.843.564l.02-.282c.147 0 .251.152.23.303 0 .152-.125.26-.271.24zm-.251-.109l.773-2.148.502.195-.774 2.149zm.98-1.973l-.207-.175a.285.285 0 0 1 .355-.173.315.315 0 0 1 .147.368zm-.165-.262l1.045-1.345.418.347-1.045 1.346zm1.254-1.171l-.21-.174c.084-.13.252-.13.377-.043.104.087.125.282.042.39zm-.272-.044l.272-1.887.522.086-.272 1.888z

M16.724 135.602L18 141.19l-.494.125-1.278-5.588zm1.03 5.65l.247-.063a.266.266 0 0 1-.185.331c-.144.021-.289-.062-.31-.206zm.227-.125l3.853 7.636-.474.228-3.833-7.615zm3.626 7.74l.227-.104c.062.124 0 .29-.123.352a.254.254 0 0 1-.35-.124zm.227.124l-1.03 2.028-.454-.228 1.01-2.028zm-1.235 1.814l.205.214a.254.254 0 0 1-.35.124c-.124-.062-.186-.228-.104-.352zm-.187.317l-2.308-1.78.33-.434 2.287 1.78zm-2.143-1.986l-.165.207c-.103-.083-.123-.249-.04-.373.082-.124.246-.145.37-.062zm-.165.207l-7.686-6.622.33-.393 7.686 6.6zm-7.521-6.809l-.165.187c-.103-.083-.124-.249-.02-.373a.236.236 0 0 1 .35-.02zm-.186.187l-6.903-7.367.371-.373 6.903 7.367zm-6.718-7.553l-.185.186a.289.289 0 0 1 0-.393.282.282 0 0 1 .371.02zm-.267 0v-.766h.515v.766zm.267-.766h-.267c0-.145.123-.27.267-.27.145 0 .248.125.248.27zm-.164-.207l3.338-2.545.31.434-3.34 2.525zm3.482-2.338l-.144-.207a.242.242 0 0 1 .35.062c.103.103.062.269-.04.372zm-.144-.228l2.308-1.51.288.434-2.308 1.531zM38.752 111.266l.763-4.366.515.083-.762 4.366zm1.03-4.324l-.267-.042c.041-.145.165-.248.309-.227.144.02.227.165.206.31zm-.267.062L34.92 87.717l.494-.124 4.616 19.286zM21.484 106.693l2.555-1.283.227.476-2.555 1.283zM18.455 89.724l3.07-1.034.144.517-3.07 1.014z


M23.4 112.59l.495-2.565.515.103-.515 2.566zm.763-2.503l-.268-.062a.273.273 0 0 1 .309-.207.274.274 0 0 1 .206.31zm-.268 0v-4.615h.515v4.615zm0-4.615v-9.229h.515v9.23zm.268-9.229h-.268c0-.145.123-.269.268-.269.144 0 .247.124.247.269zm-.248.083l-1.277-4.367.494-.144 1.278 4.345zM37.475 87.076l4.348 15.416-.495.145-4.368-15.416zm4.1 15.5l.248-.084a.266.266 0 0 1-.186.331c-.144.042-.288-.04-.309-.186zm.248-.042l.762 5.65-.515.082-.762-5.67zm.515 5.69l.247-.04c.02.144-.062.289-.206.31a.276.276 0 0 1-.309-.228zm.247.083l-1.545 5.401-.495-.165 1.546-5.401zm-1.793 5.319l.248.082c-.02.125-.165.207-.31.166a.266.266 0 0 1-.185-.331zm.124.227L32.2 118.24l-.226-.476 8.716-4.387zm-8.82 4.139l.103.248c-.123.062-.267 0-.33-.124-.061-.145-.02-.29.104-.352zm.186.207L19.217 130.78l-.35-.373 13.044-12.602zM19.032 71.97v3.6h-.516v-3.6zm-.248 3.6h.248c0 .145-.103.27-.248.27a.273.273 0 0 1-.268-.27zm.248.02l-.248 5.133-.515-.02.247-5.154zm-.516 5.133h.268c0 .145-.123.269-.268.248-.144 0-.267-.124-.247-.269zm.186-.207l6.903 6.166-.33.394-6.923-6.167z



M14.58 82.275l3.833-1.8.227.475-3.853 1.8zM12.046 75.84l6.656-2.319.165.497-6.656 2.318zm6.738-2.07l-.082-.249c.124-.04.288.021.33.166a.271.271 0 0 1-.165.331zm-.02-.27l6.656-.517.041.538-6.656.518zM13.241 69.403l5.646 2.318-.206.497-5.625-2.318zm5.543 2.566l.103-.248a.296.296 0 0 1 .145.352c-.062.124-.206.207-.35.145zm-.082-.248l5.378-1.8.165.496-5.378 1.8z


M19.052 117.66l2.308-5.897.474.207-2.308 5.898zm2.555-5.793l-.247-.104c.041-.124.206-.207.33-.145.144.062.206.207.144.352zm-.267 0v-5.132h.515v5.132zm.267-5.132h-.267c0-.145.123-.27.267-.27.124 0 .248.125.248.27zm-.267.082l-1.793-6.415.515-.144 1.793 6.415zm-1.525-6.477l-.268.062c-.041-.124.041-.29.185-.33.144-.021.289.04.33.186zm-.268.042l-1.278-6.395.515-.103 1.278 6.394zm-1.075-6.187l-.203-.208c-.02-.144.062-.29.206-.31.144-.041.268.062.31.207zm-.203-.27v-4.097h.515v4.097zm.247-4.097h-.247c0-.145.103-.269.247-.269.145 0 .268.124.268.269zm-.164.186l-1.299-1.283.371-.372 1.278 1.283zm-1.113-1.469l-.186.186c-.103-.083-.103-.269 0-.372a.26.26 0 0 1 .371 0zm-.247.083l-.763-2.566.495-.145.762 2.545zm-.5-2.538l-.263-.028a.271.271 0 0 1 .165-.331.264.264 0 0 1 .33.186zm-.242.034l-2.556-4.884.454-.248 2.555 4.863zm-2.329-5.008l-.227.124c-.082-.124-.02-.29.103-.352.124-.082.289-.02.35.104zm-.247.103l-1.793-5.132.495-.186 1.792 5.132zm-1.546-5.214l-.247.082a.286.286 0 0 1 .165-.351c.124-.042.268.041.33.165zm-.268-.062l1.03-6.395.516.083-1.03 6.415zm1.278-6.353l-.247-.042c.02-.145.165-.248.288-.227.145.02.248.165.227.31zm-.227-.124l5.131-9.747.454.269-5.11 9.726zm5.585-9.478l-.454-.27c.062-.123.227-.165.35-.103.124.063.166.228.104.373zm-.474-.041L14.704 50.2l.407-.345 3.405 9.905zM20.866 54.877l-3.03-5.546.454-.27 3.029 5.547zM24.678 52.931l.762-5.173.516.083-.825 5.132z


M26.883 52.828l-1.917.29-.082-.538 1.937-.29zm-1.958.02l.041.27c-.144.02-.268-.083-.288-.228-.02-.145.062-.29.206-.31zm.247-.103L30.675 68.1l-.495.186-5.502-15.355zm5.255 15.438l.248-.083c.04.145-.021.29-.165.33-.124.063-.289-.02-.33-.144zm.248-.083l1.916 4.904-.474.207-1.937-4.925zM20.31 47.758l1.03 6.953-.516.083-1.03-6.953zm.782 6.994l.248-.041a.258.258 0 0 1-.206.29c-.145.02-.289-.062-.31-.207zm.248-.103l3.07 8.484-.495.187-3.07-8.485z


M27.748 75.901L23.87 63.148l.54-.015 3.833 12.623z


M33.168 75.84l-2.555.516-.103-.538 2.555-.517zm-2.505.225l-.05.291a.274.274 0 1 1-.103-.538zm-.133.291l-3.317-.269.04-.517 3.318.248zM29.335 80.64l.969 3.647-.516.181-.948-3.67z


M30.056 86.124l-.268-1.718.516.083zm0-1.676l-.268-.042a.276.276 0 0 1 .31-.227c.123.02.226.165.206.31zm.248-.042l.247 2.049-.515.083-.248-2.07zM27.316 76.19l2.02 4.45-.475.228-2.02-4.45zm1.792 4.574l.227-.124c.062.145 0 .29-.124.352a.254.254 0 0 1-.35-.124zm.124-.227l1.525.993-.268.455-1.525-.993zm1.38 1.22l.145-.227a.27.27 0 0 1 .082.372c-.082.125-.226.145-.35.083zm.021-.269l4.06.249-.041.538-4.04-.248zm4.04.518l.02-.27c.144 0 .247.125.247.27-.02.165-.144.269-.288.269zm-.063-.27l1.773-.496.123.517-1.772.497z


M26.244 74.598l1.175 1.138-.35.393-1.175-1.159zm.99 1.324l.185-.186a.263.263 0 0 1 0 .372.236.236 0 0 1-.35.02zm.246.103l-.325 1.09-.652-1.463.503.187zM32.609 40.173l.752 2.287-.468.206-.752-2.264zm.528 2.379l.224-.091c.06.137 0 .32-.143.365-.122.069-.284 0-.325-.16zm.244 0l.264 9.376-.528.023-.244-9.376zm0 9.376h.264c0 .16-.122.298-.264.298-.142 0-.244-.115-.264-.275zm.264 0l.244 24.15-.508.023-.264-24.15zm-.054 24.035l.298.116c0 .16-.013.186-.155.186-.514-.036-.136-.248-.143-.302zM29.52 33.976l-1.277 4.904-.495-.144 1.278-4.884z


M14.176 39.527l1.287-4.935.494.13-1.275 4.829zm1.534-4.87l-.247-.065a.236.236 0 0 1 .309-.194c.144.043.226.194.185.324zm-.226-.13l1.788-3.492.453.28-1.789 3.471zm2.014-3.362l-.226-.13c.062-.129.226-.172.35-.107.123.086.164.237.103.388zm-.102-.237l4.09-1.876.185.496-4.07 1.875zm4.193-1.617l-.103-.259c.124-.065.268 0 .33.13.061.15 0 .323-.145.366zm.062-.28l4.584 1.336-.123.539-4.605-1.337zm4.522 1.616l.062-.28a.279.279 0 0 1 .185.345.236.236 0 0 1-.308.194zm.185-.194l2.816 3.212-.37.388-2.816-3.233zm2.631 3.406l.185-.194c.103.108.083.28-.02.388-.103.108-.267.108-.35 0zm.206-.172l.76 1.078-.41.323-.761-1.056zm.555 1.229l.206-.151c.082.108.061.28-.042.388-.123.086-.287.064-.37-.065zm-.226.129l-1.982-4.794.4-.272 2.11 4.975zM25.564 36.252l2.555 1.552-.247.456-2.555-1.532z


M22.432 35.466l3.07.766-.123.517-3.07-.766z


M18.764 35.714l3.668-.248-.041.517-3.586.249z


M16.064 37.825l2.555-2.07.33.435-2.576 2.049zM25.44 47.8l-.268-11.217.516-.02.268 11.236zm0-11.217h-.268c0-.144.124-.269.268-.269.145 0 .248.104.248.249zm-.268-.04l.784-6.002.515.062-.783 6.001zM21.855 29.237l1.277 7.47-.515.083-1.277-7.45zm1.03 7.512l.247-.041a.274.274 0 0 1-.206.31.277.277 0 0 1-.309-.228zm.247 0l-.247 6.187-.515-.02.247-6.188zm-.515 6.167l.268.02c0 .145-.124.249-.268.249-.144 0-.268-.125-.247-.27zm.268-.021l.247 4.635-.515.021-.247-4.615z


M19.547 47.82l-1.03-11.816.515-.062 1.03 11.837zm-.763-11.837l-.268.02c0-.144.103-.289.248-.289a.229.229 0 0 1 .268.228zm-.247.062l-1.278-4.883.495-.145 1.278 4.884z


M15.961 34.39l.763 5.918-.495.062-.766-5.778zm.47 5.758l.293.16c.02.145-.062.29-.206.31-.145 0-.289-.103-.289-.248zm.293.14l1.03 5.67-.515.082-1.01-5.649zm.783 5.711l.247-.041c.02.144-.062.29-.206.31-.144.02-.268-.083-.31-.228zm.247-.02l.268 2.048-.515.062-.268-2.049zm0 1.957l.268.091c0 .145-.083.27-.227.29-.144.02-.268-.083-.288-.228zm-.02-.137l4.08-.517.061.517-4.08.518zm4.043-.248l.037-.269c.144-.02.288.083.288.228.02.145-.082.29-.227.29zm.078-.269l6.161.248-.02.538-6.306-.27zm6.14.517l.021-.269a.29.29 0 0 1 .247.29c-.02.145-.123.248-.267.248zm-.267 0v-8.215h.535V47.8zm0-8.215v-4.387h.535v4.387zm.268-4.387h-.268c0-.145.123-.269.268-.269.144 0 .267.124.267.27zm-.248-.02l.248-2.318.515.062-.248 2.317zM26.223 28.037l.384 2.824-.672-.32-.227-2.442zM17.239 31.141l-.515-2.566.515-.103.515 2.566zM20.31 24.581l1.524 4.615-.474.186-1.545-4.635z


M28.325 30.769l-.783-.518.289-.434.762.517zm-.638-.725l-.145.207c-.103-.083-.144-.227-.062-.352.062-.124.227-.165.35-.082zm-.186.166l-2.555-2.814.37-.352 2.556 2.814zm-2.37-2.98l-.185.166a.263.263 0 0 1 0-.373c.103-.103.268-.083.37.02zm-.185.186L22.638 25.1l.35-.373 2.329 2.297zm-2.123-2.504l-.185.187a.263.263 0 0 1 0-.373.236.236 0 0 1 .35 0zm-.02.27l-2.823-.249.04-.538 2.824.248zM20 24.663l-.02.269a.29.29 0 0 1-.248-.29c.02-.145.145-.269.289-.248zm.186.186l-1.299 1.283-.35-.393 1.278-1.262zm-1.463 1.097l.164.186a.26.26 0 0 1-.37 0 .314.314 0 0 1 .02-.393zm.206.145l-4.37 6.394-.411-.29 4.348-6.415zm-4.575 6.25l.206.144a.242.242 0 0 1-.35.062.244.244 0 0 1-.062-.352zm.247.061l-1.793 7.43-.515-.146 1.814-7.408zm-1.973 7.075l.18.354c-.04.145-.185.228-.309.187a.297.297 0 0 1-.206-.332zm.18.313l-.762 5.38-.515-.083.762-5.36zm-1.03 5.339l.268.041c-.02.145-.165.249-.289.228a.277.277 0 0 1-.226-.31zm.268.02l-.247 5.877-.536-.02.268-5.877zm-.47 5.54l.223.337c-.021.145-.145.27-.289.27a.29.29 0 0 1-.247-.29zm.223.317l.762 13.554-.515.041-.783-13.575zm.494 13.575l.268-.021c0 .166-.103.29-.247.29-.144 0-.268-.104-.268-.249zm.247-.083l1.299 4.097-.495.166-1.298-4.098z


M23.4 22.119l-.268 2.814-.515-.041.268-2.835zM32.488 14.255l1.03-.517.227.476-1.03.517zm1.133-.29l-.103-.227a.254.254 0 0 1 .35.124c.062.124 0 .29-.123.352zm0-.248h.515v.517h-.515zM27.357 15.435l2.802 1.531-.226.476-2.823-1.552z


M29.83 14.42l1.154.477-.206.496-1.154-.476zm1.05.725l.104-.248a.296.296 0 0 1 .144.351c-.062.145-.206.207-.35.145zm0-.27h1.443v.539h-1.442zm1.443.27v-.27c.144 0 .247.125.247.27 0 .145-.103.269-.247.269zm-.165-.207l.289-.228.33.414-.29.228zm.454-.02l-.165-.208c.103-.103.268-.082.37.042.083.103.062.269-.04.372zm-.268 0l.144-.663.37.186v.476z


M30.015 15l.495.766-.412.31-.557-.869zm.289.91l.206-.144c.082.124.061.29-.062.372-.124.083-.289.062-.35-.062zm.247.063l-.247 1.283-.516-.104.268-1.283zm-.495 1.241l.248.042c-.042.145-.165.248-.31.207-.144-.021-.226-.166-.206-.31zm.062-.269l3.338 1.035-.164.517-3.318-1.034zm3.256 1.283l.082-.248a.271.271 0 0 1 .165.331.264.264 0 0 1-.33.186zm-.185-.186l.515-.517.37.393-.515.497zm.473-.207l.042-.31c.103-.104.309-.021.412.082.103.104.062.207-.041.31zm0 0l-.267-.517.474-.228.459.792-.11-.048zm-.04-.62l-.227.103c-.062-.124 0-.29.123-.352a.254.254 0 0 1 .35.124zm-.227.103l-.516-1.573.495-.165.495 1.53zm-.268-1.656l-.248.083c-.061-.145.021-.29.165-.331.124-.041.268.02.33.166zm-.227.145l-.515-.766.433-.31.515.786z


M34.095 13.096l-1.277-.248.103-.538 1.277.269zm-1.148-.495l-.13.247c-.144-.041-.247-.186-.205-.331.02-.145.164-.228.309-.207zm-.026.247l-1.299.248-.082-.517 1.278-.27zm-1.34-.02l.041.268c-.123.021-.268-.062-.288-.207a.25.25 0 0 1 .206-.31zm.144.227l-2.06 1.283-.268-.455 2.06-1.283zm-2.184 1.055l.124.228c-.124.083-.268.041-.35-.083a.27.27 0 0 1 .082-.372zm.247-.062l.248 1.035-.495.124-.268-1.014zM21.38 18.994l2.04.269-.06.517-2.041-.248zm2 .517l.04-.248c.145 0 .248.145.228.29-.021.145-.145.248-.289.227zm.185-.186l4.08 3.6-.33.394-4.1-3.6z


M29.438 25.947l-2.555-1.035.185-.496 2.556 1.034zm-2.473-1.283l-.082.248c-.144-.062-.206-.207-.144-.352.04-.124.206-.206.33-.144zm-.247-.083l.515-1.552.495.166-.515 1.552z



M23.277 21.87l3.833 2.566-.268.456-3.854-2.587zm3.688 2.794l.145-.228a.27.27 0 0 1 .082.373c-.082.124-.247.165-.35.083zm.248-.104l1.545 3.85-.495.206-1.524-3.849zM33.642 22.719l-5.564-.455.041-.539 5.543.497zm-5.543-.725l-.021.27a.257.257 0 0 1-.227-.29c0-.145.145-.27.268-.249zm-.227-.103l2.102-4.8.474.227-2.102 4.78zM27.068 12.848l2.576 1.097-.206.496-2.555-1.096z



M22.102 21.829h1.03v.538h-1.03zm1.03.269v-.269a.26.26 0 0 1 .268.269.273.273 0 0 1-.268.269zm-.247-.041l.247-2.566.516.062-.248 2.566zm.495-2.546l-.248-.02c.021-.145.145-.249.289-.228.144 0 .247.145.227.29zm-.206-.124l.762-1.283.453.27-.783 1.282z


M20.66 16.759l3.585 1.283-.165.517-3.585-1.303zM19.938 12.93l2.556 1.532-.268.476-2.556-1.552z


M29.87 24.085l-2.04-1.8.33-.394 2.061 1.8zm-1.874-1.987l-.165.186c-.103-.083-.124-.248-.02-.372a.236.236 0 0 1 .35-.02zm-.206.145l-2.308-3.084.412-.31 2.308 3.083zm-2.102-3.228l-.206.144c-.083-.103-.062-.269.061-.372a.242.242 0 0 1 .35.062zm-.103.227l-1.546-.765.227-.476 1.545.765zm-1.422-1.014l-.124.249c-.124-.062-.185-.228-.124-.352a.254.254 0 0 1 .35-.124zm-.248.124l-1.772-3.6.454-.249 1.792 3.601zm-1.545-3.724l-.227.124c-.082-.124-.02-.29.103-.352.124-.062.289-.02.35.103zm-.268-.021l.268-2.318.515.062-.268 2.318zm.515-2.297l-.247-.02c0-.146.144-.249.288-.228.124 0 .227.145.227.29zm-.165-.207l1.546-1.283.33.414-1.546 1.283zm1.71-1.076l-.164-.207c.103-.083.268-.062.37.041.083.125.063.29-.04.373zm0-.269h.763v.538h-.762zm.763.269v-.269c.144 0 .268.124.268.269a.273.273 0 0 1-.268.269zm.103-.248l2.555 1.034-.185.497-2.576-1.035zm2.452 1.283l.103-.249c.124.062.207.207.145.352-.062.124-.206.207-.33.145zm.248.124l-.515 1.035-.474-.249.515-1.034zm-.73.81l.215.225c-.062.124-.227.165-.35.103a.256.256 0 0 1-.124-.352zm.235.059l.247 2.587-.515.041-.247-2.566zm0 2.607l.247-.02a.257.257 0 0 1-.226.29.29.29 0 0 1-.289-.249zm.247.062l-.515 2.566-.494-.103.494-2.587zm-.762 2.504l.247.062c-.02.145-.165.228-.309.207-.123-.041-.227-.165-.185-.31zm.144.228l-1.01.766-.309-.435 1.03-.766zM20.824 16.862l1.525 5.153-.494.145-1.525-5.132zm1.278 5.236l.247-.083c.042.145-.02.29-.165.331a.264.264 0 0 1-.33-.186zm.082.248l-1.792.518-.145-.518 1.793-.517z


M17.754 16.738h2.823v.538h-2.823zm2.823.27v-.27c.144 0 .247.124.247.27 0 .144-.103.268-.247.268zm-.268.061l-.762-3.849.515-.124.762 3.87z


M16.992 12l1.01 4.883-.495.124-1.03-4.883zm.762 4.945l.247-.062a.266.266 0 0 1-.185.331c-.144.021-.289-.062-.31-.207zm.247-.103l1.793 4.118-.474.207-1.793-4.118zm1.546 4.221l.247-.103c.041.124 0 .29-.144.352a.236.236 0 0 1-.33-.145zm.226-.124l.784 1.552-.474.228-.763-1.532zm.536 1.656l.248-.104c.061.124 0 .29-.124.352a.254.254 0 0 1-.35-.124zm.268.041l-.268 2.049-.515-.062.268-2.05zM19.712 9.537l3.07 2.566-.33.414-3.07-2.566z


M17.52 8.751L17 12.15l-.523-.083L17 8.689zm-.793 3.357l.272.041a.28.28 0 0 1-.314.231c-.125-.02-.23-.168-.209-.315zm.084-.252l3.112 1.028-.146.524-3.113-1.049zm3.05 1.3l.062-.272c.146.062.23.21.188.356-.063.126-.209.21-.334.168zm-.272.021l-.251-3.398.522-.042.25 3.398zM27.274 11.917l2.288-3.85.453.27-2.308 3.87zM22.864 6.805l1.793 4.118-.474.228-1.792-4.118z


M24.657 11.027l.268-4.635.515.02-.247 4.636zm.515-4.615l-.247-.02c0-.145.124-.27.268-.249.144 0 .247.124.247.27zm.103-.248l4.616 1.8-.185.497-4.616-1.8zm4.513 2.049l.103-.249c.124.042.186.207.145.331-.062.145-.206.207-.33.166zm-.226-.145l1.793-3.084.453.27-1.793 3.083z


M33.807 7.633l-2.04 2.049-.371-.373 2.06-2.069zM31.58 9.496l.186.186a.263.263 0 0 1-.37-.372zm-.144.207L29.644 8.42l.289-.435 1.792 1.283zM25.688 3.598l-.248 2.835-.515-.041.247-2.835zm-.516 2.814l.268.02c-.02.146-.144.25-.288.228a.23.23 0 0 1-.227-.269zm0 .27h-1.01v-.539h1.01z



M21.298 4.446l1.546 2.318-.433.31-1.545-2.317zm1.32 2.484l.226-.166a.27.27 0 0 1-.083.373.242.242 0 0 1-.35-.063zm-.083-.27l1.545-.517.165.518-1.545.517zm1.628-.248c-.237-.529.208-.07.247-.083-.026.571-.244.082-.247.083z



M22.803 7.116l-3.07 2.835-.351-.393 3.07-2.835zm-3.256 2.628l.185.207c-.123.103-.288.083-.37-.02-.104-.104-.104-.29.02-.373zm-.103.248l-2.308-1.034.206-.476 2.308 1.014zM17.239 8.73l-.103.228c-.124-.063-.186-.207-.124-.352.041-.124.206-.186.33-.124zm-.186-.186l3.854-4.118.37.372-3.853 4.097zm4.04-3.932l-.186-.186c.082-.104.247-.104.35-.02a.288.288 0 0 1 .02.392zm-.104-.248l2.288-1.035.226.497-2.308 1.014zm2.39-.787l-.102-.248c.144-.062.288 0 .35.145.062.124 0 .29-.124.352zm0-.269h2.061v.538h-2.06zm2.061.27v-.27c.145 0 .268.124.268.27a.273.273 0 0 1-.268.268zm.062-.27l4.348 1.035-.123.517-4.348-1.014zm4.286 1.304l.062-.27a.266.266 0 0 1 .186.332c-.021.145-.165.228-.31.186zm.083-.27l1.772.518-.124.518-1.792-.518zm1.71.787l.062-.269a.266.266 0 0 1 .185.331c-.04.145-.185.228-.309.187zm.186-.186l2.06 2.318-.391.351-2.04-2.317zm1.854 2.483l.206-.165a.285.285 0 0 1-.02.372c-.103.104-.268.083-.371-.02zm.268 0v3.353h-.515V7.426zm-.268 3.353h.268a.273.273 0 0 1-.268.269c-.123 0-.247-.125-.247-.27zm.268-.062l.515 2.048-.515.124-.515-2.048zm.247 2.11l.268-.062a.297.297 0 0 1-.206.331c-.123.042-.268-.062-.309-.207zm.268 0v1.035h-.515v-1.035zm-.268 1.035h.268a.273.273 0 0 1-.268.269c-.144 0-.247-.124-.247-.269zm.227-.145l1.065 1.979.33.526c.076.085.002.275.124.253l-.198.154-.37-.115-.269-.475-1.115-2.032zm1.065 1.979l.67.983c.082.124-.16.328-.263.411-.131.099-.44-.473-.522-.576zM34.92 17.603v1.68h-.516l-.03-1.242zm-.268 1.68h.268a.273.273 0 0 1-.268.27c-.145 0-.248-.124-.248-.27zm.144.208l-.763.538-.288-.456.762-.517zm-.907.31l.144.228a.268.268 0 0 1-.37-.083c-.062-.124-.042-.29.082-.373zm.247-.083l.248.787-.495.165-.247-.786zm0 .87l.248-.083c.04.144-.02.29-.165.33-.124.042-.268-.02-.33-.165zm.227.144l-.515.787-.433-.29.515-.787zm-.678.546l.163.24c-.082.125-.247.145-.371.063-.103-.083-.144-.249-.062-.352zm.204.034l.247 1.303-.494.104-.268-1.304zm-.016 1.286l.263.017a.25.25 0 0 1-.206.31c-.123.042-.268-.061-.288-.206zm.263.141l-.247 1.056-.515-.145.268-1.035zm-.515.973l.268.083c-.041.124-.185.227-.33.186-.123-.041-.206-.186-.185-.331zm0 .27h-.494v-.539h.494zm-.494-.27v.27a.26.26 0 0 1-.268-.27c0-.145.123-.269.268-.269zm.02.27l-3.07.268-.062-.538 3.112-.269zm-3.09 0l.02.268a.29.29 0 0 1-.289-.248c-.02-.145.103-.27.227-.29zm.205.144l-.515.786-.433-.29.516-.786zm-.72.641l.205.145c-.082.124-.247.166-.35.083a.27.27 0 0 1-.083-.372zm.246 0v1.035h-.515v-1.035zm-.247 1.035h.247c0 .166-.103.27-.247.27a.26.26 0 0 1-.268-.27zm.247.104l-1.03 2.876-.495-.186 1.03-2.877zm-1.277 2.772l.247.104c-.062.124-.206.207-.33.145-.144-.042-.206-.186-.165-.331zm.268 0v2.09h-.536v-2.09zm-.268 2.09h.268a.273.273 0 0 1-.268.27.273.273 0 0 1-.268-.27zm.185-.186l1.278 1.304-.371.393-1.278-1.324zm1.092 1.49l.186-.186a.289.289 0 0 1 0 .393.26.26 0 0 1-.371 0zm.248-.062l1.03 3.663-.495.145-1.03-3.663zm.783 3.725l.247-.062a.266.266 0 0 1-.185.331c-.124.041-.268-.041-.31-.186zm.247-.083l1.525 4.45-.495.165-1.525-4.428zm1.278 4.532l.247-.083c.062.125-.02.29-.144.331a.284.284 0 0 1-.35-.165zm-.133.39l-2.65-5.501.454-.228 2.594 5.328zM31.725 9.268v1.8h-.535v-1.8z



M31.725 10.759v2.11h-.535v-2.044z



M35.872 17.064c-.461.346-.89.68-1.35 1.026l-.447-.172.057-.156c.086-.097.24-.134.343-.22.432-.357.906-.666 1.037-.756.196-.136-.229.053.36.278zm-1.123.447l-.227.579c-.21.136-.528.176-.69.044-.155-.108-.159-.111.05-.247zm-.21.663l-1.157.267-.081-.268 1.137-.368z


M18.27 48.048l.267 4.366-.536.041-.247-4.387zm0 4.387l.267-.021a.29.29 0 0 1-.247.29.29.29 0 0 1-.289-.249zm.246-.062l1.03 4.883-.514.124-1.01-4.904zm.784 4.945l.247-.062c.02.145-.062.29-.206.31-.145.042-.268-.061-.31-.186zm.226-.103l4.616 12.354-.474.186-4.616-12.354zm4.369 12.437l.247-.083c.062.124-.02.29-.144.331a.244.244 0 0 1-.33-.145zm.247-.104l2.308 5.401-.474.207-2.308-5.4zm2.06 5.505l.248-.104c.041.145 0 .29-.144.352a.236.236 0 0 1-.33-.145zm.269-.042c.011.366.23.696.372 1.033l-.887-.93zm3.924 11.217l.568.434-.31.434-.617-.558zm.328.582l.24-.148c.124.103.144.269.062.372-.083.125-.247.145-.371.062zm.096-.19h.762v.539h-.762zm.715.3l.047-.3c.583.038 0 .539 0 .539zm.17-.258l1.3.766-.269.455-1.277-.766zm1.3.766c.123.082.164.227.082.372-.062.124-.227.166-.35.083.073-.16.178-.304.267-.455zm-.223-.104l.84.062v.538h-.762zm.84.331v-.269c.145 0 .268.124.268.27a.273.273 0 0 1-.268.268zm.062-.269l1.278.27-.103.517-1.278-.249zm1.11.581l.168-.312c.144.02.226.166.206.31-.02.145-.165.228-.31.208zm-.059-.25l.515-.517.35.393-.515.517zm.68-.31l-.165-.207c.103-.104.268-.104.35.02a.263.263 0 0 1 0 .373zm.062-.27l1.278.25-.103.537-1.278-.269zm.989.601l.289-.352a.287.287 0 0 1 .206.31.276.276 0 0 1-.31.228zm.062-.27l.515-.516.35.372-.515.517zm.68-.33l-.165-.186c.103-.104.268-.104.35 0a.263.263 0 0 1 0 .372zm-.247.02l-.268-2.814.535-.062.248 2.835zm.015-2.84l-.283.026c0-.145.103-.29.247-.29.144-.02.268.083.289.228zm-.263.047l-.515-2.835.515-.104.495 2.835zm-.268-2.877l-.247.042c-.02-.145.062-.29.206-.31.144-.021.268.082.31.206zm-.247.063l-.515-2.318.515-.124.495 2.317zm-.268-2.38l-.247.062c-.041-.145.062-.29.206-.331a.285.285 0 0 1 .31.207zm-.206.145l-1.545-2.318.432-.29 1.546 2.318zm-1.319-2.463l-.226.145c-.083-.124-.042-.269.082-.352a.242.242 0 0 1 .35.062zm-.185.186l-1.278-1.283.35-.372 1.299 1.283zm-1.092-1.469l-.186.186a.263.263 0 0 1 0-.372c.103-.104.268-.104.35 0zm-.248.083l-1.277-4.118.494-.166 1.278 4.118zm-1.03-4.2l-.247.082c-.062-.145.02-.29.165-.331.123-.042.268.041.33.165zm-.268.061l-2.555-10.533.515-.124 2.555 10.533zM29.273 60.92l-.247.062a.266.266 0 0 1 .185-.33.296.296 0 0 1 .33.206zm-.247.083l-2.555-7.201.494-.166 2.556 7.18zm-2.308-7.284l-.247.083c-.041-.125.02-.29.165-.331.123-.063.267.02.33.165zm-.247-.042l.247-1.552.515.083-.268 1.552zm.494-1.51l-.247-.042c.02-.144.165-.248.288-.207.145.021.248.145.227.29zm-.247-.02l.515-4.367.515.062-.515 4.366z">




       <animate dur="3s" values="#000000; #3f69aa; #f8f9fa; #000000" keyTimes="0; 0.7; 0.9; 1" attributeName="fill" repeatCount="indefinite"/>


	</path>
    
    
    
    
    
    
    <path d="M21.736 4.78a.55.55 0 0 1-.55.55.55.55 0 0 1-.55-.55.55.55 0 0 1 .55-.55.55.55 0 0 1 .55.55zM26.038 3.68a.55.55 0 0 1-.55.55.55.55 0 0 1-.55-.55.55.55 0 0 1 .55-.55.55.55 0 0 1 .55.55zM18.019 8.719a.55.55 0 0 1-.55.55.55.55 0 0 1-.55-.55.55.55 0 0 1 .55-.55.55.55 0 0 1 .55.55zM20.269 9.875a.55.55 0 0 1-.55.55.55.55 0 0 1-.55-.55.55.55 0 0 1 .55-.55.55.55 0 0 1 .55.55zM23.175 7.062a.55.55 0 0 1-.55.55.55.55 0 0 1-.55-.55.55.55 0 0 1 .55-.55.55.55 0 0 1 .55.55zM25.831 6.531a.55.55 0 0 1-.55.55.55.55 0 0 1-.55-.55.55.55 0 0 1 .55-.55.55.55 0 0 1 .55.55zM25.193 11.048a.55.55 0 0 1-.55.55.55.55 0 0 1-.55-.55.55.55 0 0 1 .55-.55.55.55 0 0 1 .55.55zM20.415 13.291a.55.55 0 0 1-.55.55.55.55 0 0 1-.55-.55.55.55 0 0 1 .55-.55.55.55 0 0 1 .55.55zM17.432 12.23a.55.55 0 0 1-.55.55.55.55 0 0 1-.55-.55.55.55 0 0 1 .55-.55.55.55 0 0 1 .55.55zM23.177 12.363a.55.55 0 0 1-.55.55.55.55 0 0 1-.55-.55.55.55 0 0 1 .55-.55.55.55 0 0 1 .55.55zM30.315 8.231a.55.55 0 0 1-.55.55.55.55 0 0 1-.55-.55.55.55 0 0 1 .55-.55.55.55 0 0 1 .55.55zM32.06 5.38a.55.55 0 0 1-.55.55.55.55 0 0 1-.55-.55.55.55 0 0 1 .55-.55.55.55 0 0 1 .55.55zM27.946 11.78a.4.4 0 0 1-.4.4.4.4 0 0 1-.4-.4.4.4 0 0 1 .4-.4.4.4 0 0 1 .4.4zM27.583 13.37a.4.4 0 0 1-.4.4.4.4 0 0 1-.4-.4.4.4 0 0 1 .4-.4.4.4 0 0 1 .4.4zM22.656 14.775a.4.4 0 0 1-.4.4.4.4 0 0 1-.4-.4.4.4 0 0 1 .4-.4.4.4 0 0 1 .4.4zM18.331 16.969a.55.55 0 0 1-.55.55.55.55 0 0 1-.55-.55.55.55 0 0 1 .55-.55.55.55 0 0 1 .55.55zM30.5 24.119a.4.4 0 0 1-.4.4.4.4 0 0 1-.4-.4.4.4 0 0 1 .4-.4.4.4 0 0 1 .4.4zM21.144 17.031a.55.55 0 0 1-.55.55.55.55 0 0 1-.55-.55.55.55 0 0 1 .55-.55.55.55 0 0 1 .55.55zM26.363 18.969a.55.55 0 0 1-.55.55.55.55 0 0 1-.55-.55.55.55 0 0 1 .55-.55.55.55 0 0 1 .55.55zM27.8 15.687a.55.55 0 0 1-.55.55.55.55 0 0 1-.55-.55.55.55 0 0 1 .55-.55.55.55 0 0 1 .55.55zM30.269 14.406a.55.55 0 0 1-.55.55.55.55 0 0 1-.55-.55.55.55 0 0 1 .55-.55.55.55 0 0 1 .55.55zM24.39 18.104a.4.4 0 0 1-.4.4.4.4 0 0 1-.4-.4.4.4 0 0 1 .4-.4.4.4 0 0 1 .4.4zM21.894 19.25a.55.55 0 0 1-.55.55.55.55 0 0 1-.55-.55.55.55 0 0 1 .55-.55.55.55 0 0 1 .55.55zM32.081 12.844a.55.55 0 0 1-.55.55.55.55 0 0 1-.55-.55.55.55 0 0 1 .55-.55.55.55 0 0 1 .55.55zM32.175 9.469a.55.55 0 0 1-.55.55.55.55 0 0 1-.55-.55.55.55 0 0 1 .55-.55.55.55 0 0 1 .55.55zM34.15 7.696a.55.55 0 0 1-.55.55.55.55 0 0 1-.55-.55.55.55 0 0 1 .55-.55.55.55 0 0 1 .55.55zM33.175 14.812a.55.55 0 0 1-.55.55.55.55 0 0 1-.55-.55.55.55 0 0 1 .55-.55.55.55 0 0 1 .55.55zM36.215 16.816a.55.55 0 0 1-.55.55.55.55 0 0 1-.55-.55.55.55 0 0 1 .55-.55.55.55 0 0 1 .55.55zM34.075 17.918a.55.55 0 0 1-.55.55.55.55 0 0 1-.55-.55.55.55 0 0 1 .55-.55.55.55 0 0 1 .55.55zM30.76 17.162a.55.55 0 0 1-.55.55.55.55 0 0 1-.55-.55.55.55 0 0 1 .55-.55.55.55 0 0 1 .55.55zM28.79 22.197a.55.55 0 0 1-.55.55.55.55 0 0 1-.55-.55.55.55 0 0 1 .55-.55.55.55 0 0 1 .55.55zM20.956 22.469a.55.55 0 0 1-.55.55.55.55 0 0 1-.55-.55.55.55 0 0 1 .55-.55.55.55 0 0 1 .55.55zM20.644 24.937a.55.55 0 0 1-.55.55.55.55 0 0 1-.55-.55.55.55 0 0 1 .55-.55.55.55 0 0 1 .55.55zM23.456 25.062a.55.55 0 0 1-.55.55.55.55 0 0 1-.55-.55.55.55 0 0 1 .55-.55.55.55 0 0 1 .55.55zM23.769 22.219a.55.55 0 0 1-.55.55.55.55 0 0 1-.55-.55.55.55 0 0 1 .55-.55.55.55 0 0 1 .55.55zM23.925 19.75a.55.55 0 0 1-.55.55.55.55 0 0 1-.55-.55.55.55 0 0 1 .55-.55.55.55 0 0 1 .55.55zM27.738 24.625a.55.55 0 0 1-.55.55.55.55 0 0 1-.55-.55.55.55 0 0 1 .55-.55.55.55 0 0 1 .55.55zM33.374 23.65a.55.55 0 0 1-.55.55.55.55 0 0 1-.55-.55.55.55 0 0 1 .55-.55.55.55 0 0 1 .55.55zM34.112 22.281a.3.3 0 0 1-.3.3.3.3 0 0 1-.3-.3.3.3 0 0 1 .3-.3.3.3 0 0 1 .3.3zM34.404 12.765a.3.3 0 0 1-.3.3.3.3 0 0 1-.3-.3.3.3 0 0 1 .3-.3.3.3 0 0 1 .3.3zM34.487 14.187a.3.3 0 0 1-.3.3.3.3 0 0 1-.3-.3.3.3 0 0 1 .3-.3.3.3 0 0 1 .3.3zM17.584 28.802a.55.55 0 0 1-.55.55.55.55 0 0 1-.55-.55.55.55 0 0 1 .55-.55.55.55 0 0 1 .55.55zM22.3 29.375a.55.55 0 0 1-.55.55.55.55 0 0 1-.55-.55.55.55 0 0 1 .55-.55.55.55 0 0 1 .55.55zM18.05 31.344a.55.55 0 0 1-.55.55.55.55 0 0 1-.55-.55.55.55 0 0 1 .55-.55.55.55 0 0 1 .55.55zM19.331 36.125a.55.55 0 0 1-.55.55.55.55 0 0 1-.55-.55.55.55 0 0 1 .55-.55.55.55 0 0 1 .55.55zM15.113 32.437a.55.55 0 0 1-.55.55.55.55 0 0 1-.55-.55.55.55 0 0 1 .55-.55.55.55 0 0 1 .55.55zM23.175 35.937a.55.55 0 0 1-.55.55.55.55 0 0 1-.55-.55.55.55 0 0 1 .55-.55.55.55 0 0 1 .55.55zM26.607 30.86a.55.55 0 0 1-.55.55.55.55 0 0 1-.55-.55.55.55 0 0 1 .55-.55.55.55 0 0 1 .55.55zM28.988 30.344a.55.55 0 0 1-.55.55.55.55 0 0 1-.55-.55.55.55 0 0 1 .55-.55.55.55 0 0 1 .55.55zM29.081 28.094a.55.55 0 0 1-.55.55.55.55 0 0 1-.55-.55.55.55 0 0 1 .55-.55.55.55 0 0 1 .55.55zM30.036 32.01a.55.55 0 0 1-.55.55.55.55 0 0 1-.55-.55.55.55 0 0 1 .55-.55.55.55 0 0 1 .55.55zM26.581 28.031a.55.55 0 0 1-.55.55.55.55 0 0 1-.55-.55.55.55 0 0 1 .55-.55.55.55 0 0 1 .55.55zM16.3 34.906a.55.55 0 0 1-.55.55.55.55 0 0 1-.55-.55.55.55 0 0 1 .55-.55.55.55 0 0 1 .55.55zM16.925 38.125a.55.55 0 0 1-.55.55.55.55 0 0 1-.55-.55.55.55 0 0 1 .55-.55.55.55 0 0 1 .55.55zM15.113 39.656a.55.55 0 0 1-.55.55.55.55 0 0 1-.55-.55.55.55 0 0 1 .55-.55.55.55 0 0 1 .55.55zM13.144 39.562a.55.55 0 0 1-.55.55.55.55 0 0 1-.55-.55.55.55 0 0 1 .55-.55.55.55 0 0 1 .55.55zM19.863 42.531a.55.55 0 0 1-.55.55.55.55 0 0 1-.55-.55.55.55 0 0 1 .55-.55.55.55 0 0 1 .55.55zM26.081 36.469a.55.55 0 0 1-.55.55.55.55 0 0 1-.55-.55.55.55 0 0 1 .55-.55.55.55 0 0 1 .55.55zM28.519 37.844a.55.55 0 0 1-.55.55.55.55 0 0 1-.55-.55.55.55 0 0 1 .55-.55.55.55 0 0 1 .55.55zM29.87 34.421a.55.55 0 0 1-.55.55.55.55 0 0 1-.55-.55.55.55 0 0 1 .55-.55.55.55 0 0 1 .55.55zM33.381 42.552a.55.55 0 0 1-.55.55.55.55 0 0 1-.55-.55.55.55 0 0 1 .55-.55.55.55 0 0 1 .55.55zM18.27 48.048a.55.55 0 0 1-.55.55.55.55 0 0 1-.55-.55.55.55 0 0 1 .55-.55.55.55 0 0 1 .55.55zM20.31 47.758a.55.55 0 0 1-.55.55.55.55 0 0 1-.55-.55.55.55 0 0 1 .55-.55.55.55 0 0 1 .55.55zM23.456 47.656a.55.55 0 0 1-.55.55.55.55 0 0 1-.55-.55.55.55 0 0 1 .55-.55.55.55 0 0 1 .55.55zM26.269 47.656a.55.55 0 0 1-.55.55.55.55 0 0 1-.55-.55.55.55 0 0 1 .55-.55.55.55 0 0 1 .55.55zM28.263 47.8a.55.55 0 0 1-.55.55.55.55 0 0 1-.55-.55.55.55 0 0 1 .55-.55.55.55 0 0 1 .55.55zM31.456 36.656a.55.55 0 0 1-.55.55.55.55 0 0 1-.55-.55.55.55 0 0 1 .55-.55.55.55 0 0 1 .55.55zM27.8 50.625a.55.55 0 0 1-.55.55.55.55 0 0 1-.55-.55.55.55 0 0 1 .55-.55.55.55 0 0 1 .55.55zM25.506 52.863a.55.55 0 0 1-.55.55.55.55 0 0 1-.55-.55.55.55 0 0 1 .55-.55.55.55 0 0 1 .55.55zM27.456 52.594a.55.55 0 0 1-.55.55.55.55 0 0 1-.55-.55.55.55 0 0 1 .55-.55.55.55 0 0 1 .55.55zM21.581 54.25a.55.55 0 0 1-.55.55.55.55 0 0 1-.55-.55.55.55 0 0 1 .55-.55.55.55 0 0 1 .55.55zM18.847 52.594a.55.55 0 0 1-.55.55.55.55 0 0 1-.55-.55.55.55 0 0 1 .55-.55.55.55 0 0 1 .55.55zM12.066 50.797a.55.55 0 0 1-.55.55.55.55 0 0 1-.55-.55.55.55 0 0 1 .55-.55.55.55 0 0 1 .55.55zM15.613 50.75a.55.55 0 0 1-.55.55.55.55 0 0 1-.55-.55.55.55 0 0 1 .55-.55.55.55 0 0 1 .55.55zM15.706 61.344a.55.55 0 0 1-.55.55.55.55 0 0 1-.55-.55.55.55 0 0 1 .55-.55.55.55 0 0 1 .55.55zM18.706 59.984a.55.55 0 0 1-.55.55.55.55 0 0 1-.55-.55.55.55 0 0 1 .55-.55.55.55 0 0 1 .55.55zM19.91 57.594a.55.55 0 0 1-.55.55.55.55 0 0 1-.55-.55.55.55 0 0 1 .55-.55.55.55 0 0 1 .55.55zM13.019 64.484a.55.55 0 0 1-.55.55.55.55 0 0 1-.55-.55.55.55 0 0 1 .55-.55.55.55 0 0 1 .55.55zM14.238 68.14a.55.55 0 0 1-.55.55.55.55 0 0 1-.55-.55.55.55 0 0 1 .55-.55.55.55 0 0 1 .55.55zM13.8 69.922a.55.55 0 0 1-.55.55.55.55 0 0 1-.55-.55.55.55 0 0 1 .55-.55.55.55 0 0 1 .55.55zM19.284 71.89a.55.55 0 0 1-.55.55.55.55 0 0 1-.55-.55.55.55 0 0 1 .55-.55.55.55 0 0 1 .55.55zM24.55 70.219a.55.55 0 0 1-.55.55.55.55 0 0 1-.55-.55.55.55 0 0 1 .55-.55.55.55 0 0 1 .55.55zM19.3 73.797a.55.55 0 0 1-.55.55.55.55 0 0 1-.55-.55.55.55 0 0 1 .55-.55.55.55 0 0 1 .55.55zM12.847 75.969a.55.55 0 0 1-.55.55.55.55 0 0 1-.55-.55.55.55 0 0 1 .55-.55.55.55 0 0 1 .55.55zM26.753 74.906a.55.55 0 0 1-.55.55.55.55 0 0 1-.55-.55.55.55 0 0 1 .55-.55.55.55 0 0 1 .55.55zM26.003 73.234a.55.55 0 0 1-.55.55.55.55 0 0 1-.55-.55.55.55 0 0 1 .55-.55.55.55 0 0 1 .55.55zM28.41 75.734a.3.3 0 0 1-.3.3.3.3 0 0 1-.3-.3.3.3 0 0 1 .3-.3.3.3 0 0 1 .3.3zM30.988 76.063a.55.55 0 0 1-.55.55.55.55 0 0 1-.55-.55.55.55 0 0 1 .55-.55.55.55 0 0 1 .55.55zM27.738 76.094a.55.55 0 0 1-.55.55.55.55 0 0 1-.55-.55.55.55 0 0 1 .55-.55.55.55 0 0 1 .55.55zM33.769 75.75a.55.55 0 0 1-.55.55.55.55 0 0 1-.55-.55.55.55 0 0 1 .55-.55.55.55 0 0 1 .55.55zM32.175 70.922a.55.55 0 0 1-.55.55.55.55 0 0 1-.55-.55.55.55 0 0 1 .55-.55.55.55 0 0 1 .55.55zM29.986 61.065a.55.55 0 0 1-.55.55.55.55 0 0 1-.55-.55.55.55 0 0 1 .55-.55.55.55 0 0 1 .55.55zM33.8 49.062a.55.55 0 0 1-.55.55.55.55 0 0 1-.55-.55.55.55 0 0 1 .55-.55.55.55 0 0 1 .55.55zM33.987 56.187a.55.55 0 0 1-.55.55.55.55 0 0 1-.55-.55.55.55 0 0 1 .55-.55.55.55 0 0 1 .55.55zM26.965 53.76a.3.3 0 0 1-.3.3.3.3 0 0 1-.3-.3.3.3 0 0 1 .3-.3.3.3 0 0 1 .3.3zM24.988 63.687a.55.55 0 0 1-.55.55.55.55 0 0 1-.55-.55.55.55 0 0 1 .55-.55.55.55 0 0 1 .55.55zM27.863 59.562a.55.55 0 0 1-.55.55.55.55 0 0 1-.55-.55.55.55 0 0 1 .55-.55.55.55 0 0 1 .55.55zM30.113 25.75a.55.55 0 0 1-.55.55.55.55 0 0 1-.55-.55.55.55 0 0 1 .55-.55.55.55 0 0 1 .55.55zM34.831 20.469a.55.55 0 0 1-.55.55.55.55 0 0 1-.55-.55.55.55 0 0 1 .55-.55.55.55 0 0 1 .55.55zM28.263 35.238a.3.3 0 0 1-.3.3.3.3 0 0 1-.3-.3.3.3 0 0 1 .3-.3.3.3 0 0 1 .3.3zM32.59 40.101a.3.3 0 0 1-.3.3.3.3 0 0 1-.3-.3.3.3 0 0 1 .3-.3.3.3 0 0 1 .3.3zM22.885 42.895a.3.3 0 0 1-.3.3.3.3 0 0 1-.3-.3.3.3 0 0 1 .3-.3.3.3 0 0 1 .3.3zM26.019 41.719a.55.55 0 0 1-.55.55.55.55 0 0 1-.55-.55.55.55 0 0 1 .55-.55.55.55 0 0 1 .55.55zM28.331 42.312a.3.3 0 0 1-.3.3.3.3 0 0 1-.3-.3.3.3 0 0 1 .3-.3.3.3 0 0 1 .3.3zM24.006 3.544a.3.3 0 0 1-.3.3.3.3 0 0 1-.3-.3.3.3 0 0 1 .3-.3.3.3 0 0 1 .3.3zM29.041 4.327a.3.3 0 0 1-.3.3.3.3 0 0 1-.3-.3.3.3 0 0 1 .3-.3.3.3 0 0 1 .3.3zM26.7 22.005a.3.3 0 0 1-.3.3.3.3 0 0 1-.3-.3.3.3 0 0 1 .3-.3.3.3 0 0 1 .3.3zM25.24 23.286a.3.3 0 0 1-.3.3.3.3 0 0 1-.3-.3.3.3 0 0 1 .3-.3.3.3 0 0 1 .3.3zM31.605 22.226a.3.3 0 0 1-.3.3.3.3 0 0 1-.3-.3.3.3 0 0 1 .3-.3.3.3 0 0 1 .3.3zM22.925 58.937a.3.3 0 0 1-.3.3.3.3 0 0 1-.3-.3.3.3 0 0 1 .3-.3.3.3 0 0 1 .3.3zM12.046 45.171a.3.3 0 0 1-.3.3.3.3 0 0 1-.3-.3.3.3 0 0 1 .3-.3.3.3 0 0 1 .3.3zM12.482 56.977a.55.55 0 0 1-.55.55.55.55 0 0 1-.55-.55.55.55 0 0 1 .55-.55.55.55 0 0 1 .55.55zM28.334 57.183a.3.3 0 0 1-.3.3.3.3 0 0 1-.3-.3.3.3 0 0 1 .3-.3.3.3 0 0 1 .3.3zM17.286 43.174a.3.3 0 0 1-.3.3.3.3 0 0 1-.3-.3.3.3 0 0 1 .3-.3.3.3 0 0 1 .3.3zM23.31 40.007a.55.55 0 0 1-.55.55.55.55 0 0 1-.55-.55.55.55 0 0 1 .55-.55.55.55 0 0 1 .55.55zM30.677 46.179a.3.3 0 0 1-.3.3.3.3 0 0 1-.3-.3.3.3 0 0 1 .3-.3.3.3 0 0 1 .3.3zM22.5 32.7a.3.3 0 0 1-.3.3.3.3 0 0 1-.3-.3.3.3 0 0 1 .3-.3.3.3 0 0 1 .3.3zM29.483 19.618a.3.3 0 0 1-.3.3.3.3 0 0 1-.3-.3.3.3 0 0 1 .3-.3.3.3 0 0 1 .3.3zM19.495 6.492a.3.3 0 0 1-.3.3.3.3 0 0 1-.3-.3.3.3 0 0 1 .3-.3.3.3 0 0 1 .3.3zM27.8 7.312a.3.3 0 0 1-.3.3.3.3 0 0 1-.3-.3.3.3 0 0 1 .3-.3.3.3 0 0 1 .3.3zM21.238 27.187a.3.3 0 0 1-.3.3.3.3 0 0 1-.3-.3.3.3 0 0 1 .3-.3.3.3 0 0 1 .3.3zM18.887 26.133a.3.3 0 0 1-.3.3.3.3 0 0 1-.3-.3.3.3 0 0 1 .3-.3.3.3 0 0 1 .3.3zM19.3 19.75a.3.3 0 0 1-.3.3.3.3 0 0 1-.3-.3.3.3 0 0 1 .3-.3.3.3 0 0 1 .3.3zM33.8 52.812a.3.3 0 0 1-.3.3.3.3 0 0 1-.3-.3.3.3 0 0 1 .3-.3.3.3 0 0 1 .3.3zM15.329 44.803a.55.55 0 0 1-.55.55.55.55 0 0 1-.55-.55.55.55 0 0 1 .55-.55.55.55 0 0 1 .55.55zM27.03 18.071a.3.3 0 0 1-.3.3.3.3 0 0 1-.3-.3.3.3 0 0 1 .3-.3.3.3 0 0 1 .3.3zM34.05 63.625a.55.55 0 0 1-.55.55.55.55 0 0 1-.55-.55.55.55 0 0 1 .55-.55.55.55 0 0 1 .55.55zM34.05 66.75a.55.55 0 0 1-.55.55.55.55 0 0 1-.55-.55.55.55 0 0 1 .55-.55.55.55 0 0 1 .55.55zM33.925 72.75a.3.3 0 0 1-.3.3.3.3 0 0 1-.3-.3.3.3 0 0 1 .3-.3.3.3 0 0 1 .3.3zM16.238 64.25a.3.3 0 0 1-.3.3.3.3 0 0 1-.3-.3.3.3 0 0 1 .3-.3.3.3 0 0 1 .3.3zM15.425 56a.3.3 0 0 1-.3.3.3.3 0 0 1-.3-.3.3.3 0 0 1 .3-.3.3.3 0 0 1 .3.3zM25.925 44.687a.3.3 0 0 1-.3.3.3.3 0 0 1-.3-.3.3.3 0 0 1 .3-.3.3.3 0 0 1 .3.3zM26.3 69.125a.3.3 0 0 1-.3.3.3.3 0 0 1-.3-.3.3.3 0 0 1 .3-.3.3.3 0 0 1 .3.3zM21.925 62.875a.55.55 0 0 1-.55.55.55.55 0 0 1-.55-.55.55.55 0 0 1 .55-.55.55.55 0 0 1 .55.55zM23.113 66.75a.3.3 0 0 1-.3.3.3.3 0 0 1-.3-.3.3.3 0 0 1 .3-.3.3.3 0 0 1 .3.3zM31.3 68.125a.55.55 0 0 1-.55.55.55.55 0 0 1-.55-.55.55.55 0 0 1 .55-.55.55.55 0 0 1 .55.55zM16.675 70.875a.55.55 0 0 1-.55.55.55.55 0 0 1-.55-.55.55.55 0 0 1 .55-.55.55.55 0 0 1 .55.55zM15.727 74.948a.3.3 0 0 1-.3.3.3.3 0 0 1-.3-.3.3.3 0 0 1 .3-.3.3.3 0 0 1 .3.3zM22.677 73.535a.3.3 0 0 1-.3.3.3.3 0 0 1-.3-.3.3.3 0 0 1 .3-.3.3.3 0 0 1 .3.3zM15.4 82.566a.55.55 0 0 1-.55.55.55.55 0 0 1-.55-.55.55.55 0 0 1 .55-.55.55.55 0 0 1 .55.55zM18.979 80.886a.55.55 0 0 1-.55.55.55.55 0 0 1-.55-.55.55.55 0 0 1 .55-.55.55.55 0 0 1 .55.55zM19.238 77.313a.55.55 0 0 1-.55.55.55.55 0 0 1-.55-.55.55.55 0 0 1 .55-.55.55.55 0 0 1 .55.55zM13.738 79.313a.3.3 0 0 1-.3.3.3.3 0 0 1-.3-.3.3.3 0 0 1 .3-.3.3.3 0 0 1 .3.3zM25.667 86.765a.55.55 0 0 1-.55.55.55.55 0 0 1-.55-.55.55.55 0 0 1 .55-.55.55.55 0 0 1 .55.55zM22.006 88.974a.55.55 0 0 1-.55.55.55.55 0 0 1-.55-.55.55.55 0 0 1 .55-.55.55.55 0 0 1 .55.55zM17.786 88.554a.55.55 0 0 1-.55.55.55.55 0 0 1-.55-.55.55.55 0 0 1 .55-.55.55.55 0 0 1 .55.55zM19.178 90.079a.55.55 0 0 1-.55.55.55.55 0 0 1-.55-.55.55.55 0 0 1 .55-.55.55.55 0 0 1 .55.55zM16.592 84.952a.55.55 0 0 1-.55.55.55.55 0 0 1-.55-.55.55.55 0 0 1 .55-.55.55.55 0 0 1 .55.55zM21.904 83.39a.3.3 0 0 1-.3.3.3.3 0 0 1-.3-.3.3.3 0 0 1 .3-.3.3.3 0 0 1 .3.3zM29.762 80.886a.55.55 0 0 1-.55.55.55.55 0 0 1-.55-.55.55.55 0 0 1 .55-.55.55.55 0 0 1 .55.55zM37.673 84.599a.55.55 0 0 1-.55.55.55.55 0 0 1-.55-.55.55.55 0 0 1 .55-.55.55.55 0 0 1 .55.55zM30.963 86.662a.55.55 0 0 1-.55.55.55.55 0 0 1-.55-.55.55.55 0 0 1 .55-.55.55.55 0 0 1 .55.55zM35.6 87.593a.55.55 0 0 1-.55.55.55.55 0 0 1-.55-.55.55.55 0 0 1 .55-.55.55.55 0 0 1 .55.55zM37.85 87.604a.55.55 0 0 1-.55.55.55.55 0 0 1-.55-.55.55.55 0 0 1 .55-.55.55.55 0 0 1 .55.55zM30.646 83.936a.55.55 0 0 1-.55.55.55.55 0 0 1-.55-.55.55.55 0 0 1 .55-.55.55.55 0 0 1 .55.55zM31.251 81.888a.3.3 0 0 1-.3.3.3.3 0 0 1-.3-.3.3.3 0 0 1 .3-.3.3.3 0 0 1 .3.3zM37.143 81.726a.55.55 0 0 1-.55.55.55.55 0 0 1-.55-.55.55.55 0 0 1 .55-.55.55.55 0 0 1 .55.55zM36.197 79.109a.3.3 0 0 1-.3.3.3.3 0 0 1-.3-.3.3.3 0 0 1 .3-.3.3.3 0 0 1 .3.3zM34.94 82.006a.3.3 0 0 1-.3.3.3.3 0 0 1-.3-.3.3.3 0 0 1 .3-.3.3.3 0 0 1 .3.3zM36.334 85.337a.3.3 0 0 1-.3.3.3.3 0 0 1-.3-.3.3.3 0 0 1 .3-.3.3.3 0 0 1 .3.3zM33.254 87.596a.3.3 0 0 1-.3.3.3.3 0 0 1-.3-.3.3.3 0 0 1 .3-.3.3.3 0 0 1 .3.3zM32.047 87.036a.3.3 0 0 1-.3.3.3.3 0 0 1-.3-.3.3.3 0 0 1 .3-.3.3.3 0 0 1 .3.3zM33.612 84.688a.55.55 0 0 1-.55.55.55.55 0 0 1-.55-.55.55.55 0 0 1 .55-.55.55.55 0 0 1 .55.55zM23.973 92.775a.55.55 0 0 1-.55.55.55.55 0 0 1-.55-.55.55.55 0 0 1 .55-.55.55.55 0 0 1 .55.55zM24.907 95.925a.55.55 0 0 1-.55.55.55.55 0 0 1-.55-.55.55.55 0 0 1 .55-.55.55.55 0 0 1 .55.55zM42.11 102.688a.55.55 0 0 1-.55.55.55.55 0 0 1-.55-.55.55.55 0 0 1 .55-.55.55.55 0 0 1 .55.55zM40.652 97.597a.55.55 0 0 1-.55.55.55.55 0 0 1-.55-.55.55.55 0 0 1 .55-.55.55.55 0 0 1 .55.55zM39.227 103.524a.3.3 0 0 1-.3.3.3.3 0 0 1-.3-.3.3.3 0 0 1 .3-.3.3.3 0 0 1 .3.3zM42.828 108.139a.55.55 0 0 1-.55.55.55.55 0 0 1-.55-.55.55.55 0 0 1 .55-.55.55.55 0 0 1 .55.55zM40.03 106.983a.55.55 0 0 1-.55.55.55.55 0 0 1-.55-.55.55.55 0 0 1 .55-.55.55.55 0 0 1 .55.55zM41.481 113.408a.55.55 0 0 1-.55.55.55.55 0 0 1-.55-.55.55.55 0 0 1 .55-.55.55.55 0 0 1 .55.55zM32.83 117.97a.55.55 0 0 1-.55.55.55.55 0 0 1-.55-.55.55.55 0 0 1 .55-.55.55.55 0 0 1 .55.55zM41.26 100.144a.3.3 0 0 1-.3.3.3.3 0 0 1-.3-.3.3.3 0 0 1 .3-.3.3.3 0 0 1 .3.3zM34.395 114.89a.55.55 0 0 1-.55.55.55.55 0 0 1-.55-.55.55.55 0 0 1 .55-.55.55.55 0 0 1 .55.55zM39.268 111.35a.55.55 0 0 1-.55.55.55.55 0 0 1-.55-.55.55.55 0 0 1 .55-.55.55.55 0 0 1 .55.55zM31.139 107.09a.55.55 0 0 1-.55.55.55.55 0 0 1-.55-.55.55.55 0 0 1 .55-.55.55.55 0 0 1 .55.55zM34.112 108.513a.55.55 0 0 1-.55.55.55.55 0 0 1-.55-.55.55.55 0 0 1 .55-.55.55.55 0 0 1 .55.55zM24.516 109.662a.3.3 0 0 1-.3.3.3.3 0 0 1-.3-.3.3.3 0 0 1 .3-.3.3.3 0 0 1 .3.3zM33.89 105.41a.55.55 0 0 1-.55.55.55.55 0 0 1-.55-.55.55.55 0 0 1 .55-.55.55.55 0 0 1 .55.55zM24.326 112.434a.55.55 0 0 1-.55.55.55.55 0 0 1-.55-.55.55.55 0 0 1 .55-.55.55.55 0 0 1 .55.55zM37.283 94.096a.55.55 0 0 1-.55.55.55.55 0 0 1-.55-.55.55.55 0 0 1 .55-.55.55.55 0 0 1 .55.55zM28.587 92.691a.55.55 0 0 1-.55.55.55.55 0 0 1-.55-.55.55.55 0 0 1 .55-.55.55.55 0 0 1 .55.55zM36.222 91.128a.3.3 0 0 1-.3.3.3.3 0 0 1-.3-.3.3.3 0 0 1 .3-.3.3.3 0 0 1 .3.3zM38.703 99.585a.55.55 0 0 1-.55.55.55.55 0 0 1-.55-.55.55.55 0 0 1 .55-.55.55.55 0 0 1 .55.55zM32.053 100.027a.55.55 0 0 1-.55.55.55.55 0 0 1-.55-.55.55.55 0 0 1 .55-.55.55.55 0 0 1 .55.55zM22.23 106.798a.55.55 0 0 1-.55.55.55.55 0 0 1-.55-.55.55.55 0 0 1 .55-.55.55.55 0 0 1 .55.55zM29.25 103.607a.55.55 0 0 1-.55.55.55.55 0 0 1-.55-.55.55.55 0 0 1 .55-.55.55.55 0 0 1 .55.55zM42.321 105.359a.3.3 0 0 1-.3.3.3.3 0 0 1-.3-.3.3.3 0 0 1 .3-.3.3.3 0 0 1 .3.3zM39.3 92.218a.55.55 0 0 1-.55.55.55.55 0 0 1-.55-.55.55.55 0 0 1 .55-.55.55.55 0 0 1 .55.55zM24.629 105.91a.55.55 0 0 1-.55.55.55.55 0 0 1-.55-.55.55.55 0 0 1 .55-.55.55.55 0 0 1 .55.55zM30.05 96.719a.3.3 0 0 1-.3.3.3.3 0 0 1-.3-.3.3.3 0 0 1 .3-.3.3.3 0 0 1 .3.3zM19.175 94.25a.55.55 0 0 1-.55.55.55.55 0 0 1-.55-.55.55.55 0 0 1 .55-.55.55.55 0 0 1 .55.55zM21.019 103.688a.3.3 0 0 1-.3.3.3.3 0 0 1-.3-.3.3.3 0 0 1 .3-.3.3.3 0 0 1 .3.3zM27.363 99.875a.55.55 0 0 1-.55.55.55.55 0 0 1-.55-.55.55.55 0 0 1 .55-.55.55.55 0 0 1 .55.55zM20.425 100.438a.55.55 0 0 1-.55.55.55.55 0 0 1-.55-.55.55.55 0 0 1 .55-.55.55.55 0 0 1 .55.55zM24.42 101.437a.3.3 0 0 1-.3.3.3.3 0 0 1-.3-.3.3.3 0 0 1 .3-.3.3.3 0 0 1 .3.3zM22.269 112.031a.55.55 0 0 1-.55.55.55.55 0 0 1-.55-.55.55.55 0 0 1 .55-.55.55.55 0 0 1 .55.55zM22.576 113.957a.3.3 0 0 1-.3.3.3.3 0 0 1-.3-.3.3.3 0 0 1 .3-.3.3.3 0 0 1 .3.3zM19.863 117.75a.55.55 0 0 1-.55.55.55.55 0 0 1-.55-.55.55.55 0 0 1 .55-.55.55.55 0 0 1 .55.55zM27.8 109.594a.55.55 0 0 1-.55.55.55.55 0 0 1-.55-.55.55.55 0 0 1 .55-.55.55.55 0 0 1 .55.55zM12.85 126.621a.55.55 0 0 1-.55.55.55.55 0 0 1-.55-.55.55.55 0 0 1 .55-.55.55.55 0 0 1 .55.55zM9.936 129.802a.55.55 0 0 1-.55.55.55.55 0 0 1-.55-.55.55.55 0 0 1 .55-.55.55.55 0 0 1 .55.55zM11.35 128.516a.3.3 0 0 1-.3.3.3.3 0 0 1-.3-.3.3.3 0 0 1 .3-.3.3.3 0 0 1 .3.3zM16.806 131.55a.55.55 0 0 1-.55.55.55.55 0 0 1-.55-.55.55.55 0 0 1 .55-.55.55.55 0 0 1 .55.55zM14.685 130.124a.55.55 0 0 1-.55.55.55.55 0 0 1-.55-.55.55.55 0 0 1 .55-.55.55.55 0 0 1 .55.55zM24.894 125.813a.55.55 0 0 1-.55.55.55.55 0 0 1-.55-.55.55.55 0 0 1 .55-.55.55.55 0 0 1 .55.55zM28.831 121.969a.55.55 0 0 1-.55.55.55.55 0 0 1-.55-.55.55.55 0 0 1 .55-.55.55.55 0 0 1 .55.55zM18.831 129.063a.3.3 0 0 1-.3.3.3.3 0 0 1-.3-.3.3.3 0 0 1 .3-.3.3.3 0 0 1 .3.3zM26.706 131.688a.55.55 0 0 1-.55.55.55.55 0 0 1-.55-.55.55.55 0 0 1 .55-.55.55.55 0 0 1 .55.55zM19.956 130.688a.55.55 0 0 1-.55.55.55.55 0 0 1-.55-.55.55.55 0 0 1 .55-.55.55.55 0 0 1 .55.55zM21.77 136.787a.55.55 0 0 1-.55.55.55.55 0 0 1-.55-.55.55.55 0 0 1 .55-.55.55.55 0 0 1 .55.55zM17.441 135.822a.55.55 0 0 1-.55.55.55.55 0 0 1-.55-.55.55.55 0 0 1 .55-.55.55.55 0 0 1 .55.55zM21.815 128.207a.3.3 0 0 1-.3.3.3.3 0 0 1-.3-.3.3.3 0 0 1 .3-.3.3.3 0 0 1 .3.3zM14.994 135.219a.55.55 0 0 1-.55.55.55.55 0 0 1-.55-.55.55.55 0 0 1 .55-.55.55.55 0 0 1 .55.55zM18.662 133.836a.55.55 0 0 1-.55.55.55.55 0 0 1-.55-.55.55.55 0 0 1 .55-.55.55.55 0 0 1 .55.55zM11.915 133.605a.55.55 0 0 1-.55.55.55.55 0 0 1-.55-.55.55.55 0 0 1 .55-.55.55.55 0 0 1 .55.55zM9.23 134.145a.55.55 0 0 1-.55.55.55.55 0 0 1-.55-.55.55.55 0 0 1 .55-.55.55.55 0 0 1 .55.55zM23.008 131.566a.3.3 0 0 1-.3.3.3.3 0 0 1-.3-.3.3.3 0 0 1 .3-.3.3.3 0 0 1 .3.3zM17.98 141.127a.55.55 0 0 1-.55.55.55.55 0 0 1-.55-.55.55.55 0 0 1 .55-.55.55.55 0 0 1 .55.55zM26.223 140.01a.55.55 0 0 1-.55.55.55.55 0 0 1-.55-.55.55.55 0 0 1 .55-.55.55.55 0 0 1 .55.55zM17.572 125.694a.55.55 0 0 1-.55.55.55.55 0 0 1-.55-.55.55.55 0 0 1 .55-.55.55.55 0 0 1 .55.55zM25.45 122.92a.55.55 0 0 1-.55.55.55.55 0 0 1-.55-.55.55.55 0 0 1 .55-.55.55.55 0 0 1 .55.55zM15.849 122.462a.3.3 0 0 1-.3.3.3.3 0 0 1-.3-.3.3.3 0 0 1 .3-.3.3.3 0 0 1 .3.3zM22.684 118.204a.55.55 0 0 1-.55.55.55.55 0 0 1-.55-.55.55.55 0 0 1 .55-.55.55.55 0 0 1 .55.55zM29.932 118.766a.55.55 0 0 1-.55.55.55.55 0 0 1-.55-.55.55.55 0 0 1 .55-.55.55.55 0 0 1 .55.55zM24.29 116.193a.55.55 0 0 1-.55.55.55.55 0 0 1-.55-.55.55.55 0 0 1 .55-.55.55.55 0 0 1 .55.55zM30.93 110.81a.55.55 0 0 1-.55.55.55.55 0 0 1-.55-.55.55.55 0 0 1 .55-.55.55.55 0 0 1 .55.55zM26.942 89.625a.3.3 0 0 1-.3.3.3.3 0 0 1-.3-.3.3.3 0 0 1 .3-.3.3.3 0 0 1 .3.3zM37.254 115.537a.3.3 0 0 1-.3.3.3.3 0 0 1-.3-.3.3.3 0 0 1 .3-.3.3.3 0 0 1 .3.3zM36.591 113.094a.3.3 0 0 1-.3.3.3.3 0 0 1-.3-.3.3.3 0 0 1 .3-.3.3.3 0 0 1 .3.3zM20.136 121.717a.55.55 0 0 1-.55.55.55.55 0 0 1-.55-.55.55.55 0 0 1 .55-.55.55.55 0 0 1 .55.55zM27.615 126.897a.55.55 0 0 1-.55.55.55.55 0 0 1-.55-.55.55.55 0 0 1 .55-.55.55.55 0 0 1 .55.55zM27.693 113.137a.3.3 0 0 1-.3.3.3.3 0 0 1-.3-.3.3.3 0 0 1 .3-.3.3.3 0 0 1 .3.3zM22.625 142.124a.55.55 0 0 1-.55.55.55.55 0 0 1-.55-.55.55.55 0 0 1 .55-.55.55.55 0 0 1 .55.55zM25.247 141.968a.55.55 0 0 1-.55.55.55.55 0 0 1-.55-.55.55.55 0 0 1 .55-.55.55.55 0 0 1 .55.55zM27.074 144.477a.55.55 0 0 1-.55.55.55.55 0 0 1-.55-.55.55.55 0 0 1 .55-.55.55.55 0 0 1 .55.55zM23.593 144.796a.55.55 0 0 1-.55.55.55.55 0 0 1-.55-.55.55.55 0 0 1 .55-.55.55.55 0 0 1 .55.55zM26.367 135.985a.3.3 0 0 1-.3.3.3.3 0 0 1-.3-.3.3.3 0 0 1 .3-.3.3.3 0 0 1 .3.3zM35.235 148.389a.55.55 0 0 1-.55.55.55.55 0 0 1-.55-.55.55.55 0 0 1 .55-.55.55.55 0 0 1 .55.55zM38.373 148.995a.55.55 0 0 1-.55.55.55.55 0 0 1-.55-.55.55.55 0 0 1 .55-.55.55.55 0 0 1 .55.55zM20.666 145.405a.55.55 0 0 1-.55.55.55.55 0 0 1-.55-.55.55.55 0 0 1 .55-.55.55.55 0 0 1 .55.55zM32.123 150.983a.55.55 0 0 1-.55.55.55.55 0 0 1-.55-.55.55.55 0 0 1 .55-.55.55.55 0 0 1 .55.55zM30.698 146.46a.3.3 0 0 1-.3.3.3.3 0 0 1-.3-.3.3.3 0 0 1 .3-.3.3.3 0 0 1 .3.3zM39.743 151.703a.55.55 0 0 1-.55.55.55.55 0 0 1-.55-.55.55.55 0 0 1 .55-.55.55.55 0 0 1 .55.55zM21.834 148.763a.55.55 0 0 1-.55.55.55.55 0 0 1-.55-.55.55.55 0 0 1 .55-.55.55.55 0 0 1 .55.55zM25.616 150.09a.55.55 0 0 1-.55.55.55.55 0 0 1-.55-.55.55.55 0 0 1 .55-.55.55.55 0 0 1 .55.55zM30.178 152.397a.55.55 0 0 1-.55.55.55.55 0 0 1-.55-.55.55.55 0 0 1 .55-.55.55.55 0 0 1 .55.55zM19.218 132.393a.3.3 0 0 1-.3.3.3.3 0 0 1-.3-.3.3.3 0 0 1 .3-.3.3.3 0 0 1 .3.3zM16.762 147.328a.55.55 0 0 1-.55.55.55.55 0 0 1-.55-.55.55.55 0 0 1 .55-.55.55.55 0 0 1 .55.55zM16.85 151.69a.55.55 0 0 1-.55.55.55.55 0 0 1-.55-.55.55.55 0 0 1 .55-.55.55.55 0 0 1 .55.55zM7.894 131.793a.55.55 0 0 1-.55.55.55.55 0 0 1-.55-.55.55.55 0 0 1 .55-.55.55.55 0 0 1 .55.55zM11.22 142.41a.55.55 0 0 1-.55.55.55.55 0 0 1-.55-.55.55.55 0 0 1 .55-.55.55.55 0 0 1 .55.55zM10.766 137.4a.3.3 0 0 1-.3.3.3.3 0 0 1-.3-.3.3.3 0 0 1 .3-.3.3.3 0 0 1 .3.3zM20.721 150.688a.55.55 0 0 1-.55.55.55.55 0 0 1-.55-.55.55.55 0 0 1 .55-.55.55.55 0 0 1 .55.55zM13.094 141.04a.55.55 0 0 1-.55.55.55.55 0 0 1-.55-.55.55.55 0 0 1 .55-.55.55.55 0 0 1 .55.55zM4.623 134.93a.55.55 0 0 1-.55.55.55.55 0 0 1-.55-.55.55.55 0 0 1 .55-.55.55.55 0 0 1 .55.55zM7.551 138.52a.55.55 0 0 1-.55.55.55.55 0 0 1-.55-.55.55.55 0 0 1 .55-.55.55.55 0 0 1 .55.55zM16.07 149.774a.3.3 0 0 1-.3.3.3.3 0 0 1-.3-.3.3.3 0 0 1 .3-.3.3.3 0 0 1 .3.3zM23.951 138.607a.3.3 0 0 1-.3.3.3.3 0 0 1-.3-.3.3.3 0 0 1 .3-.3.3.3 0 0 1 .3.3zM15.107 142.448a.55.55 0 0 1 .55.55.55.55 0 0 1-.55.55.55.55 0 0 1-.55-.55.55.55 0 0 1 .55-.55zM23.892 134.754a.55.55 0 0 1-.55.55.55.55 0 0 1-.55-.55.55.55 0 0 1 .55-.55.55.55 0 0 1 .55.55zM14.003 144.973a.55.55 0 0 1-.55.55.55.55 0 0 1-.55-.55.55.55 0 0 1 .55-.55.55.55 0 0 1 .55.55zM17.617 145.045a.3.3 0 0 1-.3.3.3.3 0 0 1-.3-.3.3.3 0 0 1 .3-.3.3.3 0 0 1 .3.3zM24.075 152.093a.55.55 0 0 1-.55.55.55.55 0 0 1-.55-.55.55.55 0 0 1 .55-.55.55.55 0 0 1 .55.55zM17.455 138.329a.3.3 0 0 1-.3.3.3.3 0 0 1-.3-.3.3.3 0 0 1 .3-.3.3.3 0 0 1 .3.3zM26.676 152.343a.55.55 0 0 1-.55.55.55.55 0 0 1-.55-.55.55.55 0 0 1 .55-.55.55.55 0 0 1 .55.55zM19.086 151.867a.55.55 0 0 1-.55.55.55.55 0 0 1-.55-.55.55.55 0 0 1 .55-.55.55.55 0 0 1 .55.55zM33.482 149.641a.3.3 0 0 1-.3.3.3.3 0 0 1-.3-.3.3.3 0 0 1 .3-.3.3.3 0 0 1 .3.3zM28.429 150.642a.55.55 0 0 1-.55.55.55.55 0 0 1-.55-.55.55.55 0 0 1 .55-.55.55.55 0 0 1 .55.55zM34.44 152.176a.55.55 0 0 1-.55.55.55.55 0 0 1-.55-.55.55.55 0 0 1 .55-.55.55.55 0 0 1 .55.55zM19.269 143.5a.3.3 0 0 1-.3.3.3.3 0 0 1-.3-.3.3.3 0 0 1 .3-.3.3.3 0 0 1 .3.3zM32.987 147.594a.55.55 0 0 1-.55.55.55.55 0 0 1-.55-.55.55.55 0 0 1 .55-.55.55.55 0 0 1 .55.55zM36.925 106.219a.3.3 0 0 1-.3.3.3.3 0 0 1-.3-.3.3.3 0 0 1 .3-.3.3.3 0 0 1 .3.3zM36.362 151.094a.3.3 0 0 1-.3.3.3.3 0 0 1-.3-.3.3.3 0 0 1 .3-.3.3.3 0 0 1 .3.3zM22.363 125.656a.3.3 0 0 1-.3.3.3.3 0 0 1-.3-.3.3.3 0 0 1 .3-.3.3.3 0 0 1 .3.3z" fill="#3d85c6" fill-rule="evenodd" stroke="#3d85c6" stroke-width="0.3" stroke-linecap="round" stroke-linejoin="round" paint-order="fill markers stroke"></path>
    



    
    
    
     
    
    </g>
		
</svg>
