<svg xmlns="http://www.w3.org/2000/svg" viewBox="0 0 68 65">



<path d="m 34.671875,30.869141 c -1.55016,2.19e-4 -2.682733,1.070739 -3.287109,2.158203 l -9.4375,16.859375 c -3.32e-4,5.87e-4 3.31e-4,0.0014 0,0.002 l -0.0039,0.0059 c -0.798219,1.418115 -0.903617,2.752792 -0.935547,4.138672 -0.016,0.694297 -0.02089,1.318564 0.257813,2.136719 0.139352,0.409077 0.334842,0.968848 1.082031,1.480469 0.747189,0.51162 2.03141,0.469724 2.66211,0.140625 l 9.552734,-4.669922 10.003906,4.591797 c 0.681236,0.339318 2.075415,0.271753 2.767578,-0.289063 0.692163,-0.560815 0.836413,-1.087564 0.957032,-1.492187 0.241236,-0.809247 0.238181,-1.456529 0.214843,-2.175782 -0.04668,-1.438504 -0.128965,-2.794762 -0.974609,-4.265625 l -0.002,-0.0059 -9.550781,-16.431641 -0.002,-0.002 c -0.614297,-1.105538 -1.755598,-2.18186 -3.304687,-2.18164 z m 0.01563,5.582031 8.896484,15.3125 c -0.02229,-0.0382 0.06415,0.407 0.0918,0.529297 L 34.5,48.082031 l -0.96875,0.47461 -7.646484,3.738281 c 0.0015,-0.01138 0.03343,-0.177234 0.0293,-0.169922 l 0.002,-0.0039 z" />




<path d="m 34.321282,19.741663 c -7.425355,0 -14.020189,4.59163 -15.88516,11.33725 a 1.9074565,1.9074565 0 1 0 3.677138,1.01569 c 1.362415,-4.92785 6.353486,-8.53824 12.208022,-8.53824 5.723028,0 10.628862,3.41121 12.123267,8.13295 a 1.9074565,1.9074565 0 1 0 3.636617,-1.1508 C 48.03073,24.059963 41.560729,19.741663 34.321282,19.741663 Z" >

    <animate dur="2s" values="#4e86b1; #000000; #4e86b1" keyTimes="0; 0.5; 1" attributeName="fill" repeatCount="indefinite"/>
    </path>




<path  fill="#4e86b1" d="m 34.20969,6.9625926 c -11.080136,0 -20.920969,6.8516404 -23.703883,16.9174704 -1.0402697,3.6749 3.005504,4.70168 3.998946,1.01385 2.033,-7.35336 11.252629,-13.76154 19.98878,-13.76154 8.53992,0 17.348515,6.19411 19.578469,13.2399 1.101769,3.69975 4.881866,2.36146 3.654637,-1.2986 C 54.666973,13.406373 45.012416,6.9625926 34.20969,6.9625926 Z">

       <animate dur="3s" values="#000000; #4e86b1; #000000" keyTimes="0; 0.5; 1" attributeName="fill" repeatCount="indefinite"/>
  </path>
  
  
</svg>
