<?xml version="1.0" encoding="UTF-8" standalone="no"?>
<svg
   xmlns:dc="http://purl.org/dc/elements/1.1/"
   xmlns:cc="http://creativecommons.org/ns#"
   xmlns:rdf="http://www.w3.org/1999/02/22-rdf-syntax-ns#"
   xmlns:svg="http://www.w3.org/2000/svg"
   xmlns="http://www.w3.org/2000/svg"
   xmlns:sodipodi="http://sodipodi.sourceforge.net/DTD/sodipodi-0.dtd"
   xmlns:inkscape="http://www.inkscape.org/namespaces/inkscape"
   height="1333"
   viewBox="0 0 1000 2666"
   width="1000"
   version="1.1"
   id="svg955"
   sodipodi:docname="animate22.4.svg"
   inkscape:version="0.92.2 (5c3e80d, 2017-08-06)">
  <metadata
     id="metadata961">
    <rdf:RDF>
      <cc:Work
         rdf:about="">
        <dc:format>image/svg+xml</dc:format>
        <dc:type
           rdf:resource="http://purl.org/dc/dcmitype/StillImage" />
        <dc:title></dc:title>
      </cc:Work>
    </rdf:RDF>
  </metadata>
  <defs
     id="defs959" />
  <sodipodi:namedview
     pagecolor="#ffffff"
     bordercolor="#666666"
     borderopacity="1"
     objecttolerance="10"
     gridtolerance="10"
     guidetolerance="10"
     inkscape:pageopacity="0"
     inkscape:pageshadow="2"
     inkscape:window-width="1366"
     inkscape:window-height="745"
     id="namedview957"
     showgrid="false"
     inkscape:zoom="0.30554653"
     inkscape:cx="341.51292"
     inkscape:cy="786.55093"
     inkscape:window-x="-8"
     inkscape:window-y="-8"
     inkscape:window-maximized="1"
     inkscape:current-layer="svg955" />
  <g
     id="Layer_1"
     transform="translate(-32,884)">
    <line
       stroke-miterlimit="10"
       x1="9"
       y1="217"
       x2="81"
       y2="172"
       id="line889"
       style="opacity:0.65;fill:none;stroke:#000000;stroke-width:1;stroke-miterlimit:10">
      <animate
         attributeName="y1"
         from="315"
         to="315"
         begin="0s"
         dur="4s"
         values="217;244;244;208;208;217;217"
         keySplines="0.1 0.8 0.2 1; 0.1 0.8 0.2 1; 0.1 0.8 0.2 1; 0.1 0.8 0.2 1; 0.1 0.8 0.2 1; 0.1 0.8 0.2 1"
         keyTimes="0;0.22;0.33;0.55;0.66;0.88;1"
         calcMode="spline"
         repeatCount="indefinite" />
      <animate
         attributeName="y2"
         from="172"
         to="172"
         begin="0s"
         dur="4s"
         values="172;235;235;217;217;172;172"
         keySplines="0.1 0.8 0.2 1; 0.1 0.8 0.2 1; 0.1 0.8 0.2 1; 0.1 0.8 0.2 1; 0.1 0.8 0.2 1; 0.1 0.8 0.2 1"
         keyTimes="0;0.22;0.33;0.55;0.66;0.88;1"
         calcMode="spline"
         repeatCount="indefinite" />
    </line>
    <line
       stroke-miterlimit="10"
       x1="81"
       y1="172"
       x2="153"
       y2="181"
       id="line891"
       style="opacity:0.65;fill:none;stroke:#000000;stroke-width:1;stroke-miterlimit:10">
      <animate
         attributeName="y1"
         from="172"
         to="172"
         begin="0s"
         dur="4s"
         values="172;235;235;217;217;172;172"
         keySplines="0.1 0.8 0.2 1; 0.1 0.8 0.2 1; 0.1 0.8 0.2 1; 0.1 0.8 0.2 1; 0.1 0.8 0.2 1; 0.1 0.8 0.2 1"
         keyTimes="0;0.22;0.33;0.55;0.66;0.88;1"
         calcMode="spline"
         repeatCount="indefinite" />
      <animate
         attributeName="y2"
         from="153"
         to="153"
         begin="0s"
         dur="4s"
         values="153;99;99;144;144;153;153"
         keySplines="0.1 0.8 0.2 1; 0.1 0.8 0.2 1; 0.1 0.8 0.2 1; 0.1 0.8 0.2 1; 0.1 0.8 0.2 1; 0.1 0.8 0.2 1"
         keyTimes="0;0.22;0.33;0.55;0.66;0.88;1"
         calcMode="spline"
         repeatCount="indefinite" />
    </line>
    <line
       stroke-miterlimit="10"
       x1="153"
       y1="181"
       x2="225"
       y2="145"
       id="line893"
       style="opacity:0.65;fill:none;stroke:#000000;stroke-width:1;stroke-miterlimit:10">
      <animate
         attributeName="y1"
         from="153"
         to="153"
         begin="0s"
         dur="4s"
         values="153;99;99;144;144;153;153"
         keySplines="0.1 0.8 0.2 1; 0.1 0.8 0.2 1; 0.1 0.8 0.2 1; 0.1 0.8 0.2 1; 0.1 0.8 0.2 1; 0.1 0.8 0.2 1"
         keyTimes="0;0.22;0.33;0.55;0.66;0.88;1"
         calcMode="spline"
         repeatCount="indefinite" />
      <animate
         attributeName="y2"
         from="145"
         to="145"
         begin="0s"
         dur="4s"
         values="145;63;63;108;108;145;145"
         keySplines="0.1 0.8 0.2 1; 0.1 0.8 0.2 1; 0.1 0.8 0.2 1; 0.1 0.8 0.2 1; 0.1 0.8 0.2 1; 0.1 0.8 0.2 1"
         keyTimes="0;0.22;0.33;0.55;0.66;0.88;1"
         calcMode="spline"
         repeatCount="indefinite" />
    </line>
    <line
       stroke-miterlimit="10"
       x1="225"
       y1="145"
       x2="297"
       y2="55"
       id="line895"
       style="opacity:0.65;fill:none;stroke:#000000;stroke-width:1;stroke-miterlimit:10">
      <animate
         attributeName="y1"
         from="145"
         to="145"
         begin="0s"
         dur="4s"
         values="145;63;63;108;108;145;145"
         keySplines="0.1 0.8 0.2 1; 0.1 0.8 0.2 1; 0.1 0.8 0.2 1; 0.1 0.8 0.2 1; 0.1 0.8 0.2 1; 0.1 0.8 0.2 1"
         keyTimes="0;0.22;0.33;0.55;0.66;0.88;1"
         calcMode="spline"
         repeatCount="indefinite" />
      <animate
         attributeName="y2"
         from="55"
         to="55"
         begin="0s"
         dur="4s"
         values="55;45;45;63;63;55;55"
         keySplines="0.1 0.8 0.2 1; 0.1 0.8 0.2 1; 0.1 0.8 0.2 1; 0.1 0.8 0.2 1; 0.1 0.8 0.2 1; 0.1 0.8 0.2 1"
         keyTimes="0;0.22;0.33;0.55;0.66;0.88;1"
         calcMode="spline"
         repeatCount="indefinite" />
    </line>
    <line
       stroke-miterlimit="10"
       x1="297"
       y1="55"
       x2="369"
       y2="72"
       id="line897"
       style="opacity:0.65;fill:none;stroke:#000000;stroke-width:1;stroke-miterlimit:10">
      <animate
         attributeName="y1"
         from="55"
         to="55"
         begin="0s"
         dur="4s"
         values="55;45;45;63;63;55;55"
         keySplines="0.1 0.8 0.2 1; 0.1 0.8 0.2 1; 0.1 0.8 0.2 1; 0.1 0.8 0.2 1; 0.1 0.8 0.2 1; 0.1 0.8 0.2 1"
         keyTimes="0;0.22;0.33;0.55;0.66;0.88;1"
         calcMode="spline"
         repeatCount="indefinite" />
      <animate
         attributeName="y2"
         from="72"
         to="72"
         begin="0s"
         dur="4s"
         values="72;63;63;99;99;72;72"
         keySplines="0.1 0.8 0.2 1; 0.1 0.8 0.2 1; 0.1 0.8 0.2 1; 0.1 0.8 0.2 1; 0.1 0.8 0.2 1; 0.1 0.8 0.2 1"
         keyTimes="0;0.22;0.33;0.55;0.66;0.88;1"
         calcMode="spline"
         repeatCount="indefinite" />
    </line>
    <line
       stroke-miterlimit="10"
       x1="369"
       y1="72"
       x2="441"
       y2="45"
       id="line899"
       style="opacity:0.65;fill:none;stroke:#000000;stroke-width:1;stroke-miterlimit:10">
      <animate
         attributeName="y1"
         from="72"
         to="72"
         begin="0s"
         dur="4s"
         values="72;63;63;99;99;72;72"
         keySplines="0.1 0.8 0.2 1; 0.1 0.8 0.2 1; 0.1 0.8 0.2 1; 0.1 0.8 0.2 1; 0.1 0.8 0.2 1; 0.1 0.8 0.2 1"
         keyTimes="0;0.22;0.33;0.55;0.66;0.88;1"
         calcMode="spline"
         repeatCount="indefinite" />
      <animate
         attributeName="y2"
         from="45"
         to="45"
         begin="0s"
         dur="4s"
         values="45;36;36;54;54;45;45"
         keySplines="0.1 0.8 0.2 1; 0.1 0.8 0.2 1; 0.1 0.8 0.2 1; 0.1 0.8 0.2 1; 0.1 0.8 0.2 1; 0.1 0.8 0.2 1"
         keyTimes="0;0.22;0.33;0.55;0.66;0.88;1"
         calcMode="spline"
         repeatCount="indefinite" />
    </line>
    <circle
       stroke-miterlimit="10"
       cx="9"
       cy="217"
       r="6"
       id="circle901"
       style="fill:#ffffff;stroke:#000000;stroke-width:3;stroke-miterlimit:10">
      <animate
         attributeName="cy"
         from="217"
         to="217"
         begin="0s"
         dur="4s"
         values="217;244;244;208;208;217;217"
         keySplines="0.1 0.8 0.2 1; 0.1 0.8 0.2 1; 0.1 0.8 0.2 1; 0.1 0.8 0.2 1; 0.1 0.8 0.2 1; 0.1 0.8 0.2 1"
         keyTimes="0;0.22;0.33;0.55;0.66;0.88;1"
         calcMode="spline"
         repeatCount="indefinite" />
    </circle>
    <circle
       stroke-miterlimit="10"
       cx="81"
       cy="172"
       r="6"
       id="circle903"
       style="fill:#ffffff;stroke:#000000;stroke-width:3;stroke-miterlimit:10">
      <animate
         attributeName="cy"
         from="172"
         to="172"
         begin="0s"
         dur="4s"
         values="172;235;235;217;217;172;172"
         keySplines="0.1 0.8 0.2 1; 0.1 0.8 0.2 1; 0.1 0.8 0.2 1; 0.1 0.8 0.2 1; 0.1 0.8 0.2 1; 0.1 0.8 0.2 1"
         keyTimes="0;0.22;0.33;0.55;0.66;0.88;1"
         calcMode="spline"
         repeatCount="indefinite" />
    </circle>
    <circle
       stroke-miterlimit="10"
       cx="153"
       cy="181"
       r="6"
       id="circle905"
       style="fill:#ffffff;stroke:#000000;stroke-width:3;stroke-miterlimit:10">
      <animate
         attributeName="cy"
         from="153"
         to="153"
         begin="0s"
         dur="4s"
         values="153;99;99;144;144;153;153"
         keySplines="0.1 0.8 0.2 1; 0.1 0.8 0.2 1; 0.1 0.8 0.2 1; 0.1 0.8 0.2 1; 0.1 0.8 0.2 1; 0.1 0.8 0.2 1"
         keyTimes="0;0.22;0.33;0.55;0.66;0.88;1"
         calcMode="spline"
         repeatCount="indefinite" />
    </circle>
    <circle
       stroke-miterlimit="10"
       cx="225"
       cy="145"
       r="6"
       id="circle907"
       style="fill:#ffffff;stroke:#000000;stroke-width:3;stroke-miterlimit:10">
      <animate
         attributeName="cy"
         from="145"
         to="145"
         begin="0s"
         dur="4s"
         values="145;63;63;108;108;145;145"
         keySplines="0.1 0.8 0.2 1; 0.1 0.8 0.2 1; 0.1 0.8 0.2 1; 0.1 0.8 0.2 1; 0.1 0.8 0.2 1; 0.1 0.8 0.2 1"
         keyTimes="0;0.22;0.33;0.55;0.66;0.88;1"
         calcMode="spline"
         repeatCount="indefinite" />
    </circle>
    <circle
       stroke-miterlimit="10"
       cx="297"
       cy="55"
       r="6"
       id="circle909"
       style="fill:#ffffff;stroke:#000000;stroke-width:3;stroke-miterlimit:10">
      <animate
         attributeName="cy"
         from="55"
         to="55"
         begin="0s"
         dur="4s"
         values="55;45;45;63;63;55;55"
         keySplines="0.1 0.8 0.2 1; 0.1 0.8 0.2 1; 0.1 0.8 0.2 1; 0.1 0.8 0.2 1; 0.1 0.8 0.2 1; 0.1 0.8 0.2 1"
         keyTimes="0;0.22;0.33;0.55;0.66;0.88;1"
         calcMode="spline"
         repeatCount="indefinite" />
    </circle>
    <circle
       stroke-miterlimit="10"
       cx="369"
       cy="72"
       r="6"
       id="circle911"
       style="fill:#ffffff;stroke:#000000;stroke-width:3;stroke-miterlimit:10">
      <animate
         attributeName="cy"
         from="72"
         to="72"
         begin="0s"
         dur="4s"
         values="72;63;63;99;99;72;72"
         keySplines="0.1 0.8 0.2 1; 0.1 0.8 0.2 1; 0.1 0.8 0.2 1; 0.1 0.8 0.2 1; 0.1 0.8 0.2 1; 0.1 0.8 0.2 1"
         keyTimes="0;0.22;0.33;0.55;0.66;0.88;1"
         calcMode="spline"
         repeatCount="indefinite" />
    </circle>
    <circle
       stroke-miterlimit="10"
       cx="441"
       cy="45"
       r="6"
       id="circle913"
       style="fill:#ffffff;stroke:#000000;stroke-width:3;stroke-miterlimit:10">
      <animate
         attributeName="cy"
         from="45"
         to="45"
         begin="0s"
         dur="4s"
         values="45;36;36;54;54;45;45"
         keySplines="0.1 0.8 0.2 1; 0.1 0.8 0.2 1; 0.1 0.8 0.2 1; 0.1 0.8 0.2 1; 0.1 0.8 0.2 1; 0.1 0.8 0.2 1"
         keyTimes="0;0.22;0.33;0.55;0.66;0.88;1"
         calcMode="spline"
         repeatCount="indefinite" />
    </circle>
  </g>
  <g
     id="Layer_2"
     transform="translate(-32,884)">
    <line
       stroke-miterlimit="10"
       x1="9"
       y1="181"
       x2="81"
       y2="208"
       id="line916"
       style="opacity:0.65;fill:none;stroke:#000000;stroke-width:1;stroke-miterlimit:10">
      <animate
         attributeName="y1"
         from="181"
         to="181"
         begin="0s"
         dur="4s"
         values="181;171;171;190;190;181;181"
         keySplines="0.1 0.8 0.2 1; 0.1 0.8 0.2 1; 0.1 0.8 0.2 1; 0.1 0.8 0.2 1; 0.1 0.8 0.2 1; 0.1 0.8 0.2 1"
         keyTimes="0;0.22;0.33;0.55;0.66;0.88;1"
         calcMode="spline"
         repeatCount="indefinite" />
      <animate
         attributeName="y2"
         from="208"
         to="208"
         begin="0s"
         dur="4s"
         values="208;162;162;190;190;208;208"
         keySplines="0.1 0.8 0.2 1; 0.1 0.8 0.2 1; 0.1 0.8 0.2 1; 0.1 0.8 0.2 1; 0.1 0.8 0.2 1; 0.1 0.8 0.2 1"
         keyTimes="0;0.22;0.33;0.55;0.66;0.88;1"
         calcMode="spline"
         repeatCount="indefinite" />
    </line>
    <line
       stroke-miterlimit="10"
       x1="81"
       y1="208"
       x2="153"
       y2="127"
       id="line918"
       style="opacity:0.65;fill:none;stroke:#000000;stroke-width:1;stroke-miterlimit:10">
      <animate
         attributeName="y1"
         from="208"
         to="208"
         begin="0s"
         dur="4s"
         values="208;162;162;190;190;208;208"
         keySplines="0.1 0.8 0.2 1; 0.1 0.8 0.2 1; 0.1 0.8 0.2 1; 0.1 0.8 0.2 1; 0.1 0.8 0.2 1; 0.1 0.8 0.2 1"
         keyTimes="0;0.22;0.33;0.55;0.66;0.88;1"
         calcMode="spline"
         repeatCount="indefinite" />
      <animate
         attributeName="y2"
         from="127"
         to="127"
         begin="0s"
         dur="4s"
         values="127;117;117;90;90;127;127"
         keySplines="0.1 0.8 0.2 1; 0.1 0.8 0.2 1; 0.1 0.8 0.2 1; 0.1 0.8 0.2 1; 0.1 0.8 0.2 1; 0.1 0.8 0.2 1"
         keyTimes="0;0.22;0.33;0.55;0.66;0.88;1"
         calcMode="spline"
         repeatCount="indefinite" />
    </line>
    <line
       stroke-miterlimit="10"
       x1="153"
       y1="127"
       x2="225"
       y2="82"
       id="line920"
       style="opacity:0.65;fill:none;stroke:#000000;stroke-width:1;stroke-miterlimit:10">
      <animate
         attributeName="y1"
         from="127"
         to="127"
         begin="0s"
         dur="4s"
         values="127;117;117;90;90;127;127"
         keySplines="0.1 0.8 0.2 1; 0.1 0.8 0.2 1; 0.1 0.8 0.2 1; 0.1 0.8 0.2 1; 0.1 0.8 0.2 1; 0.1 0.8 0.2 1"
         keyTimes="0;0.22;0.33;0.55;0.66;0.88;1"
         calcMode="spline"
         repeatCount="indefinite" />
      <animate
         attributeName="y2"
         from="82"
         to="82"
         begin="0s"
         dur="4s"
         values="82;127;127;145;145;82;82"
         keySplines="0.1 0.8 0.2 1; 0.1 0.8 0.2 1; 0.1 0.8 0.2 1; 0.1 0.8 0.2 1; 0.1 0.8 0.2 1; 0.1 0.8 0.2 1"
         keyTimes="0;0.22;0.33;0.55;0.66;0.88;1"
         calcMode="spline"
         repeatCount="indefinite" />
    </line>
    <line
       stroke-miterlimit="10"
       x1="225"
       y1="82"
       x2="297"
       y2="118"
       id="line922"
       style="opacity:0.65;fill:none;stroke:#000000;stroke-width:1;stroke-miterlimit:10">
      <animate
         attributeName="y1"
         from="82"
         to="82"
         begin="0s"
         dur="4s"
         values="82;127;127;145;145;82;82"
         keySplines="0.1 0.8 0.2 1; 0.1 0.8 0.2 1; 0.1 0.8 0.2 1; 0.1 0.8 0.2 1; 0.1 0.8 0.2 1; 0.1 0.8 0.2 1"
         keyTimes="0;0.22;0.33;0.55;0.66;0.88;1"
         calcMode="spline"
         repeatCount="indefinite" />
      <animate
         attributeName="y2"
         from="118"
         to="118"
         begin="0s"
         dur="4s"
         values="118;108;108;127;127;118;118"
         keySplines="0.1 0.8 0.2 1; 0.1 0.8 0.2 1; 0.1 0.8 0.2 1; 0.1 0.8 0.2 1; 0.1 0.8 0.2 1; 0.1 0.8 0.2 1"
         keyTimes="0;0.22;0.33;0.55;0.66;0.88;1"
         calcMode="spline"
         repeatCount="indefinite" />
    </line>
    <line
       stroke-miterlimit="10"
       x1="297"
       y1="118"
       x2="369"
       y2="45"
       id="line924"
       style="opacity:0.65;fill:none;stroke:#000000;stroke-width:1;stroke-miterlimit:10">
      <animate
         attributeName="y1"
         from="118"
         to="118"
         begin="0s"
         dur="4s"
         values="118;108;108;127;127;118;118"
         keySplines="0.1 0.8 0.2 1; 0.1 0.8 0.2 1; 0.1 0.8 0.2 1; 0.1 0.8 0.2 1; 0.1 0.8 0.2 1; 0.1 0.8 0.2 1"
         keyTimes="0;0.22;0.33;0.55;0.66;0.88;1"
         calcMode="spline"
         repeatCount="indefinite" />
      <animate
         attributeName="y2"
         from="45"
         to="45"
         begin="0s"
         dur="4s"
         values="45;27;27;36;36;45;45"
         keySplines="0.1 0.8 0.2 1; 0.1 0.8 0.2 1; 0.1 0.8 0.2 1; 0.1 0.8 0.2 1; 0.1 0.8 0.2 1; 0.1 0.8 0.2 1"
         keyTimes="0;0.22;0.33;0.55;0.66;0.88;1"
         calcMode="spline"
         repeatCount="indefinite" />
    </line>
    <line
       stroke-miterlimit="10"
       x1="369"
       y1="45"
       x2="441"
       y2="36"
       id="line926"
       style="opacity:0.65;fill:none;stroke:#000000;stroke-width:1;stroke-miterlimit:10">
      <animate
         attributeName="y1"
         from="45"
         to="45"
         begin="0s"
         dur="4s"
         values="45;27;27;36;36;45;45"
         keySplines="0.1 0.8 0.2 1; 0.1 0.8 0.2 1; 0.1 0.8 0.2 1; 0.1 0.8 0.2 1; 0.1 0.8 0.2 1; 0.1 0.8 0.2 1"
         keyTimes="0;0.22;0.33;0.55;0.66;0.88;1"
         calcMode="spline"
         repeatCount="indefinite" />
      <animate
         attributeName="y2"
         from="36"
         to="36"
         begin="0s"
         dur="4s"
         values="36;12;12;18;18;36;36"
         keySplines="0.1 0.8 0.2 1; 0.1 0.8 0.2 1; 0.1 0.8 0.2 1; 0.1 0.8 0.2 1; 0.1 0.8 0.2 1; 0.1 0.8 0.2 1"
         keyTimes="0;0.22;0.33;0.55;0.66;0.88;1"
         calcMode="spline"
         repeatCount="indefinite" />
    </line>
    <circle
       stroke-miterlimit="10"
       cx="9"
       cy="181"
       r="6"
       id="circle928"
       style="fill:#ffffff;stroke:#000000;stroke-width:3;stroke-miterlimit:10">
      <animate
         attributeName="cy"
         from="181"
         to="181"
         begin="0s"
         dur="4s"
         values="181;171;171;190;190;181;181"
         keySplines="0.1 0.8 0.2 1; 0.1 0.8 0.2 1; 0.1 0.8 0.2 1; 0.1 0.8 0.2 1; 0.1 0.8 0.2 1; 0.1 0.8 0.2 1"
         keyTimes="0;0.22;0.33;0.55;0.66;0.88;1"
         calcMode="spline"
         repeatCount="indefinite" />
    </circle>
    <circle
       stroke-miterlimit="10"
       cx="81"
       cy="208"
       r="6"
       id="circle930"
       style="fill:#ffffff;stroke:#000000;stroke-width:3;stroke-miterlimit:10">
      <animate
         attributeName="cy"
         from="208"
         to="208"
         begin="0s"
         dur="4s"
         values="208;162;162;190;190;208;208"
         keySplines="0.1 0.8 0.2 1; 0.1 0.8 0.2 1; 0.1 0.8 0.2 1; 0.1 0.8 0.2 1; 0.1 0.8 0.2 1; 0.1 0.8 0.2 1"
         keyTimes="0;0.22;0.33;0.55;0.66;0.88;1"
         calcMode="spline"
         repeatCount="indefinite" />
    </circle>
    <circle
       stroke-miterlimit="10"
       cx="153"
       cy="127"
       r="6"
       id="circle932"
       style="fill:#ffffff;stroke:#000000;stroke-width:3;stroke-miterlimit:10">
      <animate
         attributeName="cy"
         from="127"
         to="127"
         begin="0s"
         dur="4s"
         values="127;117;117;90;90;127;127"
         keySplines="0.1 0.8 0.2 1; 0.1 0.8 0.2 1; 0.1 0.8 0.2 1; 0.1 0.8 0.2 1; 0.1 0.8 0.2 1; 0.1 0.8 0.2 1"
         keyTimes="0;0.22;0.33;0.55;0.66;0.88;1"
         calcMode="spline"
         repeatCount="indefinite" />
    </circle>
    <circle
       stroke-miterlimit="10"
       cx="225"
       cy="82"
       r="6"
       id="circle934"
       style="fill:#ffffff;stroke:#000000;stroke-width:3;stroke-miterlimit:10">
      <animate
         attributeName="cy"
         from="82"
         to="82"
         begin="0s"
         dur="4s"
         values="82;127;127;145;145;82;82"
         keySplines="0.1 0.8 0.2 1; 0.1 0.8 0.2 1; 0.1 0.8 0.2 1; 0.1 0.8 0.2 1; 0.1 0.8 0.2 1; 0.1 0.8 0.2 1"
         keyTimes="0;0.22;0.33;0.55;0.66;0.88;1"
         calcMode="spline"
         repeatCount="indefinite" />
    </circle>
    <circle
       stroke-miterlimit="10"
       cx="297"
       cy="118"
       r="6"
       id="circle936"
       style="fill:#ffffff;stroke:#000000;stroke-width:3;stroke-miterlimit:10">
      <animate
         attributeName="cy"
         from="118"
         to="118"
         begin="0s"
         dur="4s"
         values="118;108;108;127;127;118;118"
         keySplines="0.1 0.8 0.2 1; 0.1 0.8 0.2 1; 0.1 0.8 0.2 1; 0.1 0.8 0.2 1; 0.1 0.8 0.2 1; 0.1 0.8 0.2 1"
         keyTimes="0;0.22;0.33;0.55;0.66;0.88;1"
         calcMode="spline"
         repeatCount="indefinite" />
    </circle>
    <circle
       stroke-miterlimit="10"
       cx="369"
       cy="45"
       r="6"
       id="circle938"
       style="fill:#ffffff;stroke:#000000;stroke-width:3;stroke-miterlimit:10">
      <animate
         attributeName="cy"
         from="45"
         to="45"
         begin="0s"
         dur="4s"
         values="45;27;27;36;36;45;45"
         keySplines="0.1 0.8 0.2 1; 0.1 0.8 0.2 1; 0.1 0.8 0.2 1; 0.1 0.8 0.2 1; 0.1 0.8 0.2 1; 0.1 0.8 0.2 1"
         keyTimes="0;0.22;0.33;0.55;0.66;0.88;1"
         calcMode="spline"
         repeatCount="indefinite" />
    </circle>
    <circle
       stroke-miterlimit="10"
       cx="441"
       cy="36"
       r="6"
       id="circle940"
       style="fill:#ffffff;stroke:#000000;stroke-width:3;stroke-miterlimit:10">
      <animate
         attributeName="cy"
         from="36"
         to="36"
         begin="0s"
         dur="4s"
         values="36;12;12;18;18;36;36"
         keySplines="0.1 0.8 0.2 1; 0.1 0.8 0.2 1; 0.1 0.8 0.2 1; 0.1 0.8 0.2 1; 0.1 0.8 0.2 1; 0.1 0.8 0.2 1"
         keyTimes="0;0.22;0.33;0.55;0.66;0.88;1"
         calcMode="spline"
         repeatCount="indefinite" />
    </circle>
  </g>
  <path
     d="m 9.737,1155.731 h -45.043 q -1.205,0 -2.11,0.904 -0.828,0.829 -0.828,2.034 v 36.155 q 0,1.205 0.829,2.109 0.904,0.828 2.109,0.828 H 9.737 v 6.101 h -45.043 q -3.766,0 -6.403,-2.636 -2.636,-2.636 -2.636,-6.402 v -36.155 q 0,-3.766 2.636,-6.402 2.637,-2.637 6.403,-2.637 H 9.737 Z m 16.741,-6.101 h 36.155 q 3.766,0 6.402,2.637 2.636,2.636 2.636,6.402 v 36.155 q 0,3.766 -2.636,6.402 -2.636,2.636 -6.402,2.636 H 26.478 q -3.766,0 -6.402,-2.636 -2.637,-2.636 -2.637,-6.402 v -36.155 q 0,-3.766 2.637,-6.402 2.636,-2.637 6.402,-2.637 z m 0,48.131 h 36.155 q 1.205,0 2.033,-0.828 0.904,-0.904 0.904,-2.11 v -36.154 q 0,-1.205 -0.904,-2.034 -0.828,-0.904 -2.033,-0.904 H 26.478 q -1.205,0 -2.109,0.904 -0.828,0.829 -0.828,2.034 v 36.155 q 0,1.205 0.828,2.109 0.904,0.828 2.11,0.828 z m 107.72,-39.092 v 2.184 h -6.1 v -2.184 q 0,-1.205 -0.905,-2.034 -0.828,-0.904 -2.033,-0.904 H 89.005 q -1.205,0 -2.11,0.904 -0.828,0.829 -0.828,2.034 v 36.155 q 0,1.205 0.829,2.109 0.904,0.828 2.109,0.828 h 36.155 q 1.205,0 2.033,-0.828 0.904,-0.904 0.904,-2.11 v -13.407 H 114.69 v -6.176 h 19.508 v 19.584 q 0,3.766 -2.636,6.402 -2.636,2.636 -6.402,2.636 H 89.005 q -3.766,0 -6.402,-2.636 -2.637,-2.636 -2.637,-6.402 v -36.155 q 0,-3.766 2.637,-6.402 2.636,-2.637 6.402,-2.637 h 36.155 q 3.766,0 6.402,2.637 2.636,2.636 2.636,6.402 z m 56.422,38.264 v -47.303 h 6.101 v 54.232 h -8.36 l -39.77,-47.302 v 47.302 h -6.101 v -54.232 h 8.36 z m 14.615,6.929 v -54.232 h 6.101 v 54.232 z m 13.837,-54.232 h 54.232 v 6.101 h -24.028 v 48.131 h -6.1 v -48.13 h -24.104 z m 60.014,54.232 v -54.232 h 6.101 v 54.232 z m 49.917,-5.95 27.718,-48.282 h 7.156 l -31.334,54.232 h -7.08 l -31.41,-54.232 h 7.156 z m 91.886,-48.282 v 6.101 h -43.386 v 17.927 h 34.874 v 6.177 h -34.874 v 17.926 h 43.386 v 6.101 h -49.487 v -54.232 z m 82.636,9.114 v 15.893 q 0,3.766 -2.636,6.403 -2.636,2.636 -6.402,2.636 H 486.2 l 17.023,20.186 h -8.06 l -16.947,-20.186 h -19.885 q -0.678,0 -2.938,-0.301 v 20.487 h -6.1 v -54.156 h 45.193 q 3.766,0 6.402,2.636 2.636,2.636 2.636,6.402 z m -45.193,18.756 h 36.155 q 1.205,0 2.033,-0.829 0.829,-0.829 0.829,-2.034 v -15.893 q 0,-1.205 -0.829,-2.033 -0.828,-0.904 -2.033,-0.904 h -36.155 q -1.205,0 -2.11,0.904 -0.828,0.828 -0.828,2.033 v 15.893 q 0,1.205 0.829,2.034 0.904,0.829 2.109,0.829 z m 62.308,-27.87 h 36.154 q 3.767,0 6.403,2.637 2.636,2.636 2.636,6.402 v 45.193 h -6.1 v -19.81 h -42.03 v 19.81 H 511.6 v -45.193 q 0,-3.766 2.636,-6.402 2.637,-2.637 6.403,-2.637 z m -2.938,28.321 h 42.03 v -19.282 q 0,-1.205 -0.904,-2.034 -0.828,-0.904 -2.034,-0.904 H 520.64 q -1.205,0 -2.11,0.904 -0.828,0.829 -0.828,2.034 z m 56.864,-28.321 h 45.193 q 3.766,0 6.403,2.637 2.636,2.636 2.636,6.402 v 36.155 q 0,3.766 -2.636,6.402 -2.637,2.636 -6.403,2.636 h -45.193 z m 48.13,45.194 v -36.155 q 0,-1.205 -0.903,-2.034 -0.829,-0.904 -2.034,-0.904 h -36.154 q -1.206,0 -2.11,0.904 -0.828,0.829 -0.828,2.034 v 36.155 q 0,1.205 0.828,2.109 0.904,0.828 2.11,0.828 h 36.154 q 1.205,0 2.034,-0.828 0.904,-0.904 0.904,-2.11 z m 14.612,9.038 v -54.232 h 6.101 v 54.232 z m 25.437,-54.232 h 36.154 q 3.766,0 6.403,2.637 2.636,2.636 2.636,6.402 v 36.155 q 0,3.766 -2.636,6.402 -2.637,2.636 -6.403,2.636 h -36.154 q -3.767,0 -6.403,-2.636 -2.636,-2.636 -2.636,-6.402 v -36.155 q 0,-3.766 2.636,-6.402 2.636,-2.637 6.403,-2.637 z m 0,48.131 h 36.154 q 1.205,0 2.034,-0.828 0.904,-0.904 0.904,-2.11 v -36.154 q 0,-1.205 -0.904,-2.034 -0.829,-0.904 -2.034,-0.904 h -36.154 q -1.206,0 -2.11,0.904 -0.828,0.829 -0.828,2.034 v 36.155 q 0,1.205 0.829,2.109 0.903,0.828 2.109,0.828 z m 82.825,-48.131 h 36.154 q 3.766,0 6.403,2.637 2.636,2.636 2.636,6.402 v 36.155 q 0,3.766 -2.636,6.402 -2.637,2.636 -6.403,2.636 H 745.57 q -3.767,0 -6.403,-2.636 -2.636,-2.636 -2.636,-6.402 v -36.155 q 0,-3.766 2.636,-6.402 2.636,-2.637 6.403,-2.637 z m 0,48.131 h 36.154 q 1.205,0 2.034,-0.828 0.904,-0.904 0.904,-2.11 v -36.154 q 0,-1.205 -0.904,-2.034 -0.829,-0.904 -2.034,-0.904 H 745.57 q -1.206,0 -2.11,0.904 -0.828,0.829 -0.828,2.034 v 36.155 q 0,1.205 0.829,2.109 0.903,0.828 2.109,0.828 z m 53.488,-48.055 h 45.193 q 3.766,0 6.402,2.636 2.637,2.636 2.637,6.402 v 15.893 q 0,3.766 -2.637,6.403 -2.636,2.636 -6.402,2.636 h -36.155 q -0.677,0 -2.937,-0.301 v 20.487 h -6.101 z m 48.13,24.931 v -15.893 q 0,-1.205 -0.903,-2.033 -0.829,-0.904 -2.034,-0.904 h -36.155 q -1.205,0 -2.109,0.904 -0.828,0.828 -0.828,2.033 v 15.893 q 0,1.205 0.828,2.034 0.904,0.829 2.11,0.829 h 36.154 q 1.205,0 2.034,-0.829 0.904,-0.829 0.904,-2.034 z m 8.739,-25.007 h 54.232 v 6.101 h -24.028 v 48.131 h -6.1 v -48.13 h -24.104 z m 60.014,54.232 v -54.232 h 6.101 v 54.232 z m 70.63,-48.131 h -45.043 q -1.205,0 -2.109,0.904 -0.828,0.829 -0.828,2.034 v 36.155 q 0,1.205 0.828,2.109 0.904,0.828 2.11,0.828 h 45.042 v 6.101 h -45.043 q -3.766,0 -6.402,-2.636 -2.636,-2.636 -2.636,-6.402 v -36.155 q 0,-3.766 2.636,-6.402 2.636,-2.637 6.402,-2.637 h 45.043 z m 61.709,2.938 v 2.109 h -6.101 v -2.11 q 0,-1.204 -0.904,-2.033 -0.829,-0.904 -2.034,-0.904 h -36.154 q -1.205,0 -2.11,0.904 -0.828,0.829 -0.828,2.034 v 12.127 q 0,1.205 0.829,2.034 0.904,0.828 2.109,0.828 h 36.154 q 3.766,0 6.403,2.636 2.636,2.637 2.636,6.403 v 12.127 q 0,3.766 -2.636,6.402 -2.637,2.636 -6.403,2.636 h -36.154 q -3.766,0 -6.403,-2.636 -2.636,-2.636 -2.636,-6.402 v -2.11 h 6.101 v 2.11 q 0,1.205 0.829,2.109 0.904,0.828 2.109,0.828 h 36.154 q 1.205,0 2.034,-0.828 0.904,-0.904 0.904,-2.11 v -12.126 q 0,-1.205 -0.904,-2.034 -0.829,-0.828 -2.034,-0.828 h -36.154 q -3.766,0 -6.403,-2.637 -2.636,-2.636 -2.636,-6.402 v -12.127 q 0,-3.766 2.636,-6.402 2.637,-2.637 6.403,-2.637 h 36.154 q 3.766,0 6.403,2.637 2.636,2.636 2.636,6.402 z"
     id="path943"
     inkscape:connector-curvature="0">
    <animate
       dur="5s"
       values="#000000; #d7d7d7; #d7d7d7; #000000"
       keyTimes="0; 0.5; 0.7; 1"
       attributeName="fill"
       repeatCount="indefinite" />
  </path>
  <path
     d="m -22.869771,1246.1317 12.26,-14.598 h 4.5520001 v 29.524 h -3.322 v -25.752 l -13.4900001,16.033 -13.491,-16.033 v 25.752 h -3.321 v -29.524 h 4.551 z m 26.2320001,-14.599 H 23.045229 q 2.05,0 3.485,1.436 1.435,1.435 1.435,3.485 v 24.604 h -3.321 v -10.785 H 1.7622291 v 10.785 h -3.322 v -24.604 q 0,-2.05 1.43600002,-3.485 1.43499998,-1.435 3.48499998,-1.435 z m -1.6,15.419 H 24.644229 v -10.498 q 0,-0.656 -0.492,-1.107 -0.451,-0.492 -1.107,-0.492 H 3.3622291 q -0.656,0 -1.148,0.492 -0.451,0.451 -0.451,1.107 z m 60.3169999,-12.097 h -24.521 q -0.656,0 -1.148,0.492 -0.451,0.451 -0.451,1.107 v 19.683 q 0,0.656 0.45,1.148 0.493,0.451 1.149,0.451 h 24.521 v 3.322 h -24.521 q -2.05,0 -3.486,-1.436 -1.435,-1.435 -1.435,-3.485 v -19.683 q 0,-2.05 1.435,-3.485 1.436,-1.435 3.486,-1.435 h 24.521 z m 31.216,-3.322 h 3.362 v 29.525 h -3.362 v -13.081 h -23.578 v 13.08 h -3.322 v -29.523 h 3.322 v 13.08 h 23.578 z m 8.019001,29.525 v -29.524 h 3.321 v 29.524 z m 35.211,-3.773 v -25.751 h 3.322 v 29.524 h -4.552 l -21.65,-25.752 v 25.752 h -3.323 v -29.524 h 4.551 z m 34.937,-25.752 v 3.322 h -23.618 v 9.76 h 18.985 v 3.362 h -18.985 v 9.76 h 23.619 v 3.32 h -26.941 v -29.523 z m 33.67,26.285 15.09,-26.284 h 3.896 l -17.058,29.524 h -3.855 l -17.099,-29.524 h 3.896 z m 23.042,3.24 v -29.524 h 3.321 v 29.524 z m 38.328,-24.604 v 1.149 h -3.322 v -1.149 q 0,-0.656 -0.492,-1.107 -0.451,-0.492 -1.107,-0.492 h -19.683 q -0.656,0 -1.148,0.492 -0.45,0.451 -0.45,1.107 v 6.602 q 0,0.656 0.45,1.107 0.492,0.451 1.148,0.451 h 19.683 q 2.05,0 3.485,1.436 1.435,1.435 1.435,3.485 v 6.602 q 0,2.05 -1.435,3.485 -1.435,1.436 -3.485,1.436 h -19.683 q -2.05,0 -3.485,-1.436 -1.435,-1.435 -1.435,-3.485 v -1.148 h 3.321 v 1.148 q 0,0.656 0.451,1.148 0.492,0.451 1.148,0.451 h 19.683 q 0.656,0 1.107,-0.45 0.492,-0.493 0.492,-1.149 v -6.602 q 0,-0.656 -0.492,-1.107 -0.451,-0.451 -1.107,-0.451 h -19.683 q -2.05,0 -3.485,-1.435 -1.435,-1.435 -1.435,-3.486 v -6.602 q 0,-2.05 1.435,-3.485 1.435,-1.435 3.485,-1.435 h 19.683 q 2.05,0 3.485,1.435 1.435,1.435 1.435,3.485 z m 4.439,24.604 v -29.524 h 3.321 v 29.524 z m 13.847,-29.525 h 19.683 q 2.05,0 3.485,1.436 1.436,1.435 1.436,3.485 v 19.683 q 0,2.05 -1.436,3.485 -1.435,1.436 -3.485,1.436 h -19.683 q -2.05,0 -3.485,-1.436 -1.435,-1.435 -1.435,-3.485 v -19.683 q 0,-2.05 1.435,-3.485 1.435,-1.435 3.485,-1.435 z m 0,26.203 h 19.683 q 0.656,0 1.107,-0.45 0.492,-0.493 0.492,-1.149 v -19.683 q 0,-0.656 -0.492,-1.107 -0.451,-0.492 -1.107,-0.492 h -19.683 q -0.656,0 -1.148,0.492 -0.45,0.451 -0.45,1.107 v 19.683 q 0,0.656 0.45,1.148 0.492,0.451 1.148,0.451 z m 55.322,-0.451 v -25.751 h 3.321 v 29.524 h -4.552 l -21.65,-25.752 v 25.752 h -3.322 v -29.524 h 4.552 z"
     id="path945"
     inkscape:connector-curvature="0">
    <animate
       dur="4s"
       values="#000000; #d7d7d7; #d7d7d7; #000000"
       keyTimes="0; 0.5; 0.7; 1"
       attributeName="fill"
       repeatCount="indefinite" />
  </path>
  <path
     d="M 8.693,1331.31 H 58.18 v 6.1 H 14.794 v 17.927 h 34.874 v 6.176 H 14.794 v 24.028 h -6.1 z m 63.17,0 h 36.154 q 3.766,0 6.403,2.635 2.636,2.637 2.636,6.403 v 36.154 q 0,3.767 -2.636,6.403 -2.637,2.636 -6.403,2.636 H 71.863 q -3.766,0 -6.403,-2.636 -2.636,-2.636 -2.636,-6.403 v -36.154 q 0,-3.766 2.636,-6.403 2.637,-2.636 6.403,-2.636 z m 0,48.13 h 36.154 q 1.205,0 2.034,-0.829 0.904,-0.903 0.904,-2.109 v -36.154 q 0,-1.205 -0.904,-2.034 -0.829,-0.904 -2.034,-0.904 H 71.863 q -1.206,0 -2.11,0.904 -0.828,0.829 -0.828,2.034 v 36.154 q 0,1.206 0.829,2.11 0.903,0.828 2.109,0.828 z m 107.72,-39.092 v 2.184 h -6.101 v -2.184 q 0,-1.205 -0.904,-2.034 -0.829,-0.904 -2.034,-0.904 H 134.39 q -1.205,0 -2.109,0.904 -0.828,0.829 -0.828,2.034 v 36.154 q 0,1.206 0.828,2.11 0.904,0.828 2.11,0.828 h 36.154 q 1.205,0 2.034,-0.829 0.904,-0.903 0.904,-2.109 v -13.407 h -13.408 v -6.176 h 19.509 v 19.583 q 0,3.767 -2.637,6.403 -2.636,2.636 -6.402,2.636 H 134.39 q -3.766,0 -6.402,-2.636 -2.636,-2.636 -2.636,-6.403 v -36.154 q 0,-3.766 2.636,-6.403 2.636,-2.636 6.402,-2.636 h 36.155 q 3.766,0 6.402,2.636 2.637,2.637 2.637,6.403 z m 4.525,37.209 38.113,-46.248 v 7.834 l -38.113,46.398 z m 92.682,-46.247 v 6.1 h -43.385 v 17.927 h 34.874 v 6.176 h -34.874 v 17.927 h 43.386 v 6.101 h -49.487 v -54.232 z m 8.183,0 h 45.193 q 3.766,0 6.402,2.635 2.637,2.637 2.637,6.403 v 36.154 q 0,3.767 -2.637,6.403 -2.636,2.636 -6.402,2.636 h -45.193 z m 48.13,45.192 v -36.154 q 0,-1.205 -0.903,-2.034 -0.829,-0.904 -2.034,-0.904 H 294.01 q -1.205,0 -2.109,0.904 -0.828,0.829 -0.828,2.034 v 36.154 q 0,1.206 0.828,2.11 0.904,0.828 2.11,0.828 h 36.154 q 1.205,0 2.034,-0.829 0.904,-0.903 0.904,-2.109 z m 68.768,-36.154 v 2.184 h -6.1 v -2.184 q 0,-1.205 -0.904,-2.034 -0.829,-0.904 -2.034,-0.904 h -36.155 q -1.205,0 -2.109,0.904 -0.828,0.829 -0.828,2.034 v 36.154 q 0,1.206 0.828,2.11 0.904,0.828 2.11,0.828 h 36.154 q 1.205,0 2.034,-0.829 0.903,-0.903 0.903,-2.109 v -13.407 h -13.407 v -6.176 h 19.508 v 19.583 q 0,3.767 -2.636,6.403 -2.636,2.636 -6.402,2.636 h -36.155 q -3.766,0 -6.402,-2.636 -2.636,-2.636 -2.636,-6.403 v -36.154 q 0,-3.766 2.636,-6.403 2.636,-2.636 6.402,-2.636 h 36.155 q 3.766,0 6.402,2.636 2.636,2.637 2.636,6.403 z m 57.929,-9.038 v 6.1 h -43.385 v 17.927 h 34.874 v 6.176 h -34.874 v 17.927 H 459.8 v 6.101 h -49.487 v -54.232 z m 82.561,6.1 H 497.32 q -1.205,0 -2.11,0.904 -0.828,0.829 -0.828,2.034 v 36.154 q 0,1.206 0.829,2.11 0.904,0.828 2.109,0.828 h 45.042 v 6.101 H 497.32 q -3.766,0 -6.403,-2.636 -2.636,-2.636 -2.636,-6.403 v -36.154 q 0,-3.766 2.636,-6.403 2.637,-2.636 6.403,-2.636 h 45.042 z m 16.742,-6.1 h 36.155 q 3.766,0 6.402,2.635 2.636,2.637 2.636,6.403 v 36.154 q 0,3.767 -2.636,6.403 -2.636,2.636 -6.402,2.636 h -36.155 q -3.766,0 -6.402,-2.636 -2.637,-2.636 -2.637,-6.403 v -36.154 q 0,-3.766 2.637,-6.403 2.636,-2.636 6.402,-2.636 z m 0,48.13 h 36.155 q 1.205,0 2.033,-0.829 0.904,-0.903 0.904,-2.109 v -36.154 q 0,-1.205 -0.904,-2.034 -0.828,-0.904 -2.033,-0.904 h -36.155 q -1.205,0 -2.109,0.904 -0.829,0.829 -0.829,2.034 v 36.154 q 0,1.206 0.829,2.11 0.904,0.828 2.109,0.828 z m 84.37,-21.316 22.522,-26.815 h 8.36 v 54.232 h -6.1 v -47.302 l -24.782,29.45 -24.78,-29.45 v 47.302 h -6.102 v -54.232 h 8.36 z m 38.997,-26.74 h 45.193 q 3.767,0 6.403,2.637 2.636,2.636 2.636,6.402 v 15.893 q 0,3.766 -2.636,6.402 -2.636,2.637 -6.403,2.637 H 691.51 q -0.678,0 -2.938,-0.302 v 20.488 h -6.1 z m 48.131,24.932 v -15.893 q 0,-1.205 -0.904,-2.034 -0.828,-0.903 -2.034,-0.903 H 691.51 q -1.205,0 -2.11,0.903 -0.828,0.829 -0.828,2.034 v 15.893 q 0,1.205 0.829,2.034 0.904,0.828 2.109,0.828 h 36.154 q 1.206,0 2.034,-0.828 0.904,-0.829 0.904,-2.034 z m 59.43,20.186 v -45.193 h 6.102 v 45.193 q 0,3.767 -2.637,6.403 -2.636,2.636 -6.402,2.636 h -36.155 q -3.766,0 -6.402,-2.636 -2.636,-2.636 -2.636,-6.403 v -45.193 h 6.1 v 45.193 q 0,1.206 0.83,2.11 0.903,0.828 2.108,0.828 h 36.155 q 1.205,0 2.034,-0.829 0.903,-0.903 0.903,-2.109 z m 11.685,-45.192 h 54.232 v 6.1 H 831.92 v 48.131 h -6.101 v -48.13 h -24.103 z m 60.014,54.231 v -54.232 h 6.101 v 54.232 z m 64.68,-6.93 v -47.302 h 6.1 v 54.232 h -8.36 l -39.77,-47.302 v 47.302 h -6.102 v -54.232 h 8.361 z m 68.77,-38.263 v 2.184 h -6.1 v -2.184 q 0,-1.205 -0.904,-2.034 -0.829,-0.904 -2.034,-0.904 h -36.155 q -1.205,0 -2.109,0.904 -0.828,0.829 -0.828,2.034 v 36.154 q 0,1.206 0.828,2.11 0.904,0.828 2.11,0.828 h 36.154 q 1.205,0 2.034,-0.829 0.904,-0.903 0.904,-2.109 v -13.407 h -13.408 v -6.176 h 19.509 v 19.583 q 0,3.767 -2.636,6.403 -2.637,2.636 -6.403,2.636 h -36.155 q -3.766,0 -6.402,-2.636 -2.636,-2.636 -2.636,-6.403 v -36.154 q 0,-3.766 2.636,-6.403 2.636,-2.636 6.402,-2.636 h 36.155 q 3.766,0 6.403,2.636 2.636,2.637 2.636,6.403 z"
     id="path947"
     inkscape:connector-curvature="0"
     style="fill:#4e86b1">
    <animate
       dur="3s"
       values="#000000; #d7d7d7; #d7d7d7; #000000"
       keyTimes="0; 0.5; 0.7; 1"
       attributeName="fill"
       repeatCount="indefinite" />
  </path>
  <path
     d="m -30.384,1416.114 h 19.682 q 2.05,0 3.485,1.435 1.436,1.435 1.436,3.485 v 24.603 h -3.322 v -10.784 h -22.88 v 10.784 h -3.322 v -24.603 q 0,-2.05 1.435,-3.485 1.435,-1.435 3.486,-1.435 z m -1.6,15.418 h 22.881 v -10.498 q 0,-0.656 -0.492,-1.107 -0.45,-0.492 -1.107,-0.492 h -19.682 q -0.657,0 -1.149,0.492 -0.45,0.451 -0.45,1.107 z m 56.995,9.185 v -24.603 h 3.321 v 24.603 q 0,2.05 -1.435,3.485 -1.435,1.435 -3.485,1.435 H 3.729 q -2.05,0 -3.485,-1.435 -1.435,-1.435 -1.435,-3.485 v -24.603 H 2.13 v 24.603 q 0,0.656 0.451,1.148 0.492,0.451 1.148,0.451 h 19.683 q 0.656,0 1.107,-0.451 0.492,-0.492 0.492,-1.148 z m 6.361,-24.603 h 29.524 v 3.321 H 47.815 v 26.202 h -3.321 v -26.202 H 31.372 Z m 37.469,0 h 19.683 q 2.05,0 3.485,1.435 1.435,1.435 1.435,3.485 v 19.683 q 0,2.05 -1.435,3.485 -1.435,1.435 -3.485,1.435 H 68.84 q -2.05,0 -3.485,-1.435 -1.436,-1.435 -1.436,-3.485 v -19.683 q 0,-2.05 1.436,-3.485 1.435,-1.435 3.485,-1.435 z m 0,26.202 h 19.683 q 0.656,0 1.107,-0.451 0.492,-0.492 0.492,-1.148 v -19.683 q 0,-0.656 -0.492,-1.107 -0.451,-0.492 -1.107,-0.492 H 68.84 q -0.656,0 -1.148,0.492 -0.451,0.451 -0.451,1.107 v 19.683 q 0,0.656 0.45,1.148 0.493,0.451 1.149,0.451 z m 55.321,-0.451 v -25.751 h 3.322 v 29.523 h -4.552 l -21.65,-25.75 v 25.75 H 97.96 v -29.523 h 4.551 z m 12.754,-25.751 H 156.6 q 2.05,0 3.485,1.435 1.435,1.435 1.435,3.485 v 19.683 q 0,2.05 -1.435,3.485 -1.435,1.435 -3.485,1.435 h -19.683 q -2.05,0 -3.485,-1.435 -1.436,-1.435 -1.436,-3.485 v -19.683 q 0,-2.05 1.436,-3.485 1.435,-1.435 3.485,-1.435 z m 0,26.202 H 156.6 q 0.656,0 1.107,-0.451 0.492,-0.492 0.492,-1.148 v -19.683 q 0,-0.656 -0.492,-1.107 -0.451,-0.492 -1.107,-0.492 h -19.683 q -0.656,0 -1.148,0.492 -0.451,0.451 -0.451,1.107 v 19.683 q 0,0.656 0.45,1.148 0.493,0.451 1.15,0.451 z m 45.931,-11.604 12.26,-14.598 h 4.552 v 29.523 h -3.321 v -25.75 l -13.491,16.032 -13.49,-16.033 v 25.751 h -3.322 v -29.523 h 4.551 z m 26.068,-14.598 h 19.683 q 2.05,0 3.485,1.435 1.436,1.435 1.436,3.485 v 19.683 q 0,2.05 -1.436,3.485 -1.435,1.435 -3.485,1.435 h -19.683 q -2.05,0 -3.485,-1.435 -1.435,-1.435 -1.435,-3.485 v -19.683 q 0,-2.05 1.435,-3.485 1.435,-1.435 3.485,-1.435 z m 0,26.202 h 19.683 q 0.656,0 1.107,-0.451 0.492,-0.492 0.492,-1.148 v -19.683 q 0,-0.656 -0.492,-1.107 -0.451,-0.492 -1.107,-0.492 h -19.683 q -0.656,0 -1.148,0.492 -0.45,0.451 -0.45,1.107 v 19.683 q 0,0.656 0.45,1.148 0.492,0.451 1.148,0.451 z m 55.24,-1.599 v -24.603 h 3.321 v 24.603 q 0,2.05 -1.435,3.485 -1.435,1.435 -3.486,1.435 h -19.682 q -2.05,0 -3.486,-1.435 -1.435,-1.435 -1.435,-3.485 v -24.603 h 3.322 v 24.603 q 0,0.656 0.45,1.148 0.493,0.451 1.149,0.451 h 19.682 q 0.656,0 1.107,-0.451 0.493,-0.492 0.493,-1.148 z m 37.155,-19.683 v 1.149 h -3.321 v -1.149 q 0,-0.656 -0.492,-1.107 -0.451,-0.492 -1.107,-0.492 h -19.683 q -0.656,0 -1.148,0.492 -0.45,0.451 -0.45,1.107 v 6.602 q 0,0.656 0.45,1.107 0.492,0.451 1.148,0.451 h 19.683 q 2.05,0 3.485,1.436 1.435,1.435 1.435,3.485 v 6.602 q 0,2.05 -1.435,3.485 -1.435,1.435 -3.485,1.435 h -19.683 q -2.05,0 -3.485,-1.435 -1.435,-1.435 -1.435,-3.485 v -1.148 h 3.321 v 1.148 q 0,0.656 0.451,1.148 0.492,0.451 1.148,0.451 h 19.683 q 0.656,0 1.107,-0.451 0.492,-0.492 0.492,-1.148 v -6.602 q 0,-0.656 -0.492,-1.107 -0.451,-0.451 -1.107,-0.451 h -19.683 q -2.05,0 -3.485,-1.435 -1.435,-1.436 -1.435,-3.486 v -6.602 q 0,-2.05 1.435,-3.485 1.435,-1.435 3.485,-1.435 h 19.683 q 2.05,0 3.485,1.435 1.435,1.435 1.435,3.485 z m 20.534,-4.92 h 19.682 q 2.05,0 3.486,1.435 1.435,1.435 1.435,3.485 v 24.603 h -3.322 v -10.784 h -22.88 v 10.784 h -3.322 v -24.603 q 0,-2.05 1.435,-3.485 1.435,-1.435 3.486,-1.435 z m -1.6,15.418 h 22.881 v -10.498 q 0,-0.656 -0.492,-1.107 -0.45,-0.492 -1.107,-0.492 h -19.682 q -0.656,0 -1.148,0.492 -0.451,0.451 -0.451,1.107 z m 60.358,-10.457 v 8.652 q 0,2.05 -1.436,3.486 -1.435,1.435 -3.485,1.435 h -4.51 l 9.267,10.99 h -4.388 l -9.226,-10.99 h -10.825 q -0.37,0 -1.6,-0.164 v 11.153 h -3.321 v -29.482 h 24.603 q 2.05,0 3.485,1.435 1.436,1.435 1.436,3.485 z m -24.603,10.21 h 19.682 q 0.656,0 1.107,-0.45 0.451,-0.451 0.451,-1.108 v -8.652 q 0,-0.656 -0.45,-1.107 -0.452,-0.492 -1.108,-0.492 h -19.682 q -0.657,0 -1.149,0.492 -0.45,0.451 -0.45,1.107 v 8.652 q 0,0.657 0.45,1.108 0.492,0.45 1.149,0.45 z m 27.441,-15.171 h 29.524 v 3.321 h -13.081 v 26.202 h -3.321 v -26.202 H 383.44 Z m 32.671,29.523 v -29.523 h 3.322 v 29.523 z m 9.091,-29.523 h 26.94 v 3.321 h -23.618 v 9.76 h 18.985 v 3.362 h -18.985 v 13.08 h -3.322 z m 29.592,29.523 v -29.523 h 3.322 v 29.523 z m 38.451,-26.202 h -24.521 q -0.656,0 -1.148,0.492 -0.451,0.451 -0.451,1.107 v 19.683 q 0,0.656 0.45,1.148 0.493,0.451 1.149,0.451 h 24.52 v 3.321 h -24.52 q -2.05,0 -3.486,-1.435 -1.435,-1.435 -1.435,-3.485 v -19.683 q 0,-2.05 1.435,-3.485 1.435,-1.435 3.486,-1.435 h 24.52 z m 4.316,26.202 v -29.523 h 3.322 v 29.523 z m 14.012,-29.523 h 19.682 q 2.05,0 3.486,1.435 1.435,1.435 1.435,3.485 v 24.603 h -3.321 v -10.784 h -22.881 v 10.784 h -3.322 v -24.603 q 0,-2.05 1.435,-3.485 1.436,-1.435 3.486,-1.435 z m -1.6,15.418 h 22.882 v -10.498 q 0,-0.656 -0.493,-1.107 -0.45,-0.492 -1.107,-0.492 h -19.682 q -0.656,0 -1.148,0.492 -0.451,0.451 -0.451,1.107 z m 30.916,14.105 v -29.564 h 3.321 v 26.243 h 26.203 v 3.321 z m 69.249,-3.772 v -25.751 h 3.321 v 29.523 h -4.551 l -21.651,-25.75 v 25.75 h -3.321 v -29.523 h 4.551 z m 34.938,-25.751 v 3.321 h -23.62 v 9.76 h 18.986 v 3.362 h -18.985 v 9.76 h 23.619 v 3.32 h -26.94 v -29.523 z m 30.492,24.603 v -24.603 h 3.321 v 24.603 q 0,2.05 -1.435,3.485 -1.435,1.435 -3.485,1.435 h -19.683 q -2.05,0 -3.485,-1.435 -1.435,-1.435 -1.435,-3.485 v -24.603 h 3.321 v 24.603 q 0,0.656 0.451,1.148 0.492,0.451 1.148,0.451 h 19.683 q 0.656,0 1.107,-0.451 0.492,-0.492 0.492,-1.148 z m 37.32,-19.642 v 8.652 q 0,2.05 -1.435,3.486 -1.435,1.435 -3.486,1.435 h -4.51 l 9.267,10.99 h -4.388 l -9.226,-10.99 h -10.825 q -0.37,0 -1.6,-0.164 v 11.153 h -3.32 v -29.482 h 24.602 q 2.05,0 3.486,1.435 1.435,1.435 1.435,3.485 z m -24.603,10.21 h 19.682 q 0.656,0 1.107,-0.45 0.451,-0.451 0.451,-1.108 v -8.652 q 0,-0.656 -0.45,-1.107 -0.452,-0.492 -1.108,-0.492 h -19.682 q -0.656,0 -1.148,0.492 -0.451,0.451 -0.451,1.107 v 8.652 q 0,0.657 0.45,1.108 0.493,0.45 1.149,0.45 z m 33.92,-15.171 h 19.683 q 2.05,0 3.485,1.435 1.435,1.435 1.435,3.485 v 24.603 h -3.321 v -10.784 h -22.881 v 10.784 h -3.322 v -24.603 q 0,-2.05 1.436,-3.485 1.435,-1.435 3.485,-1.435 z m -1.6,15.418 h 22.882 v -10.498 q 0,-0.656 -0.492,-1.107 -0.451,-0.492 -1.107,-0.492 h -19.683 q -0.656,0 -1.148,0.492 -0.451,0.451 -0.451,1.107 z m 30.916,14.105 v -29.564 h 3.322 v 26.243 h 26.202 v 3.321 z m 69.249,-3.772 v -25.751 h 3.321 v 29.523 h -4.551 l -21.65,-25.75 v 25.75 h -3.322 v -29.523 h 4.551 z m 34.938,-25.751 v 3.321 h -23.62 v 9.76 h 18.986 v 3.362 H 832.09 v 9.76 h 23.619 v 3.32 h -26.94 v -29.523 z m 2.896,0 h 29.523 v 3.321 h -13.08 v 26.202 h -3.322 v -26.202 h -13.121 z m 73.799,0 h 3.609 l -10.743,29.523 h -2.912 l -9.185,-25.218 -9.185,25.218 h -2.87 l -10.744,-29.523 h 3.527 l 8.652,23.7 8.61,-23.7 h 4.02 l 8.651,23.7 z m 11.082,0 h 19.683 q 2.05,0 3.485,1.435 1.435,1.435 1.435,3.485 v 19.683 q 0,2.05 -1.435,3.485 -1.435,1.435 -3.485,1.435 h -19.683 q -2.05,0 -3.485,-1.435 -1.436,-1.435 -1.436,-3.485 v -19.683 q 0,-2.05 1.436,-3.485 1.435,-1.435 3.485,-1.435 z m 0,26.202 h 19.683 q 0.656,0 1.107,-0.451 0.492,-0.492 0.492,-1.148 v -19.683 q 0,-0.656 -0.492,-1.107 -0.451,-0.492 -1.107,-0.492 h -19.683 q -0.656,0 -1.148,0.492 -0.451,0.451 -0.451,1.107 v 19.683 q 0,0.656 0.45,1.148 0.493,0.451 1.15,0.451 z m 58.602,-21.241 v 8.652 q 0,2.05 -1.436,3.486 -1.435,1.435 -3.485,1.435 h -4.51 l 9.267,10.99 h -4.388 l -9.226,-10.99 h -10.825 q -0.37,0 -1.6,-0.164 v 11.153 h -3.321 v -29.482 h 24.603 q 2.05,0 3.485,1.435 1.436,1.435 1.436,3.485 z m -24.603,10.21 h 19.682 q 0.656,0 1.107,-0.45 0.451,-0.451 0.451,-1.108 v -8.652 q 0,-0.656 -0.45,-1.107 -0.452,-0.492 -1.108,-0.492 h -19.682 q -0.657,0 -1.149,0.492 -0.45,0.451 -0.45,1.107 v 8.652 q 0,0.657 0.45,1.108 0.492,0.45 1.149,0.45 z m 52.823,-15.171 h 4.265 l -12.343,14.762 12.384,14.761 h -4.306 l -10.99,-13.08 h -9.512 v 13.08 h -3.363 v -29.523 h 3.363 v 13.08 h 9.513 z"
     id="path949"
     inkscape:connector-curvature="0">
    <animate
       dur="4s"
       values="#000000; #d7d7d7; #d7d7d7; #000000"
       keyTimes="0; 0.5; 0.7; 1"
       attributeName="fill"
       repeatCount="indefinite" />
  </path>
  <path
     d="m -22.933,1519.818 h 6.629 l -19.735,54.232 h -5.348 l -16.872,-46.324 -16.872,46.324 h -5.273 l -19.734,-54.232 h 6.478 l 15.893,43.536 15.817,-43.536 h 7.382 l 15.893,43.536 z m 13.309,54.232 v -54.232 h 6.1 v 54.232 z m 70.705,-45.118 v 15.893 q 0,3.766 -2.636,6.402 -2.637,2.636 -6.403,2.636 H 43.757 L 60.78,1574.05 H 52.72 L 35.773,1553.863 H 15.888 q -0.678,0 -2.938,-0.301 v 20.488 h -6.1 v -54.157 h 45.193 q 3.766,0 6.403,2.636 2.636,2.637 2.636,6.403 z m -45.193,18.755 h 36.154 q 1.205,0 2.034,-0.829 0.829,-0.828 0.829,-2.033 v -15.893 q 0,-1.206 -0.829,-2.034 -0.829,-0.904 -2.034,-0.904 H 15.888 q -1.206,0 -2.11,0.904 -0.828,0.828 -0.828,2.034 v 15.893 q 0,1.205 0.829,2.033 0.903,0.829 2.109,0.829 z m 102.756,-27.869 v 6.1 H 75.258 v 17.927 h 34.874 v 6.177 H 75.258 v 17.927 h 43.386 v 6.1 H 69.157 v -54.231 z m 8.106,54.232 v -54.308 h 6.101 v 48.207 h 48.131 v 6.1 z m 108.26,-54.232 v 6.1 h -43.385 v 17.927 h 34.874 v 6.177 h -34.874 v 17.927 h 43.385 v 6.1 h -49.486 v -54.231 z m 61.887,9.038 v 2.11 h -6.101 v -2.11 q 0,-1.205 -0.904,-2.033 -0.828,-0.904 -2.034,-0.904 h -36.154 q -1.205,0 -2.11,0.904 -0.828,0.828 -0.828,2.033 v 12.127 q 0,1.205 0.829,2.034 0.904,0.828 2.109,0.828 h 36.154 q 3.767,0 6.403,2.637 2.636,2.636 2.636,6.402 v 12.127 q 0,3.766 -2.636,6.402 -2.636,2.637 -6.403,2.637 h -36.154 q -3.766,0 -6.403,-2.637 -2.636,-2.636 -2.636,-6.402 v -2.11 h 6.101 v 2.11 q 0,1.205 0.829,2.109 0.904,0.829 2.109,0.829 h 36.154 q 1.206,0 2.034,-0.83 0.904,-0.903 0.904,-2.108 v -12.127 q 0,-1.205 -0.904,-2.034 -0.828,-0.828 -2.034,-0.828 h -36.154 q -3.766,0 -6.403,-2.636 -2.636,-2.637 -2.636,-6.403 v -12.127 q 0,-3.766 2.636,-6.402 2.637,-2.636 6.403,-2.636 h 36.154 q 3.767,0 6.403,2.636 2.636,2.636 2.636,6.402 z m 61.935,0 v 2.11 h -6.101 v -2.11 q 0,-1.205 -0.904,-2.033 -0.829,-0.904 -2.034,-0.904 H 313.64 q -1.206,0 -2.11,0.904 -0.828,0.828 -0.828,2.033 v 12.127 q 0,1.205 0.829,2.034 0.903,0.828 2.109,0.828 h 36.154 q 3.766,0 6.403,2.637 2.636,2.636 2.636,6.402 v 12.127 q 0,3.766 -2.636,6.402 -2.637,2.637 -6.403,2.637 H 313.64 q -3.767,0 -6.403,-2.637 -2.636,-2.636 -2.636,-6.402 v -2.11 h 6.101 v 2.11 q 0,1.205 0.829,2.109 0.903,0.829 2.109,0.829 h 36.154 q 1.205,0 2.034,-0.83 0.904,-0.903 0.904,-2.108 v -12.127 q 0,-1.205 -0.904,-2.034 -0.829,-0.828 -2.034,-0.828 H 313.64 q -3.767,0 -6.403,-2.636 -2.636,-2.637 -2.636,-6.403 v -12.127 q 0,-3.766 2.636,-6.402 2.636,-2.636 6.403,-2.636 h 36.154 q 3.766,0 6.403,2.636 2.636,2.636 2.636,6.402 z m 59.41,17.776 22.522,-26.814 h 8.36 v 54.232 h -6.1 v -47.303 l -24.782,29.451 -24.78,-29.45 v 47.302 h -6.102 v -54.232 h 8.361 z m 88.634,-26.814 v 6.1 h -43.385 v 17.927 h 34.874 v 6.177 h -34.874 v 17.927 h 43.385 v 6.1 H 457.39 v -54.231 z m 61.887,9.038 v 2.11 h -6.101 v -2.11 q 0,-1.205 -0.904,-2.033 -0.828,-0.904 -2.034,-0.904 H 523.57 q -1.205,0 -2.11,0.904 -0.828,0.828 -0.828,2.033 v 12.127 q 0,1.205 0.829,2.034 0.904,0.828 2.109,0.828 h 36.154 q 3.767,0 6.403,2.637 2.636,2.636 2.636,6.402 v 12.127 q 0,3.766 -2.636,6.402 -2.636,2.637 -6.403,2.637 H 523.57 q -3.766,0 -6.403,-2.637 -2.636,-2.636 -2.636,-6.402 v -2.11 h 6.101 v 2.11 q 0,1.205 0.829,2.109 0.904,0.829 2.109,0.829 h 36.154 q 1.206,0 2.034,-0.83 0.904,-0.903 0.904,-2.108 v -12.127 q 0,-1.205 -0.904,-2.034 -0.828,-0.828 -2.034,-0.828 H 523.57 q -3.766,0 -6.403,-2.636 -2.636,-2.637 -2.636,-6.403 v -12.127 q 0,-3.766 2.636,-6.402 2.637,-2.636 6.403,-2.636 h 36.154 q 3.767,0 6.403,2.636 2.636,2.636 2.636,6.402 z m 57.567,-9.038 h 6.176 v 54.232 h -6.177 v -24.028 h -43.31 v 24.028 h -6.101 v -54.232 h 6.101 v 24.027 h 43.31 z m 83.234,47.302 v -47.302 h 6.1 v 54.232 h -8.36 l -39.77,-47.303 v 47.303 h -6.101 v -54.232 h 8.36 z m 64.176,-47.302 v 6.1 h -43.385 v 17.927 h 34.874 v 6.177 h -34.874 v 17.927 h 43.386 v 6.1 h -49.487 v -54.231 z m 5.32,0 h 54.232 v 6.1 h -24.028 v 48.132 h -6.1 v -48.131 H 779.06 Z m 135.563,0 h 6.628 l -19.735,54.232 h -5.347 l -16.873,-46.324 -16.872,46.324 h -5.272 l -19.735,-54.232 h 6.478 l 15.893,43.536 15.818,-43.536 h 7.381 l 15.893,43.536 z m 20.355,0 h 36.155 q 3.766,0 6.402,2.636 2.637,2.636 2.637,6.402 v 36.155 q 0,3.766 -2.637,6.402 -2.636,2.637 -6.402,2.637 h -36.155 q -3.766,0 -6.402,-2.637 -2.636,-2.636 -2.636,-6.402 v -36.155 q 0,-3.766 2.636,-6.402 2.636,-2.636 6.402,-2.636 z m 0,48.13 h 36.155 q 1.205,0 2.034,-0.828 0.904,-0.904 0.904,-2.11 v -36.154 q 0,-1.205 -0.904,-2.033 -0.829,-0.904 -2.034,-0.904 h -36.155 q -1.205,0 -2.109,0.904 -0.828,0.828 -0.828,2.033 v 36.155 q 0,1.205 0.828,2.109 0.904,0.829 2.11,0.829 z m 107.645,-39.016 v 15.893 q 0,3.766 -2.636,6.402 -2.636,2.636 -6.402,2.636 h -8.286 l 17.023,20.187 h -8.06 l -16.947,-20.187 H 997.43 q -0.678,0 -2.938,-0.301 v 20.488 h -6.1 v -54.157 h 45.193 q 3.766,0 6.402,2.636 2.636,2.637 2.636,6.403 z m -45.193,18.755 h 36.155 q 1.205,0 2.033,-0.829 0.829,-0.828 0.829,-2.033 v -15.893 q 0,-1.206 -0.829,-2.034 -0.828,-0.904 -2.033,-0.904 H 997.43 q -1.205,0 -2.11,0.904 -0.828,0.828 -0.828,2.034 v 15.893 q 0,1.205 0.829,2.033 0.904,0.829 2.109,0.829 z m 97.031,-27.869 h 7.834 l -22.672,27.116 22.747,27.116 h -7.909 l -20.186,-24.028 H 1056.8 v 24.028 h -6.176 v -54.232 h 6.176 v 24.027 h 17.475 z"
     id="path951"
     inkscape:connector-curvature="0"
     style="fill:#4e86b1">
    <animate
       dur="3s"
       values="#000000; #d7d7d7; #d7d7d7; #000000"
       keyTimes="0; 0.5; 0.7; 1"
       attributeName="fill"
       repeatCount="indefinite" />
  </path>
  <path
     d="m 430.657,1601.15 h 3.608 l -10.743,29.524 h -2.911 l -9.186,-25.218 -9.185,25.218 h -2.87 l -10.743,-29.524 h 3.526 l 8.652,23.701 8.611,-23.7 h 4.019 l 8.652,23.7 z m 7.245,29.524 v -29.565 h 3.321 v 26.244 h 26.203 v 3.321 z m 36.917,-29.524 H 494.5 q 2.05,0 3.486,1.436 1.435,1.435 1.435,3.485 v 24.603 H 496.1 v -10.784 h -22.88 v 10.784 h -3.322 v -24.603 q 0,-2.05 1.435,-3.485 1.436,-1.436 3.486,-1.436 z m -1.6,15.418 H 496.1 v -10.497 q 0,-0.656 -0.492,-1.107 -0.45,-0.492 -1.107,-0.492 H 474.82 q -0.656,0 -1.148,0.492 -0.451,0.451 -0.451,1.107 z m 57.077,10.334 v -25.752 h 3.322 v 29.524 h -4.552 l -21.65,-25.751 v 25.751 h -3.322 v -29.524 h 4.552 z m 60.217,-25.752 h 3.608 l -10.743,29.524 h -2.911 l -9.185,-25.218 -9.186,25.218 h -2.87 l -10.743,-29.524 h 3.526 l 8.652,23.701 8.611,-23.7 h 4.019 l 8.652,23.7 z m 7.245,29.524 v -29.524 h 3.322 v 29.524 z m 25.124,-13.819 v 3.363 H 606.89 v -3.363 z m 5.191,-15.705 h 26.94 v 3.322 h -23.62 v 9.76 h 18.986 v 3.362 h -18.985 v 13.08 h -3.321 z m 29.591,29.524 v -29.524 h 3.322 v 29.524 z"
     id="path953"
     inkscape:connector-curvature="0">
    <animate
       dur="4s"
       values="#000000; #d7d7d7; #d7d7d7; #000000"
       keyTimes="0; 0.5; 0.7; 1"
       attributeName="fill"
       repeatCount="indefinite" />
  </path>
  <g
     id="Layer_2-4"
     transform="translate(139.02555,854.49241)">
    <line
       stroke-miterlimit="10"
       x1="9"
       y1="181"
       x2="81"
       y2="208"
       id="line916-0"
       style="opacity:0.65;fill:none;stroke:#000000;stroke-width:1;stroke-miterlimit:10">
      <animate
         attributeName="y1"
         from="181"
         to="181"
         begin="0s"
         dur="4s"
         values="181;171;171;190;190;181;181"
         keySplines="0.1 0.8 0.2 1; 0.1 0.8 0.2 1; 0.1 0.8 0.2 1; 0.1 0.8 0.2 1; 0.1 0.8 0.2 1; 0.1 0.8 0.2 1"
         keyTimes="0;0.22;0.33;0.55;0.66;0.88;1"
         calcMode="spline"
         repeatCount="indefinite" />
      <animate
         attributeName="y2"
         from="208"
         to="208"
         begin="0s"
         dur="4s"
         values="208;162;162;190;190;208;208"
         keySplines="0.1 0.8 0.2 1; 0.1 0.8 0.2 1; 0.1 0.8 0.2 1; 0.1 0.8 0.2 1; 0.1 0.8 0.2 1; 0.1 0.8 0.2 1"
         keyTimes="0;0.22;0.33;0.55;0.66;0.88;1"
         calcMode="spline"
         repeatCount="indefinite" />
    </line>
    <line
       stroke-miterlimit="10"
       x1="81"
       y1="208"
       x2="153"
       y2="127"
       id="line918-3"
       style="opacity:0.65;fill:none;stroke:#000000;stroke-width:1;stroke-miterlimit:10">
      <animate
         attributeName="y1"
         from="208"
         to="208"
         begin="0s"
         dur="4s"
         values="208;162;162;190;190;208;208"
         keySplines="0.1 0.8 0.2 1; 0.1 0.8 0.2 1; 0.1 0.8 0.2 1; 0.1 0.8 0.2 1; 0.1 0.8 0.2 1; 0.1 0.8 0.2 1"
         keyTimes="0;0.22;0.33;0.55;0.66;0.88;1"
         calcMode="spline"
         repeatCount="indefinite" />
      <animate
         attributeName="y2"
         from="127"
         to="127"
         begin="0s"
         dur="4s"
         values="127;117;117;90;90;127;127"
         keySplines="0.1 0.8 0.2 1; 0.1 0.8 0.2 1; 0.1 0.8 0.2 1; 0.1 0.8 0.2 1; 0.1 0.8 0.2 1; 0.1 0.8 0.2 1"
         keyTimes="0;0.22;0.33;0.55;0.66;0.88;1"
         calcMode="spline"
         repeatCount="indefinite" />
    </line>
    <line
       stroke-miterlimit="10"
       x1="153"
       y1="127"
       x2="225"
       y2="82"
       id="line920-6"
       style="opacity:0.65;fill:none;stroke:#000000;stroke-width:1;stroke-miterlimit:10">
      <animate
         attributeName="y1"
         from="127"
         to="127"
         begin="0s"
         dur="4s"
         values="127;117;117;90;90;127;127"
         keySplines="0.1 0.8 0.2 1; 0.1 0.8 0.2 1; 0.1 0.8 0.2 1; 0.1 0.8 0.2 1; 0.1 0.8 0.2 1; 0.1 0.8 0.2 1"
         keyTimes="0;0.22;0.33;0.55;0.66;0.88;1"
         calcMode="spline"
         repeatCount="indefinite" />
      <animate
         attributeName="y2"
         from="82"
         to="82"
         begin="0s"
         dur="4s"
         values="82;127;127;145;145;82;82"
         keySplines="0.1 0.8 0.2 1; 0.1 0.8 0.2 1; 0.1 0.8 0.2 1; 0.1 0.8 0.2 1; 0.1 0.8 0.2 1; 0.1 0.8 0.2 1"
         keyTimes="0;0.22;0.33;0.55;0.66;0.88;1"
         calcMode="spline"
         repeatCount="indefinite" />
    </line>
    <line
       stroke-miterlimit="10"
       x1="225"
       y1="82"
       x2="297"
       y2="118"
       id="line922-2"
       style="opacity:0.65;fill:none;stroke:#000000;stroke-width:1;stroke-miterlimit:10">
      <animate
         attributeName="y1"
         from="82"
         to="82"
         begin="0s"
         dur="4s"
         values="82;127;127;145;145;82;82"
         keySplines="0.1 0.8 0.2 1; 0.1 0.8 0.2 1; 0.1 0.8 0.2 1; 0.1 0.8 0.2 1; 0.1 0.8 0.2 1; 0.1 0.8 0.2 1"
         keyTimes="0;0.22;0.33;0.55;0.66;0.88;1"
         calcMode="spline"
         repeatCount="indefinite" />
      <animate
         attributeName="y2"
         from="118"
         to="118"
         begin="0s"
         dur="4s"
         values="118;108;108;127;127;118;118"
         keySplines="0.1 0.8 0.2 1; 0.1 0.8 0.2 1; 0.1 0.8 0.2 1; 0.1 0.8 0.2 1; 0.1 0.8 0.2 1; 0.1 0.8 0.2 1"
         keyTimes="0;0.22;0.33;0.55;0.66;0.88;1"
         calcMode="spline"
         repeatCount="indefinite" />
    </line>
    <line
       stroke-miterlimit="10"
       x1="297"
       y1="118"
       x2="369"
       y2="45"
       id="line924-1"
       style="opacity:0.65;fill:none;stroke:#000000;stroke-width:1;stroke-miterlimit:10">
      <animate
         attributeName="y1"
         from="118"
         to="118"
         begin="0s"
         dur="4s"
         values="118;108;108;127;127;118;118"
         keySplines="0.1 0.8 0.2 1; 0.1 0.8 0.2 1; 0.1 0.8 0.2 1; 0.1 0.8 0.2 1; 0.1 0.8 0.2 1; 0.1 0.8 0.2 1"
         keyTimes="0;0.22;0.33;0.55;0.66;0.88;1"
         calcMode="spline"
         repeatCount="indefinite" />
      <animate
         attributeName="y2"
         from="45"
         to="45"
         begin="0s"
         dur="4s"
         values="45;27;27;36;36;45;45"
         keySplines="0.1 0.8 0.2 1; 0.1 0.8 0.2 1; 0.1 0.8 0.2 1; 0.1 0.8 0.2 1; 0.1 0.8 0.2 1; 0.1 0.8 0.2 1"
         keyTimes="0;0.22;0.33;0.55;0.66;0.88;1"
         calcMode="spline"
         repeatCount="indefinite" />
    </line>
    <line
       stroke-miterlimit="10"
       x1="369"
       y1="45"
       x2="441"
       y2="36"
       id="line926-7"
       style="opacity:0.65;fill:none;stroke:#000000;stroke-width:1;stroke-miterlimit:10">
      <animate
         attributeName="y1"
         from="45"
         to="45"
         begin="0s"
         dur="4s"
         values="45;27;27;36;36;45;45"
         keySplines="0.1 0.8 0.2 1; 0.1 0.8 0.2 1; 0.1 0.8 0.2 1; 0.1 0.8 0.2 1; 0.1 0.8 0.2 1; 0.1 0.8 0.2 1"
         keyTimes="0;0.22;0.33;0.55;0.66;0.88;1"
         calcMode="spline"
         repeatCount="indefinite" />
      <animate
         attributeName="y2"
         from="36"
         to="36"
         begin="0s"
         dur="4s"
         values="36;12;12;18;18;36;36"
         keySplines="0.1 0.8 0.2 1; 0.1 0.8 0.2 1; 0.1 0.8 0.2 1; 0.1 0.8 0.2 1; 0.1 0.8 0.2 1; 0.1 0.8 0.2 1"
         keyTimes="0;0.22;0.33;0.55;0.66;0.88;1"
         calcMode="spline"
         repeatCount="indefinite" />
    </line>
    <circle
       stroke-miterlimit="10"
       cx="9"
       cy="181"
       r="6"
       id="circle928-7"
       style="fill:#ffffff;stroke:#000000;stroke-width:3;stroke-miterlimit:10">
      <animate
         attributeName="cy"
         from="181"
         to="181"
         begin="0s"
         dur="4s"
         values="181;171;171;190;190;181;181"
         keySplines="0.1 0.8 0.2 1; 0.1 0.8 0.2 1; 0.1 0.8 0.2 1; 0.1 0.8 0.2 1; 0.1 0.8 0.2 1; 0.1 0.8 0.2 1"
         keyTimes="0;0.22;0.33;0.55;0.66;0.88;1"
         calcMode="spline"
         repeatCount="indefinite" />
    </circle>
    <circle
       stroke-miterlimit="10"
       cx="81"
       cy="208"
       r="6"
       id="circle930-6"
       style="fill:#ffffff;stroke:#000000;stroke-width:3;stroke-miterlimit:10">
      <animate
         attributeName="cy"
         from="208"
         to="208"
         begin="0s"
         dur="4s"
         values="208;162;162;190;190;208;208"
         keySplines="0.1 0.8 0.2 1; 0.1 0.8 0.2 1; 0.1 0.8 0.2 1; 0.1 0.8 0.2 1; 0.1 0.8 0.2 1; 0.1 0.8 0.2 1"
         keyTimes="0;0.22;0.33;0.55;0.66;0.88;1"
         calcMode="spline"
         repeatCount="indefinite" />
    </circle>
    <circle
       stroke-miterlimit="10"
       cx="153"
       cy="127"
       r="6"
       id="circle932-3"
       style="fill:#ffffff;stroke:#000000;stroke-width:3;stroke-miterlimit:10">
      <animate
         attributeName="cy"
         from="127"
         to="127"
         begin="0s"
         dur="4s"
         values="127;117;117;90;90;127;127"
         keySplines="0.1 0.8 0.2 1; 0.1 0.8 0.2 1; 0.1 0.8 0.2 1; 0.1 0.8 0.2 1; 0.1 0.8 0.2 1; 0.1 0.8 0.2 1"
         keyTimes="0;0.22;0.33;0.55;0.66;0.88;1"
         calcMode="spline"
         repeatCount="indefinite" />
    </circle>
    <circle
       stroke-miterlimit="10"
       cx="225"
       cy="82"
       r="6"
       id="circle934-2"
       style="fill:#ffffff;stroke:#000000;stroke-width:3;stroke-miterlimit:10">
      <animate
         attributeName="cy"
         from="82"
         to="82"
         begin="0s"
         dur="4s"
         values="82;127;127;145;145;82;82"
         keySplines="0.1 0.8 0.2 1; 0.1 0.8 0.2 1; 0.1 0.8 0.2 1; 0.1 0.8 0.2 1; 0.1 0.8 0.2 1; 0.1 0.8 0.2 1"
         keyTimes="0;0.22;0.33;0.55;0.66;0.88;1"
         calcMode="spline"
         repeatCount="indefinite" />
    </circle>
    <circle
       stroke-miterlimit="10"
       cx="297"
       cy="118"
       r="6"
       id="circle936-8"
       style="fill:#ffffff;stroke:#000000;stroke-width:3;stroke-miterlimit:10">
      <animate
         attributeName="cy"
         from="118"
         to="118"
         begin="0s"
         dur="4s"
         values="118;108;108;127;127;118;118"
         keySplines="0.1 0.8 0.2 1; 0.1 0.8 0.2 1; 0.1 0.8 0.2 1; 0.1 0.8 0.2 1; 0.1 0.8 0.2 1; 0.1 0.8 0.2 1"
         keyTimes="0;0.22;0.33;0.55;0.66;0.88;1"
         calcMode="spline"
         repeatCount="indefinite" />
    </circle>
    <circle
       stroke-miterlimit="10"
       cx="369"
       cy="45"
       r="6"
       id="circle938-1"
       style="fill:#ffffff;stroke:#000000;stroke-width:3;stroke-miterlimit:10">
      <animate
         attributeName="cy"
         from="45"
         to="45"
         begin="0s"
         dur="4s"
         values="45;27;27;36;36;45;45"
         keySplines="0.1 0.8 0.2 1; 0.1 0.8 0.2 1; 0.1 0.8 0.2 1; 0.1 0.8 0.2 1; 0.1 0.8 0.2 1; 0.1 0.8 0.2 1"
         keyTimes="0;0.22;0.33;0.55;0.66;0.88;1"
         calcMode="spline"
         repeatCount="indefinite" />
    </circle>
    <circle
       stroke-miterlimit="10"
       cx="441"
       cy="36"
       r="6"
       id="circle940-6"
       style="fill:#ffffff;stroke:#000000;stroke-width:3;stroke-miterlimit:10">
      <animate
         attributeName="cy"
         from="36"
         to="36"
         begin="0s"
         dur="4s"
         values="36;12;12;18;18;36;36"
         keySplines="0.1 0.8 0.2 1; 0.1 0.8 0.2 1; 0.1 0.8 0.2 1; 0.1 0.8 0.2 1; 0.1 0.8 0.2 1; 0.1 0.8 0.2 1"
         keyTimes="0;0.22;0.33;0.55;0.66;0.88;1"
         calcMode="spline"
         repeatCount="indefinite" />
    </circle>
  </g>
  <g
     aria-label="DATA VISUALIZATION"
     style="font-style:normal;font-variant:normal;font-weight:normal;font-stretch:normal;font-size:96px;line-height:1.25;font-family:Arial;-inkscape-font-specification:Arial;letter-spacing:0px;word-spacing:0px;fill:#000000;fill-opacity:1;stroke:none;stroke-width:2"
     id="text120"
     transform="translate(0,104)">
    <path
       d="m 533.22607,1124.8003 h 24.8 q 2.06666,0 3.51333,1.4467 1.44667,1.4466 1.44667,3.5133 v 19.84 q 0,2.0667 -1.44667,3.5133 -1.44667,1.4467 -3.51333,1.4467 h -24.8 z m 26.412,24.8 v -19.84 q 0,-0.6613 -0.496,-1.116 -0.45467,-0.496 -1.116,-0.496 h -19.84 q -0.66133,0 -1.15733,0.496 -0.45467,0.4547 -0.45467,1.116 v 19.84 q 0,0.6613 0.45467,1.1573 0.496,0.4547 1.15733,0.4547 h 19.84 q 0.66133,0 1.116,-0.4547 0.496,-0.496 0.496,-1.1573 z"
       style="font-style:normal;font-variant:normal;font-weight:normal;font-stretch:normal;font-size:41.33333206px;font-family:Orbitron;-inkscape-font-specification:Orbitron;stroke-width:2"
       id="path122"
       inkscape:connector-curvature="0" />
    <path
       d="m 572.65742,1124.8003 h 19.84 q 2.06667,0 3.51333,1.4467 1.44667,1.4466 1.44667,3.5133 v 24.8 h -3.348 v -10.8707 h -23.064 v 10.8707 h -3.348 v -24.8 q 0,-2.0667 1.44667,-3.5133 1.44666,-1.4467 3.51333,-1.4467 z m -1.612,15.5413 h 23.064 v -10.5813 q 0,-0.6613 -0.496,-1.116 -0.45467,-0.496 -1.116,-0.496 h -19.84 q -0.66133,0 -1.15733,0.496 -0.45467,0.4547 -0.45467,1.116 z"
       style="font-style:normal;font-variant:normal;font-weight:normal;font-stretch:normal;font-size:41.33333206px;font-family:Orbitron;-inkscape-font-specification:Orbitron;stroke-width:2"
       id="path124"
       inkscape:connector-curvature="0" />
    <path
       d="m 600.67884,1124.8003 h 29.76 v 3.348 h -13.18533 v 26.412 h -3.348 v -26.412 h -13.22667 z"
       style="font-style:normal;font-variant:normal;font-weight:normal;font-stretch:normal;font-size:41.33333206px;font-family:Orbitron;-inkscape-font-specification:Orbitron;stroke-width:2"
       id="path126"
       inkscape:connector-curvature="0" />
    <path
       d="m 638.61315,1124.8003 h 19.84 q 2.06666,0 3.51333,1.4467 1.44667,1.4466 1.44667,3.5133 v 24.8 h -3.348 v -10.8707 h -23.064 v 10.8707 h -3.348 v -24.8 q 0,-2.0667 1.44666,-3.5133 1.44667,-1.4467 3.51334,-1.4467 z m -1.612,15.5413 h 23.064 v -10.5813 q 0,-0.6613 -0.496,-1.116 -0.45467,-0.496 -1.116,-0.496 h -19.84 q -0.66134,0 -1.15734,0.496 -0.45466,0.4547 -0.45466,1.116 z"
       style="font-style:normal;font-variant:normal;font-weight:normal;font-stretch:normal;font-size:41.33333206px;font-family:Orbitron;-inkscape-font-specification:Orbitron;stroke-width:2"
       id="path128"
       inkscape:connector-curvature="0" />
    <path
       d="m 697.65458,1151.295 15.21067,-26.4947 h 3.92667 l -17.19467,29.76 h -3.88533 l -17.236,-29.76 h 3.92666 z"
       style="font-style:normal;font-variant:normal;font-weight:normal;font-stretch:normal;font-size:41.33333206px;font-family:Orbitron;-inkscape-font-specification:Orbitron;stroke-width:2"
       id="path130"
       inkscape:connector-curvature="0" />
    <path
       d="m 720.88003,1154.5603 v -29.76 h 3.348 v 29.76 z"
       style="font-style:normal;font-variant:normal;font-weight:normal;font-stretch:normal;font-size:41.33333206px;font-family:Orbitron;-inkscape-font-specification:Orbitron;stroke-width:2"
       id="path132"
       inkscape:connector-curvature="0" />
    <path
       d="m 759.51444,1129.7603 v 1.1573 h -3.348 v -1.1573 q 0,-0.6613 -0.496,-1.116 -0.45467,-0.496 -1.116,-0.496 h -19.84 q -0.66133,0 -1.15733,0.496 -0.45467,0.4547 -0.45467,1.116 v 6.6547 q 0,0.6613 0.45467,1.116 0.496,0.4546 1.15733,0.4546 h 19.84 q 2.06666,0 3.51333,1.4467 1.44667,1.4467 1.44667,3.5133 v 6.6547 q 0,2.0667 -1.44667,3.5133 -1.44667,1.4467 -3.51333,1.4467 h -19.84 q -2.06667,0 -3.51333,-1.4467 -1.44667,-1.4466 -1.44667,-3.5133 v -1.1573 h 3.348 v 1.1573 q 0,0.6613 0.45467,1.1573 0.496,0.4547 1.15733,0.4547 h 19.84 q 0.66133,0 1.116,-0.4547 0.496,-0.496 0.496,-1.1573 v -6.6547 q 0,-0.6613 -0.496,-1.116 -0.45467,-0.4546 -1.116,-0.4546 h -19.84 q -2.06667,0 -3.51333,-1.4467 -1.44667,-1.4467 -1.44667,-3.5133 v -6.6547 q 0,-2.0667 1.44667,-3.5133 1.44666,-1.4467 3.51333,-1.4467 h 19.84 q 2.06666,0 3.51333,1.4467 1.44667,1.4466 1.44667,3.5133 z"
       style="font-style:normal;font-variant:normal;font-weight:normal;font-stretch:normal;font-size:41.33333206px;font-family:Orbitron;-inkscape-font-specification:Orbitron;stroke-width:2"
       id="path134"
       inkscape:connector-curvature="0" />
    <path
       d="m 790.27741,1149.6003 v -24.8 h 3.348 v 24.8 q 0,2.0667 -1.44667,3.5133 -1.44667,1.4467 -3.51333,1.4467 h -19.84 q -2.06667,0 -3.51334,-1.4467 -1.44666,-1.4466 -1.44666,-3.5133 v -24.8 h 3.348 v 24.8 q 0,0.6613 0.45466,1.1573 0.496,0.4547 1.15734,0.4547 h 19.84 q 0.66133,0 1.116,-0.4547 0.496,-0.496 0.496,-1.1573 z"
       style="font-style:normal;font-variant:normal;font-weight:normal;font-stretch:normal;font-size:41.33333206px;font-family:Orbitron;-inkscape-font-specification:Orbitron;stroke-width:2"
       id="path136"
       inkscape:connector-curvature="0" />
    <path
       d="m 803.21991,1124.8003 h 19.84 q 2.06667,0 3.51334,1.4467 1.44666,1.4466 1.44666,3.5133 v 24.8 h -3.348 v -10.8707 h -23.064 v 10.8707 h -3.348 v -24.8 q 0,-2.0667 1.44667,-3.5133 1.44667,-1.4467 3.51333,-1.4467 z m -1.612,15.5413 h 23.064 v -10.5813 q 0,-0.6613 -0.496,-1.116 -0.45466,-0.496 -1.116,-0.496 h -19.84 q -0.66133,0 -1.15733,0.496 -0.45467,0.4547 -0.45467,1.116 z"
       style="font-style:normal;font-variant:normal;font-weight:normal;font-stretch:normal;font-size:41.33333206px;font-family:Orbitron;-inkscape-font-specification:Orbitron;stroke-width:2"
       id="path138"
       inkscape:connector-curvature="0" />
    <path
       d="m 832.77064,1154.5603 v -29.8013 h 3.348 v 26.4533 h 26.412 v 3.348 z"
       style="font-style:normal;font-variant:normal;font-weight:normal;font-stretch:normal;font-size:41.33333206px;font-family:Orbitron;-inkscape-font-specification:Orbitron;stroke-width:2"
       id="path140"
       inkscape:connector-curvature="0" />
    <path
       d="m 864.98158,1154.5603 v -29.76 h 3.348 v 29.76 z"
       style="font-style:normal;font-variant:normal;font-weight:normal;font-stretch:normal;font-size:41.33333206px;font-family:Orbitron;-inkscape-font-specification:Orbitron;stroke-width:2"
       id="path142"
       inkscape:connector-curvature="0" />
    <path
       d="m 873.85599,1128.1483 v -3.348 h 29.75999 v 4.588 l -25.95733,21.824 h 25.95733 v 3.348 h -29.75999 v -4.588 l 25.95733,-21.824 z"
       style="font-style:normal;font-variant:normal;font-weight:normal;font-stretch:normal;font-size:41.33333206px;font-family:Orbitron;-inkscape-font-specification:Orbitron;stroke-width:2"
       id="path144"
       inkscape:connector-curvature="0" />
    <path
       d="m 913.01157,1124.8003 h 19.84 q 2.06666,0 3.51333,1.4467 1.44667,1.4466 1.44667,3.5133 v 24.8 h -3.348 v -10.8707 h -23.064 v 10.8707 h -3.348 v -24.8 q 0,-2.0667 1.44667,-3.5133 1.44666,-1.4467 3.51333,-1.4467 z m -1.612,15.5413 h 23.064 v -10.5813 q 0,-0.6613 -0.496,-1.116 -0.45467,-0.496 -1.116,-0.496 h -19.84 q -0.66133,0 -1.15733,0.496 -0.45467,0.4547 -0.45467,1.116 z"
       style="font-style:normal;font-variant:normal;font-weight:normal;font-stretch:normal;font-size:41.33333206px;font-family:Orbitron;-inkscape-font-specification:Orbitron;stroke-width:2"
       id="path146"
       inkscape:connector-curvature="0" />
    <path
       d="m 941.033,1124.8003 h 29.76 v 3.348 h -13.18534 v 26.412 h -3.348 v -26.412 H 941.033 Z"
       style="font-style:normal;font-variant:normal;font-weight:normal;font-stretch:normal;font-size:41.33333206px;font-family:Orbitron;-inkscape-font-specification:Orbitron;stroke-width:2"
       id="path148"
       inkscape:connector-curvature="0" />
    <path
       d="m 973.96595,1154.5603 v -29.76 h 3.348 v 29.76 z"
       style="font-style:normal;font-variant:normal;font-weight:normal;font-stretch:normal;font-size:41.33333206px;font-family:Orbitron;-inkscape-font-specification:Orbitron;stroke-width:2"
       id="path150"
       inkscape:connector-curvature="0" />
    <path
       d="m 987.92436,1124.8003 h 19.84004 q 2.0666,0 3.5133,1.4467 1.4467,1.4466 1.4467,3.5133 v 19.84 q 0,2.0667 -1.4467,3.5133 -1.4467,1.4467 -3.5133,1.4467 h -19.84004 q -2.06667,0 -3.51333,-1.4467 -1.44667,-1.4466 -1.44667,-3.5133 v -19.84 q 0,-2.0667 1.44667,-3.5133 1.44666,-1.4467 3.51333,-1.4467 z m 0,26.412 h 19.84004 q 0.6613,0 1.116,-0.4547 0.496,-0.496 0.496,-1.1573 v -19.84 q 0,-0.6613 -0.496,-1.116 -0.4547,-0.496 -1.116,-0.496 h -19.84004 q -0.66133,0 -1.15733,0.496 -0.45467,0.4547 -0.45467,1.116 v 19.84 q 0,0.6613 0.45467,1.1573 0.496,0.4547 1.15733,0.4547 z"
       style="font-style:normal;font-variant:normal;font-weight:normal;font-stretch:normal;font-size:41.33333206px;font-family:Orbitron;-inkscape-font-specification:Orbitron;stroke-width:2"
       id="path152"
       inkscape:connector-curvature="0" />
    <path
       d="m 1043.6882,1150.7576 v -25.9573 h 3.348 v 29.76 h -4.588 l -21.824,-25.9573 v 25.9573 h -3.348 v -29.76 h 4.588 z"
       style="font-style:normal;font-variant:normal;font-weight:normal;font-stretch:normal;font-size:41.33333206px;font-family:Orbitron;-inkscape-font-specification:Orbitron;stroke-width:2"
       id="path154"
       inkscape:connector-curvature="0" />
  </g>
</svg>
