<svg xmlns="http://www.w3.org/2000/svg" viewBox="0 0 68 65">



<path d="m 34.417969,30.939453 c -0.979325,0.01445 -1.946091,0.576907 -2.486328,1.5625 L 21.080078,52.232422 c -0.586461,1.055804 -0.743717,2.592513 -0.695312,3.949219 0.02423,0.679102 0.09928,1.288407 0.320312,1.8125 0.110514,0.262046 0.257638,0.532935 0.578125,0.730468 0.320487,0.197534 0.814551,0.185847 1.128906,0.01953 l 11.873047,-6.3125 12.19336,6.201171 c 0.31635,0.159759 0.816002,0.160819 1.130859,-0.04883 0.314857,-0.209646 0.449005,-0.48374 0.548828,-0.748046 0.199646,-0.528614 0.252854,-1.136959 0.255859,-1.814454 0.006,-1.35434 -0.19312,-2.882628 -0.777343,-3.914062 l -10.689453,-19.667969 -0.0059,-0.0098 C 36.3807,31.458845 35.397293,30.925002 34.417969,30.939453 Z m 0.02344,1.5 c 0.443328,-0.0065 0.888998,0.20167 1.201172,0.742188 l 10.685547,19.658203 0.0039,0.0059 c 0.287997,0.507897 0.587136,2.017112 0.582031,3.167969 -0.0022,0.485723 -0.06862,0.84135 -0.132812,1.089844 l -12.511719,-6.363282 -0.345703,0.183594 -11.865234,6.308594 c -0.07472,-0.243322 -0.156225,-0.610107 -0.173828,-1.103516 -0.04095,-1.14764 0.222981,-2.658489 0.507812,-3.169922 v -0.002 L 33.246094,33.222656 c 0.303533,-0.553757 0.751984,-0.776661 1.195312,-0.783203 z"
 >
 
 <animate dur="3s" values="#000000; #4e86b1; #000000" keyTimes="0; 0.5; 1" attributeName="fill" repeatCount="indefinite"/>
  </path>




<path d="m 34.414062,19.859375 c -6.252057,0 -11.745222,4.241222 -13.46289,10.367187 a 0.75007488,0.75007488 0 1 0 1.443359,0.404297 c 1.542211,-5.500205 6.444892,-9.271484 12.019531,-9.271484 5.57464,0 10.477321,3.771279 12.019532,9.271484 a 0.75007488,0.75007488 0 1 0 1.443359,-0.404297 C 46.159284,24.100597 40.666119,19.859375 34.414062,19.859375 Z">

    <animate dur="2s" values="#4e86b1; #000000; #4e86b1" keyTimes="0; 0.5; 1" attributeName="fill" repeatCount="indefinite"/>
    </path>




<path  fill="#4e86b1" d="m 34.427734,7.2304688 c -10.388377,8e-7 -19.577256,7.1080392 -22.771484,17.5468752 a 0.750075,0.750075 0 1 0 1.433594,0.4375 c 3.014854,-9.852637 11.633252,-16.4843745 21.33789,-16.4843752 9.704639,-4e-7 18.323036,6.6317382 21.337891,16.4843752 a 0.750075,0.750075 0 1 0 1.433594,-0.4375 C 54.004989,14.338508 44.816112,7.2304683 34.427734,7.2304688 Z"
>

       <animate dur="3s" values="#000000; #4e86b1; #000000" keyTimes="0; 0.5; 1" attributeName="fill" repeatCount="indefinite"/>
  </path>
  
  
</svg>
