<svg xmlns="http://www.w3.org/2000/svg" width="45.616" height="51.639">


	
    
    	<path id="wifi2" fill="#000000" fill-opacity="0.5" d="M23.142 18.615c-.514.007-1.021.302-1.304.819L16.14 29.79c-.309.554-.39 1.362-.365 2.075.013.356.052.676.168.951.058.138.136.28.304.383a.645.645 0 0 0 .591.01h.001l6.232-3.313 6.4 3.253v.001a.644.644 0 0 0 .594-.025.754.754 0 0 0 .289-.394c.104-.278.132-.597.134-.953.003-.71-.102-1.511-.408-2.053L24.47 19.401l-.003-.005c-.294-.509-.81-.789-1.325-.782zm.011.787c.233-.004.12.221.283.504l-.304 1.192 5.046 9.596.077.367s.947-.082.944.522c0 .255.51-.685.51-.685l-6.7-3.203-6.587 3.412 1.213.492c-.022-.603.566-.074.715-.343v-.735l4.782-9.423 1.104-1.309c.16-.29-1.315-.383-1.083-.387z">
		<animate
        id="three"
        attributeName="fill-opacity"
        dur="500ms"
        values="0.5;1;0.5"
        calcMode="linear"
        begin="two.end+0.05s"/>
	</path>
    
    
    <path id="wifi3" fill="#4e86b1" fill-opacity="0.5" d="M33.535 35.115a.972.972 0 0 1-.257.659 13.915 13.915 0 0 1-10.237 4.508c-3.953 0-7.73-1.692-10.359-4.642a.977.977 0 0 1 1.458-1.3 11.933 11.933 0 0 0 8.901 3.99c3.336 0 6.543-1.413 8.797-3.875a.976.976 0 0 1 1.697.66zM33.532 17.7a.976.976 0 0 1-1.696.66 11.954 11.954 0 0 0-8.795-3.874 11.931 11.931 0 0 0-8.898 3.989.977.977 0 0 1-1.458-1.3 13.885 13.885 0 0 1 10.356-4.642 13.91 13.91 0 0 1 10.235 4.508.971.971 0 0 1 .256.66z">
		<animate
        id="four"
        attributeName="fill-opacity"
        dur="500ms"
        values="0.5;1;0.5"
        calcMode="linear"
        begin="two.end+0.05s"/>
	</path>
	
    
    
    <path id="wifi1" fill="#4e86b1" fill-opacity="0.5" d="M40.653 42.62c0 .25-.095.499-.285.69-4.685 4.696-10.92 7.282-17.553 7.282-6.7 0-12.978-2.63-17.676-7.405a.976.976 0 1 1 1.392-1.37c4.328 4.4 10.111 6.822 16.284 6.822a22.693 22.693 0 0 0 16.171-6.709.976.976 0 0 1 1.667.69zM40.653 9.454a.976.976 0 0 1-1.667.69 22.7 22.7 0 0 0-16.171-6.707c-6.173 0-11.956 2.423-16.284 6.822a.977.977 0 0 1-1.392-1.37c4.699-4.775 10.976-7.404 17.676-7.404 6.633 0 12.866 2.585 17.553 7.28.19.19.285.44.285.69z" fill="#4e86b1">
		<animate
        id="two"
        attributeName="fill-opacity"
        dur="600ms"
        values="0.5;1;0.5"
        calcMode="linear"
        begin="one.end+0.05s"/>
        
        
        <animate dur="3s" values="#000000; #4e86b1; #d7d7d7; #000000" keyTimes="0; 0.5; 0.7; 1" attributeName="fill" repeatCount="indefinite"/>
        
        
	</path>
	
    
    
    
    
    
    <circle id="dot" fill="transparent" fill-opacity="0.5" cx="9.9" cy="15.3" r="1">
		<animate
        id="one"
        attributeName="fill-opacity"
        dur="500ms"
        values="0.5;1;0.5"
        calcMode="linear"
        begin="0s;four.end+0.05s"/>  
	</circle>
    
    
    
    
    
</svg>
