<svg xmlns="http://www.w3.org/2000/svg" width="153.301" height="40.522" viewBox="0 0 40.561 10.721">



<path d="M6.848 2.148v.794H1.204v2.332h4.537v.803H1.204V8.41h5.644v.794H.41V2.148zM11.623 5.636l2.93-3.488h1.087v7.055h-.794V3.05l-3.223 3.83-3.224-3.83v6.153h-.793V2.148h1.087zM16.705 9.203V2.148h.794v7.055zM18.868 9.203V2.148h.794v7.055zM22.216 2.148h4.703q.49 0 .833.343.343.343.343.833v5.879H27.3V6.626h-5.467v2.577h-.794v-5.88q0-.489.343-.832.343-.343.833-.343zm-.382 3.684H27.3V3.324q0-.157-.117-.265-.108-.117-.265-.117h-4.703q-.157 0-.274.117-.108.108-.108.265z">
</path>


<path d="M29.995 8.4v.803h-.803v-.804zM32.512 2.148h4.703q.49 0 .832.343.343.343.343.833v5.879h-.793V6.626h-5.468v2.577h-.793v-5.88q0-.489.343-.832.343-.343.833-.343zm-.383 3.684h5.468V3.324q0-.157-.118-.265-.108-.117-.264-.117h-4.703q-.157 0-.275.117-.108.108-.108.265zM39.517 9.203V2.148h.793v7.055z">

<animate dur="5s" values="#000000; #4e86b1; #d7d7d7; #000000" keyTimes="0; 0.5; 0.7; 1" attributeName="fill" repeatCount="indefinite"/>
</path>
  
  
</svg>
