<svg xmlns="http://www.w3.org/2000/svg" width="307.792" height="18.229">



<path d="M102.01 17.936l6.644-8.953-5.859-8.227h2.707l3.117 4.406q.973 1.371 1.383 2.11.574-.938 1.36-1.957l3.457-4.559h2.472l-6.035 8.098 6.504 9.082h-2.813l-4.324-6.13q-.363-.526-.75-1.148-.574.938-.82 1.29l-4.313 5.988zM120.174 17.936V.756h2.273v17.18zM124.557 17.936l6.598-17.18h2.449l7.031 17.18h-2.59l-2.004-5.203h-7.183l-1.887 5.203zm4.957-7.055h5.824l-1.793-4.758q-.82-2.168-1.219-3.562-.328 1.652-.925 3.281zM141.783 9.569q0-4.278 2.297-6.692 2.297-2.426 5.93-2.426 2.379 0 4.289 1.137 1.91 1.137 2.906 3.176 1.008 2.027 1.008 4.605 0 2.614-1.055 4.676-1.054 2.063-2.988 3.129-1.933 1.055-4.172 1.055-2.426 0-4.336-1.172-1.91-1.172-2.894-3.2-.985-2.027-.985-4.288zm2.344.035q0 3.105 1.664 4.898 1.676 1.781 4.196 1.781 2.566 0 4.218-1.804 1.664-1.805 1.664-5.121 0-2.098-.714-3.657-.704-1.57-2.075-2.425-1.36-.868-3.058-.868-2.414 0-4.16 1.664-1.735 1.653-1.735 5.532zM161.06 17.936V.756h3.423l4.066 12.164q.563 1.7.82 2.543.293-.937.914-2.754L174.397.756h3.058v17.18h-2.191V3.556l-4.992 14.38h-2.051L163.252 3.31v14.625zM181.533 17.936V.756h2.274v17.18z"
 >
 
<animate dur="5s" values="#000000; #d7d7d7; #d7d7d7; #000000" keyTimes="0; 0.5; 0.7; 1" attributeName="fill" repeatCount="indefinite"/>

  </path>




<path d="M0 17.936V.756h2.273v7.055h8.93V.756h2.274v17.18h-2.274V9.838h-8.93v8.098zM28.547.756h2.273v9.926q0 2.59-.586 4.113-.586 1.524-2.12 2.485-1.524.949-4.009.949-2.414 0-3.949-.832-1.535-.832-2.191-2.403-.656-1.582-.656-4.312V.756h2.273v9.914q0 2.238.41 3.305.422 1.055 1.43 1.629 1.02.574 2.484.574 2.508 0 3.574-1.137 1.067-1.136 1.067-4.37zM32.73 17.936L39.328.756h2.45l7.03 17.18h-2.59l-2.003-5.203H37.03l-1.886 5.203zm4.958-7.055h5.824l-1.793-4.758q-.82-2.168-1.219-3.562-.328 1.652-.926 3.281zM52.758 17.936L48.199.756h2.332l2.614 11.262q.421 1.77.726 3.515.656-2.753.774-3.175L57.915.756h2.741l2.461 8.695q.926 3.235 1.336 6.082.328-1.628.856-3.738L68.004.756h2.285l-4.71 17.18h-2.192l-3.621-13.09q-.457-1.64-.54-2.016-.269 1.184-.503 2.016l-3.645 13.09zM72.445 17.936V.756h12.422v2.027H74.72v5.262h9.504v2.016h-9.504v5.847h10.547v2.028zM88.816 17.936V.756h2.274v17.18z">

<animate dur="4s" values="#000000; #d7d7d7; #d7d7d7; #000000" keyTimes="0; 0.5; 0.7; 1" attributeName="fill" repeatCount="indefinite"/>

    </path>


<path  fill="#4e86b1" d="M202.85 11.197V9.182l7.278-.012v6.375q-1.676 1.336-3.457 2.016-1.781.668-3.656.668-2.531 0-4.606-1.078-2.062-1.09-3.117-3.141-1.055-2.05-1.055-4.582 0-2.508 1.043-4.676 1.055-2.18 3.024-3.234 1.969-1.055 4.535-1.055 1.863 0 3.363.61 1.512.597 2.367 1.675.856 1.078 1.301 2.813l-2.05.562q-.387-1.312-.961-2.062-.575-.75-1.641-1.196-1.067-.457-2.367-.457-1.559 0-2.696.48-1.136.47-1.84 1.243-.69.774-1.078 1.7-.656 1.593-.656 3.456 0 2.297.785 3.844.797 1.547 2.309 2.297 1.512.75 3.21.75 1.477 0 2.884-.563 1.406-.574 2.132-1.218v-3.2zM213.374 17.936V.756h2.274v15.152h8.46v2.028zM226.136 9.569q0-4.278 2.297-6.692 2.297-2.426 5.93-2.426 2.378 0 4.288 1.137 1.91 1.137 2.907 3.176 1.008 2.027 1.008 4.605 0 2.614-1.055 4.676-1.055 2.063-2.988 3.129-1.934 1.055-4.172 1.055-2.426 0-4.336-1.172-1.91-1.172-2.895-3.2-.984-2.027-.984-4.288zm2.344.035q0 3.105 1.664 4.898 1.675 1.781 4.195 1.781 2.566 0 4.219-1.804 1.664-1.805 1.664-5.121 0-2.098-.715-3.657-.703-1.57-2.074-2.425-1.36-.868-3.059-.868-2.414 0-4.16 1.664-1.734 1.653-1.734 5.532zM245.46 17.936V.756h2.332l9.024 13.488V.756h2.18v17.18h-2.333l-9.023-13.5v13.5zM260.94 17.936l6.598-17.18h2.45l7.03 17.18h-2.59l-2.003-5.203h-7.184l-1.886 5.203zm4.958-7.055h5.824l-1.793-4.758q-.82-2.168-1.219-3.562-.328 1.652-.926 3.281zM278.085 12.416l2.145-.187q.152 1.289.703 2.12.562.821 1.734 1.337 1.172.504 2.637.504 1.3 0 2.297-.387.996-.387 1.476-1.055.492-.68.492-1.476 0-.809-.468-1.407-.47-.609-1.547-1.02-.692-.269-3.059-.831-2.367-.574-3.316-1.078-1.23-.645-1.84-1.594-.598-.96-.598-2.145 0-1.3.739-2.425.738-1.137 2.156-1.723 1.418-.586 3.152-.586 1.91 0 3.363.621 1.465.61 2.25 1.805.786 1.195.844 2.707l-2.18.164q-.175-1.629-1.195-2.461-1.008-.832-2.988-.832-2.063 0-3.012.762-.937.75-.937 1.816 0 .926.668 1.524.656.597 3.422 1.23 2.777.621 3.808 1.09 1.5.691 2.215 1.758.715 1.054.715 2.437 0 1.371-.785 2.59-.785 1.207-2.262 1.887-1.465.668-3.305.668-2.332 0-3.914-.68-1.57-.68-2.472-2.039-.891-1.371-.938-3.094zM294.116 12.416l2.145-.187q.152 1.289.703 2.12.562.821 1.734 1.337 1.172.504 2.637.504 1.3 0 2.297-.387.996-.387 1.477-1.055.492-.68.492-1.476 0-.809-.47-1.407-.468-.609-1.546-1.02-.691-.269-3.059-.831-2.367-.574-3.316-1.078-1.23-.645-1.84-1.594-.597-.96-.597-2.145 0-1.3.738-2.425.738-1.137 2.156-1.723 1.418-.586 3.152-.586 1.91 0 3.364.621 1.465.61 2.25 1.805.785 1.195.843 2.707l-2.18.164q-.175-1.629-1.195-2.461-1.007-.832-2.988-.832-2.062 0-3.012.762-.937.75-.937 1.816 0 .926.668 1.524.656.597 3.422 1.23 2.777.621 3.808 1.09 1.5.691 2.215 1.758.715 1.054.715 2.437 0 1.371-.785 2.59-.785 1.207-2.262 1.887-1.465.668-3.304.668-2.332 0-3.915-.68-1.57-.68-2.472-2.039-.89-1.371-.938-3.094z"
>

       <animate dur="3s" values="#000000; #d7d7d7; #d7d7d7; #000000" keyTimes="0; 0.5; 0.7; 1" attributeName="fill" repeatCount="indefinite"/>

  </path>
  
  
</svg>
