<svg xmlns="http://www.w3.org/2000/svg" width="261" height="194" viewBox="-50 50 456.75 339.5">

<path class="path" d="M29.053 90.141v8.573h-60.96v25.188h49v8.678h-49v25.189h60.96v8.572h-69.532v-76.2z" fill="none" stroke="#000" stroke-width="3" stroke-dasharray="2000" stroke-dashoffset="2000">


	 <animate id="p1" attributeName="stroke-dashoffset" begin="0.1s;f1.end+0.1s" values="2000;0;2000" dur="10s" 
	 calcMode="linear"/>
     
	 <animate id="f1" attributeName="fill" begin="p1.end-0.01s" values="white; white; white" dur="0.1s"  
	 calcMode="linear" />


</path>

   
        

<path class="path" d="M80.629 127.818l31.644-37.677h11.747v76.2h-8.572V99.878l-34.82 41.38-34.819-41.38v66.463h-8.572v-76.2h11.747z" fill="none" stroke="#000" stroke-width="3" stroke-dasharray="2000" stroke-dashoffset="2000">

	 <animate id="p1" attributeName="stroke-dashoffset" begin="0.1s;f1.end+0.1s" values="2000;0;2000" dur="10s" 
	 calcMode="linear"/>
     
	 <animate id="f1" attributeName="fill" begin="p1.end-0.01s" values="white; white; white" dur="0.1s"  
	 calcMode="linear" />


</path>

<path class="path" d="M135.528 166.341v-76.2h8.572v76.2z" fill="none" stroke="#000" stroke-width="3" stroke-dasharray="2000" stroke-dashoffset="2000">
	 <animate id="p1" attributeName="stroke-dashoffset" begin="0.1s;f1.end+0.1s" values="2000;0;2000" dur="10s" 
	 calcMode="linear"/>
     
	 <animate id="f1" attributeName="fill" begin="p1.end-0.01s" values="white; white; white" dur="0.1s"  
	 calcMode="linear" />


</path>

<path class="path" d="M158.886 166.341v-76.2h8.572v76.2z" fill="none" stroke="#000" stroke-width="3" stroke-dasharray="2000" stroke-dashoffset="2000">
	 <animate id="p1" attributeName="stroke-dashoffset" begin="0.1s;f1.end+0.1s" values="2000;0;2000" dur="10s" 
	 calcMode="linear"/>
     
	 <animate id="f1" attributeName="fill" begin="p1.end-0.01s" values="white; white; white" dur="0.1s"  
	 calcMode="linear" />


</path>

<path class="path" d="M195.05 90.141h50.8q5.291 0 8.995 3.704 3.704 3.704 3.704 8.996v63.5h-8.572v-27.834h-59.055v27.834h-8.573v-63.5q0-5.292 3.704-8.996 3.705-3.704 8.996-3.704zm-4.128 39.793h59.055v-27.093q0-1.693-1.27-2.857-1.164-1.27-2.858-1.27h-50.8q-1.693 0-2.963 1.27-1.164 1.164-1.164 2.857z" fill="none" stroke="#000" stroke-width="3" stroke-dasharray="2000" stroke-dashoffset="2000">
	 <animate id="p1" attributeName="stroke-dashoffset" begin="0.1s;f1.end+0.1s" values="2000;0;2000" dur="10s" 
	 calcMode="linear"/>
     
	 <animate id="f1" attributeName="fill" begin="p1.end-0.01s" values="white; white; white" dur="0.1s"  
	 calcMode="linear" />


</path>

<path class="path" d="M390.876 166.108v-76.2h8.573v76.2z" fill="none" stroke="#000" stroke-width="3" stroke-dasharray="2000" stroke-dashoffset="2000">
	 <animate id="p1" attributeName="stroke-dashoffset" begin="0.1s;f1.end+0.1s" values="2000;0;2000" dur="10s" 
	 calcMode="linear"/>
     
	 <animate id="f1" attributeName="fill" begin="p1.end-0.01s" values="white; white; white" dur="0.1s"  
	 calcMode="linear" />


</path>

<path class="path" d="M311.07 88.9h50.8q5.29 0 8.995 3.704 3.704 3.704 3.704 8.996v63.5h-8.572v-27.834h-59.055V165.1h-8.573v-63.5q0-5.292 3.704-8.996 3.704-3.704 8.996-3.704zm-4.128 39.793h59.055V101.6q0-1.693-1.27-2.857-1.165-1.27-2.858-1.27h-50.8q-1.693 0-2.963 1.27-1.164 1.164-1.164 2.857z" fill="none" stroke="#000" stroke-width="3" stroke-dasharray="2000" stroke-dashoffset="2000">
	 <animate id="p1" attributeName="stroke-dashoffset" begin="0.1s;f1.end+0.1s" values="2000;0;2000" dur="10s" 
	 calcMode="linear"/>
     
	 <animate id="f1" attributeName="fill" begin="p1.end-0.01s" values="white; white; white" dur="0.1s"  
	 calcMode="linear" />


</path>

<path class="path" d="M274.523 166.84v-8.56h8.573v8.56z" fill="none" stroke="#000" stroke-width="3" stroke-dasharray="2000" stroke-dashoffset="2000">
	 <animate id="p1" attributeName="stroke-dashoffset" begin="0.1s;f1.end+0.1s" values="2000;0;2000" dur="10s" 
	 calcMode="linear"/>
     
	 <animate id="f1" attributeName="fill" begin="p1.end-0.01s" values="white; white; white" dur="0.1s"  
	 calcMode="linear" />


</path>

</svg>
