<svg xmlns="http://www.w3.org/2000/svg" width="258" height="47" viewBox="-50 50 451.5 82.25">


<path class="path" d="M24.604 53.866v8.572h-60.96v25.188h49v8.679h-49v25.188h60.96v8.573H-44.93v-76.2z" fill="none" stroke="#000" stroke-width="3" stroke-dasharray="2000" stroke-dashoffset="2000">

	 <animate id="p1" attributeName="stroke-dashoffset" begin="0.1s;f1.end+0.1s" values="2000;0;2000" dur="10s" 
	 calcMode="linear"/>
     
	 <animate id="f1" attributeName="fill" begin="p1.end-0.01s" values="white; white; white" dur="0.1s"  
	 calcMode="linear" />

</path>


<path class="path" d="M76.18 91.542l31.644-37.676h11.747v76.2H111V63.602l-34.82 41.381-34.819-41.38v66.463h-8.572v-76.2h11.747z" fill="none" stroke="#000" stroke-width="3" stroke-dasharray="2000" stroke-dashoffset="2000">

	 <animate id="p1" attributeName="stroke-dashoffset" begin="0.1s;f1.end+0.1s" values="2000;0;2000" dur="10s" 
	 calcMode="linear"/>
     
	 <animate id="f1" attributeName="fill" begin="p1.end-0.01s" values="white; white; white" dur="0.1s"  
	 calcMode="linear" />

</path>


<path class="path" d="M131.079 130.066v-76.2h8.572v76.2z" fill="none" stroke="#000" stroke-width="3" stroke-dasharray="2000" stroke-dashoffset="2000">

	 <animate id="p1" attributeName="stroke-dashoffset" begin="0.1s;f1.end+0.1s" values="2000;0;2000" dur="10s" 
	 calcMode="linear"/>
     
	 <animate id="f1" attributeName="fill" begin="p1.end-0.01s" values="white; white; white" dur="0.1s"  
	 calcMode="linear" />

</path>


<path class="path" d="M154.437 130.066v-76.2h8.572v76.2z" fill="none" stroke="#000" stroke-width="3" stroke-dasharray="2000" stroke-dashoffset="2000">

	 <animate id="p1" attributeName="stroke-dashoffset" begin="0.1s;f1.end+0.1s" values="2000;0;2000" dur="10s" 
	 calcMode="linear"/>
     
	 <animate id="f1" attributeName="fill" begin="p1.end-0.01s" values="white; white; white" dur="0.1s"  
	 calcMode="linear" />

</path>


<path class="path" d="M190.6 53.866h50.8q5.292 0 8.996 3.704 3.704 3.704 3.704 8.996v63.5h-8.572V102.23h-59.055v27.835H177.9v-63.5q0-5.292 3.704-8.996 3.705-3.704 8.996-3.704zm-4.127 39.793h59.055V66.566q0-1.694-1.27-2.858-1.164-1.27-2.858-1.27h-50.8q-1.693 0-2.963 1.27-1.164 1.164-1.164 2.858z" fill="none" stroke="#000" stroke-width="3" stroke-dasharray="2000" stroke-dashoffset="2000">

	 <animate id="p1" attributeName="stroke-dashoffset" begin="0.1s;f1.end+0.1s" values="2000;0;2000" dur="10s" 
	 calcMode="linear"/>
     
	 <animate id="f1" attributeName="fill" begin="p1.end-0.01s" values="white; white; white" dur="0.1s"  
	 calcMode="linear" />

</path>



<path class="path" d="M386.427 129.832v-76.2H395v76.2z" fill="none" stroke="#000" stroke-width="3" stroke-dasharray="2000" stroke-dashoffset="2000">

	 <animate id="p1" attributeName="stroke-dashoffset" begin="0.1s;f1.end+0.1s" values="2000;0;2000" dur="10s" 
	 calcMode="linear"/>
     
	 <animate id="f1" attributeName="fill" begin="p1.end-0.01s" values="white; white; white" dur="0.1s"  
	 calcMode="linear" />

</path>


<path class="path" d="M306.99 53.737h50.8q5.292 0 8.997 3.704 3.704 3.704 3.704 8.996v63.5h-8.573v-27.834h-59.055v27.834h-8.572v-63.5q0-5.292 3.704-8.996 3.704-3.704 8.996-3.704zm-4.127 39.793h59.055V66.437q0-1.693-1.27-2.858-1.164-1.27-2.857-1.27h-50.8q-1.694 0-2.964 1.27-1.164 1.165-1.164 2.858z" fill="none" stroke="#000" stroke-width="3" stroke-dasharray="2000" stroke-dashoffset="2000">


	 <animate id="p1" attributeName="stroke-dashoffset" begin="0.1s;f1.end+0.1s" values="2000;0;2000" dur="10s" 
	 calcMode="linear"/>
     
	 <animate id="f1" attributeName="fill" begin="p1.end-0.01s" values="white; white; white" dur="0.1s"  
	 calcMode="linear" />

</path>


<path class="path" d="M270.356 130.008v-8.56h8.572v8.56z" fill="none" stroke="#000" stroke-width="3" stroke-dasharray="2000" stroke-dashoffset="2000">

	 <animate id="p1" attributeName="stroke-dashoffset" begin="0.1s;f1.end+0.1s" values="2000;0;2000" dur="10s" 
	 calcMode="linear"/>
     
	 <animate id="f1" attributeName="fill" begin="p1.end-0.01s" values="white; white; white" dur="0.1s"  
	 calcMode="linear" />

</path>


</svg>
