<svg xmlns="http://www.w3.org/2000/svg" height="1333" viewBox="0 0 1000 2666" width="1000">
     
     
<g id="Layer_1">


	<line fill="none" stroke="#000000" stroke-width="1" stroke-miterlimit="10" x1="9" y1="217" x2="81" y2="172" opacity=".65">
		<animate attributeName="y1" from="315" to="315" begin="0s" dur="4s" values="217;244;244;208;208;217;217" keySplines="0.1 0.8 0.2 1; 0.1 0.8 0.2 1; 0.1 0.8 0.2 1; 0.1 0.8 0.2 1; 0.1 0.8 0.2 1; 0.1 0.8 0.2 1" keyTimes="0;0.22;0.33;0.55;0.66;0.88;1" calcMode="spline" repeatCount="indefinite" />   
		<animate attributeName="y2" from="172" to="172" begin="0s" dur="4s" values="172;235;235;217;217;172;172" keySplines="0.1 0.8 0.2 1; 0.1 0.8 0.2 1; 0.1 0.8 0.2 1; 0.1 0.8 0.2 1; 0.1 0.8 0.2 1; 0.1 0.8 0.2 1" keyTimes="0;0.22;0.33;0.55;0.66;0.88;1" calcMode="spline" repeatCount="indefinite" />
	</line>
    
       
    

	<line fill="none" stroke="#000000" stroke-width="1" stroke-miterlimit="10" x1="81" y1="172" x2="153" y2="181" opacity=".65">
		<animate attributeName="y1" from="172" to="172" begin="0s" dur="4s" values="172;235;235;217;217;172;172" keySplines="0.1 0.8 0.2 1; 0.1 0.8 0.2 1; 0.1 0.8 0.2 1; 0.1 0.8 0.2 1; 0.1 0.8 0.2 1; 0.1 0.8 0.2 1" keyTimes="0;0.22;0.33;0.55;0.66;0.88;1" calcMode="spline" repeatCount="indefinite" />
		<animate attributeName="y2" from="153" to="153" begin="0s" dur="4s" values="153;99;99;144;144;153;153" keySplines="0.1 0.8 0.2 1; 0.1 0.8 0.2 1; 0.1 0.8 0.2 1; 0.1 0.8 0.2 1; 0.1 0.8 0.2 1; 0.1 0.8 0.2 1" keyTimes="0;0.22;0.33;0.55;0.66;0.88;1" calcMode="spline" repeatCount="indefinite" />
	</line>

	<line fill="none" stroke="#000000" stroke-width="1" stroke-miterlimit="10" x1="153" y1="181" x2="225" y2="145" opacity=".65">
		<animate attributeName="y1" from="153" to="153" begin="0s" dur="4s" values="153;99;99;144;144;153;153" keySplines="0.1 0.8 0.2 1; 0.1 0.8 0.2 1; 0.1 0.8 0.2 1; 0.1 0.8 0.2 1; 0.1 0.8 0.2 1; 0.1 0.8 0.2 1" keyTimes="0;0.22;0.33;0.55;0.66;0.88;1" calcMode="spline" repeatCount="indefinite" />
		<animate attributeName="y2" from="145" to="145" begin="0s" dur="4s" values="145;63;63;108;108;145;145" keySplines="0.1 0.8 0.2 1; 0.1 0.8 0.2 1; 0.1 0.8 0.2 1; 0.1 0.8 0.2 1; 0.1 0.8 0.2 1; 0.1 0.8 0.2 1" keyTimes="0;0.22;0.33;0.55;0.66;0.88;1" calcMode="spline" repeatCount="indefinite" />
	</line>

	<line fill="none" stroke="#000000" stroke-width="1" stroke-miterlimit="10" x1="225" y1="145" x2="297" y2="55" opacity=".65">
		<animate attributeName="y1" from="145" to="145" begin="0s" dur="4s" values="145;63;63;108;108;145;145" keySplines="0.1 0.8 0.2 1; 0.1 0.8 0.2 1; 0.1 0.8 0.2 1; 0.1 0.8 0.2 1; 0.1 0.8 0.2 1; 0.1 0.8 0.2 1" keyTimes="0;0.22;0.33;0.55;0.66;0.88;1" calcMode="spline" repeatCount="indefinite" />
		<animate attributeName="y2" from="55" to="55" begin="0s" dur="4s" values="55;45;45;63;63;55;55" keySplines="0.1 0.8 0.2 1; 0.1 0.8 0.2 1; 0.1 0.8 0.2 1; 0.1 0.8 0.2 1; 0.1 0.8 0.2 1; 0.1 0.8 0.2 1" keyTimes="0;0.22;0.33;0.55;0.66;0.88;1" calcMode="spline" repeatCount="indefinite" />
	</line>

	<line fill="none" stroke="#000000" stroke-width="1" stroke-miterlimit="10" x1="297" y1="55" x2="369" y2="72" opacity=".65">
		<animate attributeName="y1" from="55" to="55" begin="0s" dur="4s" values="55;45;45;63;63;55;55" keySplines="0.1 0.8 0.2 1; 0.1 0.8 0.2 1; 0.1 0.8 0.2 1; 0.1 0.8 0.2 1; 0.1 0.8 0.2 1; 0.1 0.8 0.2 1" keyTimes="0;0.22;0.33;0.55;0.66;0.88;1" calcMode="spline" repeatCount="indefinite" />
		<animate attributeName="y2" from="72" to="72" begin="0s" dur="4s" values="72;63;63;99;99;72;72" keySplines="0.1 0.8 0.2 1; 0.1 0.8 0.2 1; 0.1 0.8 0.2 1; 0.1 0.8 0.2 1; 0.1 0.8 0.2 1; 0.1 0.8 0.2 1" keyTimes="0;0.22;0.33;0.55;0.66;0.88;1" calcMode="spline" repeatCount="indefinite" />
	</line>

	<line fill="none" stroke="#000000" stroke-width="1" stroke-miterlimit="10" x1="369" y1="72" x2="441" y2="45" opacity=".65">
		<animate attributeName="y1" from="72" to="72" begin="0s" dur="4s" values="72;63;63;99;99;72;72" keySplines="0.1 0.8 0.2 1; 0.1 0.8 0.2 1; 0.1 0.8 0.2 1; 0.1 0.8 0.2 1; 0.1 0.8 0.2 1; 0.1 0.8 0.2 1" keyTimes="0;0.22;0.33;0.55;0.66;0.88;1" calcMode="spline" repeatCount="indefinite" />
		<animate attributeName="y2" from="45" to="45" begin="0s" dur="4s" values="45;36;36;54;54;45;45" keySplines="0.1 0.8 0.2 1; 0.1 0.8 0.2 1; 0.1 0.8 0.2 1; 0.1 0.8 0.2 1; 0.1 0.8 0.2 1; 0.1 0.8 0.2 1" keyTimes="0;0.22;0.33;0.55;0.66;0.88;1" calcMode="spline" repeatCount="indefinite" />
	</line>

	<circle fill="#FFFFFF" stroke="#000000" stroke-width="3" stroke-miterlimit="10" cx="9" cy="217" r="6">
		<animate attributeName="cy" from="217" to="217" begin="0s" dur="4s" values="217;244;244;208;208;217;217" keySplines="0.1 0.8 0.2 1; 0.1 0.8 0.2 1; 0.1 0.8 0.2 1; 0.1 0.8 0.2 1; 0.1 0.8 0.2 1; 0.1 0.8 0.2 1" keyTimes="0;0.22;0.33;0.55;0.66;0.88;1" calcMode="spline" repeatCount="indefinite" />
	</circle>

	<circle fill="#FFFFFF" stroke="#000000" stroke-width="3" stroke-miterlimit="10" cx="81" cy="172" r="6">
		<animate attributeName="cy" from="172" to="172" begin="0s" dur="4s" values="172;235;235;217;217;172;172" keySplines="0.1 0.8 0.2 1; 0.1 0.8 0.2 1; 0.1 0.8 0.2 1; 0.1 0.8 0.2 1; 0.1 0.8 0.2 1; 0.1 0.8 0.2 1" keyTimes="0;0.22;0.33;0.55;0.66;0.88;1" calcMode="spline" repeatCount="indefinite" />
	</circle>

	<circle fill="#FFFFFF" stroke="#000000" stroke-width="3" stroke-miterlimit="10" cx="153" cy="181" r="6">
		<animate attributeName="cy" from="153" to="153" begin="0s" dur="4s" values="153;99;99;144;144;153;153" keySplines="0.1 0.8 0.2 1; 0.1 0.8 0.2 1; 0.1 0.8 0.2 1; 0.1 0.8 0.2 1; 0.1 0.8 0.2 1; 0.1 0.8 0.2 1" keyTimes="0;0.22;0.33;0.55;0.66;0.88;1" calcMode="spline" repeatCount="indefinite" />
	</circle>

	<circle fill="#FFFFFF" stroke="#000000" stroke-width="3" stroke-miterlimit="10" cx="225" cy="145" r="6">
		<animate attributeName="cy" from="145" to="145" begin="0s" dur="4s" values="145;63;63;108;108;145;145" keySplines="0.1 0.8 0.2 1; 0.1 0.8 0.2 1; 0.1 0.8 0.2 1; 0.1 0.8 0.2 1; 0.1 0.8 0.2 1; 0.1 0.8 0.2 1" keyTimes="0;0.22;0.33;0.55;0.66;0.88;1" calcMode="spline" repeatCount="indefinite" />
	</circle>

	<circle fill="#FFFFFF" stroke="#000000" stroke-width="3" stroke-miterlimit="10" cx="297" cy="55" r="6">
		<animate attributeName="cy" from="55" to="55" begin="0s" dur="4s" values="55;45;45;63;63;55;55" keySplines="0.1 0.8 0.2 1; 0.1 0.8 0.2 1; 0.1 0.8 0.2 1; 0.1 0.8 0.2 1; 0.1 0.8 0.2 1; 0.1 0.8 0.2 1" keyTimes="0;0.22;0.33;0.55;0.66;0.88;1" calcMode="spline" repeatCount="indefinite" />
	</circle>

	<circle fill="#FFFFFF" stroke="#000000" stroke-width="3" stroke-miterlimit="10" cx="369" cy="72" r="6">
		<animate attributeName="cy" from="72" to="72" begin="0s" dur="4s" values="72;63;63;99;99;72;72" keySplines="0.1 0.8 0.2 1; 0.1 0.8 0.2 1; 0.1 0.8 0.2 1; 0.1 0.8 0.2 1; 0.1 0.8 0.2 1; 0.1 0.8 0.2 1" keyTimes="0;0.22;0.33;0.55;0.66;0.88;1" calcMode="spline" repeatCount="indefinite" />
	</circle>

	<circle fill="#FFFFFF" stroke="#000000" stroke-width="3" stroke-miterlimit="10" cx="441" cy="45" r="6">
		<animate attributeName="cy" from="45" to="45" begin="0s" dur="4s" values="45;36;36;54;54;45;45" keySplines="0.1 0.8 0.2 1; 0.1 0.8 0.2 1; 0.1 0.8 0.2 1; 0.1 0.8 0.2 1; 0.1 0.8 0.2 1; 0.1 0.8 0.2 1" keyTimes="0;0.22;0.33;0.55;0.66;0.88;1" calcMode="spline" repeatCount="indefinite" />
	</circle>
</g>

<g id="Layer_2">
	<line fill="none" stroke="#000000" stroke-width="1" stroke-miterlimit="10" x1="9" y1="181" x2="81" y2="208" opacity=".65">
		<animate attributeName="y1" from="181" to="181" begin="0s" dur="4s" values="181;171;171;190;190;181;181" keySplines="0.1 0.8 0.2 1; 0.1 0.8 0.2 1; 0.1 0.8 0.2 1; 0.1 0.8 0.2 1; 0.1 0.8 0.2 1; 0.1 0.8 0.2 1" keyTimes="0;0.22;0.33;0.55;0.66;0.88;1" calcMode="spline" repeatCount="indefinite" />
		<animate attributeName="y2" from="208" to="208" begin="0s" dur="4s" values="208;162;162;190;190;208;208" keySplines="0.1 0.8 0.2 1; 0.1 0.8 0.2 1; 0.1 0.8 0.2 1; 0.1 0.8 0.2 1; 0.1 0.8 0.2 1; 0.1 0.8 0.2 1" keyTimes="0;0.22;0.33;0.55;0.66;0.88;1" calcMode="spline" repeatCount="indefinite" />
	</line>

	<line fill="none" stroke="#000000" stroke-width="1" stroke-miterlimit="10" x1="81" y1="208" x2="153" y2="127" opacity=".65">
		<animate attributeName="y1" from="208" to="208" begin="0s" dur="4s" values="208;162;162;190;190;208;208" keySplines="0.1 0.8 0.2 1; 0.1 0.8 0.2 1; 0.1 0.8 0.2 1; 0.1 0.8 0.2 1; 0.1 0.8 0.2 1; 0.1 0.8 0.2 1" keyTimes="0;0.22;0.33;0.55;0.66;0.88;1" calcMode="spline" repeatCount="indefinite" />
		<animate attributeName="y2" from="127" to="127" begin="0s" dur="4s" values="127;117;117;90;90;127;127" keySplines="0.1 0.8 0.2 1; 0.1 0.8 0.2 1; 0.1 0.8 0.2 1; 0.1 0.8 0.2 1; 0.1 0.8 0.2 1; 0.1 0.8 0.2 1" keyTimes="0;0.22;0.33;0.55;0.66;0.88;1" calcMode="spline" repeatCount="indefinite" />
	</line>

	<line fill="none" stroke="#000000" stroke-width="1" stroke-miterlimit="10" x1="153" y1="127" x2="225" y2="82" opacity=".65">
		<animate attributeName="y1" from="127" to="127" begin="0s" dur="4s" values="127;117;117;90;90;127;127" keySplines="0.1 0.8 0.2 1; 0.1 0.8 0.2 1; 0.1 0.8 0.2 1; 0.1 0.8 0.2 1; 0.1 0.8 0.2 1; 0.1 0.8 0.2 1" keyTimes="0;0.22;0.33;0.55;0.66;0.88;1" calcMode="spline" repeatCount="indefinite" />
		<animate attributeName="y2" from="82" to="82" begin="0s" dur="4s" values="82;127;127;145;145;82;82" keySplines="0.1 0.8 0.2 1; 0.1 0.8 0.2 1; 0.1 0.8 0.2 1; 0.1 0.8 0.2 1; 0.1 0.8 0.2 1; 0.1 0.8 0.2 1" keyTimes="0;0.22;0.33;0.55;0.66;0.88;1" calcMode="spline" repeatCount="indefinite" />
	</line>

	<line fill="none" stroke="#000000" stroke-width="1" stroke-miterlimit="10" x1="225" y1="82" x2="297" y2="118" opacity=".65">
		<animate attributeName="y1" from="82" to="82" begin="0s" dur="4s" values="82;127;127;145;145;82;82" keySplines="0.1 0.8 0.2 1; 0.1 0.8 0.2 1; 0.1 0.8 0.2 1; 0.1 0.8 0.2 1; 0.1 0.8 0.2 1; 0.1 0.8 0.2 1" keyTimes="0;0.22;0.33;0.55;0.66;0.88;1" calcMode="spline" repeatCount="indefinite" />
		<animate attributeName="y2" from="118" to="118" begin="0s" dur="4s" values="118;108;108;127;127;118;118" keySplines="0.1 0.8 0.2 1; 0.1 0.8 0.2 1; 0.1 0.8 0.2 1; 0.1 0.8 0.2 1; 0.1 0.8 0.2 1; 0.1 0.8 0.2 1" keyTimes="0;0.22;0.33;0.55;0.66;0.88;1" calcMode="spline" repeatCount="indefinite" />
	</line>

	<line fill="none" stroke="#000000" stroke-width="1" stroke-miterlimit="10" x1="297" y1="118" x2="369" y2="45" opacity=".65">
		<animate attributeName="y1" from="118" to="118" begin="0s" dur="4s" values="118;108;108;127;127;118;118" keySplines="0.1 0.8 0.2 1; 0.1 0.8 0.2 1; 0.1 0.8 0.2 1; 0.1 0.8 0.2 1; 0.1 0.8 0.2 1; 0.1 0.8 0.2 1" keyTimes="0;0.22;0.33;0.55;0.66;0.88;1" calcMode="spline" repeatCount="indefinite" />
		<animate attributeName="y2" from="45" to="45" begin="0s" dur="4s" values="45;27;27;36;36;45;45" keySplines="0.1 0.8 0.2 1; 0.1 0.8 0.2 1; 0.1 0.8 0.2 1; 0.1 0.8 0.2 1; 0.1 0.8 0.2 1; 0.1 0.8 0.2 1" keyTimes="0;0.22;0.33;0.55;0.66;0.88;1" calcMode="spline" repeatCount="indefinite" />
	</line>

	<line fill="none" stroke="#000000" stroke-width="1" stroke-miterlimit="10" x1="369" y1="45" x2="441" y2="36" opacity=".65">
		<animate attributeName="y1" from="45" to="45" begin="0s" dur="4s" values="45;27;27;36;36;45;45" keySplines="0.1 0.8 0.2 1; 0.1 0.8 0.2 1; 0.1 0.8 0.2 1; 0.1 0.8 0.2 1; 0.1 0.8 0.2 1; 0.1 0.8 0.2 1" keyTimes="0;0.22;0.33;0.55;0.66;0.88;1" calcMode="spline" repeatCount="indefinite" />
		<animate attributeName="y2" from="36" to="36" begin="0s" dur="4s" values="36;12;12;18;18;36;36" keySplines="0.1 0.8 0.2 1; 0.1 0.8 0.2 1; 0.1 0.8 0.2 1; 0.1 0.8 0.2 1; 0.1 0.8 0.2 1; 0.1 0.8 0.2 1" keyTimes="0;0.22;0.33;0.55;0.66;0.88;1" calcMode="spline" repeatCount="indefinite" />
	</line>
<circle fill="#FFFFFF" stroke="#000000" stroke-width="3" stroke-miterlimit="10" cx="9" cy="181" r="6">
		<animate attributeName="cy" from="181" to="181" begin="0s" dur="4s" values="181;171;171;190;190;181;181" keySplines="0.1 0.8 0.2 1; 0.1 0.8 0.2 1; 0.1 0.8 0.2 1; 0.1 0.8 0.2 1; 0.1 0.8 0.2 1; 0.1 0.8 0.2 1" keyTimes="0;0.22;0.33;0.55;0.66;0.88;1" calcMode="spline" repeatCount="indefinite" />
	</circle>

	<circle fill="#FFFFFF" stroke="#000000" stroke-width="3" stroke-miterlimit="10" cx="81" cy="208" r="6">
		<animate attributeName="cy" from="208" to="208" begin="0s" dur="4s" values="208;162;162;190;190;208;208" keySplines="0.1 0.8 0.2 1; 0.1 0.8 0.2 1; 0.1 0.8 0.2 1; 0.1 0.8 0.2 1; 0.1 0.8 0.2 1; 0.1 0.8 0.2 1" keyTimes="0;0.22;0.33;0.55;0.66;0.88;1" calcMode="spline" repeatCount="indefinite" />
	</circle>

	<circle fill="#FFFFFF" stroke="#000000" stroke-width="3" stroke-miterlimit="10" cx="153" cy="127" r="6">
		<animate attributeName="cy" from="127" to="127" begin="0s" dur="4s" values="127;117;117;90;90;127;127" keySplines="0.1 0.8 0.2 1; 0.1 0.8 0.2 1; 0.1 0.8 0.2 1; 0.1 0.8 0.2 1; 0.1 0.8 0.2 1; 0.1 0.8 0.2 1" keyTimes="0;0.22;0.33;0.55;0.66;0.88;1" calcMode="spline" repeatCount="indefinite" />
	</circle>

	<circle fill="#FFFFFF" stroke="#000000" stroke-width="3" stroke-miterlimit="10" cx="225" cy="82" r="6">
		<animate attributeName="cy" from="82" to="82" begin="0s" dur="4s" values="82;127;127;145;145;82;82" keySplines="0.1 0.8 0.2 1; 0.1 0.8 0.2 1; 0.1 0.8 0.2 1; 0.1 0.8 0.2 1; 0.1 0.8 0.2 1; 0.1 0.8 0.2 1" keyTimes="0;0.22;0.33;0.55;0.66;0.88;1" calcMode="spline" repeatCount="indefinite" />
	</circle>

	<circle fill="#FFFFFF" stroke="#000000" stroke-width="3" stroke-miterlimit="10" cx="297" cy="118" r="6">
		<animate attributeName="cy" from="118" to="118" begin="0s" dur="4s" values="118;108;108;127;127;118;118" keySplines="0.1 0.8 0.2 1; 0.1 0.8 0.2 1; 0.1 0.8 0.2 1; 0.1 0.8 0.2 1; 0.1 0.8 0.2 1; 0.1 0.8 0.2 1" keyTimes="0;0.22;0.33;0.55;0.66;0.88;1" calcMode="spline" repeatCount="indefinite" />
	</circle>

	<circle fill="#FFFFFF" stroke="#000000" stroke-width="3" stroke-miterlimit="10" cx="369" cy="45" r="6">
		<animate attributeName="cy" from="45" to="45" begin="0s" dur="4s" values="45;27;27;36;36;45;45" keySplines="0.1 0.8 0.2 1; 0.1 0.8 0.2 1; 0.1 0.8 0.2 1; 0.1 0.8 0.2 1; 0.1 0.8 0.2 1; 0.1 0.8 0.2 1" keyTimes="0;0.22;0.33;0.55;0.66;0.88;1" calcMode="spline" repeatCount="indefinite" />
	</circle>

	<circle fill="#FFFFFF" stroke="#000000" stroke-width="3" stroke-miterlimit="10" cx="441" cy="36" r="6">
		<animate attributeName="cy" from="36" to="36" begin="0s" dur="4s" values="36;12;12;18;18;36;36" keySplines="0.1 0.8 0.2 1; 0.1 0.8 0.2 1; 0.1 0.8 0.2 1; 0.1 0.8 0.2 1; 0.1 0.8 0.2 1; 0.1 0.8 0.2 1" keyTimes="0;0.22;0.33;0.55;0.66;0.88;1" calcMode="spline" repeatCount="indefinite" />
	</circle>

	
</g>



<path d="M9.737 1051.731h-45.043q-1.205 0-2.11.904-.828.829-.828 2.034v36.155q0 1.205.829 2.109.904.828 2.109.828H9.737v6.101h-45.043q-3.766 0-6.403-2.636-2.636-2.636-2.636-6.402v-36.155q0-3.766 2.636-6.402 2.637-2.637 6.403-2.637H9.737zM26.478 1045.63h36.155q3.766 0 6.402 2.637 2.636 2.636 2.636 6.402v36.155q0 3.766-2.636 6.402t-6.402 2.636H26.478q-3.766 0-6.402-2.636-2.637-2.636-2.637-6.402v-36.155q0-3.766 2.637-6.402 2.636-2.637 6.402-2.637zm0 48.131h36.155q1.205 0 2.033-.828.904-.904.904-2.11v-36.154q0-1.205-.904-2.034-.828-.904-2.033-.904H26.478q-1.205 0-2.109.904-.828.829-.828 2.034v36.155q0 1.205.828 2.109.904.828 2.11.828zM134.198 1054.669v2.184h-6.1v-2.184q0-1.205-.905-2.034-.828-.904-2.033-.904H89.005q-1.205 0-2.11.904-.828.829-.828 2.034v36.155q0 1.205.829 2.109.904.828 2.109.828h36.155q1.205 0 2.033-.828.904-.904.904-2.11v-13.407H114.69v-6.176h19.508v19.584q0 3.766-2.636 6.402t-6.402 2.636H89.005q-3.766 0-6.402-2.636-2.637-2.636-2.637-6.402v-36.155q0-3.766 2.637-6.402 2.636-2.637 6.402-2.637h36.155q3.766 0 6.402 2.637 2.636 2.636 2.636 6.402zM190.62 1092.933v-47.303h6.101v54.232h-8.36l-39.77-47.302v47.302h-6.101v-54.232h8.36zM205.235 1099.862v-54.232h6.101v54.232zM219.072 1045.63h54.232v6.101h-24.028v48.131h-6.1v-48.13h-24.104zM279.086 1099.862v-54.232h6.101v54.232zM329.003 1093.912l27.718-48.282h7.156l-31.334 54.232h-7.08l-31.41-54.232h7.156zM420.889 1045.63v6.101h-43.386v17.927h34.874v6.177h-34.874v17.926h43.386v6.101h-49.487v-54.232zM503.525 1054.744v15.893q0 3.766-2.636 6.403-2.636 2.636-6.402 2.636H486.2l17.023 20.186h-8.06l-16.947-20.186h-19.885q-.678 0-2.938-.301v20.487h-6.1v-54.156h45.193q3.766 0 6.402 2.636t2.636 6.402zm-45.193 18.756h36.155q1.205 0 2.033-.829.829-.829.829-2.034v-15.893q0-1.205-.829-2.033-.828-.904-2.033-.904h-36.155q-1.205 0-2.11.904-.828.828-.828 2.033v15.893q0 1.205.829 2.034.904.829 2.109.829zM520.64 1045.63h36.154q3.767 0 6.403 2.637 2.636 2.636 2.636 6.402v45.193h-6.1v-19.81h-42.03v19.81H511.6v-45.193q0-3.766 2.636-6.402 2.637-2.637 6.403-2.637zm-2.938 28.321h42.03v-19.282q0-1.205-.904-2.034-.828-.904-2.034-.904H520.64q-1.205 0-2.11.904-.828.829-.828 2.034zM574.566 1045.63h45.193q3.766 0 6.403 2.637 2.636 2.636 2.636 6.402v36.155q0 3.766-2.636 6.402-2.637 2.636-6.403 2.636h-45.193zm48.13 45.194v-36.155q0-1.205-.903-2.034-.829-.904-2.034-.904h-36.154q-1.206 0-2.11.904-.828.829-.828 2.034v36.155q0 1.205.828 2.109.904.828 2.11.828h36.154q1.205 0 2.034-.828.904-.904.904-2.11zM637.308 1099.862v-54.232h6.101v54.232zM662.745 1045.63h36.154q3.766 0 6.403 2.637 2.636 2.636 2.636 6.402v36.155q0 3.766-2.636 6.402-2.637 2.636-6.403 2.636h-36.154q-3.767 0-6.403-2.636-2.636-2.636-2.636-6.402v-36.155q0-3.766 2.636-6.402 2.636-2.637 6.403-2.637zm0 48.131h36.154q1.205 0 2.034-.828.904-.904.904-2.11v-36.154q0-1.205-.904-2.034-.829-.904-2.034-.904h-36.154q-1.206 0-2.11.904-.828.829-.828 2.034v36.155q0 1.205.829 2.109.903.828 2.109.828zM745.57 1045.63h36.154q3.766 0 6.403 2.637 2.636 2.636 2.636 6.402v36.155q0 3.766-2.636 6.402-2.637 2.636-6.403 2.636H745.57q-3.767 0-6.403-2.636-2.636-2.636-2.636-6.402v-36.155q0-3.766 2.636-6.402 2.636-2.637 6.403-2.637zm0 48.131h36.154q1.205 0 2.034-.828.904-.904.904-2.11v-36.154q0-1.205-.904-2.034-.829-.904-2.034-.904H745.57q-1.206 0-2.11.904-.828.829-.828 2.034v36.155q0 1.205.829 2.109.903.828 2.109.828zM799.058 1045.706h45.193q3.766 0 6.402 2.636 2.637 2.636 2.637 6.402v15.893q0 3.766-2.637 6.403-2.636 2.636-6.402 2.636h-36.155q-.677 0-2.937-.301v20.487h-6.101zm48.13 24.931v-15.893q0-1.205-.903-2.033-.829-.904-2.034-.904h-36.155q-1.205 0-2.109.904-.828.828-.828 2.033v15.893q0 1.205.828 2.034.904.829 2.11.829h36.154q1.205 0 2.034-.829.904-.829.904-2.034zM855.927 1045.63h54.232v6.101h-24.028v48.131h-6.1v-48.13h-24.104zM915.941 1099.862v-54.232h6.101v54.232zM986.571 1051.731h-45.043q-1.205 0-2.109.904-.828.829-.828 2.034v36.155q0 1.205.828 2.109.904.828 2.11.828h45.042v6.101h-45.043q-3.766 0-6.402-2.636t-2.636-6.402v-36.155q0-3.766 2.636-6.402 2.636-2.637 6.402-2.637h45.043zM1048.28 1054.669v2.109h-6.101v-2.11q0-1.204-.904-2.033-.829-.904-2.034-.904h-36.154q-1.205 0-2.11.904-.828.829-.828 2.034v12.127q0 1.205.829 2.034.904.828 2.109.828h36.154q3.766 0 6.403 2.636 2.636 2.637 2.636 6.403v12.127q0 3.766-2.636 6.402-2.637 2.636-6.403 2.636h-36.154q-3.766 0-6.403-2.636-2.636-2.636-2.636-6.402v-2.11h6.101v2.11q0 1.205.829 2.109.904.828 2.109.828h36.154q1.205 0 2.034-.828.904-.904.904-2.11v-12.126q0-1.205-.904-2.034-.829-.828-2.034-.828h-36.154q-3.766 0-6.403-2.637-2.636-2.636-2.636-6.402v-12.127q0-3.766 2.636-6.402 2.637-2.637 6.403-2.637h36.154q3.766 0 6.403 2.637 2.636 2.636 2.636 6.402z"
 >
 
<animate dur="5s" values="#000000; #d7d7d7; #d7d7d7; #000000" keyTimes="0; 0.5; 0.7; 1" attributeName="fill" repeatCount="indefinite"/>

  </path>




<path d="M347.408 1139.189l12.26-14.598h4.552v29.524h-3.322v-25.752l-13.49 16.033-13.491-16.033v25.752h-3.321v-29.524h4.551zM373.64 1124.59h19.683q2.05 0 3.485 1.436 1.435 1.435 1.435 3.485v24.604h-3.321v-10.785H372.04v10.785h-3.322v-24.604q0-2.05 1.436-3.485 1.435-1.435 3.485-1.435zm-1.6 15.419h22.882v-10.498q0-.656-.492-1.107-.451-.492-1.107-.492H373.64q-.656 0-1.148.492-.451.451-.451 1.107zM432.357 1127.912h-24.521q-.656 0-1.148.492-.451.451-.451 1.107v19.683q0 .656.45 1.148.493.451 1.149.451h24.521v3.322h-24.521q-2.05 0-3.486-1.436-1.435-1.435-1.435-3.485v-19.683q0-2.05 1.435-3.485 1.436-1.435 3.486-1.435h24.521zM463.573 1124.59h3.362v29.525h-3.362v-13.081h-23.578v13.08h-3.322v-29.523h3.322v13.08h23.578zM471.592 1154.115v-29.524h3.321v29.524zM506.803 1150.342v-25.751h3.322v29.524h-4.552l-21.65-25.752v25.752H480.6v-29.524h4.551zM541.74 1124.59v3.322h-23.618v9.76h18.985v3.362h-18.985v9.76h23.619v3.32H514.8v-29.523zM575.41 1150.875l15.09-26.284h3.896l-17.058 29.524h-3.855l-17.099-29.524h3.896zM598.452 1154.115v-29.524h3.321v29.524zM636.78 1129.511v1.149h-3.322v-1.149q0-.656-.492-1.107-.451-.492-1.107-.492h-19.683q-.656 0-1.148.492-.45.451-.45 1.107v6.602q0 .656.45 1.107.492.451 1.148.451h19.683q2.05 0 3.485 1.436 1.435 1.435 1.435 3.485v6.602q0 2.05-1.435 3.485-1.435 1.436-3.485 1.436h-19.683q-2.05 0-3.485-1.436-1.435-1.435-1.435-3.485v-1.148h3.321v1.148q0 .656.451 1.148.492.451 1.148.451h19.683q.656 0 1.107-.45.492-.493.492-1.149v-6.602q0-.656-.492-1.107-.451-.451-1.107-.451h-19.683q-2.05 0-3.485-1.435t-1.435-3.486v-6.602q0-2.05 1.435-3.485t3.485-1.435h19.683q2.05 0 3.485 1.435t1.435 3.485zM641.219 1154.115v-29.524h3.321v29.524zM655.066 1124.59h19.683q2.05 0 3.485 1.436 1.436 1.435 1.436 3.485v19.683q0 2.05-1.436 3.485-1.435 1.436-3.485 1.436h-19.683q-2.05 0-3.485-1.436-1.435-1.435-1.435-3.485v-19.683q0-2.05 1.435-3.485t3.485-1.435zm0 26.203h19.683q.656 0 1.107-.45.492-.493.492-1.149v-19.683q0-.656-.492-1.107-.451-.492-1.107-.492h-19.683q-.656 0-1.148.492-.45.451-.45 1.107v19.683q0 .656.45 1.148.492.451 1.148.451zM710.388 1150.342v-25.751h3.321v29.524h-4.552l-21.65-25.752v25.752h-3.322v-29.524h4.552z">

<animate dur="4s" values="#000000; #d7d7d7; #d7d7d7; #000000" keyTimes="0; 0.5; 0.7; 1" attributeName="fill" repeatCount="indefinite"/>

    </path>


<path  fill="#4e86b1" d="M8.693 1227.31H58.18v6.1H14.794v17.927h34.874v6.176H14.794v24.028h-6.1zM71.863 1227.31h36.154q3.766 0 6.403 2.635 2.636 2.637 2.636 6.403v36.154q0 3.767-2.636 6.403-2.637 2.636-6.403 2.636H71.863q-3.766 0-6.403-2.636-2.636-2.636-2.636-6.403v-36.154q0-3.766 2.636-6.403 2.637-2.636 6.403-2.636zm0 48.13h36.154q1.205 0 2.034-.829.904-.903.904-2.109v-36.154q0-1.205-.904-2.034-.829-.904-2.034-.904H71.863q-1.206 0-2.11.904-.828.829-.828 2.034v36.154q0 1.206.829 2.11.903.828 2.109.828zM179.583 1236.348v2.184h-6.101v-2.184q0-1.205-.904-2.034-.829-.904-2.034-.904H134.39q-1.205 0-2.109.904-.828.829-.828 2.034v36.154q0 1.206.828 2.11.904.828 2.11.828h36.154q1.205 0 2.034-.829.904-.903.904-2.109v-13.407h-13.408v-6.176h19.509v19.583q0 3.767-2.637 6.403-2.636 2.636-6.402 2.636H134.39q-3.766 0-6.402-2.636t-2.636-6.403v-36.154q0-3.766 2.636-6.403 2.636-2.636 6.402-2.636h36.155q3.766 0 6.402 2.636 2.637 2.637 2.637 6.403zM184.108 1273.557l38.113-46.248v7.834l-38.113 46.398zM276.79 1227.31v6.1h-43.385v17.927h34.874v6.176h-34.874v17.927h43.386v6.101h-49.487v-54.232zM284.973 1227.31h45.193q3.766 0 6.402 2.635 2.637 2.637 2.637 6.403v36.154q0 3.767-2.637 6.403-2.636 2.636-6.402 2.636h-45.193zm48.13 45.192v-36.154q0-1.205-.903-2.034-.829-.904-2.034-.904H294.01q-1.205 0-2.109.904-.828.829-.828 2.034v36.154q0 1.206.828 2.11.904.828 2.11.828h36.154q1.205 0 2.034-.829.904-.903.904-2.109zM401.871 1236.348v2.184h-6.1v-2.184q0-1.205-.904-2.034-.829-.904-2.034-.904h-36.155q-1.205 0-2.109.904-.828.829-.828 2.034v36.154q0 1.206.828 2.11.904.828 2.11.828h36.154q1.205 0 2.034-.829.903-.903.903-2.109v-13.407h-13.407v-6.176h19.508v19.583q0 3.767-2.636 6.403-2.636 2.636-6.402 2.636h-36.155q-3.766 0-6.402-2.636t-2.636-6.403v-36.154q0-3.766 2.636-6.403 2.636-2.636 6.402-2.636h36.155q3.766 0 6.402 2.636 2.636 2.637 2.636 6.403zM459.8 1227.31v6.1h-43.385v17.927h34.874v6.176h-34.874v17.927H459.8v6.101h-49.487v-54.232zM542.361 1233.41H497.32q-1.205 0-2.11.904-.828.829-.828 2.034v36.154q0 1.206.829 2.11.904.828 2.109.828h45.042v6.101H497.32q-3.766 0-6.403-2.636-2.636-2.636-2.636-6.403v-36.154q0-3.766 2.636-6.403 2.637-2.636 6.403-2.636h45.042zM559.103 1227.31h36.155q3.766 0 6.402 2.635 2.636 2.637 2.636 6.403v36.154q0 3.767-2.636 6.403-2.636 2.636-6.402 2.636h-36.155q-3.766 0-6.402-2.636-2.637-2.636-2.637-6.403v-36.154q0-3.766 2.637-6.403 2.636-2.636 6.402-2.636zm0 48.13h36.155q1.205 0 2.033-.829.904-.903.904-2.109v-36.154q0-1.205-.904-2.034-.828-.904-2.033-.904h-36.155q-1.205 0-2.109.904-.829.829-.829 2.034v36.154q0 1.206.829 2.11.904.828 2.109.828zM643.473 1254.124l22.522-26.815h8.36v54.232h-6.1v-47.302l-24.782 29.45-24.78-29.45v47.302h-6.102v-54.232h8.36zM682.47 1227.384h45.193q3.767 0 6.403 2.637 2.636 2.636 2.636 6.402v15.893q0 3.766-2.636 6.402-2.636 2.637-6.403 2.637H691.51q-.678 0-2.938-.302v20.488h-6.1zm48.131 24.932v-15.893q0-1.205-.904-2.034-.828-.903-2.034-.903H691.51q-1.205 0-2.11.903-.828.829-.828 2.034v15.893q0 1.205.829 2.034.904.828 2.109.828h36.154q1.206 0 2.034-.828.904-.829.904-2.034zM790.031 1272.502v-45.193h6.102v45.193q0 3.767-2.637 6.403-2.636 2.636-6.402 2.636h-36.155q-3.766 0-6.402-2.636t-2.636-6.403v-45.193h6.1v45.193q0 1.206.83 2.11.903.828 2.108.828h36.155q1.205 0 2.034-.829.903-.903.903-2.109zM801.716 1227.31h54.232v6.1H831.92v48.131h-6.101v-48.13h-24.103zM861.73 1281.541v-54.232h6.101v54.232zM926.41 1274.611v-47.302h6.1v54.232h-8.36l-39.77-47.302v47.302h-6.102v-54.232h8.361zM995.18 1236.348v2.184h-6.1v-2.184q0-1.205-.904-2.034-.829-.904-2.034-.904h-36.155q-1.205 0-2.109.904-.828.829-.828 2.034v36.154q0 1.206.828 2.11.904.828 2.11.828h36.154q1.205 0 2.034-.829.904-.903.904-2.109v-13.407h-13.408v-6.176h19.509v19.583q0 3.767-2.636 6.403-2.637 2.636-6.403 2.636h-36.155q-3.766 0-6.402-2.636t-2.636-6.403v-36.154q0-3.766 2.636-6.403 2.636-2.636 6.402-2.636h36.155q3.766 0 6.403 2.636 2.636 2.637 2.636 6.403z"
>

       <animate dur="3s" values="#000000; #d7d7d7; #d7d7d7; #000000" keyTimes="0; 0.5; 0.7; 1" attributeName="fill" repeatCount="indefinite"/>

  </path>
  
  
  
<path d="M-30.384 1312.114h19.682q2.05 0 3.485 1.435 1.436 1.435 1.436 3.485v24.603h-3.322v-10.784h-22.88v10.784h-3.322v-24.603q0-2.05 1.435-3.485t3.486-1.435zm-1.6 15.418h22.881v-10.498q0-.656-.492-1.107-.45-.492-1.107-.492h-19.682q-.657 0-1.149.492-.45.451-.45 1.107zM25.011 1336.717v-24.603h3.321v24.603q0 2.05-1.435 3.485t-3.485 1.435H3.729q-2.05 0-3.485-1.435t-1.435-3.485v-24.603H2.13v24.603q0 .656.451 1.148.492.451 1.148.451h19.683q.656 0 1.107-.451.492-.492.492-1.148zM31.372 1312.114h29.524v3.321H47.815v26.202h-3.321v-26.202H31.372zM68.841 1312.114h19.683q2.05 0 3.485 1.435t1.435 3.485v19.683q0 2.05-1.435 3.485t-3.485 1.435H68.84q-2.05 0-3.485-1.435-1.436-1.435-1.436-3.485v-19.683q0-2.05 1.436-3.485 1.435-1.435 3.485-1.435zm0 26.202h19.683q.656 0 1.107-.451.492-.492.492-1.148v-19.683q0-.656-.492-1.107-.451-.492-1.107-.492H68.84q-.656 0-1.148.492-.451.451-.451 1.107v19.683q0 .656.45 1.148.493.451 1.149.451zM124.162 1337.865v-25.751h3.322v29.523h-4.552l-21.65-25.75v25.75H97.96v-29.523h4.551zM136.916 1312.114H156.6q2.05 0 3.485 1.435t1.435 3.485v19.683q0 2.05-1.435 3.485t-3.485 1.435h-19.683q-2.05 0-3.485-1.435-1.436-1.435-1.436-3.485v-19.683q0-2.05 1.436-3.485 1.435-1.435 3.485-1.435zm0 26.202H156.6q.656 0 1.107-.451.492-.492.492-1.148v-19.683q0-.656-.492-1.107-.451-.492-1.107-.492h-19.683q-.656 0-1.148.492-.451.451-.451 1.107v19.683q0 .656.45 1.148.493.451 1.15.451zM182.847 1326.712l12.26-14.598h4.552v29.523h-3.321v-25.75l-13.491 16.032-13.49-16.033v25.751h-3.322v-29.523h4.551zM208.915 1312.114h19.683q2.05 0 3.485 1.435 1.436 1.435 1.436 3.485v19.683q0 2.05-1.436 3.485-1.435 1.435-3.485 1.435h-19.683q-2.05 0-3.485-1.435t-1.435-3.485v-19.683q0-2.05 1.435-3.485t3.485-1.435zm0 26.202h19.683q.656 0 1.107-.451.492-.492.492-1.148v-19.683q0-.656-.492-1.107-.451-.492-1.107-.492h-19.683q-.656 0-1.148.492-.45.451-.45 1.107v19.683q0 .656.45 1.148.492.451 1.148.451zM264.155 1336.717v-24.603h3.321v24.603q0 2.05-1.435 3.485t-3.486 1.435h-19.682q-2.05 0-3.486-1.435-1.435-1.435-1.435-3.485v-24.603h3.322v24.603q0 .656.45 1.148.493.451 1.149.451h19.682q.656 0 1.107-.451.493-.492.493-1.148zM301.31 1317.034v1.149h-3.321v-1.149q0-.656-.492-1.107-.451-.492-1.107-.492h-19.683q-.656 0-1.148.492-.45.451-.45 1.107v6.602q0 .656.45 1.107.492.451 1.148.451h19.683q2.05 0 3.485 1.436 1.435 1.435 1.435 3.485v6.602q0 2.05-1.435 3.485t-3.485 1.435h-19.683q-2.05 0-3.485-1.435t-1.435-3.485v-1.148h3.321v1.148q0 .656.451 1.148.492.451 1.148.451h19.683q.656 0 1.107-.451.492-.492.492-1.148v-6.602q0-.656-.492-1.107-.451-.451-1.107-.451h-19.683q-2.05 0-3.485-1.435-1.435-1.436-1.435-3.486v-6.602q0-2.05 1.435-3.485t3.485-1.435h19.683q2.05 0 3.485 1.435t1.435 3.485zM321.844 1312.114h19.682q2.05 0 3.486 1.435 1.435 1.435 1.435 3.485v24.603h-3.322v-10.784h-22.88v10.784h-3.322v-24.603q0-2.05 1.435-3.485t3.486-1.435zm-1.6 15.418h22.881v-10.498q0-.656-.492-1.107-.45-.492-1.107-.492h-19.682q-.656 0-1.148.492-.451.451-.451 1.107zM380.602 1317.075v8.652q0 2.05-1.436 3.486-1.435 1.435-3.485 1.435h-4.51l9.267 10.99h-4.388l-9.226-10.99h-10.825q-.37 0-1.6-.164v11.153h-3.321v-29.482h24.603q2.05 0 3.485 1.435 1.436 1.435 1.436 3.485zm-24.603 10.21h19.682q.656 0 1.107-.45.451-.451.451-1.108v-8.652q0-.656-.45-1.107-.452-.492-1.108-.492h-19.682q-.657 0-1.149.492-.45.451-.45 1.107v8.652q0 .657.45 1.108.492.45 1.149.45zM383.44 1312.114h29.524v3.321h-13.081v26.202h-3.321v-26.202H383.44zM416.111 1341.637v-29.523h3.322v29.523zM425.202 1312.114h26.94v3.321h-23.618v9.76h18.985v3.362h-18.985v13.08h-3.322zM454.794 1341.637v-29.523h3.322v29.523zM493.245 1315.435h-24.521q-.656 0-1.148.492-.451.451-.451 1.107v19.683q0 .656.45 1.148.493.451 1.149.451h24.52v3.321h-24.52q-2.05 0-3.486-1.435-1.435-1.435-1.435-3.485v-19.683q0-2.05 1.435-3.485t3.486-1.435h24.52zM497.561 1341.637v-29.523h3.322v29.523zM511.573 1312.114h19.682q2.05 0 3.486 1.435 1.435 1.435 1.435 3.485v24.603h-3.321v-10.784h-22.881v10.784h-3.322v-24.603q0-2.05 1.435-3.485 1.436-1.435 3.486-1.435zm-1.6 15.418h22.882v-10.498q0-.656-.493-1.107-.45-.492-1.107-.492h-19.682q-.656 0-1.148.492-.451.451-.451 1.107zM540.889 1341.637v-29.564h3.321v26.243h26.203v3.321zM610.138 1337.865v-25.751h3.321v29.523h-4.551l-21.651-25.75v25.75h-3.321v-29.523h4.551zM645.076 1312.114v3.321h-23.62v9.76h18.986v3.362h-18.985v9.76h23.619v3.32h-26.94v-29.523zM675.568 1336.717v-24.603h3.321v24.603q0 2.05-1.435 3.485t-3.485 1.435h-19.683q-2.05 0-3.485-1.435t-1.435-3.485v-24.603h3.321v24.603q0 .656.451 1.148.492.451 1.148.451h19.683q.656 0 1.107-.451.492-.492.492-1.148zM712.888 1317.075v8.652q0 2.05-1.435 3.486-1.435 1.435-3.486 1.435h-4.51l9.267 10.99h-4.388l-9.226-10.99h-10.825q-.37 0-1.6-.164v11.153h-3.32v-29.482h24.602q2.05 0 3.486 1.435 1.435 1.435 1.435 3.485zm-24.603 10.21h19.682q.656 0 1.107-.45.451-.451.451-1.108v-8.652q0-.656-.45-1.107-.452-.492-1.108-.492h-19.682q-.656 0-1.148.492-.451.451-.451 1.107v8.652q0 .657.45 1.108.493.45 1.149.45zM722.205 1312.114h19.683q2.05 0 3.485 1.435t1.435 3.485v24.603h-3.321v-10.784h-22.881v10.784h-3.322v-24.603q0-2.05 1.436-3.485 1.435-1.435 3.485-1.435zm-1.6 15.418h22.882v-10.498q0-.656-.492-1.107-.451-.492-1.107-.492h-19.683q-.656 0-1.148.492-.451.451-.451 1.107zM751.521 1341.637v-29.564h3.322v26.243h26.202v3.321zM820.77 1337.865v-25.751h3.321v29.523h-4.551l-21.65-25.75v25.75h-3.322v-29.523h4.551zM855.708 1312.114v3.321h-23.62v9.76h18.986v3.362H832.09v9.76h23.619v3.32h-26.94v-29.523zM858.604 1312.114h29.523v3.321h-13.08v26.202h-3.322v-26.202h-13.121zM932.403 1312.114h3.609l-10.743 29.523h-2.912l-9.185-25.218-9.185 25.218h-2.87l-10.744-29.523h3.527l8.652 23.7 8.61-23.7h4.02l8.651 23.7zM943.485 1312.114h19.683q2.05 0 3.485 1.435t1.435 3.485v19.683q0 2.05-1.435 3.485t-3.485 1.435h-19.683q-2.05 0-3.485-1.435-1.436-1.435-1.436-3.485v-19.683q0-2.05 1.436-3.485 1.435-1.435 3.485-1.435zm0 26.202h19.683q.656 0 1.107-.451.492-.492.492-1.148v-19.683q0-.656-.492-1.107-.451-.492-1.107-.492h-19.683q-.656 0-1.148.492-.451.451-.451 1.107v19.683q0 .656.45 1.148.493.451 1.15.451zM1002.087 1317.075v8.652q0 2.05-1.436 3.486-1.435 1.435-3.485 1.435h-4.51l9.267 10.99h-4.388l-9.226-10.99h-10.825q-.37 0-1.6-.164v11.153h-3.321v-29.482h24.603q2.05 0 3.485 1.435 1.436 1.435 1.436 3.485zm-24.603 10.21h19.682q.656 0 1.107-.45.451-.451.451-1.108v-8.652q0-.656-.45-1.107-.452-.492-1.108-.492h-19.682q-.657 0-1.149.492-.45.451-.45 1.107v8.652q0 .657.45 1.108.492.45 1.149.45zM1030.307 1312.114h4.265l-12.343 14.762 12.384 14.761h-4.306l-10.99-13.08h-9.512v13.08h-3.363v-29.523h3.363v13.08h9.513z">

<animate dur="4s" values="#000000; #d7d7d7; #d7d7d7; #000000" keyTimes="0; 0.5; 0.7; 1" attributeName="fill" repeatCount="indefinite"/>

    </path>
    
    
    <path  fill="#4e86b1" d="M-22.933 1415.818h6.629l-19.735 54.232h-5.348l-16.872-46.324-16.872 46.324h-5.273l-19.734-54.232h6.478l15.893 43.536 15.817-43.536h7.382l15.893 43.536zM-9.624 1470.05v-54.232h6.1v54.232zM61.081 1424.932v15.893q0 3.766-2.636 6.402-2.637 2.636-6.403 2.636h-8.285l17.023 20.187h-8.06l-16.947-20.187H15.888q-.678 0-2.938-.301v20.488H6.85v-54.157h45.193q3.766 0 6.403 2.636 2.636 2.637 2.636 6.403zm-45.193 18.755h36.154q1.205 0 2.034-.829.829-.828.829-2.033v-15.893q0-1.206-.829-2.034-.829-.904-2.034-.904H15.888q-1.206 0-2.11.904-.828.828-.828 2.034v15.893q0 1.205.829 2.033.903.829 2.109.829zM118.644 1415.818v6.1H75.258v17.927h34.874v6.177H75.258v17.927h43.386v6.1H69.157v-54.231zM126.75 1470.05v-54.308h6.101v48.207h48.131v6.1zM235.01 1415.818v6.1h-43.385v17.927h34.874v6.177h-34.874v17.927h43.385v6.1h-49.486v-54.231zM296.897 1424.856v2.11h-6.101v-2.11q0-1.205-.904-2.033-.828-.904-2.034-.904h-36.154q-1.205 0-2.11.904-.828.828-.828 2.033v12.127q0 1.205.829 2.034.904.828 2.109.828h36.154q3.767 0 6.403 2.637 2.636 2.636 2.636 6.402v12.127q0 3.766-2.636 6.402-2.636 2.637-6.403 2.637h-36.154q-3.766 0-6.403-2.637-2.636-2.636-2.636-6.402v-2.11h6.101v2.11q0 1.205.829 2.109.904.829 2.109.829h36.154q1.206 0 2.034-.83.904-.903.904-2.108v-12.127q0-1.205-.904-2.034-.828-.828-2.034-.828h-36.154q-3.766 0-6.403-2.636-2.636-2.637-2.636-6.403v-12.127q0-3.766 2.636-6.402 2.637-2.636 6.403-2.636h36.154q3.767 0 6.403 2.636 2.636 2.636 2.636 6.402zM358.832 1424.856v2.11h-6.101v-2.11q0-1.205-.904-2.033-.829-.904-2.034-.904H313.64q-1.206 0-2.11.904-.828.828-.828 2.033v12.127q0 1.205.829 2.034.903.828 2.109.828h36.154q3.766 0 6.403 2.637 2.636 2.636 2.636 6.402v12.127q0 3.766-2.636 6.402-2.637 2.637-6.403 2.637H313.64q-3.767 0-6.403-2.637-2.636-2.636-2.636-6.402v-2.11h6.101v2.11q0 1.205.829 2.109.903.829 2.109.829h36.154q1.205 0 2.034-.83.904-.903.904-2.108v-12.127q0-1.205-.904-2.034-.829-.828-2.034-.828H313.64q-3.767 0-6.403-2.636-2.636-2.637-2.636-6.403v-12.127q0-3.766 2.636-6.402t6.403-2.636h36.154q3.766 0 6.403 2.636 2.636 2.636 2.636 6.402zM418.242 1442.632l22.522-26.814h8.36v54.232h-6.1v-47.303l-24.782 29.451-24.78-29.45v47.302h-6.102v-54.232h8.361zM506.876 1415.818v6.1h-43.385v17.927h34.874v6.177h-34.874v17.927h43.385v6.1H457.39v-54.231zM568.763 1424.856v2.11h-6.101v-2.11q0-1.205-.904-2.033-.828-.904-2.034-.904H523.57q-1.205 0-2.11.904-.828.828-.828 2.033v12.127q0 1.205.829 2.034.904.828 2.109.828h36.154q3.767 0 6.403 2.637 2.636 2.636 2.636 6.402v12.127q0 3.766-2.636 6.402-2.636 2.637-6.403 2.637H523.57q-3.766 0-6.403-2.637-2.636-2.636-2.636-6.402v-2.11h6.101v2.11q0 1.205.829 2.109.904.829 2.109.829h36.154q1.206 0 2.034-.83.904-.903.904-2.108v-12.127q0-1.205-.904-2.034-.828-.828-2.034-.828H523.57q-3.766 0-6.403-2.636-2.636-2.637-2.636-6.403v-12.127q0-3.766 2.636-6.402 2.637-2.636 6.403-2.636h36.154q3.767 0 6.403 2.636 2.636 2.636 2.636 6.402zM626.33 1415.818h6.176v54.232h-6.177v-24.028h-43.31v24.028h-6.101v-54.232h6.101v24.027h43.31zM709.564 1463.12v-47.302h6.1v54.232h-8.36l-39.77-47.303v47.303h-6.101v-54.232h8.36zM773.74 1415.818v6.1h-43.385v17.927h34.874v6.177h-34.874v17.927h43.386v6.1h-49.487v-54.231zM779.06 1415.818h54.232v6.1h-24.028v48.132h-6.1v-48.131H779.06zM914.623 1415.818h6.628l-19.735 54.232h-5.347l-16.873-46.324-16.872 46.324h-5.272l-19.735-54.232h6.478l15.893 43.536 15.818-43.536h7.381l15.893 43.536zM934.978 1415.818h36.155q3.766 0 6.402 2.636 2.637 2.636 2.637 6.402v36.155q0 3.766-2.637 6.402-2.636 2.637-6.402 2.637h-36.155q-3.766 0-6.402-2.637-2.636-2.636-2.636-6.402v-36.155q0-3.766 2.636-6.402t6.402-2.636zm0 48.13h36.155q1.205 0 2.034-.828.904-.904.904-2.11v-36.154q0-1.205-.904-2.033-.829-.904-2.034-.904h-36.155q-1.205 0-2.109.904-.828.828-.828 2.033v36.155q0 1.205.828 2.109.904.829 2.11.829zM1042.623 1424.932v15.893q0 3.766-2.636 6.402t-6.402 2.636h-8.286l17.023 20.187h-8.06l-16.947-20.187H997.43q-.678 0-2.938-.301v20.488h-6.1v-54.157h45.193q3.766 0 6.402 2.636 2.636 2.637 2.636 6.403zm-45.193 18.755h36.155q1.205 0 2.033-.829.829-.828.829-2.033v-15.893q0-1.206-.829-2.034-.828-.904-2.033-.904H997.43q-1.205 0-2.11.904-.828.828-.828 2.034v15.893q0 1.205.829 2.033.904.829 2.109.829zM1094.461 1415.818h7.834l-22.672 27.116 22.747 27.116h-7.909l-20.186-24.028H1056.8v24.028h-6.176v-54.232h6.176v24.027h17.475z"
>

       <animate dur="3s" values="#000000; #d7d7d7; #d7d7d7; #000000" keyTimes="0; 0.5; 0.7; 1" attributeName="fill" repeatCount="indefinite"/>

  </path>
  
  
  
<path d="M430.657 1497.15h3.608l-10.743 29.524h-2.911l-9.186-25.218-9.185 25.218h-2.87l-10.743-29.524h3.526l8.652 23.701 8.611-23.7h4.019l8.652 23.7zm7.245 29.524v-29.565h3.321v26.244h26.203v3.321zm36.917-29.524H494.5q2.05 0 3.486 1.436 1.435 1.435 1.435 3.485v24.603H496.1v-10.784h-22.88v10.784h-3.322v-24.603q0-2.05 1.435-3.485 1.436-1.436 3.486-1.436zm-1.6 15.418H496.1v-10.497q0-.656-.492-1.107-.45-.492-1.107-.492H474.82q-.656 0-1.148.492-.451.451-.451 1.107zm57.077 10.334v-25.752h3.322v29.524h-4.552l-21.65-25.751v25.751h-3.322v-29.524h4.552zm60.217-25.752h3.608l-10.743 29.524h-2.911l-9.185-25.218-9.186 25.218h-2.87l-10.743-29.524h3.526l8.652 23.701 8.611-23.7h4.019l8.652 23.7zm7.245 29.524v-29.524h3.322v29.524zm25.124-13.819v3.363H606.89v-3.363zm5.191-15.705h26.94v3.322h-23.62v9.76h18.986v3.362h-18.985v13.08h-3.321zm29.591 29.524v-29.524h3.322v29.524z">

<animate dur="4s" values="#000000; #d7d7d7; #d7d7d7; #000000" keyTimes="0; 0.5; 0.7; 1" attributeName="fill" repeatCount="indefinite"/>

    </path>









</svg>
