<svg xmlns="http://www.w3.org/2000/svg" width="45.608" height="44" viewBox="0 0 12.067 11.642"><g fill="#000">




<path d="M4.768 7.88a.28.28 0 0 1-.146-.11c-.058-.084-.054.042-.055-1.962 0-1.825 0-1.846.02-1.899a.297.297 0 0 1 .15-.165.231.231 0 0 1 .127-.03c.107 0-.036-.078 1.408.758l.674.39c1.177.678 1.194.688 1.24.736.063.063.093.14.086.225a.325.325 0 0 1-.088.198 7.125 7.125 0 0 1-.44.266 317.54 317.54 0 0 0-.887.513l-.451.26-.258.149a3668.628 3668.628 0 0 1-.97.56 1.998 1.998 0 0 1-.222.115.306.306 0 0 1-.188-.004zm.572-.614l.972-.56.877-.506c.526-.303.584-.339.594-.367.02-.055.002-.074-.158-.166-.743-.43-2.035-1.177-2.21-1.28-.364-.21-.395-.227-.42-.227-.012 0-.034.01-.047.024l-.024.024v1.593c0 1.108.003 1.598.01 1.612.014.025.047.04.078.032.014-.003.16-.083.328-.18z">
<animate dur="2s" values="white; #d7d7d7; #d7d7d7; white" keyTimes="0; 0.5; 0.7; 1" attributeName="fill" repeatCount="indefinite"/></path>



<path d="M4.937 7.484a.24.24 0 0 1-.126-.088c-.05-.068-.047.034-.047-1.584 0-1.473 0-1.491.017-1.534a.246.246 0 0 1 .129-.133.209.209 0 0 1 .11-.024c.091 0-.032-.063 1.21.612l.579.315c1.011.548 1.025.555 1.066.594a.22.22 0 0 1 .073.182.256.256 0 0 1-.076.16c-.016.013-.185.11-.378.214a272.864 272.864 0 0 0-1.15.624l-.221.12-.524.285-.31.167a1.77 1.77 0 0 1-.19.094.28.28 0 0 1-.162-.004zm.49-.496a1419.459 1419.459 0 0 1 1.59-.86c.452-.244.502-.274.51-.296.018-.045.002-.06-.135-.134-.639-.347-1.75-.95-1.9-1.033-.313-.17-.34-.184-.36-.184-.01 0-.03.009-.04.02l-.022.02v1.285c0 .894.003 1.29.01 1.302.01.02.04.031.066.026.012-.003.138-.068.282-.145z">
<animate dur="2s" values="white; #d7d7d7; #d7d7d7; white" keyTimes="0; 0.5; 0.7; 1" attributeName="fill" repeatCount="indefinite"/></path>


<path d="M5.127 7.242a.194.194 0 0 1-.1-.075c-.041-.059-.039.028-.04-1.36 0-1.264 0-1.28.014-1.316a.205.205 0 0 1 .105-.114.16.16 0 0 1 .088-.021c.074 0-.026-.054.975.525l.467.27c.816.47.827.477.86.51a.196.196 0 0 1 .059.156.226.226 0 0 1-.061.137c-.013.012-.15.095-.305.185a224.14 224.14 0 0 0-.615.355l-.312.18-.179.103c-.1.059-.286.166-.422.244l-.25.144a1.378 1.378 0 0 1-.154.08.215.215 0 0 1-.13-.002zm.396-.425l.674-.389.608-.35c.364-.21.404-.234.411-.254.014-.038.001-.051-.11-.115l-1.531-.886c-.252-.147-.274-.158-.29-.158-.01 0-.024.007-.033.017l-.017.017v1.103c0 .768.002 1.107.007 1.117.01.017.033.027.054.022.01-.002.112-.058.227-.124z">

<animate dur="2s" values="white; #d7d7d7; #d7d7d7; white" keyTimes="0; 0.5; 0.7; 1" attributeName="fill" repeatCount="indefinite"/></path>


<path d="M5.26 7.113a.16.16 0 0 1-.083-.067c-.033-.051-.031.026-.032-1.199 0-1.115 0-1.128.011-1.16a.177.177 0 0 1 .086-.101.123.123 0 0 1 .072-.019c.06 0-.021-.047.795.463l.382.239c.665.414.675.42.701.45a.18.18 0 0 1 .048.137.206.206 0 0 1-.05.12c-.01.011-.122.085-.248.163a191.79 191.79 0 0 0-.757.473l-.146.09-.344.216-.204.127a1.12 1.12 0 0 1-.125.07.16.16 0 0 1-.107-.002zm.322-.375l.55-.343.496-.309c.297-.185.33-.207.336-.224.01-.034 0-.045-.09-.101l-1.25-.782c-.205-.129-.223-.14-.236-.14-.008 0-.02.007-.027.016l-.014.014v.974c0 .677.002.976.006.985a.04.04 0 0 0 .044.02 2.81 2.81 0 0 0 .185-.11z">

<animate dur="2s" values="white; #d7d7d7; #d7d7d7; white" keyTimes="0; 0.5; 0.7; 1" attributeName="fill" repeatCount="indefinite"/></path>



<path style="line-height:normal;font-variant-ligatures:normal;font-variant-position:normal;font-variant-caps:normal;font-variant-numeric:normal;font-variant-alternates:normal;font-feature-settings:normal;text-indent:0;text-align:start;text-decoration-line:none;text-decoration-style:solid;text-decoration-color:#000;text-transform:none;text-orientation:mixed;white-space:normal;shape-padding:0;isolation:auto;mix-blend-mode:normal;solid-color:#000;solid-opacity:1" d="M6.035.268a5.638 5.638 0 0 0-5.63 5.63 5.636 5.636 0 0 0 5.63 5.626 5.635 5.635 0 0 0 5.627-5.627A5.636 5.636 0 0 0 6.035.268zm0 1.086a4.534 4.534 0 0 1 4.542 4.543 4.533 4.533 0 0 1-4.542 4.542A4.534 4.534 0 0 1 1.49 5.897a4.536 4.536 0 0 1 4.544-4.543z" color="#000" font-weight="400" font-family="sans-serif" overflow="visible" fill-rule="evenodd" paint-order="stroke fill markers">
<animate dur="2s" values="white; #d7d7d7; #d7d7d7; white" keyTimes="0; 0.5; 0.7; 1" attributeName="fill" repeatCount="indefinite"/></path>


</g>

</svg>
