<svg xmlns="http://www.w3.org/2000/svg" width="45.616" height="51.639">


	
    
    
    
    
    <path id="wifi3" fill="#4e86b1" fill-opacity="0.5" d="M27.861 25.962a4.992 4.992 0 0 1-4.986 4.986 4.991 4.991 0 0 1-4.985-4.986 4.991 4.991 0 0 1 4.985-4.986 4.992 4.992 0 0 1 4.986 4.986zm-8.019 0a3.036 3.036 0 0 0 3.033 3.033 3.037 3.037 0 0 0 3.033-3.033 3.036 3.036 0 0 0-3.033-3.033 3.036 3.036 0 0 0-3.033 3.033zM33.37 34.669a.972.972 0 0 1-.256.659 13.915 13.915 0 0 1-10.238 4.508c-3.953 0-7.729-1.692-10.359-4.643a.977.977 0 0 1 1.458-1.299 11.933 11.933 0 0 0 8.901 3.99c3.337 0 6.543-1.413 8.798-3.875a.976.976 0 0 1 1.696.66zM33.368 17.254a.976.976 0 0 1-1.696.66 11.954 11.954 0 0 0-8.796-3.874 11.931 11.931 0 0 0-8.898 3.988.977.977 0 0 1-1.458-1.299 13.885 13.885 0 0 1 10.356-4.642 13.91 13.91 0 0 1 10.235 4.508.971.971 0 0 1 .257.66z">
		<animate
        id="four"
        attributeName="fill-opacity"
        dur="500ms"
        values="0.5;1;0.5"
        calcMode="linear"
        begin="two.end+0.05s"/>
	</path>
	
    
    
    <path id="wifi1" fill="#4e86b1" fill-opacity="0.5" d="M40.489 42.174c0 .25-.095.499-.285.69-4.686 4.695-10.92 7.282-17.554 7.282-6.7 0-12.977-2.63-17.675-7.405a.976.976 0 1 1 1.392-1.37c4.328 4.4 10.11 6.822 16.283 6.822a22.693 22.693 0 0 0 16.171-6.71.976.976 0 0 1 1.668.69zM40.489 9.008a.976.976 0 0 1-1.667.69A22.7 22.7 0 0 0 22.65 2.99c-6.173 0-11.955 2.423-16.284 6.821a.977.977 0 0 1-1.391-1.37C9.673 3.669 15.95 1.039 22.65 1.039c6.633 0 12.867 2.586 17.553 7.28.19.19.286.44.286.69z">
		<animate
        id="two"
        attributeName="fill-opacity"
        dur="600ms"
        values="0.5;1;0.5"
        calcMode="linear"
        begin="one.end+0.05s"/>
        
        
        <animate dur="3s" values="#000000; #4e86b1; #d7d7d7; #000000" keyTimes="0; 0.5; 0.7; 1" attributeName="fill" repeatCount="indefinite"/>
        
        
	</path>
	
    
    
    
    
    
    <circle id="dot" fill="transparent" fill-opacity="0.5" cx="9.9" cy="15.3" r="1">
		<animate
        id="one"
        attributeName="fill-opacity"
        dur="500ms"
        values="0.5;1;0.5"
        calcMode="linear"
        begin="0s;four.end+0.05s"/>  
	</circle>
    
    
    
    
    
</svg>
