<svg xmlns="http://www.w3.org/2000/svg" width="45" height="155"><g transform="translate(-44.619   1.326)" stroke="#000" stroke-width=".7" viewBox="0 0 300 1000 0 0 300 1000">




<circle r=".452" cy="15.36" cx="74.357"/><circle r=".452" cy="15.01" cx="71.034"/><circle r=".452" cy="13.612" cx="70.165"/><circle r=".452" cy="11.67" cx="70.017"/><circle r=".452" cy="10.117" cx="71.848"/><circle r=".452" cy="12.718" cx="67.745"/><circle r=".452" cy="16.372" cx="68.399"/><circle r=".452" cy="17.384" cx="65.491"/><circle r=".452" cy="12.613" cx="66.579"/><circle r=".452" cy="10.416" cx="66.886"/><circle r=".452" cy="10.26" cx="60.925"/><circle r=".452" cy="11.256" cx="63.946"/><circle r=".452" cy="7.974" cx="63.866"/><circle r=".452" cy="7.001" cx="61.576"/><circle r=".452" cy="15.093" cx="62.132"/><circle r=".452" cy="14.908" cx="64.76"/><circle r=".452" cy="15.997" cx="70.278"/><circle r=".452" cy="17.087" cx="69.826"/><circle r=".452" cy="17.765" cx="67.745"/><circle r=".452" cy="13.971" cx="74.522"/><circle r=".452" cy="15.545" cx="69.112"/><circle r=".452" cy="16.302" cx="71.034"/><circle r=".452" cy="13.769" cx="71.532"/><circle r=".452" cy="12.068" cx="73.471"/><circle r=".452" cy="12.501" cx="74.81"/><circle r=".452" cy="13.066" cx="76.699"/><circle r=".452" cy="12.397" cx="76.699"/><circle r=".452" cy="15.85" cx="78.249"/><circle r=".452" cy="16.483" cx="79.057"/><circle r=".452" cy="17.539" cx="79.048"/><circle r=".452" cy="18.304" cx="77.152"/><circle r=".452" cy="18.784" cx="78.038"/><circle r=".452" cy="19.384" cx="77.629"/><circle r=".452" cy="19.384" cx="78.082"/><circle r=".452" cy="20.616" cx="78.202"/><circle r=".452" cy="20.616" cx="77.629"/><circle r=".452" cy="20.428" cx="72.48"/><circle r=".452" cy="21.521" cx="77.867"/><circle r=".452" cy="23.763" cx="73.744"/><circle r=".452" cy="26.7" cx="72.751"/><circle r=".452" cy="28.371" cx="72.144"/><circle r=".452" cy="32.168" cx="73.523"/><circle r=".452" cy="37.054" cx="72.364"/><circle r=".452" cy="32.943" cx="74.141"/><circle r=".452" cy="37.624" cx="76.528"/><circle r=".452" cy="40.083" cx="77.46"/><circle r=".452" cy="30.068" cx="73.975"/><circle r=".452" cy="31.218" cx="72.596"/><circle r=".452" cy="33.395" cx="72.219"/><circle r=".452" cy="33.847" cx="66.941"/><circle r=".452" cy="34.973" cx="67.068"/><circle r=".452" cy="34.166" cx="63.14"/><circle r=".452" cy="40.853" cx="63.592"/><circle r=".452" cy="45.757" cx="66.998"/><circle r=".452" cy="45.835" cx="69.909"/><circle r=".452" cy="45.757" cx="72.259"/><circle r=".452" cy="49.383" cx="71.329"/><circle r=".452" cy="51.908" cx="71.029"/><circle r=".452" cy="59.088" cx="73.743"/><circle r=".452" cy="57.602" cx="77.89"/><circle r=".452" cy="69.684" cx="76.149"/><circle r=".452" cy="70.428" cx="77.946"/><circle r=".452" cy="72.315" cx="77.557"/><circle r=".452" cy="73.75" cx="77.468"/><circle r=".452" cy="74.287" cx="74.94"/><circle r=".452" cy="80.2" cx="79.233"/><circle r=".452" cy="79.867" cx="74.94"/><circle r=".452" cy="78.811" cx="73.222"/><circle r=".452" cy="80.652" cx="72.318"/><circle r=".452" cy="76.73" cx="71.188"/><circle r=".452" cy="74.019" cx="72.41"/><circle r=".452" cy="73.923" cx="71.508"/><circle r=".452" cy="73.298" cx="70.619"/><circle r=".452" cy="71.243" cx="69.77"/><circle r=".452" cy="74.967" cx="70.922"/><circle r=".452" cy="74.74" cx="78.699"/><circle r=".452" cy="77.182" cx="80.401"/><circle r=".452" cy="79.57" cx="80.923"/><circle r=".452" cy="82.683" cx="81.376"/><circle r=".452" cy="85.196" cx="81.538"/><circle r=".452" cy="85.777" cx="81.139"/><circle r=".452" cy="85.586" cx="79.949"/><circle r=".452" cy="86.075" cx="79.233"/><circle r=".452" cy="82.104" cx="79.685"/><circle r=".452" cy="83.603" cx="80.209"/><circle r=".452" cy="83.603" cx="79.497"/><circle r=".452" cy="82.049" cx="74.501"/><circle r=".452" cy="84.508" cx="74.701"/><circle r=".452" cy="84.956" cx="69.828"/><circle r=".452" cy="94.485" cx="68.471"/><circle r=".452" cy="103.63" cx="68.471"/><circle r=".452" cy="110.03" cx="65.737"/><circle r=".452" cy="108.456" cx="68.471"/><circle r=".452" cy="105.103" cx="74.802"/><circle r=".452" cy="103.46" cx="78.058"/><circle r=".452" cy="106.511" cx="77.808"/><circle r=".452" cy="105.006" cx="84.292"/><circle r=".452" cy="109.248" cx="83.394"/><circle r=".452" cy="116.127" cx="76.331"/><circle r=".452" cy="113.093" cx="77.808"/><circle r=".452" cy="106.294" cx="86.726"/><circle r=".452" cy="111.597" cx="85.102"/><circle r=".452" cy="104.942" cx="65.982"/><circle r=".452" cy="110.483" cx="68.094"/><circle r=".452" cy="110.935" cx="68.019"/><circle r=".452" cy="114.177" cx="67.641"/><circle r=".452" cy="112.05" cx="66.642"/><circle r=".452" cy="124.381" cx="57.108"/><circle r=".452" cy="125.172" cx="55.732"/><circle r=".452" cy="127.806" cx="53.209"/><circle r=".452" cy="128.151" cx="53.385"/><circle r=".452" cy="129.649" cx="51.176"/><circle r=".452" cy="132.077" cx="47.852"/><circle r=".452" cy="132.969" cx="47.977"/><circle r=".452" cy="140.398" cx="54.711"/><circle r=".452" cy="138.92" cx="56.655"/><circle r=".452" cy="139.206" cx="62.013"/><circle r=".452" cy="146.778" cx="65.897"/><circle r=".452" cy="142.908" cx="67.184"/><circle r=".452" cy="142.559" cx="70.775"/><circle r=".452" cy="146.699" cx="78.93"/><circle r=".452" cy="147.23" cx="82.047"/><circle r=".452" cy="149.065" cx="83.726"/><circle r=".452" cy="149.895" cx="83.274"/><circle r=".452" cy="150.493" cx="73.698"/><circle r=".452" cy="149.221" cx="75.324"/><circle r=".452" cy="143.146" cx="63.995"/><circle r=".452" cy="148.85" cx="64.842"/><circle r=".452" cy="145.259" cx="60.249"/><circle r=".452" cy="149.588" cx="60.025"/><circle r=".452" cy="148.316" cx="60.025"/><circle r=".452" cy="147.641" cx="65.489"/><circle r=".452" cy="126.53" cx="55.159"/><circle r=".452" cy="128.303" cx="58.152"/><circle r=".452" cy="129.733" cx="60.297"/><circle r=".452" cy="128.603" cx="63.376"/><circle r=".452" cy="123.95" cx="68.343"/><circle r=".452" cy="119.904" cx="72.44"/><circle r=".452" cy="129.28" cx="70.508"/><circle r=".452" cy="130.526" cx="62.924"/><circle r=".452" cy="131.696" cx="61.933"/><circle r=".452" cy="133.617" cx="61.109"/><circle r=".452" cy="135.147" cx="65.467"/><circle r=".452" cy="138.071" cx="70.323"/><circle r=".452" cy="140.205" cx="66.113"/><circle r=".452" cy="139.945" cx="68.795"/><circle r=".452" cy="133.617" cx="60.657"/><circle r=".452" cy="133.421" cx="58.291"/><circle r=".452" cy="131.696" cx="55.299"/><circle r=".452" cy="132.187" cx="52.729"/><circle r=".452" cy="116.127" cx="63.481"/><circle r=".452" cy="84.961" cx="75.153"/><circle r=".452" cy="87.373" cx="65.809"/><circle r=".452" cy="84.961" cx="75.976"/><circle r=".452" cy="85.777" cx="77.195"/><circle r=".452" cy="85.777" cx="77.988"/><circle r=".452" cy="84.135" cx="76.284"/><circle r=".452" cy="84.135" cx="74.128"/><circle r=".452" cy="87.101" cx="65.65"/><circle r=".452" cy="86.845" cx="61.507"/><circle r=".452" cy="84.131" cx="60.668"/><circle r=".452" cy="82.943" cx="60.036"/><circle r=".452" cy="80.582" cx="58.899"/><circle r=".452" cy="78.894" cx="62.747"/><circle r=".452" cy="71.848" cx="62.947"/><circle r=".452" cy="70.183" cx="63.039"/><circle r=".452" cy="67.851" cx="57.301"/><circle r=".452" cy="66.936" cx="57.754"/><circle r=".452" cy="62.865" cx="56.63"/><circle r=".452" cy="64.731" cx="59.001"/><circle r=".452" cy="59.961" cx="59.193"/><circle r=".452" cy="59.961" cx="59.808"/><circle r=".452" cy="58.054" cx="62.452"/><circle r=".452" cy="55.258" cx="58.219"/><circle r=".452" cy="53.445" cx="59.26"/><circle r=".452" cy="49.247" cx="55.905"/><circle r=".452" cy="55.481" cx="63.633"/><circle r=".452" cy="52.927" cx="65.27"/><circle r=".452" cy="68.386" cx="68.471"/><circle r=".452" cy="74.164" cx="56.325"/><circle r=".452" cy="88.006" cx="62.747"/><circle r=".452" cy="83.143" cx="72.77"/><circle r=".452" cy="51.982" cx="69.349"/><circle r=".452" cy="45.903" cx="64.001"/><circle r=".452" cy="45.945" cx="64.447"/><circle r=".452" cy="46.148" cx="61.853"/><circle r=".452" cy="47.317" cx="62.287"/><circle r=".452" cy="50.574" cx="62.483"/><circle r=".452" cy="48.223" cx="59.124"/><circle r=".452" cy="34.521" cx="69.621"/><circle r=".452" cy="36.128" cx="72.311"/><circle r=".452" cy="21.383" cx="71.672"/><circle r=".452" cy="22.716" cx="71.387"/><circle r=".452" cy="26.055" cx="70.174"/><circle r=".452" cy="27.498" cx="65.826"/><circle r=".452" cy="29.199" cx="61.831"/><circle r=".452" cy="32.335" cx="58.764"/><circle r=".452" cy="32.63" cx="59.866"/><circle r=".452" cy="36.208" cx="60.437"/><circle r=".452" cy="37.054" cx="58.631"/><circle r=".452" cy="43.32" cx="56.133"/><circle r=".452" cy="40.323" cx="57.34"/><circle r=".452" cy="36.309" cx="57.727"/><circle r=".452" cy="28.721" cx="70.47"/><circle r=".452" cy="20.216" cx="67.518"/><circle r=".452" cy="20.216" cx="66.462"/><circle r=".452" cy="23.005" cx="67.066"/><circle r=".452" cy="20.668" cx="64.52"/><circle r=".452" cy="22.807" cx="64.408"/><circle r=".452" cy="26.7" cx="61.298"/><circle r=".452" cy="30.52" cx="58.707"/><circle r=".452" cy="22.144" cx="74.357"/><circle r=".452" cy="16.339" cx="77.75"/><circle r=".452" cy="15.22" cx="80.129"/><circle r=".452" cy="12.068" cx="78.249"/><circle r=".452" cy="10.648" cx="78.449"/><circle r=".452" cy="10.641" cx="77.152"/><circle r=".452" cy="8.836" cx="77.99"/><circle r=".452" cy="7.645" cx="76.089"/><circle r=".452" cy="5.597" cx="77.99"/><circle r=".452" cy="3.399" cx="75.845"/><circle r=".452" cy="6.332" cx="74.189"/><circle r=".452" cy="11.946" cx="76.247"/><circle r=".452" cy="13.16" cx="75.476"/><circle r=".452" cy="9.856" cx="75.929"/><circle r=".452" cy="9.288" cx="76.899"/><circle r=".452" cy="11.256" cx="71.296"/><circle r=".452" cy="11.217" cx="68.939"/><circle r=".452" cy="9.128" cx="69.282"/><circle r=".452" cy="5.212" cx="66.823"/><circle r=".452" cy="2.781" cx="65.303"/><circle r=".452" cy="4.669" cx="69.565"/><circle r=".452" cy="1.797" cx="69.824"/><circle r=".452" cy="4.669" cx="68.379"/><circle r=".452" cy="1.887" cx="67.582"/><circle r=".452" cy="9.195" cx="68.582"/>


</g>

<path class="path" fill="none" stroke-width="0.5" stroke ="white" stroke-dasharray= "200" stroke-dashoffset="200"

d="M14.036 39.847l-.062-.54.513-.06-.006.72zm.205-.58l-.267.04a.269.269 0 0 1 .226-.298c.143 0 .266.1.287.239zm.246 0l.328 6.067-.513.04-.328-6.086zm.082 6.087l.246-.02c.02.14-.103.26-.226.28a.285.285 0 0 1-.287-.24zm.246 0l.491 15.663h-.512l-.492-15.663zm.246 15.663h.245c.02.14-.102.26-.245.26a.268.268 0 0 1-.267-.26zm-.267 0v-.459l.465-.147.047.606z


M11.865 64.342l2.947-3.456.37.352-2.946 3.456zM35.542 85.18l1.03-1.013.372.372-1.03 1.035zM29.917 83.587l5.13 1.532-.164.517-5.11-1.552zM33.131 41.828l-6.017 9.064-.433-.29 6.018-9.085zM16.234 37.668l3.07 4.615-.433.31-3.07-4.635zm2.864 4.78l.206-.165a.286.286 0 0 1-.062.372c-.123.083-.288.062-.37-.062zm.247.063l-1.545 5.4-.495-.144 1.546-5.401zM27.094 22.707l.783-.766.35.373-.762.765zM33.44 72.04l-.267 2.07-.516-.083.268-2.049zm-.515 2.028l.248.042c-.021.145-.145.248-.289.227a.277.277 0 0 1-.227-.31zm.227-.124l1.278 2.566-.474.248-1.278-2.566zM39.52 106.971l-6.141-1.531.103-.518 6.161 1.532zm-6.1-1.8l-.041.269a.297.297 0 0 1-.206-.331c.04-.145.185-.228.309-.187zm-.227.124l-8.201-18.52.474-.229 8.201 18.521zM25.24 86.67l-.247.103c-.042-.124 0-.29.144-.352.124-.062.288 0 .33.124zm.103.227l-4.08 2.07-.227-.476 4.08-2.07zM33.296 108.026l5.626 2.835-.227.476-5.625-2.835z


M39.684 106.474l2.556 1.283-.227.497-2.555-1.304zM20.705 136.997l-3.338-3.352.371-.372 3.318 3.331zM21.893 141.772l1.017 2.774-.477.19-1.038-2.752z


M21.385 141.985l-.762-5.132.515-.083.763 5.132zm-.494-5.174l-.268.042c-.02-.166.082-.29.227-.31.144-.022.268.082.288.227zm-.247-.083l3.07-11.319.495.145-3.07 11.32zM34.594 148.586l-3.585 2.586-.289-.455 3.586-2.566z


M39.066 151.214h-8.263v-.538h8.263zm-8.263-.27v.27c-.144 0-.247-.124-.247-.27 0-.144.103-.268.247-.268zm-.041.27l-9.789-1.531.062-.539 9.809 1.532zM13.843 129.9l2.061 1.282-.268.456-2.06-1.283z


M16.543 135.59l-1.03-4.118.494-.124 1.03 4.097zm-.783-4.18l-.247.062a.266.266 0 0 1 .185-.331.248.248 0 0 1 .31.207zm-.083-.269l3.07-1.014.166.497-3.07 1.034zM30.473 106.495l2.823 1.531-.247.476-2.823-1.552zm2.7 1.759l.123-.228c.124.062.165.228.103.352a.254.254 0 0 1-.35.124zm.164.228l-9.994 7.698-.309-.414 9.974-7.719zm-10.092 7.413l.098.285c-.103.103-.268.082-.37-.042-.083-.124-.063-.29.061-.372zm.16.223l-9.48 14.154-.432-.31 9.48-14.134zm-9.685 14.01l.206.144a.242.242 0 0 1-.35.062.27.27 0 0 1-.083-.372zm.185.165l-2.802 3.352-.392-.352 2.803-3.352zm-3.008 3.166l.206.186a.282.282 0 0 1-.371.02c-.103-.103-.124-.268-.02-.372zm.04.269l-2.554.517-.103-.538 2.575-.517zM10.217 142.005l1.792-1.552.33.414-1.793 1.531zm1.957-1.345l-.165-.207a.264.264 0 1 1 .33.414zm.02-.269l5.38.27-.021.516-5.379-.248z


M7.146 131.43l5.337 9.168-.453.27-5.317-9.168zm5.11 9.292l.227-.124c.083.124.042.29-.082.352a.268.268 0 0 1-.371-.083zm.165-.186l9.15 7.884-.35.414-9.13-7.905zM30.246 106.474l3.07-1.53.228.475-3.07 1.531zm3.174-1.303l-.103-.228a.254.254 0 0 1 .35.124c.062.124 0 .29-.123.352zm.268.02l-.248 3.084-.535-.042.268-3.083zM13.74 135.156l1.793-3.87.474.228-1.793 3.87zm2.02-3.746l-.227-.124c.062-.124.206-.186.35-.124.124.062.186.227.124.352zm-.186-.186l2.061-2.07.35.373-2.04 2.07zm2.246-1.883l-.185-.186a.26.26 0 0 1 .37 0 .285.285 0 0 1-.02.372zm-.185-.186l15.62-14.652.35.394-15.62 14.65zM33.42 114.69l-.165-.187a.26.26 0 0 1 .371 0c.082.125.082.29-.02.394zm-.124-.228l5.358-3.6.289.455-5.379 3.6zm5.502-3.373l-.144-.228a.268.268 0 0 1 .371.083.27.27 0 0 1-.082.373zm.206-.165l1.793 2.317-.391.331-1.793-2.317zM10.773 128.078l3.07 1.8-.268.477-3.07-1.8zm2.947 2.05l.123-.25a.298.298 0 0 1 .103.373c-.082.124-.226.166-.37.104zm-.248.082l-1.277-3.87.494-.165 1.278 3.849zM25.61 140.122l-4.863-3.083.268-.455 4.863 3.083zm-4.72-3.31l-.143.227a.27.27 0 0 1-.083-.373c.083-.124.227-.165.35-.083zm-.205-.187l5.131-5.65.37.352-5.11 5.65zM19.572 144.757l6.76-.765.061.538-6.76.766zM21.633 141.674l2.555-.248.041.538-2.555.248z


M16.048 147.054l-.268 3.104-.515-.04.268-3.105zm-.515 3.084l.247.02c0 .145-.123.249-.267.249a.29.29 0 0 1-.248-.29zm.247-.062l.268 1.303-.515.104-.268-1.304zm0 1.345l.268-.042a.274.274 0 0 1-.206.31c-.144.021-.288-.061-.309-.206zm.021-.27l13.291.787-.02.538-13.292-.786zm13.247 1.023l.044-.236c.145 0 .268.124.248.27a.26.26 0 0 1-.268.268zm.024-.236l9.726-.517.02.538-9.726.517zm9.726-.248v-.27c.145 0 .268.104.268.25a.29.29 0 0 1-.247.289zm-.247-.083l.268-.786.494.165-.267.787zm.515-.703l-.247-.083c.041-.145.185-.207.33-.166.123.042.206.207.164.331zm-.206.165L37.315 149l.412-.31 1.545 2.07zm-1.115-2.055l-.43-.014c-.083-.124-.062-.29.061-.373a.242.242 0 0 1 .35.062zm-.266.09l-3.07-.518.082-.517 3.07.517zm-3.029-.787l-.041.269c-.144-.02-.227-.166-.206-.31.02-.145.165-.228.288-.207zm-.103.248l-8.18-4.139.226-.475 8.18 4.138zm-8.078-4.387l-.103.248a.256.256 0 0 1-.123-.351.254.254 0 0 1 .35-.124zm-.206.186l-2.04-2.586.412-.352 2.04 2.587zm-1.834-2.752l-.206.166c-.082-.124-.062-.29.041-.373.103-.103.268-.083.371.02zm-.206-.186l1.546-1.8.391.351-1.545 1.8zm1.731-1.635l-.185-.165c.082-.125.247-.125.37-.042.104.104.104.27.021.393zm-.247 0l.247-8.795.515.021-.247 8.774zm.515-8.795h-.268c0-.145.281-.628.425-.628.144.02.11.504.09.649zm-.403.25l2.196-9.872.494.124-2.04 9.56zM8.692 129.382l1.792-1.283.31.435L9 129.817zm1.957-1.076l-.165-.207c.124-.083.289-.062.371.062.083.124.062.29-.061.373zm-.226-.124l.762-1.304.453.27-.783 1.303zm.989-1.159l-.227-.145c.082-.124.247-.165.35-.083.124.063.165.228.103.352zm-.165-.228l1.03-.765.31.434-1.031.766zm1.085-.448l-.055-.317c.124-.083.289-.062.371.062.083.103.062.269-.062.372zm-.096-.276l9.726-12.664.413.33-9.727 12.665zm9.933-12.499l-.207-.165c.083-.124.248-.145.371-.042.103.083.124.249.042.373zm-.165-.207l8.18-6.973.33.393-8.18 6.994zm8.345-6.766l-.164-.207c.123-.104.288-.083.37.02.083.124.083.29-.04.373zm-.226.124l-5.626-10.347.453-.27 5.626 10.348zm-5.4-10.471l-.226.124a.298.298 0 0 1 .103-.373c.124-.062.289-.02.35.104zm-.226.103l-2.06-4.656.473-.207 2.061 4.636zm-1.813-4.76l-.248.104c-.061-.124 0-.29.124-.352.144-.062.289 0 .35.145zm-.248.125l-1.524-3.104.453-.248 1.545 3.104zm-1.298-3.228l-.226.124c-.062-.145-.021-.29.103-.373a.265.265 0 0 1 .35.125zm-.144.207l-5.646-4.14.309-.434 5.625 4.14z


M9.174 129.18l2.069 4.036-.46.26-2.069-4.035zm1.839 4.166l.23-.13c.062.13.02.304-.105.369-.125.087-.292.022-.355-.109zm.125-.239l3.114 1.888-.251.478-3.114-1.888zm2.988 2.127l.126-.239c.125.065.188.239.104.37a.233.233 0 0 1-.355.108zm.021-.282l2.863.282-.042.542-2.863-.26zm2.842.564l.021-.282c.146 0 .251.152.23.304 0 .152-.125.26-.272.238zm-.25-.109l.773-2.148.501.196-.773 2.148zm.98-1.972l-.207-.176a.285.285 0 0 1 .355-.173.315.315 0 0 1 .146.369zm-.165-.262l1.044-1.346.418.347-1.045 1.346zM18.807 132l-.209-.174c.084-.13.251-.13.377-.043.104.087.125.282.041.39zm-.271-.043l.271-1.888.523.087-.272 1.887z


M16.522 135.383l1.278 5.588-.495.124-1.277-5.588zm1.03 5.65l.248-.062a.266.266 0 0 1-.186.33c-.144.021-.288-.061-.309-.206zm.227-.125l3.854 7.636-.474.228-3.833-7.615zm3.627 7.74l.227-.104c.062.125 0 .29-.124.352a.254.254 0 0 1-.35-.124zm.227.124l-1.03 2.028-.454-.228 1.01-2.028zm-1.235 1.814l.204.214a.254.254 0 0 1-.35.124c-.124-.062-.185-.227-.103-.352zm-.187.317l-2.308-1.78.33-.434 2.287 1.78zm-2.143-1.986l-.165.207c-.103-.083-.124-.249-.041-.373.082-.124.247-.145.37-.062zm-.165.207l-7.686-6.622.33-.393 7.686 6.6zm-7.522-6.808l-.164.186c-.103-.083-.124-.248-.021-.373a.236.236 0 0 1 .35-.02zm-.185.186l-6.903-7.367.37-.373 6.904 7.367zm-6.718-7.553l-.185.186a.289.289 0 0 1 0-.393.282.282 0 0 1 .37.02zm-.268 0v-.766h.515v.766zm.268-.766H3.21c0-.145.124-.269.268-.269.144 0 .247.124.247.27zm-.165-.207l3.339-2.545.309.434-3.339 2.525zm3.483-2.338l-.144-.207a.242.242 0 0 1 .35.062c.103.103.062.269-.041.372zm-.144-.228l2.308-1.51.288.434-2.308 1.531zM38.551 111.048l.762-4.367.516.083-.763 4.366zm1.03-4.325l-.268-.042c.042-.145.165-.248.31-.227.144.02.226.165.206.31zm-.268.062l-4.595-19.287.495-.124 4.616 19.287zM21.282 106.474l2.556-1.283.226.476-2.555 1.283zM18.253 89.506l3.07-1.035.145.517-3.07 1.014z


M23.199 112.372l.494-2.566.516.104-.516 2.566zm.762-2.504l-.268-.062a.273.273 0 0 1 .31-.207.274.274 0 0 1 .206.31zm-.268 0v-4.615h.516v4.615zm0-4.615v-9.229h.516v9.23zm.268-9.229h-.268c0-.145.124-.269.268-.269.145 0 .248.124.248.27zm-.247.083l-1.278-4.366.495-.145 1.278 4.345zM37.273 86.857l4.348 15.417-.494.144-4.369-15.416zm4.101 15.5l.247-.083a.266.266 0 0 1-.185.33c-.144.042-.289-.04-.31-.186zm.247-.042l.763 5.65-.515.082-.763-5.67zm.516 5.69l.247-.04c.02.144-.062.289-.206.31a.276.276 0 0 1-.31-.228zm.247.084l-1.546 5.4-.494-.165 1.545-5.401zm-1.793 5.318l.247.083c-.02.124-.164.206-.309.165a.266.266 0 0 1-.185-.331zm.124.227l-8.717 4.387-.227-.476 8.717-4.387zm-8.82 4.14l.103.247c-.124.063-.268 0-.33-.124-.062-.145-.02-.29.103-.352zm.185.206l-13.064 12.582-.35-.373 13.044-12.602zM18.83 71.75v3.601h-.515v-3.6zm-.247 3.601h.247c0 .145-.103.27-.247.27a.273.273 0 0 1-.268-.27zm.247.02l-.247 5.133-.515-.02.247-5.153zm-.515 5.133h.268c0 .145-.124.269-.268.248-.144 0-.268-.124-.247-.269zm.186-.207l6.903 6.167-.33.393-6.924-6.167z


M14.38 82.056l3.832-1.8.227.476-3.854 1.8zM11.844 75.62l6.657-2.317.164.496-6.656 2.318zm6.739-2.07l-.082-.247c.123-.042.288.02.33.165a.271.271 0 0 1-.166.331zm-.02-.268l6.655-.517.042.538-6.656.517zM13.04 69.185l5.646 2.317-.206.497-5.626-2.318zm5.543 2.566l.103-.249a.296.296 0 0 1 .144.352c-.062.124-.206.207-.35.145zm-.082-.249l5.378-1.8.165.497-5.379 1.8z


M18.85 117.442l2.309-5.898.474.207-2.308 5.898zm2.556-5.794l-.247-.104c.041-.124.206-.207.33-.145.144.063.206.207.144.352zm-.268 0v-5.132h.515v5.132zm.268-5.132h-.268c0-.145.124-.27.268-.27.124 0 .247.125.247.27zm-.268.083l-1.793-6.415.516-.145 1.792 6.415zm-1.525-6.478l-.268.063c-.04-.125.042-.29.186-.332.144-.02.288.042.33.187zm-.268.042l-1.277-6.394.515-.104 1.278 6.394zm-1.075-6.187l-.202-.207c-.02-.145.062-.29.206-.31.144-.042.268.061.309.206zm-.202-.27V89.61h.515v4.098zm.247-4.097h-.247c0-.145.103-.269.247-.269.144 0 .268.124.268.27zm-.165.186l-1.298-1.283.37-.372 1.279 1.283zm-1.113-1.469l-.185.186c-.103-.082-.103-.269 0-.372a.26.26 0 0 1 .37 0zm-.247.083l-.762-2.566.494-.145.763 2.545zm-.5-2.538l-.262-.028a.272.272 0 0 1 .165-.331.264.264 0 0 1 .33.186zm-.242.034l-2.555-4.884.453-.248 2.556 4.863zm-2.328-5.008l-.227.124c-.082-.124-.02-.29.103-.351.124-.083.289-.021.35.103zm-.248.104l-1.792-5.132.494-.187 1.793 5.132zm-1.545-5.215l-.247.083a.286.286 0 0 1 .164-.352c.124-.042.268.041.33.165zm-.268-.062l1.03-6.395.516.083-1.03 6.415zm1.278-6.353l-.248-.042c.021-.144.165-.248.289-.227.144.02.247.165.227.31zm-.227-.124l5.131-9.747.453.27-5.11 9.725zm5.584-9.478l-.453-.269c.062-.124.227-.166.35-.103.124.062.165.227.103.372zm-.474-.041l-3.317-9.747.406-.345 3.406 9.905zM20.664 54.658l-3.029-5.546.453-.27 3.03 5.547zM24.477 52.713l.762-5.174.515.083-.824 5.132z



M26.681 52.61l-1.916.289-.082-.538 1.937-.29zm-1.957.02l.041.269c-.144.02-.268-.083-.288-.228-.021-.145.061-.29.206-.31zm.247-.104l5.502 15.355-.494.186-5.502-15.355zm5.255 15.438l.247-.083c.041.145-.02.29-.165.331-.123.062-.288-.02-.33-.145zm.247-.083l1.917 4.904-.474.207-1.937-4.925zM20.108 47.54l1.03 6.952-.515.083-1.03-6.953zm.783 6.994l.247-.042a.258.258 0 0 1-.206.29c-.144.02-.288-.062-.309-.207zm.247-.104l3.07 8.484-.494.187-3.07-8.485z


M27.547 75.682L23.668 62.93l.54-.014 3.833 12.623z



M32.967 75.62l-2.556.518-.103-.538 2.556-.518zm-2.505.226l-.05.292a.274.274 0 1 1-.103-.538zm-.133.292l-3.318-.27.041-.517 3.318.249zM34.45 87.664l.515-3.87.516.083-.516 3.849zm.763-3.828l-.248-.042c.021-.145.145-.248.289-.227.144.02.247.165.227.31zm.247-.083l1.278 3.6-.474.166-1.278-3.6zM31.133 86.588l.267-.786.474.186-.247.765zm.499-.624l-.232-.162a.27.27 0 0 1 .33-.166c.124.062.206.207.144.352zm.222-.225l1.03 1.552-.433.29-1.03-1.531zM29.134 80.421l.968 3.647-.515.182-.948-3.67z



M29.34 85.822l.247-1.635.515.083-.247 1.635zm.515-1.593l-.268-.042a.276.276 0 0 1 .31-.227c.123.02.226.165.205.31zm.247-.042l.247 2.05-.515.082-.247-2.07zM27.114 75.972l2.02 4.45-.474.227-2.02-4.45zm1.793 4.573l.227-.124c.061.145 0 .29-.124.352a.254.254 0 0 1-.35-.124zm.124-.227l1.525.993-.268.455-1.525-.993zm1.38 1.22l.145-.227a.27.27 0 0 1 .082.373c-.082.124-.227.144-.35.082zm.02-.268l4.06.248-.04.538-4.04-.248zm4.04.517l.02-.269c.145 0 .248.124.248.269-.02.166-.145.269-.289.269zm-.062-.269l1.772-.497.124.518-1.772.496z



M26.043 74.379l1.174 1.138-.35.393-1.175-1.159zm.989 1.324l.185-.186a.263.263 0 0 1 0 .372.236.236 0 0 1-.35.021zm.247.104l-.622 1.7-.45-.355.598-1.532z



M18.068 47.829l.268 4.366-.536.042-.247-4.387zm0 4.387l.268-.02a.29.29 0 0 1-.248.289.29.29 0 0 1-.288-.248zm.247-.062l1.03 4.883-.515.125-1.01-4.905zm.783 4.946l.247-.063c.021.145-.061.29-.206.31-.144.042-.268-.061-.309-.185zm.227-.104L23.94 69.35l-.474.186-4.616-12.354zm4.368 12.437l.248-.083c.062.124-.02.29-.145.331a.243.243 0 0 1-.33-.145zm.248-.104l2.308 5.401-.474.207-2.308-5.4zM26 74.834l.248-.104c.04.145 0 .29-.145.352a.236.236 0 0 1-.33-.145zm.268-.041l.248 1.283-.516.103-.247-1.283zm0 1.324l.248-.041a.274.274 0 0 1-.206.31.273.273 0 0 1-.31-.207zm.248-.02l.267 2.317-.535.062L26 76.158zm0 2.338l.267-.021a.29.29 0 0 1-.247.29c-.144.02-.268-.083-.288-.228zm.247-.083L28.04 82.2l-.494.186-1.278-3.87zm1.014 3.841l.263.008a.286.286 0 0 1-.164.351c-.124.042-.289-.041-.33-.165zm.263.05l.516 2.565-.495.104-.515-2.566zm.284 2.532l.232.033a.25.25 0 0 1-.206.31c-.124.042-.268-.061-.289-.206zm.17-.09l.762.765-.37.372-.763-.765zm.577.951l.185-.186a.263.263 0 0 1-.37.372zm.123-.248l.516.269-.227.476-.515-.249zm.392.496l.124-.227c.123.062.165.227.103.351-.062.125-.206.187-.33.125zm.165-.207l1.01.766-.31.435-1.01-.766zm.77.914l.24-.148c.123.104.144.27.061.373-.082.124-.247.144-.37.062zm.095-.19h.763v.539h-.763zm.763.27v-.27c.144 0 .268.125.268.27a.273.273 0 0 1-.268.269zm.123-.228l1.299.766-.268.455-1.278-.766zm1.154.993l.145-.227c.123.082.165.227.082.372-.062.124-.227.166-.35.083zm0-.269h.763v.538h-.763zm.763.27v-.27c.144 0 .268.124.268.27a.273.273 0 0 1-.268.268zm.062-.27l1.277.27-.103.517-1.277-.249zm1.11.581l.167-.312c.145.021.227.166.206.31-.02.146-.164.228-.309.208zm-.06-.25l.516-.517.35.393-.515.518zm.68-.31l-.164-.207c.103-.103.268-.103.35.02a.263.263 0 0 1 0 .373zm.063-.269l1.277.248-.103.538-1.278-.269zm.989.6l.288-.352a.287.287 0 0 1 .206.31.276.276 0 0 1-.309.228zm.061-.269l.516-.517.35.372-.515.518zm.68-.331l-.164-.186c.103-.104.268-.104.35 0a.263.263 0 0 1 0 .372zm-.247.02l-.268-2.814.536-.062.247 2.835zm.016-2.84l-.284.026c0-.144.103-.29.248-.29.144-.02.268.083.288.228zm-.263.047l-.515-2.835.515-.103.495 2.835zm-.268-2.876l-.247.041c-.02-.145.062-.29.206-.31.144-.021.268.082.309.207zm-.247.062l-.515-2.318.515-.124.494 2.318zm-.268-2.38l-.247.062c-.042-.145.061-.29.206-.331a.285.285 0 0 1 .309.207zm-.206.145l-1.546-2.318.433-.29 1.546 2.318zm-1.319-2.463l-.227.145c-.082-.124-.04-.269.083-.352a.242.242 0 0 1 .35.063zm-.185.187l-1.278-1.283.35-.373 1.298 1.283zm-1.093-1.47l-.185.187a.263.263 0 0 1 0-.373c.103-.103.268-.103.35 0zm-.247.083L31.4 71.316l.495-.165 1.278 4.118zm-1.03-4.2l-.248.082c-.061-.145.021-.29.165-.331.124-.041.268.041.33.166zm-.268.061l-2.555-10.533.515-.124 2.555 10.533zM29.072 60.7l-.247.062a.266.266 0 0 1 .185-.33.296.296 0 0 1 .33.206zm-.247.083l-2.556-7.201.495-.166 2.555 7.18zM26.517 53.5l-.248.083c-.04-.124.02-.29.165-.331.124-.062.268.02.33.165zm-.248-.041l.248-1.552.515.082-.268 1.552zm.495-1.511l-.247-.041c.02-.145.164-.249.288-.207.144.02.247.145.227.29zm-.247-.02l.515-4.367.515.062-.515 4.366z


M32.407 39.955l.752 2.04-.467.185-.752-2.021zm.529 2.123l.223-.082a.234.234 0 0 1-.142.327.233.233 0 0 1-.325-.143zm.244 0l.264 8.369-.529.02-.244-8.369zm0 8.369h.264a.27.27 0 0 1-.264.265c-.143 0-.244-.102-.265-.245zm.264 0l.244 21.556-.508.02-.265-21.556zm-.054 21.452l.298.104c0 .142-.102.265-.244.265-.142 0-.264-.102-.264-.245zm-.048.349l-1.768-.756.183-.49 1.768.776zM29.32 33.757l-1.279 4.905-.494-.145 1.278-4.884z


M13.974 39.308l1.288-4.935.493.13-1.274 4.829zm1.535-4.87l-.247-.065a.236.236 0 0 1 .308-.194c.144.044.226.194.185.324zm-.226-.13l1.788-3.492.452.28-1.788 3.471zm2.014-3.362l-.226-.13c.062-.129.226-.172.35-.107.123.086.164.237.102.388zm-.103-.237l4.091-1.876.185.496-4.07 1.876zm4.194-1.617l-.103-.259c.123-.065.267 0 .329.13.062.15 0 .323-.144.366zm.061-.28l4.584 1.336-.123.54-4.604-1.337zm4.523 1.616l.061-.28a.279.279 0 0 1 .185.345.236.236 0 0 1-.308.194zm.185-.194l2.816 3.213-.37.388-2.816-3.234zm2.631 3.407l.185-.194c.103.107.082.28-.02.388-.103.107-.268.107-.35 0zm.206-.173l.76 1.078-.411.323-.76-1.056zm.555 1.229l.205-.151c.082.108.062.28-.041.388-.123.086-.288.065-.37-.065zm-.227.13l-1.981-4.795.399-.272 2.111 4.975zM25.363 36.034l2.555 1.552-.247.455-2.556-1.532z


M22.23 35.247l3.07.766-.123.517-3.07-.765z


M18.562 35.496l3.668-.249-.04.518-3.586.248z



M15.863 37.606l2.555-2.07.33.435-2.576 2.05zM25.239 47.58l-.268-11.215.515-.021.268 11.237zm0-11.215h-.268c0-.145.124-.27.268-.27.144 0 .247.104.247.249zm-.268-.042l.783-6 .515.061-.783 6.001zM21.653 29.018l1.278 7.47-.515.084-1.278-7.45zm1.03 7.512l.248-.041a.274.274 0 0 1-.206.31.277.277 0 0 1-.31-.227zm.248 0l-.247 6.188-.515-.021.247-6.187zm-.515 6.167l.268.02c0 .145-.124.249-.268.249-.144 0-.268-.124-.247-.27zm.268-.02l.247 4.635-.515.02-.247-4.614z


M19.345 47.601l-1.03-11.816.515-.062 1.03 11.837zm-.762-11.836l-.268.02c0-.145.103-.29.247-.29a.229.229 0 0 1 .268.228zm-.247.062l-1.278-4.884.495-.145 1.277 4.884z


M15.76 34.171l.762 5.918-.494.063-.766-5.778zm.47 5.758l.292.16c.02.145-.062.29-.206.31-.144 0-.288-.103-.288-.247zm.292.14l1.03 5.67-.515.083-1.01-5.65zm.783 5.711l.248-.041c.02.145-.062.29-.206.31-.145.02-.268-.083-.31-.227zm.248-.02l.267 2.048-.515.062-.268-2.048zm0 1.957l.267.091c0 .145-.082.27-.226.29-.144.02-.268-.083-.289-.228zm-.021-.136l4.08-.518.062.518-4.08.517zm4.044-.249l.036-.269c.144-.02.289.083.289.228.02.145-.083.29-.227.29zm.077-.269l6.162.249-.02.538-6.306-.27zm6.141.518l.02-.27a.29.29 0 0 1 .248.29c-.02.145-.124.249-.268.249zm-.268 0v-8.216h.536v8.216zm0-8.216v-4.387h.536v4.387zm.268-4.387h-.268c0-.145.124-.269.268-.269.144 0 .268.124.268.27zm-.247-.02l.247-2.318.515.062-.247 2.318zM26.022 27.818l.384 2.824-.672-.32-.227-2.442zM17.037 30.922l-.515-2.566.515-.103.516 2.566zM20.108 24.362l1.525 4.615-.474.186-1.546-4.635z


M28.124 30.55l-.783-.518.288-.434.763.517zm-.639-.725l-.144.207c-.103-.082-.144-.227-.062-.351.062-.125.227-.166.35-.083zm-.185.166l-2.556-2.814.371-.352 2.556 2.814zm-2.37-2.98l-.186.166a.263.263 0 0 1 0-.373c.103-.103.268-.083.371.02zm-.186.186l-2.308-2.317.35-.373 2.33 2.297zm-2.122-2.504l-.186.187a.263.263 0 0 1 0-.373.236.236 0 0 1 .35 0zm-.02.27l-2.824-.249.041-.538 2.823.248zm-2.803-.518l-.02.27a.29.29 0 0 1-.248-.29c.02-.145.144-.27.288-.249zm.185.186l-1.298 1.283-.35-.393 1.277-1.262zm-1.463 1.097l.165.186a.26.26 0 0 1-.37 0 .314.314 0 0 1 .02-.393zm.206.145l-4.368 6.394-.413-.29 4.348-6.414zm-4.575 6.25l.207.144a.242.242 0 0 1-.35.062.244.244 0 0 1-.063-.351zm.248.061l-1.793 7.43-.515-.145 1.813-7.409zm-1.973 7.075l.18.354c-.041.145-.186.228-.31.187a.297.297 0 0 1-.205-.331zm.18.313l-.763 5.38-.515-.082.763-5.36zm-1.03 5.339l.267.041c-.02.145-.164.249-.288.228a.277.277 0 0 1-.227-.31zm.267.02l-.247 5.878-.536-.021.268-5.877zm-.47 5.54l.223.338c-.02.144-.144.269-.288.269a.29.29 0 0 1-.248-.29zm.223.317l.763 13.554-.516.042-.783-13.575zm.495 13.575l.268-.02c0 .165-.103.289-.248.289-.144 0-.268-.104-.268-.248zm.247-.083l1.298 4.097-.494.166-1.299-4.097z


M23.199 21.9l-.268 2.814-.515-.041.268-2.835zM32.287 14.036l1.03-.517.227.476-1.03.517zm1.133-.29l-.103-.227a.254.254 0 0 1 .35.124c.062.124 0 .29-.123.352zm0-.248h.515v.518h-.515zM27.155 15.216l2.803 1.531-.227.476-2.823-1.552z


M29.628 14.202l1.154.476-.206.496-1.154-.476zm1.051.724l.103-.248a.296.296 0 0 1 .144.352c-.061.144-.206.207-.35.144zm0-.269h1.443v.538h-1.443zm1.443.27v-.27c.144 0 .247.124.247.27 0 .144-.103.268-.247.268zm-.165-.208l.288-.227.33.413-.288.228zm.453-.02l-.165-.207c.103-.104.268-.083.371.041.083.103.062.269-.041.372zm-.268 0l.145-.663.37.187v.476z


M29.814 14.781l.494.766-.412.31-.556-.869zm.288.91l.206-.144c.083.124.062.29-.062.372-.123.083-.288.062-.35-.062zm.247.063l-.247 1.283-.515-.104.268-1.283zm-.494 1.242l.247.04c-.041.146-.165.25-.309.208-.144-.02-.227-.166-.206-.31zm.062-.27l3.338 1.035-.165.518-3.318-1.035zm3.256 1.283l.082-.248a.271.271 0 0 1 .165.331.264.264 0 0 1-.33.187zm-.186-.186l.515-.517.371.393-.515.497zm.474-.207l.041-.31c.103-.104.31-.02.412.083.103.103.062.207-.04.31zm0 0l-.268-.517.474-.228.46.792-.111-.048zm-.041-.62l-.227.103c-.062-.124 0-.29.124-.352a.254.254 0 0 1 .35.124zm-.227.103l-.515-1.573.495-.165.494 1.531zm-.268-1.656l-.247.083c-.062-.145.02-.29.165-.33.124-.042.268.02.33.165zm-.226.145l-.516-.765.433-.31.515.786z


M33.894 12.877l-1.278-.248.103-.538 1.278.27zm-1.148-.495l-.13.247c-.144-.041-.247-.186-.206-.331.02-.145.165-.228.31-.207zm-.027.247l-1.298.248-.082-.517 1.277-.269zm-1.34-.02l.042.268c-.124.021-.268-.062-.288-.206a.25.25 0 0 1 .206-.31zm.145.227l-2.06 1.283-.269-.455 2.061-1.283zm-2.184 1.055l.123.228c-.123.083-.268.041-.35-.083a.27.27 0 0 1 .082-.372zm.247-.062l.247 1.035-.494.124-.268-1.014zM21.18 18.775l2.04.27-.062.516-2.04-.248zm1.998.517l.041-.248c.145 0 .248.145.227.29-.02.145-.144.248-.288.227zm.186-.186l4.08 3.6-.33.394-4.1-3.6z

M29.237 25.728l-2.556-1.035.186-.496 2.555 1.035zm-2.473-1.283l-.083.248c-.144-.062-.206-.206-.144-.351.041-.124.206-.207.33-.145zm-.247-.083l.515-1.552.494.166-.515 1.552z

M23.075 21.652l3.833 2.566-.268.455-3.853-2.587zm3.689 2.793l.144-.227a.27.27 0 0 1 .083.372c-.083.124-.248.166-.35.083zm.247-.103l1.546 3.849-.495.207-1.525-3.85zM33.44 22.5l-5.563-.455.04-.538 5.544.496zm-5.543-.724l-.02.269a.257.257 0 0 1-.227-.29c0-.145.144-.269.268-.248zm-.226-.104l2.101-4.8.474.227-2.101 4.78zM26.867 12.63l2.576 1.096-.206.497-2.556-1.097z

M21.9 21.61h1.031v.538h-1.03zm1.031.27v-.27a.26.26 0 0 1 .268.27.273.273 0 0 1-.268.268zm-.247-.042l.247-2.566.515.062L23.2 21.9zm.494-2.546l-.247-.02c.02-.145.144-.249.288-.228.145 0 .248.145.227.29zm-.206-.124l.763-1.283.453.27-.783 1.282z


M20.458 16.54l3.586 1.283-.165.518-3.586-1.304zM19.737 12.712l2.555 1.531-.268.476-2.555-1.552z

M29.67 23.866l-2.04-1.8.33-.394 2.06 1.8zm-1.876-1.987l-.165.186c-.103-.082-.123-.248-.02-.372a.236.236 0 0 1 .35-.02zm-.206.145l-2.308-3.083.412-.31L28 21.713zm-2.102-3.228l-.206.145c-.082-.104-.062-.27.062-.373a.242.242 0 0 1 .35.062zm-.103.227l-1.545-.765.226-.476 1.546.765zm-1.422-1.014l-.123.249c-.124-.062-.186-.228-.124-.352a.254.254 0 0 1 .35-.124zm-.247.125l-1.772-3.601.453-.248 1.793 3.6zm-1.545-3.725l-.227.124c-.083-.124-.02-.29.103-.352.124-.062.288-.02.35.104zm-.268-.02l.268-2.319.515.062-.268 2.318zm.515-2.298l-.247-.02c0-.145.144-.249.288-.228.124 0 .227.145.227.29zm-.165-.207l1.545-1.283.33.414-1.545 1.283zm1.71-1.076l-.165-.207c.104-.083.268-.062.371.042.083.124.062.29-.04.372zm0-.269h.763v.538h-.763zm.763.27v-.27c.144 0 .268.124.268.27a.273.273 0 0 1-.268.268zm.103-.25l2.555 1.035-.185.497-2.576-1.035zm2.452 1.284l.103-.249c.124.063.206.207.144.352-.062.124-.206.207-.33.145zm.247.124l-.515 1.035-.474-.249.515-1.034zm-.762.91l.247.125c-.062.124-.227.165-.35.103a.256.256 0 0 1-.124-.352zm.268-.04l.247 2.586-.515.041-.247-2.566zm0 2.606l.247-.02a.257.257 0 0 1-.227.29.29.29 0 0 1-.288-.249zm.247.063l-.515 2.566-.495-.104.495-2.587zm-.762 2.503l.247.063c-.02.144-.165.227-.31.206-.123-.04-.226-.165-.185-.31zm.144.228l-1.01.766-.309-.435 1.03-.766zM20.623 16.644l1.525 5.152-.495.145-1.525-5.132zm1.278 5.235l.247-.083c.041.145-.02.29-.165.331a.264.264 0 0 1-.33-.186zm.082.248l-1.793.518-.144-.518 1.793-.517z

M17.553 16.52h2.823v.538h-2.823zm2.823.269v-.27c.144 0 .247.125.247.27 0 .144-.103.269-.247.269zm-.268.062L19.345 13l.516-.124.762 3.87z

M16.79 11.78l1.01 4.884-.495.125-1.03-4.884zm.763 4.946l.247-.062a.266.266 0 0 1-.186.332c-.144.02-.288-.063-.309-.207zm.247-.103l1.793 4.118-.474.207-1.793-4.118zm1.545 4.221l.248-.103c.04.124 0 .29-.145.352a.236.236 0 0 1-.33-.145zm.227-.124l.783 1.552-.474.228-.762-1.531zm.536 1.656l.247-.104c.062.124 0 .29-.124.352a.254.254 0 0 1-.35-.124zm.268.041l-.268 2.049-.515-.062.268-2.049zM19.51 9.318l3.07 2.566-.329.414-3.07-2.566z

M17.32 8.533l-.523 3.398-.522-.084.522-3.377zm-.794 3.356l.271.042a.28.28 0 0 1-.313.23c-.125-.02-.23-.167-.209-.314zm.083-.252l3.112 1.028-.146.524-3.112-1.049zm3.05 1.3l.062-.272c.147.063.23.21.188.356-.062.126-.208.21-.334.168zm-.272.021l-.25-3.398.522-.042.25 3.398zM27.073 11.698l2.287-3.85.454.27-2.308 3.87zM22.663 6.587l1.793 4.118-.474.227-1.793-4.118z

M24.456 10.808l.268-4.635.515.02-.247 4.636zm.515-4.615l-.247-.02c0-.145.123-.27.268-.249.144 0 .247.125.247.27zm.103-.248l4.616 1.8-.185.497-4.616-1.8zm4.513 2.049l.103-.249c.124.042.186.207.144.332-.062.144-.206.206-.33.165zm-.227-.145l1.793-3.083.453.269-1.792 3.083z

M33.605 7.414l-2.04 2.049-.37-.372 2.06-2.07zM31.38 9.277l.185.186a.263.263 0 0 1-.37-.372zm-.144.207L29.443 8.2l.288-.435 1.793 1.283zM25.486 3.38l-.247 2.834-.515-.041.247-2.835zm-.515 2.813l.268.021c-.02.145-.144.248-.289.228a.23.23 0 0 1-.226-.27zm0 .27h-1.01v-.539h1.01z

M21.097 4.228l1.545 2.317-.432.31-1.546-2.317zm1.319 2.483l.226-.166a.27.27 0 0 1-.082.373.242.242 0 0 1-.35-.062zm-.083-.27l1.546-.517.165.518-1.546.517zm1.628-.248c-.236-.528.208-.07.248-.082-.026.57-.244.081-.248.082z

M22.601 6.897l-3.07 2.835-.35-.393 3.07-2.835zm-3.256 2.628l.186.207c-.124.103-.289.083-.371-.02-.103-.104-.103-.29.02-.373zm-.103.248L16.934 8.74l.206-.476 2.308 1.014zm-2.205-1.262l-.103.228c-.123-.062-.185-.207-.123-.352.041-.124.206-.186.33-.124zm-.185-.186l3.853-4.118.371.372-3.853 4.098zm4.039-3.932l-.186-.186c.083-.104.248-.104.35-.02a.289.289 0 0 1 .021.392zm-.103-.248l2.287-1.035.227.497-2.308 1.014zm2.39-.787l-.103-.248c.144-.062.289 0 .35.145.062.124 0 .29-.123.352zm0-.269h2.061v.538h-2.06zm2.061.27v-.27c.144 0 .268.125.268.27a.273.273 0 0 1-.268.268zm.062-.27l4.348 1.035-.124.517-4.348-1.014zm4.286 1.304l.062-.269a.266.266 0 0 1 .185.331c-.02.145-.165.228-.309.186zm.082-.269l1.773.517-.124.518-1.793-.518zm1.71.786l.063-.269a.266.266 0 0 1 .185.332c-.041.144-.185.227-.309.186zm.186-.186l2.061 2.318-.392.352-2.04-2.318zm1.855 2.483l.206-.165a.285.285 0 0 1-.02.372c-.104.104-.269.083-.372-.02zm.268 0v3.353h-.515V7.207zm-.268 3.353h.268a.273.273 0 0 1-.268.269c-.124 0-.247-.124-.247-.27zm.268-.062l.515 2.048-.515.125-.515-2.05zm.247 2.11l.268-.062a.297.297 0 0 1-.206.331c-.124.042-.268-.062-.31-.206zm.268 0v1.035h-.515v-1.035zm-.268 1.035h.268a.273.273 0 0 1-.268.27c-.144 0-.247-.125-.247-.27zm.227-.145l1.064 1.979.33.527c.077.084.003.274.125.252l-.198.154-.37-.115-.269-.475-1.115-2.032zm1.064 1.979l.67.983c.083.124-.159.328-.262.411-.131.099-.44-.472-.522-.576zm1.244 1.353l-.808.373zM34.718 17.384v1.68h-.515l-.031-1.242zm-.268 1.68h.268a.273.273 0 0 1-.268.27c-.144 0-.247-.124-.247-.27zm.144.208l-.762.538-.288-.455.762-.518zm-.906.31l.144.228a.268.268 0 0 1-.37-.083c-.063-.124-.042-.29.082-.372zm.247-.083l.247.787-.494.165-.248-.786zm0 .87l.247-.083c.042.145-.02.29-.165.33-.123.042-.267-.02-.33-.165zm.227.144l-.515.787-.433-.29.515-.786zm-.679.547l.164.24c-.083.124-.248.145-.371.062-.103-.083-.145-.248-.062-.352zm.205.033l.247 1.303-.495.104-.267-1.304zm-.016 1.286l.263.017a.25.25 0 0 1-.206.31c-.124.042-.268-.061-.288-.206zm.263.142l-.247 1.055-.515-.145.268-1.035zm-.515.972l.268.083c-.041.124-.186.228-.33.186-.124-.041-.206-.186-.185-.33zm0 .27h-.495v-.539h.495zm-.495-.27v.27a.26.26 0 0 1-.268-.27c0-.145.124-.269.268-.269zm.02.27l-3.07.268-.061-.538 3.111-.269zm-3.09 0l.02.268a.29.29 0 0 1-.288-.248c-.02-.145.103-.27.227-.29zm.206.144l-.515.786-.433-.29.515-.786zm-.721.642l.206.144c-.083.125-.247.166-.35.083a.27.27 0 0 1-.083-.372zm.247 0v1.034h-.515V24.55zm-.247 1.034h.247c0 .166-.103.27-.247.27a.26.26 0 0 1-.268-.27zm.247.104l-1.03 2.876-.495-.186 1.03-2.877zm-1.278 2.773l.248.103c-.062.124-.206.207-.33.145-.144-.041-.206-.186-.165-.331zm.268 0v2.09h-.536v-2.09zm-.268 2.09h.268a.273.273 0 0 1-.268.269.273.273 0 0 1-.268-.27zm.186-.187l1.277 1.304-.37.393-1.278-1.324zm1.092 1.49l.185-.186a.289.289 0 0 1 0 .393.26.26 0 0 1-.37 0zm.247-.062l1.03 3.663-.494.145-1.03-3.663zm.783 3.725l.248-.062a.266.266 0 0 1-.186.331c-.123.042-.268-.041-.309-.186zm.248-.083l1.525 4.45-.495.165-1.525-4.428zm1.277 4.532l.248-.082c.061.124-.021.29-.145.33a.284.284 0 0 1-.35-.165zm-.226.124l-2.556-5.235.454-.228 2.576 5.215zM31.524 9.05v1.8h-.536v-1.8z

M31.524 10.85v1.8h-.536v-1.8z

M35.899 16.592l-.195.242-1.384 1.037-.447-.172.058-.156 1.75-1.287zm-1.34.7l-.239.58c-.209.135-.528.175-.69.043-.155-.108-.158-.11.05-.247zm-.22.664l-1.158.266-.082-.268 1.137-.368z">




       <animate dur="3s" values="#000000; #3f69aa; #f8f9fa; #000000" keyTimes="0; 0.7; 0.9; 1" attributeName="fill" repeatCount="indefinite"/>


	</path>

		
</svg>
