<svg xmlns="http://www.w3.org/2000/svg" width="45.616" height="51.639">





<path d="M23.084 21.569a1.04 1.04 0 0 0-.888.557L18.32 29.17c-.21.377-.265.927-.248 1.412.009.243.036.46.115.647.039.094.092.19.206.261.114.07.29.066.402.006h.001l4.226-1.833 4.368 1.793a.438.438 0 0 0 .404-.017.513.513 0 0 0 .197-.268c.07-.189.09-.406.09-.648.003-.483-.068-1.028-.277-1.397l-3.817-7.024-.002-.003a1.034 1.034 0 0 0-.901-.532zm.2.878c.158-.003-.112-.192 0 0l-.207 1.712 3.26 5.622.26.19s.584.08.582.492c0 .173.26-.725.26-.725l-4.446-1.992-3.258 1.642-.514.666c-.15.441.5.298.602.115l.178-.432 3.076-5.578.751-1.792c.109-.197-.703.082-.545.08z">


<animate dur="2s" values="#000000; #4e86b1; #d7d7d7; #000000" keyTimes="0; 0.5; 0.7; 1" attributeName="fill" repeatCount="indefinite"/></path>


<path d="M33.535 35.115a.972.972 0 0 1-.257.659 13.915 13.915 0 0 1-10.237 4.508c-3.953 0-7.73-1.692-10.359-4.642a.977.977 0 0 1 1.458-1.3 11.933 11.933 0 0 0 8.901 3.99c3.336 0 6.543-1.413 8.797-3.875a.976.976 0 0 1 1.697.66zM33.532 17.7a.976.976 0 0 1-1.696.66 11.954 11.954 0 0 0-8.795-3.874 11.931 11.931 0 0 0-8.898 3.989.977.977 0 0 1-1.458-1.3 13.885 13.885 0 0 1 10.356-4.642 13.91 13.91 0 0 1 10.235 4.508.971.971 0 0 1 .256.66z">
<animate dur="3s" values="#000000; #4e86b1; #d7d7d7; #000000" keyTimes="0; 0.5; 0.7; 1" attributeName="fill" repeatCount="indefinite"/></path>


<path d="M40.653 42.62c0 .25-.095.499-.285.69-4.685 4.696-10.92 7.282-17.553 7.282-6.7 0-12.978-2.63-17.676-7.405a.976.976 0 1 1 1.392-1.37c4.328 4.4 10.111 6.822 16.284 6.822a22.693 22.693 0 0 0 16.171-6.709.976.976 0 0 1 1.667.69zM40.653 9.454a.976.976 0 0 1-1.667.69 22.7 22.7 0 0 0-16.171-6.707c-6.173 0-11.956 2.423-16.284 6.822a.977.977 0 0 1-1.392-1.37c4.699-4.775 10.976-7.404 17.676-7.404 6.633 0 12.866 2.585 17.553 7.28.19.19.285.44.285.69z" fill="#4e86b1">
<animate dur="5s" values="#000000; #4e86b1; #d7d7d7; #000000" keyTimes="0; 0.5; 0.7; 1" attributeName="fill" repeatCount="indefinite"/></path>



</svg>
