<svg width="589px" height="449px" viewBox="0 0 589 449" version="1.1" xmlns="http://www.w3.org/2000/svg" xmlns:xlink="http://www.w3.org/1999/xlink">
    <defs>
        <linearGradient x1="50%" y1="0%" x2="50%" y2="98.9432803%" id="linearGradient-1">
            
            <stop stop-color="#d3d3d3ff" offset="20%"></stop>
            
            
            #4e9bdaff
            BAF992
            
        </linearGradient>
        <rect id="path-2" x="33" y="63" width="9" height="20"></rect>
        <rect id="path-3" x="33" y="123" width="9" height="20"></rect>
        <rect id="path-4" x="33" y="184" width="9" height="20"></rect>
        <rect id="path-5" x="33" y="244" width="9" height="20"></rect>
        <rect id="path-6" x="33" y="305" width="9" height="20"></rect>
        <rect id="path-7" x="33" y="366" width="9" height="20"></rect>
        <style>
            svg {
              width: 100%;
            }
            .lines {
              stroke-dasharray: 3, 10;
              stroke-dashoffset: 1000;
              animation: dash 50s linear infinite;
            }
            @keyframes dash {
              from {
                stroke-dashoffset: 1000;
              }
              to {
                stroke-dashoffset: 0;
              }
            }
          </style>
    </defs>
    <g id="Artboard" stroke="none" stroke-width="1" fill="none" fill-rule="evenodd">
        <path class="lines" d="M37.5,73.5 L292.5,22.5" id="Line" stroke="#979797" stroke-linecap="square"></path>
        <path class="lines" d="M293.5,22.5 L554.5,269.5" id="Line-Copy-60" stroke="#4e9bdaff" stroke-linecap="square"></path>
        <path class="lines" d="M293.5,426.5 L554.5,224.5" id="Line-Copy-61" stroke="#4e9bdaff" stroke-linecap="square"></path>
        <path class="lines" d="M293.5,381.5 L554.5,179.5" id="Line-Copy-66" stroke="#4e9bdaff" stroke-linecap="square"></path>
        <path class="lines" d="M293.5,157.5 L554.5,269.5" id="Line-Copy-67" stroke="#4e9bdaff" stroke-linecap="square"></path>
        <path class="lines" d="M293.5,112.5 L554.5,224.5" id="Line-Copy-74" stroke="#4e9bdaff" stroke-linecap="square"></path>
        <path class="lines" d="M293.5,67.5 L554.5,179.5" id="Line-Copy-81" stroke="#4e9bdaff" stroke-linecap="square"></path>
        <path class="lines" d="M293.5,202.5 L554.5,269.5" id="Line-Copy-68" stroke="#4e9bdaff" stroke-linecap="square"></path>
        <path class="lines" d="M293.5,157.5 L554.5,224.5" id="Line-Copy-75" stroke="#4e9bdaff" stroke-linecap="square"></path>
        <path class="lines" d="M293.5,112.5 L554.5,179.5" id="Line-Copy-82" stroke="#4e9bdaff" stroke-linecap="square"></path>
        <path class="lines" d="M293.5,247.5 L554.5,269.5" id="Line-Copy-69" stroke="#4e9bdaff" stroke-linecap="square"></path>
        <path class="lines" d="M293.5,202.5 L554.5,224.5" id="Line-Copy-76" stroke="#4e9bdaff" stroke-linecap="square"></path>
        <path class="lines" d="M293.5,157.5 L554.5,179.5" id="Line-Copy-83" stroke="#4e9bdaff" stroke-linecap="square"></path>
        <path class="lines" d="M293.5,291.5 L554.5,269.5" id="Line-Copy-70" stroke="#4e9bdaff" stroke-linecap="square"></path>
        <path class="lines" d="M293.5,247.5 L554.5,224.5" id="Line-Copy-77" stroke="#4e9bdaff" stroke-linecap="square"></path>
        <path class="lines" d="M293.5,202.5 L554.5,179.5" id="Line-Copy-84" stroke="#4e9bdaff" stroke-linecap="square"></path>
        <path class="lines" d="M293.5,336.5 L554.5,269.5" id="Line-Copy-71" stroke="#4e9bdaff" stroke-linecap="square"></path>
        <path class="lines" d="M293.5,291.5 L554.5,224.5" id="Line-Copy-78" stroke="#4e9bdaff" stroke-linecap="square"></path>
        <path class="lines" d="M293.5,247.5 L554.5,179.5" id="Line-Copy-85" stroke="#4e9bdaff" stroke-linecap="square"></path>
        <path class="lines" d="M293.5,381.5 L554.5,269.5" id="Line-Copy-72" stroke="#4e9bdaff" stroke-linecap="square"></path>
        <path class="lines" d="M293.5,336.5 L554.5,224.5" id="Line-Copy-79" stroke="#4e9bdaff" stroke-linecap="square"></path>
        <path class="lines" d="M293.5,291.5 L554.5,179.5" id="Line-Copy-86" stroke="#4e9bdaff" stroke-linecap="square"></path>
        <path class="lines" d="M293.5,426.5 L554.5,269.5" id="Line-Copy-73" stroke="#4e9bdaff" stroke-linecap="square"></path>
        <path class="lines" d="M293.5,381.5 L554.5,224.5" id="Line-Copy-80" stroke="#4e9bdaff" stroke-linecap="square"></path>
        <path class="lines" d="M293.5,336.5 L554.5,179.5" id="Line-Copy-87" stroke="#4e9bdaff" stroke-linecap="square"></path>
        <path class="lines" d="M293.5,67.5 L554.5,269.5" id="Line-Copy-64" stroke="#4e9bdaff" stroke-linecap="square"></path>
        <path class="lines" d="M293.5,22.5 L554.5,224.5" id="Line-Copy-65" stroke="#4e9bdaff" stroke-linecap="square"></path>
        <path class="lines" d="M293.5,426.5 L554.5,179.5" id="Line-Copy-88" stroke="#4e9bdaff" stroke-linecap="square"></path>
        <path class="lines" d="M293.5,112.5 L554.5,269.5" id="Line-Copy-62" stroke="#4e9bdaff" stroke-linecap="square"></path>
        <path class="lines" d="M293.5,67.5 L554.5,224.5" id="Line-Copy-63" stroke="#4e9bdaff" stroke-linecap="square"></path>
        <path class="lines" d="M293.5,22.5 L554.5,179.5" id="Line-Copy-89" stroke="#4e9bdaff" stroke-linecap="square"></path>
        <path class="lines" d="M37.5,133.5 L292.5,22.5" id="Line-Copy-6" stroke="#979797" stroke-linecap="square"></path>
        <path class="lines" d="M37.5,194.5 L292.5,22.5" id="Line-Copy-7" stroke="#979797" stroke-linecap="square"></path>
        <path class="lines" d="M37.5,254.5 L292.5,22.5" id="Line-Copy-8" stroke="#979797" stroke-linecap="square"></path>
        <path class="lines" d="M37.5,315.5 L292.5,22.5" id="Line-Copy-9" stroke="#979797" stroke-linecap="square"></path>
        <path class="lines" d="M37.5,376.5 L292.5,22.5" id="Line-Copy-10" stroke="#979797" stroke-linecap="square"></path>
        <path class="lines" d="M37.5,376.5 L292.5,67.5" id="Line-Copy-51" stroke="#979797" stroke-linecap="square"></path>
        <path class="lines" d="M37.5,376.5 L292.5,112.5" id="Line-Copy-53" stroke="#979797" stroke-linecap="square"></path>
        <path class="lines" d="M37.5,376.5 L292.5,157.5" id="Line-Copy-54" stroke="#979797" stroke-linecap="square"></path>
        <path class="lines" d="M37.5,376.5 L292.5,202.5" id="Line-Copy-55" stroke="#979797" stroke-linecap="square"></path>
        <path class="lines" d="M37.5,133.5 L292.5,67.5" id="Line-Copy" stroke="#979797" stroke-linecap="square"></path>
        <path class="lines" d="M37.5,133.5 L292.5,112.5" id="Line-Copy-21" stroke="#979797" stroke-linecap="square"></path>
        <path class="lines" d="M37.5,133.5 L292.5,157.5" id="Line-Copy-22" stroke="#979797" stroke-linecap="square"></path>
        <path class="lines" d="M37.5,133.5 L292.5,202.5" id="Line-Copy-23" stroke="#979797" stroke-linecap="square"></path>
        <path class="lines" d="M37.5,133.5 L292.5,247.5" id="Line-Copy-24" stroke="#979797" stroke-linecap="square"></path>
        <path class="lines" d="M37.5,133.5 L292.5,291.5" id="Line-Copy-25" stroke="#979797" stroke-linecap="square"></path>
        <path class="lines" d="M37.5,133.5 L292.5,336.5" id="Line-Copy-26" stroke="#979797" stroke-linecap="square"></path>
        <path class="lines" d="M37.5,133.5 L292.5,381.5" id="Line-Copy-27" stroke="#979797" stroke-linecap="square"></path>
        <path class="lines" d="M37.5,133.5 L292.5,426.5" id="Line-Copy-28" stroke="#979797" stroke-linecap="square"></path>
        <path class="lines" d="M37.5,73.5 L292.5,67.5" id="Line-Copy-12" stroke="#979797" stroke-linecap="square"></path>
        <path class="lines" d="M37.5,73.5 L292.5,112.5" id="Line-Copy-13" stroke="#979797" stroke-linecap="square"></path>
        <path class="lines" d="M37.5,73.5 L292.5,157.5" id="Line-Copy-14" stroke="#979797" stroke-linecap="square"></path>
        <path class="lines" d="M37.5,73.5 L292.5,202.5" id="Line-Copy-15" stroke="#979797" stroke-linecap="square"></path>
        <path class="lines" d="M37.5,73.5 L292.5,247.5" id="Line-Copy-16" stroke="#979797" stroke-linecap="square"></path>
        <path class="lines" d="M37.5,73.5 L292.5,291.5" id="Line-Copy-17" stroke="#979797" stroke-linecap="square"></path>
        <path class="lines" d="M37.5,73.5 L292.5,336.5" id="Line-Copy-18" stroke="#979797" stroke-linecap="square"></path>
        <path class="lines" d="M37.5,73.5 L292.5,381.5" id="Line-Copy-19" stroke="#979797" stroke-linecap="square"></path>
        <path class="lines" d="M37.5,73.5 L292.5,426.5" id="Line-Copy-20" stroke="#979797" stroke-linecap="square"></path>
        <path class="lines" d="M37.5,194.5 L292.5,67.5" id="Line-Copy-11" stroke="#979797" stroke-linecap="square"></path>
        <path class="lines" d="M37.5,194.5 L292.5,112.5" id="Line-Copy-2" stroke="#979797" stroke-linecap="square"></path>
        <path class="lines" d="M37.5,194.5 L292.5,157.5" id="Line-Copy-29" stroke="#979797" stroke-linecap="square"></path>
        <path class="lines" d="M37.5,194.5 L292.5,202.5" id="Line-Copy-30" stroke="#979797" stroke-linecap="square"></path>
        <path class="lines" d="M37.5,194.5 L292.5,247.5" id="Line-Copy-31" stroke="#979797" stroke-linecap="square"></path>
        <path class="lines" d="M37.5,194.5 L292.5,291.5" id="Line-Copy-32" stroke="#979797" stroke-linecap="square"></path>
        <path class="lines" d="M37.5,194.5 L292.5,336.5" id="Line-Copy-33" stroke="#979797" stroke-linecap="square"></path>
        <path class="lines" d="M37.5,194.5 L292.5,381.5" id="Line-Copy-34" stroke="#979797" stroke-linecap="square"></path>
        <path class="lines" d="M37.5,194.5 L292.5,426.5" id="Line-Copy-35" stroke="#979797" stroke-linecap="square"></path>
        <path class="lines" d="M38,254.524533 L292.5,157.5" id="Line-Copy-3" stroke="#979797" stroke-linecap="square"></path>
        <path class="lines" d="M38,254.524533 L292.5,202.5" id="Line-Copy-40" stroke="#979797" stroke-linecap="square"></path>
        <path class="lines" d="M37.5,254.5 L292.5,247.5" id="Line-Copy-41" stroke="#979797" stroke-linecap="square"></path>
        <path class="lines" d="M37.5,254.5 L292.5,291.5" id="Line-Copy-42" stroke="#979797" stroke-linecap="square"></path>
        <path class="lines" d="M37.5,254.5 L292.5,336.5" id="Line-Copy-43" stroke="#979797" stroke-linecap="square"></path>
        <path class="lines" d="M37.5,254.5 L292.5,381.5" id="Line-Copy-44" stroke="#979797" stroke-linecap="square"></path>
        <path class="lines" d="M37.5,254.5 L292.5,426.5" id="Line-Copy-45" stroke="#979797" stroke-linecap="square"></path>
        <path class="lines" d="M38,254.524533 L292.5,112.5" id="Line-Copy-36" stroke="#979797" stroke-linecap="square"></path>
        <path class="lines" d="M37.5,315.5 L292.5,202.5" id="Line-Copy-4" stroke="#979797" stroke-linecap="square"></path>
        <path class="lines" d="M37.5,315.5 L292.5,247.5" id="Line-Copy-46" stroke="#979797" stroke-linecap="square"></path>
        <path class="lines" d="M37.5,315.5 L292.5,291.5" id="Line-Copy-47" stroke="#979797" stroke-linecap="square"></path>
        <path class="lines" d="M37.5,315.5 L292.5,336.5" id="Line-Copy-48" stroke="#979797" stroke-linecap="square"></path>
        <path class="lines" d="M37.5,315.5 L292.5,381.5" id="Line-Copy-49" stroke="#979797" stroke-linecap="square"></path>
        <path class="lines" d="M37.5,315.5 L292.5,426.5" id="Line-Copy-50" stroke="#979797" stroke-linecap="square"></path>
        <path class="lines" d="M37.5,315.5 L292.5,67.5" id="Line-Copy-37" stroke="#979797" stroke-linecap="square"></path>
        <path class="lines" d="M37.5,254.5 L292.5,67.5" id="Line-Copy-52" stroke="#979797" stroke-linecap="square"></path>
        <path class="lines" d="M37.5,315.5 L292.5,112.5" id="Line-Copy-38" stroke="#979797" stroke-linecap="square"></path>
        <path class="lines" d="M37.5,315.5 L292.5,157.5" id="Line-Copy-39" stroke="#979797" stroke-linecap="square"></path>
        <path class="lines" d="M37.5,376.5 L292.5,247.5" id="Line-Copy-5" stroke="#979797" stroke-linecap="square"></path>
        <path class="lines" d="M37.5,376.5 L292.5,291.5" id="Line-Copy-56" stroke="#979797" stroke-linecap="square"></path>
        <path class="lines" d="M37.5,376.5 L292.5,336.5" id="Line-Copy-57" stroke="#979797" stroke-linecap="square"></path>
        <path class="lines" d="M37.5,376.5 L292.5,381.5" id="Line-Copy-58" stroke="#979797" stroke-linecap="square"></path>
        <path class="lines" d="M37.5,376.5 L292.5,426.5" id="Line-Copy-59" stroke="#979797" stroke-linecap="square"></path>
        <g id="Rectangle">
        
            <use fill="url(#linearGradient-1)" fill-rule="evenodd" xlink:href="#path-2"></use>
            <rect stroke="#979797" stroke-width="1" x="33.5" y="63.5" width="8" height="19"></rect>
        </g>
        <g id="Rectangle-Copy">
            <use fill="url(#linearGradient-1)" fill-rule="evenodd" xlink:href="#path-3"></use>
            <rect stroke="#979797" stroke-width="1" x="33.5" y="123.5" width="8" height="19"></rect>
        </g>
        <g id="Rectangle-Copy-2">
            <use fill="url(#linearGradient-1)" fill-rule="evenodd" xlink:href="#path-4"></use>
            <rect stroke="#979797" stroke-width="1" x="33.5" y="184.5" width="8" height="19"></rect>
        </g>
        <g id="Rectangle-Copy-3">
            <use fill="url(#linearGradient-1)" fill-rule="evenodd" xlink:href="#path-5"></use>
            <rect stroke="#979797" stroke-width="1" x="33.5" y="244.5" width="8" height="19"></rect>
        </g>
        <g id="Rectangle-Copy-4">
            <use fill="url(#linearGradient-1)" fill-rule="evenodd" xlink:href="#path-6"></use>
            <rect stroke="#979797" stroke-width="1" x="33.5" y="305.5" width="8" height="19"></rect>
        </g>
        <g id="Rectangle-Copy-5">
            <use fill="url(#linearGradient-1)" fill-rule="evenodd" xlink:href="#path-7"></use>
            <rect stroke="#979797" stroke-width="1" x="33.5" y="366.5" width="8" height="19"></rect>
        </g>
        <circle id="Oval" stroke="#979797" fill="url(#linearGradient-1)" cx="293" cy="23" r="11"></circle>
        <circle id="Oval-Copy-10" stroke="#979797" fill="url(#linearGradient-1)" cx="555" cy="180" r="11"></circle>
        <circle id="Oval-Copy" stroke="#979797" fill="url(#linearGradient-1)" cx="293" cy="68" r="11"></circle>
        <circle id="Oval-Copy-11" stroke="#979797" fill="url(#linearGradient-1)" cx="555" cy="225" r="11"></circle>
        <circle id="Oval-Copy-2" stroke="#979797" fill="url(#linearGradient-1)" cx="293" cy="113" r="11"></circle>
        <circle id="Oval-Copy-12" stroke="#979797" fill="url(#linearGradient-1)" cx="555" cy="270" r="11"></circle>
        <circle id="Oval-Copy-3" stroke="#979797" fill="url(#linearGradient-1)" cx="293" cy="158" r="11"></circle>
        <circle id="Oval-Copy-4" stroke="#979797" fill="url(#linearGradient-1)" cx="293" cy="203" r="11"></circle>
        <circle id="Oval-Copy-5" stroke="#979797" fill="url(#linearGradient-1)" cx="293" cy="292" r="11"></circle>
        <circle id="Oval-Copy-6" stroke="#979797" fill="url(#linearGradient-1)" cx="293" cy="337" r="11"></circle>
        <circle id="Oval-Copy-7" stroke="#979797" fill="url(#linearGradient-1)" cx="293" cy="382" r="11"></circle>
        <circle id="Oval-Copy-8" stroke="#979797" fill="url(#linearGradient-1)" cx="293" cy="248" r="11"></circle>
        <circle id="Oval-Copy-9" stroke="#979797" fill="url(#linearGradient-1)" cx="293" cy="427" r="11"></circle>
    </g>
</svg>
