<svg xmlns="http://www.w3.org/2000/svg" width="45.616" height="51.639">


<path d="M22.799 23.709c-.98.014-1.946.575-2.486 1.56L9.46 44.999c-.588 1.056-.744 2.595-.695 3.953.024.68.099 1.289.32 1.813.11.262.258.533.578.73.32.198.813.184 1.127.018h.002l11.873-6.31L34.857 51.4l.002.002c.317.16.816.161 1.131-.048.315-.21.45-.486.55-.75.199-.53.252-1.137.255-1.815.006-1.354-.193-2.88-.777-3.912l-10.69-19.67-.006-.008c-.56-.97-1.544-1.504-2.523-1.49zm.021 1.5c.443-.007.89.2 1.201.738l.002.002L34.71 45.61l.004.006c.288.508.587 2.017.582 3.168-.002.486-.07.842-.135 1.09L22.648 43.51l-.343.181-11.867 6.311a4.27 4.27 0 0 1-.174-1.103c-.041-1.148.223-2.66.508-3.172l.002-.002 10.853-19.733v-.002c.304-.554.75-.774 1.193-.781z">

<animate dur="5s" values="#000000; #4e86b1; #d7d7d7; #000000" keyTimes="0; 0.5; 0.7; 1" attributeName="fill" repeatCount="indefinite"/></path>






<path d="M12.418 15.827c0-.236.085-.473.257-.661a13.951 13.951 0 0 1 10.264-4.52c3.964 0 7.75 1.696 10.386 4.655a.98.98 0 0 1-1.462 1.302 11.964 11.964 0 0 0-8.924-4c-3.345 0-6.56 1.417-8.82 3.885a.979.979 0 0 1-1.7-.661z">

<animate dur="4s" values="#000000; #4e86b1; #d7d7d7; #000000" keyTimes="0; 0.5; 0.7; 1" attributeName="fill" repeatCount="indefinite"/>

    </path>






<path d="M5.281 8.302c0-.25.095-.5.286-.691C10.265 2.902 16.515.309 23.167.309c6.717 0 13.01 2.637 17.72 7.424a.979.979 0 1 1-1.395 1.373c-4.34-4.41-10.137-6.839-16.326-6.839A22.752 22.752 0 0 0 6.953 8.994a.979.979 0 0 1-1.672-.692z" fill="#4e86b1">

<animate dur="4s" values="#000000; #4e86b1; #d7d7d7; #000000" keyTimes="0; 0.5; 0.7; 1" attributeName="fill" repeatCount="indefinite"/>

    </path>


</svg>
