<svg version="1.1" xmlns="http://www.w3.org/2000/svg" xmlns:xlink="http://www.w3.org/1999/xlink"
 
  width="500" height="500"  viewBox="0 0 2082.3 1259.15"
 style="border:0px dotted red;">
  <title>The animation is drawing lines</title>
  <desk>Animation pictures of a lion made by the author of website svg-art.ru. I will be thankful who will tell of the author's image of a lion, taken as the basis.
  </desk>
 
	 
          	 
       <path class="path" fill="none" stroke-width="2" stroke ="black" stroke-dasharray= "2000" stroke-dashoffset="2000" 
             
               d="m 552.64064,284.66105 a 1.3756929,1.3756929 0 0 0 1.02489,0.45398 h 0.23388 l 21.12376,-3.6731 a 1.3756929,1.3756929 0 0 0 0.7979,-2.26302 l -12.85585,-14.69239 a 1.3756929,1.3756929 0 0 0 -1.03865,-0.46774 H 537.1297 a 1.3756929,1.3756929 0 0 0 -1.02489,2.2974 z m 8.66687,-17.88401 10.83359,12.38124 -17.95968,3.12282 -13.9564,-15.50406 z" style="fill:#d2d2d2;fill-opacity:1;stroke-width:1">
           

 
	 <animate id="p1" attributeName="stroke-dashoffset" begin="0.1s;f1.end+0.1s" values="2000;0;2000" dur="10s" 
	 calcMode="linear"/>
     
	 <animate id="f1" attributeName="fill" begin="p1.end-0.01s" values="white; white; white" dur="0.1s"  
	 calcMode="linear" />
     
     </path>
     
     
     
     <path class="path" fill="none" stroke-width="2" stroke ="black" stroke-dasharray= "2000" stroke-dashoffset="2000"
           
                d="m 507.15336,318.05599 29.39167,13.75693 h 0.0412 a 1.3756929,1.3756929 0 0 0 0.53651,0.12382 v 0 h 0.17884 0.0619 a 1.3756929,1.3756929 0 0 0 0.39895,-0.13757 h 0.0688 v 0 L 570.896,311.16378 a 1.3756929,1.3756929 0 0 0 0.64658,-1.16935 v -13.39237 a 1.3756929,1.3756929 0 0 0 -1.1212,-1.37569 l -38.57442,-7.3462 a 1.3756929,1.3756929 0 0 0 -0.41271,0 v 0 h -0.055 a 1.3756929,1.3756929 0 0 0 -0.39895,0.13757 l -0.0825,0.0412 a 1.3756929,1.3756929 0 0 0 -0.3164,0.26138 l -23.90266,27.60328 a 1.3756929,1.3756929 0 0 0 0.45397,2.14608 z m 61.65855,-20.3121 v 11.41136 l -30.60228,19.14966 -4.97312,-37.31567 z m -38.15484,-5.27579 4.77366,35.76803 -25.45033,-11.93415 z" style="fill:#d2d2d2;fill-opacity:1;stroke-width:1">
           
           
           	 <animate id="p1" attributeName="stroke-dashoffset" begin="0.1s;f1.end+0.1s" values="3000;0;3000" dur="40s" 
	 calcMode="linear"/>
     
	 <animate id="f1" attributeName="fill" begin="p1.end-0.01s" values="white; white; white" dur="0.1s"  
	 calcMode="linear" />
     
	</path>
    
    
    
     <path class="path" fill="none" stroke-width="2" stroke ="black" stroke-dasharray= "2000" stroke-dashoffset="2000"
           
           d="m 768.80015,769.17321 -30.32029,-7.34619 v 0 0 h -0.0481 l -36.69661,-5.50278 -39.99827,-7.27053 -33.70449,-32.76901 a 1.3344221,1.3344221 0 0 0 -1.01113,-0.39207 l -49.57997,1.83655 v 0 a 1.3756929,1.3756929 0 0 0 -0.94923,0.42647 v 0 0 l -17.38188,18.24855 -8.18536,-8.18537 a 1.3756929,1.3756929 0 0 0 -0.97675,-0.40582 h -11.26693 l -6.55517,-9.8362 5.27578,-14.95379 a 1.3756929,1.3756929 0 0 0 0,-0.92171 v 0 a 1.3137867,1.3137867 0 0 0 -0.0757,-0.17197 v 0 a 1.3756929,1.3756929 0 0 0 -0.63282,-0.61218 v 0 l -0.15133,-0.0619 v 0 l -0.19947,-0.0481 -24.88628,-4.29217 13.99767,-32.37692 a 1.3756929,1.3756929 0 0 0 -1.01113,-1.89846 l -14.69241,-2.75138 a 1.3275436,1.3275436 0 0 0 -0.17884,0 h -0.0756 -0.0412 a 1.3756929,1.3756929 0 0 0 -0.47462,0.0963 l -0.0688,0.0344 a 1.3756929,1.3756929 0 0 0 -0.33017,0.22012 l -0.0963,0.0894 c 0,0 -0.055,0.0481 -0.0757,0.0757 l -6.19061,7.99965 -11.07434,5.11071 -13.06908,-5.72976 5.18637,-23.38679 22.52697,-26.13816 14.19715,-6.19062 19.40415,-1.68522 v 33.3949 a 1.3756929,1.3756929 0 0 0 2.31116,1.01113 l 16.9279,-15.621 a 1.3756929,1.3756929 0 0 0 0.4471,-1.01112 V 607.57063 L 572.83275,592.438 v 0 l 0.0412,-0.0481 28.27049,-30.09329 21.83224,-9.06581 a 1.3756929,1.3756929 0 0 0 0.68785,-0.68785 l 9.72615,-20.33962 h 22.09362 a 1.3756929,1.3756929 0 0 0 1.37569,-1.3757 V 492.6177 l 31.47586,-1.65771 -8.3986,21.89415 a 1.3756929,1.3756929 0 0 0 0.12382,1.23124 l 11.00553,17.45067 a 1.3756929,1.3756929 0 0 0 2.13921,0.24075 l 9.18275,-9.18276 a 1.3756929,1.3756929 0 0 0 0.13757,-1.78151 l -7.11232,-9.78118 -0.83919,-12.82833 7.924,-9.67801 a 1.3756929,1.3756929 0 0 0 -0.16509,-1.91221 l -13.52305,-11.6934 -7.17424,-17.98718 -3.65247,-20.07135 a 1.3756929,1.3756929 0 0 0 -0.68785,-0.94235 l -40.58294,-23.84076 14.44478,-12.85586 34.12405,14.376 a 1.3756929,1.3756929 0 0 0 1.89159,-1.49951 l -4.32655,-25.94557 h 18.57185 a 1.3756929,1.3756929 0 0 0 1.30003,-1.83655 l -5.50277,-15.61411 a 1.3756929,1.3756929 0 0 0 -0.22699,-0.41271 l -12.00292,-14.76806 -13.75693,-14.69241 a 1.3756929,1.3756929 0 0 0 -0.41959,-0.30265 l -28.96525,-13.57811 -10.83359,-20.71793 a 1.3756929,1.3756929 0 0 0 -1.22437,-0.74289 v 0 a 1.3756929,1.3756929 0 0 0 -1.21748,0.76351 l -16.50832,33.06478 a 1.3756929,1.3756929 0 0 0 0.0757,1.37569 1.3756929,1.3756929 0 0 0 1.20373,0.63283 l 22.41003,-0.74976 -28.62817,17.7602 -22.18992,-26.65405 a 1.3756929,1.3756929 0 0 0 -0.17884,-0.15821 l -0.0963,-0.0825 a 1.3756929,1.3756929 0 0 0 -0.93547,-0.23388 h -0.0481 c -0.0344,0 -0.0619,0 -0.0963,0.0344 a 1.3756929,1.3756929 0 0 0 -0.20635,0.0481 L 533.6943,349.1603 479.23063,295.60458 v 0 l -0.0757,-0.0688 -0.0963,-0.055 a 1.3756929,1.3756929 0 0 0 -0.18572,-0.11006 l -0.15821,-0.0619 -0.11005,-0.0412 -53.85838,-12.78019 -36.51089,-31.90921 a 819.2251,819.2251 0 0 1 -0.35767,-0.21323 2.7513858,2.7513858 0 0 0 -0.49526,-0.11693 h -57.91667 a 1.3756929,1.3756929 0 0 0 -1.29315,1.85032 l 13.26857,36.26325 -34.39234,9.69864 a 1.3756929,1.3756929 0 0 0 -0.87356,0.73599 l -14.6924,31.22824 a 1.3344221,1.3344221 0 0 0 -0.0963,0.26825 l -7.3462,31.22823 a 1.3756929,1.3756929 0 0 0 0.32329,1.245 l 20.20892,22.01109 a 1.3756929,1.3756929 0 0 0 0.33017,0.2545 v 0 0 0 a 1.3756929,1.3756929 0 0 0 0.35768,0.11693 h 0.11693 0.13757 a 1.3756929,1.3756929 0 0 0 0.1582,0 h 0.1307 a 1.3756929,1.3756929 0 0 0 0.38519,-0.14444 v 0 l 28.04349,-16.28821 29.44672,4.46413 28.62816,24.15717 1.92597,45.34971 a 1.3756929,1.3756929 0 0 0 0.30954,0.81166 l 23.19418,28.56627 -27.83715,38.62257 -13.75693,18.3655 a 1.3756929,1.3756929 0 0 0 -0.27514,0.82543 v 32.14306 a 1.3756929,1.3756929 0 0 0 0.19949,0.68784 l 18.16601,30.01075 v 40.94749 a 1.3756929,1.3756929 0 0 0 0.40584,0.97675 l 12.74579,12.74579 9.10021,14.56171 a 1.3756929,1.3756929 0 0 0 0.38519,0.40584 l 19.58299,13.55744 v 0 l 4.34031,3.00589 32.92722,20.13327 15.49717,15.49718 a 1.3756929,1.3756929 0 0 0 1.19686,0.38519 l 30.54038,-5.08319 -2.5863,5.8123 -9.12085,13.65376 a 1.3756929,1.3756929 0 0 0 0.19259,1.76089 l 22.0111,21.12376 a 1.3756929,1.3756929 0 0 0 2.06354,-0.15132 l 6.12871,-7.87585 17.68453,-4.01701 -4.20274,22.65765 -12.85585,48.6789 a 1.3756929,1.3756929 0 0 0 -0.0344,0.47461 c 0,0 0,0 0,0 0,0 0,0.0757 0,0.11006 a 1.3756929,1.3756929 0 0 0 0.0825,0.30952 l 18.36549,41.3327 0.0412,0.0619 a 1.3756929,1.3756929 0 0 0 0.10317,0.16507 1.3756929,1.3756929 0 0 0 0.13757,0.17197 l 0.0481,0.0619 c 0,0 0.0688,0.0412 0.10318,0.0688 0.0344,0.0276 0.0619,0.0619 0.10317,0.0825 l 33.34681,20.73169 0.91483,46.22328 6.41761,55.02776 -2.75139,69.69256 c 0,0 0,0.041 0,0.061 0,0.021 0,0.075 0,0.1169 a 1.3756929,1.3756929 0 0 0 0.0963,0.3853 v 0 a 1.3756929,1.3756929 0 0 0 0.28201,0.4195 c 0,0 0,0.041 0.0344,0.055 l 32.14307,31.2283 v 0 h 0.0344 a 1.3756929,1.3756929 0 0 0 0.37831,0.2338 l 0.0619,0.035 h 0.0688 l 0.0894,0.035 38.57442,9.1827 a 1.3756929,1.3756929 0 0 0 0.31641,0.035 1.3756929,1.3756929 0 0 0 0.88045,-2.4349 l -31.18009,-25.8768 13.16539,-21.9493 a 1.3756929,1.3756929 0 0 0 -0.0825,-1.5338 l -10.59283,-14.1284 9.77429,-30.20329 26.43393,-24.58367 28.46998,-30.30657 v 0 a 1.3756929,1.3756929 0 0 0 0.23386,-0.33697 c 0,0 0,0 0,-0.0348 a 6.1287121,6.1287121 0 0 0 0.12381,-0.50908 v 0 l 0.88732,-30.26521 31.27638,-11.61773 0.0894,-0.0481 0.0825,-0.0412 a 1.3756929,1.3756929 0 0 0 0.43334,-0.35769 v 0 c 0,0 0,-0.0344 0,-0.0551 a 1.3756929,1.3756929 0 0 0 0.18572,-0.39206 c 0,0 0,-0.0412 0,-0.0688 v 0 l 10.92988,-51.93242 18.97768,-18.0766 c 0,0 0,-0.0412 0.0412,-0.0619 a 1.3275436,1.3275436 0 0 0 0.17196,-0.24763 0.9079573,0.9079573 0 0 0 0.17196,-0.509 1.3275436,1.3275436 0 0 0 0.0344,-0.17885 v -51.53345 a 1.3756929,1.3756929 0 0 0 -0.93547,-1.3413 z m -250.25918,-33.17482 -6.35571,-6.09433 8.54306,-12.81458 a 1.3756929,1.3756929 0 0 0 0.0688,-0.15132 z m -7.68325,-73.11808 11.37011,2.13232 -11.37011,26.28949 z m 7.80018,-53.2462 -13.68127,5.96362 -41.34645,-23.25608 105.84581,-59.15479 z M 610.6436,481.00682 H 497.8987 l 59.73946,-59.30612 z m -50.10272,-60.19344 71.94873,-6.87846 -19.39039,65.70309 z m -64.98774,58.60452 -7.69699,-58.37065 h 66.49411 z m -2.60694,1.32754 -70.07092,-9.62985 62.35329,-48.8371 z m -0.68785,2.6826 -36.80666,58.10927 -33.57379,-67.80102 z m -33.01662,107.53105 h -59.73947 l 54.70443,-43.97404 z m -2.53816,-46.2852 33.51188,-52.90915 -28.80013,93.87041 z m 38.64321,-60.22783 75.66312,44.71001 -107.88872,60.3035 z m 75.22289,106.4236 -13.89449,15.23579 a 1.3756929,1.3756929 0 0 0 -0.35768,0.9286 v 20.48406 l -14.23842,13.0691 v -31.7166 a 1.3756929,1.3756929 0 0 0 -1.49951,-1.37569 l -18.2692,1.58892 49.93766,-75.11284 z M 499.5908,483.75821 h 111.14223 l -37.26065,43.68513 z m 73.82656,104.07117 1.62332,-54.95894 23.52435,28.2017 z m 48.01169,-36.97175 -20.6354,8.5912 -25.23709,-30.26524 37.70086,-44.20102 17.77396,45.7418 z m 32.70021,-21.43329 h -20.63539 l -17.5676,-45.18464 38.20299,8.18538 z m 21.26134,-91.43543 3.56304,19.58297 a 1.4651129,1.4651129 0 0 0 0.0757,0.26827 l 7.34619,18.35174 a 1.3756929,1.3756929 0 0 0 0.37832,0.52965 l 12.76643,11.06057 -7.44937,9.08645 a 1.3756929,1.3756929 0 0 0 -0.30954,0.96299 l 0.92172,13.75693 a 1.3756929,1.3756929 0 0 0 0.26138,0.68784 l 6.65147,9.14837 -7.10545,7.18111 -9.73303,-15.40777 8.94201,-23.23545 a 1.3756929,1.3756929 0 0 0 -1.37569,-1.87095 l -34.70874,1.85719 -40.15648,-8.60495 19.74807,-66.91371 z m 8.65998,-27.90594 -30.95308,-13.03469 19.51419,-25.45032 7.29118,13.64687 z m 10.65474,-40.24589 4.81493,13.55057 h -17.4713 l -7.56631,-14.22467 9.56107,-12.4844 z m -79.17112,-33.36743 14.29345,-28.58002 9.7743,18.73005 a 1.3756929,1.3756929 0 0 0 0.63969,0.61218 l 29.1303,13.66752 12.80083,13.64687 -9.29281,12.13361 -31.10442,-30.65043 c 0,0 -0.055,0 -0.0757,-0.0481 a 2.1185671,2.1185671 0 0 0 -0.43334,-0.26138 1.3756929,1.3756929 0 0 0 -0.35768,-0.0688 h -0.12381 v 0 z m 9.45788,11.99604 7.81394,9.87059 -7.13984,16.55647 -16.61837,-16.50832 z m 0.16508,29.81126 a 1.3756929,1.3756929 0 0 0 2.25615,-0.4471 l 8.25415,-19.17028 a 1.3756929,1.3756929 0 0 0 -0.18572,-1.37569 l -8.13034,-10.26954 13.28232,-8.25416 30.5335,30.0864 v 0.055 l -21.26133,27.78213 -16.09561,14.3072 -73.04241,7.00227 31.28325,-39.80568 14.87811,-18.00782 z m -20.10574,-20.14702 -13.15162,15.91677 -5.90861,-38.79454 z m -22.27935,-25.62228 6.47263,42.48139 -52.40013,-24.10901 z m 6.05305,45.3222 -30.66419,39.02153 -22.41692,-63.44695 z m -33.07853,40.46601 h -66.8518 l 44.06344,-64.48561 z m -24.17781,-67.33329 -44.16662,64.65756 -7.5388,-115.51693 z m -46.77355,66.92058 -88.56024,-21.97669 80.86323,-95.80326 z m -88.93855,-25.80112 14.44476,-94.33126 64.97399,0.21323 z m 27.30063,-107.30404 a 1.3756929,1.3756929 0 0 0 0.59154,0.30264 l 42.56393,10.09758 -57.09126,-0.19258 -62.64904,-6.76841 40.74802,-34.8119 z m -91.72434,-31.80602 h 52.15941 l -39.73689,33.94522 z m 12.86274,37.77652 59.93206,6.47264 -69.5344,33.83516 z m -35.89871,9.76055 32.95473,-9.29281 -9.7124,40.69299 -34.17908,-8.18538 z m -3.10907,80.98016 -18.39989,-20.07137 7.14672,-30.36154 2.24238,-4.81493 34.3373,8.25417 z m 59.95959,-10.63411 a 1.3756929,1.3756929 0 0 0 -0.68786,-0.30953 l -30.30651,-4.59481 a 1.3756929,1.3756929 0 0 0 -0.90108,0.17196 l -24.25348,14.08021 23.91643,-44.3317 40.8512,42.23377 z m 27.562,22.89841 -57.82725,-59.78074 72.39583,-35.24525 z m 4.12708,48.36249 -1.73338,-43.65075 88.04435,21.83913 -63.56389,49.80009 z m -4.81493,70.2016 27.13553,-37.63896 33.09231,66.85868 -61.41782,-27.63767 z m -13.51619,49.32547 v -31.297 l 10.63411,-14.1834 63.46072,28.51811 -56.74734,45.59734 z m 57.82038,110.90836 -17.77396,-12.29869 -9.03142,-14.44477 a 1.3344221,1.3344221 0 0 0 -0.1926,-0.24762 l -12.44314,-12.46379 v -39.3792 h 62.00249 z m 36.90985,23.06349 -31.0494,-18.9708 -1.472,-1.01801 34.11719,-5.4615 z m -34.21349,-22.51321 22.5201,-78.71027 41.09882,23.11852 -21.83913,25.3609 a 1.3756929,1.3756929 0 0 0 -0.30265,0.59843 l -5.31017,23.88203 z m 51.54033,39.02152 -14.67177,-14.67176 1.67835,-26.82601 12.30557,5.38585 10.36586,34.48173 z m 12.38124,-2.06353 -10.3177,-34.28226 10.87485,-5.04192 a 1.3756929,1.3756929 0 0 0 0.50901,-0.40582 l 3.962,-5.09695 v 32.72086 c 0,0 0,0 0,0 a 4.1270787,4.1270787 0 0 0 0.14444,0.56402 c 0,0 0,0.0412 0,0.0551 0,0.0137 0.0688,0.0688 0.0963,0.11006 a 1.3756929,1.3756929 0 0 0 0.24762,0.27514 4.6911128,4.6911128 0 0 0 0.63283,0.30953 l 22.05236,3.8038 -8.38487,3.65935 z m 29.21283,39.14535 -11.26003,-10.79231 3.50112,-29.36418 9.23779,-3.96199 -4.46413,12.64949 a 1.3756929,1.3756929 0 0 0 0.15132,1.22438 l 7.19488,10.68225 0.85982,12.88336 z m 7.84834,-7.91713 -0.68785,-10.69601 h 9.89811 l 7.01603,7.01604 z m 95.0535,115.55822 -19.43854,-30.86368 62.04375,-28.82765 z m 45.94813,-59.64317 7.52506,41.07131 -49.79321,18.17978 z m -63.87341,25.03761 15.18765,-25.12016 42.64648,-1.754 z m 11.92726,-27.30751 -48.91277,11.42514 8.89386,-60.13155 z m -37.71462,-50.21279 37.467,4.12707 1.23124,42.99042 z m 37.34318,53.13615 -15.56596,25.73921 -30.53351,-14.96755 z m -14.79557,30.51287 19.05334,30.16206 -36.63471,13.37861 z m 19.75494,32.84466 v 38.03103 l -36.75163,-24.61115 z m 0.72912,93.05189 13.23416,34.51614 -43.33432,-13.06911 z m -0.72912,-4.95936 -36.23575,-27.91972 36.22887,-17.35437 z m 2.7514,-41.71793 24.17779,47.70214 -24.17779,-4.33341 z m 0,-45.82432 64.50623,41.27078 -64.50623,-2.50376 z m 1.71272,-2.17359 50.99694,-18.62002 14.67176,60.60616 z m 45.23966,-65.17346 50.73556,-27.51385 -43.28617,68.53701 z m 18.73695,-35.27965 31.72347,4.75303 -48.58259,26.39266 z m -2.86832,-0.48837 -17.23057,31.83354 -15.61411,-37.83156 z m -19.42478,33.70447 -45.47353,1.87095 29.4811,-40.58294 z m -18.05598,-40.58293 -28.92395,39.92261 -1.21747,-42.64649 29.16468,2.61382 z m -4.56042,-3.19161 -24.07462,-2.15984 10.42086,-11.15 z m -30.78113,-29.94883 15.13263,14.71991 -11.22567,12.0098 -18.37924,-26.19319 z m 0.88045,27.19745 -36.27703,-3.96201 19.03272,-20.63539 z m -19.22531,-26.50273 -19.5486,21.1788 -9.06582,-20.12639 z m -47.82596,19.69992 16.67339,-17.51257 9.47164,20.87614 -30.07952,18.00783 z m 26.09001,6.61709 -8.60496,58.21245 -21.52271,-40.17024 z m -31.50337,21.25445 21.48145,40.10833 -32.94097,3.27415 z m -11.26005,46.12699 32.78276,-3.22601 -16.50831,39.89509 z m 35.64421,-2.9715 31.35203,15.37337 -47.95664,24.76247 z m 14.00455,62.20884 -30.54726,-18.97769 48.27307,-24.96195 z m 2.06354,4.64983 36.94423,24.76248 -36.11882,17.31997 z m 1.23125,47.30321 36.17384,27.87154 -30.38905,21.674 z m 39.75752,95.89269 -35.14207,-6.5414 1.32754,-33.70448 z m -35.25213,-3.7557 34.86006,6.4864 -35.93998,20.7661 z m 37.21249,8.3092 -2.43498,33.2575 -34.04839,-12.1888 z m -8.15097,50.144 -26.07627,-25.3333 31.29014,11.1775 z m 33.70446,8.942 -31.31764,-7.4562 5.22075,-14.1697 z m -14.59609,-46.7735 -10.3177,17.1961 2.06354,-28.2016 z m -9.905,-17.5745 -34.00025,-40.47292 42.90099,12.95223 z m 11.20503,-30.83612 -13.27544,-34.61937 24.95507,4.47099 6.63771,13.0691 z m 25.14078,-23.38682 -4.71862,4.39533 -5.33769,-10.52407 13.53681,2.42816 z m 5.72976,-6.10117 -17.34748,-3.10907 -25.87679,-51.04511 64.6163,31.37958 z m 22.32062,-25.40907 -62.1538,-30.1827 62.97234,2.44873 z m 3.20537,-30.89118 -13.64687,-56.40342 19.10149,28.65569 a 1.3756929,1.3756929 0 0 0 0.0963,0.10318 c 0,0 0,0.0619 0.0551,0.0894 0.0549,0.0276 0.0549,0 0.0825,0.055 0.0276,0.055 0.055,0.0688 0.0894,0.0963 l 22.54073,16.85224 z m -14.21091,-62.17444 53.03296,1.03176 -31.98487,30.54038 z m 44.50367,49.67626 -21.53648,-16.10249 31.19384,-29.79063 z m -44.61372,-52.43453 44.71001,-70.76565 10.26267,71.83868 z m 57.52459,-0.36456 -9.4854,-66.41845 26.09002,50.60486 z m 16.92103,-21.20631 -26.32388,-51.05196 26.32388,6.38321 z" style="fill:#d2d2d2;fill-opacity:1;stroke-width:1" >
           
           
           	 <animate id="p1" attributeName="stroke-dashoffset" begin="0.1s;f1.end+0.1s" values="3000;0;3000" dur="30s" 
	 calcMode="linear"/>
     
	 <animate id="f1" attributeName="fill" begin="p1.end-0.01s" values="white; white; white" dur="0.1s"  
	 calcMode="linear" />
     
	</path>
    
    
    
         <path class="path" fill="none" stroke-width="2" stroke ="black" stroke-dasharray= "2000" stroke-dashoffset="2000"
           
                d="m 588.66316,297.62008 a 1.3756929,1.3756929 0 0 0 1.46511,-0.18572 l 15.82048,-13.06909 a 1.3756929,1.3756929 0 0 0 0,-2.12544 l -15.82048,-13.06908 a 1.3756929,1.3756929 0 0 0 -2.25612,1.05928 v 26.17256 a 1.3756929,1.3756929 0 0 0 0.79101,1.21749 z m 1.93286,-24.5011 12.29869,10.15949 -12.29869,10.16638 z" style="fill:#d2d2d2;fill-opacity:1;stroke-width:1">
           
           
           	 <animate id="p1" attributeName="stroke-dashoffset" begin="0.1s;f1.end+0.1s" values="2000;0;2000" dur="30s" 
	 calcMode="linear"/>
     
	 <animate id="f1" attributeName="fill" begin="p1.end-0.01s" values="white; white; white" dur="0.1s"  
	 calcMode="linear" />
     
	</path>
    
    
             <path class="path" fill="none" stroke-width="2" stroke ="black" stroke-dasharray= "2000" stroke-dashoffset="2000"
           
           d="m 844.79655,428.44847 15.82046,-8.942 a 1.3756929,1.3756929 0 0 0 0.68786,-1.05929 l 1.37568,-13.75693 a 1.3756929,1.3756929 0 0 0 -1.20372,-1.50638 l -26.00748,-3.21224 6.38322,-9.85684 a 1.3756929,1.3756929 0 0 0 0.22011,-0.74974 v -16.50833 a 1.3756929,1.3756929 0 0 0 -0.0619,-0.41271 l -4.05829,-12.84897 0.6397,-12.21615 29.82502,-23.72382 a 1.3756929,1.3756929 0 0 0 0.28202,-0.30953 l 26.17256,-38.80142 a 1.3756929,1.3756929 0 0 0 -1.12808,-2.14609 l -37.46698,-0.40582 11.25317,-6.19062 a 1.3756929,1.3756929 0 0 0 0.13068,-2.3318 l -21.32323,-15.03632 a 1.3756929,1.3756929 0 0 0 -0.79104,-0.25451 h -48.90589 -0.0963 a 1.3756929,1.3756929 0 0 0 -0.33705,0.0688 l -0.14443,0.055 a 1.3756929,1.3756929 0 0 0 -0.37833,0.2545 v 0 l -22.18305,22.51321 -10.09758,-16.41201 a 1.3756929,1.3756929 0 0 0 -1.17622,-0.68785 H 731.8384 v -6.5139 a 1.3756929,1.3756929 0 0 0 -0.55715,-1.10744 l -17.19616,-12.7458 a 1.3756929,1.3756929 0 0 0 -0.75663,-0.26825 l -28.58003,-1.37568 -12.11985,-7.3806 a 1.3756929,1.3756929 0 0 0 -1.85719,0.39896 l -15.13262,22.01109 a 1.3756929,1.3756929 0 0 0 -0.24075,0.77726 V 273.401 l -21.62589,4.36783 a 1.3756929,1.3756929 0 0 0 -0.78415,2.23549 l 14.4448,17.19612 a 1.3756929,1.3756929 0 0 0 1.0524,0.48837 h 15.82047 0.11693 a 1.3756929,1.3756929 0 0 0 0.32329,-0.055 v 0 h 0.0413 a 1.3756929,1.3756929 0 0 0 0.33704,-0.17884 l 17.14802,-13.06909 26.51647,-17.67765 h 17.45068 l -33.7939,25.14079 a 1.3756929,1.3756929 0 0 0 -0.55716,1.0524 l -0.68784,16.98981 a 5.9636287,5.9636287 0 0 1 0.0688,0.48837 v 0 a 6.1287121,6.1287121 0 0 0 0.28201,0.46774 v 0 a 1.3756929,1.3756929 0 0 0 0.15821,0.11006 0.8322942,0.8322942 0 0 0 0.48149,0.24074 1.3275436,1.3275436 0 0 0 0.30265,0.0619 h 0.0551 18.26232 l 23.32487,12.22991 9.33408,30.00386 -13.61248,36.75851 c 0,0 0,0 0,0 v 0 c 0,0.0412 0,0.0825 0,0.12383 a 1.3756929,1.3756929 0 0 0 -0.0481,0.26138 l -0.68785,28.93082 a 1.3756929,1.3756929 0 0 0 0.37831,0.98362 l 28.93082,30.30652 a 1.3756929,1.3756929 0 0 0 0.99738,0.42646 1.3756929,1.3756929 0 0 0 1.3757,-1.10744 c 0.16508,-0.82541 3.99639,-19.94754 4.46411,-22.64391 1.0249,-1.74024 11.52144,-10.75103 21.13753,-18.50994 l 31.64094,-21.52959 5.98426,3.81067 -3.21912,13.5093 c 0,0.0412 0,0.0825 0,0.11693 a 1.5476546,1.5476546 0 0 0 0,0.55716 c 0,0.0412 0,0.0825 0,0.12382 a 1.3756929,1.3756929 0 0 0 0.12382,0.22698 c 0,0 0,0.055 0,0.0825 l 4.81492,6.87847 a 1.3756929,1.3756929 0 0 0 0.22012,0.24762 l 17.19616,15.13262 a 1.3756929,1.3756929 0 0 0 1.63019,0.26826 z m 46.3471,-143.35407 -24.62491,36.50401 -27.1149,21.57085 12.71828,-58.46695 z m -46.08572,-24.19845 19.19781,13.51619 -13.31672,7.33244 -47.75031,-20.84863 z m 4.36094,23.19419 -12.67012,58.27435 -37.37071,-80.09285 z m -53.2393,-22.19681 36.53839,78.37323 -57.61402,-56.99496 z m -22.50634,23.82013 60.42043,59.78761 -87.08137,6.50014 z m -124.54148,9.27904 -12.56008,-14.95377 19.2597,-3.89322 6.5483,18.84699 z m 15.88238,-0.86668 -6.01866,-17.31998 19.68616,6.92662 z m 15.29081,-12.73892 -22.16928,-7.80017 V 258.2271 l 14.16963,-20.63539 10.5722,6.45889 z m 28.11229,-17.38875 a 1.3756929,1.3756929 0 0 0 -0.76351,0.23386 l -24.53548,16.357 2.46938,-35.81617 27.16304,1.29314 16.33637,12.07859 v 5.8467 z m -13.80508,29.64617 36.30454,-26.89479 h 30.46472 l 9.7055,15.77231 -77.03879,25.45032 z m 41.95864,28.49748 a 1.3756929,1.3756929 0 0 0 -0.68786,-0.81166 l -24.07461,-12.62885 a 1.3756929,1.3756929 0 0 0 -0.63971,-0.15821 h -10.03567 l 69.67884,-23.02222 -25.69106,63.91469 z m 8.79068,34.25475 36.53839,48.94716 -48.96091,-15.4903 z m 17.19616,70.6212 c -0.26139,1.58205 -2.83393,14.44478 -3.94824,20.092 l -26.75723,-28.00912 0.63282,-26.52335 50.2128,15.89614 c -13.11036,10.68225 -19.91317,16.91414 -20.1883,18.55121 z m 23.38677,-20.93804 -36.70348,-49.14663 65.93697,29.24035 z m 31.40708,-21.96294 -66.7899,-29.61179 84.43316,-6.30067 z m 8.942,5.45463 -6.53453,-4.12709 15.7104,-32.14306 -0.33704,6.36946 a 1.3756929,1.3756929 0 0 0 0.0619,0.48837 l 4.09956,12.85584 v 15.9099 l -7.10546,11.00554 -8.17161,3.06779 2.84768,-11.94789 a 1.3756929,1.3756929 0 0 0 -0.6053,-1.47199 z m -2.06353,16.29508 9.04517,-3.39108 26.57151,3.23974 -1.16933,11.6934 -14.38288,8.15786 -16.39137,-14.39663 z" style="fill:#d2d2d2;fill-opacity:1;stroke-width:1" style="fill:#d2d2d2;fill-opacity:1;stroke-width:1" >
           
           
           	 <animate id="p1" attributeName="stroke-dashoffset" begin="0.1s;f1.end+0.1s" values="2000;0;2000" dur="15s" 
	 calcMode="linear"/>
     
	 <animate id="f1" attributeName="fill" begin="p1.end-0.01s" values="white; white; white" dur="0.1s"  
	 calcMode="linear" />
     
	</path>
    
    
                 <path class="path" fill="none" stroke-width="2" stroke ="black" stroke-dasharray= "2000" stroke-dashoffset="2000"
           
           d="m 578.21478,670.56355 a 1.3756929,1.3756929 0 0 0 -0.53652,-1.25875 c -12.89024,-9.78806 -20.20205,-14.74743 -21.72906,-14.74743 -1.89848,0 -15.20142,4.09269 -19.25972,5.34456 a 1.3756929,1.3756929 0 0 0 -0.55027,2.30429 l 18.82636,18.36549 a 1.3756929,1.3756929 0 0 0 1.51326,0.27513 l 20.89678,-9.18274 a 1.3756929,1.3756929 0 0 0 0.83917,-1.10055 z m -21.96294,7.38747 -16.50832,-16.10249 c 7.30493,-2.24238 14.74055,-4.3747 16.10937,-4.52602 1.63707,0.58466 10.18013,6.66523 18.28983,12.76643 z" style="fill:#d2d2d2;fill-opacity:1;stroke-width:1">
           
           
           	 <animate id="p1" attributeName="stroke-dashoffset" begin="0.1s;f1.end+0.1s" values="2000;0;2000" dur="15s" 
	 calcMode="linear"/>
     
	 <animate id="f1" attributeName="fill" begin="p1.end-0.01s" values="white; white; white" dur="0.1s"  
	 calcMode="linear" />
     
	</path>
    
    
    
    
    <path class="path" fill="none" stroke-width="2" stroke ="black" stroke-dasharray= "2000" stroke-dashoffset="2000"
           
           d="m 576.83909,689.69255 h 0.15132 l 31.68909,-3.43923 a 1.3756929,1.3756929 0 0 0 0.76351,-2.40058 L 590.18331,666.746 a 1.3756929,1.3756929 0 0 0 -2.06355,0.31642 l -12.38123,20.55283 a 1.3756929,1.3756929 0 0 0 1.18309,2.06355 z m 12.72515,-19.79621 15.72417,13.94264 -25.82175,2.83393 z" style="fill:#d2d2d2;fill-opacity:1;stroke-width:1">
           
           
           	 <animate id="p1" attributeName="stroke-dashoffset" begin="0.1s;f1.end+0.1s" values="2000;0;2000" dur="10s" 
	 calcMode="linear"/>
     
	 <animate id="f1" attributeName="fill" begin="p1.end-0.01s" values="white; white; white" dur="0.1s"  
	 calcMode="linear" />
     
	</path>
    
    
    
    <path class="path" fill="none" stroke-width="2" stroke ="black" stroke-dasharray= "2000" stroke-dashoffset="2000"
           
           d="m 973.78152,319.41793 a 1.3756929,1.3756929 0 0 0 1.76777,-0.0412 l 31.94361,-27.9472 a 1.3756929,1.3756929 0 0 0 -1.1694,-2.38683 l -30.36149,5.92235 a 1.3344221,1.3344221 0 0 0 -0.14444,0.055 l -0.17889,0.0688 -0.0963,0.0344 -17.07928,9.71927 a 1.3756929,1.3756929 0 0 0 -0.17879,2.27676 z m 28.04358,-26.69532 -14.49296,12.68389 -8.2955,-8.25417 z m -25.83561,5.31705 9.26529,9.19651 -10.65468,9.3272 -13.00719,-10.3177 z" style="fill:#d2d2d2;fill-opacity:1;stroke-width:1">
           
           
           	 <animate id="p1" attributeName="stroke-dashoffset" begin="0.1s;f1.end+0.1s" values="2000;0;2000" dur="10s" 
	 calcMode="linear"/>
     
	 <animate id="f1" attributeName="fill" begin="p1.end-0.01s" values="white; white; white" dur="0.1s"  
	 calcMode="linear" />
     
	</path>
    
    
    <path class="path" fill="none" stroke-width="2" stroke ="black" stroke-dasharray= "2000" stroke-dashoffset="2000"
           
           d="m 1112.9328,363.24063 a 1.3756929,1.3756929 0 0 0 2.3388,-0.77038 l 4.9662,-33.47749 6.6032,-6.19062 h 11.8517 a 1.3756929,1.3756929 0 0 0 1.0043,-0.43335 l 13.3167,-14.1146 a 1.3756929,1.3756929 0 0 0 -0.1582,-2.06354 L 1138.617,295.1851 a 1.3756929,1.3756929 0 0 0 -2.208,0.92171 l -1.7195,13.99768 -12.8009,2.55879 a 1.3756929,1.3756929 0 0 0 -0.3714,0.13757 v 0 l -0.041,0.0412 a 1.3756929,1.3756929 0 0 0 -0.1582,0.10317 l -18.3654,15.2358 a 1.3756929,1.3756929 0 0 0 -0.096,0.11005 l -0.09,0.0963 a 1.3756929,1.3756929 0 0 0 -0.234,0.40583 v 0 a 1.3756929,1.3756929 0 0 0 -0.061,0.47461 c 0,0 0,0.0412 0,0.0619 0,0.0207 0,0.0412 0,0.0688 0,0.0276 0,0.0825 0,0.13069 l 1.6989,7.97902 -6.8784,8.21289 a 1.3756929,1.3756929 0 0 0 0.082,1.86406 z m 23.2837,-50.59799 a 1.3756929,1.3756929 0 0 0 1.0936,-1.1831 l 1.5477,-12.58757 11.1156,8.57055 -11.8516,12.60823 h -11.0055 l -2.8065,-4.99377 z m -14.4447,3.52177 2.7925,4.96626 -6.1906,5.8123 -10.4208,0.68785 z m -4.4367,13.60562 -1.6509,11.10182 -8.8525,-3.92072 -1.3758,-6.39696 z m -11.3151,9.83619 9.2446,4.12709 -2.3249,15.65538 -12.787,-12.78707 z"style="fill:#d2d2d2;fill-opacity:1;stroke-width:1" >
           
           
           	 <animate id="p1" attributeName="stroke-dashoffset" begin="0.1s;f1.end+0.1s" values="2000;0;2000" dur="10s" 
	 calcMode="linear"/>
     
	 <animate id="f1" attributeName="fill" begin="p1.end-0.01s" values="white; white; white" dur="0.1s"  
	 calcMode="linear" />
     
	</path>
    
    
  
  
  <path class="path" fill="none" stroke-width="2" stroke ="black" stroke-dasharray= "2000" stroke-dashoffset="2000"
           
           d="m 1379.8104,730.75011 a 1.3756929,1.3756929 0 0 0 0.1307,0.42647 v 0 a 1.3756929,1.3756929 0 0 0 0.2476,0.34392 v 0 l 11.4252,11.42513 -2.1667,11.69339 v 0 c 0,0 0,0 0,0.0344 a 1.3756929,1.3756929 0 0 0 0,0.45398 c 0,0 0,0.0412 0,0.0619 0,0.0207 0,0 0,0.0481 a 1.3756929,1.3756929 0 0 0 0.1513,0.36456 v 0 a 1.3756929,1.3756929 0 0 0 0.2339,0.26827 l 22.9602,20.63539 a 1.3756929,1.3756929 0 0 0 2.2974,-0.99738 l 0.4609,-26.17256 a 1.3756929,1.3756929 0 0 0 0,-0.17883 1.3137867,1.3137867 0 0 0 0,-0.15822 c 0,0 0,-0.0481 -0.035,-0.0756 a 2.2836502,2.2836502 0 0 0 -0.2475,-0.46773 c 0,0 0,-0.0412 -0.041,-0.0619 L 1393.574,724.50456 V 707.3084 l 20.6973,17.38876 a 1.3756929,1.3756929 0 0 0 1.7539,0 l 19.7481,-16.01306 v 0 a 2.8820766,2.8820766 0 0 0 0.2958,-0.37144 1.8434285,1.8434285 0 0 0 0.1513,-0.46774 c 0,0 0,-0.0619 0,-0.0894 0,-0.0276 0,-0.055 0,-0.0894 a 2.0635394,2.0635394 0 0 0 -0.082,-0.50213 c 0,0 0,-0.0412 0,-0.0619 l -11.0056,-25.25772 a 1.3756929,1.3756929 0 0 0 -0.4403,-0.55716 l -14.4446,-10.72357 41.8829,-25.57413 a 1.3756929,1.3756929 0 0 0 0.2545,-0.21323 v 0 0 a 1.3756929,1.3756929 0 0 0 0.2339,-0.34392 l 21.1719,-44.60684 v 0 a 1.3756929,1.3756929 0 0 0 0.1169,-0.46086 1.3000297,1.3000297 0 0 0 0,-0.13757 1.3756929,1.3756929 0 0 0 -0.048,-0.36456 c 0,0 0,-0.055 0,-0.0825 0,-0.0276 0,-0.0412 -0.041,-0.0619 a 1.3756929,1.3756929 0 0 0 -0.1926,-0.32329 c 0,0 -0.041,-0.0688 -0.075,-0.10317 v 0 l -22.754,-22.76084 10.187,-23.4762 a 1.3756929,1.3756929 0 0 0 -0.9629,-1.89159 l -18.3655,-4.07892 9.6298,-10.71665 20.2984,12.09234 14.5136,25.40217 a 1.3756929,1.3756929 0 0 0 2.538,-0.37144 l 5.5028,-23.87515 a 1.3756929,1.3756929 0 0 0 -0.3369,-1.25187 l -11.9755,-12.86273 2.1942,-22.80212 14.8162,-16.24693 a 1.3756929,1.3756929 0 0 0 0.3303,-0.63282 l 5.9704,-27.09426 a 1.3756929,1.3756929 0 0 0 0,-0.37833 l -1.3757,-22.96031 c 0,0 0,-0.0344 0,-0.055 a 1.3756929,1.3756929 0 0 0 -0.1582,-0.51589 v -0.055 a 0.94234967,0.94234967 0 0 0 -0.3851,-0.40583 c 0,0 0,-0.0344 -0.049,-0.0481 l -34.3923,-22.33438 15.903,-37.98976 35.3966,-19.5142 c 0,0 0.054,-0.0481 0.082,-0.0688 l 0.1444,-0.11006 a 1.3756929,1.3756929 0 0 0 0.2132,-0.22699 1.3206653,1.3206653 0 0 0 0.096,-0.14445 1.3756929,1.3756929 0 0 0 0.1307,-0.35767 c 0,0 0,-0.055 0,-0.0894 0,-0.0343 0,0 0,0 a 1.3756929,1.3756929 0 0 0 0,-0.46773 l -3.9483,-18.44117 32.6452,-25.45031 2.0637,28.44932 -12.3814,54.44304 a 1.3756929,1.3756929 0 0 0 0.2752,1.16934 l 24.7969,30.76737 a 1.3756929,1.3756929 0 0 0 2.4281,-0.63281 l 7.3462,-43.62322 a 1.3756929,1.3756929 0 0 0 -0.1789,-0.94236 l -13.0002,-21.52271 5.7229,-19.36975 22.8364,-29.19221 a 1.3756929,1.3756929 0 0 0 0.1238,-0.21323 c 0,0 0.041,-0.0551 0.054,-0.0894 v 0 l 7.3876,-18.40677 a 1.3756929,1.3756929 0 0 0 0,-1.02489 l -7.016,-17.54696 9.953,-10.36585 16.3364,1.32755 h 0.1101 a 1.4169636,1.4169636 0 0 0 0.172,0 h 0.1582 0.035 0.061 a 1.3344221,1.3344221 0 0 0 0.3646,-0.18573 l 0.096,-0.0757 a 1.3756929,1.3756929 0 0 0 0.2751,-0.32328 v -0.0412 0 l 9.1828,-16.9898 a 1.3756929,1.3756929 0 0 0 -0.4608,-1.80904 l -16.9899,-11.00555 h -0.048 l -0.1031,-0.0481 a 1.3756929,1.3756929 0 0 0 -0.3509,-0.11694 h -0.1375 -0.1101 -25.0788 l -57.8617,-5.50277 h -0.227 a 1.3756929,1.3756929 0 0 0 -0.2476,0.0412 l -0.1376,0.0412 a 1.3756929,1.3756929 0 0 0 -0.2682,0.13758 l -0.069,0.0343 v 0 a 1.3756929,1.3756929 0 0 0 -0.2615,0.2545 l -20.3946,26.6059 -16.866,-9.51291 a 1.3756929,1.3756929 0 0 0 -0.2889,-0.0963 1.3756929,1.3756929 0 0 0 -0.1651,-0.055 11.542064,11.542064 0 0 0 -0.5158,0 v 0 l -102.8675,23.38677 a 1.3756929,1.3756929 0 0 0 -1.0661,1.26564 l -1.4652,26.77099 -7.3392,-20.27772 v 0 a 1.3756929,1.3756929 0 0 0 -0.1928,-0.3508 v 0 h -0.035 a 1.3756929,1.3756929 0 0 0 -0.2545,-0.24074 l -0.1031,-0.0551 a 1.3756929,1.3756929 0 0 0 -0.2476,-0.12381 h -0.1238 a 1.3344221,1.3344221 0 0 0 -0.2683,-0.0412 h -0.1101 l -71.1783,-0.45397 -3.7832,-9.25155 a 1.3756929,1.3756929 0 0 0 -1.2725,-0.85292 h -41.3327 a 1.3756929,1.3756929 0 0 0 -0.791,0.24762 l -46.0857,32.1637 h -0.041 l -0.09,0.0688 -22.2106,15.50405 a 1.3756929,1.3756929 0 0 0 -0.5572,1.42385 l 2.0017,9.20338 -11.9548,2.46936 a 1.3756929,1.3756929 0 0 0 -0.9217,2.02916 l 17.5125,30.95309 -6.6995,11.17062 -28.6557,-45.39785 a 1.3756929,1.3756929 0 0 0 -2.4763,0.30952 l -5.0488,15.61411 a 1.3756929,1.3756929 0 0 0 0.1789,1.21749 l 14.7129,21.01371 -92.2401,8.50867 h -0.1102 l -0.1925,0.0481 a 1.3756929,1.3756929 0 0 0 -0.2751,0.1238 1.3000297,1.3000297 0 0 0 -0.1514,0.10319 1.3756929,1.3756929 0 0 0 -0.2613,0.28201 c 0,0 -0.048,0.0412 -0.061,0.0688 v 0 a 1.3756929,1.3756929 0 0 0 -0.1721,0.45399 l -3.0952,17.60198 -14.5962,-21.12376 a 1.3756929,1.3756929 0 0 0 -0.9767,-0.58468 l -27.5552,-3.10217 h -0.1031 a 1.3756929,1.3756929 0 0 0 -0.3646,0 h -0.061 l -40.5829,11.48015 c -0.0412,0 -0.0687,0.0412 -0.1101,0.055 a 1.3756929,1.3756929 0 0 0 -0.15818,0.055 c 0,0 -0.055,0.0481 -0.0898,0.0688 l -0.0824,0.0412 -23.72388,17.45067 a 1.3756929,1.3756929 0 0 0 -0.2407,1.98787 l 10.00125,12.06482 -29.36415,17.09299 a 1.3756929,1.3756929 0 0 0 -0.68783,1.04553 l -2.75139,25.71858 a 1.3756929,1.3756929 0 0 0 1.37568,1.52702 h 31.35203 l 9.24468,15.82046 a 1.3756929,1.3756929 0 0 0 1.12808,0.68786 1.4238422,1.4238422 0 0 0 1.18312,-0.5778 l 18.81947,-26.61276 a 1.3756929,1.3756929 0 0 0 0.15828,-1.29314 l -7.07107,-18.12476 14.44471,-19.74807 1.3757,11.9135 -6.1906,11.09496 a 1.3756929,1.3756929 0 0 0 0.2064,1.62333 l 9.5198,9.97377 6.8784,12.50504 -5.4133,10.0013 -34.05527,18.37237 -19.65178,-5.3652 a 1.3756929,1.3756929 0 0 0 -1.3207,0.34392 l -16.0199,15.56597 -14.49294,12.73892 -4.73926,-2.06355 9.1965,-9.62984 a 1.3756929,1.3756929 0 0 0 0.19947,-1.63707 l -10.57896,-18.38619 v -0.0412 -0.0413 l -15.61412,-22.49945 a 1.3756929,1.3756929 0 0 0 -2.46249,0.42648 l -5.80542,21.44704 -11.38386,5.69536 a 1.3756929,1.3756929 0 0 0 -0.30953,0.21324 l -14.23842,12.85586 a 1.3756929,1.3756929 0 0 0 -0.24074,1.76088 l 6.43136,10.10447 c 0,0 0.0344,0 0.0481,0.0481 a 1.3756929,1.3756929 0 0 0 0.37831,0.37144 v 0 a 1.3756929,1.3756929 0 0 0 0.48837,0.17196 h 0.0619 l 14.9194,1.78152 10.04943,9.82245 15.13261,13.36486 v 15.13262 l -36.41459,3.54929 a 1.3756929,1.3756929 0 0 0 -0.92171,2.25613 l 29.39169,34.90134 a 1.3756929,1.3756929 0 0 0 2.15983,-0.0619 l 14.44478,-19.42479 37.64588,-14.16962 17.29937,25.28523 a 1.3756929,1.3756929 0 0 0 1.83656,0.40582 l 17.19613,-10.13197 31.8886,20.6354 a 1.3756929,1.3756929 0 0 0 0.1306,0.055 1.3137867,1.3137867 0 0 0 0.1239,0.0757 h 0.075 a 1.3137867,1.3137867 0 0 0 0.282,0.055 c 0.048,0 0.09,0 0.1376,0 h 0.048 0.075 l 24.281,-2.24925 12.8353,9.58169 1.1762,11.69339 -42.4127,2.18736 -9.2034,-10.9574 a 1.3756929,1.3756929 0 0 0 -1.0454,-0.48836 v 0 a 1.3756929,1.3756929 0 0 0 -1.0388,0.47461 l -14.2315,16.3845 -14.11467,-12.82833 a 1.3756929,1.3756929 0 0 0 -0.22688,-0.14446 1.2931514,1.2931514 0 0 0 -0.12393,-0.0894 v 0 a 1.3756929,1.3756929 0 0 0 -0.44698,-0.10318 h -0.0614 v 0 l -19.56917,-0.43335 -3.43926,-16.8316 a 1.3756929,1.3756929 0 0 0 -1.37565,-1.10056 h -26.23454 a 1.3756929,1.3756929 0 0 0 -0.3164,0.0481 l -0.12382,0.0481 a 1.3275436,1.3275436 0 0 0 -0.17197,0.0688 l -0.0551,0.0412 h -0.055 l -14.5273,9.98753 -41.1401,13.2548 a 1.3756929,1.3756929 0 0 0 -0.1582,0.0894 1.3756929,1.3756929 0 0 0 -0.24763,0.13756 c 0,0 -0.055,0 -0.0757,0.0412 l -24.79687,21.60526 c 0,0 -0.0412,0.0551 -0.0619,0.0825 a 1.3275436,1.3275436 0 0 0 -0.15821,0.19947 1.3756929,1.3756929 0 0 0 -0.10318,0.13069 l -17.884,34.90133 a 1.3756929,1.3756929 0 0 0 -0.15133,0.68784 l 1.37569,33.06477 v 0 a 1.3756929,1.3756929 0 0 0 0.0481,0.28202 c 0,0 0,0.0412 0,0.0619 v 0 a 1.3756929,1.3756929 0 0 0 0.15133,0.3164 v 0 l 20.20205,31.22824 a 1.3756929,1.3756929 0 0 0 0.30953,0.33705 l 22.49946,17.57447 v 0 0 a 1.3756929,1.3756929 0 0 0 0.15821,0.0825 0.8322942,0.8322942 0 0 0 0.39206,0.13756 1.3756929,1.3756929 0 0 0 0.15822,0.0344 l 44.18036,3.09531 h 34.18596 l -9.27216,21.4952 c 0,0 0,0.055 0,0.0825 a 1.6301961,1.6301961 0 0 0 -0.076,0.50901 c 0,0 0,0.0619 0,0.0894 0,0.0276 0,0 0,0.0551 a 1.3756929,1.3756929 0 0 0 0.11687,0.38518 c 0,0 0,0.0481 0,0.0688 a 1.3756929,1.3756929 0 0 0 0.25454,0.34392 l 37.39824,36.49712 -10.12509,20.69043 a 1.3756929,1.3756929 0 0 0 -0.11697,0.36456 l -4.12704,23.091 c 0,0 0,0.0412 0,0.0619 0,0.0207 0,0 0,0.0481 0,0.0481 0,0.0825 0,0.13069 a 1.3756929,1.3756929 0 0 0 0,0.2201 l 6.87844,42.57771 v 0 a 3.2053645,3.2053645 0 0 0 0.14444,0.39207 c 0,0 0,0.0343 0,0.0481 a 1.3756929,1.3756929 0 0 0 0.10314,0.13756 c 0,0 0.0348,0.0619 0.0623,0.0894 l 18.02161,19.81686 0.4539,29.5774 a 1.3756929,1.3756929 0 0 0 1.3757,1.37565 1.2862729,1.2862729 0 0 0 0.2476,0 l 44.0841,-8.03399 c 0,0 0.061,0 0.09,-0.0348 a 1.3756929,1.3756929 0 0 0 0.282,-0.11009 1.3206653,1.3206653 0 0 0 0.1858,-0.10314 l 0.082,-0.0485 a 1.3756929,1.3756929 0 0 0 0.2063,-0.23384 l 0.042,-0.0412 35.3622,-51.43034 c 0,0 0,-0.0619 0.042,-0.0894 a 1.3756929,1.3756929 0 0 0 0.082,-0.12381 c 0,-0.0412 0,-0.0825 0.035,-0.13069 0.035,-0.0481 0,-0.0551 0.041,-0.0894 l 5.4407,-20.84862 21.8668,-28.13292 c 0,-0.0344 0.042,-0.0757 0.069,-0.11005 0.027,-0.0344 0.048,-0.0551 0.069,-0.0894 0.021,-0.0344 0,0 0,-0.0412 a 1.3756929,1.3756929 0 0 0 0.1307,-0.39207 l 9.1277,-59.9183 12.6357,-16.24694 v 0 a 1.3756929,1.3756929 0 0 0 0.1788,-0.29577 l 18.8883,-43.29306 v 0 l 2.9852,-6.87847 16.1988,-10.79918 a 1.4100853,1.4100853 0 0 0 0.117,-0.11006 l 0.1169,-0.10317 0.075,-0.0688 31.2282,-38.57443 c 0,0 0,-0.0551 0.048,-0.0825 l 0.055,-0.0825 a 1.3756929,1.3756929 0 0 0 0.1788,-0.44022 v 0 a 1.3756929,1.3756929 0 0 0 0,-0.46086 c 0,0 0,-0.0688 0,-0.10318 0,-0.0344 0,-0.0551 0,-0.0825 0,-0.0276 -0.055,-0.0756 -0.069,-0.1238 a 1.3137867,1.3137867 0 0 0 -0.11,-0.26139 c 0,-0.0412 -0.069,-0.0619 -0.096,-0.0963 a 1.3000297,1.3000297 0 0 0 -0.1581,-0.15819 1.3344221,1.3344221 0 0 0 -0.3372,-0.21323 c -0.042,0 -0.069,-0.055 -0.11,-0.0688 l -36.4558,-12.30558 -25.6566,-23.71695 9.9462,-5.06255 15.3665,16.24007 c 0,0 0.061,0.0412 0.09,0.0688 0.028,0.0276 0,0.0481 0.055,0.0688 0.055,0.0207 0.069,0 0.1031,0.055 a 1.5270192,1.5270192 0 0 0 0.4746,0.19948 h 0.096 l 84.7289,10.87485 2.2423,48.43814 c 0,0 0,0.055 0,0.0894 0,0.0343 0,0.0481 0,0.0757 a 1.3000297,1.3000297 0 0 0 0.055,0.1582 1.3756929,1.3756929 0 0 0 0.082,0.22699 1097.8029,1097.8029 0 0 1 0.2339,0.3508 l 31.6891,32.60393 a 1.2862729,1.2862729 0 0 0 1.0318,0.41958 1.3756929,1.3756929 0 0 0 1.0042,-0.47462 l 11.494,-13.24104 a 1.3756929,1.3756929 0 0 0 0.3301,-0.82541 l 1.3757,-26.02811 40.3766,-33.27801 33.2161,31.88168 z m -2.3043,-36.45586 13.3099,10.72352 v 19.15653 l -8.5087,4.29905 z m 34.9495,78.19438 -18.7575,-16.87975 19.1289,-4.49852 z m -0.8048,-23.93705 -19.0947,4.49164 1.9123,-10.3177 a 1.3756929,1.3756929 0 0 0 -0.3783,-1.22437 l -10.586,-10.58596 8.378,-4.18897 z m -19.9476,-46.38149 -13.6675,-11.00555 26.5784,-17.0861 z m 23.49,19.67929 -18.8125,-15.82047 34.97,2.65509 z m 7.5663,-38.65697 9.96,22.82274 -38.4437,-2.83392 14.0802,-30.63669 z m -12.7114,-15.82047 13.1723,-48.14925 25.9387,24.29474 z m -207.42,-176.77655 -102.5442,-35.33466 17.2512,-44.9714 z m -83.3327,-82.17013 49.525,-20.28459 36.1945,100.98962 z m 85.3274,85.85012 -58.1162,27.89217 -44.6274,-63.28188 z m -106.5612,-41.33958 -27.9816,-50.11649 44.8064,6.26629 z m 0.3096,5.73664 45.3359,64.29302 -63.4538,12.47754 h -23.2975 a 1.3756929,1.3756929 0 0 0 -0.7771,0.24074 l -9.3341,6.37634 z m 42.1305,67.73225 -44.1322,33.60818 -13.7569,-22.21744 z m 0.5984,3.00588 -33.8627,55.77061 -9.561,-22.69894 z m -36.1394,57.44894 -42.2269,0.7979 32.6658,-23.50371 z m 2.0635,3.08155 38.8771,30.26525 -67.6222,-8.02028 z m 39.0285,-63.37129 45.4735,75.78693 -82.294,-15.14639 z m 1.9672,-2.06353 58.5495,-28.09854 -13.1516,103.75477 z m 61.4178,-28.82766 86.5242,15.32523 -99.8547,89.77084 z m 202.5364,-79.10234 36.0019,-61.3559 17.2581,64.76074 z m 52.2763,6.10808 -43.3894,52.56523 -9.5885,-55.95631 z m -17.0035,-73.34506 -61.2183,-37.43949 64.7813,-4.20962 z m 6.2731,-40.83746 57.5521,33.60819 -61.122,7.97901 z m -6.961,43.64387 -36.4558,62.09877 -26.3033,-100.48061 z m -28.1329,125.18805 -67.5603,-36.22199 -14.5134,-78.68964 72.0311,56.19706 z m -69.5963,-32.01237 9.6298,52.12501 -56.2796,10.65474 z m -49.1742,61.54162 -22.1416,-102.03514 70.0365,37.5908 z m 59.2855,-6.69962 8.3918,45.48728 -64.3274,-34.89444 z m 11.4114,46.67038 -8.3917,-45.49416 72.3133,44.2354 z m 61.0188,1.55453 -106.1552,41.86922 44.593,-40.63797 z m -70.2566,-51.62975 -9.6298,-52.22131 64.2861,34.50238 z m -13.3854,-57.35952 -69.6032,-37.35693 55.2478,-40.58295 z m -70.7313,-39.97763 3.0197,-93.38205 52.1456,52.79222 c 0,0 0,0.0412 0,0.0619 z m 20.1677,108.98926 -86.5312,-15.32522 64.1968,-87.59037 z m -0.1652,5.31707 -10.3176,66.90681 -87.5009,21.01371 z m -8.3985,69.76826 27.5138,11.18439 -59.0928,49.95827 z m 0.8805,-2.61382 9.7743,-63.54326 17.5125,74.63823 z m 11.5351,-68.0968 65.8612,35.72674 -47.3512,43.15549 z m 130.1268,38.68448 -67.7048,54.49121 -40.4591,-11.87224 z m 5.6403,-1.00425 -15.3114,64.65757 -54.4431,-8.50866 z m 14.2316,91.00896 -25.9112,-24.2741 44.7926,-15.61411 z m 19.0189,-42.84595 -44.1735,15.40088 23.5037,-36.03627 z m -12.2574,-46.19577 -9.8499,22.69894 -22.2863,34.16533 14.4448,-60.785 z m -18.9983,-7.3462 -75.4361,-46.14761 55.3165,-17.93217 30.623,52.36576 z m -15.958,-62.42895 57.1599,28.61442 -28.5869,20.29835 z m 68.4407,65.98512 -4.5604,19.72056 -12.9454,-22.65767 a 1.3756929,1.3756929 0 0 0 -0.4884,-0.50212 l -19.7685,-11.77594 27.5136,-19.53483 -2.0083,20.87613 a 1.3756929,1.3756929 0 0 0 0.3645,1.07305 z m 11.1431,-81.33786 -5.8467,26.544 -10.868,11.85849 15.8205,-53.35627 z m -20.5872,41.76605 -59.2237,-29.5774 77.6717,-32.61081 z m 17.6638,-64.88456 -75.5599,31.73036 43.4169,-52.59962 z m -16.5564,-63.39881 a 1.3756929,1.3756929 0 0 0 -0.6053,0.68784 l -14.9676,35.76802 -17.0173,-63.86654 64.8434,9.62986 z m 34.7087,-20.15391 -59.2304,-8.81818 55.7774,-7.2843 z m -1.3344,-20.1814 -10.0701,-72.19636 42.3851,46.97991 z m 47.936,4.9181 a 1.3756929,1.3756929 0 0 0 -0.2339,0.46085 l -5.9705,20.20893 a 1.3756929,1.3756929 0 0 0 0.1444,1.10056 l 13.0691,21.60525 -6.7546,40.10145 -22.4582,-27.86466 12.2506,-53.99595 a 1.3756929,1.3756929 0 0 0 0,-0.40582 l -2.1805,-29.69433 33.4225,1.22437 z m 29.9075,-46.91114 -6.7822,16.95543 -33.3879,-1.22438 33.78,-31.71659 z m 29.5155,-44.9989 -6.961,12.8696 -5.9085,-21.25446 z m -16.2193,-10.13198 6.9954,25.13391 -15.0226,-1.21749 a 1.3756929,1.3756929 0 0 0 -1.1075,0.41958 l -9.0382,9.41662 -4.4711,-33.70448 z m -25.4504,-0.11694 4.4985,33.94523 -56.0251,-38.84957 z m 4.0859,37.01301 -34.8258,32.70023 -23.3867,-73.04929 z m -61.2184,-40.85807 22.5339,70.36669 -41.3327,-45.8312 z m -21.8872,25.4916 8.7631,62.80725 c -2.6001,-8.00653 -5.9636,-18.33799 -9.3272,-28.66257 -3.5493,-10.8886 -7.1055,-21.77033 -9.7812,-29.92819 -1.3412,-4.07893 -2.4624,-7.48377 -3.2535,-9.86373 q -0.5228,-1.56139 -0.8392,-2.49688 z m 9.8705,75.14033 -58.5426,-34.18596 31.5102,-48.54133 c 2.2769,6.58957 17.8222,54.35363 27.0324,82.72729 z m -29.5086,-83.97916 -30.8636,47.5233 -19.3355,-36.11881 z m -33.2023,49.01593 -64.6163,4.19587 45.164,-40.52792 z m -65.3455,-26.57839 41.4015,-9.42349 -42.9972,38.58819 z m -3.8863,35.08017 26.3789,100.74888 -71.2128,-55.56425 0.9217,-1.82966 z m -0.8666,-3.01277 -39.2073,38.67762 30.953,-61.47284 z m -45.3085,44.71003 -1.1488,1.12807 -52.0355,-52.68216 87.9481,-17.54697 z m 23.7444,-69.70636 -75.0647,14.97442 17.0105,-15.34586 z m -103.6103,-10.4759 h 39.9707 l 3.4393,8.35045 -20.0507,18.07661 -65.2835,2.8408 z m 22.4857,29.17845 -3.0264,93.80849 -63.5021,-90.90579 z m -68.5025,4.8837 62.8003,89.90153 -77.1145,-33.4087 z m -31.7237,26.55776 11.4665,-2.37307 a 1.3756929,1.3756929 0 0 0 1.0662,-1.64396 l -2.1048,-9.66424 18.448,-12.87649 -13.5918,53.61075 z m 16.3434,32.46635 66.8105,28.95145 -73.4964,-17.81522 z m 79.7901,34.92884 -64.2792,87.68667 -22.5477,-108.72102 z m -70.3529,72.00376 -31.5309,-87.96868 12.2505,-5.0144 z m -51.6435,-126.81825 3.9345,-12.16112 27.4038,43.42375 -12.0167,4.92498 -3.4393,-13.33735 c 0,0 0,-0.0412 0,-0.0688 a 1.6921023,1.6921023 0 0 0 -0.1444,-0.31641 c 0,0 0,-0.0412 0,-0.0619 z m 13.7569,25.51911 3.0196,11.69338 -41.649,17.0586 z m -3.9276,-0.509 -44.3317,33.01662 -41.2708,-25.13391 z m -88.8422,9.12771 38.1892,23.26984 -41.2708,-5.77103 z m -22.0111,-3.79691 16.1437,23.20106 29.1028,52.11125 -60.6819,-17.88401 -9.7054,-60.25534 z m -18.7644,54.18167 -22.8916,-25.06512 14.2109,-29.01338 z m -4.3748,-0.68785 -17.0449,-9.15524 -1.2655,-10.88861 z m -65.95072,-28.70384 20.7042,-15.23579 6.19067,39.89509 -16.91423,-12.58758 z m -22.94654,55.3235 2.51748,-23.49684 26.32396,-15.32522 -18.38614,38.82206 z m 57.53146,-8.94201 -17.19615,24.28099 -8.56368,-14.68552 a 1.3756929,1.3756929 0 0 0 -1.18999,-0.68786 H 951.7154 l 19.0121,-40.14271 18.08342,13.45428 z m -4.94562,-22.12802 -5.94299,-38.27176 20.25031,18.75068 z m 15.71732,-21.96982 -20.89678,-19.34223 35.25218,-9.97378 z m -2.5038,29.40545 5.2689,-9.40975 20.9519,11.25317 -17.8841,6.87847 z m 9.9188,11.00554 16.1025,-6.19063 -10.6204,16.10249 z m 6.5552,13.30983 13.6468,-20.69043 57.9235,17.07923 -76.1514,12.16113 z m 75.0509,-1.3757 -53.2325,86.17342 -21.2269,-36.82043 -6.1906,-36.49713 z m -86.6686,100.42559 11.4182,-46.89736 19.982,34.66057 z m 31.2075,-9.20338 -3.2122,10.07007 h -22.6027 z m -33.897,8.60496 -20.31211,-22.21744 31.12491,-22.18993 z m 6.1149,-85.98081 5.6747,33.62881 -36.45582,-17.01733 z m 5.8605,36.75851 -0.1721,0.68785 -33.0853,23.59313 -4.81492,-42.05493 z m -59.53318,-24.03336 18.57189,5.05567 4.85623,42.33696 -37.83157,-33.36743 z m -15.09132,17.12739 38.05854,33.56002 -10.41398,7.42874 -27.63769,-3.02653 z m -14.99506,-4.19587 -8.70814,9.07957 -8.94199,-12.33309 8.6531,-12.38124 z m -23.90955,-37.44636 13.37862,19.25969 -8.79755,12.56008 -9.62985,-13.28231 z m -30.91181,37.89346 13.22728,-11.93414 10.72353,-5.36521 9.43726,13.06909 -28.2017,12.38124 z m 9.82245,9.09333 25.22334,-11.06745 8.29542,11.47328 -23.25609,0.82541 z m 21.50208,11.6934 -8.03405,-7.85521 22.41691,-0.79103 7.05731,3.08843 a 1.3756929,1.3756929 0 0 0 1.46511,-0.22698 l 12.86965,-11.3082 v 38.29929 l -19.74811,8.4605 v -14.85748 a 1.3756929,1.3756929 0 0 0 -0.46773,-1.03176 z m 19.94754,49.82759 -13.63999,18.35862 -26.57839,-31.56527 35.08017,-3.43924 a 1.3206653,1.3206653 0 0 0 0.23387,-0.0688 1.3000297,1.3000297 0 0 0 0.17196,-0.0344 l 18.75757,-8.04091 z m 39.26229,-15.06383 -35.03891,13.19288 13.75693,-24.37727 26.33074,2.88208 z m 19.25967,25.45031 -16.72837,-24.35664 5.1038,-8.39173 26.74346,23.82012 z m 17.19629,-10.84046 -26.95683,-23.88203 9.8569,-7.02979 21.60523,23.58625 z m 33.3743,0.17196 -1.6509,20.63539 -29.5362,-19.13588 4.8563,-7.84146 h 28.3048 l -1.9191,6.01178 a 1.5063837,1.5063837 0 0 0 -0.1032,0.39896 z m 2.7513,0.37832 2.1392,-6.69963 h 15.2564 l -18.8951,24.8175 z m -0.1995,21.03434 19.2598,-25.26459 1.128,23.38677 z m 20.5253,-30.47848 h -17.3749 l 3.6799,-11.5283 13.9564,-9.54044 h 22.2244 l 13.8463,22.35501 z m 1.3758,2.80643 33.5119,1.18309 -32.3288,23.26297 z m 4.0307,28.33926 40.4386,-0.76351 -28.1606,21.77722 -1.238,-12.38124 a 1.3756929,1.3756929 0 0 0 -0.5572,-0.97674 z m 11.4183,25.72546 60.8813,13.17226 -36.456,26.98422 -30.8223,-21.85977 z m -44.1529,273.71473 -41.31891,9.62986 30.62291,-33.70448 z m -35.00451,-73.59957 72.84291,7.42186 -47.8329,37.55642 z m 26.81221,48.61011 32.5214,2.36619 -22.011,21.28884 z m 35.658,3.17098 22.0798,23.18042 -44.4072,-1.58893 z m 0.2132,-3.31543 h -0.076 l -34.3373,-2.49688 47.3514,-37.25376 15.6897,44.86135 -28.5594,-5.09695 z M 996.61117,813.67 l 59.88383,-34.43359 12.6701,41.82106 z m -29.01335,-60.27598 40.93368,-26.82601 44.6206,48.14925 z m 76.08268,21.80473 -56.76796,-2.48312 -17.72584,-16.07497 z m -113.51532,-95.4043 -37.28128,33.14044 -3.23289,-66.28088 z m -38.37496,-34.94948 44.40737,-3.23976 -4.93874,35.52727 z m 40.41786,36.81354 22.38255,23.26985 -58.5564,8.89385 z m 2.14608,-1.74025 31.90236,-24.10901 -9.62993,47.24128 z m 71.35024,45.27406 -40.43838,26.4752 -6.14936,-43.67137 z m -44.70996,-19.43167 48.95406,-22.55448 -2.4969,39.7025 z m 101.80136,-66.38406 -9.967,27.16305 -35.1902,11.06745 z m -44.6138,34.13782 21,-31.13881 21.5364,-4.81493 z m 37.1437,-4.12708 43.8089,8.57745 -41.3532,23.28359 z m 0.5228,104.27752 -44.8338,-48.32809 44.1941,-19.71368 z m -3.2261,-104.18811 2.4351,31.64095 -39.8951,-19.89253 z m 0.7704,33.91772 -43.1279,19.2597 2.483,-39.50991 z m 4.6087,0.87356 43.7745,-24.64553 0.3027,15.95115 a 1.3756929,1.3756929 0 0 0 0.3439,0.88733 l 23.4693,26.4477 -67.237,51.49217 z m -2.2906,-37.65958 10.6961,-29.02713 33.0165,37.58393 z m 15.8205,-52.12501 -5.8467,16.9279 -8.2541,-16.20566 z m -7.6351,19.49357 -22.6164,5.09006 13.8669,-22.31374 z m -11.1913,-18.52371 -14.0114,22.54074 -7.8071,-21.41268 z m -33.4086,-9.51292 8.4467,10.05632 8.0272,22.01109 -29.4811,-17.11363 z m 17.1067,35.64421 -23.9784,35.56166 -6.562,-53.29435 z m -26.6334,36.59343 -39.16604,-25.83552 32.50084,-28.3324 z m -20.30525,-68.39945 12.61505,11.4664 -29.81817,26.0006 z m -19.75502,-1.33442 17.1618,0.37831 -17.1618,37.3707 z m 38.95977,72.31329 -49.35313,22.73332 9.95316,-48.72015 z m -41.71803,-30.30651 -26.82599,-10.88173 26.82599,-29.01336 z m -3.43918,-59.94582 2.82018,13.75693 -22.89843,-13.75693 z m -23.71009,1.03865 26.34452,15.82047 -26.94982,29.17845 z m -0.91483,50.50169 26.654,10.81982 -31.46205,23.77885 z m -14.18339,-41.79355 12.36747,-8.50179 -0.63282,47.04869 -45.34972,3.30855 z m -4.89748,1.69897 -30.89806,38.45062 -4.90434,-26.91542 z m -38.25114,13.22041 4.81493,26.4477 -25.93181,-8.07532 z m -40.39721,54.16104 17.19616,-33.54627 27.42443,8.54305 -43.43062,54.03721 z m 45.77617,-22.0111 3.25352,66.72111 -46.65663,-12.72516 z m -3.95511,101.16159 -20.601,-16.08873 -18.12475,-28.00911 45.7693,12.48441 z m 9.81557,-31.37956 58.10235,-8.82507 -64.99457,39.75753 z m 35.23836,35.52039 -39.78503,-2.78578 68.09676,-41.66974 6.25945,44.45552 z m 36.68288,3.68686 18.44119,16.72154 -26.82608,2.75139 z m -7.56631,22.17616 28.01598,-2.88896 5.08319,35.19711 z m 30.79485,-2.95086 64.54754,2.82017 -59.22354,34.04841 z m -4.96623,61.08764 9.32034,-19.05334 24.64563,44.08408 -37.8317,-3.61119 z m -3.81068,24.19845 37.39135,3.56992 -31.242,34.39232 z m 23.62065,59.20295 -15.77919,-17.36813 40.58299,-9.47166 z m 1.8022,30.47155 -0.399,-26.19316 38.7945,19.19784 z m 0.4539,-28.84824 25.9731,-28.09166 14.094,47.92227 z m 42.784,19.25971 -14.314,-48.65828 46.6153,1.67836 z m 34.1448,-51.0107 -20.7661,-21.79785 25.2715,4.51227 z m 6.6858,-21.22695 -15.1326,-43.21739 34.5987,18.15914 z m 20.5048,-27.63079 -35.5962,-18.68878 43.9191,-36.09131 z m 9.2653,-59.15479 -46.6223,38.31304 -12.7114,-41.95863 70.0022,-10.07695 z m -56.0871,-6.87847 64.4512,-49.35986 3.9826,39.5099 z m 70.7794,-14.0527 -3.6799,-36.52464 h 19.6242 z m 36.3734,-56.90554 -15.9374,10.62723 a 1.3756929,1.3756929 0 0 0 -0.5021,0.59842 l -2.7927,6.40386 h -21.7291 l -23.7031,-26.70909 -0.3371,-17.74642 a 209.463,209.463 0 0 0 -0.075,-0.39208 1.3756929,1.3756929 0 0 0 -0.2614,-0.48149 v 0 l -29.3642,-33.44309 22.5269,16.05433 20.5322,28.06414 a 1.3756929,1.3756929 0 0 0 1.8986,0.3164 l 38.5813,-26.92918 -37.3432,46.77355 a 1.3756929,1.3756929 0 0 0 1.6164,2.12545 l 47.2758,-20.28459 z m -68.599,-44.86821 59.6363,-3.67311 -41.2707,28.80013 z m 71.4398,41.60094 0.337,-13.14474 22.582,-15.13262 z m 26.6609,-34.1447 -26.7021,17.97343 -5.1795,-28.69695 z m -29.2334,19.46606 -43.1968,18.53058 37.9622,-47.53018 z m -7.7245,-33.4087 -59.1549,3.64559 35.0802,-25.94558 z m -24.2123,-25.53285 -52.6065,-11.37699 60.7506,7.22927 z m -25.5191,-36.58657 77.1007,14.20404 -38.5194,15.82047 z m 40.7205,32.12931 36.9099,-15.13262 -23.3112,29.52925 z m 16.2813,15.42152 25.2165,-31.92983 53.3219,41.95863 z m 82.8236,9.96689 -54.78,-43.13485 87.9686,-21.13751 z m 1.988,5.35145 42.2612,38.12045 -40.1909,6.63084 z m 42.5845,65.10466 -10.187,11.81721 -28.8002,-29.63243 40.2529,-6.63772 z m 2.7514,-27.9128 -42.901,-38.69824 81.1659,7.1536 z m -43.465,-41.51153 62.0781,-52.48956 21.1238,59.84263 z m 64.9121,-52.75094 40.9061,12.00292 -20.4566,45.92062 z m 43.6369,12.64949 53.5351,8.35733 -74.0123,37.65272 z m 55.7982,10.3177 -13.5368,49.52494 -61.3491,-11.42512 z m -16.2126,51.80859 -28.3118,18.20041 -30.3339,-29.11653 z" style="fill:#d2d2d2;fill-opacity:1;stroke-width:1" >
           
           
           	 <animate id="p1" attributeName="stroke-dashoffset" begin="0s;f1.end+0.1s" values="3000;0;3000" dur="20s" 
	 calcMode="linear"/>
     
	 <animate id="f1" attributeName="fill" begin="p1.end-0.01s" values="white; white; white" dur="0.1s"  
	 calcMode="linear" />
     
	</path>  
    
  
  
  
  
    
    
    
      <path class="path" fill="none" stroke-width="2" stroke ="black" stroke-dasharray= "2000" stroke-dashoffset="2000"
           
                d="m 1157.9799,857.12814 -3.2122,-24.336 a 1.3756929,1.3756929 0 0 0 -2.263,-0.8667 l -28.47,24.33601 -0.041,0.0481 a 1.3756929,1.3756929 0 0 0 -0.2339,0.28202 l -0.048,0.0688 v 0 a 1.3756929,1.3756929 0 0 0 -0.1238,0.40583 v 0 l -5.5027,39.03528 a 1.3756929,1.3756929 0 0 0 1.1899,1.56141 l 21.3232,2.75138 h 0.1789 a 1.3756929,1.3756929 0 0 0 1.3757,-1.32754 l 0.6879,-18.89514 14.9331,-22.17617 a 21774.798,21774.798 0 0 1 0.1513,-0.33704 1.3275436,1.3275436 0 0 0 0.061,-0.28889 1.2793944,1.2793944 0 0 0 0,-0.13758 c 0,0 0,-0.0551 0,-0.0825 0,-0.0276 0,-0.0137 -0.01,-0.0412 z m -18.5305,40.41098 -18.4687,-2.37996 4.8149,-34.30289 14.2452,19.39039 z m 1.9603,-20.11951 -13.757,-18.73006 h 26.379 z m -12.7526,-21.48832 23.71,-20.26396 2.6758,20.26396 z" style="fill:#d2d2d2;fill-opacity:1;stroke-width:1" style="fill:#d2d2d2;fill-opacity:1;stroke-width:1" >
           
           
           	 <animate id="p1" attributeName="stroke-dashoffset" begin="0.1s;f1.end+0.1s" values="2000;0;2000" dur="30s" 
	 calcMode="linear"/>
     
	 <animate id="f1" attributeName="fill" begin="p1.end-0.01s" values="white; white; white" dur="0.1s"  
	 calcMode="linear" />
     
	</path>  
    
    
      <path class="path" fill="none" stroke-width="2" stroke ="black" stroke-dasharray= "2000" stroke-dashoffset="2000"
           
                d="m 1496.8957,701.17271 a 1.3756929,1.3756929 0 0 0 1.3756,-1.27251 l 2.7514,-36.27702 a 1.3756929,1.3756929 0 0 0 -1.3757,-1.47886 h -12.8559 a 1.3756929,1.3756929 0 0 0 -0.9422,0.37143 l -14.2384,13.3167 a 1.3756929,1.3756929 0 0 0 0,2.00851 l 24.3359,22.96032 a 1.3756929,1.3756929 0 0 0 0.9493,0.37143 z m -22.3276,-24.33599 12.7664,-11.94103 h 10.8267 l -2.4212,31.91607 z" style="fill:#d2d2d2;fill-opacity:1;stroke-width:1" style="fill:#d2d2d2;fill-opacity:1;stroke-width:1">
           
           
           	 <animate id="p1" attributeName="stroke-dashoffset" begin="0.1s;f1.end+0.1s" values="2000;0;2000" dur="15s" 
	 calcMode="linear"/>
     
	 <animate id="f1" attributeName="fill" begin="p1.end-0.01s" values="white; white; white" dur="0.1s"  
	 calcMode="linear" />
     
	</path>     




  <path class="path" fill="none" stroke-width="2" stroke ="black" stroke-dasharray= "2000" stroke-dashoffset="2000"
           
                d="m 1479.5688,731.60992 a 1.3756929,1.3756929 0 0 0 -1.4651,0.19948 l -44.0841,37.19873 a 1.3756929,1.3756929 0 0 0 -0.2477,0.27514 v 0 a 1.3756929,1.3756929 0 0 0 -0.1788,0.41271 c 0,0.0412 0,0.0825 0,0.12381 a 1.3756929,1.3756929 0 0 0 0,0.48837 l 4.1271,21.58462 a 1.3756929,1.3756929 0 0 0 1.2518,1.11431 l 25.2578,1.83655 h 0.096 a 1.3756929,1.3756929 0 0 0 0.9354,-0.36456 l 21.8117,-20.20892 a 1.3756929,1.3756929 0 0 0 0.2338,-1.73338 l -6.8784,-11.14311 v -28.53188 a 1.3756929,1.3756929 0 0 0 -0.8598,-1.25187 z m -1.9604,4.21649 v 24.82438 l -37.8316,7.0917 z m 6.7271,37.20562 -20.539,19.02584 -23.6069,-1.71962 -3.6731,-19.18403 41.8004,-7.83458 z" style="fill:#d2d2d2;fill-opacity:1;stroke-width:1" style="fill:#d2d2d2;fill-opacity:1;stroke-width:1">
           
           
           	 <animate id="p1" attributeName="stroke-dashoffset" begin="0.1s;f1.end+0.1s" values="2000;0;2000" dur="30s" 
	 calcMode="linear"/>
     
	 <animate id="f1" attributeName="fill" begin="p1.end-0.01s" values="white; white; white" dur="0.1s"  
	 calcMode="linear" />
     
	</path> 
    
    
      <path class="path" fill="none" stroke-width="2" stroke ="black" stroke-dasharray= "2000" stroke-dashoffset="2000"
           
                d="m 1370.1737,748.37961 a 1.3756929,1.3756929 0 0 0 -2.3112,1.01114 v 27.09427 a 1.3756929,1.3756929 0 0 0 0.4816,1.04553 l 35.816,30.76736 h 0.041 a 1.3756929,1.3756929 0 0 0 0.282,0.16509 l 0.1171,0.0619 a 1.3756929,1.3756929 0 0 0 0.4539,0.0825 1.3756929,1.3756929 0 0 0 0.4059,-0.0619 v 0 a 1.3756929,1.3756929 0 0 0 0.4126,-0.20635 l 14.6925,-11.00555 a 1.3756929,1.3756929 0 0 0 0.11,-2.11169 z m 0.4402,27.47259 v -23.30423 l 22.699,21.02059 9.0588,29.53612 z m 35.1834,29.13031 -8.4881,-27.67207 20.2915,18.8126 z" style="fill:#d2d2d2;fill-opacity:1;stroke-width:1" style="fill:#d2d2d2;fill-opacity:1;stroke-width:1" >
           
           
           	 <animate id="p1" attributeName="stroke-dashoffset" begin="0.1s;f1.end+0.1s" values="2000;0;2000" dur="15s" 
	 calcMode="linear"/>
     
	 <animate id="f1" attributeName="fill" begin="p1.end-0.01s" values="white; white; white" dur="0.1s"  
	 calcMode="linear" />
     
	</path> 
    
 
       <path class="path" fill="none" stroke-width="2" stroke ="black" stroke-dasharray= "2000" stroke-dashoffset="2000"
           
                d="m 1552.8933,487.3694 a 1.3756929,1.3756929 0 0 0 -1.3758,-0.85981 c -1.2519,-0.55715 -5.9224,-4.35407 -8.4674,-6.43137 -4.6498,-3.79002 -4.8561,-3.90008 -5.5028,-3.90008 v 0 c -0.6052,0 -7.4219,-0.68785 -11.5765,-1.14183 a 1.3756929,1.3756929 0 0 0 -1.1073,0.38519 1.3756929,1.3756929 0 0 0 -0.4127,1.09368 l 1.5476,19.42479 -10.3795,7.35308 a 1.3756929,1.3756929 0 0 0 0,2.24239 l 9.4785,6.83031 6.5345,24.01959 -28.2981,25.31964 a 1.3756929,1.3756929 0 0 0 0.8255,2.40058 l 20.6354,1.37569 h 0.09 a 1.3756929,1.3756929 0 0 0 0.626,-0.15133 l 22.9602,-11.69339 a 1.3756929,1.3756929 0 0 0 0.3096,-0.22011 v 0 0 a 1.3756929,1.3756929 0 0 0 0.2546,-0.36456 l 0.048,-0.11005 a 1.3756929,1.3756929 0 0 0 0.1032,-0.44711 v 0 0 l 0.9217,-24.32224 a 1.3756929,1.3756929 0 0 0 -0.564,-1.16247 l -21.1513,-15.53845 c 24.955,-22.80211 24.9276,-22.89841 24.5012,-24.10214 z m -28.2706,75.32608 -17.0173,-1.13496 25.4915,-22.80898 12.5121,13.24104 z m 22.7678,-33.97275 -0.7704,20.32587 -12.2025,-12.91776 -5.7572,-21.17192 z m -21.1995,-18.98456 -7.4081,-5.34456 9.451,-6.69276 a 1.3756929,1.3756929 0 0 0 0.5777,-1.23123 l -1.4788,-18.57187 c 3.1228,0.32329 8.3505,0.85981 9.8431,0.96299 0.6397,0.42647 2.5107,1.94661 4.1684,3.30166 4.0858,3.3223 6.4383,5.16573 7.9239,6.12871 -3.7211,3.66623 -15.1808,14.23155 -23.0841,21.45394 z" style="fill:#d2d2d2;fill-opacity:1;stroke-width:1" style="fill:#d2d2d2;fill-opacity:1;stroke-width:1">
           
           
           	 <animate id="p1" attributeName="stroke-dashoffset" begin="0.1s;f1.end+0.1s" values="2000;0;2000" dur="15s" 
	 calcMode="linear"/>
     
	 <animate id="f1" attributeName="fill" begin="p1.end-0.01s" values="white; white; white" dur="0.1s"  
	 calcMode="linear" />
     
	</path>
 
 
        <path class="path" fill="none" stroke-width="2" stroke ="black" stroke-dasharray= "2000" stroke-dashoffset="2000"
           
                d="m 1579.5472,822.96281 v 0 a 1.3756929,1.3756929 0 0 0 0.4472,0.26826 2671.0178,2671.0178 0 0 0 0.4677,0.0894 h 0.09 l 20.3602,-1.33442 18.8401,20.18829 a 1.3756929,1.3756929 0 0 0 2.3731,-0.76351 l 4.7049,-35.81616 a 1.3756929,1.3756929 0 0 0 -0.1307,-0.73599 1.2931514,1.2931514 0 0 0 -0.069,-0.18573 1.2793944,1.2793944 0 0 0 -0.1101,-0.11693 c 0,0 0,-0.0757 -0.061,-0.10318 -0.061,-0.0276 -0.069,-0.0343 -0.096,-0.0619 a 1.3206653,1.3206653 0 0 0 -0.2958,-0.1926 1.3069083,1.3069083 0 0 0 -0.1995,-0.0894 1.3756929,1.3756929 0 0 0 -0.3782,-0.0481 1.3069083,1.3069083 0 0 0 -0.1513,0 l -17.836,1.77465 -31.9092,-32.04677 -0.055,-0.0344 a 1.3344221,1.3344221 0 0 0 -0.3164,-0.20635 1.3756929,1.3756929 0 0 0 -0.1444,-0.0757 1.3206653,1.3206653 0 0 0 -0.3094,-0.055 1.258759,1.258759 0 0 0 -0.1721,0 h -0.069 -0.075 a 1.2931514,1.2931514 0 0 0 -0.1927,0.0619 1.3756929,1.3756929 0 0 0 -0.2544,0.0825 360.17016,360.17016 0 0 1 -0.392,0.28201 l -21.0069,22.69893 a 1.3756929,1.3756929 0 0 0 0.082,1.95349 z m 40.2391,15.19453 -16.1576,-17.3131 20.1127,-12.69764 z m -13.7569,-29.93508 a 1.3756929,1.3756929 0 0 0 1.1142,0.39894 l 12.684,-1.25875 -18.7851,11.85159 -19.3629,1.27252 -5.2001,-41.90361 z m -32.4045,-30.34778 5.0281,40.54855 -23.091,-21.00684 z" style="fill:#d2d2d2;fill-opacity:1;stroke-width:1" style="fill:#d2d2d2;fill-opacity:1;stroke-width:1">
           
           
           	 <animate id="p1" attributeName="stroke-dashoffset" begin="0.1s;f1.end+0.1s" values="2000;0;2000" dur="15s" 
	 calcMode="linear"/>
     
	 <animate id="f1" attributeName="fill" begin="p1.end-0.01s" values="white; white; white" dur="0.1s"  
	 calcMode="linear" />
     
	</path>
 
 
 
 
 
  
        <path class="path" fill="none" stroke-width="2" stroke ="black" stroke-dasharray= "2000" stroke-dashoffset="2000"
           
                d="m 1620.8594,926.31173 a 1.258759,1.258759 0 0 0 -0.075,-0.59154 1517.5544,1517.5544 0 0 1 -0.2271,-0.42647 l -17.719,-20.76608 -2.1597,-41.31894 a 1.3756929,1.3756929 0 0 0 -2.3594,-0.89419 l -21.4126,21.69466 -13.8326,1.59582 1.3207,-39.27603 a 1.3756929,1.3756929 0 0 0 -1.7129,-1.3757 c -1.8089,0.45398 -28.2016,6.82343 -28.4561,6.87846 a 1.3756929,1.3756929 0 0 0 -0.5777,0.29577 l -19.2598,16.70779 -7.4975,-16.24693 a 1.3756929,1.3756929 0 0 0 -2.2287,-0.39894 l -22.4994,22.49945 c 0,0 0,0.0412 -0.041,0.0619 a 1.3756929,1.3756929 0 0 0 -0.2133,0.32328 c 0,0 -0.035,0.0619 -0.048,0.0963 v 0.0481 a 1.3756929,1.3756929 0 0 0 -0.069,0.41958 c 0,0 0,0 0,0 v 9.73303 l -20.8486,11.09496 a 1.3756929,1.3756929 0 0 0 -0.2476,0.17196 l -16.0749,13.75693 a 1.3069083,1.3069083 0 0 0 -0.1032,0.13758 1.3756929,1.3756929 0 0 0 -0.1926,0.25449 c 0,0 -0.035,0.0412 -0.048,0.0619 l -11.4801,24.336 a 1.3756929,1.3756929 0 0 0 -0.1307,0.61905 l 0.9148,41.78669 a 1.3756929,1.3756929 0 0 0 1.3757,1.37575 h 23.3868 a 1.3756929,1.3756929 0 0 0 0.9149,-0.34394 l 19.6242,-17.38877 25.1821,7.95147 24.5079,19.60361 -1.8022,36.03637 a 1.3756929,1.3756929 0 0 0 1.3758,1.4444 h 29.8525 a 1.3756929,1.3756929 0 0 0 0.5021,-0.1101 l 0.1445,-0.075 a 0.48149251,0.48149251 0 0 0 0.2751,-0.1994 c 0,0 0.075,-0.041 0.1032,-0.075 l 31.3795,-35.14889 a 1.3069083,1.3069083 0 0 0 0.1582,0 1.3756929,1.3756929 0 0 0 0.4402,-0.29585 l 0.048,-0.055 a 1.3756929,1.3756929 0 0 0 0.2132,-0.30272 1.2862729,1.2862729 0 0 0 0.069,-0.14444 1.3756929,1.3756929 0 0 0 0.09,-0.40576 c 0,0 0,-0.0348 0,-0.055 v 0 0 l 23.1804,-31.13192 a 1.3756929,1.3756929 0 0 0 0.2477,-0.56403 l 6.0255,-31.22821 a 1.2518805,1.2518805 0 0 0 -0.014,-0.16509 z m -19.191,-18.90889 15.6554,18.35174 -39.0284,19.80313 z m -23.9646,-20.71794 a 1.3756929,1.3756929 0 0 0 0.8185,-0.39894 l 19.5624,-19.82374 1.8985,36.41459 -33.2299,-14.93316 z m 21.7841,18.99144 -24.2672,39.62683 -11.6934,-55.79122 z m -26.8878,40.58299 -43.7815,-25.22337 31.9848,-31.14569 z m -0.5297,2.87513 -40.6724,36.25643 -3.3636,-61.63106 z m -36.8686,-94.70268 c 2.7514,-0.68784 20.5253,-4.95249 26.3858,-6.37634 l -1.2519,37.20562 -43.7196,-14.71303 z m 23.8752,33.30552 -31.586,30.73987 -11.6314,-45.2947 z m -53.8722,-32.1912 6.6652,14.44477 -24.8175,3.70749 z m 7.6626,17.08611 11.2463,43.76766 -38.148,-39.75065 z m -55.069,103.62409 h -21.5502 l -0.8804,-40.11519 10.3177,-21.87356 31.0149,45.2328 z m 19.6037,-20.63542 -30.1003,-43.89836 15.0158,-12.86961 19.2597,-10.24892 z m 7.0916,-69.3143 c 0,0 0,0 0,0 0,0 0,-0.0343 0,-0.0551 v -7.13296 l 40.2116,41.9036 -44.6139,35.68548 z m 21.0689,80.5812 a 1.3756929,1.3756929 0 0 0 -0.4472,-0.23384 l -23.717,-7.49065 43.8915,-35.08017 3.3499,61.3009 z m 24.0058,56.64422 1.582,-31.64104 24.0746,31.64104 z m 28.4906,-0.7842 -25.0652,-33.01654 53.6864,0.9491 z m -24.3291,-35.76803 39.7987,-35.48593 14.4448,36.45582 z m 78.4556,-30.16203 -21.9079,29.42607 -14.4447,-36.38713 41.7592,-21.19251 z" style="fill:#d2d2d2;fill-opacity:1;stroke-width:1" style="fill:#d2d2d2;fill-opacity:1;stroke-width:1">
           
           
           	 <animate id="p1" attributeName="stroke-dashoffset" begin="0.1s;f1.end+0.1s" values="2000;0;2000" dur="15s" 
	 calcMode="linear"/>
     
	 <animate id="f1" attributeName="fill" begin="p1.end-0.01s" values="white; white; white" dur="0.1s"  
	 calcMode="linear" />
     
	</path>
    
 
 
 
 
   
        <path class="path" fill="none" stroke-width="2" stroke ="black" stroke-dasharray= "2000" stroke-dashoffset="2000"
           
                d="m 1560.1912,1035.9475 -22.7952,-1.3756 a 1.3756929,1.3756929 0 0 0 -1.4583,1.3756 v 23.8822 a 1.3756929,1.3756929 0 0 0 2.3457,0.9835 l 22.7952,-22.4994 a 1.3756929,1.3756929 0 0 0 -0.8874,-2.3524 z m -21.502,20.5805 v -19.1222 l 18.2555,1.1006 z" style="fill:#d2d2d2;fill-opacity:1;stroke-width:1"style="fill:#d2d2d2;fill-opacity:1;stroke-width:1" >
           
           
           	 <animate id="p1" attributeName="stroke-dashoffset" begin="0.1s;f1.end+0.1s" values="2000;0;2000" dur="15s" 
	 calcMode="linear"/>
     
	 <animate id="f1" attributeName="fill" begin="p1.end-0.01s" values="white; white; white" dur="0.1s"  
	 calcMode="linear" />
     
	</path>
    
    
  
  
  
     
        <path class="path" fill="none" stroke-width="2" stroke ="black" stroke-dasharray= "2000" stroke-dashoffset="2000"
           
                     d="m 1666.3879,1051.4998 a 1.2931514,1.2931514 0 0 0 -0.9905,-0.4058 1.3756929,1.3756929 0 0 0 -0.9836,0.4265 l -27.4245,28.7726 -11.1224,-3.4393 a 1.3756929,1.3756929 0 0 0 -1.6371,0.6879 l -9.1828,18.3654 a 1.3756929,1.3756929 0 0 0 1.2313,1.9949 1.4238422,1.4238422 0 0 0 0.3577,-0.048 l 33.9796,-9.1826 v 0 l 0.1101,-0.048 a 2.0635394,2.0635394 0 0 0 0.4952,-0.3095 l 24.7968,-25.2578 a 1.3756929,1.3756929 0 0 0 0,-1.9397 z m -47.4614,42.9285 7.2911,-14.5755 10.758,3.3087 9.1414,3.9205 z m 31.0562,-8.6876 -10.1732,-4.3609 25.6704,-26.936 7.6763,7.6833 z" style="fill:#d2d2d2;fill-opacity:1;stroke-width:1" >
           
           
           	 <animate id="p1" attributeName="stroke-dashoffset" begin="0.1s;f1.end+0.1s" values="2000;0;2000" dur="15s" 
	 calcMode="linear"/>
     
	 <animate id="f1" attributeName="fill" begin="p1.end-0.01s" values="white; white; white" dur="0.1s"  
	 calcMode="linear" />
     
	</path>
    
    





     
        <path class="path" fill="none" stroke-width="2" stroke ="black" stroke-dasharray= "2000" stroke-dashoffset="2000"
           
                     d="m 1713.1202,1035.5005 a 1.3756929,1.3756929 0 0 0 -0.9081,-0.8804 l -8.2884,-2.49 -1.7541,-19.7343 a 1.3756929,1.3756929 0 0 0 -2.1254,-1.0318 l -11.941,7.8071 a 1.3756929,1.3756929 0 0 0 -0.626,1.2243 l 0.9011,17.5813 -7.6694,17.1481 a 1.3756929,1.3756929 0 0 0 -0.1101,0.6878 l 1.8365,18.8264 a 1.3756929,1.3756929 0 0 0 1.0112,1.1968 1.3756929,1.3756929 0 0 0 0.3645,0.048 1.3756929,1.3756929 0 0 0 1.1143,-0.5708 l 28.0092,-38.5746 a 1.3756929,1.3756929 0 0 0 0.1857,-1.2381 z m -13.4956,-20.5667 1.5408,17.3476 -10.1183,3.9757 -0.7773,-15.2083 z m -14.8024,55.8395 -1.4514,-14.8507 7.4287,-16.6046 11.8929,-4.6705 6.8784,2.0637 z" style="fill:#d2d2d2;fill-opacity:1;stroke-width:1" >
           
           
           	 <animate id="p1" attributeName="stroke-dashoffset" begin="0.1s;f1.end+0.1s" values="2000;0;2000" dur="15s" 
	 calcMode="linear"/>
     
	 <animate id="f1" attributeName="fill" begin="p1.end-0.01s" values="white; white; white" dur="0.1s"  
	 calcMode="linear" />
     
	</path>
    
 
 
 

 
 


		
</svg>
