<?xml version="1.0" encoding="UTF-8" standalone="no"?>
<svg
   xmlns:dc="http://purl.org/dc/elements/1.1/"
   xmlns:cc="http://creativecommons.org/ns#"
   xmlns:rdf="http://www.w3.org/1999/02/22-rdf-syntax-ns#"
   xmlns:svg="http://www.w3.org/2000/svg"
   xmlns="http://www.w3.org/2000/svg"
   xmlns:sodipodi="http://sodipodi.sourceforge.net/DTD/sodipodi-0.dtd"
   xmlns:inkscape="http://www.inkscape.org/namespaces/inkscape"
   inkscape:version="1.0 (4035a4fb49, 2020-05-01)"
   sodipodi:docname="emiia143.33.svg"
   id="svg877"
   version="1.1"
   height="64.67939"
   width="294.03528">
  <metadata
     id="metadata883">
    <rdf:RDF>
      <cc:Work
         rdf:about="">
        <dc:format>image/svg+xml</dc:format>
        <dc:type
           rdf:resource="http://purl.org/dc/dcmitype/StillImage" />
        <dc:title></dc:title>
      </cc:Work>
    </rdf:RDF>
  </metadata>
  <defs
     id="defs881" />
  <sodipodi:namedview
     inkscape:current-layer="svg877"
     inkscape:window-maximized="1"
     inkscape:window-y="-11"
     inkscape:window-x="-11"
     inkscape:cy="34.292849"
     inkscape:cx="83.271866"
     inkscape:zoom="3.0873505"
     fit-margin-bottom="0"
     fit-margin-right="0"
     fit-margin-left="0"
     fit-margin-top="0"
     lock-margins="true"
     showgrid="false"
     id="namedview879"
     inkscape:window-height="1046"
     inkscape:window-width="1920"
     inkscape:pageshadow="2"
     inkscape:pageopacity="0"
     guidetolerance="10"
     gridtolerance="10"
     objecttolerance="10"
     borderopacity="1"
     bordercolor="#666666"
     pagecolor="#ffffff" />
  <style
     id="style863"
     type="text/css" />
  <path
     id="path865"
     fill="#050505"
     d="m 38.485,20.286349 a 0.719,0.719 0 0 1 -0.718,-0.714 C 37.71,9.9863488 30.176,2.0203488 20.617,1.4353488 a 0.7183488,0.7183488 0 1 1 0.088,-1.434 c 10.31,0.63 18.437,9.223 18.499,19.5630002 a 0.718,0.718 0 0 1 -0.714,0.723 h -0.005 z">
    <animate
       repeatCount="indefinite"
       attributeName="fill"
       keyTimes="0; 0.5; 0.7; 1"
       values="#000000; #4e86b1; #d7d7d7; #000000"
       dur="5s" />
    <animateTransform
       repeatCount="indefinite"
       dur="4s"
       values="0,0;0,16;0,0"
       type="translate"
       attributeName="transform" />
  </path>
  <path
     id="path867"
     fill="#050505"
     d="m 32.605,20.286349 a 0.718,0.718 0 0 1 -0.718,-0.712 12.35,12.35 0 0 0 -11.29,-12.2440002 0.718,0.718 0 1 1 0.128,-1.43 13.783,13.783 0 0 1 12.599,13.6620002 0.718,0.718 0 0 1 -0.712,0.724 z">
    <animate
       repeatCount="indefinite"
       attributeName="fill"
       keyTimes="0; 0.5; 0.7; 1"
       values="#000000; #4e86b1; #d7d7d7; #000000"
       dur="4s" />
    <animateTransform
       repeatCount="indefinite"
       dur="4s"
       values="0,0;0,16;0,0"
       type="translate"
       attributeName="transform" />
  </path>
  <path
     id="path869"
     fill="#050505"
     d="m 27.038,20.286349 a 0.719,0.719 0 0 1 -0.718,-0.707 6.816,6.816 0 0 0 -5.77,-6.65 0.719,0.719 0 0 1 0.222,-1.419 8.251,8.251 0 0 1 6.985,8.047 0.718,0.718 0 0 1 -0.708,0.73 h -0.01 z">
    <animate
       repeatCount="indefinite"
       attributeName="fill"
       keyTimes="0; 0.5; 0.7; 1"
       values="#000000; #4e86b1; #d7d7d7; #000000"
       dur="2s" />
    <animateTransform
       repeatCount="indefinite"
       dur="4s"
       values="0,0;0,16;0,0"
       type="translate"
       attributeName="transform" />
  </path>
  <path
     id="path871"
     overflow="visible"
     font-family="sans-serif"
     font-weight="400"
     color="#000000"
     d="m 19.764,15.676349 a 3.551,3.551 0 0 0 -3.543,3.543 3.551,3.551 0 0 0 3.543,3.543 3.551,3.551 0 0 0 3.543,-3.543 3.551,3.551 0 0 0 -3.543,-3.543 z m 0,1.34 h 0.002 a 2.203,2.203 0 1 1 -2.205,2.205 v -0.002 c 0.002,-1.22 0.984,-2.2 2.203,-2.203 z"
     style="line-height:normal;font-variant-ligatures:normal;font-variant-position:normal;font-variant-caps:normal;font-variant-numeric:normal;font-variant-alternates:normal;font-feature-settings:normal;text-indent:0;text-align:start;text-decoration:none;text-decoration-line:none;text-decoration-style:solid;text-decoration-color:#000000;text-transform:none;text-orientation:mixed;white-space:normal;shape-padding:0;isolation:auto;mix-blend-mode:normal;solid-color:#000000;solid-opacity:1">
    <animate
       repeatCount="indefinite"
       attributeName="fill"
       keyTimes="0; 0.5; 0.7; 1"
       values="#000000; #4e86b1; #d7d7d7; #000000"
       dur="3s" />
    <animateTransform
       repeatCount="indefinite"
       dur="4s"
       values="0,0;0,16;0,0"
       type="translate"
       attributeName="transform" />
  </path>
  <path
     id="path873"
     fill="#050505"
     d="m 19.483,26.875349 c -6.945,0 -10.608,-4.511 -11.86,-6.451 a 2.15,2.15 0 0 1 0.008,-2.333 c 1.136,-1.753 4.441,-5.886 10.597,-6.387 a 0.48,0.48 0 0 1 0.077,0.955 c -5.73,0.467 -8.812,4.319 -9.87,5.953 -0.256,0.396 -0.26,0.904 -0.008,1.293 1.167,1.808 4.582,6.013 11.056,6.013 4.826,0 7.948,-2.326 9.717,-4.277 a 0.48,0.48 0 0 1 0.71,0.643 c -1.9,2.094 -5.25,4.59 -10.427,4.59 z">
    <animateTransform
       repeatCount="indefinite"
       dur="4s"
       values="0,0;0,16;0,0"
       type="translate"
       attributeName="transform" />
  </path>
  <path
     id="path875"
     fill="#050505"
     d="m 19.485,50.625349 c -0.64,0 -1.28,-0.218 -1.802,-0.657 -1.94,-1.627 -5.854,-5.219 -10.28,-10.988 -4.876,-6.354 -7.357,-12.49 -7.373,-18.237 A 19.247,19.247 0 0 1 0,19.683349 C 0,9.4303488 8.01,0.8913488 18.236,0.2433488 a 0.479,0.479 0 0 1 0.06,0.956 c -9.722,0.615 -17.338,8.735 -17.338,18.4840002 0,0.346 0.01,0.692 0.028,1.033 0.017,5.558 2.431,11.499 7.176,17.681 4.37,5.697 8.227,9.236 10.136,10.838 a 1.842,1.842 0 0 0 2.373,0 c 1.909,-1.602 5.764,-5.14 10.136,-10.838 4.413,-5.755 6.814,-11.294 7.137,-16.464 a 0.47,0.47 0 0 1 0.508,-0.448 0.479,0.479 0 0 1 0.448,0.508 c -0.334,5.364 -2.802,11.079 -7.333,16.987 -4.427,5.77 -8.341,9.362 -10.28,10.988 a 2.793,2.793 0 0 1 -1.802,0.657 z">
    <animateTransform
       repeatCount="indefinite"
       dur="4s"
       values="0,0;0,16;0,0"
       type="translate"
       attributeName="transform" />
  </path>
  <g
     transform="translate(-3.482,-0.5266512)"
     style="font-size:60.6103px;line-height:1.25;font-family:sans-serif;stroke-width:0.631357"
     id="text835"
     aria-label="EMIIA.AI">
    <path
       id="path1470"
       style="font-style:normal;font-variant:normal;font-weight:normal;font-stretch:normal;font-size:60.6103px;font-family:Orbitron;-inkscape-font-specification:Orbitron;stroke-width:0.631357"
       d="M 90.521735,2.4454509 V 7.354885 H 55.610203 V 21.780136 H 83.672771 V 26.75018 H 55.610203 v 14.425251 h 34.911532 v 4.909435 H 50.700769 V 2.4454509 Z" />
    <path
       id="path1472"
       style="font-style:normal;font-variant:normal;font-weight:normal;font-stretch:normal;font-size:60.6103px;font-family:Orbitron;-inkscape-font-specification:Orbitron;stroke-width:0.631357"
       d="M 120.05884,24.022717 138.18132,2.4454509 h 6.72774 V 46.084866 h -4.90944 V 8.0215983 L 120.05884,31.720225 100.11805,8.0215983 V 46.084866 H 95.208615 V 2.4454509 h 6.727745 z" />
    <path
       id="path1474"
       style="font-style:normal;font-variant:normal;font-weight:normal;font-stretch:normal;font-size:60.6103px;font-family:Orbitron;-inkscape-font-specification:Orbitron;stroke-width:0.631357"
       d="M 151.49949,46.084866 V 2.4454509 h 4.90943 V 46.084866 Z" />
    <path
       id="path1476"
       style="font-style:normal;font-variant:normal;font-weight:normal;font-stretch:normal;font-size:60.6103px;font-family:Orbitron;-inkscape-font-specification:Orbitron;stroke-width:0.631357"
       d="M 164.87636,46.084866 V 2.4454509 h 4.90944 V 46.084866 Z" />
    <path
       id="path1478"
       style="font-style:normal;font-variant:normal;font-weight:normal;font-stretch:normal;font-size:60.6103px;font-family:Orbitron;-inkscape-font-specification:Orbitron;stroke-width:0.631357"
       d="m 185.58709,2.4454509 h 29.09295 q 3.03051,0 5.15187,2.1213604 2.12136,2.1213605 2.12136,5.1518754 V 46.084866 h -4.90943 V 30.144357 h -33.82055 v 15.940509 h -4.90943 V 9.7186867 q 0,-3.0305149 2.12136,-5.1518754 2.12136,-2.1213604 5.15187,-2.1213604 z m -2.3638,22.7894721 h 33.82055 V 9.7186867 q 0,-0.9697648 -0.72732,-1.6364781 Q 215.6498,7.354885 214.68004,7.354885 h -29.09295 q -0.96976,0 -1.69708,0.7273236 -0.66672,0.6667133 -0.66672,1.6364781 z" />
    <path
       id="path1480"
       style="font-style:normal;font-variant:normal;font-weight:normal;font-stretch:normal;font-size:60.6103px;font-family:Orbitron;-inkscape-font-specification:Orbitron;stroke-width:0.631357"
       d="m 233.70788,41.114821 v 4.970045 h -4.97004 v -4.970045 z" />
    <path
       id="path1482"
       style="font-style:normal;font-variant:normal;font-weight:normal;font-stretch:normal;font-size:60.6103px;font-family:Orbitron;-inkscape-font-specification:Orbitron;stroke-width:0.631357"
       d="m 249.27526,2.4454509 h 29.09294 q 3.03052,0 5.15188,2.1213604 2.12136,2.1213605 2.12136,5.1518754 V 46.084866 H 280.732 V 30.144357 h -33.82054 v 15.940509 h -4.90944 V 9.7186867 q 0,-3.0305149 2.12136,-5.1518754 2.12136,-2.1213604 5.15188,-2.1213604 z m -2.3638,22.7894721 H 280.732 V 9.7186867 q 0,-0.9697648 -0.72732,-1.6364781 Q 279.33797,7.354885 278.3682,7.354885 h -29.09294 q -0.96977,0 -1.69709,0.7273236 -0.66671,0.6667133 -0.66671,1.6364781 z" />
    <path
       id="path1484"
       style="font-style:normal;font-variant:normal;font-weight:normal;font-stretch:normal;font-size:60.6103px;font-family:Orbitron;-inkscape-font-specification:Orbitron;stroke-width:0.631357"
       d="M 292.60784,46.084866 V 2.4454509 h 4.90943 V 46.084866 Z" />
  </g>
  <g
     transform="translate(-3.482,-0.5266512)"
     style="font-size:13.469px;line-height:1.25;font-family:sans-serif;stroke-width:0.631357"
     id="text839"
     aria-label="MACHINE RADIO VISION">
    <path
       id="path1487"
       style="font-style:normal;font-variant:normal;font-weight:normal;font-stretch:normal;font-size:13.469px;font-family:Orbitron;-inkscape-font-specification:Orbitron;stroke-width:0.631357"
       d="m 125.61718,60.303323 4.02723,-4.794963 h 1.49506 v 9.697679 h -1.09099 v -8.458531 l -4.4313,5.266378 -4.4313,-5.266378 v 8.458531 h -1.09099 V 55.50836 h 1.49506 z" />
    <path
       id="path1489"
       style="font-style:normal;font-variant:normal;font-weight:normal;font-stretch:normal;font-size:13.469px;font-family:Orbitron;-inkscape-font-specification:Orbitron;stroke-width:0.631357"
       d="m 134.23377,55.50836 h 6.46512 q 0.67345,0 1.14486,0.471415 0.47142,0.471415 0.47142,1.144865 v 8.081399 h -1.09099 v -3.542347 h -7.51571 v 3.542347 h -1.09098 V 57.12464 q 0,-0.67345 0.47141,-1.144865 0.47142,-0.471415 1.14487,-0.471415 z m -0.5253,5.064343 h 7.51571 V 57.12464 q 0,-0.215504 -0.16163,-0.363663 -0.14816,-0.161628 -0.36366,-0.161628 h -6.46512 q -0.21551,0 -0.37714,0.161628 -0.14816,0.148159 -0.14816,0.363663 z" />
    <path
       id="path1491"
       style="font-style:normal;font-variant:normal;font-weight:normal;font-stretch:normal;font-size:13.469px;font-family:Orbitron;-inkscape-font-specification:Orbitron;stroke-width:0.631357"
       d="m 153.52053,56.599349 h -8.05446 q -0.2155,0 -0.37713,0.161628 -0.14816,0.148159 -0.14816,0.363663 v 6.465119 q 0,0.215504 0.14816,0.377132 0.16163,0.148159 0.37713,0.148159 h 8.05446 v 1.090989 h -8.05446 q -0.67345,0 -1.14487,-0.471415 -0.47141,-0.471415 -0.47141,-1.144865 V 57.12464 q 0,-0.67345 0.47141,-1.144865 0.47142,-0.471415 1.14487,-0.471415 h 8.05446 z" />
    <path
       id="path1493"
       style="font-style:normal;font-variant:normal;font-weight:normal;font-stretch:normal;font-size:13.469px;font-family:Orbitron;-inkscape-font-specification:Orbitron;stroke-width:0.631357"
       d="m 163.77402,55.50836 h 1.10445 v 9.697679 h -1.10445 v -4.296611 h -7.74468 v 4.296611 h -1.09099 V 55.50836 h 1.09099 v 4.29661 h 7.74468 z" />
    <path
       id="path1495"
       style="font-style:normal;font-variant:normal;font-weight:normal;font-stretch:normal;font-size:13.469px;font-family:Orbitron;-inkscape-font-specification:Orbitron;stroke-width:0.631357"
       d="M 166.40805,65.206039 V 55.50836 h 1.09099 v 9.697679 z" />
    <path
       id="path1497"
       style="font-style:normal;font-variant:normal;font-weight:normal;font-stretch:normal;font-size:13.469px;font-family:Orbitron;-inkscape-font-specification:Orbitron;stroke-width:0.631357"
       d="M 177.97392,63.966891 V 55.50836 h 1.09099 v 9.697679 h -1.49506 l -7.11163,-8.458531 v 8.458531 h -1.09099 V 55.50836 h 1.49506 z" />
    <path
       id="path1499"
       style="font-style:normal;font-variant:normal;font-weight:normal;font-stretch:normal;font-size:13.469px;font-family:Orbitron;-inkscape-font-specification:Orbitron;stroke-width:0.631357"
       d="m 189.44993,55.50836 v 1.090989 h -7.75814 v 3.205621 h 6.23614 v 1.104458 h -6.23614 v 3.205622 h 7.75814 v 1.090989 H 180.6008 V 55.50836 Z" />
    <path
       id="path1501"
       style="font-style:normal;font-variant:normal;font-weight:normal;font-stretch:normal;font-size:13.469px;font-family:Orbitron;-inkscape-font-specification:Orbitron;stroke-width:0.631357"
       d="m 204.2269,57.138109 v 2.841958 q 0,0.67345 -0.47142,1.144865 -0.47141,0.471415 -1.14486,0.471415 h -1.48159 l 3.04399,3.609692 h -1.44118 l -3.03053,-3.609692 h -3.55581 q -0.12122,0 -0.52529,-0.05388 v 3.663568 h -1.09099 v -9.68421 h 8.0814 q 0.67345,0 1.14486,0.471415 0.47142,0.471415 0.47142,1.144865 z m -8.0814,3.35378 h 6.46512 q 0.2155,0 0.36366,-0.148159 0.14816,-0.148159 0.14816,-0.363663 v -2.841958 q 0,-0.215504 -0.14816,-0.363663 -0.14816,-0.161628 -0.36366,-0.161628 h -6.46512 q -0.21551,0 -0.37714,0.161628 -0.14815,0.148159 -0.14815,0.363663 v 2.841958 q 0,0.215504 0.14815,0.363663 0.16163,0.148159 0.37714,0.148159 z" />
    <path
       id="path1503"
       style="font-style:normal;font-variant:normal;font-weight:normal;font-stretch:normal;font-size:13.469px;font-family:Orbitron;-inkscape-font-specification:Orbitron;stroke-width:0.631357"
       d="m 207.28731,55.50836 h 6.46512 q 0.67345,0 1.14486,0.471415 0.47142,0.471415 0.47142,1.144865 v 8.081399 h -1.09099 v -3.542347 h -7.51571 v 3.542347 h -1.09098 V 57.12464 q 0,-0.67345 0.47141,-1.144865 0.47142,-0.471415 1.14487,-0.471415 z m -0.5253,5.064343 h 7.51571 V 57.12464 q 0,-0.215504 -0.16163,-0.363663 -0.14816,-0.161628 -0.36366,-0.161628 h -6.46512 q -0.21551,0 -0.37714,0.161628 -0.14816,0.148159 -0.14816,0.363663 z" />
    <path
       id="path1505"
       style="font-style:normal;font-variant:normal;font-weight:normal;font-stretch:normal;font-size:13.469px;font-family:Orbitron;-inkscape-font-specification:Orbitron;stroke-width:0.631357"
       d="m 216.93027,55.50836 h 8.0814 q 0.67345,0 1.14486,0.471415 0.47142,0.471415 0.47142,1.144865 v 6.465119 q 0,0.67345 -0.47142,1.144865 -0.47141,0.471415 -1.14486,0.471415 h -8.0814 z m 8.60669,8.081399 V 57.12464 q 0,-0.215504 -0.16163,-0.363663 -0.14816,-0.161628 -0.36366,-0.161628 h -6.46512 q -0.21551,0 -0.37714,0.161628 -0.14816,0.148159 -0.14816,0.363663 v 6.465119 q 0,0.215504 0.14816,0.377132 0.16163,0.148159 0.37714,0.148159 h 6.46512 q 0.2155,0 0.36366,-0.148159 0.16163,-0.161628 0.16163,-0.377132 z" />
    <path
       id="path1507"
       style="font-style:normal;font-variant:normal;font-weight:normal;font-stretch:normal;font-size:13.469px;font-family:Orbitron;-inkscape-font-specification:Orbitron;stroke-width:0.631357"
       d="M 228.14974,65.206039 V 55.50836 h 1.09099 v 9.697679 z" />
    <path
       id="path1509"
       style="font-style:normal;font-variant:normal;font-weight:normal;font-stretch:normal;font-size:13.469px;font-family:Orbitron;-inkscape-font-specification:Orbitron;stroke-width:0.631357"
       d="m 232.69826,55.50836 h 6.46512 q 0.67345,0 1.14486,0.471415 0.47142,0.471415 0.47142,1.144865 v 6.465119 q 0,0.67345 -0.47142,1.144865 -0.47141,0.471415 -1.14486,0.471415 h -6.46512 q -0.67345,0 -1.14487,-0.471415 -0.47141,-0.471415 -0.47141,-1.144865 V 57.12464 q 0,-0.67345 0.47141,-1.144865 0.47142,-0.471415 1.14487,-0.471415 z m 0,8.60669 h 6.46512 q 0.2155,0 0.36366,-0.148159 0.16163,-0.161628 0.16163,-0.377132 V 57.12464 q 0,-0.215504 -0.16163,-0.363663 -0.14816,-0.161628 -0.36366,-0.161628 h -6.46512 q -0.21551,0 -0.37713,0.161628 -0.14816,0.148159 -0.14816,0.363663 v 6.465119 q 0,0.215504 0.14816,0.377132 0.16162,0.148159 0.37713,0.148159 z" />
    <path
       id="path1511"
       style="font-style:normal;font-variant:normal;font-weight:normal;font-stretch:normal;font-size:13.469px;font-family:Orbitron;-inkscape-font-specification:Orbitron;stroke-width:0.631357"
       d="m 251.88632,64.141988 4.95659,-8.633628 h 1.27956 l -5.60311,9.697679 h -1.26608 l -5.61657,-9.697679 h 1.27955 z" />
    <path
       id="path1513"
       style="font-style:normal;font-variant:normal;font-weight:normal;font-stretch:normal;font-size:13.469px;font-family:Orbitron;-inkscape-font-specification:Orbitron;stroke-width:0.631357"
       d="M 259.45463,65.206039 V 55.50836 h 1.09099 v 9.697679 z" />
    <path
       id="path1515"
       style="font-style:normal;font-variant:normal;font-weight:normal;font-stretch:normal;font-size:13.469px;font-family:Orbitron;-inkscape-font-specification:Orbitron;stroke-width:0.631357"
       d="m 272.04415,57.12464 v 0.377132 h -1.09099 V 57.12464 q 0,-0.215504 -0.16162,-0.363663 -0.14816,-0.161628 -0.36367,-0.161628 h -6.46512 q -0.2155,0 -0.37713,0.161628 -0.14816,0.148159 -0.14816,0.363663 v 2.168508 q 0,0.215504 0.14816,0.363663 0.16163,0.148159 0.37713,0.148159 h 6.46512 q 0.67345,0 1.14487,0.471415 0.47141,0.471415 0.47141,1.144865 v 2.168509 q 0,0.67345 -0.47141,1.144865 -0.47142,0.471415 -1.14487,0.471415 h -6.46512 q -0.67345,0 -1.14486,-0.471415 -0.47142,-0.471415 -0.47142,-1.144865 v -0.377132 h 1.09099 v 0.377132 q 0,0.215504 0.14816,0.377132 0.16163,0.148159 0.37713,0.148159 h 6.46512 q 0.21551,0 0.36367,-0.148159 0.16162,-0.161628 0.16162,-0.377132 V 61.42125 q 0,-0.215504 -0.16162,-0.363663 -0.14816,-0.148159 -0.36367,-0.148159 h -6.46512 q -0.67345,0 -1.14486,-0.471415 -0.47142,-0.471415 -0.47142,-1.144865 V 57.12464 q 0,-0.67345 0.47142,-1.144865 0.47141,-0.471415 1.14486,-0.471415 h 6.46512 q 0.67345,0 1.14487,0.471415 0.47141,0.471415 0.47141,1.144865 z" />
    <path
       id="path1517"
       style="font-style:normal;font-variant:normal;font-weight:normal;font-stretch:normal;font-size:13.469px;font-family:Orbitron;-inkscape-font-specification:Orbitron;stroke-width:0.631357"
       d="M 273.50238,65.206039 V 55.50836 h 1.09098 v 9.697679 z" />
    <path
       id="path1519"
       style="font-style:normal;font-variant:normal;font-weight:normal;font-stretch:normal;font-size:13.469px;font-family:Orbitron;-inkscape-font-specification:Orbitron;stroke-width:0.631357"
       d="m 278.0509,55.50836 h 6.46512 q 0.67345,0 1.14487,0.471415 0.47141,0.471415 0.47141,1.144865 v 6.465119 q 0,0.67345 -0.47141,1.144865 -0.47142,0.471415 -1.14487,0.471415 h -6.46512 q -0.67345,0 -1.14486,-0.471415 -0.47142,-0.471415 -0.47142,-1.144865 V 57.12464 q 0,-0.67345 0.47142,-1.144865 0.47141,-0.471415 1.14486,-0.471415 z m 0,8.60669 h 6.46512 q 0.21551,0 0.36367,-0.148159 0.16163,-0.161628 0.16163,-0.377132 V 57.12464 q 0,-0.215504 -0.16163,-0.363663 -0.14816,-0.161628 -0.36367,-0.161628 h -6.46512 q -0.2155,0 -0.37713,0.161628 -0.14816,0.148159 -0.14816,0.363663 v 6.465119 q 0,0.215504 0.14816,0.377132 0.16163,0.148159 0.37713,0.148159 z" />
    <path
       id="path1521"
       style="font-style:normal;font-variant:normal;font-weight:normal;font-stretch:normal;font-size:13.469px;font-family:Orbitron;-inkscape-font-specification:Orbitron;stroke-width:0.631357"
       d="M 296.22228,63.966891 V 55.50836 h 1.09098 v 9.697679 h -1.49505 l -7.11164,-8.458531 v 8.458531 h -1.09099 V 55.50836 h 1.49506 z" />
  </g>
</svg>
