
<?xml version="1.0" encoding="UTF-8" standalone="no"?>
<svg
   xmlns:dc="http://purl.org/dc/elements/1.1/"
   xmlns:cc="http://creativecommons.org/ns#"
   xmlns:rdf="http://www.w3.org/1999/02/22-rdf-syntax-ns#"
   xmlns:svg="http://www.w3.org/2000/svg"
   xmlns="http://www.w3.org/2000/svg"
   xmlns:sodipodi="http://sodipodi.sourceforge.net/DTD/sodipodi-0.dtd"
   xmlns:inkscape="http://www.inkscape.org/namespaces/inkscape"
   inkscape:version="1.0 (4035a4fb49, 2020-05-01)"
   sodipodi:docname="emiia143.svg"
   id="svg10"
   version="1.1"
   height="63"
   width="38">
  <metadata
     id="metadata16">
    <rdf:RDF>
      <cc:Work
         rdf:about="">
        <dc:format>image/svg+xml</dc:format>
        <dc:type
           rdf:resource="http://purl.org/dc/dcmitype/StillImage" />
        <dc:title></dc:title>
      </cc:Work>
    </rdf:RDF>
  </metadata>
  <defs
     id="defs14" />
  <sodipodi:namedview
     inkscape:current-layer="svg10"
     inkscape:window-maximized="1"
     inkscape:window-y="-11"
     inkscape:window-x="-11"
     inkscape:cy="25.996894"
     inkscape:cx="55.531315"
     inkscape:zoom="9.8545993"
     showgrid="false"
     id="namedview12"
     inkscape:window-height="1046"
     inkscape:window-width="1920"
     inkscape:pageshadow="2"
     inkscape:pageopacity="0"
     guidetolerance="10"
     gridtolerance="10"
     objecttolerance="10"
     borderopacity="1"
     bordercolor="#666666"
     pagecolor="#ffffff" />
  <path
     style="fill:#ffffff;fill-opacity:1;stroke:#383838;stroke-width:3.02552;stroke-miterlimit:4;stroke-dasharray:none;stroke-opacity:1"
     id="path2"
     fill="#3d85c6"
     d="m 35.497546,17.78744 c 0.533915,8.542631 -5.339144,15.750476 -13.34786,17.263233 -0.266957,0.08899 -0.6229,0.266957 -0.800872,0.444929 l -1.8687,2.224643 c -0.266957,0.266958 -0.711886,0.266958 -0.978843,0 L 16.63257,35.495602 C 16.454599,35.228645 16.187642,35.139659 15.831699,35.050673 8.1789256,33.626901 2.4838385,26.863986 2.4838385,18.855269 2.4838385,9.3337955 10.492555,1.6810213 20.103014,2.3929072 28.289702,2.9268217 34.963632,9.5117665 35.497546,17.78744 Z"
     class="st0">
    <animateTransform
       repeatCount="indefinite"
       dur="4s"
       values="0,0;0,16;0,0"
       type="translate"
       attributeName="transform" />
  </path>
  <path
     style="fill:#383838;fill-opacity:1;stroke:#383838;stroke-width:0.444929;stroke-miterlimit:4;stroke-dasharray:none;stroke-opacity:1"
     id="path4"
     fill="#ffffff"
     d="m 18.9462,14.850911 c 0.6229,0 1.156814,0.533915 1.156814,1.156815 v 5.517115 0 c 0,0.622901 -0.533914,1.156815 -1.156814,1.156815 v 0 c -0.622901,0 -1.156815,-0.533914 -1.156815,-1.156815 v -5.517115 0 c 0,-0.711886 0.533914,-1.156815 1.156815,-1.156815 v 0">
    <animate
       values="0.5;1;0.5"
       restart="always"
       id="four"
       fill="remove"
       dur="0.1ms"
       calcMode="linear"
       begin="three.end+0.08s"
       attributeName="fill-opacity"
       additive="replace"
       accumulate="none" />
    <animate
       values="0.5;1;0.5"
       restart="always"
       id="three"
       fill="remove"
       dur="500ms"
       calcMode="linear"
       begin="two.end+0.05s"
       attributeName="fill-opacity"
       additive="replace"
       accumulate="none" />
    <animateTransform
       repeatCount="indefinite"
       dur="4s"
       values="0,0;0,16;0,0"
       type="translate"
       attributeName="transform" />
  </path>
  <path
     style="fill:#383838;fill-opacity:1;stroke:#383838;stroke-width:0.444929;stroke-miterlimit:4;stroke-dasharray:none;stroke-opacity:1"
     id="path6"
     fill="#ffffff"
     d="m 13.962998,17.342512 c 0.622901,0 1.156815,0.533914 1.156815,1.156814 v 3.114501 0 c 0,0.6229 -0.533914,1.156815 -1.156815,1.156815 v 0 c -0.6229,0 -1.156814,-0.533915 -1.156814,-1.156815 v -3.203486 0 c 0,-0.622901 0.533914,-1.067829 1.156814,-1.067829 v 0">
    <animate
       values="0.5;1;0.5"
       restart="always"
       id="two"
       fill="remove"
       dur="500ms"
       calcMode="linear"
       begin="one.end+0.05s"
       attributeName="fill-opacity"
       additive="replace"
       accumulate="none" />
    <animateTransform
       repeatCount="indefinite"
       dur="4s"
       values="0,0;0,16;0,0"
       type="translate"
       attributeName="transform" />
  </path>
  <path
     style="fill:#383838;fill-opacity:1;stroke:#383838;stroke-width:0.444929;stroke-miterlimit:4;stroke-dasharray:none;stroke-opacity:1"
     id="path8"
     fill="#ffffff"
     d="m 24.018387,12.893225 c 0.6229,0 1.156814,0.533914 1.156814,1.156815 v 7.652773 0 c 0,0.6229 -0.533914,1.156814 -1.156814,1.156814 v 0 c -0.622901,0 -1.156815,-0.533914 -1.156815,-1.156814 v -7.652773 0 c 0,-0.622901 0.533914,-1.156815 1.156815,-1.156815 v 0">
    <animate
       values="0.5;1;0.5"
       restart="always"
       id="one"
       fill="remove"
       dur="500ms"
       calcMode="linear"
       begin="0s;four.end+0.05s"
       attributeName="fill-opacity"
       additive="replace"
       accumulate="none" />
    <animateTransform
       repeatCount="indefinite"
       dur="4s"
       values="0,0;0,16;0,0"
       type="translate"
       attributeName="transform" />
  </path>
</svg>

