<?xml version="1.0" encoding="UTF-8" standalone="no"?>
<svg
   xmlns:dc="http://purl.org/dc/elements/1.1/"
   xmlns:cc="http://creativecommons.org/ns#"
   xmlns:rdf="http://www.w3.org/1999/02/22-rdf-syntax-ns#"
   xmlns:svg="http://www.w3.org/2000/svg"
   xmlns="http://www.w3.org/2000/svg"
   xmlns:sodipodi="http://sodipodi.sourceforge.net/DTD/sodipodi-0.dtd"
   xmlns:inkscape="http://www.inkscape.org/namespaces/inkscape"
   width="112.77911"
   height="51.417751"
   version="1.1"
   id="svg4782"
   sodipodi:docname="emiia143.1.3.svg"
   inkscape:version="1.0 (4035a4fb49, 2020-05-01)">
  <metadata
     id="metadata4788">
    <rdf:RDF>
      <cc:Work
         rdf:about="">
        <dc:format>image/svg+xml</dc:format>
        <dc:type
           rdf:resource="http://purl.org/dc/dcmitype/StillImage" />
        <dc:title></dc:title>
      </cc:Work>
    </rdf:RDF>
  </metadata>
  <defs
     id="defs4786">
    <filter
       style="color-interpolation-filters:sRGB"
       inkscape:label="Drop Shadow"
       id="filter11243">
      <feFlood
         flood-opacity="0.054902"
         flood-color="rgb(56,56,56)"
         result="flood"
         id="feFlood11233" />
      <feComposite
         in="flood"
         in2="SourceGraphic"
         operator="in"
         result="composite1"
         id="feComposite11235" />
      <feGaussianBlur
         in="composite1"
         stdDeviation="0.625"
         result="blur"
         id="feGaussianBlur11237" />
      <feOffset
         dx="0"
         dy="-1.38778e-16"
         result="offset"
         id="feOffset11239" />
      <feComposite
         in="SourceGraphic"
         in2="offset"
         operator="over"
         result="composite2"
         id="feComposite11241" />
    </filter>
  </defs>
  <sodipodi:namedview
     inkscape:document-rotation="0"
     pagecolor="#ffffff"
     bordercolor="#666666"
     borderopacity="1"
     objecttolerance="10"
     gridtolerance="10"
     guidetolerance="10"
     inkscape:pageopacity="0"
     inkscape:pageshadow="2"
     inkscape:window-width="1920"
     inkscape:window-height="1046"
     id="namedview4784"
     showgrid="false"
     inkscape:zoom="3.4126985"
     inkscape:cx="40.444252"
     inkscape:cy="17.460797"
     inkscape:window-x="-11"
     inkscape:window-y="-11"
     inkscape:window-maximized="1"
     inkscape:current-layer="svg4782"
     fit-margin-top="0"
     fit-margin-left="0"
     fit-margin-right="0"
     fit-margin-bottom="0" />
  <path
     class="st0"
     d="m 46.141326,17.973237 c 0.6,9.6 -6,17.7 -15,19.4 -0.3,0.1 -0.7,0.3 -0.9,0.5 l -2.1,2.5 c -0.3,0.3 -0.8,0.3 -1.1,0 l -2.1,-2.5 c -0.2,-0.3 -0.5,-0.4 -0.9,-0.5 -8.599999,-1.6 -14.9999989,-9.2 -14.9999989,-18.2 0,-10.7000001 8.9999989,-19.30000004 19.7999989,-18.50000005 9.2,0.59999995 16.7,7.99999995 17.3,17.30000005 z"
     fill="#3d85c6"
     id="path4774">
    <animateTransform
       attributeName="transform"
       type="translate"
       values="0,0;0,16;0,0"
       dur="6s"
       repeatCount="indefinite" />
  </path>
  <path
     d="m 27.541326,14.673237 c 0.7,0 1.3,0.6 1.3,1.3 v 6.2 0 c 0,0.7 -0.6,1.3 -1.3,1.3 v 0 c -0.7,0 -1.3,-0.6 -1.3,-1.3 v -6.2 0 c 0,-0.8 0.6,-1.3 1.3,-1.3 v 0"
     fill="#ffffff"
     id="path4776">
    <animate
       accumulate="none"
       additive="replace"
       attributeName="fill-opacity"
       begin="three.end+0.08s"
       calcMode="linear"
       dur="0.1ms"
       fill="remove"
       id="four"
       restart="always"
       values="0.5;1;0.5" />
    <animate
       accumulate="none"
       additive="replace"
       attributeName="fill-opacity"
       begin="two.end+0.05s"
       calcMode="linear"
       dur="450ms"
       fill="remove"
       id="three"
       restart="always"
       values="0.5;1;0.5" />
    <animateTransform
       attributeName="transform"
       type="translate"
       values="0,0;0,16;0,0"
       dur="6s"
       repeatCount="indefinite" />
  </path>
  <path
     d="m 21.941326,17.473237 c 0.7,0 1.3,0.6 1.3,1.3 v 3.5 0 c 0,0.7 -0.6,1.3 -1.3,1.3 v 0 c -0.7,0 -1.3,-0.6 -1.3,-1.3 v -3.6 0 c 0,-0.7 0.6,-1.2 1.3,-1.2 v 0"
     fill="#ffffff"
     id="path4778">
    <animate
       accumulate="none"
       additive="replace"
       attributeName="fill-opacity"
       begin="one.end+0.05s"
       calcMode="linear"
       dur="450ms"
       fill="remove"
       id="two"
       restart="always"
       values="0.5;1;0.5" />
    <animateTransform
       attributeName="transform"
       type="translate"
       values="0,0;0,16;0,0"
       dur="6s"
       repeatCount="indefinite" />
  </path>
  <path
     d="m 33.241326,12.473237 c 0.7,0 1.3,0.6 1.3,1.3 v 8.6 0 c 0,0.7 -0.6,1.3 -1.3,1.3 v 0 c -0.7,0 -1.3,-0.6 -1.3,-1.3 v -8.6 0 c 0,-0.7 0.6,-1.3 1.3,-1.3 v 0"
     fill="#ffffff"
     id="path4780">
    <animate
       accumulate="none"
       additive="replace"
       attributeName="fill-opacity"
       begin="0s;four.end+0.05s"
       calcMode="linear"
       dur="450ms"
       fill="remove"
       id="one"
       restart="always"
       values="0.5;1;0.5" />
    <animateTransform
       attributeName="transform"
       type="translate"
       values="0,0;0,16;0,0"
       dur="6s"
       repeatCount="indefinite" />
  </path>
  <g
     id="g4808"
     transform="matrix(9.2690667,0,0,9.2690667,-410.66421,-1341.6905)"
     style="fill:#383838;fill-opacity:1;stroke:none;stroke-width:0.999993;stroke-miterlimit:4;stroke-dasharray:none;stroke-opacity:1">
    <g
       aria-label="EMIIA.AI"
       id="text35409-0"
       style="font-size:25.4px;line-height:1.25;font-family:Orbitron;-inkscape-font-specification:Orbitron;fill:#383838;fill-opacity:1;stroke:none;stroke-width:0.999993;stroke-miterlimit:4;stroke-dasharray:none;stroke-opacity:1;filter:url(#filter11243)"
       transform="translate(0.73202062,-0.04902182)">
      <path
         d="m 50.306711,147.16747 v 0.1143 h -0.812799 v 0.33585 h 0.653344 v 0.11571 h -0.653344 v 0.33584 h 0.812799 v 0.1143 h -0.927099 v -1.016 z"
         style="font-size:1.41111px;fill:#383838;fill-opacity:1;stroke:none;stroke-width:0.999993;stroke-miterlimit:4;stroke-dasharray:none;stroke-opacity:1"
         id="path35439" />
      <path
         d="m 50.994385,147.66983 0.421922,-0.50236 h 0.156633 v 1.016 h -0.1143 v -0.88618 l -0.464255,0.55175 -0.464255,-0.55175 v 0.88618 h -0.1143 v -1.016 h 0.156633 z"
         style="font-size:1.41111px;fill:#383838;fill-opacity:1;stroke:none;stroke-width:0.999993;stroke-miterlimit:4;stroke-dasharray:none;stroke-opacity:1"
         id="path35441" />
      <path
         d="m 51.726376,148.18347 v -1.016 h 0.1143 v 1.016 z"
         style="font-size:1.41111px;fill:#383838;fill-opacity:1;stroke:none;stroke-width:0.999993;stroke-miterlimit:4;stroke-dasharray:none;stroke-opacity:1"
         id="path35443" />
      <path
         d="m 52.037813,148.18347 v -1.016 h 0.1143 v 1.016 z"
         style="font-size:1.41111px;fill:#383838;fill-opacity:1;stroke:none;stroke-width:0.999993;stroke-miterlimit:4;stroke-dasharray:none;stroke-opacity:1"
         id="path35445" />
      <path
         d="m 52.519993,147.16747 h 0.677333 q 0.07056,0 0.119945,0.0494 0.04939,0.0494 0.04939,0.11995 v 0.84666 h -0.1143 v -0.37112 H 52.46496 v 0.37112 h -0.1143 v -0.84666 q 0,-0.0706 0.04939,-0.11995 0.04939,-0.0494 0.119943,-0.0494 z m -0.05503,0.53058 h 0.787399 v -0.36124 q 0,-0.0226 -0.01693,-0.0381 -0.01552,-0.0169 -0.0381,-0.0169 h -0.677333 q -0.02258,0 -0.03951,0.0169 -0.01552,0.0155 -0.01552,0.0381 z"
         style="font-size:1.41111px;fill:#383838;fill-opacity:1;stroke:none;stroke-width:0.999993;stroke-miterlimit:4;stroke-dasharray:none;stroke-opacity:1"
         id="path35447" />
      <path
         d="m 53.640326,148.06776 v 0.11571 h -0.115711 v -0.11571 z"
         style="font-size:1.41111px;fill:#383838;fill-opacity:1;stroke:none;stroke-width:0.999993;stroke-miterlimit:4;stroke-dasharray:none;stroke-opacity:1"
         id="path35449" />
      <path
         d="m 54.002761,147.16747 h 0.677333 q 0.07056,0 0.119944,0.0494 0.04939,0.0494 0.04939,0.11995 v 0.84666 h -0.1143 v -0.37112 h -0.787399 v 0.37112 h -0.1143 v -0.84666 q 0,-0.0706 0.04939,-0.11995 0.04939,-0.0494 0.119944,-0.0494 z m -0.05503,0.53058 h 0.787399 v -0.36124 q 0,-0.0226 -0.01693,-0.0381 -0.01552,-0.0169 -0.0381,-0.0169 h -0.677333 q -0.02258,0 -0.03951,0.0169 -0.01552,0.0155 -0.01552,0.0381 z"
         style="font-size:1.41111px;fill:#383838;fill-opacity:1;stroke:none;stroke-width:0.999993;stroke-miterlimit:4;stroke-dasharray:none;stroke-opacity:1"
         id="path35451" />
      <path
         d="m 55.011617,148.18347 v -1.016 h 0.1143 v 1.016 z"
         style="font-size:1.41111px;fill:#383838;fill-opacity:1;stroke:none;stroke-width:0.999993;stroke-miterlimit:4;stroke-dasharray:none;stroke-opacity:1"
         id="path35453" />
    </g>
    <g
       aria-label="EMIIA.AI"
       id="text35409"
       style="font-size:25.4px;line-height:1.25;font-family:Orbitron;-inkscape-font-specification:Orbitron;fill:#383838;fill-opacity:1;stroke:none;stroke-width:0.999993;stroke-miterlimit:4;stroke-dasharray:none;stroke-opacity:1"
       transform="translate(0.73803262,-0.05259181)">
      <path
         d="m 50.300699,147.17104 v 0.1143 H 49.4879 v 0.33585 h 0.653344 v 0.11571 H 49.4879 v 0.33584 h 0.812799 v 0.1143 H 49.3736 v -1.016 z"
         style="font-size:1.41111px;fill:#383838;fill-opacity:1;stroke:none;stroke-width:0.999993;stroke-miterlimit:4;stroke-dasharray:none;stroke-opacity:1"
         id="path35456" />
      <path
         d="m 50.988373,147.6734 0.421922,-0.50236 h 0.156633 v 1.016 h -0.1143 v -0.88617 l -0.464255,0.55174 -0.464255,-0.55174 v 0.88617 h -0.1143 v -1.016 h 0.156633 z"
         style="font-size:1.41111px;fill:#383838;fill-opacity:1;stroke:none;stroke-width:0.999993;stroke-miterlimit:4;stroke-dasharray:none;stroke-opacity:1"
         id="path35458" />
      <path
         d="m 51.720364,148.18704 v -1.016 h 0.1143 v 1.016 z"
         style="font-size:1.41111px;fill:#383838;fill-opacity:1;stroke:none;stroke-width:0.999993;stroke-miterlimit:4;stroke-dasharray:none;stroke-opacity:1"
         id="path35460" />
      <path
         d="m 52.031801,148.18704 v -1.016 h 0.1143 v 1.016 z"
         style="font-size:1.41111px;fill:#383838;fill-opacity:1;stroke:none;stroke-width:0.999993;stroke-miterlimit:4;stroke-dasharray:none;stroke-opacity:1"
         id="path35462" />
      <path
         d="m 52.513981,147.17104 h 0.677333 q 0.07056,0 0.119945,0.0494 0.04939,0.0494 0.04939,0.11995 v 0.84666 h -0.1143 v -0.37112 H 52.45895 v 0.37112 h -0.1143 v -0.84666 q 0,-0.0706 0.04939,-0.11995 0.04939,-0.0494 0.119944,-0.0494 z m -0.05503,0.53058 h 0.787399 v -0.36124 q 0,-0.0226 -0.01693,-0.0381 -0.01552,-0.0169 -0.0381,-0.0169 h -0.677333 q -0.02258,0 -0.03951,0.0169 -0.01552,0.0155 -0.01552,0.0381 z"
         style="font-size:1.41111px;fill:#383838;fill-opacity:1;stroke:none;stroke-width:0.999993;stroke-miterlimit:4;stroke-dasharray:none;stroke-opacity:1"
         id="path35464" />
      <path
         d="m 53.634314,148.07133 v 0.11571 h -0.115711 v -0.11571 z"
         style="font-size:1.41111px;fill:#383838;fill-opacity:1;stroke:none;stroke-width:0.999993;stroke-miterlimit:4;stroke-dasharray:none;stroke-opacity:1"
         id="path35466" />
      <path
         d="m 53.996749,147.17104 h 0.677333 q 0.07056,0 0.119944,0.0494 0.04939,0.0494 0.04939,0.11995 v 0.84666 h -0.1143 v -0.37112 h -0.787399 v 0.37112 h -0.1143 v -0.84666 q 0,-0.0706 0.04939,-0.11995 0.04939,-0.0494 0.119944,-0.0494 z m -0.05503,0.53058 h 0.787399 v -0.36124 q 0,-0.0226 -0.01693,-0.0381 -0.01552,-0.0169 -0.0381,-0.0169 h -0.677333 q -0.02258,0 -0.03951,0.0169 -0.01552,0.0155 -0.01552,0.0381 z"
         style="font-size:1.41111px;fill:#383838;fill-opacity:1;stroke:none;stroke-width:0.999993;stroke-miterlimit:4;stroke-dasharray:none;stroke-opacity:1"
         id="path35468" />
      <path
         d="m 55.005605,148.18704 v -1.016 h 0.1143 v 1.016 z"
         style="font-size:1.41111px;fill:#383838;fill-opacity:1;stroke:none;stroke-width:0.999993;stroke-miterlimit:4;stroke-dasharray:none;stroke-opacity:1"
         id="path35470" />
    </g>
  </g>
</svg>

