<?xml version="1.0" encoding="UTF-8" standalone="no"?>
<svg
   xmlns:dc="http://purl.org/dc/elements/1.1/"
   xmlns:cc="http://creativecommons.org/ns#"
   xmlns:rdf="http://www.w3.org/1999/02/22-rdf-syntax-ns#"
   xmlns:svg="http://www.w3.org/2000/svg"
   xmlns="http://www.w3.org/2000/svg"
   xmlns:sodipodi="http://sodipodi.sourceforge.net/DTD/sodipodi-0.dtd"
   xmlns:inkscape="http://www.inkscape.org/namespaces/inkscape"
   inkscape:version="1.0 (4035a4fb49, 2020-05-01)"
   sodipodi:docname="emiia143.1.2.svg"
   id="svg4782"
   version="1.1"
   height="68.417747"
   width="56.77911">
  <metadata
     id="metadata4788">
    <rdf:RDF>
      <cc:Work
         rdf:about="">
        <dc:format>image/svg+xml</dc:format>
        <dc:type
           rdf:resource="http://purl.org/dc/dcmitype/StillImage" />
        <dc:title />
      </cc:Work>
    </rdf:RDF>
  </metadata>
  <defs
     id="defs4786">
    <filter
       id="filter11243"
       inkscape:label="Drop Shadow"
       style="color-interpolation-filters:sRGB">
      <feFlood
         id="feFlood11233"
         result="flood"
         flood-color="rgb(56,56,56)"
         flood-opacity="0.054902" />
      <feComposite
         id="feComposite11235"
         result="composite1"
         operator="in"
         in2="SourceGraphic"
         in="flood" />
      <feGaussianBlur
         id="feGaussianBlur11237"
         result="blur"
         stdDeviation="0.625"
         in="composite1" />
      <feOffset
         id="feOffset11239"
         result="offset"
         dy="-1.38778e-16"
         dx="0" />
      <feComposite
         id="feComposite11241"
         result="composite2"
         operator="over"
         in2="offset"
         in="SourceGraphic" />
    </filter>
  </defs>
  <sodipodi:namedview
     fit-margin-bottom="0"
     fit-margin-right="0"
     fit-margin-left="0"
     fit-margin-top="0"
     inkscape:current-layer="svg4782"
     inkscape:window-maximized="1"
     inkscape:window-y="-11"
     inkscape:window-x="-11"
     inkscape:cy="64.68019"
     inkscape:cx="17.046869"
     inkscape:zoom="13.650794"
     showgrid="false"
     id="namedview4784"
     inkscape:window-height="1046"
     inkscape:window-width="1920"
     inkscape:pageshadow="2"
     inkscape:pageopacity="0"
     guidetolerance="10"
     gridtolerance="10"
     objecttolerance="10"
     borderopacity="1"
     bordercolor="#666666"
     pagecolor="#ffffff"
     inkscape:document-rotation="0" />
  <path
     id="path4774"
     fill="#3d85c6"
     d="m 46.141326,17.973237 c 0.6,9.6 -6,17.7 -15,19.4 -0.3,0.1 -0.7,0.3 -0.9,0.5 l -2.1,2.5 c -0.3,0.3 -0.8,0.3 -1.1,0 l -2.1,-2.5 c -0.2,-0.3 -0.5,-0.4 -0.9,-0.5 -8.599999,-1.6 -14.9999989,-9.2 -14.9999989,-18.2 0,-10.7000001 8.9999989,-19.30000004 19.7999989,-18.50000005 9.2,0.59999995 16.7,7.99999995 17.3,17.30000005 z"
     class="st0">
    <animateTransform
       repeatCount="indefinite"
       dur="6s"
       values="0,0;0,16;0,0"
       type="translate"
       attributeName="transform" />
  </path>
  <path
     id="path4776"
     fill="#ffffff"
     d="m 27.541326,14.673237 c 0.7,0 1.3,0.6 1.3,1.3 v 6.2 0 c 0,0.7 -0.6,1.3 -1.3,1.3 v 0 c -0.7,0 -1.3,-0.6 -1.3,-1.3 v -6.2 0 c 0,-0.8 0.6,-1.3 1.3,-1.3 v 0">
    <animate
       values="0.5;1;0.5"
       restart="always"
       id="four"
       fill="remove"
       dur="0.1ms"
       calcMode="linear"
       begin="three.end+0.08s"
       attributeName="fill-opacity"
       additive="replace"
       accumulate="none" />
    <animate
       values="0.5;1;0.5"
       restart="always"
       id="three"
       fill="remove"
       dur="450ms"
       calcMode="linear"
       begin="two.end+0.05s"
       attributeName="fill-opacity"
       additive="replace"
       accumulate="none" />
    <animateTransform
       repeatCount="indefinite"
       dur="6s"
       values="0,0;0,16;0,0"
       type="translate"
       attributeName="transform" />
  </path>
  <path
     id="path4778"
     fill="#ffffff"
     d="m 21.941326,17.473237 c 0.7,0 1.3,0.6 1.3,1.3 v 3.5 0 c 0,0.7 -0.6,1.3 -1.3,1.3 v 0 c -0.7,0 -1.3,-0.6 -1.3,-1.3 v -3.6 0 c 0,-0.7 0.6,-1.2 1.3,-1.2 v 0">
    <animate
       values="0.5;1;0.5"
       restart="always"
       id="two"
       fill="remove"
       dur="450ms"
       calcMode="linear"
       begin="one.end+0.05s"
       attributeName="fill-opacity"
       additive="replace"
       accumulate="none" />
    <animateTransform
       repeatCount="indefinite"
       dur="6s"
       values="0,0;0,16;0,0"
       type="translate"
       attributeName="transform" />
  </path>
  <path
     id="path4780"
     fill="#ffffff"
     d="m 33.241326,12.473237 c 0.7,0 1.3,0.6 1.3,1.3 v 8.6 0 c 0,0.7 -0.6,1.3 -1.3,1.3 v 0 c -0.7,0 -1.3,-0.6 -1.3,-1.3 v -8.6 0 c 0,-0.7 0.6,-1.3 1.3,-1.3 v 0">
    <animate
       values="0.5;1;0.5"
       restart="always"
       id="one"
       fill="remove"
       dur="450ms"
       calcMode="linear"
       begin="0s;four.end+0.05s"
       attributeName="fill-opacity"
       additive="replace"
       accumulate="none" />
    <animateTransform
       repeatCount="indefinite"
       dur="6s"
       values="0,0;0,16;0,0"
       type="translate"
       attributeName="transform" />
  </path>
  <g
     style="fill:#383838;fill-opacity:1;stroke:none;stroke-width:0.999993;stroke-miterlimit:4;stroke-dasharray:none;stroke-opacity:1"
     transform="matrix(9.2690667,0,0,9.2690667,-462.66421,-1305.6905)"
     id="g4808">
    <g
       transform="translate(0.73202062,-0.04902182)"
       style="font-size:25.4px;line-height:1.25;font-family:Orbitron;-inkscape-font-specification:Orbitron;fill:#383838;fill-opacity:1;stroke:none;stroke-width:0.999993;stroke-miterlimit:4;stroke-dasharray:none;stroke-opacity:1;filter:url(#filter11243)"
       id="text35409-0"
       aria-label="EMIIA.AI">
      <path
         id="path35439"
         style="font-size:1.41111px;fill:#383838;fill-opacity:1;stroke:none;stroke-width:0.999993;stroke-miterlimit:4;stroke-dasharray:none;stroke-opacity:1"
         d="m 50.306711,147.16747 v 0.1143 h -0.812799 v 0.33585 h 0.653344 v 0.11571 h -0.653344 v 0.33584 h 0.812799 v 0.1143 h -0.927099 v -1.016 z" />
      <path
         id="path35441"
         style="font-size:1.41111px;fill:#383838;fill-opacity:1;stroke:none;stroke-width:0.999993;stroke-miterlimit:4;stroke-dasharray:none;stroke-opacity:1"
         d="m 50.994385,147.66983 0.421922,-0.50236 h 0.156633 v 1.016 h -0.1143 v -0.88618 l -0.464255,0.55175 -0.464255,-0.55175 v 0.88618 h -0.1143 v -1.016 h 0.156633 z" />
      <path
         id="path35443"
         style="font-size:1.41111px;fill:#383838;fill-opacity:1;stroke:none;stroke-width:0.999993;stroke-miterlimit:4;stroke-dasharray:none;stroke-opacity:1"
         d="m 51.726376,148.18347 v -1.016 h 0.1143 v 1.016 z" />
      <path
         id="path35445"
         style="font-size:1.41111px;fill:#383838;fill-opacity:1;stroke:none;stroke-width:0.999993;stroke-miterlimit:4;stroke-dasharray:none;stroke-opacity:1"
         d="m 52.037813,148.18347 v -1.016 h 0.1143 v 1.016 z" />
      <path
         id="path35447"
         style="font-size:1.41111px;fill:#383838;fill-opacity:1;stroke:none;stroke-width:0.999993;stroke-miterlimit:4;stroke-dasharray:none;stroke-opacity:1"
         d="m 52.519993,147.16747 h 0.677333 q 0.07056,0 0.119945,0.0494 0.04939,0.0494 0.04939,0.11995 v 0.84666 h -0.1143 v -0.37112 H 52.46496 v 0.37112 h -0.1143 v -0.84666 q 0,-0.0706 0.04939,-0.11995 0.04939,-0.0494 0.119943,-0.0494 z m -0.05503,0.53058 h 0.787399 v -0.36124 q 0,-0.0226 -0.01693,-0.0381 -0.01552,-0.0169 -0.0381,-0.0169 h -0.677333 q -0.02258,0 -0.03951,0.0169 -0.01552,0.0155 -0.01552,0.0381 z" />
      <path
         id="path35449"
         style="font-size:1.41111px;fill:#383838;fill-opacity:1;stroke:none;stroke-width:0.999993;stroke-miterlimit:4;stroke-dasharray:none;stroke-opacity:1"
         d="m 53.640326,148.06776 v 0.11571 h -0.115711 v -0.11571 z" />
      <path
         id="path35451"
         style="font-size:1.41111px;fill:#383838;fill-opacity:1;stroke:none;stroke-width:0.999993;stroke-miterlimit:4;stroke-dasharray:none;stroke-opacity:1"
         d="m 54.002761,147.16747 h 0.677333 q 0.07056,0 0.119944,0.0494 0.04939,0.0494 0.04939,0.11995 v 0.84666 h -0.1143 v -0.37112 h -0.787399 v 0.37112 h -0.1143 v -0.84666 q 0,-0.0706 0.04939,-0.11995 0.04939,-0.0494 0.119944,-0.0494 z m -0.05503,0.53058 h 0.787399 v -0.36124 q 0,-0.0226 -0.01693,-0.0381 -0.01552,-0.0169 -0.0381,-0.0169 h -0.677333 q -0.02258,0 -0.03951,0.0169 -0.01552,0.0155 -0.01552,0.0381 z" />
      <path
         id="path35453"
         style="font-size:1.41111px;fill:#383838;fill-opacity:1;stroke:none;stroke-width:0.999993;stroke-miterlimit:4;stroke-dasharray:none;stroke-opacity:1"
         d="m 55.011617,148.18347 v -1.016 h 0.1143 v 1.016 z" />
    </g>
    <g
       transform="translate(0.73803262,-0.05259181)"
       style="font-size:25.4px;line-height:1.25;font-family:Orbitron;-inkscape-font-specification:Orbitron;fill:#383838;fill-opacity:1;stroke:none;stroke-width:0.999993;stroke-miterlimit:4;stroke-dasharray:none;stroke-opacity:1"
       id="text35409"
       aria-label="EMIIA.AI">
      <path
         id="path35456"
         style="font-size:1.41111px;fill:#383838;fill-opacity:1;stroke:none;stroke-width:0.999993;stroke-miterlimit:4;stroke-dasharray:none;stroke-opacity:1"
         d="m 50.300699,147.17104 v 0.1143 H 49.4879 v 0.33585 h 0.653344 v 0.11571 H 49.4879 v 0.33584 h 0.812799 v 0.1143 H 49.3736 v -1.016 z" />
      <path
         id="path35458"
         style="font-size:1.41111px;fill:#383838;fill-opacity:1;stroke:none;stroke-width:0.999993;stroke-miterlimit:4;stroke-dasharray:none;stroke-opacity:1"
         d="m 50.988373,147.6734 0.421922,-0.50236 h 0.156633 v 1.016 h -0.1143 v -0.88617 l -0.464255,0.55174 -0.464255,-0.55174 v 0.88617 h -0.1143 v -1.016 h 0.156633 z" />
      <path
         id="path35460"
         style="font-size:1.41111px;fill:#383838;fill-opacity:1;stroke:none;stroke-width:0.999993;stroke-miterlimit:4;stroke-dasharray:none;stroke-opacity:1"
         d="m 51.720364,148.18704 v -1.016 h 0.1143 v 1.016 z" />
      <path
         id="path35462"
         style="font-size:1.41111px;fill:#383838;fill-opacity:1;stroke:none;stroke-width:0.999993;stroke-miterlimit:4;stroke-dasharray:none;stroke-opacity:1"
         d="m 52.031801,148.18704 v -1.016 h 0.1143 v 1.016 z" />
      <path
         id="path35464"
         style="font-size:1.41111px;fill:#383838;fill-opacity:1;stroke:none;stroke-width:0.999993;stroke-miterlimit:4;stroke-dasharray:none;stroke-opacity:1"
         d="m 52.513981,147.17104 h 0.677333 q 0.07056,0 0.119945,0.0494 0.04939,0.0494 0.04939,0.11995 v 0.84666 h -0.1143 v -0.37112 H 52.45895 v 0.37112 h -0.1143 v -0.84666 q 0,-0.0706 0.04939,-0.11995 0.04939,-0.0494 0.119944,-0.0494 z m -0.05503,0.53058 h 0.787399 v -0.36124 q 0,-0.0226 -0.01693,-0.0381 -0.01552,-0.0169 -0.0381,-0.0169 h -0.677333 q -0.02258,0 -0.03951,0.0169 -0.01552,0.0155 -0.01552,0.0381 z" />
      <path
         id="path35466"
         style="font-size:1.41111px;fill:#383838;fill-opacity:1;stroke:none;stroke-width:0.999993;stroke-miterlimit:4;stroke-dasharray:none;stroke-opacity:1"
         d="m 53.634314,148.07133 v 0.11571 h -0.115711 v -0.11571 z" />
      <path
         id="path35468"
         style="font-size:1.41111px;fill:#383838;fill-opacity:1;stroke:none;stroke-width:0.999993;stroke-miterlimit:4;stroke-dasharray:none;stroke-opacity:1"
         d="m 53.996749,147.17104 h 0.677333 q 0.07056,0 0.119944,0.0494 0.04939,0.0494 0.04939,0.11995 v 0.84666 h -0.1143 v -0.37112 h -0.787399 v 0.37112 h -0.1143 v -0.84666 q 0,-0.0706 0.04939,-0.11995 0.04939,-0.0494 0.119944,-0.0494 z m -0.05503,0.53058 h 0.787399 v -0.36124 q 0,-0.0226 -0.01693,-0.0381 -0.01552,-0.0169 -0.0381,-0.0169 h -0.677333 q -0.02258,0 -0.03951,0.0169 -0.01552,0.0155 -0.01552,0.0381 z" />
      <path
         id="path35470"
         style="font-size:1.41111px;fill:#383838;fill-opacity:1;stroke:none;stroke-width:0.999993;stroke-miterlimit:4;stroke-dasharray:none;stroke-opacity:1"
         d="m 55.005605,148.18704 v -1.016 h 0.1143 v 1.016 z" />
    </g>
  </g>
</svg>
