<?xml version="1.0" encoding="UTF-8" standalone="no"?>
<svg
   xmlns:dc="http://purl.org/dc/elements/1.1/"
   xmlns:cc="http://creativecommons.org/ns#"
   xmlns:rdf="http://www.w3.org/1999/02/22-rdf-syntax-ns#"
   xmlns:svg="http://www.w3.org/2000/svg"
   xmlns="http://www.w3.org/2000/svg"
   xmlns:sodipodi="http://sodipodi.sourceforge.net/DTD/sodipodi-0.dtd"
   xmlns:inkscape="http://www.inkscape.org/namespaces/inkscape"
   inkscape:version="1.0 (4035a4fb49, 2020-05-01)"
   sodipodi:docname="emiia143.svg"
   id="svg10"
   version="1.1"
   height="63"
   width="38">
  <metadata
     id="metadata16">
    <rdf:RDF>
      <cc:Work
         rdf:about="">
        <dc:format>image/svg+xml</dc:format>
        <dc:type
           rdf:resource="http://purl.org/dc/dcmitype/StillImage" />
        <dc:title></dc:title>
      </cc:Work>
    </rdf:RDF>
  </metadata>
  <defs
     id="defs14" />
  <sodipodi:namedview
     inkscape:current-layer="svg10"
     inkscape:window-maximized="1"
     inkscape:window-y="-11"
     inkscape:window-x="-11"
     inkscape:cy="18.676978"
     inkscape:cx="45.303087"
     inkscape:zoom="9.8545993"
     showgrid="false"
     id="namedview12"
     inkscape:window-height="1046"
     inkscape:window-width="1920"
     inkscape:pageshadow="2"
     inkscape:pageopacity="0"
     guidetolerance="10"
     gridtolerance="10"
     objecttolerance="10"
     borderopacity="1"
     bordercolor="#666666"
     pagecolor="#ffffff" />
  <path
     style="stroke:#383838;stroke-width:3.4;stroke-miterlimit:4;stroke-dasharray:none;stroke-opacity:1;fill:#ffffff;fill-opacity:1"
     id="path2"
     fill="#3d85c6"
     d="m 39.974032,20.283144 c 0.6,9.6 -6,17.7 -15,19.4 -0.3,0.1 -0.7,0.3 -0.9,0.5 l -2.1,2.5 c -0.3,0.3 -0.8,0.3 -1.1,0 l -2.1,-2.5 c -0.2,-0.3 -0.5,-0.4 -0.9,-0.5 -8.6000001,-1.6 -15.0000001,-9.2 -15.0000001,-18.2 0,-10.7 9.0000001,-19.3000005 19.8000001,-18.5000005 9.2,0.6 16.7,8.0000005 17.3,17.3000005 z"
     class="st0">
    <animateTransform
       repeatCount="indefinite"
       dur="4s"
       values="0,0;0,16;0,0"
       type="translate"
       attributeName="transform" />
  </path>
  <path
     style="stroke:#383838;stroke-opacity:1;fill:#383838;fill-opacity:1;stroke-width:0.5;stroke-miterlimit:4;stroke-dasharray:none"
     id="path4"
     fill="#ffffff"
     d="m 21.374032,16.983144 c 0.7,0 1.3,0.6 1.3,1.3 v 6.2 0 c 0,0.7 -0.6,1.3 -1.3,1.3 v 0 c -0.7,0 -1.3,-0.6 -1.3,-1.3 v -6.2 0 c 0,-0.8 0.6,-1.3 1.3,-1.3 v 0">
    <animate
       values="0.5;1;0.5"
       restart="always"
       id="four"
       fill="remove"
       dur="0.1ms"
       calcMode="linear"
       begin="three.end+0.08s"
       attributeName="fill-opacity"
       additive="replace"
       accumulate="none" />
    <animate
       values="0.5;1;0.5"
       restart="always"
       id="three"
       fill="remove"
       dur="500ms"
       calcMode="linear"
       begin="two.end+0.05s"
       attributeName="fill-opacity"
       additive="replace"
       accumulate="none" />
    <animateTransform
       repeatCount="indefinite"
       dur="4s"
       values="0,0;0,16;0,0"
       type="translate"
       attributeName="transform" />
  </path>
  <path
     style="stroke:#383838;stroke-opacity:1;fill:#383838;fill-opacity:1;stroke-width:0.5;stroke-miterlimit:4;stroke-dasharray:none"
     id="path6"
     fill="#ffffff"
     d="m 15.774032,19.783144 c 0.7,0 1.3,0.6 1.3,1.3 v 3.5 0 c 0,0.7 -0.6,1.3 -1.3,1.3 v 0 c -0.7,0 -1.3,-0.6 -1.3,-1.3 v -3.6 0 c 0,-0.7 0.6,-1.2 1.3,-1.2 v 0">
    <animate
       values="0.5;1;0.5"
       restart="always"
       id="two"
       fill="remove"
       dur="500ms"
       calcMode="linear"
       begin="one.end+0.05s"
       attributeName="fill-opacity"
       additive="replace"
       accumulate="none" />
    <animateTransform
       repeatCount="indefinite"
       dur="4s"
       values="0,0;0,16;0,0"
       type="translate"
       attributeName="transform" />
  </path>
  <path
     style="stroke:#383838;stroke-opacity:1;fill:#383838;fill-opacity:1;stroke-width:0.5;stroke-miterlimit:4;stroke-dasharray:none"
     id="path8"
     fill="#ffffff"
     d="m 27.074032,14.783144 c 0.7,0 1.3,0.6 1.3,1.3 v 8.6 0 c 0,0.7 -0.6,1.3 -1.3,1.3 v 0 c -0.7,0 -1.3,-0.6 -1.3,-1.3 v -8.6 0 c 0,-0.7 0.6,-1.3 1.3,-1.3 v 0">
    <animate
       values="0.5;1;0.5"
       restart="always"
       id="one"
       fill="remove"
       dur="500ms"
       calcMode="linear"
       begin="0s;four.end+0.05s"
       attributeName="fill-opacity"
       additive="replace"
       accumulate="none" />
    <animateTransform
       repeatCount="indefinite"
       dur="4s"
       values="0,0;0,16;0,0"
       type="translate"
       attributeName="transform" />
  </path>
</svg>

