<svg xmlns="http://www.w3.org/2000/svg" width="45.616" height="51.639">


<path d="M42.586 20.738c.272 0 .496.224.49.496a20.319 20.319 0 0 1-2.019 8.34s0 .005-.005.01c-.194.38-1.233 3.628-7.676 11.362-3.268 3.919-7.094 7.74-9.167 9.746l-.068.068a2.173 2.173 0 0 1-1.452.563 2.185 2.185 0 0 1-1.457-.563l-.068-.068c-2.068-2.006-5.895-5.827-9.162-9.746-6.444-7.734-7.614-11.153-7.677-11.362-.005-.004-.005-.01-.005-.01a20.396 20.396 0 0 1-1.966-10.448C3.106 9.104 11.259 1.024 21.28.354c.099-.007.197-.014.295-.019a.487.487 0 0 1 .516.486v9.1c0 .26-.207.47-.467.482-8.004.381-13.339 5.026-15.921 7.946a3.541 3.541 0 0 0 0 4.7c2.695 3.05 8.386 7.973 16.985 7.973 11.291 0 17.563-8.49 18.63-10.07a.485.485 0 0 1 .403-.214z" fill="#020202"/>





<path d="M22.689 13.731a6.965 6.965 0 0 0-6.968 6.968 6.968 6.968 0 1 0 6.968-6.968zm0 9.998a3.027 3.027 0 1 1 0-6.055 3.025 3.025 0 0 1 3.025 3.025 3.03 3.03 0 0 1-3.025 3.03zM38.03 19.893h-1.468a.485.485 0 0 1-.481-.446c-.598-6.492-5.826-11.656-12.346-12.16a.485.485 0 0 1-.453-.482V5.341c0-.28.236-.507.514-.487 7.804.542 14.074 6.741 14.721 14.518a.487.487 0 0 1-.487.52z" fill="#4e86b1">

<animate dur="5s" values="#000000; #4e86b1; #d7d7d7; #000000" keyTimes="0; 0.5; 0.7; 1" attributeName="fill" repeatCount="indefinite"/></path>



<path d="M33.588 19.893h-1.47a.487.487 0 0 1-.48-.43 9.047 9.047 0 0 0-7.917-7.742.488.488 0 0 1-.44-.48V9.774c0-.283.242-.513.524-.486 5.356.52 9.645 4.742 10.269 10.072a.484.484 0 0 1-.486.533z" fill="#020202">

<animate dur="3s" values="#000000; #4e86b1; #d7d7d7; #000000" keyTimes="0; 0.5; 0.7; 1" attributeName="fill" repeatCount="indefinite"/></path>



<path d="M42.655 19.893h-1.463a.484.484 0 0 1-.48-.455c-.625-9.03-7.915-16.253-16.97-16.776a.484.484 0 0 1-.46-.48V.717c0-.277.232-.503.509-.488 10.352.555 18.691 8.826 19.352 19.148a.488.488 0 0 1-.488.515z" fill="#020202">

<animate dur="3s" values="#000000; #4e86b1; #d7d7d7; #000000" keyTimes="0; 0.3; 0.5; 1" attributeName="fill" repeatCount="indefinite"/></path>





</svg>
