<?xml version="1.0" encoding="UTF-8" standalone="no"?>
<svg
   xmlns:dc="http://purl.org/dc/elements/1.1/"
   xmlns:cc="http://creativecommons.org/ns#"
   xmlns:rdf="http://www.w3.org/1999/02/22-rdf-syntax-ns#"
   xmlns:svg="http://www.w3.org/2000/svg"
   xmlns="http://www.w3.org/2000/svg"
   xmlns:sodipodi="http://sodipodi.sourceforge.net/DTD/sodipodi-0.dtd"
   xmlns:inkscape="http://www.inkscape.org/namespaces/inkscape"
   inkscape:export-ydpi="512.79999"
   inkscape:export-xdpi="512.79999"
   inkscape:export-filename="C:\Users\vstar\Desktop\ЭМИИА\Photo\emiia143.33.png"
   viewBox="0 0 311.63528 64.67939"
   inkscape:version="1.0 (4035a4fb49, 2020-05-01)"
   sodipodi:docname="emiia143.33.svg"
   id="svg877"
   version="1.1"
   height="64.67939"
   width="296.03528">
  <metadata
     id="metadata883">
    <rdf:RDF>
      <cc:Work
         rdf:about="">
        <dc:format>image/svg+xml</dc:format>
        <dc:type
           rdf:resource="http://purl.org/dc/dcmitype/StillImage" />
        <dc:title></dc:title>
      </cc:Work>
    </rdf:RDF>
  </metadata>
  <defs
     id="defs881" />
  <sodipodi:namedview
     viewbox-width="311.63528"
     inkscape:current-layer="svg877"
     inkscape:window-maximized="1"
     inkscape:window-y="-11"
     inkscape:window-x="-11"
     inkscape:cy="29.002444"
     inkscape:cx="152.33856"
     inkscape:zoom="3.0873505"
     fit-margin-bottom="0"
     fit-margin-right="0"
     fit-margin-left="0"
     fit-margin-top="0"
     lock-margins="true"
     showgrid="false"
     id="namedview879"
     inkscape:window-height="1046"
     inkscape:window-width="1920"
     inkscape:pageshadow="2"
     inkscape:pageopacity="0"
     guidetolerance="10"
     gridtolerance="10"
     objecttolerance="10"
     borderopacity="1"
     bordercolor="#666666"
     pagecolor="#ffffff" />
  <style
     id="style863"
     type="text/css" />
  <path
     style="stroke-width:0.921724"
     id="path865"
     fill="#050505"
     d="M 43.666529,18.357442 A 0.66271949,0.66271949 0 0 1 43.004732,17.699331 C 42.952193,8.8636856 36.007926,1.521233 27.197167,0.9820245 a 0.66211927,0.66211927 0 1 1 0.08111,-1.3217521 C 36.781252,0.24095846 44.272102,8.161332 44.329249,17.691957 a 0.66179776,0.66179776 0 0 1 -0.658111,0.666407 h -0.0046 z">
    <animate
       repeatCount="indefinite"
       attributeName="fill"
       keyTimes="0; 0.5; 0.7; 1"
       values="#000000; #4e86b1; #d7d7d7; #000000"
       dur="5s" />
    <animateTransform
       repeatCount="indefinite"
       dur="4s"
       values="0,0;0,16;0,0"
       type="translate"
       attributeName="transform" />
  </path>
  <path
     style="stroke-width:0.921724"
     id="path867"
     fill="#050505"
     d="M 38.246793,18.357442 A 0.66179776,0.66179776 0 0 1 37.584995,17.701174 11.38329,11.38329 0 0 0 27.178732,6.4155869 0.66179776,0.66179776 0 1 1 27.296713,5.0975217 12.704121,12.704121 0 0 1 38.909512,17.690114 0.66179776,0.66179776 0 0 1 38.253245,18.357442 Z">
    <animate
       repeatCount="indefinite"
       attributeName="fill"
       keyTimes="0; 0.5; 0.7; 1"
       values="#000000; #4e86b1; #d7d7d7; #000000"
       dur="4s" />
    <animateTransform
       repeatCount="indefinite"
       dur="4s"
       values="0,0;0,16;0,0"
       type="translate"
       attributeName="transform" />
  </path>
  <path
     style="stroke-width:0.921724"
     id="path869"
     fill="#050505"
     d="m 33.115556,18.357442 a 0.66271949,0.66271949 0 0 1 -0.661798,-0.651659 6.2824701,6.2824701 0 0 0 -5.318347,-6.129464 0.66271949,0.66271949 0 0 1 0.204623,-1.307926 7.6051439,7.6051439 0 0 1 6.438241,7.417112 0.66179776,0.66179776 0 0 1 -0.65258,0.672859 h -0.0092 z">
    <animate
       repeatCount="indefinite"
       attributeName="fill"
       keyTimes="0; 0.5; 0.7; 1"
       values="#000000; #4e86b1; #d7d7d7; #000000"
       dur="2s" />
    <animateTransform
       repeatCount="indefinite"
       dur="4s"
       values="0,0;0,16;0,0"
       type="translate"
       attributeName="transform" />
  </path>
  <path
     id="path871"
     overflow="visible"
     font-family="sans-serif"
     font-weight="400"
     color="#000000"
     d="m 26.410936,14.108295 a 3.2730416,3.2730416 0 0 0 -3.265668,3.265667 3.2730416,3.2730416 0 0 0 3.265668,3.265668 3.2730416,3.2730416 0 0 0 3.265668,-3.265668 3.2730416,3.2730416 0 0 0 -3.265668,-3.265667 z m 0,1.23511 h 0.0018 a 2.0305578,2.0305578 0 1 1 -2.032401,2.032401 v -0.0018 c 0.0018,-1.124503 0.906976,-2.027792 2.030557,-2.030557 z"
     style="line-height:normal;font-variant-ligatures:normal;font-variant-position:normal;font-variant-caps:normal;font-variant-numeric:normal;font-variant-alternates:normal;font-feature-settings:normal;text-indent:0;text-align:start;text-decoration:none;text-decoration-line:none;text-decoration-style:solid;text-decoration-color:#000000;text-transform:none;text-orientation:mixed;white-space:normal;shape-padding:0;isolation:auto;mix-blend-mode:normal;solid-color:#000000;solid-opacity:1;stroke-width:0.921724">
    <animate
       repeatCount="indefinite"
       attributeName="fill"
       keyTimes="0; 0.5; 0.7; 1"
       values="#000000; #4e86b1; #d7d7d7; #000000"
       dur="3s" />
    <animateTransform
       repeatCount="indefinite"
       dur="4s"
       values="0,0;0,16;0,0"
       type="translate"
       attributeName="transform" />
  </path>
  <path
     style="stroke-width:0.921724"
     id="path873"
     fill="#050505"
     d="m 26.151932,24.430681 c -6.401373,0 -9.777647,-4.157897 -10.931646,-5.946041 a 1.9817064,1.9817064 0 0 1 0.0074,-2.150382 c 1.047078,-1.615782 4.093376,-5.425267 9.767508,-5.887051 a 0.44242747,0.44242747 0 0 1 0.07097,0.880247 c -5.281478,0.430445 -8.122231,3.980925 -9.097415,5.487022 -0.235961,0.365003 -0.239648,0.833238 -0.0074,1.191789 1.075652,1.666477 4.223339,5.542326 10.19058,5.542326 4.448239,0 7.325861,-2.14393 8.956391,-3.942213 a 0.44242747,0.44242747 0 0 1 0.654424,0.592668 c -1.751275,1.93009 -4.83905,4.230713 -9.610815,4.230713 z">
    <animateTransform
       repeatCount="indefinite"
       dur="4s"
       values="0,0;0,16;0,0"
       type="translate"
       attributeName="transform" />
  </path>
  <path
     style="stroke-width:0.921724"
     id="path875"
     fill="#050505"
     d="m 26.153775,46.321623 c -0.589903,0 -1.179806,-0.200935 -1.660946,-0.605572 C 22.704684,44.216406 19.097057,40.905574 15.017507,35.588149 10.523181,29.731515 8.2363846,24.075817 8.221637,18.77867 A 17.74042,17.74042 0 0 1 8.193985,17.801642 c 0,-9.4504349 7.383009,-17.32103532 16.808557,-17.91831241 a 0.44150575,0.44150575 0 0 1 0.0553,0.88116805 C 16.096846,1.3313579 9.0769968,8.815756 9.0769968,17.801642 c 0,0.318917 0.00922,0.637833 0.025808,0.952141 0.015669,5.122942 2.2407112,10.598903 6.6142912,16.297 4.027933,5.251062 7.583022,8.513042 9.342593,9.989644 a 1.6978154,1.6978154 0 0 0 2.187251,0 c 1.759571,-1.476602 5.312816,-4.737661 9.342593,-9.989644 4.067568,-5.304521 6.280627,-10.409949 6.578344,-15.175262 a 0.43321024,0.43321024 0 0 1 0.468236,-0.412932 0.44150575,0.44150575 0 0 1 0.412932,0.468236 c -0.307856,4.944127 -2.58267,10.211779 -6.759001,15.657324 -4.080472,5.318346 -7.6881,8.629179 -9.475322,10.127902 a 2.5743749,2.5743749 0 0 1 -1.660947,0.605572 z">
    <animateTransform
       repeatCount="indefinite"
       dur="4s"
       values="0,0;0,16;0,0"
       type="translate"
       attributeName="transform" />
  </path>
  <g
     transform="translate(4.7119849,-0.86762202)"
     style="font-size:60.6103px;line-height:1.25;font-family:sans-serif;stroke-width:0.631357"
     id="text835"
     aria-label="EMIIA.AI">
    <path
       id="path1470"
       style="font-style:normal;font-variant:normal;font-weight:normal;font-stretch:normal;font-size:60.6103px;font-family:Orbitron;-inkscape-font-specification:Orbitron;stroke-width:0.631357"
       d="M 90.521735,2.4454509 V 7.354885 H 55.610203 V 21.780136 H 83.672771 V 26.75018 H 55.610203 v 14.425251 h 34.911532 v 4.909435 H 50.700769 V 2.4454509 Z" />
    <path
       id="path1472"
       style="font-style:normal;font-variant:normal;font-weight:normal;font-stretch:normal;font-size:60.6103px;font-family:Orbitron;-inkscape-font-specification:Orbitron;stroke-width:0.631357"
       d="M 120.05884,24.022717 138.18132,2.4454509 h 6.72774 V 46.084866 h -4.90944 V 8.0215983 L 120.05884,31.720225 100.11805,8.0215983 V 46.084866 H 95.208615 V 2.4454509 h 6.727745 z" />
    <path
       id="path1474"
       style="font-style:normal;font-variant:normal;font-weight:normal;font-stretch:normal;font-size:60.6103px;font-family:Orbitron;-inkscape-font-specification:Orbitron;stroke-width:0.631357"
       d="M 151.49949,46.084866 V 2.4454509 h 4.90943 V 46.084866 Z" />
    <path
       id="path1476"
       style="font-style:normal;font-variant:normal;font-weight:normal;font-stretch:normal;font-size:60.6103px;font-family:Orbitron;-inkscape-font-specification:Orbitron;stroke-width:0.631357"
       d="M 164.87636,46.084866 V 2.4454509 h 4.90944 V 46.084866 Z" />
    <path
       id="path1478"
       style="font-style:normal;font-variant:normal;font-weight:normal;font-stretch:normal;font-size:60.6103px;font-family:Orbitron;-inkscape-font-specification:Orbitron;stroke-width:0.631357"
       d="m 185.58709,2.4454509 h 29.09295 q 3.03051,0 5.15187,2.1213604 2.12136,2.1213605 2.12136,5.1518754 V 46.084866 h -4.90943 V 30.144357 h -33.82055 v 15.940509 h -4.90943 V 9.7186867 q 0,-3.0305149 2.12136,-5.1518754 2.12136,-2.1213604 5.15187,-2.1213604 z m -2.3638,22.7894721 h 33.82055 V 9.7186867 q 0,-0.9697648 -0.72732,-1.6364781 Q 215.6498,7.354885 214.68004,7.354885 h -29.09295 q -0.96976,0 -1.69708,0.7273236 -0.66672,0.6667133 -0.66672,1.6364781 z" />
    <path
       id="path1480"
       style="font-style:normal;font-variant:normal;font-weight:normal;font-stretch:normal;font-size:60.6103px;font-family:Orbitron;-inkscape-font-specification:Orbitron;stroke-width:0.631357"
       d="m 233.70788,41.114821 v 4.970045 h -4.97004 v -4.970045 z" />
    <path
       id="path1482"
       style="font-style:normal;font-variant:normal;font-weight:normal;font-stretch:normal;font-size:60.6103px;font-family:Orbitron;-inkscape-font-specification:Orbitron;stroke-width:0.631357"
       d="m 249.27526,2.4454509 h 29.09294 q 3.03052,0 5.15188,2.1213604 2.12136,2.1213605 2.12136,5.1518754 V 46.084866 H 280.732 V 30.144357 h -33.82054 v 15.940509 h -4.90944 V 9.7186867 q 0,-3.0305149 2.12136,-5.1518754 2.12136,-2.1213604 5.15188,-2.1213604 z m -2.3638,22.7894721 H 280.732 V 9.7186867 q 0,-0.9697648 -0.72732,-1.6364781 Q 279.33797,7.354885 278.3682,7.354885 h -29.09294 q -0.96977,0 -1.69709,0.7273236 -0.66671,0.6667133 -0.66671,1.6364781 z" />
    <path
       id="path1484"
       style="font-style:normal;font-variant:normal;font-weight:normal;font-stretch:normal;font-size:60.6103px;font-family:Orbitron;-inkscape-font-specification:Orbitron;stroke-width:0.631357"
       d="M 292.60784,46.084866 V 2.4454509 h 4.90943 V 46.084866 Z" />
  </g>
  <g
     transform="translate(4.7119849,-2.9730149)"
     style="font-size:13.469px;line-height:1.25;font-family:sans-serif;stroke-width:0.631357"
     id="text839"
     aria-label="MACHINE RADIO VISION">
    <path
       id="path1487"
       style="font-style:normal;font-variant:normal;font-weight:normal;font-stretch:normal;font-size:13.469px;font-family:Orbitron;-inkscape-font-specification:Orbitron;stroke-width:0.631357"
       d="m 125.61718,60.303323 4.02723,-4.794963 h 1.49506 v 9.697679 h -1.09099 v -8.458531 l -4.4313,5.266378 -4.4313,-5.266378 v 8.458531 h -1.09099 V 55.50836 h 1.49506 z" />
    <path
       id="path1489"
       style="font-style:normal;font-variant:normal;font-weight:normal;font-stretch:normal;font-size:13.469px;font-family:Orbitron;-inkscape-font-specification:Orbitron;stroke-width:0.631357"
       d="m 134.23377,55.50836 h 6.46512 q 0.67345,0 1.14486,0.471415 0.47142,0.471415 0.47142,1.144865 v 8.081399 h -1.09099 v -3.542347 h -7.51571 v 3.542347 h -1.09098 V 57.12464 q 0,-0.67345 0.47141,-1.144865 0.47142,-0.471415 1.14487,-0.471415 z m -0.5253,5.064343 h 7.51571 V 57.12464 q 0,-0.215504 -0.16163,-0.363663 -0.14816,-0.161628 -0.36366,-0.161628 h -6.46512 q -0.21551,0 -0.37714,0.161628 -0.14816,0.148159 -0.14816,0.363663 z" />
    <path
       id="path1491"
       style="font-style:normal;font-variant:normal;font-weight:normal;font-stretch:normal;font-size:13.469px;font-family:Orbitron;-inkscape-font-specification:Orbitron;stroke-width:0.631357"
       d="m 153.52053,56.599349 h -8.05446 q -0.2155,0 -0.37713,0.161628 -0.14816,0.148159 -0.14816,0.363663 v 6.465119 q 0,0.215504 0.14816,0.377132 0.16163,0.148159 0.37713,0.148159 h 8.05446 v 1.090989 h -8.05446 q -0.67345,0 -1.14487,-0.471415 -0.47141,-0.471415 -0.47141,-1.144865 V 57.12464 q 0,-0.67345 0.47141,-1.144865 0.47142,-0.471415 1.14487,-0.471415 h 8.05446 z" />
    <path
       id="path1493"
       style="font-style:normal;font-variant:normal;font-weight:normal;font-stretch:normal;font-size:13.469px;font-family:Orbitron;-inkscape-font-specification:Orbitron;stroke-width:0.631357"
       d="m 163.77402,55.50836 h 1.10445 v 9.697679 h -1.10445 v -4.296611 h -7.74468 v 4.296611 h -1.09099 V 55.50836 h 1.09099 v 4.29661 h 7.74468 z" />
    <path
       id="path1495"
       style="font-style:normal;font-variant:normal;font-weight:normal;font-stretch:normal;font-size:13.469px;font-family:Orbitron;-inkscape-font-specification:Orbitron;stroke-width:0.631357"
       d="M 166.40805,65.206039 V 55.50836 h 1.09099 v 9.697679 z" />
    <path
       id="path1497"
       style="font-style:normal;font-variant:normal;font-weight:normal;font-stretch:normal;font-size:13.469px;font-family:Orbitron;-inkscape-font-specification:Orbitron;stroke-width:0.631357"
       d="M 177.97392,63.966891 V 55.50836 h 1.09099 v 9.697679 h -1.49506 l -7.11163,-8.458531 v 8.458531 h -1.09099 V 55.50836 h 1.49506 z" />
    <path
       id="path1499"
       style="font-style:normal;font-variant:normal;font-weight:normal;font-stretch:normal;font-size:13.469px;font-family:Orbitron;-inkscape-font-specification:Orbitron;stroke-width:0.631357"
       d="m 189.44993,55.50836 v 1.090989 h -7.75814 v 3.205621 h 6.23614 v 1.104458 h -6.23614 v 3.205622 h 7.75814 v 1.090989 H 180.6008 V 55.50836 Z" />
    <path
       id="path1501"
       style="font-style:normal;font-variant:normal;font-weight:normal;font-stretch:normal;font-size:13.469px;font-family:Orbitron;-inkscape-font-specification:Orbitron;stroke-width:0.631357"
       d="m 204.2269,57.138109 v 2.841958 q 0,0.67345 -0.47142,1.144865 -0.47141,0.471415 -1.14486,0.471415 h -1.48159 l 3.04399,3.609692 h -1.44118 l -3.03053,-3.609692 h -3.55581 q -0.12122,0 -0.52529,-0.05388 v 3.663568 h -1.09099 v -9.68421 h 8.0814 q 0.67345,0 1.14486,0.471415 0.47142,0.471415 0.47142,1.144865 z m -8.0814,3.35378 h 6.46512 q 0.2155,0 0.36366,-0.148159 0.14816,-0.148159 0.14816,-0.363663 v -2.841958 q 0,-0.215504 -0.14816,-0.363663 -0.14816,-0.161628 -0.36366,-0.161628 h -6.46512 q -0.21551,0 -0.37714,0.161628 -0.14815,0.148159 -0.14815,0.363663 v 2.841958 q 0,0.215504 0.14815,0.363663 0.16163,0.148159 0.37714,0.148159 z" />
    <path
       id="path1503"
       style="font-style:normal;font-variant:normal;font-weight:normal;font-stretch:normal;font-size:13.469px;font-family:Orbitron;-inkscape-font-specification:Orbitron;stroke-width:0.631357"
       d="m 207.28731,55.50836 h 6.46512 q 0.67345,0 1.14486,0.471415 0.47142,0.471415 0.47142,1.144865 v 8.081399 h -1.09099 v -3.542347 h -7.51571 v 3.542347 h -1.09098 V 57.12464 q 0,-0.67345 0.47141,-1.144865 0.47142,-0.471415 1.14487,-0.471415 z m -0.5253,5.064343 h 7.51571 V 57.12464 q 0,-0.215504 -0.16163,-0.363663 -0.14816,-0.161628 -0.36366,-0.161628 h -6.46512 q -0.21551,0 -0.37714,0.161628 -0.14816,0.148159 -0.14816,0.363663 z" />
    <path
       id="path1505"
       style="font-style:normal;font-variant:normal;font-weight:normal;font-stretch:normal;font-size:13.469px;font-family:Orbitron;-inkscape-font-specification:Orbitron;stroke-width:0.631357"
       d="m 216.93027,55.50836 h 8.0814 q 0.67345,0 1.14486,0.471415 0.47142,0.471415 0.47142,1.144865 v 6.465119 q 0,0.67345 -0.47142,1.144865 -0.47141,0.471415 -1.14486,0.471415 h -8.0814 z m 8.60669,8.081399 V 57.12464 q 0,-0.215504 -0.16163,-0.363663 -0.14816,-0.161628 -0.36366,-0.161628 h -6.46512 q -0.21551,0 -0.37714,0.161628 -0.14816,0.148159 -0.14816,0.363663 v 6.465119 q 0,0.215504 0.14816,0.377132 0.16163,0.148159 0.37714,0.148159 h 6.46512 q 0.2155,0 0.36366,-0.148159 0.16163,-0.161628 0.16163,-0.377132 z" />
    <path
       id="path1507"
       style="font-style:normal;font-variant:normal;font-weight:normal;font-stretch:normal;font-size:13.469px;font-family:Orbitron;-inkscape-font-specification:Orbitron;stroke-width:0.631357"
       d="M 228.14974,65.206039 V 55.50836 h 1.09099 v 9.697679 z" />
    <path
       id="path1509"
       style="font-style:normal;font-variant:normal;font-weight:normal;font-stretch:normal;font-size:13.469px;font-family:Orbitron;-inkscape-font-specification:Orbitron;stroke-width:0.631357"
       d="m 232.69826,55.50836 h 6.46512 q 0.67345,0 1.14486,0.471415 0.47142,0.471415 0.47142,1.144865 v 6.465119 q 0,0.67345 -0.47142,1.144865 -0.47141,0.471415 -1.14486,0.471415 h -6.46512 q -0.67345,0 -1.14487,-0.471415 -0.47141,-0.471415 -0.47141,-1.144865 V 57.12464 q 0,-0.67345 0.47141,-1.144865 0.47142,-0.471415 1.14487,-0.471415 z m 0,8.60669 h 6.46512 q 0.2155,0 0.36366,-0.148159 0.16163,-0.161628 0.16163,-0.377132 V 57.12464 q 0,-0.215504 -0.16163,-0.363663 -0.14816,-0.161628 -0.36366,-0.161628 h -6.46512 q -0.21551,0 -0.37713,0.161628 -0.14816,0.148159 -0.14816,0.363663 v 6.465119 q 0,0.215504 0.14816,0.377132 0.16162,0.148159 0.37713,0.148159 z" />
    <path
       id="path1511"
       style="font-style:normal;font-variant:normal;font-weight:normal;font-stretch:normal;font-size:13.469px;font-family:Orbitron;-inkscape-font-specification:Orbitron;stroke-width:0.631357"
       d="m 251.88632,64.141988 4.95659,-8.633628 h 1.27956 l -5.60311,9.697679 h -1.26608 l -5.61657,-9.697679 h 1.27955 z" />
    <path
       id="path1513"
       style="font-style:normal;font-variant:normal;font-weight:normal;font-stretch:normal;font-size:13.469px;font-family:Orbitron;-inkscape-font-specification:Orbitron;stroke-width:0.631357"
       d="M 259.45463,65.206039 V 55.50836 h 1.09099 v 9.697679 z" />
    <path
       id="path1515"
       style="font-style:normal;font-variant:normal;font-weight:normal;font-stretch:normal;font-size:13.469px;font-family:Orbitron;-inkscape-font-specification:Orbitron;stroke-width:0.631357"
       d="m 272.04415,57.12464 v 0.377132 h -1.09099 V 57.12464 q 0,-0.215504 -0.16162,-0.363663 -0.14816,-0.161628 -0.36367,-0.161628 h -6.46512 q -0.2155,0 -0.37713,0.161628 -0.14816,0.148159 -0.14816,0.363663 v 2.168508 q 0,0.215504 0.14816,0.363663 0.16163,0.148159 0.37713,0.148159 h 6.46512 q 0.67345,0 1.14487,0.471415 0.47141,0.471415 0.47141,1.144865 v 2.168509 q 0,0.67345 -0.47141,1.144865 -0.47142,0.471415 -1.14487,0.471415 h -6.46512 q -0.67345,0 -1.14486,-0.471415 -0.47142,-0.471415 -0.47142,-1.144865 v -0.377132 h 1.09099 v 0.377132 q 0,0.215504 0.14816,0.377132 0.16163,0.148159 0.37713,0.148159 h 6.46512 q 0.21551,0 0.36367,-0.148159 0.16162,-0.161628 0.16162,-0.377132 V 61.42125 q 0,-0.215504 -0.16162,-0.363663 -0.14816,-0.148159 -0.36367,-0.148159 h -6.46512 q -0.67345,0 -1.14486,-0.471415 -0.47142,-0.471415 -0.47142,-1.144865 V 57.12464 q 0,-0.67345 0.47142,-1.144865 0.47141,-0.471415 1.14486,-0.471415 h 6.46512 q 0.67345,0 1.14487,0.471415 0.47141,0.471415 0.47141,1.144865 z" />
    <path
       id="path1517"
       style="font-style:normal;font-variant:normal;font-weight:normal;font-stretch:normal;font-size:13.469px;font-family:Orbitron;-inkscape-font-specification:Orbitron;stroke-width:0.631357"
       d="M 273.50238,65.206039 V 55.50836 h 1.09098 v 9.697679 z" />
    <path
       id="path1519"
       style="font-style:normal;font-variant:normal;font-weight:normal;font-stretch:normal;font-size:13.469px;font-family:Orbitron;-inkscape-font-specification:Orbitron;stroke-width:0.631357"
       d="m 278.0509,55.50836 h 6.46512 q 0.67345,0 1.14487,0.471415 0.47141,0.471415 0.47141,1.144865 v 6.465119 q 0,0.67345 -0.47141,1.144865 -0.47142,0.471415 -1.14487,0.471415 h -6.46512 q -0.67345,0 -1.14486,-0.471415 -0.47142,-0.471415 -0.47142,-1.144865 V 57.12464 q 0,-0.67345 0.47142,-1.144865 0.47141,-0.471415 1.14486,-0.471415 z m 0,8.60669 h 6.46512 q 0.21551,0 0.36367,-0.148159 0.16163,-0.161628 0.16163,-0.377132 V 57.12464 q 0,-0.215504 -0.16163,-0.363663 -0.14816,-0.161628 -0.36367,-0.161628 h -6.46512 q -0.2155,0 -0.37713,0.161628 -0.14816,0.148159 -0.14816,0.363663 v 6.465119 q 0,0.215504 0.14816,0.377132 0.16163,0.148159 0.37713,0.148159 z" />
    <path
       id="path1521"
       style="font-style:normal;font-variant:normal;font-weight:normal;font-stretch:normal;font-size:13.469px;font-family:Orbitron;-inkscape-font-specification:Orbitron;stroke-width:0.631357"
       d="M 296.22228,63.966891 V 55.50836 h 1.09098 v 9.697679 h -1.49505 l -7.11164,-8.458531 v 8.458531 h -1.09099 V 55.50836 h 1.49506 z" />
  </g>
</svg>
