<svg xmlns="http://www.w3.org/2000/svg" width="38.0" height="63.0">



	<path class="st0" d="M37.4,17.7c0.6,9.6-6,17.7-15,19.4c-0.3,0.1-0.7,0.3-0.9,0.5l-2.1,2.5c-0.3,0.3-0.8,0.3-1.1,0l-2.1-2.5
		c-0.2-0.3-0.5-0.4-0.9-0.5c-8.6-1.6-15-9.2-15-18.2c0-10.7,9-19.3,19.8-18.5C29.3,1,36.8,8.4,37.4,17.7z" fill="#3d85c6">
        
        <animateTransform 
		attributeName="transform"
		type="translate"
		values="0,0;0,16;0,0"
		dur="4s"
		repeatCount="indefinite"
	/></path>

			<path  d="M18.8,14.4c0.7,0,1.3,0.6,1.3,1.3v6.2l0,0c0,0.7-0.6,1.3-1.3,1.3l0,0c-0.7,0-1.3-0.6-1.3-1.3v-6.2l0,0
				C17.5,14.9,18.1,14.4,18.8,14.4L18.8,14.4z" fill="white" >
                
                <animateTransform 
		attributeName="transform"
		type="translate"
		values="0,0;0,16;0,0"
		dur="4s"
		repeatCount="indefinite"
	/></path>

	
			<path  d="M13.2,17.2c0.7,0,1.3,0.6,1.3,1.3V22l0,0c0,0.7-0.6,1.3-1.3,1.3l0,0c-0.7,0-1.3-0.6-1.3-1.3v-3.6l0,0
				C11.9,17.7,12.5,17.2,13.2,17.2L13.2,17.2z" fill="white" >
                
                <animateTransform 
		attributeName="transform"
		type="translate"
		values="0,0;0,16;0,0"
		dur="4s"
		repeatCount="indefinite"
	/></path>

	
			<path  d="M24.5,12.2c0.7,0,1.3,0.6,1.3,1.3v8.6l0,0c0,0.7-0.6,1.3-1.3,1.3l0,0c-0.7,0-1.3-0.6-1.3-1.3v-8.6l0,0
				C23.2,12.8,23.8,12.2,24.5,12.2L24.5,12.2z" fill="white" >
                

<animateTransform 
		attributeName="transform"
		type="translate"
		values="0,0;0,16;0,0"
		dur="4s"
		repeatCount="indefinite"
	/></path>

</svg>
