<?xml version="1.0" encoding="UTF-8" standalone="no"?>
<svg
   xmlns:dc="http://purl.org/dc/elements/1.1/"
   xmlns:cc="http://creativecommons.org/ns#"
   xmlns:rdf="http://www.w3.org/1999/02/22-rdf-syntax-ns#"
   xmlns:svg="http://www.w3.org/2000/svg"
   xmlns="http://www.w3.org/2000/svg"
   xmlns:sodipodi="http://sodipodi.sourceforge.net/DTD/sodipodi-0.dtd"
   xmlns:inkscape="http://www.inkscape.org/namespaces/inkscape"
   width="249.702"
   height="44"
   viewBox="0 0 66.067 11.642"
   version="1.1"
   id="svg819"
   sodipodi:docname="logo_white.svg"
   inkscape:version="0.92.2 (5c3e80d, 2017-08-06)">
  <metadata
     id="metadata825">
    <rdf:RDF>
      <cc:Work
         rdf:about="">
        <dc:format>image/svg+xml</dc:format>
        <dc:type
           rdf:resource="http://purl.org/dc/dcmitype/StillImage" />
        <dc:title></dc:title>
      </cc:Work>
    </rdf:RDF>
  </metadata>
  <defs
     id="defs823" />
  <sodipodi:namedview
     pagecolor="#ffffff"
     bordercolor="#666666"
     borderopacity="1"
     objecttolerance="10"
     gridtolerance="10"
     guidetolerance="10"
     inkscape:pageopacity="0"
     inkscape:pageshadow="2"
     inkscape:window-width="1366"
     inkscape:window-height="745"
     id="namedview821"
     showgrid="false"
     inkscape:zoom="1.7040312"
     inkscape:cx="124.851"
     inkscape:cy="22"
     inkscape:window-x="-8"
     inkscape:window-y="-8"
     inkscape:window-maximized="1"
     inkscape:current-layer="svg819" />
  <g
     aria-label="EMIIA.AI"
     style="line-height:1.25;-inkscape-font-specification:Montserrat;fill:#ffffff;fill-opacity:1;stroke:none"
     font-weight="400"
     font-size="107.126"
     font-family="Orbitron"
     letter-spacing="0"
     word-spacing="0"
     fill="#000"
     stroke-width="1.75"
     id="g817">
    <path
       d="M10.66 0v1.31H1.313v3.848h7.512v1.326H1.314v3.848h9.345v1.31H0V0zM18.566 5.756L23.416 0h1.801v11.642h-1.314V1.488L18.566 7.81l-5.338-6.322v10.154h-1.314V0h1.8zM26.981 11.642V0h1.315v11.642zM30.562 11.642V0h1.314v11.642zM36.106 0h7.787q.812 0 1.38.566.567.566.567 1.374v9.702h-1.314V7.389h-9.053v4.253H34.16V1.94q0-.808.568-1.374Q35.295 0 36.106 0zm-.633 6.08h9.053V1.94q0-.258-.194-.436-.179-.194-.439-.194h-7.787q-.26 0-.454.194-.179.178-.179.436zM48.987 10.316v1.326h-1.33v-1.326zM53.154 0h7.787q.812 0 1.38.566.567.566.567 1.374v9.702h-1.314V7.389h-9.053v4.253h-1.314V1.94q0-.808.568-1.374Q52.343 0 53.154 0zm-.633 6.08h9.053V1.94q0-.258-.195-.436-.178-.194-.438-.194h-7.787q-.26 0-.454.194-.179.178-.179.436zM64.753 11.642V0h1.314v11.642z"
       style="-inkscape-font-specification:Orbitron;fill:#ffffff;fill-opacity:1;stroke:none"
       id="path815" />
  </g>
</svg>
