<?xml version="1.0" encoding="UTF-8" standalone="no"?>
<svg
   xmlns:dc="http://purl.org/dc/elements/1.1/"
   xmlns:cc="http://creativecommons.org/ns#"
   xmlns:rdf="http://www.w3.org/1999/02/22-rdf-syntax-ns#"
   xmlns:svg="http://www.w3.org/2000/svg"
   xmlns="http://www.w3.org/2000/svg"
   xmlns:sodipodi="http://sodipodi.sourceforge.net/DTD/sodipodi-0.dtd"
   xmlns:inkscape="http://www.inkscape.org/namespaces/inkscape"
   width="100"
   height="290"
   version="1.1"
   id="svg831"
   sodipodi:docname="manpoligon1.svg"
   inkscape:version="0.92.2 (5c3e80d, 2017-08-06)">
  <metadata
     id="metadata837">
    <rdf:RDF>
      <cc:Work
         rdf:about="">
        <dc:format>image/svg+xml</dc:format>
        <dc:type
           rdf:resource="http://purl.org/dc/dcmitype/StillImage" />
      </cc:Work>
    </rdf:RDF>
  </metadata>
  <defs
     id="defs835" />
  <sodipodi:namedview
     pagecolor="#ffffff"
     bordercolor="#666666"
     borderopacity="1"
     objecttolerance="10"
     gridtolerance="10"
     guidetolerance="10"
     inkscape:pageopacity="0"
     inkscape:pageshadow="2"
     inkscape:window-width="1366"
     inkscape:window-height="745"
     id="namedview833"
     showgrid="false"
     inkscape:zoom="1.9862069"
     inkscape:cx="50"
     inkscape:cy="141.14473"
     inkscape:window-x="-8"
     inkscape:window-y="-8"
     inkscape:window-maximized="1"
     inkscape:current-layer="svg831" />
  <g
     transform="scale(0.85) "
     id="g829"
     style="fill:#000000;fill-opacity:1">
    <path
       class="path"
       fill="none"
       stroke-width="0.8"
       stroke="black"
       stroke-dasharray="200"
       stroke-dashoffset="200"
       d="M25.793 93.832l-.136-1.181 1.122-.131-.013 1.574zm.448-1.269l-.584.088a.588.588 0 0 1 .494-.652c.313 0 .582.219.628.523zm.538 0l.717 13.266-1.122.088-.717-13.308zm.18 13.31l.537-.044c.044.306-.225.569-.494.612a.623.623 0 0 1-.628-.524zm.537 0l1.074 34.248h-1.12l-1.076-34.248zm.538 34.248h.536c.044.306-.223.568-.536.568a.586.586 0 0 1-.584-.568zm-.584 0v-1.004l1.017-.321.103 1.325zm-6.404 7.27l6.444-7.557.809.77-6.442 7.557zm51.77 45.563l2.253-2.215.813.814-2.252 2.263zm-12.299-3.483l11.217 3.35-.358 1.13-11.173-3.393zm7.028-91.308l-13.156 19.819-.947-.634L66.6 97.483zm-36.946-9.096l6.713 10.091-.947.678L29.652 89.7zM36.86 99.52l.45-.361a.625.625 0 0 1-.135.813c-.269.182-.63.136-.809-.135zm.54.138l-3.378 11.807-1.082-.315 3.38-11.81zm16.944-43.303l1.712-1.675.765.816-1.666 1.673zM68.22 164.223l-.584 4.526-1.128-.181.586-4.48zm-1.126 4.434l.542.092c-.046.317-.317.542-.632.497a.606.606 0 0 1-.496-.678zm.496-.27l2.794 5.61-1.036.542-2.795-5.61zM81.515 240.6l-13.428-3.347.225-1.133 13.472 3.35zm-13.338-3.935l-.09.588a.65.65 0 0 1-.45-.724c.087-.317.404-.499.675-.409zm-.496.27l-17.932-40.494 1.036-.5 17.932 40.496zm-17.39-40.724l-.54.225c-.092-.27 0-.634.315-.77.27-.135.63 0 .721.272zm.225.497l-8.92 4.526-.497-1.041 8.92-4.526zm17.39 46.2l12.301 6.198-.496 1.04-12.3-6.198zm13.967-3.394l5.59 2.805-.497 1.087-5.587-2.852zm-41.498 66.74l-7.299-7.33.811-.813 7.255 7.283zm2.598 10.44l2.223 6.066-1.043.415-2.27-6.017zm-1.111.466l-1.666-11.221 1.126-.182 1.668 11.222zm-1.08-11.313l-.586.092c-.044-.363.179-.634.496-.678.315-.048.586.18.63.496zm-.54-.182l6.712-24.75 1.083.318-6.713 24.752zm30.502 25.928l-7.839 5.655-.632-.995 7.841-5.61zm9.778 5.747H62.455v-1.177h18.067zm-18.067-.59v.59c-.315 0-.54-.271-.54-.59 0-.316.225-.587.54-.587zm-.09.59l-21.404-3.348.136-1.178 21.447 3.35zm-36.994-46.604l4.506 2.803-.586.997-4.504-2.805zm5.904 12.441l-2.253-9.004 1.08-.271 2.253 8.958zm-1.713-9.14l-.54.136a.582.582 0 0 1 .405-.724.542.542 0 0 1 .678.453zm-.181-.588l6.713-2.217.363 1.087-6.713 2.26zm32.352-53.89l6.173 3.348-.54 1.04-6.173-3.393zm5.904 3.847l.269-.499c.27.136.36.499.225.77a.555.555 0 0 1-.765.27zm.358.498l-21.852 16.832-.676-.905 21.81-16.878zm-22.213 16.377l.361.455c-.225.225-.586.18-.809-.092-.181-.27-.138-.634.133-.813zm.497.32L25.55 291.55l-.944-.678 20.728-30.904zm-21.177 30.633l.45.315a.53.53 0 0 1-.765.136.59.59 0 0 1-.181-.814zm.404.361l-6.126 7.33-.857-.77 6.129-7.33zm-6.577 6.923l.45.406a.617.617 0 0 1-.81.044c-.226-.225-.272-.586-.044-.813zm.088.588l-5.585 1.13-.225-1.176 5.63-1.13zm-1.575 18.098l3.919-3.394.721.906-3.92 3.347zm4.28-2.941l-.361-.453a.579.579 0 1 1 .721.906zm.043-.588l11.764.59-.046 1.128-11.761-.542zm-11.037-19.594l11.67 20.046-.991.59L9.78 294.673zM21.9 314.4l.496-.27c.182.27.092.633-.18.769a.586.586 0 0 1-.81-.181zm.36-.406L42.27 331.23l-.766.906-19.963-17.285zm38.976-74.478l6.713-3.346.498 1.039-6.713 3.347zm6.94-2.85l-.225-.498a.555.555 0 0 1 .765.271c.136.271 0 .634-.269.77zm.586.044l-.542 6.744-1.17-.092.586-6.741zm-43.617 65.52l3.92-8.462 1.037.499-3.92 8.462zm4.416-8.19l-.496-.272c.136-.27.45-.406.765-.27.272.135.407.495.272.769zm-.406-.407l4.506-4.526.766.815-4.461 4.526zm4.91-4.118l-.404-.406a.569.569 0 0 1 .81 0 .623.623 0 0 1-.044.813zm-.404-.406l34.154-32.038.765.862-34.153 32.033zm34.515-31.629l-.36-.409a.569.569 0 0 1 .81 0c.18.274.18.635-.043.862zm-.271-.498l11.715-7.872.632.995-11.761 7.872zm12.03-7.375l-.315-.499a.586.586 0 0 1 .812.182.59.59 0 0 1-.18.815zm.45-.361l3.921 5.066-.855.724-3.92-5.066zm-61.728 37.508l6.713 3.936-.586 1.043-6.713-3.936zm6.444 4.482l.269-.546a.652.652 0 0 1 .225.815.63.63 0 0 1-.809.228zm-.542.18l-2.793-8.462 1.08-.361 2.795 8.416zm26.54 21.673l-10.633-6.742.586-.994 10.633 6.74zm-10.32-7.238l-.313.496a.59.59 0 0 1-.182-.815c.182-.271.497-.36.766-.182zm-.449-.409l11.22-12.354.808.77-11.173 12.354zm-2.433 17.781l14.78-1.672.134 1.176-14.781 1.675zm4.506-6.74l5.587-.543.09 1.176-5.587.542zm-12.212 11.763l-.586 6.787-1.126-.088.586-6.789zm-1.126 6.743l.54.044c0 .317-.269.544-.584.544a.634.634 0 0 1-.542-.634zm.54-.136l.586 2.85-1.126.227-.586-2.851zm0 2.941l.586-.091a.6.6 0 0 1-.45.677c-.315.046-.63-.133-.676-.45zm.046-.59l29.062 1.72-.044 1.177-29.064-1.718zm29.062 2.309v-.588c.317 0 .586.271.542.59a.569.569 0 0 1-.586.586zm-.044-.588l21.266-1.13.044 1.176-21.266 1.13zm21.266-.542v-.59c.317 0 .586.227.586.546a.634.634 0 0 1-.54.632zm-.54-.182l.586-1.719 1.08.361-.584 1.721zm1.126-1.537l-.54-.182c.09-.317.405-.452.722-.363.269.092.45.453.358.724zm-.45.36l-3.378-4.523.9-.678 3.379 4.526zm-2.438-4.493l-.94-.03c-.182-.271-.136-.634.133-.816a.53.53 0 0 1 .765.136zm-.582.197l-6.713-1.132.18-1.13 6.712 1.13zm-6.623-1.72l-.09.588c-.314-.044-.496-.363-.45-.678.044-.317.36-.499.63-.453zm-.225.542l-17.886-9.05.494-1.04 17.886 9.049zm-17.663-9.593l-.225.543a.56.56 0 0 1-.27-.768.555.555 0 0 1 .766-.271zm-.45.407l-4.461-5.654.9-.77 4.461 5.656zm-4.01-6.017l-.451.363c-.18-.272-.136-.635.09-.816.225-.225.586-.182.81.044zm-.451-.407l3.38-3.936.855.768-3.378 3.935zm3.785-3.575l-.405-.36c.18-.274.54-.274.81-.093.227.228.227.59.045.86zm-.54 0l.54-19.23 1.126.045-.54 19.185zM52 293.134h-.586c0-.318.614-1.374.93-1.374.314.044.24 1.102.196 1.42zm-.881.546l4.801-21.586 1.08.271-4.46 20.904zm-37.012-4.076l3.918-2.805.678.95-3.923 2.806zm4.28-2.353l-.362-.452c.271-.182.632-.136.811.135.182.271.136.634-.133.816zm-.495-.27l1.666-2.852.99.59-1.712 2.85zm2.162-2.535l-.496-.317c.18-.271.54-.36.765-.182.271.138.361.499.226.77zm-.36-.499l2.252-1.672.678.949-2.255 1.675zm2.613-1.22l-.361-.452c.27-.182.632-.136.811.135.181.226.136.589-.136.814zm-.45-.363l21.265-27.69.904.722-21.269 27.692zm21.718-27.33l-.453-.36c.182-.271.543-.317.812-.092.225.182.27.545.091.816zm-.36-.452L61.1 239.335l.722.86-17.886 15.292zm18.246-14.794l-.359-.453c.27-.227.63-.181.81.044.18.271.18.634-.088.816zm-.494.271l-12.302-22.624.99-.59 12.302 22.626zM49.16 217.164l-.495.27a.652.652 0 0 1 .226-.815c.27-.135.631-.043.765.228zm-.495.225l-4.504-10.18 1.034-.453 4.507 10.137zm-3.964-10.408l-.542.227c-.134-.27 0-.634.271-.77.315-.135.632 0 .765.318zm-.542.273l-3.332-6.787.99-.542 3.378 6.787zm-2.838-7.058l-.494.271c-.136-.317-.046-.634.225-.815a.58.58 0 0 1 .765.273zm-.315.453l-12.345-9.053.675-.949 12.3 9.053zm-25.845 88.513l4.524 8.825-1.006.569-4.524-8.823zm4.02 9.11l.504-.285c.135.284.044.665-.23.807-.273.19-.638.048-.776-.238zm.274-.523l6.81 4.128-.55 1.045-6.809-4.128zm6.534 4.65l.275-.522c.273.142.411.523.228.81a.51.51 0 0 1-.777.235zm.046-.616l6.26.617-.092 1.185-6.26-.569zm6.214 1.233l.046-.616c.319 0 .548.332.503.664a.511.511 0 0 1-.595.52zm-.547-.238l1.69-4.697 1.096.429-1.69 4.697zm2.237-4.504l-.547-.193a.623.623 0 0 1 .777-.378.689.689 0 0 1 .319.807zm-.455-.38l2.283-2.944.914.759-2.285 2.943zm2.74-2.566l-.457-.38c.184-.284.549-.284.824-.094.228.19.274.617.09.853zm-.593-.094l.593-4.128 1.143.19-.594 4.126zm-4.403 7.491l2.794 12.219-1.082.271-2.793-12.218zm2.252 12.354l.542-.135a.582.582 0 0 1-.407.721c-.315.046-.63-.133-.675-.45zm.496-.273l8.427 16.697-1.036.498-8.381-16.65zm7.93 16.924l.497-.227c.136.273 0 .634-.271.77a.555.555 0 0 1-.765-.272zm.497.271l-2.252 4.434-.993-.498 2.209-4.434zm-2.748 4.21l.494.224a.555.555 0 0 1-.766.272c-.27-.136-.404-.497-.225-.77zm-.361.45l-5.047-3.892.722-.95 5 3.893zm-4.686-4.343l-.36.453c-.226-.182-.272-.545-.09-.816.179-.27.54-.317.809-.135zm-.36.453l-16.807-14.48.722-.859 16.806 14.431zM17.8 317.885l-.359.407c-.225-.182-.27-.543-.045-.816a.516.516 0 0 1 .765-.044zm-.404.407L2.303 302.183l.809-.815 15.096 16.108zm-14.69-16.515l-.404.406a.632.632 0 0 1 0-.86.617.617 0 0 1 .809.045zm-.586 0v-1.675h1.126v1.675zm.586-1.675h-.586c0-.317.271-.589.586-.589.315 0 .54.272.54.59zm-.36-.453l7.3-5.565.676.95-7.3 5.52zm7.615-5.112l-.315-.453a.53.53 0 0 1 .766.136c.225.225.135.588-.09.813zm-.315-.499l5.047-3.301.63.949-5.047 3.347zm69.75-44.522l1.665-9.549 1.128.182-1.668 9.546zm2.251-9.457l-.586-.092c.092-.317.361-.542.678-.496.315.044.494.36.45.678zm-.586.136l-10.047-42.172 1.082-.271 10.093 42.171zm-39.425-.68l5.588-2.806.495 1.041-5.587 2.805zm-6.623-37.102l6.712-2.263.317 1.13-6.712 2.218zm10.814 49.998l1.08-5.61 1.129.227-1.129 5.61zm1.666-5.475l-.586-.136a.597.597 0 0 1 .678-.452.6.6 0 0 1 .45.677zm-.586 0v-10.091h1.129v10.09zm0-10.091v-20.18h1.129v20.182zm.586-20.18h-.586c0-.317.271-.588.586-.588.317 0 .543.271.543.59zm-.54.182L44.16 207.3l1.082-.317 2.795 9.5zm29.648-20.226l9.507 33.71-1.08.315-9.553-33.708zm8.967 33.892l.54-.182a.582.582 0 0 1-.405.722c-.315.091-.632-.088-.678-.407zm.54-.092l1.668 12.354-1.126.18-1.668-12.399zm1.128 12.441l.54-.087c.044.315-.135.632-.45.678a.603.603 0 0 1-.678-.499zm.54.184l-3.38 11.807-1.08-.36 3.378-11.81zm-3.92 11.628l.54.181c-.044.272-.359.45-.676.361a.582.582 0 0 1-.404-.724zm.27.496l-19.06 9.593-.496-1.041 19.06-9.592zm-19.285 9.053l.226.54c-.271.137-.586 0-.722-.271-.135-.317-.044-.635.225-.77zm.405.45l-28.565 27.511-.765-.815 28.52-27.555zM36.275 163.59v7.874H35.15v-7.872zm-.54 7.874h.54c0 .317-.225.59-.54.59a.597.597 0 0 1-.586-.59zm.54.043l-.54 11.224-1.126-.044.54-11.267zM35.15 182.73h.586c0 .317-.271.588-.586.542-.315 0-.586-.27-.54-.588zm.407-.453l15.094 13.485-.722.86-15.14-13.485zm-9.011 3.846l8.379-3.935.496 1.04-8.427 3.936zM21 172.051l14.556-5.066.358 1.084-14.553 5.069zm14.735-4.526l-.18-.54c.27-.092.63.043.722.36a.593.593 0 0 1-.363.724zm-.044-.586l14.552-1.13.092 1.176-14.554 1.13zm-12.076-8.959l12.345 5.067-.45 1.086-12.302-5.068zm12.12 5.611l.225-.544a.647.647 0 0 1 .315.77c-.135.27-.45.452-.765.316zm-.18-.544l11.76-3.936.36 1.087-11.76 3.935zm.764 100.45l5.049-12.897 1.036.453-5.046 12.896zm5.589-12.67l-.54-.227c.09-.27.45-.452.721-.317.315.138.45.453.315.77zm-.586 0v-11.22h1.126v11.22zm.586-11.22h-.586a.6.6 0 0 1 .586-.591c.27 0 .54.273.54.59zm-.586.18l-3.92-14.026 1.128-.317 3.918 14.027zm-3.335-14.164l-.586.138c-.087-.273.092-.634.407-.726.315-.044.63.092.722.41zm-.586.092l-2.792-13.98 1.126-.228 2.795 13.98zm-2.35-13.528l-.442-.453c-.044-.317.136-.634.45-.677.315-.092.586.133.676.45zm-.442-.59v-8.956h1.126v8.96zm.54-8.959h-.54c0-.317.225-.588.54-.588.315 0 .586.271.586.59zm-.36.407l-2.839-2.805.81-.814 2.796 2.806zm-2.434-3.212l-.405.407c-.225-.18-.225-.588 0-.814a.569.569 0 0 1 .81 0zm-.54.182l-1.667-5.611 1.08-.317 1.669 5.565zm-1.094-5.55l-.573-.061a.595.595 0 0 1 .361-.724.577.577 0 0 1 .722.407zm-.529.074l-5.586-10.679.99-.542 5.589 10.633zm-5.09-10.95l-.496.271c-.18-.27-.044-.634.225-.767.27-.182.632-.046.765.225zm-.542.228l-3.919-11.222 1.08-.409 3.921 11.222zm-3.379-11.403l-.54.181a.625.625 0 0 1 .359-.77c.271-.091.586.09.722.361zm-.586-.136l2.253-13.983 1.128.182-2.252 14.026zm2.795-13.891l-.542-.092c.046-.315.36-.542.632-.496.314.044.54.36.496.678zm-.496-.271l11.219-21.312.99.59-11.173 21.264zm12.21-20.724l-.991-.588c.135-.271.496-.363.765-.226.271.136.36.497.225.814zm-1.037-.09l-7.253-21.312.888-.754 7.447 21.657zm6.218-11.086l-6.623-12.126.99-.59 6.626 12.128zm8.338-4.252l1.666-11.314 1.126.182-1.802 11.221zm4.819-.226l-4.19.632-.179-1.176 4.235-.634zm-4.28.044l.09.588a.562.562 0 0 1-.63-.498c-.045-.317.134-.634.451-.678zm.54-.227l12.031 33.574-1.08.407-12.03-33.575zm11.491 33.756l.54-.182c.09.317-.044.634-.36.724-.27.135-.63-.044-.722-.317zm.54-.182l4.192 10.723-1.037.453-4.235-10.77zM39.07 110.653l2.252 15.2-1.126.182-2.252-15.203zm1.712 15.292l.54-.092a.564.564 0 0 1-.45.635c-.316.043-.63-.136-.676-.453zm.54-.227l6.712 18.55-1.08.41-6.712-18.553zm14.013 46.468l-8.481-27.883 1.18-.03 8.381 27.6zm11.851-.135l-5.588 1.132-.226-1.176 5.59-1.133zm-5.477.494l-.11.638a.6.6 0 1 1-.224-1.176zm-.29.638l-7.256-.59.09-1.13 7.255.544zm9.01 25.203l1.126-8.462 1.128.181-1.128 8.416zm1.668-8.37l-.542-.092c.046-.317.317-.543.632-.497.315.044.54.361.496.678zm.54-.182l2.795 7.871-1.037.363-2.794-7.871zm-9.46 6.199l.583-1.719 1.036.407-.54 1.673zm1.09-1.365l-.507-.354a.59.59 0 0 1 .722-.363c.27.136.45.453.314.77zm.486-.492l2.252 3.394-.947.634-2.252-3.348zm-5.948-11.628l2.117 7.975-1.126.398-2.073-8.025zm.45 11.81l.54-3.575 1.127.181-.54 3.575zm1.127-3.483l-.586-.092a.603.603 0 0 1 .678-.496c.269.043.494.36.448.677zm.54-.092l.54 4.482-1.126.18-.54-4.527zm-6.533-17.963l4.416 9.73-1.036.497-4.417-9.73zm3.92 10l.496-.272a.585.585 0 0 1-.27.77.555.555 0 0 1-.766-.271zm.271-.497l3.335 2.171-.586.995-3.335-2.171zm3.018 2.668l.317-.497a.59.59 0 0 1 .179.816c-.18.271-.496.315-.765.18zm.043-.586l8.878.542-.088 1.176-8.833-.542zm8.834 1.13l.044-.588c.317 0 .542.271.542.588a.634.634 0 0 1-.632.588zm-.136-.588l3.875-1.087.271 1.133-3.874 1.084zm-18.292-15.61l2.567 2.489-.766.859-2.569-2.534zm2.162 2.895l.405-.406a.575.575 0 0 1 0 .813.516.516 0 0 1-.766.046zm.54.228l-1.36 3.717-.984-.776 1.308-3.35zm-20.14-61.176l.586 9.547-1.172.092-.54-9.593zm0 9.593l.586-.044a.634.634 0 0 1-.542.632.634.634 0 0 1-.63-.542zm.54-.136l2.252 10.677-1.126.273-2.208-10.725zm1.712 10.815l.54-.138c.046.317-.133.634-.45.678-.315.092-.586-.133-.676-.405zm.497-.227l10.09 27.012-1.036.407-10.093-27.013zm9.55 27.194l.543-.182c.135.271-.044.634-.317.724a.531.531 0 0 1-.722-.317zm.543-.228l5.046 11.81-1.036.452-5.047-11.807zm4.502 12.037l.542-.227c.087.317 0 .634-.317.77a.516.516 0 0 1-.722-.318zm.586-.09l.542 2.806-1.128.225-.54-2.805zm0 2.896l.542-.09a.6.6 0 0 1-.45.678.597.597 0 0 1-.678-.453zm.542-.044l.584 5.066-1.17.136-.542-5.069zm0 5.112l.584-.046a.634.634 0 0 1-.54.634.562.562 0 0 1-.63-.498zm.54-.182l2.792 8.414-1.08.407-2.794-8.462zm2.217 8.399l.575.018a.625.625 0 0 1-.358.767c-.271.092-.632-.09-.722-.36zm.575.11l1.129 5.608-1.083.227-1.126-5.61zm.621 5.536l.508.072a.547.547 0 0 1-.45.678c-.272.091-.587-.134-.633-.45zm.372-.197l1.666 1.673-.809.813-1.668-1.673zm1.262 2.08l.404-.407a.575.575 0 0 1-.809.813zm.269-.543l1.128.588-.497 1.041-1.126-.544zm.857 1.085l.27-.497c.27.136.362.497.226.768-.136.273-.45.409-.722.273zm.36-.453l2.209 1.675-.678.951-2.208-1.675zm1.684 1.998l.525-.323c.269.227.315.59.133.815-.179.272-.54.315-.809.136zm.208-.415h1.668v1.179h-1.668zm1.668.59v-.59a.6.6 0 0 1 .586.59.597.597 0 0 1-.586.589zm.27-.498l2.84 1.675-.587.995-2.794-1.675zm2.522 2.171l.317-.496c.27.179.361.496.18.813a.525.525 0 0 1-.766.182zm0-.588h1.669v1.176h-1.669zm1.669.59v-.59c.315 0 .586.271.586.59a.597.597 0 0 1-.586.586zm.135-.59l2.792.59-.225 1.13-2.792-.544zm2.427 1.27l.366-.682c.317.046.496.363.45.678-.044.32-.359.498-.676.455zm-.13-.546l1.127-1.13.766.859-1.126 1.132zm1.486-.678l-.359-.453c.226-.225.586-.225.766.044a.575.575 0 0 1 0 .815zm.138-.588l2.792.542-.225 1.176-2.795-.588zm2.162 1.312l.63-.77a.628.628 0 0 1 .45.678.603.603 0 0 1-.675.498zm.134-.589l1.128-1.13.765.813-1.126 1.133zm1.486-.723l-.358-.407c.225-.227.586-.227.765 0a.575.575 0 0 1 0 .813zm-.54.043l-.586-6.152 1.172-.136.54 6.199zm.035-6.21l-.62.058c0-.315.225-.635.542-.635a.562.562 0 0 1 .63.499zm-.575.103l-1.126-6.198 1.126-.226 1.083 6.2zm-.586-6.288l-.54.09c-.043-.318.136-.635.45-.678.316-.046.587.179.676.452zm-.54.136l-1.126-5.069 1.126-.271 1.08 5.068zm-.586-5.204l-.54.135c-.092-.317.134-.634.45-.724a.623.623 0 0 1 .676.453zm-.45.317l-3.38-5.069.946-.634 3.38 5.068zm-2.884-5.386l-.497.317c-.179-.271-.087-.588.182-.77a.53.53 0 0 1 .765.138zm-.405.409l-2.794-2.805.765-.816 2.838 2.805zm-2.39-3.214l-.404.409a.575.575 0 0 1 0-.816c.225-.225.586-.225.765 0zm-.54.181l-2.792-9.004 1.082-.36 2.795 9.003zm-2.252-9.183l-.542.18c-.133-.318.046-.635.36-.725.272-.09.587.09.722.363zm-.586.133l-5.586-23.03 1.126-.272 5.586 23.031zm-5.044-23.166l-.54.135a.582.582 0 0 1 .404-.721.647.647 0 0 1 .722.45zm-.54.181l-5.59-15.745 1.083-.363 5.587 15.7zm-5.047-15.924l-.542.181c-.088-.271.044-.634.36-.724.272-.135.587.044.722.361zm-.542-.09l.542-3.394 1.126.18-.586 3.393zm1.082-3.304l-.54-.09c.044-.317.359-.544.63-.452.315.044.54.317.496.634zm-.54-.044l1.126-9.548 1.126.135-1.126 9.547zm12.879-26.18l1.644 4.461-1.02.405-1.645-4.42zm1.157 4.643l.487-.18a.512.512 0 0 1-.31.715.51.51 0 0 1-.71-.312zm.533 0l.577 18.299-1.156.044-.534-18.3zm0 18.299h.577a.59.59 0 0 1-.577.58c-.313 0-.533-.224-.58-.536zm.577 0l.534 47.133-1.11.044-.58-47.133zm-.118 46.906l.652.227c0 .31-.223.58-.534.58-.31 0-.577-.223-.577-.536zm-.105.763l-3.865-1.653.4-1.072 3.865 1.697zm-8.794-84.163L56.415 91.24l-1.08-.317 2.795-10.679zM25.657 92.653l2.817-10.79 1.078.284-2.786 10.558zm3.357-10.648l-.54-.143a.516.516 0 0 1 .673-.424c.315.096.494.424.405.709zm-.494-.285l3.909-7.635.988.612-3.91 7.59zm4.403-7.35l-.494-.285c.136-.282.494-.376.765-.234.27.188.359.518.223.848zm-.225-.52l8.945-4.101.405 1.084-8.9 4.102zm9.17-3.535l-.225-.566c.27-.142.584 0 .72.284.135.328 0 .706-.315.8zm.134-.612l10.023 2.921-.27 1.181-10.066-2.923zm9.89 3.533l.133-.612a.61.61 0 0 1 .404.755.516.516 0 0 1-.673.424zm.404-.424l6.157 7.026-.809.848-6.157-7.071zm5.753 7.45l.404-.424c.226.234.18.612-.043.848-.226.234-.586.234-.766 0zm.45-.378l1.662 2.357-.899.706-1.661-2.31zm1.214 2.687l.448-.33c.18.236.136.612-.09.848-.269.188-.63.142-.809-.142zm-.497.284l-4.15-9.04.691-2.04 4.616 10.879zm-8.656 2.64l5.587 3.393-.54.995-5.59-3.35zm-6.85-1.722l6.712 1.675-.269 1.13-6.713-1.672zm-8.02.545l8.02-.545-.088 1.133-7.841.542zm-5.902 4.613l5.586-4.526.722.951-5.633 4.483zm20.5 21.81l-.585-24.523 1.126-.046.586 24.57zm0-24.523h-.585a.6.6 0 0 1 .586-.59c.315 0 .54.227.54.544zm-.585-.092l1.712-13.12 1.126.134-1.712 13.122zm-7.255-15.973l2.794 16.334-1.126.184-2.794-16.29zM44.7 86.58l.542-.09a.6.6 0 0 1-.45.678.606.606 0 0 1-.678-.496zm.542 0l-.54 13.53-1.126-.046.54-13.528zm-1.126 13.484l.586.044c0 .317-.271.544-.586.544-.315 0-.586-.27-.54-.59zm.586-.043l.54 10.134-1.126.044-.54-10.089zm-7.3 10.766L35.148 84.95l1.126-.136 2.252 25.882zm-1.667-25.88l-.586.044c0-.317.225-.634.54-.634a.5.5 0 0 1 .586.498zm-.54.136l-2.794-10.68 1.082-.316 2.792 10.679zm-5.633-3.621l1.667 12.94-1.08.137-1.675-12.633zm1.028 12.59l.639.35c.043.317-.136.634-.45.678-.316 0-.63-.226-.63-.54zm.639.306l2.252 12.398-1.126.181-2.209-12.354zm1.712 12.487l.542-.09c.044.318-.136.635-.45.679-.318.043-.586-.182-.678-.497zm.542-.043l.584 4.478-1.126.135-.586-4.478zm0 4.57l.584-.092c0 .317-.18.59-.494.634-.315.044-.586-.182-.632-.499zm-.046-.59l8.921-1.131.136 1.132-8.921 1.13zm9.01-.543l-.087-.588c.313-.044.63.181.63.498.044.317-.181.634-.496.634zm0-.588l13.474.544-.043 1.177-13.474-.545zm13.428 1.132l.044-.59a.634.634 0 0 1 .542.634c-.043.317-.27.545-.586.545zm-.586 0V92.778h1.172v17.964zm0-17.964v-9.593h1.172v9.593zm.586-9.593h-.586c0-.317.272-.588.586-.588.315 0 .586.271.586.59zm-.54-.043l.54-5.069 1.126.136-.54 5.068zM52.001 67.53l.84 6.174-1.47-.7-.496-5.339zm-19.646 6.787l-1.126-5.611 1.126-.225 1.128 5.61zm6.715-14.344l3.334 10.09-1.036.407-3.38-10.134zm17.527 13.53l-1.712-1.132.63-.95 1.668 1.131zM55.2 71.918l-.315.453c-.225-.18-.315-.497-.136-.768.136-.273.497-.363.766-.181zm-.405.363l-5.589-6.153.812-.77 5.588 6.153zm-5.182-6.516l-.407.363a.575.575 0 0 1 0-.816c.226-.225.586-.181.812.044zm-.407.407l-5.046-5.066.765-.816 5.095 5.022zm-4.64-5.475l-.406.409a.575.575 0 0 1 0-.816.516.516 0 0 1 .765 0zm-.043.59l-6.175-.544.09-1.177 6.172.542zm-6.13-1.133l-.043.59a.634.634 0 0 1-.542-.633c.044-.317.315-.59.63-.545zm.405.407l-2.838 2.805-.765-.859 2.792-2.76zM35.6 62.96l.36.406a.569.569 0 0 1-.809 0 .687.687 0 0 1 .044-.859zm.45.317l-9.55 13.98-.904-.634L35.103 62.6zM26.047 76.943l.452.315a.53.53 0 0 1-.765.135.534.534 0 0 1-.138-.767zm.542.133l-3.92 16.246-1.127-.317 3.964-16.2zm-4.314 15.47l.393.774c-.09.317-.406.498-.678.409a.65.65 0 0 1-.448-.724zm.393.684L21 104.994l-1.126-.18 1.668-11.72zm-2.252 11.674l.584.09c-.044.317-.359.544-.63.498a.606.606 0 0 1-.496-.677zm.584.044l-.54 12.853-1.172-.046.586-12.85zm-1.028 12.114l.488.739c-.044.314-.315.588-.63.588a.634.634 0 0 1-.542-.634zm.488.693l1.668 29.636-1.128.092-1.712-29.682zm1.082 29.682l.586-.044c0 .361-.225.632-.542.632-.315 0-.586-.227-.586-.542zm.54-.181l2.838 8.958-1.08.363-2.84-8.958zM45.828 54.59l-.586 6.153-1.126-.09.586-6.199zM65.7 37.395l2.252-1.13.496 1.04-2.252 1.13zm2.477-.634l-.225-.497a.555.555 0 0 1 .765.271c.136.271 0 .634-.269.77zm0-.543h1.126v1.133h-1.126zm-13.699 3.757l6.13 3.347-.497 1.041-6.173-3.393zm5.408-2.217l2.523 1.04-.45 1.085-2.524-1.04zm2.298 1.583l.225-.543a.647.647 0 0 1 .315.77c-.134.315-.45.453-.766.315zm0-.588h3.155v1.176h-3.155zm3.155.59v-.59c.315 0 .54.27.54.59 0 .315-.225.586-.54.586zm-.361-.455l.63-.496.721.903-.63.498zm.99-.044l-.36-.452c.225-.228.586-.182.81.09.182.225.136.588-.089.813zm-.586 0l.318-1.45.809.41v1.04zm-5.09.18l1.08 1.675-.9.677-1.216-1.9zm.63 1.99l.45-.315c.182.27.136.634-.135.813-.27.181-.63.136-.765-.136zm.54.137l-.54 2.805-1.126-.227.586-2.805zm-1.08 2.716l.54.087c-.09.32-.36.547-.676.455-.315-.044-.496-.363-.45-.678zm.135-.59l7.3 2.263-.362 1.132L60.2 44.41zm7.12 2.805l.18-.542a.593.593 0 0 1 .36.723.577.577 0 0 1-.722.41zm-.407-.407l1.126-1.13.811.859-1.126 1.087zm1.53-.721l-.404-.41a.569.569 0 0 1 .811 0 .632.632 0 0 1 0 .86zm-.493.269l-.586-1.13 1.036-.5.54 1.133zm-.09-1.356l-.496.225c-.136-.271 0-.634.27-.77a.555.555 0 0 1 .766.272zm-.496.225l-1.127-3.44 1.083-.36 1.08 3.347zm-.586-3.62l-.54.18c-.136-.316.043-.633.36-.72.271-.093.586.043.722.36zm-.495.316l-1.128-1.673.947-.677 1.126 1.718zm1.712-10.723l-4.46 1.13-.271-1.13 4.504-1.13zm-4.01-3.168v3.936H63.13v-3.936zm0 3.936v3.44H63.13v-3.438zm-.586 3.44h.586a.597.597 0 0 1-.586.59.597.597 0 0 1-.586-.59zm.27-.543l4.28 2.307-.496.997-4.325-2.263zm4.055 2.805l.226-.498c.27.138.406.498.27.77-.135.27-.496.408-.765.227zm-.496.271l-1.62-2.805.99-.588 1.577 2.851zm-1.126-3.122l-.494.317a.59.59 0 0 1 .18-.813.645.645 0 0 1 .808.225zm-.54.182l-1.082-3.394 1.082-.36 1.082 3.393zm3.334.994l-2.794-.542.225-1.176 2.795.59zm-2.704-1.13l-.088.59c-.317-.091-.542-.409-.452-.726.043-.317.36-.498.677-.452zm.135.59l-2.838.54-.18-1.13 2.793-.588zm-2.93-.048l.092.59c-.271.044-.586-.137-.63-.452a.547.547 0 0 1 .45-.678zm.317.499l-4.504 2.805-.588-.995 4.506-2.805zm-4.775 2.307l.269.498c-.27.182-.586.09-.766-.181a.59.59 0 0 1 .18-.814zm.54-.136l.54 2.263-1.08.271-.586-2.217zM41.414 47.757l4.46.59-.135 1.128-4.461-.542zm4.368 1.13l.09-.542c.317 0 .542.317.496.634-.043.317-.315.542-.63.496zm.407-.407l8.921 7.872-.721.861-8.965-7.871zm12.842 14.48l-5.59-2.263.407-1.085 5.587 2.263zm-5.408-2.806l-.181.543c-.315-.136-.45-.45-.315-.768.09-.271.45-.452.721-.317zm-.54-.181l1.126-3.394 1.08.363-1.126 3.394zm-7.526-5.926l8.381 5.611-.586.995-8.425-5.657zm8.066 6.107l.315-.496a.59.59 0 0 1 .182.813c-.182.272-.543.363-.766.182zm.54-.225l3.38 8.416-1.082.453-3.334-8.418zm18.835-15.384l1.126-1.13.766.858-1.08 1.13zm1.53-.678l-.404-.453c.226-.227.497-.181.722.088.18.227.269.546.044.771zm.093.542l-2.795.588-.225-1.176 2.794-.545zm-2.795.588l-2.794.542-.225-1.13 2.794-.59zm-2.93-.044l.136.586c-.315.044-.63-.135-.676-.452-.044-.317.136-.634.45-.678zm.317-.454l1.666 1.086-.586.995-1.712-1.13zm1.398 1.583l.268-.497a.59.59 0 0 1 .182.814c-.182.273-.542.363-.765.181zm-.226-.543l2.793-1.13.631.995-3.017 1.222zm-2.164 10.363l-12.164-.995.087-1.177 12.123 1.085zM56.1 54.318l-.044.589a.562.562 0 0 1-.496-.634c0-.318.314-.589.586-.543zm-.495-.227L60.2 43.596l1.037.496-4.594 10.452zm-1.758-19.77l5.633 2.396-.45 1.086-5.59-2.398zm-10.86 19.634h2.254v1.177H42.99zm2.254.59v-.59a.569.569 0 0 1 .586.59.597.597 0 0 1-.586.587zm-.54-.091l.54-5.61 1.126.135-.538 5.61zm1.08-5.567l-.54-.044c.044-.317.315-.544.63-.498.317 0 .542.317.496.634zm-.45-.271L47 45.81l.99.59-1.711 2.803zm-5.497-5.746l7.84 2.805-.36 1.133-7.84-2.852zm-1.577-8.37l5.587 3.347-.586 1.041-5.587-3.394zm21.72 24.388l-4.461-3.935.721-.862 4.505 3.936zm-4.103-4.344l-.36.406c-.226-.179-.27-.542-.044-.813a.516.516 0 0 1 .765-.044zm-.45.317l-5.047-6.741.901-.678 5.047 6.739zm-4.596-7.058l-.45.317c-.18-.228-.136-.59.135-.816a.53.53 0 0 1 .765.136zm-.225.496l-3.379-1.673.495-1.04 3.38 1.672zm-3.11-2.217l-.269.544c-.27-.135-.406-.498-.27-.77a.555.555 0 0 1 .765-.27zm-.54.273l-3.874-7.874.99-.542 3.92 7.872zm-3.378-8.145l-.496.271c-.182-.27-.044-.634.225-.77.271-.135.63-.043.765.228zm-.586-.044l.586-5.07 1.126.135-.586 5.069zm1.126-5.024l-.54-.044c0-.317.315-.544.63-.499.27 0 .496.318.496.635zm-.36-.453l3.378-2.805.721.905-3.378 2.805zm3.738-2.353l-.36-.452c.227-.182.586-.136.81.092.182.27.136.634-.087.813zm0-.588h1.669v1.177h-1.669zm1.669.59v-.59c.315 0 .586.271.586.59a.597.597 0 0 1-.586.587zm.225-.546l5.587 2.263-.405 1.087-5.633-2.263zm5.361 2.807l.226-.544c.27.138.45.453.314.77-.135.27-.45.452-.721.317zm.54.272l-1.126 2.263-1.036-.545 1.126-2.26zm-1.666 1.99l.54.273c-.135.27-.496.36-.765.225a.56.56 0 0 1-.271-.77zm.586-.088l.54 5.654-1.126.09-.54-5.61zm0 5.698l.54-.044a.562.562 0 0 1-.496.634.634.634 0 0 1-.63-.544zm.54.138l-1.126 5.61-1.082-.227 1.082-5.657zm-1.666 5.473l.54.137c-.043.315-.36.497-.678.45-.269-.087-.494-.36-.404-.677zm.315.498l-2.208 1.675-.676-.951 2.252-1.675zm-3.654-3.645l1.312-1.559.72.545-1.667 1.946zm1.67-1.288l-.36-.27a.483.483 0 0 1 .632-.136.551.551 0 0 1 .09.678zm-.404.182l-1.172-3.122.81-.315 1.174 3.076zm-.732-3.234l-.44.112c-.09-.226 0-.497.226-.589.27-.09.496 0 .586.274zm-.44.112l-.406-3.213.857-.135.36 3.033zm0-3.258l-.406.045c-.044-.27.135-.496.36-.496.272-.046.497.136.497.36zm-.09.452l-1.937-.452.18-.903 1.983.452zm-1.847-.903l-.09.45c-.225-.043-.406-.314-.317-.542.044-.27.272-.406.497-.36zm.405.225l-1.577 2.668-.765-.45 1.574-2.668zm-1.938 2.443l.361.227c-.135.225-.404.271-.586.136-.225-.09-.315-.407-.18-.59zm.407-.18l2.342 5.292-.855.363-2.298-5.292zm1.891 5.476l.45-.182a.52.52 0 0 1-.224.634c-.226.088-.497 0-.63-.273zm.136-.453l1.576.453-.269.903-1.532-.45zm-8.606.588l3.334 11.265-1.082.317-3.335-11.221zm2.794 11.447l.54-.182c.09.317-.044.634-.36.724a.577.577 0 0 1-.722-.407zm.18.542l-3.921 1.133-.315-1.133 3.92-1.13zm-9.687-12.26h6.173v1.176h-6.173zm6.173.588v-.59c.314 0 .54.273.54.59 0 .315-.226.588-.54.588zm-.586.136L37.4 35.13l1.129-.272 1.666 8.462zm-7.255-11.088l2.208 10.679-1.082.273-2.252-10.679zm1.668 10.814l.54-.135a.582.582 0 0 1-.407.726c-.315.043-.63-.138-.675-.453zm.54-.225l3.92 9.004-1.036.453-3.92-9.004zm3.378 9.23l.543-.226c.087.272 0 .634-.318.77a.516.516 0 0 1-.721-.317zm.497-.272l1.712 3.394-1.037.499-1.666-3.348zm1.172 3.621l.54-.227c.135.271 0 .634-.271.77a.555.555 0 0 1-.766-.271zm.586.09l-.586 4.48-1.126-.135.586-4.48zm-1.894-28.642l6.713 5.611-.72.905-6.712-5.61zm-4.789-1.716l-1.143 7.43-1.141-.184 1.14-7.384zM31.237 32.7l.593.092a.612.612 0 0 1-.684.503c-.274-.044-.503-.365-.457-.687zm.182-.55l6.804 2.247-.319 1.146-6.804-2.294zm6.669 2.842l.135-.595c.322.138.503.459.411.778-.135.276-.454.46-.73.368zm-.595.045l-.547-7.43 1.142-.091.546 7.43zM54.3 32.282l5-8.418.993.59-5.046 8.463zm-9.643-11.175l3.92 9.004-1.036.497-3.92-9.005zm3.92 9.23l.587-10.135 1.126.043-.54 10.137zm1.127-10.092l-.54-.043c0-.317.269-.59.586-.545.315 0 .54.274.54.59zm.225-.542l10.093 3.936-.404 1.087-10.094-3.936zm9.868 4.48l.225-.544c.271.092.407.453.315.726-.136.315-.45.45-.722.36zm-.496-.317l3.92-6.74.99.587-3.918 6.742zm9.281-.95l-4.46 4.48-.81-.814 4.505-4.526zm-4.865 4.073l.405.407a.575.575 0 0 1-.81-.814zm-.315.452l-3.92-2.807.63-.951 3.92 2.805zM50.83 14.095l-.54 6.196-1.126-.09.54-6.198zm-1.126 6.15l.586.046a.562.562 0 0 1-.632.499.503.503 0 0 1-.494-.59zm0 .59h-2.209v-1.178h2.209zm-8.47-4.886l3.377 5.066-.944.678-3.38-5.066zm2.883 5.43l.494-.364a.59.59 0 0 1-.179.816.53.53 0 0 1-.765-.136zm-.181-.591l3.38-1.13.36 1.132-3.38 1.13zm3.56-.543l-.18-.588c.271-.09.63.092.722.41.087.27-.092.633-.361.72zm-.54.136l-1.713-6.199 1.126-.27 1.669 6.154zm-2.434 1.404l-6.713 6.199-.765-.86 6.712-6.198zM37.4 27.53l.407.453c-.271.225-.632.181-.811-.044-.225-.227-.225-.634.043-.816zm-.225.542l-5.047-2.258.45-1.041 5.047 2.217zm-4.821-2.76l-.226.5c-.268-.136-.404-.453-.268-.77.09-.271.45-.407.721-.271zm-.405-.406l8.425-9.004.811.813-8.425 8.96zm8.832-8.597l-.407-.407c.181-.227.542-.227.765-.044a.632.632 0 0 1 .046.857zm-.226-.543l5.001-2.263.496 1.087-5.046 2.217zm5.226-1.72l-.225-.543c.315-.135.632 0 .765.317.136.272 0 .635-.269.77zm0-.589h4.507v1.177h-4.505zm4.507.59v-.59a.6.6 0 0 1 .586.59.597.597 0 0 1-.586.587zm.135-.59l9.507 2.264-.27 1.13-9.508-2.217zm9.372 2.852l.135-.588a.582.582 0 0 1 .405.723c-.044.317-.36.499-.676.407zm.18-.588l3.876 1.13-.271 1.133-3.92-1.133zm3.738 1.718l.138-.588a.582.582 0 0 1 .404.726c-.09.315-.404.496-.675.407zm.407-.407l4.506 5.069-.857.77-4.46-5.069zm4.056 5.43l.45-.361a.623.623 0 0 1-.043.813c-.228.228-.589.182-.814-.043zm.586 0v7.331h-1.126v-7.331zm-.586 7.331h.586a.597.597 0 0 1-.586.588c-.271 0-.54-.27-.54-.59zm.586-.135l1.126 4.478-1.126.273-1.126-4.482zm.54 4.613l.586-.135a.65.65 0 0 1-.45.723c-.272.092-.586-.135-.678-.45zm.586 0v2.263h-1.126v-2.263zm-.586 2.263h.586a.597.597 0 0 1-.586.59c-.315 0-.54-.273-.54-.59zm.496-.317l3.92 5.61-.946.679-3.92-5.655zm3.424 5.928l.497-.317a.625.625 0 0 1-.136.815.619.619 0 0 1-.811-.135zm.497-.317l1.126 1.675-.947.678-1.126-1.719zm-2.705 4.255v2.307h-1.126v-2.31zm-.586 2.307h.586a.597.597 0 0 1-.586.588c-.315 0-.54-.271-.54-.59zm.315.452l-1.666 1.177-.63-.995 1.666-1.133zm-1.981.678l.315.499a.586.586 0 0 1-.81-.182c-.137-.27-.091-.634.18-.813zm.54-.181l.54 1.72-1.08.361-.542-1.718zm0 1.902l.54-.182c.092.318-.044.635-.36.722-.27.092-.585-.044-.722-.36zm.496.315l-1.126 1.72-.947-.633 1.127-1.72zm-1.484 1.196l.358.525c-.181.27-.542.317-.811.135-.225-.181-.317-.542-.136-.77zm.448.072l.54 2.85-1.082.227-.584-2.852zm-.035 2.812l.575.037a.547.547 0 0 1-.45.678c-.272.092-.586-.133-.63-.45zm.575.31l-.54 2.307-1.126-.317.586-2.263zm-1.126 2.126l.586.181c-.09.271-.407.499-.722.407-.27-.09-.45-.407-.404-.722zm0 .59h-1.082v-1.178h1.082zm-1.082-.59v.59a.569.569 0 0 1-.586-.59c0-.317.27-.588.586-.588zm.043.59l-6.712.586-.134-1.176 6.803-.588zm-6.756 0l.044.586a.634.634 0 0 1-.63-.542c-.044-.317.225-.59.496-.634zm.45.315l-1.126 1.719-.947-.634 1.127-1.72zm-1.576 1.404l.45.315c-.181.273-.54.363-.765.181a.59.59 0 0 1-.182-.813zm.54 0v2.26H58.67v-2.258zm-.54 2.26h.54c0 .364-.225.591-.54.591a.569.569 0 0 1-.586-.59zm.54.228l-2.252 6.289-1.083-.407 2.253-6.29zM57 68.933l.543.226c-.136.27-.45.452-.722.317-.315-.09-.45-.407-.36-.724zm.586 0v4.57h-1.172v-4.57zm-.586 4.57h.586a.597.597 0 0 1-.586.588.597.597 0 0 1-.586-.59zm.407-.409l2.792 2.852-.809.859-2.794-2.895zm2.388 3.258l.404-.406a.632.632 0 0 1 0 .859.569.569 0 0 1-.809 0zm.54-.135l2.252 8.009-1.08.317-2.252-8.01zm1.712 8.145l.542-.136a.582.582 0 0 1-.406.724c-.27.092-.586-.09-.676-.407zm.542-.182l3.335 9.73-1.083.361-3.334-9.682zm2.792 9.91l.543-.18c.133.271-.046.634-.317.722a.621.621 0 0 1-.766-.361zm-.494.27L59.3 82.915l.992-.498 5.633 11.402z"
       id="path827"
       style="fill:#000000;fill-opacity:1">
      <animate
         id="p1"
         attributeName="stroke-dashoffset"
         begin="0.1s;f1.end+0.3s"
         values="500;0;500"
         dur="14s"
         calcMode="linear" />
      <animate
         id="f1"
         attributeName="fill"
         begin="p1.end-0.1s"
         values="white; white; white"
         dur="1s"
         calcMode="linear" />
    </path>
  </g>
</svg>
