<svg version="1.0" xmlns="http://www.w3.org/2000/svg"
 width="200.000000pt" height="200.000000pt" viewBox="0 0 200.000000 200.000000"
 preserveAspectRatio="xMidYMid meet">
<metadata>

</metadata>
<g transform="translate(0.000000,200.000000) scale(0.100000,-0.100000)"
fill="#6b6b6b" stroke="none">
<path d="M310 1000 l0 -690 690 0 690 0 0 78 0 79 -602 -1 -603 0 0 229 0 229
482 -1 482 0 3 36 c2 20 1 55 -1 79 l-3 42 -484 0 -484 0 2 227 3 227 602 0
603 0 0 78 0 78 -690 0 -690 0 0 -690z"/>
</g>
</svg>
