<?xml version="1.0" encoding="UTF-8" standalone="no"?>
<svg
   xmlns:dc="http://purl.org/dc/elements/1.1/"
   xmlns:cc="http://creativecommons.org/ns#"
   xmlns:rdf="http://www.w3.org/1999/02/22-rdf-syntax-ns#"
   xmlns:svg="http://www.w3.org/2000/svg"
   xmlns="http://www.w3.org/2000/svg"
   xmlns:sodipodi="http://sodipodi.sourceforge.net/DTD/sodipodi-0.dtd"
   xmlns:inkscape="http://www.inkscape.org/namespaces/inkscape"
   inkscape:version="1.0 (4035a4fb49, 2020-05-01)"
   sodipodi:docname="sdk (1).svg"
   id="svg72"
   version="1.1"
   width="215.653"
   height="51.717"
   viewBox="0 0 57.058 13.683">
  <metadata
     id="metadata76">
    <rdf:RDF>
      <cc:Work
         rdf:about="">
        <dc:format>image/svg+xml</dc:format>
        <dc:type
           rdf:resource="http://purl.org/dc/dcmitype/StillImage" />
      </cc:Work>
    </rdf:RDF>
  </metadata>
  <sodipodi:namedview
     inkscape:current-layer="svg72"
     inkscape:window-maximized="1"
     inkscape:window-y="-11"
     inkscape:window-x="-11"
     inkscape:cy="75.110891"
     inkscape:cx="139.9711"
     inkscape:zoom="1.410751"
     showgrid="false"
     id="namedview74"
     inkscape:window-height="1046"
     inkscape:window-width="1920"
     inkscape:pageshadow="2"
     inkscape:pageopacity="0"
     guidetolerance="10"
     gridtolerance="10"
     objecttolerance="10"
     borderopacity="1"
     bordercolor="#666666"
     pagecolor="#ffffff" />
  <defs
     id="defs46">
    <clipPath
       id="clipPath4">
      <path
         id="path2"
         d="M22.142 14.65l-8.395-4.884-.033-.094.067-.048v-.001l5 .012s.5.02 1.12.256c0 0 1.38.437 2.094 2 0 0 .64 1.273.146 2.76" />
    </clipPath>
    <filter
       id="filter8"
       height="28"
       width="29"
       y="496"
       x="55.5"
       filterUnits="userSpaceOnUse">
      <feColorMatrix
         id="feColorMatrix6"
         values="1 0 0 0 0  0 1 0 0 0  0 0 1 0 0  0 0 0 1 0" />
    </filter>
    <filter
       id="filter12"
       height="13.1"
       width="23"
       y="189"
       x="404"
       filterUnits="userSpaceOnUse">
      <feColorMatrix
         id="feColorMatrix10"
         values="1 0 0 0 0  0 1 0 0 0  0 0 1 0 0  0 0 0 1 0" />
    </filter>
    <filter
       id="filter16"
       height="17.8"
       width="12.8"
       y="188.2"
       x="445"
       filterUnits="userSpaceOnUse">
      <feColorMatrix
         id="feColorMatrix14"
         values="1 0 0 0 0  0 1 0 0 0  0 0 1 0 0  0 0 0 1 0" />
    </filter>
    <filter
       id="filter20"
       height="11.9"
       width="14.4"
       y="187.1"
       x="483"
       filterUnits="userSpaceOnUse">
      <feColorMatrix
         id="feColorMatrix18"
         values="1 0 0 0 0  0 1 0 0 0  0 0 1 0 0  0 0 0 1 0" />
    </filter>
    <filter
       id="filter24"
       height="11.9"
       width="11.9"
       y="187.1"
       x="483.3"
       filterUnits="userSpaceOnUse">
      <feColorMatrix
         id="feColorMatrix22"
         values="1 0 0 0 0  0 1 0 0 0  0 0 1 0 0  0 0 0 1 0" />
    </filter>
    <filter
       id="filter28"
       height="25"
       width="25"
       y="189.4"
       x="560"
       filterUnits="userSpaceOnUse">
      <feColorMatrix
         id="feColorMatrix26"
         values="1 0 0 0 0  0 1 0 0 0  0 0 1 0 0  0 0 0 1 0" />
    </filter>
    <filter
       id="filter32"
       height="25"
       width="25"
       y="150.8"
       x="519.5"
       filterUnits="userSpaceOnUse">
      <feColorMatrix
         id="feColorMatrix30"
         values="1 0 0 0 0  0 1 0 0 0  0 0 1 0 0  0 0 0 1 0" />
    </filter>
    <filter
       id="filter36"
       height="25"
       width="25"
       y="150.8"
       x="557.5"
       filterUnits="userSpaceOnUse">
      <feColorMatrix
         id="feColorMatrix34"
         values="1 0 0 0 0  0 1 0 0 0  0 0 1 0 0  0 0 0 1 0" />
    </filter>
    <filter
       id="filter40"
       height="23.8"
       width="24"
       y="337.6"
       x="5.6"
       filterUnits="userSpaceOnUse">
      <feColorMatrix
         id="feColorMatrix38"
         values="1 0 0 0 0  0 1 0 0 0  0 0 1 0 0  0 0 0 1 0" />
    </filter>
    <filter
       id="filter44"
       height="19"
       width="19.6"
       y="338.5"
       x="53.4"
       filterUnits="userSpaceOnUse">
      <feColorMatrix
         id="feColorMatrix42"
         values="1 0 0 0 0  0 1 0 0 0  0 0 1 0 0  0 0 0 1 0" />
    </filter>
  </defs>
  <path
     style="fill:#ffffff;fill-opacity:1"
     d="m 7.519,1.619 c -1.438,0 -2.6,1.16 -2.6,2.598 v 5.627 c 0,1.438 1.162,2.598 2.6,2.598 h 5.76 c 1.438,0 2.6,-1.16 2.6,-2.598 V 4.217 c 0,-1.438 -1.162,-2.598 -2.6,-2.598 z m 0,0.2 h 5.76 a 2.39,2.39 0 0 1 2.398,2.398 v 5.627 a 2.39,2.39 0 0 1 -2.398,2.398 h -5.76 c -1.33,0 -2.4,-1.068 -2.4,-2.398 V 4.217 c 0,-1.33 1.07,-2.398 2.4,-2.398 z m 0.786,5.925 h 1.286 q 0.134,0 0.228,0.094 0.094,0.094 0.094,0.228 V 9.674 H 9.696 V 8.969 H 8.201 V 9.674 H 7.984 V 8.066 Q 7.984,7.932 8.078,7.838 8.172,7.744 8.306,7.744 Z M 8.2,8.752 H 9.695 V 8.066 Q 9.695,8.023 9.663,7.994 9.633,7.962 9.591,7.962 H 8.305 Q 8.262,7.962 8.23,7.994 8.2,8.024 8.2,8.066 Z m 2.018,-1.005 h 1.608 q 0.134,0 0.228,0.094 0.094,0.094 0.094,0.228 v 0.565 q 0,0.134 -0.094,0.228 -0.094,0.094 -0.228,0.094 h -1.285 q -0.024,0 -0.105,-0.01 v 0.73 H 10.219 Z M 11.93,8.634 V 8.069 q 0,-0.043 -0.032,-0.072 -0.03,-0.032 -0.072,-0.032 h -1.285 q -0.043,0 -0.075,0.032 -0.03,0.03 -0.03,0.072 v 0.565 q 0,0.043 0.03,0.072 0.032,0.03 0.075,0.03 h 1.286 q 0.043,0 0.072,-0.03 0.032,-0.03 0.032,-0.072 z m 0.41,1.04 v -1.93 h 0.217 v 1.93 z M 43.795,1.619 c -1.438,0 -2.6,1.16 -2.6,2.598 v 5.627 c 0,1.438 1.162,2.598 2.6,2.598 h 5.76 c 1.438,0 2.6,-1.16 2.6,-2.598 V 4.217 c 0,-1.438 -1.162,-2.598 -2.6,-2.598 z m 0,0.2 h 5.76 a 2.39,2.39 0 0 1 2.398,2.398 v 5.627 a 2.39,2.39 0 0 1 -2.398,2.398 h -5.76 A 2.39,2.39 0 0 1 41.397,9.844 V 4.217 a 2.39,2.39 0 0 1 2.398,-2.398 z"
     id="path48" />
  <g
     transform="translate(42.341,-261.586)"
     fill="#ffffff"
     stroke-width="0.16"
     id="g56">
    <path
       d="m 7.438,268.94 a 0.115,0.115 0 0 1 -0.115,-0.114 2.93,2.93 0 0 0 -2.743,-2.901 0.115,0.115 0 1 1 0.014,-0.229 3.16,3.16 0 0 1 2.959,3.129 0.115,0.115 0 0 1 -0.114,0.116 H 7.438 Z"
       id="path50">
      <animate
         repeatCount="indefinite"
         attributeName="fill"
         keyTimes="0; 0.5; 0.7; 1"
         values="white; #4e86b1; #d7d7d7; white"
         dur="5s" />
    </path>
    <path
       d="m 6.497,268.94 a 0.115,0.115 0 0 1 -0.115,-0.114 1.975,1.975 0 0 0 -1.806,-1.958 0.115,0.115 0 1 1 0.02,-0.229 2.204,2.204 0 0 1 2.015,2.185 0.115,0.115 0 0 1 -0.114,0.116 z"
       id="path52">
      <animate
         repeatCount="indefinite"
         attributeName="fill"
         keyTimes="0; 0.5; 0.7; 1"
         values="white; #4e86b1; #d7d7d7; white"
         dur="4s" />
    </path>
    <path
       d="m 5.607,268.94 a 0.115,0.115 0 0 1 -0.115,-0.113 1.09,1.09 0 0 0 -0.923,-1.064 0.115,0.115 0 0 1 0.036,-0.227 1.32,1.32 0 0 1 1.117,1.287 0.115,0.115 0 0 1 -0.113,0.117 z"
       id="path54">
      <animate
         repeatCount="indefinite"
         attributeName="fill"
         keyTimes="0; 0.5; 0.7; 1"
         values="white; #4e86b1; #d7d7d7; white"
         dur="2s" />
    </path>
  </g>
  <path
     style="fill:#ffffff;fill-opacity:1"
     font-family="sans-serif"
     d="m 46.785,6.617 a 0.568,0.568 0 0 0 -0.567,0.567 0.568,0.568 0 0 0 0.567,0.567 0.568,0.568 0 0 0 0.567,-0.567 0.568,0.568 0 0 0 -0.567,-0.567 z m 0,0.214 v 0 a 0.352,0.352 0 1 1 -0.353,0.353 v 0 c 0,-0.195 0.157,-0.352 0.352,-0.352 z"
     stroke-width="0.16"
     id="path58">
    <animate
       repeatCount="indefinite"
       attributeName="fill"
       keyTimes="0; 0.5; 0.7; 1"
       values="white; #4e86b1; #d7d7d7; white"
       dur="3s" />
  </path>
  <path
     style="fill:#ffffff;fill-opacity:1"
     d="M 9.221,5.249 V 5.324 H 9.004 V 5.249 Q 9.004,5.206 8.972,5.177 8.942,5.145 8.9,5.145 H 7.614 q -0.043,0 -0.075,0.032 -0.03,0.03 -0.03,0.072 v 0.43 q 0,0.043 0.03,0.072 0.032,0.03 0.075,0.03 H 8.9 q 0.134,0 0.228,0.094 0.094,0.094 0.094,0.228 v 0.43 q 0,0.134 -0.094,0.228 Q 9.034,6.855 8.9,6.855 H 7.614 Q 7.48,6.855 7.386,6.761 7.292,6.667 7.292,6.533 V 6.458 h 0.217 v 0.075 q 0,0.043 0.03,0.075 0.032,0.03 0.075,0.03 H 8.9 q 0.043,0 0.072,-0.03 Q 9.004,6.576 9.004,6.533 V 6.103 Q 9.004,6.06 8.972,6.031 8.942,6.001 8.9,6.001 H 7.614 Q 7.48,6.001 7.386,5.907 7.292,5.813 7.292,5.679 V 5.249 Q 7.292,5.115 7.386,5.021 7.48,4.927 7.614,4.927 H 8.9 q 0.134,0 0.228,0.094 0.094,0.094 0.094,0.228 z M 9.513,4.927 h 1.608 q 0.134,0 0.228,0.094 0.094,0.094 0.094,0.228 v 1.286 q 0,0.134 -0.094,0.228 -0.094,0.094 -0.228,0.094 H 9.513 Z m 1.712,1.608 V 5.249 q 0,-0.043 -0.032,-0.072 -0.03,-0.032 -0.072,-0.032 H 9.835 q -0.043,0 -0.075,0.032 -0.03,0.03 -0.03,0.072 v 1.286 q 0,0.043 0.03,0.075 0.032,0.03 0.075,0.03 h 1.286 q 0.043,0 0.072,-0.03 0.032,-0.032 0.032,-0.075 z m 2.08,-1.608 h 0.28 l -0.807,0.965 0.8,0.965 h -0.28 L 12.58,6.002 h -0.622 v 0.855 h -0.22 v -1.93 h 0.22 v 0.855 h 0.622 z"
     id="path60" />
  <g
     transform="translate(42.341,-261.586)"
     fill="#ffffff"
     stroke-width="0.16"
     id="g68">
    <path
       d="m 1.294,268.674 a 0.115,0.115 0 0 1 0.114,0.115 2.93,2.93 0 0 0 2.731,2.912 0.115,0.115 0 1 1 -0.015,0.229 3.16,3.16 0 0 1 -2.946,-3.141 0.115,0.115 0 0 1 0.115,-0.115 z"
       id="path62">
      <animate
         repeatCount="indefinite"
         attributeName="fill"
         keyTimes="0; 0.5; 0.7; 1"
         values="white; #4e86b1; #d7d7d7; white"
         dur="5s" />
    </path>
    <path
       d="m 2.234,268.678 a 0.115,0.115 0 0 1 0.114,0.114 1.975,1.975 0 0 0 1.798,1.965 0.115,0.115 0 1 1 -0.021,0.229 2.204,2.204 0 0 1 -2.006,-2.193 0.115,0.115 0 0 1 0.114,-0.115 z"
       id="path64">
      <animate
         repeatCount="indefinite"
         attributeName="fill"
         keyTimes="0; 0.5; 0.7; 1"
         values="white; #4e86b1; #d7d7d7; white"
         dur="4s" />
    </path>
    <path
       d="m 3.124,268.682 a 0.115,0.115 0 0 1 0.114,0.114 1.09,1.09 0 0 0 0.919,1.067 0.115,0.115 0 0 1 -0.036,0.227 1.32,1.32 0 0 1 -1.112,-1.291 0.115,0.115 0 0 1 0.114,-0.116 h 0.002 z"
       id="path66">
      <animate
         repeatCount="indefinite"
         attributeName="fill"
         keyTimes="0; 0.5; 0.7; 1"
         values="white; #4e86b1; #d7d7d7; white"
         dur="2s" />
    </path>
  </g>
</svg>
