<?xml version="1.0" encoding="UTF-8" standalone="no"?>
<!-- Created with Inkscape (http://www.inkscape.org/) -->

<svg
   xmlns:dc="http://purl.org/dc/elements/1.1/"
   xmlns:cc="http://creativecommons.org/ns#"
   xmlns:rdf="http://www.w3.org/1999/02/22-rdf-syntax-ns#"
   xmlns:svg="http://www.w3.org/2000/svg"
   xmlns="http://www.w3.org/2000/svg"
   xmlns:sodipodi="http://sodipodi.sourceforge.net/DTD/sodipodi-0.dtd"
   xmlns:inkscape="http://www.inkscape.org/namespaces/inkscape"
   width="150"
   height="150"
   viewBox="0 0 39.687499 39.687501"
   version="1.1"
   id="svg15559"
   inkscape:version="0.92.2 (5c3e80d, 2017-08-06)"
   sodipodi:docname="timeswhite.svg">
  <defs
     id="defs15553">
    <clipPath
       id="clipEmfPath1"
       clipPathUnits="userSpaceOnUse">
      <path
         inkscape:connector-curvature="0"
         id="path15435"
         d="M -0.27328498,-0.26725306 H 193.36194 V 277.21485 H -0.27328498 Z" />
    </clipPath>
    <pattern
       y="0"
       x="0"
       height="6"
       width="6"
       patternUnits="userSpaceOnUse"
       id="EMFhbasepattern" />
  </defs>
  <sodipodi:namedview
     id="base"
     pagecolor="#ffffff"
     bordercolor="#666666"
     borderopacity="1.0"
     inkscape:pageopacity="0.0"
     inkscape:pageshadow="2"
     inkscape:zoom="1.4"
     inkscape:cx="57.658039"
     inkscape:cy="56.13354"
     inkscape:document-units="mm"
     inkscape:current-layer="layer1"
     showgrid="false"
     units="px"
     inkscape:window-width="1366"
     inkscape:window-height="745"
     inkscape:window-x="-8"
     inkscape:window-y="-8"
     inkscape:window-maximized="1" />
  <metadata
     id="metadata15556">
    <rdf:RDF>
      <cc:Work
         rdf:about="">
        <dc:format>image/svg+xml</dc:format>
        <dc:type
           rdf:resource="http://purl.org/dc/dcmitype/StillImage" />
        <dc:title></dc:title>
      </cc:Work>
    </rdf:RDF>
  </metadata>
  <g
     inkscape:label="Layer 1"
     inkscape:groupmode="layer"
     id="layer1"
     transform="translate(0,-257.31248)">
    <g
       id="g15516"
       transform="matrix(0.17654985,0,0,0.17654985,41.975967,256.25777)"
       style="fill:#ffffff;fill-opacity:1">
      <path
         inkscape:connector-curvature="0"
         style="fill:#ffffff;fill-opacity:1;fill-rule:evenodd;stroke:none;stroke-width:0.51872337"
         d="m -97.794168,100.62704 c 2.153334,0 8.16308,-2.988028 10.394714,-2.988028 -0.07825,0.88462 -3.171253,2.280345 -3.993447,2.634188 -2.114173,0.90427 -4.384957,1.10085 -6.851502,1.10085 -1.076679,0 -3.190857,-0.33419 -3.190857,-1.27778 0,-0.943586 3.797703,-3.951269 4.756909,-3.951269 0.685157,0 -0.802595,2.083754 -0.920044,2.280339 -0.29366,0.412821 -1.585651,2.2017 -0.19587,2.2017 z M -101.9638,89.579208 c -1.25285,0 -1.25285,-3.282905 -0.21533,-3.282905 0.58726,0 1.1158,0.923928 1.23326,1.533326 0.0979,0.668383 -0.3915,1.749579 -1.01793,1.749579 z m 32.476154,-2.535899 c 0.998357,0.668375 3.75855,7.017937 1.331162,7.017937 -0.234916,-2.830767 -0.841775,0.884613 -5.050545,0.884613 -0.724316,0 -1.487765,-0.117943 -1.487765,-0.747005 0,-1.061542 1.409467,-0.235899 1.409467,-1.494018 0,-0.589744 -1.037517,-0.03932 -1.233294,0.09828 -0.939622,0.570083 -1.213683,0.511105 -2.251194,0.511105 -1.252857,0 -2.329526,-1.474349 -0.841754,-1.906831 0.411081,-0.117943 0.822164,-0.09828 1.213683,-0.196576 -0.176251,-0.62906 -2.525262,-0.884621 -2.525262,-1.631618 0,-0.805983 5.285454,-6.192303 6.205506,-3.047006 0.234916,0.766666 -0.117425,1.631618 0.704734,1.631618 0.293632,0 0.03919,-0.157276 0.450234,-0.157276 0.469825,0 0.371937,0.786321 0.489387,1.140173 0.234917,0.727352 0.880908,0.727352 1.370315,0.727352 1.272427,0 -0.05863,-2.280338 0.215326,-2.830767 z m -14.486045,-1.120512 v 0.216238 c 2.290359,0 2.368657,0.353845 2.368657,2.024785 0,3.774349 -5.48121,7.352122 -8.613325,8.335026 -0.978781,0.31453 -3.719387,1.002559 -4.756904,0.471791 0.156647,-0.570083 3.934734,-2.594868 4.698179,-3.046998 0.939643,-0.570082 4.267508,-2.339314 4.659018,-3.08632 -1.233267,0 -4.40452,2.476915 -6.753628,2.476915 0.117377,-1.356403 7.732432,-4.108539 7.732432,-5.150414 0,-0.589743 -1.879274,-0.511105 -2.01631,-1.061534 2.486132,0 2.13376,-1.356412 -0.802607,-0.353846 -0.939631,0.31453 -1.311566,0.511114 -2.309934,0.511114 0,-0.963251 2.172922,-6.231617 2.446959,-7.391444 0.56772,0.137607 4.600304,4.285462 4.600304,5.229052 0,0.314529 -0.959206,0.747004 -1.252841,0.825635 z m -12.939571,1.494011 c -0.254474,0 -0.215324,-0.157254 -0.215324,-0.452131 0,-1.43504 2.544845,-5.976056 4.169645,-6.349555 0.176247,0.84529 -1.017954,3.204259 -1.370314,3.931611 -0.352373,0.688035 -1.761813,2.870075 -2.584007,2.870075 z m 6.107644,-9.042709 c 0.137036,0.648714 0.137036,1.631618 0.234911,2.37863 0.05887,0.45213 0.900469,3.302551 0.05887,3.302551 -0.998356,0 -1.840124,-4.639308 -0.293636,-5.681181 z m -16.424062,1.572642 c 1.15498,0.01966 3.32788,2.909397 3.32788,5.229051 0,0.864958 -0.35237,1.788885 -0.84176,2.201707 -0.39151,0.31453 -1.42902,1.002559 -2.05546,1.002559 -0.41108,0 -0.52853,-0.550429 -0.46982,-0.845297 0.29365,-1.218796 1.82055,0.550429 1.82055,-3.105975 0,-2.005131 -1.74222,-3.164951 -1.78139,-4.482045 z m 6.46001,3.87264 c 0,-1.376065 1.01794,-3.007683 1.526911,-4.049563 0.156648,-0.294868 2.642719,-4.383747 2.642719,-2.732469 0,0.904268 -0.704732,1.946148 -1.076667,2.575208 -1.605225,2.693152 -1.487764,4.383754 -1.957574,5.504259 -0.685159,1.690594 -1.135389,-0.255554 -1.135389,-1.297435 z m -0.90051,-7.450406 c 0,2.811099 -2.36864,-0.629067 -2.36864,0.137607 0,0.825636 1.62478,2.594868 1.62478,5.52392 0,0.314529 -0.0782,1.041881 -0.37194,1.041881 -0.52855,0 -3.34745,-4.02991 -3.01464,-6.605123 0.39149,-3.046997 1.15496,-2.555546 1.56605,-5.681181 0.11737,-0.904266 0.11737,-1.238457 0.48938,-1.965802 1.13539,0.09827 5.794423,4.95383 5.794423,5.976049 0,0.609398 -0.03925,1.494018 -0.841757,1.611964 -0.508971,0.07864 -1.115817,-0.373506 -1.409466,-0.629059 -0.50897,-0.471791 -1.64435,-2.0641 -1.89885,-2.241023 0,0.884612 0.43066,1.788886 0.43066,2.830767 z m 13.644317,-5.740164 c 0.03913,-0.432475 0.01962,-0.353839 0.176247,-0.688029 0.489384,0.137607 1.918423,2.2017 0.195869,4.599985 -0.215348,0.314535 -1.252866,1.67094 -1.526926,1.74957 0,-0.786321 -0.156647,-3.499134 0.450235,-3.499134 0.35236,0 0.430671,0.216238 0.66557,0.216238 0.548133,0 0.156659,-1.611964 0.03925,-2.37863 z m -20.319627,9.770067 c 0,1.74957 0.31321,1.690601 0.646,2.398284 0.33279,0.747012 0.37194,1.788885 0.0196,2.516237 -0.76347,-0.05898 -1.40946,-1.454695 -1.58563,-2.142731 -0.68514,-2.850421 -0.29365,-7.411098 0.56768,-9.907666 0.37194,-1.081197 1.35073,-2.830768 1.38989,-4.206833 0.0586,-2.260682 1.40943,-1.552992 1.40943,1.041874 0,2.791445 -0.99835,2.319654 -1.64435,4.678623 -0.45023,1.572647 -0.80259,3.597433 -0.80259,5.622212 z M -99.947491,69.1348 c 0.802607,0 0.78302,0.176915 1.370291,0.255553 1.213704,0.176923 -0.03913,-2.005123 2.799342,0.471798 0.998368,0.864952 3.445326,2.732468 4.130483,3.676057 0.274037,0.393161 0.274037,0.884612 -0.27406,0.884612 -0.95923,0 -1.370315,-0.923927 -2.016311,-0.963242 0,0.570083 0.528547,1.670932 0.724296,2.182045 0.176258,0.432477 1.292015,3.027344 0.01962,3.027344 -0.293636,0 -0.313223,-0.314529 -0.391522,-0.570083 -0.528534,-2.024784 -6.322956,-7.568358 -6.362106,-8.964084 z m -11.588839,6.329902 0.39151,3.361534 c 0.13704,1.238457 -0.92006,2.988028 -2.32951,2.988028 -0.52855,0 -1.03752,0 -1.03752,-0.668374 0,-1.238465 1.44861,0.255553 1.33115,-2.162393 -0.0391,-0.923935 -0.17624,-1.081189 -0.15664,-2.162392 0,-2.2017 0.93964,-4.717938 1.58565,-6.349556 0.43064,-1.081196 2.07501,-4.560677 3.32785,-4.560677 0.88093,0 0.74388,0.904275 0.74388,1.494015 0,1.415383 -1.07665,3.400854 -1.6835,4.285458 -0.74388,1.081197 -2.17291,2.123078 -2.17291,3.774357 z m 14.70138,-10.969209 c 0,-1.35641 0,-3.322217 1.194116,-3.951274 1.233267,0.648715 -0.35236,1.572646 1.937999,4.088882 0.548121,0.570081 1.037518,0.923929 1.605202,1.454697 0.430671,0.393161 1.292015,1.022216 1.292015,1.769225 -1.174554,0.275218 -2.681893,-0.334188 -3.797698,-0.589742 0.137036,0.491455 3.484488,2.555547 3.562787,3.577775 -1.252853,0 -3.327888,-1.356411 -3.993471,-2.024786 -0.841744,-0.864954 -1.80095,-2.653838 -1.80095,-4.324777 z m -6.3817,-1.867519 c 1.03752,0 4.071766,0.176918 4.071766,1.041878 0,0.825641 -0.978806,1.906833 -1.605206,2.103412 -0.50898,0.157274 -1.07669,0.07864 -1.37031,0.491454 -0.23491,0.334188 -0.11738,1.061537 -0.80261,1.061537 -0.60683,0 -0.64599,-0.353847 -0.76344,-0.864956 -0.17626,-0.707688 -0.60686,-0.157273 -1.05711,-0.216239 -0.68514,-0.07864 -1.64435,-0.943584 -1.99671,-1.415379 -0.76347,-0.943588 -0.82219,-1.415384 0.50897,-1.788887 0.8026,-0.235896 2.01628,-0.41282 3.01465,-0.41282 z m -12.70464,11.421348 c 0,1.985462 1.0375,1.435033 1.0375,2.614521 0,0.62906 -2.46654,0.864952 -2.46654,-1.04188 0,-2.339307 1.58564,-6.074341 2.48612,-7.882887 0.27406,-0.570087 0.52855,-1.12051 0.76344,-1.690598 0.31321,-0.727349 1.31159,-2.594865 1.85969,-3.145292 0.88093,-0.884612 2.09462,-0.629057 3.23003,-0.511109 -0.0196,0.805981 -1.03753,1.061536 -1.74225,2.889739 -0.4111,1.002562 0.0392,1.258117 -1.40947,3.223924 -0.99835,1.356411 -3.75852,4.128195 -3.75852,5.543582 z m 24.058567,-16.571765 c 1.194129,0.629059 3.327889,3.302559 3.91516,4.81623 0.293635,0.727349 0.137048,1.847858 -0.332797,2.280339 -1.017919,0.982904 -0.920057,-1.297435 -2.760169,-2.614527 -0.920056,-0.668374 -2.897217,-1.474355 -2.897217,-2.988027 0.959206,0.01966 2.446959,1.552989 2.446959,0.6094 0,-0.786324 -0.371936,-1.140168 -0.371936,-2.103415 z m 2.172922,-2.909397 c 0,-0.982903 0.763445,-3.636744 1.037506,-4.029905 0,1.2188 0.01962,6.506825 1.703088,6.506825 0.548109,0 0.528546,-0.255556 1.037517,-0.31453 0.05887,0.0983 0.293624,0.353846 0.293624,0.452135 0,0.609401 -0.43066,1.788887 -0.685134,2.142731 -0.508971,0.668376 -1.291991,-0.471793 -1.546489,-0.864954 -0.548121,-0.805981 -1.840112,-2.693158 -1.840112,-3.892302 z M -113.259,53.742522 c 0,1.199143 1.21369,1.592305 1.8597,2.103415 1.25284,0.963246 0,1.651278 -1.33116,1.63162 -1.27242,0 -2.34909,0.294871 -3.09297,0.864956 -0.45023,0.31453 -1.58562,1.769227 -1.58562,2.496575 0,1.100853 2.30992,-2.162387 3.77811,-2.162387 0.88091,0 2.58399,0.845296 2.76018,1.494014 -2.07504,1.100852 -2.85806,1.395722 -3.73896,3.794008 -0.48941,1.317093 -1.17456,5.170077 -2.5057,5.170077 -0.86133,0 -0.92006,-1.651277 -1.48776,-1.808545 -0.27406,1.159832 0.78303,7.253834 0.21533,7.253834 -1.97715,0 -2.62313,-6.290586 -1.0375,-9.042719 0.45023,-0.786321 2.0163,-1.906834 2.0163,-2.830763 0,-0.982904 -1.56607,0.786323 -1.68352,0.923929 -0.97879,1.23846 -1.8597,2.457262 -2.46654,3.931614 -0.41109,0.982906 -0.31323,1.592304 -0.31323,2.909399 -0.60683,-0.884613 -1.0375,-2.693158 -1.0375,-4.108537 0,-1.710256 0.84176,-4.088883 1.35073,-5.366658 0.31321,-0.805982 0.58728,-1.572647 1.05708,-2.280339 0.72432,-1.061534 1.31159,0.334188 2.11418,0.412821 0.31322,-0.471793 0.21534,-0.570084 0.23493,-1.277775 0.0586,-2.516234 3.69981,-5.523922 4.89392,-5.523922 0.13704,0.570086 0,0.786324 0,1.415383 z m 17.539867,-7.529045 c 0.371923,-0.707691 1.037505,-0.589742 1.859687,-0.589742 0.665583,0 1.566064,0.275213 1.977161,0.550427 1.037517,0.668373 1.311578,3.007684 1.174529,3.951274 -0.137036,0.963246 -0.156647,1.906833 -0.841744,1.906833 -0.665583,0 0,-0.884613 0,-1.33675 0,-1.297434 -0.724307,-2.299996 -1.350728,-2.988028 -0.293635,-0.334187 -0.802607,-0.70769 -1.409453,-0.747006 -0.861331,-0.05897 -1.135392,-0.117943 -1.409452,-0.747008 z m -26.309797,8.511949 c -1.09623,0 0.19585,-4.698281 0.39152,-5.288025 0.33277,-1.002561 1.50732,-3.813666 2.7406,-3.813666 0.0196,0.294872 0.0782,0.176918 0.0782,0.373502 0,1.238459 -1.09625,3.440164 -1.48777,4.482043 -0.23491,0.668376 -0.56769,1.53333 -0.70471,2.280337 -0.11738,0.570084 -0.0391,0.707693 -0.27407,1.199144 -0.0979,0.19658 -0.46981,0.766665 -0.74387,0.766665 z m -1.54649,1.494014 0.11749,3.282901 c 0.37194,-0.393163 0.37194,-0.82564 1.13541,-0.82564 0.29362,1.277774 -2.13376,4.993151 -2.83849,5.799133 -0.17625,0.19658 -0.93962,1.061536 -0.646,1.336751 0.33279,0.314527 0.90049,-0.216241 1.07667,1.199142 0.19565,1.749567 -1.31158,2.575209 -1.31158,3.007686 0,0.511113 1.40946,-0.01966 1.40946,0.825643 0,1.847855 -4.8548,4.796567 -6.36211,5.543573 -3.66069,1.828202 -7.16474,2.417945 -11.84333,2.280338 -2.52527,-0.05899 -5.05055,-0.314529 -7.57581,-0.294868 -6.40127,0.09828 -7.86946,3.951272 -10.80581,7.882889 -0.5677,0.76666 -1.07667,1.395727 -1.6835,2.103408 -1.42904,1.611971 -2.44699,2.771792 -5.18759,2.771792 -0.76346,0 -1.938,-0.3735 -1.938,-1.041874 0,-0.805983 4.81564,-6.290586 5.59866,-7.057253 1.54649,-1.552987 5.03098,-5.799134 5.03098,-7.705967 v -0.747005 c 0,-1.376071 -1.37032,-3.02735 -2.07503,-3.833332 -3.19086,-3.695716 -10.27727,-1.985463 -14.23158,-1.199135 -1.33114,0.255553 -3.56278,0.766659 -4.60029,1.258119 -0.74387,0.373499 -1.37031,1.218796 0.19586,0.589736 1.52689,-0.589736 3.32786,-0.668374 4.99181,-0.884613 0.93964,-0.137607 1.68351,-0.275214 2.54484,-0.432475 1.58563,-0.255561 3.21043,-0.884619 4.99182,-0.884619 4.01303,0 6.6949,2.358969 6.6949,6.270932 0,2.358968 -1.99672,4.128193 -3.46491,5.622211 l -4.61987,4.541016 c -1.1354,1.140165 -2.25122,2.299999 -3.15169,3.636742 -0.4111,0.589744 -0.43067,0.943588 -0.17625,1.769232 0.9005,3.125635 5.4812,1.376065 7.02769,2.12307 -0.21532,0.78632 -4.71775,2.811106 -5.81398,2.417946 -1.37032,-0.511115 -4.07176,-2.712815 -4.07176,-4.442731 0,-0.982905 0.43066,-2.988029 0.29365,-3.282897 -0.92009,0.255553 -1.85972,2.673498 -1.91845,3.676056 -0.0391,0.471799 0.0782,1.474357 -0.2349,1.710263 -0.35235,0.157254 -1.09624,-1.631625 -1.17454,-2.182054 -0.54812,-3.577772 5.18756,-7.804257 7.61497,-9.789721 0.76344,-0.609405 3.44531,-2.732475 4.3458,-2.732475 -0.0589,0.609398 -1.03751,1.33675 -1.03751,2.162393 0,1.533326 4.22835,-4.462385 4.22835,-5.976057 v -0.452143 c 0,-1.218796 -1.56605,-2.535884 -2.8189,-2.535884 -0.48938,0 -1.03751,-0.01966 -1.48774,0.07864 0.0979,0.373506 1.50733,1.041881 1.938,1.631617 0.27403,0.373507 0.29362,0.766667 -0.23491,0.766667 -0.68517,0 -1.35073,-0.982905 -5.79442,-0.982905 -0.86135,0 -1.84013,0.07864 -2.64275,0.196585 -0.35236,0.05898 -0.8809,0.157267 -1.09623,0.31453 -0.39152,0.275206 -0.0782,0.393159 -0.82218,0.668366 -1.50734,0.57009 -4.0326,0.766673 -5.91188,0.766673 -0.7243,0 -1.80096,-0.196583 -1.93799,-0.747012 0.25448,-0.47179 1.03752,-0.629051 1.03752,-1.120511 0,-0.353844 -0.88093,-0.609398 -0.88093,-1.120504 0,-0.550429 0.21535,-0.825644 -0.17625,-1.179488 -0.0782,-0.05899 -1.31158,-0.786328 -1.31158,-0.31453 0,0.31453 0.21534,0.511113 0.21534,0.982904 0,0.70769 -0.74387,0.511114 -0.74387,1.415381 0,0.943589 1.35073,2.182045 1.91841,2.693158 0.60685,0.550422 2.13377,1.474357 3.21043,1.474357 h 0.82217 c 2.68188,0 6.20553,-3.282896 9.35722,-3.282896 1.19412,0 3.24958,0.117943 3.6215,1.297426 0.52855,1.690602 -2.29036,3.676064 -3.3866,4.462385 -3.19083,2.241023 -9.22016,6.565801 -9.22016,11.028186 0,3.499135 4.87436,7.017931 8.47629,7.017931 1.31156,0 4.30667,-0.412815 4.30667,0.982904 0,1.336747 -2.29037,2.811107 -2.99511,4.226487 -0.60684,1.2188 -0.8809,4.5017 -0.8809,6.36922 0.0196,1.98546 -0.33278,4.61965 -0.60684,6.60512 -0.15664,1.02222 -0.33281,2.14273 -0.56772,3.08631 -0.41107,1.51367 -0.68514,2.04445 -0.68514,3.73504 0,0.96325 0.76346,2.51623 1.37031,2.88974 0.84176,0.49144 2.38825,0.55042 3.69981,0.55042 h 12.25442 v -2.39829 c 0,-1.69059 0.0979,-3.24358 -1.09624,-3.83332 -0.58727,-0.29487 -3.21043,-1.02222 -3.876,-0.86496 0.0589,0.80599 1.25285,1.37608 1.938,1.553 0.92007,0.25554 2.38823,-0.21624 2.07502,3.75468 -0.68515,-0.19658 -0.90049,-1.72991 -1.5269,-0.11798 -0.11738,0.29488 -0.37195,0.74702 -0.4111,0.92394 -1.27241,0 -1.7618,-1.6906 -2.8189,-1.78889 -0.46981,0.86495 0.86133,2.8111 -5.2463,1.67093 -1.19413,-0.21624 -1.62479,-0.45214 -2.40781,-1.08121 -1.15497,-0.92392 -2.23165,-2.92904 -2.23165,-4.91451 0,-1.10085 0.50897,-1.71025 0.72431,-2.55555 0.74387,-2.75214 0.4894,-6.44785 0.52854,-9.37691 0.0391,-2.39828 0.46983,-3.63674 1.62479,-4.95383 3.79769,-4.364092 1.72267,-4.24614 3.89558,-6.015372 1.33114,-1.081189 0.66558,0.216239 0.41108,1.179488 -0.84176,3.302554 -1.03752,4.049564 -3.4649,6.447844 -0.46982,0.47179 -1.23327,1.14017 -1.42903,1.8282 -0.23492,0.78632 0,2.02478 0.15665,2.85042 0.11738,0.51111 0.39151,2.45726 0.58727,2.75214 0.27406,-1.17949 0.58728,-2.43761 0.92006,-3.61709 0.41108,-1.37606 0.54813,-2.18204 1.58564,-2.96837 0.45023,-0.35385 0.8809,-0.58974 1.37029,-0.86495 0.52855,-0.33419 0.80263,-0.62906 1.29201,-1.00257 0.64598,-0.51111 1.89885,-2.00512 1.89885,-2.889732 0,-0.884612 -1.7031,0.570082 -1.7031,-0.216238 0,-0.943589 3.17128,-3.911956 3.9543,-4.973492 1.11581,-1.494017 -0.15665,-0.629065 -1.21369,-0.629065 0,-0.845297 1.62478,-1.808541 2.4078,-2.280332 0.9788,-0.570089 1.99674,-0.982911 2.97552,-1.552995 0.21535,-0.137607 1.56606,-0.786319 0.8026,-0.86495 -1.40945,-0.157276 -4.61987,0.982904 -5.9706,0.668374 0.23492,-0.864958 4.01303,-1.828201 4.46327,-2.45726 -1.09623,0 -2.36866,0.452136 -3.71938,0.452136 0.41108,-0.609405 1.66394,-1.10085 1.72265,-1.788886 l -0.60684,-0.157276 c -0.0391,-0.196576 -0.0586,-0.137607 -0.0586,-0.294868 0,-1.435041 2.3491,-3.931618 3.46491,-4.423069 1.64437,-0.727345 4.56115,-1.258112 6.85152,-1.258112 1.48775,0 2.46653,0.45213 3.87598,0.45213 4.61987,0 10.5709,-1.395719 14.60351,-3.086321 1.05708,-0.452129 2.87764,-1.828194 4.11091,-1.828194 0.93964,0 1.1941,1.120504 2.30993,1.120504 0.7243,0 -0.19585,-1.238458 -0.21532,-1.57264 1.70309,0.393159 5.44205,6.192286 8.24137,7.234175 0.82219,0.294868 1.87926,0 2.38824,0.727343 0.43066,0.609398 -0.0392,1.199143 1.29201,1.847863 0.66557,0.31453 1.74222,0.570083 1.74222,1.454695 0,0.471791 -0.78302,0.432477 -1.19409,0.530769 0,0.904266 1.1158,1.67094 1.80095,1.926493 0.90047,0.353837 2.01631,0.157254 3.11254,0.589744 1.62479,0.648714 3.19085,3.420504 3.19085,4.344432 0,0.766667 -2.52527,-0.412815 -2.52527,1.336749 0,0.963251 0.17625,2.221363 0.29364,3.145296 0.2349,2.162377 -1.19413,6.762377 -1.7031,8.806817 -0.4698,1.8282 -0.86132,3.75469 -1.15497,5.77947 -0.21532,1.51367 -0.41108,2.92906 -0.90047,4.32478 -0.54813,1.57264 -1.99673,1.86752 4.79604,1.8282 1.09625,0 1.52692,0.35385 1.99674,0.98291 0.50896,0.66837 1.507339,2.83076 0.15665,3.4205 -0.70474,0.31452 -0.76345,-0.0786 -1.40947,-0.0786 -1.17453,0 -0.25447,1.94615 -1.19411,1.94615 -1.01794,0 -1.7814,-2.75213 -2.95593,-2.75213 -0.99837,0 -0.8222,1.71025 -0.8222,2.45726 0,1.1205 1.13541,1.15983 2.09461,1.06154 0.50899,-0.059 1.05708,0.0196 1.58564,-0.059 1.23328,-0.17691 3.19084,0.0394 3.934723,-1.04188 0.548133,-0.80597 0.861332,-1.94615 0.861332,-3.02734 0,-1.27777 -2.231635,-4.0299 -3.269155,-4.0299 -1.42902,0 -3.50405,-0.57009 -3.50405,-2.37864 0,-2.08375 2.05546,-12.05039 3.19084,-12.62048 0.46982,-0.21623 6.968978,0.0197 10.962425,-1.55299 2.955917,-1.14017 5.559511,-2.850418 8.456727,-4.029907 1.703086,-0.70769 2.897199,-1.022213 5.246289,-0.825635 4.600303,0.353851 5.657382,0.589743 8.515441,3.990592 0.548124,0.66837 2.486131,2.87007 3.464906,2.87007 0.50897,0 0.587275,-0.41281 0.587275,-0.82563 0,-0.8453 -1.331141,-2.41795 -1.781397,-2.968366 -0.626407,-0.766674 -1.644355,-1.847863 -2.153325,-2.634191 0.430665,-0.275214 1.213704,-1.238458 1.663938,-1.690594 0.489387,-0.491452 1.311572,-1.41538 1.311572,-2.260677 0,-1.258112 -1.42903,-5.405974 -1.918416,-6.290587 -0.567707,-1.02222 -0.959206,-1.533326 -2.055459,-2.044432 -1.291988,-0.609405 -5.402905,-0.982912 -6.753629,0.03932 -0.548123,0.412814 0.09784,1.435033 -0.430666,1.435033 -1.252835,0 -7.712839,-7.764943 -7.712839,-9.258954 0,-0.117943 0.430672,-0.196576 0.430672,-0.747005 0,-0.766666 -0.959218,-1.238457 -0.959218,-5.071782 0,-2.496576 0.900505,-2.221369 0.900505,-2.69316 0,-1.474357 -1.115817,-2.653841 -1.115817,-4.40341 0,-2.299995 1.115817,-4.246145 1.115817,-7.312806 0,-4.187171 -1.722687,-7.843575 -3.738997,-10.045278 -0.74387,-0.805982 -2.016287,-1.690596 -2.251197,-2.889737 -0.137049,-0.62906 -0.03925,-0.864957 -0.528547,-1.179487 -0.822181,-0.51111 -1.879286,-0.09828 -2.525269,0.353846 -0.548121,0.373505 -1.311578,1.474356 -1.957562,1.533331 0,-1.218801 1.87925,-2.496577 2.075011,-3.223926 -0.606834,0.01966 -1.898849,0.904272 -2.251221,1.258118 -0.822158,0.825638 -1.154967,1.72991 -1.154967,2.929053 0,1.100853 1.174554,1.395725 1.174554,2.535893 0,1.395723 -3.014654,1.513672 -4.091322,2.024782 -0.665584,0.31453 -1.057094,1.002561 -0.920054,2.04444 0.1175,0.845299 0.31321,1.985465 1.154965,1.985465 0.371935,0 0.254486,-0.688031 0.939619,-1.081195 0.508984,-0.294868 1.017955,-0.314527 1.487776,-0.58974 0.998356,-0.609401 0.313211,-0.70769 0.489385,-1.376065 0.156647,-0.629061 2.427395,-1.690597 2.427395,0.805981 0,1.002562 -0.900481,2.319652 -1.468189,2.771788 -0.939619,0.747008 -1.977125,1.552988 -1.879262,2.968371 0.05863,0.589743 0.293623,1.199142 0.234898,1.788886 0,1.140169 -0.724295,2.02478 -1.859687,2.02478 -1.42903,0 -2.89722,-0.727348 -2.89722,-2.02478 0,-1.199143 1.7814,-1.041878 1.7814,-2.083758 0,-1.297433 -5.87272,-0.904269 -5.87272,0.373505 0,0.589742 2.36866,0.688033 2.36866,1.788884 0,0.884614 -1.62479,1.946149 -2.66229,1.946149 -3.60195,0 -1.21371,-2.929051 -1.87929,-4.973494 -0.50895,-1.533329 -2.95593,-2.75213 -2.95593,-4.285461 0,-1.297432 2.38825,-1.729912 2.38825,-1.120511 0,0.353846 -0.23491,0.432478 -0.23491,0.668376 0,0.766665 0.99838,0.845297 1.58563,1.100852 1.27241,0.530767 0.90049,1.297432 1.38987,1.297432 1.37031,0 1.40946,-3.892299 0.66558,-3.892299 -0.19585,0 -0.41108,0.157274 -0.9592,0.157274 -1.25286,0 -4.09134,-1.435041 -4.09134,-2.398287 0,-0.294871 0.13705,-0.82564 -0.0783,-1.041878 -0.88089,-0.412819 -3.50405,0.334189 -4.26749,0.648716 -0.7439,0.294871 -3.15169,1.415383 -3.15169,2.123073 0,0.216238 0.21532,0.294872 0.43064,0.294872 1.40947,0 1.25287,-1.494015 3.26917,-1.494015 0.78302,0 2.01628,0.31453 2.01628,1.041879 0,1.277775 -1.03751,1.002561 -1.93797,1.552988 -0.68517,0.412819 -1.38988,0.884613 -1.97716,1.376067 -0.66558,0.550424 -3.09298,2.811105 -3.81727,2.811105 0,-1.33675 1.64436,-2.948714 1.64436,-4.698282 0,-1.356407 -0.29364,-1.454697 0.31321,-2.496575 0.39152,-0.648718 0.86133,-1.179486 1.37029,-1.690596 0.68517,-0.707691 2.54484,-2.221363 3.81728,-2.221363 1.56606,0 2.7406,0.688033 3.87599,1.474356 0.31321,0.216239 1.09625,0.884613 1.09625,0.157273 0,-2.4376 -2.93636,-2.535891 -4.81562,-3.951274 -0.62644,-0.471793 -0.9005,-1.336749 -1.87929,-1.336749 -0.80261,0 0.7243,1.828203 0.90048,2.162388 -0.48938,-0.01966 -1.38988,-0.412818 -1.99671,-0.550425 -0.68516,-0.157275 -1.42903,-0.196581 -2.25121,-0.275214 0.15665,-0.550424 1.17454,-0.589741 1.19411,-1.336749 -0.78304,0 -1.13537,0.648717 -1.56606,1.179485 -0.43066,0.530769 -0.78303,1.061537 -1.19411,1.631621 -1.42903,1.926491 -3.28873,5.071784 -3.66068,7.529045 -0.23491,1.592305 -0.25447,3.617087 -0.25447,5.405971 z"
         id="path15377" />
      <path
         inkscape:connector-curvature="0"
         style="fill:#ffffff;fill-opacity:1;fill-rule:evenodd;stroke:none;stroke-width:0.51872337"
         d="m -157.98957,109.49283 c 0.0391,-0.35383 0.25449,-0.43247 0.4894,-0.60939 2.19248,-1.59231 8.80907,-6.25127 10.64919,-6.25127 0.17625,0 0.45025,-0.0393 0.45025,0.15727 0,1.59231 -7.81073,6.7034 -11.58884,6.7034 z m 48.29335,16.72903 h -2.48611 c -2.23163,-0.0982 -3.7194,-0.68802 -3.73896,-4.0299 -0.0196,-2.10341 0.0979,-3.47948 0.13704,-5.44529 0.0589,-2.5359 -0.0392,-5.44529 -0.37195,-7.82392 l -0.88091,-5.03247 -10.78625,-0.5111 c -4.56115,-0.0983 -3.81727,0.23589 -5.73568,2.29999 -0.21534,0.21624 -0.50897,0.55043 -0.68515,0.78632 -0.56772,0.70769 -1.82055,1.61196 -1.82055,2.65384 0,1.04188 1.72267,4.18718 2.25123,4.91453 2.25118,3.06666 4.60028,2.8111 7.28216,3.36152 2.13377,0.43249 5.99016,1.96581 5.99016,4.63932 0,3.75468 -0.50895,4.18716 -4.15005,4.18716 h -6.65574 c -1.56607,-0.0394 -3.05382,-0.0982 -4.16963,-0.25555 -1.8597,-0.2359 -2.03589,-0.39316 -2.74061,-1.88717 -0.52856,-1.15984 -0.74388,-2.12308 -1.40946,-3.20427 -1.07667,-1.74957 -2.89721,-3.5188 -4.6786,-4.48205 -1.05709,-0.58974 -2.0163,-0.82564 -2.99509,-1.53332 -1.8597,-1.37607 -0.90049,-3.7547 -1.54649,-5.40598 -0.64599,-1.67093 -2.13373,-0.88461 -3.38659,-0.25555 -1.15498,0.58974 -2.91679,1.17948 -4.20879,1.51367 -3.91514,0.9829 -3.3866,1.29744 -4.67861,3.89229 -0.21532,0.41282 -1.74222,3.79401 -1.74222,4.01025 0,0.29488 1.23327,0.29488 1.6052,0.49146 0.66558,0.35385 0.52853,1.14017 0.0391,1.14017 -1.01793,0 -1.31157,-0.45214 -3.03423,0.0196 -1.01795,0.27522 -1.80098,0.82564 -2.83849,0.57008 -0.21533,-0.92393 0.37193,-1.35641 0.93964,-2.47692 0.60684,-1.2188 1.31158,-3.1846 1.72265,-4.54101 1.15498,-3.77435 1.11583,-4.40341 4.01303,-6.95897 l 2.6036,-2.00512 c 1.17453,-0.90427 2.36864,-1.78889 3.52361,-2.71281 1.31157,-1.06154 2.30993,-1.59231 3.95431,-2.319657 0.72429,-0.334185 1.50733,-0.550422 2.2512,-0.845298 1.38987,-0.589737 5.28545,-2.75213 5.28545,-4.029902 0,-1.04188 -0.86132,-0.314537 -1.17453,-0.452137 -0.86135,-0.334184 -0.92007,-5.268367 -0.68515,-5.602557 0.27406,-0.432477 1.21368,0.64872 1.85968,1.140172 4.28709,3.125635 14.11412,4.324778 19.75192,2.732475 0.68517,-0.196583 1.292,-0.452144 1.938,-0.747005 0.0979,-0.05899 2.03588,-1.022227 1.1354,-1.022227 -2.70144,0 -5.61825,1.356411 -7.28217,0.963251 0.0391,-0.412822 0.56769,-0.570091 0.92007,-0.707698 1.15496,-0.491445 2.27078,-0.786321 3.42575,-1.336742 1.33114,-0.609405 3.19083,-1.35641 3.81726,-2.575214 -1.19412,0 -4.30667,1.631624 -6.53831,1.631624 -0.19585,0 -0.27406,-0.09829 -0.37193,-0.216237 0.0979,-0.373506 0.52853,-0.33419 0.95921,-0.373506 1.29201,-0.157276 3.01466,-1.710256 3.91515,-2.437607 0.45024,-0.353838 0.92006,-0.845297 1.3703,-1.140165 l 7.06685,5.150421 c -1.38988,0 -3.95429,-1.002566 -5.12884,-0.668376 -0.13705,0.668376 0.78303,1.926488 1.19411,2.35897 1.37032,1.395719 2.60356,2.162385 4.54157,2.771791 l 2.87764,0.746997 -3.52363,3.32222 c -0.8222,0.629059 -2.85806,2.653837 -2.85806,3.931617 0,1.00256 0.17625,1.23846 0.27406,2.10342 0.13704,1.23845 0.17625,3.20426 0.27406,3.91195 0.0979,0.64872 -0.0196,1.37607 0.0589,2.02479 0.21534,1.57264 -0.13705,7.05725 0.7243,7.62734 0.99838,-0.72736 1.2137,-10.59571 1.70308,-12.7581 0.27408,0.3735 0.21535,2.6735 0.97881,2.6735 0.70472,0 0.58727,-0.90428 0.58727,-1.553 l 0.0782,-2.77178 c 0.0196,-0.45214 -0.0782,-0.94359 0.29364,-1.04188 0.0392,0.35385 0.23491,0.92393 0.31321,1.41539 0.23491,1.47434 0.43067,3.06665 0.43067,4.6393 0,3.53845 -0.45025,3.49914 -0.8026,6.13332 -0.25449,2.02479 -0.0392,3.63675 -1.2137,4.81623 -0.52855,0.51111 -0.92006,1.10085 -1.07667,1.98546 -0.54813,3.16496 1.64435,2.04444 3.17127,2.73248 0.52854,0.2359 1.42904,0.82564 1.48775,1.49401 -0.31321,0.31452 -0.74388,0.3735 -1.35072,0.3735 z m -27.1907,-16.19826 c 0,2.31966 1.64438,4.30513 2.83848,5.50427 0.97878,0.9829 3.62153,3.51879 5.10927,3.51879 0.62643,0 1.07666,-0.9829 1.48776,-0.747 0.35235,0.0982 0.25449,0.33419 0.50896,0.62906 0.92007,1.02221 2.30995,-0.94359 3.99346,1.65127 0.72429,1.10085 1.07665,1.59231 1.07665,2.94872 0,0.39316 -0.4698,0.45212 -0.74387,0.45212 -0.86133,0 -0.27406,-2.16237 -1.33114,-2.16237 -1.1354,0 -0.37196,2.83076 -1.27242,2.83076 -0.93965,0 -2.99511,-2.5359 -3.7977,-3.06666 0,0.70769 0.0782,1.45469 -0.0196,2.14273 -0.15664,1.10085 0.21535,3.10597 -3.2887,-0.29488 -0.56771,-0.53077 -2.17291,-1.74957 -2.17291,-2.51623 0,-1.19914 3.46489,-1.45469 0.21533,-2.77178 -2.21205,-0.90428 -1.60521,-1.6906 -2.60357,-1.98547 -0.52856,-0.17692 -1.44862,-0.19659 -2.07505,-0.2359 0.13705,-0.57009 1.03754,-0.66837 1.19414,-1.19914 -0.31321,-0.13761 -1.48776,-0.21624 -1.938,-0.21624 0.0391,-0.58974 0.95921,-0.6094 1.11582,-1.19914 -0.60685,-0.31453 -1.95758,-0.0197 -2.52528,-0.29488 0.15663,-0.60939 1.84013,-1.33674 1.99673,-1.94614 l -2.07503,-0.19659 c 0.13703,-0.58974 1.84012,-1.25811 1.99673,-1.96581 -0.64602,-0.15725 -2.25122,-0.21623 -3.03425,-0.21623 l 3.42575,-2.14273 -4.16963,0.747 4.16963,-3.59742 c -0.52855,0.0197 -2.72102,1.00256 -3.79769,1.25811 0.17626,-0.76667 1.8597,-1.90683 1.91843,-2.61452 l -1.54649,0.39316 c 0,-0.55043 0.60685,-0.96325 0.90049,-1.27778 0.80261,-0.80598 2.64271,-2.614519 3.62151,-2.850417 0.66559,0.570082 0.9788,1.769227 1.23327,2.791447 0.15665,0.57008 0.62642,3.06666 0.78303,3.32221 l 0.17626,-5.89742 c 1.82055,0.412821 2.27079,1.159827 5.89229,1.67093 1.1354,0.15728 2.17292,0.27522 3.52365,0.27522 4.52198,0 3.48446,1.27778 1.54647,1.27778 -1.48776,0 -1.91843,-0.0786 -3.32787,-0.15728 -0.93965,-0.059 -3.73898,-0.55043 -4.48285,-0.0197 -0.54813,0.39316 -0.58728,1.00256 -0.90049,1.63163 -0.29364,0.6094 -0.60685,1.06153 -0.95922,1.5923 -0.95921,1.41538 -2.66229,2.57521 -2.66229,4.93418 z m 14.42731,-10.831594 c 0.52855,-0.452136 6.02934,-2.653845 7.04729,-2.673498 -0.74388,1.120504 -3.50407,2.044439 -4.95268,2.319653 -0.45023,0.0983 -1.66393,0.353845 -2.09461,0.353845 z m -2.68187,-1.415387 -1.33115,-0.216238 c 2.32951,-0.550422 4.89393,-1.41538 7.24304,-2.123077 0.78302,-0.235892 1.70307,-0.570076 2.62313,-0.570076 -0.54811,0.825636 -2.60357,1.65128 -3.69981,2.024779 -0.84176,0.294875 -3.69981,0.982904 -4.83521,0.884612 z m -3.42575,-1.49401 c -1.2137,0 -6.40128,-0.864959 -6.6166,-1.631625 2.83849,-0.668375 5.12884,1.297441 12.13695,-0.747005 0.86133,-0.255554 1.68353,-0.491453 2.56443,-0.766667 0.48939,-0.176915 2.23164,-0.805982 2.62315,-0.805982 -0.29362,1.258119 -3.34745,2.437606 -4.48284,2.811112 -1.48776,0.491446 -4.32625,1.140167 -6.22509,1.140167 z"
         id="path15379" />
      <path
         inkscape:connector-curvature="0"
         style="fill:#ffffff;fill-opacity:1;fill-rule:evenodd;stroke:none;stroke-width:0.51872337"
         d="m -134.49868,56.73055 c 0,-0.609401 1.78138,0 1.78138,1.356408 0,0.786323 -1.78138,-0.648717 -1.78138,-1.356408 z m -5.12885,-44.25034 h 0.70473 c 0.72429,0.07864 1.48775,0.412819 2.05546,1.100854 0.35237,0.471792 0.74387,1.670935 1.46819,1.670935 0.29362,0 0,-0.117943 0.45023,-0.157274 0.15665,0.334188 0.0782,0.825639 0.0782,1.33675 0,1.729913 6.87109,9.888015 8.18266,11.401686 1.97716,2.260681 4.77648,5.681186 6.63618,8.059813 0.46982,0.589743 1.8597,2.162389 1.66393,3.007688 -0.15664,0.03931 -0.15664,0.07864 -0.37194,0.07864 -1.42903,0 -9.53337,-9.868356 -11.39307,-12.07006 l -2.17291,-2.437608 c -0.41109,-0.393164 -0.70473,-0.766665 -1.11582,-1.179486 -0.54812,-0.550426 -1.82055,-1.887175 -2.36867,-2.280338 -0.46983,-0.334187 -1.19413,0.05897 -1.7031,0.255555 -2.72102,0.982904 -6.63618,3.164952 -9.29847,4.599991 -1.46817,0.786325 -4.48283,2.614524 -5.7161,3.577772 -1.27243,1.022221 -4.16965,3.105977 -4.54159,4.717939 -0.37194,1.611964 1.01794,2.221363 1.01794,3.400849 0,3.204266 -16.60023,9.966645 -17.0309,11.55895 0.80263,0.176918 2.46654,-0.747006 2.46654,-0.13761 0,0.432478 -1.01792,1.061537 -0.82217,1.474356 0.21534,0.31453 0.4894,0.03931 0.88091,0.31453 0.35237,0.275214 0.23491,0.373505 0.35237,0.845298 0.13704,0.648716 1.44859,2.182046 1.89885,2.712813 l 5.34416,6.270933 c 0.7439,0.864956 1.38988,1.729911 2.13377,2.575209 l 2.13374,2.476916 c 1.19414,1.513672 2.05546,1.985466 3.24958,3.754693 0.62643,0.923935 0.25449,1.35641 0.93964,1.35641 0.93963,0 1.03752,-0.03932 1.97716,-0.275213 2.54484,-0.648722 -0.58728,0.923927 -1.07667,1.847855 1.21368,0 9.53337,-4.403406 10.82538,-5.170073 l 2.54484,-1.474351 c 0.99837,-0.550429 3.89557,-2.457264 4.73733,-3.223929 0.43066,-0.393162 1.68353,-1.63162 1.74225,-2.221362 -0.54813,0 -0.78304,0.294872 -1.42904,0.294872 -0.46982,0 -0.0589,-0.845298 -0.0589,-1.120511 0,-0.609401 -0.74389,-1.631621 -1.09625,-1.965809 -2.07503,-1.788885 -1.35073,-2.14273 0.0196,-3.8923 0.21535,-0.255555 1.40946,-1.631622 1.58564,-1.749569 -0.13704,0.570085 -2.07502,3.26324 -2.15332,4.167513 0.80259,-0.01967 2.30992,-1.690594 2.8972,-2.162389 0.90049,-0.688033 1.50734,-1.33675 2.74061,-2.24102 0.97879,-0.72735 1.95757,-1.376067 3.03423,-2.024782 0.95923,-0.589744 2.3491,-1.474358 3.52364,-1.474358 0.1175,0.629059 -1.46818,1.454699 -1.95757,1.769227 -0.78304,0.511109 -1.64435,0.904272 -2.46654,1.415382 -0.90048,0.530769 -4.05218,2.575209 -4.05218,3.676061 0,1.100853 1.938,1.867519 1.938,3.735037 0,1.847859 -2.83849,4.40341 -4.07177,5.248706 -1.84011,1.297436 -3.71938,2.457259 -5.65737,3.636743 -1.58564,0.943587 -10.72751,6.329907 -12.19569,6.329907 -0.50898,0 -20.73071,-24.533289 -20.73071,-25.437558 0,-0.747007 7.41921,-4.541018 8.57417,-5.13076 1.50733,-0.766665 2.93637,-1.611962 4.3654,-2.45726 4.2675,-2.55555 3.19084,-3.676062 3.03423,-6.44785 -0.23494,-3.970933 12.45015,-10.359809 15.3082,-11.853824 0.84177,-0.452134 5.40291,-2.771788 5.55951,-3.361532 -0.39151,-0.550426 -1.01793,0.13761 -1.6052,0.03931 -0.68515,-0.117943 -0.4111,-0.884615 -0.68515,-1.395725 -0.39152,-0.727349 -0.46982,-0.609398 -1.15496,-0.982903 -0.93965,-0.511111 -1.09626,-1.611964 -0.56771,-1.611964 0.48941,0 1.19412,1.041879 1.938,1.041879 0.45023,0 0.9788,-0.373502 0.9788,-0.82564 0,-0.668374 -2.97553,-0.70769 -2.97553,-1.946149 0,-0.530769 0.646,-0.943587 1.48776,-1.041878 z"
         id="path15381" />
      <path
         inkscape:connector-curvature="0"
         style="fill:#ffffff;fill-opacity:1;fill-rule:evenodd;stroke:none;stroke-width:0.51872337"
         d="m -153.15436,56.73055 c 0.39152,-0.19658 2.11418,-1.631621 2.64271,-2.024783 1.15497,-0.864956 1.7814,-1.435039 3.21043,-0.511109 0.70473,0.452135 1.91841,1.552988 2.56443,2.142731 3.21041,3.086318 1.6835,3.400848 -1.17455,4.619648 -0.99836,0.412819 -2.15332,1.179484 -2.97552,1.788886 -0.58727,0.412819 -2.09458,1.651279 -2.54484,2.142732 -0.56769,0.629057 -1.91841,1.965806 -1.35073,3.125634 0.92006,0.216237 2.48613,-0.747008 3.3083,-1.159828 1.07668,-0.530768 2.09461,-0.963243 3.17128,-1.513672 3.28871,-1.651279 3.7977,-0.235894 4.40453,-4.894861 l 0.4111,-4.226488 c 0.0196,-1.946149 0.2349,-2.476918 -0.72431,-3.833325 -0.76344,-1.120511 -2.38823,-2.752133 -3.93472,-3.066662 -0.78303,-0.13761 -1.35073,0.137608 -2.19247,0.117943 -1.97716,-0.05897 0.50896,-3.381189 -2.83848,-6.487165 -1.91844,-1.788886 -5.08969,-1.120511 -6.67533,0.491451 -1.54649,1.552989 -2.27081,3.951274 -3.05382,6.270928 -0.39152,1.2188 -0.82219,2.437602 -0.2545,3.794008 0.2545,0.550427 1.68353,2.614526 1.23327,3.302559 -0.23489,0.491453 -1.23327,0.353845 -0.86132,1.828202 0.17626,0.668374 0.7243,1.415381 1.23327,1.690594 0.90048,0.432479 1.31158,-0.511111 1.91842,-0.70769 0.84176,-0.294872 1.48775,0.629059 1.8597,1.02222 0.80261,0.845298 1.97715,2.221364 2.11419,3.695719 0.11737,1.33675 0.90048,0.235899 1.38987,-0.157273 0.50896,-0.41282 0.9788,-1.041879 1.29201,-1.670936 0.48938,-1.02222 0.25447,-1.336749 -0.19586,-2.162389 -0.78303,-1.454698 -2.62314,-3.754693 -3.69984,-5.1111 -0.92005,-1.179486 -4.93307,-5.720502 -5.34416,-6.329903 0.31321,-0.471794 2.48612,-2.182046 3.68024,-2.437601 1.91842,-0.43248 3.24956,0.864954 4.18921,1.769227 0.8809,0.884612 1.89884,2.575208 1.38987,4.521357 -0.50897,2.024784 -2.03587,3.361532 -2.19248,3.970933 z"
         id="path15383" />
      <path
         inkscape:connector-curvature="0"
         style="fill:#ffffff;fill-opacity:1;fill-rule:evenodd;stroke:none;stroke-width:0.51872337"
         d="m -144.83467,36.069907 v 0.747009 c 0,4.246143 4.36539,11.480316 9.65084,11.480316 5.22673,0 6.18594,-0.70769 8.98526,-3.970931 1.50733,-1.749568 1.48777,-2.280337 1.42903,-4.38375 -0.0392,-0.884616 -0.43067,-4.403413 -1.35073,-4.619651 -0.97879,0.668375 0.17625,2.988029 -1.74224,5.543578 -0.68514,0.923932 -2.87763,3.027344 -4.3458,3.027344 -1.91843,0 -3.40619,-0.294869 -5.0897,-0.923929 -1.76183,-0.688032 -1.99672,-0.943587 -3.21042,-2.142731 -1.11582,-1.100853 -2.46654,-3.479478 -2.83848,-5.130759 -0.13704,-0.629057 -0.0979,-1.985465 -0.29365,-2.398285 -0.56768,0.157254 -1.19411,1.887176 -1.19411,2.771789 z"
         id="path15385" />
      <path
         inkscape:connector-curvature="0"
         style="fill:#ffffff;fill-opacity:1;fill-rule:evenodd;stroke:none;stroke-width:0.51872337"
         d="m -138.82493,24.432323 c 0,0.471793 1.07668,1.179486 -2.79932,2.339312 -1.74225,0.511109 -5.48121,1.611962 -6.87109,2.575208 -2.87762,1.965807 -1.27242,7.312806 1.09625,7.48973 0.37193,0.03931 0.93963,0.03931 0.78302,-0.393162 -0.21533,-0.668375 -1.03752,-1.02222 -1.03752,-1.867518 0,-1.041879 2.95595,-2.516234 3.85642,-2.909397 2.48613,-1.120511 7.77158,-2.280337 9.02443,-4.599991 1.54647,-2.889737 -4.05219,-4.364092 -4.05219,-2.634182 z"
         id="path15387" />
      <path
         inkscape:connector-curvature="0"
         style="fill:#ffffff;fill-opacity:1;fill-rule:evenodd;stroke:none;stroke-width:0.51872337"
         d="m -102.41404,37.937424 c -0.99835,0 -3.03425,-1.611961 -3.03425,-0.90427 0,0.530768 2.36868,2.04444 2.36868,3.951275 0,3.282897 -0.95921,3.145293 -0.95921,5.150415 0,1.395723 2.25119,0.196581 3.77812,0.157256 1.840111,-0.05898 1.487739,-0.825641 1.761799,-1.592306 0.665583,-1.887174 2.779768,-3.145291 2.779768,-4.010247 0,-0.275214 -0.156647,-0.216239 -0.528546,-0.216239 -1.370315,0 -1.585639,1.828202 -2.44697,1.415381 -0.489397,-0.294872 -0.03925,-1.769226 1.037505,-2.398286 0.391522,-0.216239 0.900493,-0.432478 1.487776,-0.452135 0.783008,-0.01966 1.21368,0.05897 1.722651,-0.294872 -0.195857,-0.845296 -0.959206,-1.041878 -1.800962,-1.041878 -1.800975,0 -4.404541,2.142731 -5.109281,4.108538 -0.21532,0.550426 -0.48938,2.024784 -0.74388,2.398287 0,-1.906833 -0.33278,-3.636745 1.23329,-5.405972 1.311557,-1.454698 2.21205,-1.926494 4.404523,-2.437603 -0.411073,-0.550424 -2.486108,-0.01966 -3.190828,0.294871 -0.900505,0.412822 -1.840125,1.277775 -2.760185,1.277775 z"
         id="path15389" />
      <path
         inkscape:connector-curvature="0"
         style="fill:#ffffff;fill-opacity:1;fill-rule:evenodd;stroke:none;stroke-width:0.51872337"
         d="m -140.97825,34.20239 c 0,1.041878 0.46982,1.552988 1.37031,2.516234 l 5.10926,5.170076 c 0.15664,-0.117943 1.54649,-2.614526 1.54649,-3.361532 0,-1.140168 -2.30995,-3.263241 -3.01468,-3.970934 -0.60684,-0.609399 -1.11582,-1.179483 -1.72265,-1.788885 -0.43068,-0.432478 -1.37032,-1.494013 -1.80097,-1.769226 -0.27406,0.511109 -1.48776,2.65384 -1.48776,3.204267 z"
         id="path15391" />
      <path
         inkscape:connector-curvature="0"
         style="fill:#ffffff;fill-opacity:1;fill-rule:evenodd;stroke:none;stroke-width:0.51872337"
         d="m -110.06816,38.369903 v 0.314527 c 0.54812,0.117943 1.33117,0.334189 1.87927,0.511111 0.68515,0.21624 1.15496,0.373505 1.46818,0.982905 -0.56769,0.648716 -1.13538,0.629058 -2.23163,0.589741 l -3.69981,-0.294869 c 0.37193,0.511111 3.60194,0.629057 5.3246,3.06666 0.66558,0.943587 0.74388,2.96837 2.19248,0.530768 1.58563,-2.634182 -0.23492,-6.290586 -2.91678,-6.290586 -0.90049,0 -1.40946,0.452136 -2.01631,0.589743 z"
         id="path15393" />
      <path
         inkscape:connector-curvature="0"
         style="fill:#ffffff;fill-opacity:1;fill-rule:evenodd;stroke:none;stroke-width:0.51872337"
         d="m -167.79702,49.869879 c 0,1.081195 0.54812,1.867518 1.2137,2.594866 0.54812,0.609402 1.42903,0.982907 2.58399,0.982907 -0.0783,-0.825641 -1.85969,-0.923932 -1.85969,-2.241024 0,-0.845297 1.29201,0.07864 3.32788,-1.808543 0.45024,-0.412818 0.82219,-0.805981 1.17453,-1.33675 0.43068,-0.629057 0.80262,-1.749568 0.27406,-1.72991 -0.52854,0.01966 -0.52854,1.277775 -3.73896,1.376066 -1.37029,0.03931 -2.97551,0.845298 -2.97551,2.162388 z"
         id="path15395" />
      <path
         inkscape:connector-curvature="0"
         style="fill:#ffffff;fill-opacity:1;fill-rule:evenodd;stroke:none;stroke-width:0.51872337"
         d="m -148.76941,43.304081 c 0,1.395723 6.18595,7.234174 6.46002,7.312806 0,-0.688033 -0.17626,-1.415381 -0.41111,-1.906834 -0.50896,-1.120511 -0.92006,-0.550427 -1.42903,-0.884614 -0.56769,-0.353844 -0.0782,-1.415381 -0.52854,-1.769226 -0.54813,-0.41282 -1.64436,0.688033 -1.64436,-0.216239 0,-0.805983 0.29364,-1.022221 0.29364,-1.946152 0,-0.648715 -1.07667,0.62906 -1.6248,0.688034 -0.31321,-0.648716 0.0979,-1.651279 -0.74386,-1.651279 -0.17626,0 -0.37196,0.19658 -0.37196,0.373504 z"
         id="path15397" />
      <path
         inkscape:connector-curvature="0"
         style="fill:#ffffff;fill-opacity:1;fill-rule:evenodd;stroke:none;stroke-width:0.51872337"
         d="m -134.12674,33.160512 c 0,0.70769 0.43065,1.494013 1.09623,1.494013 h 0.52856 c 1.29199,0 2.99508,-2.162389 -0.0979,-2.830765 -1.11584,-0.235897 -1.52693,0.196582 -1.52693,1.336752 z"
         id="path15399" />
      <path
         inkscape:connector-curvature="0"
         style="fill:#ffffff;fill-opacity:1;fill-rule:evenodd;stroke:none;stroke-width:0.51872337"
         d="m -115.25571,39.43144 c 0,1.435038 4.73732,-1.65128 4.81563,-2.614524 -0.86136,0.01966 -4.81563,2.083755 -4.81563,2.614524 z"
         id="path15401" />
      <path
         inkscape:connector-curvature="0"
         style="fill:#ffffff;fill-opacity:1;fill-rule:evenodd;stroke:none;stroke-width:0.51872337"
         d="m -151.97982,30.093849 -2.27079,1.96581 c -0.74385,0.70769 -1.72266,1.631621 -1.50734,2.594866 0.2545,-0.07864 3.62152,-4.324779 3.77813,-4.560676 z"
         id="path15403" />
      <path
         inkscape:connector-curvature="0"
         style="fill:#ffffff;fill-opacity:1;fill-rule:evenodd;stroke:none;stroke-width:0.51872337"
         d="m -123.14475,86.296303 c 0.76346,-0.176923 1.99672,-1.88717 2.09461,-2.241023 -0.35236,0.09828 -2.0359,1.474357 -2.17291,1.847863 -0.0782,0.176915 -0.0196,0.196577 0.0782,0.39316 z"
         id="path15405" />
      <path
         inkscape:connector-curvature="0"
         style="fill:#ffffff;fill-opacity:1;fill-rule:evenodd;stroke:none;stroke-width:0.51872337"
         d="m -151.97982,30.093849 h 0.0782 l -0.0589,-0.07864 z"
         id="path15407" />
      <path
         inkscape:connector-curvature="0"
         style="fill:#ffffff;fill-opacity:1;fill-rule:evenodd;stroke:none;stroke-width:0.51872337"
         d="m -153.15436,56.73055 h -0.0783 l 0.0589,0.0983 z"
         id="path15409" />
    </g>
    <path
       id="path15543"
       d="m 18.39811,295.46181 c -0.558083,0 -2.019012,0.22937 -2.006084,-0.39381 0.01509,-0.63616 1.488941,-0.38516 1.98669,-0.38516 z m -2.327143,-3.58979 c -0.181001,0.35271 -0.415869,0.70758 -0.594713,1.09274 l 2.913239,0.0476 -0.0022,0.66429 h -1.639776 c -1.422143,0 -2.040559,1.46924 -1.146334,2.43213 0.670132,0.7184 2.820586,0.43495 3.951834,0.43495 l 0.0237,-0.37868 c 0.146524,-4.6176 0.0668,-4.35146 -3.505799,-4.29303 z m 11.827495,1.1014 c 0.152988,-0.43709 0.368464,-0.58207 0.519296,-1.08192 -1.519107,0 -3.643704,-0.39165 -3.99493,1.02133 -0.568858,2.27635 2.378859,1.8003 2.880919,1.90199 0.163761,0.90449 -0.680906,0.62103 -2.678371,0.62103 l 0.03663,1.10788 c 1.566511,0 3.47994,0.38083 3.783763,-1.10355 0.159452,-0.77682 -0.215479,-1.38918 -0.730466,-1.64234 -0.633499,-0.3116 -1.547119,-0.0434 -2.163381,-0.2337 -0.08834,-0.8439 0.616262,-0.59072 2.346539,-0.59072 z m -4.443121,0 c 0.325366,-0.17312 0.642119,-0.78115 0.676595,-1.08192 -1.577288,0 -3.600611,-0.39598 -3.953991,0.98887 -0.594714,2.33477 2.396096,1.77649 2.889537,1.98639 l -0.04956,0.45657 c -0.588251,0.31376 -1.896193,0.0519 -2.643893,0.14498 l 0.02155,1.06027 2.258191,0.0152 c 1.906965,0 1.982382,-2.23091 0.771405,-2.7632 -0.642119,-0.2813 -2.124596,0.13632 -2.161228,-0.44142 -0.03663,-0.56043 1.277777,-0.36569 2.191395,-0.36569 z m -11.155207,0.002 c 0.118512,0.12123 0.152989,-0.21423 0.142213,0.77681 l -0.0022,2.71777 h 1.053678 l -0.04956,-2.71777 c -0.01087,-0.99968 0.02369,-0.65563 0.140059,-0.77681 l 1.185119,-0.004 0.562393,-1.08842 -4.548704,-0.0152 -0.02153,1.0754 z"
       style="fill:#ffffff;fill-opacity:1;stroke:none;stroke-width:0.05709749"
       inkscape:connector-curvature="0" />
    <path
       id="path16187"
       d="m 21.985896,282.0691 c 0.453817,0.15183 0.631853,1.08556 0.635344,1.44781 0.0059,0.58427 0.01048,1.2106 -0.01398,1.79253 -0.04072,0.95936 -1.530179,1.64646 -1.939779,1.66515 l -0.0291,0.10164 c 0.07912,0.10514 0.292072,0.47326 0.335128,0.62984 0.321162,0.33071 0.396799,1.40925 1.729162,1.53195 l 0.0024,0.60531 c -0.779637,0.10751 -2.245818,0.0292 -2.905598,-0.34707 -0.100071,-0.0537 -0.267636,-0.19164 -0.330472,-0.25708 -0.08378,-0.0864 -0.195492,-0.25941 -0.279273,-0.33186 l -0.714472,-1.43144 c -0.1792,-0.34004 -0.361891,-0.65789 -0.612073,-0.95236 -0.03026,-0.0362 -0.09076,-0.10514 -0.122178,-0.13675 -0.04306,-0.0421 -0.04421,-0.0362 -0.08028,-0.07 -0.07215,-0.0713 -0.03724,-0.0386 -0.05352,-0.0713 -0.281599,-0.11213 -0.352581,-0.24657 -0.759853,-0.30382 l -0.0035,-0.60764 c 1.127563,-0.0164 1.057744,0.0923 2.495998,-0.0268 0.74938,-0.0947 1.524362,-0.28279 2.105016,-0.60414 0.957671,-0.52934 0.02211,-0.88106 -0.731926,-1.15098 -0.582982,-0.208 -1.003055,-0.30499 -1.602326,-0.40665 -0.240873,-0.0421 -0.238545,-0.17296 -0.337455,-0.36925 -0.202472,-0.40316 -0.80989,-1.50042 -0.922763,-1.78786 1.001891,-0.006 3.403634,0.36341 4.23447,1.12062 z"
       style="fill:#ffffff;fill-opacity:1;stroke:#ffffff;stroke-width:0.03083434;stroke-opacity:1"
       inkscape:connector-curvature="0" />
  </g>
</svg>
