<svg xmlns="http://www.w3.org/2000/svg" width="188.65" height="53.72" viewBox="0 0 188.65 53.72">
  <title>лого партнеров для сайта</title>
  <g>
    <path d="M37.83,37.64c.74,0,2.81-1,3.58-1,0,.3-1.09.78-1.37.91a5.88,5.88,0,0,1-2.36.38c-.37,0-1.1-.11-1.1-.44s1.31-1.36,1.64-1.36-.28.72-.32.78-.55.76-.07.76Zm-1.43-3.8c-.43,0-.43-1.13-.07-1.13.2,0,.38.32.42.53S36.61,33.84,36.39,33.84ZM47.56,33c.34.23,1.29,2.41.46,2.41-.08-1-.29.3-1.74.3-.25,0-.51,0-.51-.26s.48-.08.48-.51c0-.2-.36,0-.42,0a1.1,1.1,0,0,1-.77.18c-.43,0-.8-.51-.29-.66.14,0,.28,0,.42-.07-.06-.22-.87-.3-.87-.56s1.82-2.13,2.13-1c.08.26,0,.56.24.56.1,0,0-.05.15-.05s.13.27.17.39.3.25.47.25C47.93,33.94,47.47,33.15,47.56,33Zm-5-.39v.07c.79,0,.81.12.81.7,0,1.3-1.89,2.53-3,2.87a3.15,3.15,0,0,1-1.64.16,8.38,8.38,0,0,1,1.62-1A8,8,0,0,0,42,34.27c-.42,0-1.52.85-2.32.85,0-.47,2.66-1.41,2.66-1.77,0-.2-.65-.18-.69-.37.86,0,.73-.47-.28-.12a2,2,0,0,1-.79.18c0-.33.75-2.14.84-2.54A5.86,5.86,0,0,1,43,32.29c0,.11-.33.26-.43.28Zm-4.45.51c-.09,0-.07-.05-.07-.16,0-.49.88-2.06,1.43-2.18A3.73,3.73,0,0,1,39,32.11C38.9,32.34,38.41,33.09,38.13,33.09ZM40.23,30c0,.22,0,.56.08.82s.31,1.14,0,1.14-.63-1.6-.1-2Zm-5.65.54c.4,0,1.14,1,1.14,1.8a1.06,1.06,0,0,1-.29.76,1.58,1.58,0,0,1-.71.34c-.14,0-.18-.19-.16-.29.1-.42.63.19.63-1.07C35.19,31.37,34.59,31,34.58,30.52Zm2.22,1.33a3.65,3.65,0,0,1,.53-1.39c.05-.1.91-1.51.91-.94a2,2,0,0,1-.37.89,6.84,6.84,0,0,0-.67,1.89C37,32.88,36.8,32.21,36.8,31.86Zm-.31-2.56c0,1-.81-.22-.81,0a6,6,0,0,1,.56,1.9c0,.11,0,.36-.13.36a3.25,3.25,0,0,1-1-2.27c.13-1,.4-.88.54-2a1.64,1.64,0,0,1,.17-.68,5.54,5.54,0,0,1,2,2.06c0,.21,0,.51-.29.55a.72.72,0,0,1-.48-.22c-.18-.16-.57-.71-.65-.77C36.34,28.62,36.49,28.93,36.49,29.29Zm4.69-2a.43.43,0,0,1,.06-.24,1.11,1.11,0,0,1,.07,1.58,3.11,3.11,0,0,1-.53.6c0-.27-.05-1.2.15-1.2s.15.07.23.07.05-.55,0-.82Zm-7,3.36a1.15,1.15,0,0,0,.22.83,1.1,1.1,0,0,1,0,.87c-.26,0-.48-.5-.55-.74a7.32,7.32,0,0,1,.2-3.41,5.53,5.53,0,0,0,.48-1.45c0-.78.48-.53.48.36s-.34.8-.57,1.61a7.27,7.27,0,0,0-.28,1.93Zm2.89-3.87a1.89,1.89,0,0,1,.47.09c.42.06,0-.69,1,.16a13.14,13.14,0,0,1,1.42,1.26c.09.14.09.3-.09.3s-.47-.32-.69-.33a3,3,0,0,0,.25.75c.06.15.44,1,0,1-.1,0-.11-.11-.13-.2-.18-.7-2.18-2.6-2.19-3.08ZM33.1,29l.13,1.16a1,1,0,0,1-.8,1c-.18,0-.36,0-.36-.23,0-.43.5.09.46-.74,0-.32-.06-.37-.05-.74A6.46,6.46,0,0,1,33,27.26c.15-.37.71-1.57,1.14-1.57s.26.31.26.51a3.25,3.25,0,0,1-.58,1.47c-.26.37-.75.73-.75,1.3Zm5.06-3.77c0-.47,0-1.14.41-1.36.42.22-.12.54.67,1.41.19.2.36.32.55.5s.44.35.44.61a3.21,3.21,0,0,1-1.31-.2c0,.17,1.2.88,1.23,1.23a2.72,2.72,0,0,1-1.37-.7A2.38,2.38,0,0,1,38.16,25.21ZM36,24.57c.36,0,1.4.06,1.4.36a1,1,0,0,1-.55.72c-.18.05-.37,0-.47.17s0,.37-.28.37-.22-.12-.26-.3-.21-.05-.36-.07a1.37,1.37,0,0,1-.69-.49c-.26-.32-.28-.49.18-.62A4.09,4.09,0,0,1,36,24.57Zm-4.37,3.93c0,.68.36.49.36.9,0,.22-.85.3-.85-.36A7.75,7.75,0,0,1,32,26.32c.09-.2.18-.39.26-.58a5.26,5.26,0,0,1,.64-1.08c.3-.3.72-.22,1.11-.18,0,.28-.36.37-.6,1a2.36,2.36,0,0,1-.48,1.11C32.54,27.05,31.59,28,31.59,28.49Zm8.28-5.7a4.35,4.35,0,0,1,1.35,1.66.81.81,0,0,1-.11.78c-.35.34-.32-.45-.95-.9-.32-.23-1-.51-1-1,.33,0,.84.53.84.21S39.87,23.12,39.87,22.79Zm.75-1A4.8,4.8,0,0,1,41,20.41c0,.42,0,2.24.59,2.24.19,0,.18-.09.36-.11,0,0,.1.12.1.16a1.83,1.83,0,0,1-.24.74c-.18.23-.44-.16-.53-.3A3.24,3.24,0,0,1,40.61,21.79Zm-8.11-.28c0,.41.42.55.64.72.43.33,0,.57-.46.56a1.74,1.74,0,0,0-1.06.3,1.71,1.71,0,0,0-.55.86c0,.38.79-.74,1.3-.74.3,0,.89.29.95.51-.71.38-1,.48-1.29,1.31-.17.45-.4,1.78-.86,1.78-.3,0-.32-.57-.51-.62-.09.4.27,2.5.07,2.5-.68,0-.9-2.16-.36-3.11.15-.27.69-.66.69-1s-.54.27-.58.32a5.64,5.64,0,0,0-.85,1.35,2.23,2.23,0,0,0-.11,1,2.9,2.9,0,0,1-.36-1.41A5.89,5.89,0,0,1,29.65,24a4,4,0,0,1,.36-.78c.25-.37.45.11.73.14.11-.16.07-.2.08-.44A2.61,2.61,0,0,1,32.51,21,1.68,1.68,0,0,1,32.51,21.51Zm6-2.59c.13-.24.36-.2.64-.2a1.46,1.46,0,0,1,.68.19c.36.23.45,1,.4,1.36s-.05.66-.29.66,0-.3,0-.46a1.55,1.55,0,0,0-.46-1,.74.74,0,0,0-.48-.26C38.73,19.16,38.63,19.13,38.54,18.92Zm-9.05,2.93c-.38,0,.07-1.62.13-1.82s.52-1.31.94-1.31c0,.1,0,.06,0,.13a5.93,5.93,0,0,1-.51,1.54,5.6,5.6,0,0,0-.24.78,1.32,1.32,0,0,1-.09.41c0,.07-.16.26-.26.26Zm-.53.51,0,1.13c.13-.14.13-.28.39-.28.1.44-.73,1.72-1,2-.06.07-.32.37-.22.46s.31-.07.37.41-.45.89-.45,1,.48,0,.48.28c0,.64-1.67,1.65-2.19,1.91a8,8,0,0,1-4.07.78c-.87,0-1.74-.11-2.61-.1C17.52,30,17,31.34,16,32.69c-.2.26-.37.48-.58.72a2.07,2.07,0,0,1-1.78,1c-.26,0-.67-.13-.67-.36a14.61,14.61,0,0,1,1.93-2.43c.53-.53,1.73-2,1.73-2.65v-.26a2.5,2.5,0,0,0-.71-1.32c-1.1-1.27-3.54-.68-4.9-.41a8.56,8.56,0,0,0-1.58.43c-.26.13-.47.42.07.2a7.55,7.55,0,0,1,1.72-.3l.88-.15a10.33,10.33,0,0,1,1.72-.3A2.08,2.08,0,0,1,16.12,29c0,.81-.69,1.42-1.19,1.93l-1.59,1.56a8.69,8.69,0,0,0-1.08,1.25.57.57,0,0,0-.06.61c.31,1.08,1.89.47,2.42.73a3.27,3.27,0,0,1-2,.83c-.47-.18-1.4-.93-1.4-1.53,0-.34.15-1,.1-1.13-.32.09-.64.92-.66,1.26,0,.16,0,.51-.08.59s-.38-.56-.4-.75C10,33.11,12,31.66,12.79,31A5.17,5.17,0,0,1,14.28,30c0,.21-.36.46-.36.74,0,.53,1.45-1.54,1.45-2.06v-.16a1.06,1.06,0,0,0-1-.87,2.54,2.54,0,0,0-.51,0c0,.13.52.36.67.56s.1.26-.08.26a5,5,0,0,0-2-.34,6.61,6.61,0,0,0-.91.07,1.13,1.13,0,0,0-.38.11c-.13.09,0,.14-.28.23a6.68,6.68,0,0,1-2,.26c-.25,0-.62-.07-.67-.26s.36-.22.36-.39-.3-.21-.3-.39.07-.28-.06-.41-.45-.27-.45-.11.07.18.07.34-.26.18-.26.49.46.75.66.93a2.1,2.1,0,0,0,1.1.51h.28c.92,0,2.13-1.13,3.22-1.13.41,0,1.12,0,1.25.45.18.58-.79,1.26-1.17,1.54-1.1.77-3.17,2.26-3.17,3.79,0,1.2,1.68,2.41,2.92,2.41.45,0,1.48-.14,1.48.34s-.79,1-1,1.45a6.89,6.89,0,0,0-.3,2.19,17.27,17.27,0,0,1-.21,2.27c-.05.35-.11.74-.2,1.06a3.82,3.82,0,0,0-.24,1.28,1.51,1.51,0,0,0,.47,1,2.91,2.91,0,0,0,1.27.19h4.22v-.83c0-.58,0-1.12-.38-1.32a4,4,0,0,0-1.33-.3c0,.28.43.47.67.53s.82-.07.71,1.29c-.24-.07-.31-.6-.53,0,0,.1-.13.26-.14.32-.44,0-.61-.58-1-.62-.16.3.3,1-1.8.57a1.5,1.5,0,0,1-.83-.37A2.33,2.33,0,0,1,12.77,44a2.93,2.93,0,0,1,.25-.88,14.22,14.22,0,0,0,.18-3.23,2.3,2.3,0,0,1,.56-1.7c1.31-1.5.59-1.46,1.34-2.07.46-.37.23.07.14.41a3.48,3.48,0,0,1-1.19,2.22,1.79,1.79,0,0,0-.49.63,2.43,2.43,0,0,0,.05,1,7.45,7.45,0,0,0,.2.95c.09-.41.2-.84.32-1.24s.19-.75.55-1a3.45,3.45,0,0,1,.47-.3,5.57,5.57,0,0,0,.44-.34,1.89,1.89,0,0,0,.65-1c0-.3-.59.2-.59-.07S16.75,36,17,35.62s-.05-.22-.42-.22c0-.29.56-.62.83-.78s.69-.34,1-.53c.07,0,.54-.27.28-.3-.48-.05-1.59.34-2.05.23.08-.3,1.38-.63,1.54-.85-.38,0-.81.16-1.28.16.14-.21.57-.38.59-.62l-.21-.05c0-.07,0,0,0-.1A2.57,2.57,0,0,1,18.49,31a6.72,6.72,0,0,1,2.36-.43c.51,0,.85.16,1.33.16a14.5,14.5,0,0,0,5-1.06c.36-.16,1-.63,1.41-.63s.41.39.79.39-.07-.43-.07-.54c.59.14,1.87,2.13,2.84,2.49.28.1.65,0,.82.25s0,.41.44.64c.23.11.6.2.6.5s-.27.15-.41.18c0,.31.38.57.62.66s.69.05,1.07.2a2.34,2.34,0,0,1,1.1,1.49c0,.26-.87-.14-.87.46a9.5,9.5,0,0,0,.1,1.08,12.31,12.31,0,0,1-.59,3,18.86,18.86,0,0,0-.4,2,7.67,7.67,0,0,1-.31,1.49c-.19.54-.69.64,1.65.63a.72.72,0,0,1,.69.34c.18.23.52,1,.05,1.18-.24.11-.26,0-.48,0-.4,0-.09.67-.41.67s-.61-.95-1-.95-.28.59-.28.85.39.4.72.37c.18,0,.36,0,.55,0,.42-.06,1.1,0,1.35-.36a1.92,1.92,0,0,0,.3-1c0-.44-.77-1.39-1.12-1.39s-1.21-.2-1.21-.82.71-4.15,1.1-4.34A15.59,15.59,0,0,0,40,37.92c1-.39,1.91-1,2.91-1.39a3.3,3.3,0,0,1,1.8-.28c1.58.12,1.95.2,2.93,1.37.19.23.86,1,1.19,1,.18,0,.2-.14.2-.28s-.46-.83-.61-1-.57-.64-.74-.91a5.85,5.85,0,0,0,.57-.58,1.34,1.34,0,0,0,.45-.78,8.63,8.63,0,0,0-.66-2.16,1.36,1.36,0,0,0-.71-.7,3.31,3.31,0,0,0-2.32,0c-.19.14,0,.49-.15.49-.43,0-2.65-2.67-2.65-3.19,0,0,.15-.07.15-.26A4.39,4.39,0,0,1,42,27.49c0-.86.31-.76.31-.93,0-.51-.38-.91-.38-1.51,0-.79.38-1.46.38-2.52a5.24,5.24,0,0,0-1.29-3.46c-.26-.28-.69-.58-.77-1,0-.22,0-.3-.18-.41a.83.83,0,0,0-.87.12c-.19.13-.45.51-.67.53,0-.42.65-.86.71-1.11a1.86,1.86,0,0,0-.77.43,1.32,1.32,0,0,0-.4,1c0,.38.4.48.4.87s-1,.52-1.41.7a.62.62,0,0,0-.32.7c0,.29.11.68.4.68.13,0,.09-.24.32-.37s.35-.11.51-.2c.34-.21.11-.24.17-.47s.84-.58.84.28a1.53,1.53,0,0,1-.51,1c-.32.26-.68.53-.65,1a3.22,3.22,0,0,1,.08.62.64.64,0,0,1-.64.7c-.49,0-1-.25-1-.7s.61-.36.61-.72-2-.31-2,.13c0,.2.81.24.81.62s-.56.67-.92.67c-1.24,0-.42-1-.65-1.71-.18-.53-1-.95-1-1.47s.82-.6.82-.39-.08.15-.08.23c0,.26.34.29.55.38.44.18.31.45.48.45.47,0,.48-1.34.23-1.34a1.77,1.77,0,0,1-.33.05c-.43,0-1.41-.49-1.41-.83,0-.1,0-.28,0-.36a3,3,0,0,0-1.47.22c-.26.1-1.08.49-1.08.73,0,.07.07.1.15.1.48,0,.43-.51,1.12-.51.27,0,.69.11.69.36,0,.44-.36.34-.67.53a5.53,5.53,0,0,0-.68.47c-.23.19-1.06,1-1.31,1,0-.46.57-1,.57-1.62s-.1-.5.11-.86a3.06,3.06,0,0,1,.47-.58,2.52,2.52,0,0,1,1.31-.76,2.28,2.28,0,0,1,1.33.51c.11.07.38.3.38.05,0-.84-1-.87-1.66-1.36-.22-.16-.31-.46-.65-.46s.25.63.31.74a6,6,0,0,1-.69-.19,6.22,6.22,0,0,0-.77-.09c.05-.19.4-.2.41-.46-.27,0-.39.22-.54.41s-.27.37-.41.56A6.87,6.87,0,0,0,29,20.5,13.78,13.78,0,0,0,29,22.36Z" style="fill: #d2d2d2"/>
    <path d="M17.12,40.69c0-.12.09-.15.17-.21.75-.55,3-2.15,3.66-2.15.06,0,.15,0,.15.05C21.1,38.93,18.42,40.69,17.12,40.69Zm16.61,5.75h-.86c-.77,0-1.28-.24-1.29-1.39,0-.72,0-1.2,0-1.87a17.67,17.67,0,0,0-.13-2.69l-.3-1.73-3.71-.18c-1.57,0-1.31.08-2,.79a2.94,2.94,0,0,0-.24.27c-.2.24-.63.55-.63.91a5.52,5.52,0,0,0,.77,1.69c.77,1.05,1.58,1,2.51,1.16.73.15,2.06.68,2.06,1.6,0,1.29-.18,1.44-1.43,1.44H26.28a13.7,13.7,0,0,1-1.43-.09c-.64-.08-.7-.14-.94-.65a9,9,0,0,0-.48-1.1,4.63,4.63,0,0,0-1.61-1.54,9.24,9.24,0,0,1-1-.53c-.64-.47-.31-1.29-.53-1.86s-.73-.3-1.17-.09a8,8,0,0,1-1.45.52c-1.35.34-1.17.45-1.61,1.34-.07.14-.6,1.31-.6,1.38s.42.1.55.17.18.39,0,.39a2.22,2.22,0,0,0-1,0c-.35.09-.62.28-1,.2-.07-.32.13-.47.32-.85a11.68,11.68,0,0,0,.59-1.56,3.63,3.63,0,0,1,1.38-2.39l.9-.69c.4-.31.81-.62,1.21-.93a5.31,5.31,0,0,1,1.36-.8c.25-.11.52-.19.77-.29.48-.2,1.82-.95,1.82-1.39s-.3-.11-.4-.16c-.3-.11-.32-1.81-.24-1.93s.42.22.64.39c1.47,1.08,4.86,1.49,6.79.94a4.68,4.68,0,0,0,.67-.26s.7-.35.39-.35c-.93,0-1.93.47-2.51.33,0-.14.2-.2.32-.24.4-.17.78-.27,1.18-.46s1.1-.47,1.31-.89a20.49,20.49,0,0,1-2.25.56.15.15,0,0,1-.13-.07c0-.13.18-.11.33-.13a3.57,3.57,0,0,0,1.35-.84c.15-.12.32-.29.47-.39L32.69,34c-.48,0-1.36-.34-1.76-.23,0,.23.27.66.41.81a3.42,3.42,0,0,0,1.56,1l1,.26L32.67,36.9c-.28.22-1,.91-1,1.35a4.49,4.49,0,0,0,.09.72c0,.43.06,1.1.09,1.35s0,.47,0,.7c.07.54,0,2.43.25,2.62.34-.25.42-3.65.59-4.39.09.13.07.92.34.92s.2-.31.2-.53l0-1c0-.16,0-.32.1-.36,0,.12.08.32.11.49a10.26,10.26,0,0,1,.15,1.6,9.33,9.33,0,0,1-.28,2.11c-.09.7,0,1.25-.42,1.66a1.19,1.19,0,0,0-.37.68c-.19,1.09.57.7,1.09.94.18.08.49.28.51.51a.61.61,0,0,1-.46.13Zm-9.35-5.57a2.89,2.89,0,0,0,1,1.89c.34.34,1.25,1.21,1.76,1.21.22,0,.37-.34.51-.26s.09.11.18.22c.32.35.79-.32,1.37.57a1.52,1.52,0,0,1,.37,1c0,.14-.16.16-.26.16-.3,0-.09-.74-.46-.74s-.13,1-.44,1-1-.87-1.31-1.05a5.38,5.38,0,0,1,0,.74c-.05.38.07,1.07-1.13-.1-.2-.18-.75-.6-.75-.87s1.19-.5.07-1c-.76-.31-.55-.58-.9-.68a3.39,3.39,0,0,0-.71-.08c0-.2.36-.23.41-.41a2.87,2.87,0,0,0-.67-.07c0-.2.33-.21.38-.41-.21-.11-.67,0-.87-.1.05-.21.63-.46.69-.67l-.71-.07c0-.2.63-.43.69-.68a6.37,6.37,0,0,0-1-.07l1.18-.74-1.43.26,1.43-1.24c-.18,0-.94.34-1.31.43.06-.26.64-.66.66-.9l-.53.14c0-.19.21-.33.31-.44a4.4,4.4,0,0,1,1.25-1,1.94,1.94,0,0,1,.42,1c.05.2.22,1.05.27,1.14l.06-2a10.37,10.37,0,0,0,2,.57,8.25,8.25,0,0,0,1.21.09c1.56,0,1.2.44.53.44-.51,0-.66,0-1.14-.05-.32,0-1.29-.19-1.54,0s-.2.34-.31.56a4.37,4.37,0,0,1-.33.55c-.33.49-.92.89-.92,1.7Zm5-3.73a11.3,11.3,0,0,1,2.42-.92,3.29,3.29,0,0,1-1.7.8A5.53,5.53,0,0,1,29.34,37.14Zm-.92-.49L28,36.58c.8-.19,1.68-.49,2.49-.73a3.2,3.2,0,0,1,.9-.2,3.13,3.13,0,0,1-1.27.7A6.32,6.32,0,0,1,28.42,36.66Zm-1.18-.51c-.42,0-2.2-.3-2.28-.56,1-.23,1.76.45,4.18-.26l.88-.26a6.15,6.15,0,0,1,.9-.28c-.1.43-1.15.84-1.54,1A8.26,8.26,0,0,1,27.24,36.14Z" style="fill: #d2d2d2"/>
    <path d="M25.2,22.54c0-.21.61,0,.61.47C25.81,23.27,25.2,22.78,25.2,22.54ZM23.43,7.31h.24a1.06,1.06,0,0,1,.71.38c.12.16.26.57.51.57s0,0,.15-.05a1.23,1.23,0,0,1,0,.46c0,.6,2.36,3.4,2.81,3.92.68.78,1.64,2,2.28,2.77.16.2.64.74.57,1a.33.33,0,0,1-.13,0c-.49,0-3.28-3.39-3.92-4.15l-.75-.84c-.14-.14-.24-.26-.38-.41a10.94,10.94,0,0,0-.81-.78c-.16-.11-.41,0-.59.09A28.64,28.64,0,0,0,21,11.92a19,19,0,0,0-2,1.23c-.44.35-1.43,1.07-1.56,1.62s.35.76.35,1.17c0,1.1-5.71,3.43-5.86,4,.28.06.85-.26.85,0s-.35.37-.28.51.17,0,.3.11.08.13.12.29a3.9,3.9,0,0,0,.65.93l1.84,2.16c.26.3.48.6.73.89l.73.85A16.9,16.9,0,0,1,18,26.9c.22.32.09.47.32.47a2,2,0,0,0,.68-.09c.88-.22-.2.32-.37.64a25.1,25.1,0,0,0,3.72-1.78l.88-.51a14.13,14.13,0,0,0,1.63-1.11c.15-.14.58-.56.6-.76-.19,0-.27.1-.49.1s0-.29,0-.39a1.34,1.34,0,0,0-.38-.68c-.71-.62-.46-.74,0-1.34.07-.09.48-.56.55-.6a12.26,12.26,0,0,0-.74,1.43c.28,0,.79-.58,1-.74s.52-.46.94-.77.67-.47,1-.7a2.71,2.71,0,0,1,1.21-.51c0,.22-.51.5-.67.61s-.57.31-.85.49-1.39.89-1.39,1.26.67.64.67,1.28-1,1.51-1.4,1.81c-.63.45-1.28.85-1.95,1.25a27.66,27.66,0,0,1-4.2,2.18c-.18,0-7.13-8.44-7.13-8.75s2.55-1.56,2.95-1.77,1-.55,1.5-.85c1.47-.88,1.1-1.26,1-2.22-.08-1.37,4.28-3.56,5.27-4.08a10.24,10.24,0,0,0,1.91-1.16c-.13-.19-.35,0-.55,0s-.14-.3-.24-.48-.16-.21-.4-.34-.38-.55-.2-.55.41.36.67.36a.34.34,0,0,0,.34-.28c0-.23-1-.24-1-.67,0-.18.22-.32.51-.36Z" style="fill: #d2d2d2"/>
    <path d="M18.78,22.54c.13-.07.73-.56.91-.7.4-.3.61-.49,1.1-.18a9,9,0,0,1,.88.74c1.1,1.06.58,1.17-.4,1.59a5.35,5.35,0,0,0-1,.62,8.56,8.56,0,0,0-.88.74c-.2.22-.66.68-.46,1.08.32.07.86-.26,1.14-.4s.72-.33,1.09-.52c1.13-.57,1.31-.08,1.52-1.68l.14-1.45c0-.67.08-.85-.25-1.32A2.63,2.63,0,0,0,21.19,20a4.83,4.83,0,0,0-.75,0c-.68,0,.18-1.16-1-2.23a1.72,1.72,0,0,0-2.3.17,5.52,5.52,0,0,0-1.05,2.16A1.78,1.78,0,0,0,16,21.43c.09.19.58.9.42,1.14s-.42.12-.3.63a1,1,0,0,0,.42.58c.31.15.45-.18.66-.24s.51.22.64.35a2.39,2.39,0,0,1,.73,1.27c0,.46.31.08.48-.05a1.8,1.8,0,0,0,.44-.57c.17-.35.09-.46-.07-.74A15.47,15.47,0,0,0,18.19,22c-.32-.41-1.7-2-1.84-2.18A3.36,3.36,0,0,1,17.62,19a1.57,1.57,0,0,1,1.44.61,1.66,1.66,0,0,1,.48,1.56,6,6,0,0,1-.75,1.37Z" style="fill: #d2d2d2"/>
    <path d="M21.64,15.43v.26c0,1.46,1.5,3.95,3.32,3.95s2.13-.24,3.09-1.37a1.63,1.63,0,0,0,.49-1.51c0-.3-.15-1.51-.46-1.59-.34.23.06,1-.6,1.91-.24.32-1,1-1.49,1a4.68,4.68,0,0,1-1.75-.32,2.39,2.39,0,0,1-1.1-.74,4.36,4.36,0,0,1-1-1.77,7.89,7.89,0,0,0-.1-.83C21.86,14.53,21.64,15.12,21.64,15.43Z" style="fill: #d2d2d2"/>
    <path d="M23.71,11.43c0,.16.37.41-1,.8a11.32,11.32,0,0,0-2.36.89c-1,.68-.44,2.52.38,2.58.13,0,.32,0,.27-.14s-.36-.35-.36-.64,1-.87,1.33-1c.86-.39,2.67-.78,3.1-1.58C25.64,11.34,23.71,10.83,23.71,11.43Z" style="fill: #d2d2d2"/>
    <path d="M36.24,16.07c-.34,0-1-.55-1-.31s.81.7.81,1.36c0,1.13-.33,1.08-.33,1.77,0,.48.77.07,1.3.05s.51-.28.61-.55c.23-.65,1-1.08,1-1.38,0-.09-.05-.07-.18-.07-.47,0-.55.63-.84.49s0-.61.36-.83a1.14,1.14,0,0,1,.51-.16c.27,0,.42,0,.59-.1-.07-.29-.33-.36-.62-.36A2.36,2.36,0,0,0,36.6,17.4a8,8,0,0,1-.26.83,2.36,2.36,0,0,1,.42-1.86,2.4,2.4,0,0,1,1.52-.84c-.14-.19-.86,0-1.1.1S36.55,16.07,36.24,16.07Z" style="fill: #d2d2d2"/>
    <path d="M23,14.79c0,.36.16.53.47.87l1.76,1.78a3.86,3.86,0,0,0,.53-1.16c0-.39-.79-1.12-1-1.37l-.59-.62a6.52,6.52,0,0,0-.62-.61A5.41,5.41,0,0,0,23,14.79Z" style="fill: #d2d2d2"/>
    <path d="M33.6,16.22v.11c.19,0,.46.11.65.18s.4.13.51.34c-.2.22-.39.22-.77.2l-1.27-.1c.13.18,1.24.22,1.83,1.05.23.32.26,1,.75.18a1.43,1.43,0,0,0-1-2.16A2.36,2.36,0,0,0,33.6,16.22Z" style="fill: #d2d2d2"/>
    <path d="M13.74,20.18a1.3,1.3,0,0,0,.42.89,1.16,1.16,0,0,0,.89.34c0-.28-.64-.32-.64-.77,0-.29.44,0,1.14-.62a2.41,2.41,0,0,0,.4-.46c.15-.22.28-.6.09-.6s-.18.44-1.29.47C14.3,19.45,13.74,19.72,13.74,20.18Z" style="fill: #d2d2d2"/>
    <path d="M20.29,17.92c0,.48,2.13,2.49,2.22,2.52a1.62,1.62,0,0,0-.14-.66c-.18-.39-.32-.19-.49-.3s0-.49-.18-.61-.57.24-.57-.07.1-.35.1-.67-.37.22-.56.24c-.11-.22,0-.57-.26-.57A.14.14,0,0,0,20.29,17.92Z" style="fill: #d2d2d2"/>
    <path d="M25.33,14.43c0,.24.15.51.38.51h.18c.44,0,1-.74,0-1-.38-.08-.53.07-.53.46Z" style="fill: #d2d2d2"/>
    <path d="M31.82,16.59c0,.49,1.63-.57,1.66-.9A4,4,0,0,0,31.82,16.59Z" style="fill: #d2d2d2"/>
    <path d="M19.18,13.37,18.4,14c-.26.24-.59.56-.52.89C18,14.91,19.13,13.45,19.18,13.37Z" style="fill: #d2d2d2"/>
    <path d="M29.1,32.71c.26-.06.69-.65.72-.77a2.69,2.69,0,0,0-.75.64c0,.06,0,.07,0,.14Z" style="fill: #d2d2d2"/>
    <path d="M19.18,13.37h0l0,0Z" style="fill: #d2d2d2"/>
    <path d="M18.78,22.54h0l0,0Z" style="fill: #d2d2d2"/>
  </g>
  <path d="M178.16,13.57c1.9,1.65,2.15,4.21,2.16,5.67,0,2.35,0,4.87-.06,7.22-.16,3.86-6.16,6.63-7.81,6.7l-.12.41a20.54,20.54,0,0,1,1.35,2.54c.4.86,2.43,5.75,7,6.17v2.44c-3.14.43-9,.12-11.7-1.4a6.56,6.56,0,0,1-2.45-2.37l-2.88-5.76a20.45,20.45,0,0,0-2.46-3.83l-.49-.58a3.84,3.84,0,0,0-.54-.54A5.65,5.65,0,0,0,157.08,29V26.56c4.54-.07,4.26.37,10-.11A24.51,24.51,0,0,0,175.59,24c3.85-2.13.09-3.55-2.95-4.63a34.32,34.32,0,0,0-6.45-1.64c-1-.17-1-.7-1.36-1.49-.82-1.62-3.26-6-3.71-7.2,4,0,13.7,1.46,17,4.51Z" style="fill: #d2d2d2"/>
  <path d="M70.73,20.55v2.88H75v9.49h3V23.43h3.19l1.66-2.88H70.73Zm20.45,9.58h-4.4a1.09,1.09,0,0,1,0-2.19h4.4Zm-.57-9.58h-5.7l-1.67,2.88H90.6a.52.52,0,0,1,.57.57v1.31H86.4a3.8,3.8,0,1,0,0,7.6h7.82V24a3.33,3.33,0,0,0-3.62-3.45Zm9,7.6a3.8,3.8,0,1,1,0-7.6h7.11L105,23.43H99.63a.92.92,0,1,0,0,1.83h3.27a3.82,3.82,0,0,1,0,7.63H96.45V30h6.39a.94.94,0,0,0,0-1.88H99.57Zm11.41,0a3.8,3.8,0,1,1,0-7.6h7.11l-1.67,2.88H111a.92.92,0,1,0,0,1.83h3.27a3.82,3.82,0,0,1,0,7.63h-6.45V30h6.39a.94.94,0,0,0,0-1.88H111Z" style="fill: #d2d2d2"/>
</svg>
