<?xml version="1.0" encoding="utf-8"?>
<!-- Generator: Adobe Illustrator 24.1.2, SVG Export Plug-In . SVG Version: 6.00 Build 0)  -->
<svg version="1.1" id="Слой_1" xmlns="http://www.w3.org/2000/svg" xmlns:xlink="http://www.w3.org/1999/xlink" x="0px" y="0px"
	 viewBox="0 0 32 32" enable-background="new 0 0 32 32" xml:space="preserve">
<path d="M25,14.6H10.7l5-4.6c0.6-0.5,0.6-1.4,0.1-2l-0.1-0.1c-0.5-0.6-1.4-0.6-2-0.1L6.1,15c-0.6,0.5-0.6,1.5,0,2l7.7,7.1
	c0.6,0.5,1.4,0.5,2-0.1l0.1-0.1c0.5-0.6,0.5-1.4-0.1-2l-5-4.6H25c0.8,0,1.4-0.6,1.4-1.4v0C26.4,15.2,25.8,14.6,25,14.6z"/>
</svg>
