<?xml version="1.0" encoding="utf-8"?>
<!-- Generator: Adobe Illustrator 24.1.2, SVG Export Plug-In . SVG Version: 6.00 Build 0)  -->
<svg version="1.1"
	 id="svg19167" inkscape:version="0.91+devel+osxmenu r12911" sodipodi:docname="square.svg" xmlns:cc="http://creativecommons.org/ns#" xmlns:dc="http://purl.org/dc/elements/1.1/" xmlns:inkscape="http://www.inkscape.org/namespaces/inkscape" xmlns:rdf="http://www.w3.org/1999/02/22-rdf-syntax-ns#" xmlns:sodipodi="http://sodipodi.sourceforge.net/DTD/sodipodi-0.dtd" xmlns:svg="http://www.w3.org/2000/svg"
	 xmlns="http://www.w3.org/2000/svg" xmlns:xlink="http://www.w3.org/1999/xlink" x="0px" y="0px" viewBox="0 0 20 20"
	 enable-background="new 0 0 20 20" xml:space="preserve">
<sodipodi:namedview  bordercolor="#666666" borderopacity="1.0" id="base" inkscape:current-layer="layer1" inkscape:cx="11.681634" inkscape:cy="9.2857143" inkscape:document-units="px" inkscape:object-nodes="true" inkscape:pageopacity="0.0" inkscape:pageshadow="2" inkscape:window-height="751" inkscape:window-maximized="0" inkscape:window-width="1280" inkscape:window-x="0" inkscape:window-y="23" inkscape:zoom="11.313708" pagecolor="#ffffff" showgrid="true" units="px">
	<inkscape:grid  id="grid19715" type="xygrid"></inkscape:grid>
</sodipodi:namedview>
<path d="M15.1,11.5H18c0.3,0,0.4-0.3,0.3-0.5c-1.2-1.7-4.1-3.4-6.7-2.7c-0.1,0-0.1,0.2,0,0.3c1.5,0.6,2.6,1.8,3.3,2.8
	C14.9,11.4,15,11.5,15.1,11.5z"/>
<path d="M10.7,7c-5.3-0.5-8.1,3.1-8.9,5.4c-0.1,0.3,0.1,0.7,0.4,0.7H5c0.2,0,0.4-0.1,0.4-0.3c0.5-1.1,1.8-4.4,5.3-5.4
	C10.9,7.3,10.9,7,10.7,7z"/>
</svg>
