<?xml version="1.0" encoding="UTF-8"?>
<svg enable-background="new 0 0 217.5 217.5" version="1.1" viewBox="0 0 217.5 217.5" xml:space="preserve" xmlns="http://www.w3.org/2000/svg">

	
		<rect transform="matrix(.4008 -.9161 .9161 .4008 -88.534 80.339)" x="15.7" y="106" width="2.9" height="3.6"/>
		<rect transform="matrix(.4008 -.9162 .9162 .4008 -87.006 89.42)" x="23.4" y="107.9" width="2.9" height="6.6"/>
		<rect transform="matrix(.4008 -.9162 .9162 .4008 -85.479 98.504)" x="31.1" y="112.8" width="2.9" height="3.6"/>
	
	
		<rect transform="matrix(.4008 -.9162 .9162 .4008 -84.82 102.41)" x="34.4" y="114.2" width="2.9" height="3.6"/>
		<path d="m102.7 146.9-6.3-2.7 1.2-2.7 6.3 2.7-1.2 2.7zm-9.4-4.1-6.3-2.8 1.2-2.7 6.3 2.7-1.2 2.8zm-9.4-4.2-6.3-2.7 1.2-2.7 6.3 2.7-1.2 2.7zm-9.4-4.1-6.3-2.7 1.2-2.7 6.3 2.7-1.2 2.7zm-9.4-4.1-6.3-2.7 1.2-2.7 6.3 2.7-1.2 2.7zm-9.4-4.1-6.3-2.7 1.2-2.7 6.3 2.7-1.2 2.7zm-9.4-4.1-6.3-2.7 1.2-2.7 6.3 2.7-1.2 2.7z"/>
		<rect transform="matrix(.4008 -.9162 .9162 .4008 -70.498 187.47)" x="106.6" y="145.8" width="2.9" height="3.6"/>
	
	
		<rect transform="matrix(.4008 -.9161 .9161 .4008 -62.978 232.16)" x="144.6" y="162.4" width="2.9" height="3.6"/>
		<path d="m140.6 163.5-6.3-2.7 1.2-2.7 6.3 2.7-1.2 2.7zm-9.4-4.1-6.3-2.7 1.2-2.7 6.3 2.7-1.2 2.7zm-9.3-4.2-6.3-2.7 1.2-2.7 6.3 2.7-1.2 2.7z"/>
		<rect transform="matrix(.4008 -.9162 .9162 .4008 -69.84 191.38)" x="109.9" y="147.3" width="2.9" height="3.6"/>
	
	
		<rect transform="matrix(.9162 -.4008 .4008 .9162 -58.871 42.717)" x="70.9" y="160.6" width="3.6" height="2.9"/>
		<path d="m78.1 161.3-1.2-2.7 6.4-2.8 1.2 2.7-6.4 2.8zm9.6-4.2-1.2-2.7 6.4-2.8 1.2 2.7-6.4 2.8zm9.7-4.3-1.2-2.7 6.4-2.8 1.2 2.7-6.4 2.8z"/>
		<rect transform="matrix(.9162 -.4008 .4008 .9162 -49.695 55.608)" x="106.3" y="145.1" width="3.6" height="2.9"/>
	
	
		<rect transform="matrix(.9162 -.4008 .4008 .9162 -47.638 17.371)" x="15.9" y="121.1" width="3.6" height="2.9"/>
		<rect transform="matrix(.9162 -.4008 .4008 .9162 -45.711 20.077)" x="22" y="117.9" width="6.3" height="2.9"/>
		<rect transform="matrix(.9162 -.4008 .4008 .9162 -43.785 22.783)" x="30.8" y="114.6" width="3.6" height="2.9"/>
	
	<path d="m127.9 54.5-41.9 16.1-21 17.6v27.5l42 18.4 42-18.4v-29l-21.1-32.2zm-0.8 2.7 18.6 28.5-37.8 14.5-18.7-28.5 37.9-14.5z"/>
	
		<rect transform="matrix(.4008 -.9162 .9162 .4008 5.6689 240.76)" x="185.4" y="114.2" width="2.9" height="3.6"/>
		<rect transform="matrix(.4008 -.9162 .9162 .4008 6.9524 248.42)" x="191.9" y="116.2" width="2.9" height="5.3"/>
		<rect transform="matrix(.4008 -.9162 .9162 .4008 8.2502 256.09)" x="198.5" y="119.9" width="2.9" height="3.6"/>
	
	
		<rect transform="matrix(.4008 -.9162 .9162 .4008 -.8197 202.23)" x="152.7" y="99.9" width="2.9" height="3.6"/>
		<path d="m177.6 113.6-7.4-3.3 1.2-2.7 7.4 3.3-1.2 2.7zm-11.2-4.9-7.4-3.3 1.2-2.7 7.4 3.3-1.2 2.7z"/>
		<rect transform="matrix(.4008 -.9162 .9162 .4008 5.0107 236.86)" x="182.1" y="112.8" width="2.9" height="3.6"/>
	
	
		<rect transform="matrix(.9162 -.4008 .4008 .9162 -25.765 89.226)" x="198.6" y="104.7" width="3.6" height="2.9"/>
		<rect transform="matrix(.9162 -.4008 .4008 .9162 -27.514 86.768)" x="190.9" y="107.7" width="5.6" height="2.9"/>
		<rect transform="matrix(.9162 -.4008 .4008 .9162 -29.264 84.31)" x="185.1" y="110.7" width="3.6" height="2.9"/>
	
	
		<rect transform="matrix(.9162 -.4008 .4008 .9162 -30.123 83.103)" x="181.8" y="112.1" width="3.6" height="2.9"/>
		<path d="m116.8 144.4-1.2-2.7 6.3-2.7 1.2 2.7-6.3 2.7zm9.3-4.1-1.2-2.7 6.3-2.7 1.2 2.7-6.3 2.7zm9.4-4.2-1.2-2.7 6.3-2.7 1.2 2.7-6.3 2.7zm9.4-4.1-1.2-2.7 6.3-2.7 1.2 2.7-6.3 2.7zm9.4-4.1-1.2-2.7 6.3-2.7 1.2 2.7-6.3 2.7zm9.4-4.1-1.2-2.7 6.3-2.7 1.2 2.7-6.3 2.7zm9.4-4.1-1.2-2.7 6.3-2.7 1.2 2.7-6.3 2.7z"/>
		<rect transform="matrix(.9162 -.4008 .4008 .9162 -48.835 56.816)" x="109.6" y="143.7" width="3.6" height="2.9"/>
	
	
		<rect transform="matrix(.9162 -.4008 .4008 .9162 -36.751 32.665)" x="57.9" y="102.7" width="3.6" height="2.9"/>
		<path d="m41 113.9-1.2-2.7 5.9-2.6 1.2 2.7-5.9 2.6zm8.8-3.8-1.2-2.7 5.9-2.6 1.2 2.7-5.9 2.6z"/>
		<rect transform="matrix(.9162 -.4008 .4008 .9162 -42.926 23.991)" x="34.1" y="113.1" width="3.6" height="2.9"/>
	

</svg>
