<?xml version="1.0" encoding="UTF-8"?>
<svg enable-background="new 0 0 217.5 217.5" version="1.1" viewBox="0 0 217.5 217.5" xml:space="preserve" xmlns="http://www.w3.org/2000/svg">

	<path d="m83.9 125.5v-24.8c0-1.4-1.1-2.5-2.5-2.5h-13.3c-1.4 0-2.5 1.1-2.5 2.5v24.8h-7.5c-2.2 0-3.4 2.7-1.8 4.3l16.6 16.6c1 1 2.6 1 3.6 0l16.6-16.6c1.6-1.6 0.5-4.3-1.8-4.3h-7.4z"/>
	<path d="m109.4 170.1h-69.3c-1.1 0-2-0.9-2-2v-15.4c0-1.1 0.9-2 2-2h69.3c1.1 0 2 0.9 2 2v15.4c0 1.1-0.9 2-2 2z"/>


	<path d="m131.7 86.1c0-5.9-4.8-10.6-10.6-10.6-5.9 0-10.6 4.8-10.6 10.6 0 5.9 4.8 10.6 10.6 10.6 5.9 0.1 10.6-4.7 10.6-10.6z"/>
	<polygon points="164 121.3 141 98.3 119.8 119.5 119.8 146 164 146"/>
	<path d="m119.8 160.4"/>
	<path d="m165.6 162.9h-45.8v-5h45.8c4.9 0 8.9-4 8.9-8.9v-86.3c0-4.9-4-8.9-8.9-8.9h-113.7c-4.9 0-8.9 4-8.9 8.9v79.6h-5v-79.6c0-7.6 6.2-13.9 13.9-13.9h113.6c7.6 0 13.9 6.2 13.9 13.9v86.3c0.1 7.7-6.2 13.9-13.8 13.9z"/>

</svg>
