<?xml version="1.0" encoding="utf-8"?>
<!-- Generator: Adobe Illustrator 24.1.2, SVG Export Plug-In . SVG Version: 6.00 Build 0)  -->
<svg version="1.1" id="Слой_1" xmlns="http://www.w3.org/2000/svg" xmlns:xlink="http://www.w3.org/1999/xlink" x="0px" y="0px"
	 viewBox="0 0 32 32" enable-background="new 0 0 32 32" xml:space="preserve">
<g>
	<path d="M17.4,17.3L12.7,22c-1,1-2.5,1.2-3.2,0.5C8.8,21.7,9,20.3,10,19.2l4.7-4.7l-0.9-0.9l-4.6,4.6c-0.9,0.9-1.3,2-1.4,3.2
		c0,1-0.4,1.9-1.1,2.6l-0.5,0.5c-0.3,0.3-0.3,0.8,0,1.1c0.3,0.3,0.8,0.3,1.1,0l0.5-0.5c0.7-0.7,1.6-1.1,2.5-1.1l0,0
		c1.2,0,2.3-0.5,3.2-1.4l4.7-4.7L17.4,17.3z"/>
	<path d="M15.3,10L15.3,10C15,9.6,14.4,9.6,14,10l0,0c-0.4,0.4-0.4,0.9,0,1.3l1.1,1.1l4.4,4.4l1.1,1.1c0.4,0.4,0.9,0.4,1.3,0l0,0
		c0.4-0.4,0.4-0.9,0-1.3l0,0c-0.6-0.6-0.6-1.6,0-2.2l3.1-3.1c1.2-1.2,1.2-3.2,0-4.4l0,0c-1.2-1.2-3.2-1.2-4.4,0L17.5,10
		C16.9,10.6,15.9,10.6,15.3,10z"/>
</g>
</svg>
