<?xml version="1.0" encoding="UTF-8"?>
<svg enable-background="new 0 0 32 32" version="1.1" viewBox="0 0 32 32" xml:space="preserve" xmlns="http://www.w3.org/2000/svg">

	<path d="m25.2 18.2c-0.3-0.3-0.5-0.7-0.5-1.2 0-0.3 0.1-0.7 0.1-1.1s0-0.7-0.1-1.1 0.1-0.9 0.5-1.2l1.9-1.6c0.5-0.4 0.6-1.1 0.3-1.7l-1.1-1.9c-0.3-0.4-1-0.7-1.6-0.4l-2.4 0.8c-0.4 0.2-0.9 0.1-1.2-0.2-0.6-0.4-1.2-0.8-1.8-1.1-0.4-0.2-0.7-0.6-0.8-1-0.1-0.7-0.3-1.7-0.4-2.5-0.2-0.5-0.8-1-1.4-1h-2.2c-0.7 0-1.2 0.5-1.3 1.1l-0.4 2.5c-0.1 0.4-0.4 0.8-0.8 1-0.7 0.3-1.3 0.6-1.8 1.1-0.5 0.2-0.9 0.3-1.3 0.1l-2.4-0.8c-0.6-0.3-1.3 0-1.6 0.6l-1.1 1.9c-0.3 0.6-0.2 1.3 0.3 1.7l1.9 1.6c0.3 0.3 0.5 0.7 0.5 1.2 0 0.3-0.1 0.7-0.1 1.1s0 0.7 0.1 1.1-0.1 0.9-0.5 1.2l-1.9 1.6c-0.5 0.4-0.6 1.1-0.3 1.7l1.1 1.9c0.3 0.6 1 0.8 1.6 0.6l2.4-0.8c0.4-0.2 0.9-0.1 1.2 0.2 0.6 0.4 1.2 0.8 1.8 1.1 0.4 0.2 0.7 0.6 0.8 1 0.1 0.7 0.3 1.7 0.4 2.5 0.1 0.6 0.7 1.1 1.3 1.1h2.2c0.7 0 1.2-0.5 1.3-1.1l0.4-2.5c0.1-0.4 0.4-0.8 0.8-1 0.7-0.3 1.3-0.6 1.8-1.1 0.4-0.3 0.8-0.3 1.2-0.2l2.4 0.8c0.6 0.2 1.3 0 1.6-0.6l1.1-1.9c0.3-0.6 0.2-1.3-0.3-1.7l-1.7-1.8zm-8.7 2.5c-3.3 0.6-6.2-2.3-5.6-5.6 0.4-1.9 1.9-3.4 3.7-3.7 3.3-0.6 6.2 2.3 5.6 5.6-0.3 1.8-1.8 3.3-3.7 3.7z" fill="#fff"/>

</svg>
