<?xml version="1.0" encoding="UTF-8"?>
<svg enable-background="new 0 0 217.5 217.5" version="1.1" viewBox="0 0 217.5 217.5" xml:space="preserve" xmlns="http://www.w3.org/2000/svg">

	<polygon points="90.5 94.4 89.5 91.6 84.8 93.1 79.6 82.6 65.5 82.6 51.5 82.6 46.3 93.1 41.5 91.6 40.6 94.4 44.9 95.8 42.6 100.6 43.7 115.1 43.7 121 50.4 121 50.4 114.9 65.5 114.9 80.6 114.9 80.6 121 87.3 121 87.3 115.1 88.5 100.6 86.1 95.8"/>
	<path d="m179.8 70.2v-4h-6.2l0.2-5.9-6.6-3.9h-41.8l-6.6 3.9 0.2 5.9h-6.2v4h-0.9v8.2h4.6v-8.2h-2.5v-2.7h5l1.4 53.5h5.4v-5h41.2v5h5.4l1.4-53.5h5v2.7h-2.8v8.2h4.6v-8.2h-0.8z"/>
	<path d="m66 133.5"/>
	<path d="m175.1 125.6h-57.8c-2 0-3.6 1.6-3.6 3.6v28.3c0 2 1.6 3.6 3.6 3.6h57.8c2 0 3.6-1.6 3.6-3.6v-28.3c0-2-1.6-3.6-3.6-3.6zm-41.7 24.1 12.9-12.6 12.6 12.6h-25.5z"/>
	<path d="m95.2 125.6h-58.1c-2 0-3.6 1.6-3.6 3.6v28.3c0 2 1.6 3.6 3.6 3.6h58.1c2 0 3.6-1.6 3.6-3.6v-28.3c0-2-1.6-3.6-3.6-3.6zm-29.8 24.1-12.6-12.6h25.4l-12.8 12.6z"/>

</svg>
