<?xml version="1.0" encoding="utf-8"?>
<!-- Generator: Adobe Illustrator 24.1.2, SVG Export Plug-In . SVG Version: 6.00 Build 0)  -->
<svg version="1.1" id="Слой_1" xmlns="http://www.w3.org/2000/svg" xmlns:xlink="http://www.w3.org/1999/xlink" x="0px" y="0px"
	 width="217.5px" height="217.5px" viewBox="0 0 217.5 217.5" style="enable-background:new 0 0 217.5 217.5;" xml:space="preserve"
	>
<g>
	<path d="M177.3,78.2l-64.1,32.4c-2.8,1.4-6.1,1.4-8.8,0L40.2,78.2c-6.3-3.2-6.3-11.6,0-14.8L104.3,31c2.8-1.4,6.1-1.4,8.8,0
		l64.1,32.4C183.6,66.6,183.6,75,177.3,78.2z"/>
	<g>
		<path d="M104.3,158.1L58,134.8c-2.8-1.4-6.1-1.4-8.8,0l-9,4.5c-6.3,3.2-6.3,11.6,0,14.8l64.1,32.4c2.8,1.4,6.1,1.4,8.8,0
			l64.1-32.4c6.3-3.2,6.3-11.6,0-14.8l-9-4.5c-2.8-1.4-6.1-1.4-8.8,0l-46.3,23.4C110.4,159.5,107.1,159.5,104.3,158.1z"/>
	</g>
	<path d="M104.3,120.2L58,96.8c-2.8-1.4-6.1-1.4-8.8,0l-9,4.5c-6.3,3.2-6.3,11.6,0,14.8l64.1,32.4c2.8,1.4,6.1,1.4,8.8,0l64.1-32.4
		c6.3-3.2,6.3-11.6,0-14.8l-9-4.5c-2.8-1.4-6.1-1.4-8.8,0l-46.3,23.4C110.4,121.6,107.1,121.6,104.3,120.2z"/>
</g>
</svg>
