<?xml version="1.0" encoding="UTF-8"?>
<svg enable-background="new 0 0 217.5 217.5" version="1.1" viewBox="0 0 217.5 217.5" xml:space="preserve" xmlns="http://www.w3.org/2000/svg">

	
		<polygon points="117.6 48.6 119.7 51.4 119.7 51.4 125.8 54.1 127.7 49.9 122.7 47.7 117.6 41"/>
		<polygon points="115.4 54.8 115.3 53.7 115.3 50.7 115.3 45.6 115.3 41.2 115.3 35.7 106.1 35.7 106.1 35.8 90.5 53.5 93.9 56.5 106.1 42.7 106.1 47.5 103 66 89.9 78.9 93.4 82.4 107.8 69.2 107.8 69.2 107.8 69.2 110.5 59.6 117.1 68.4 122.6 84.5 127.2 82.7 122.3 66"/>
		
			<path d="m110.7 32.9c2.5 0 4.6-2 4.6-4.6 0-2.5-2-4.6-4.6-4.6-2.5 0-4.6 2-4.6 4.6s2.1 4.6 4.6 4.6"/>
		
	
	<circle cx="108.8" cy="108.8" r="22.3"/>
	<path d="m132.6 51.5v6.6c19 9 32.2 28.3 32.2 50.7 0 30.9-25.1 56-56 56s-56-25.1-56-56c0-22.4 13.2-41.7 32.2-50.7v-6.6c-22.5 9.4-38.2 31.5-38.2 57.3 0 34.2 27.8 62 62 62s62-27.8 62-62c0-25.8-15.8-47.9-38.2-57.3z"/>

</svg>
