<?xml version="1.0" encoding="UTF-8"?>
<svg enable-background="new 0 0 217.5 217.5" version="1.1" viewBox="0 0 217.5 217.5" xml:space="preserve" xmlns="http://www.w3.org/2000/svg">
<style type="text/css">
	.st0{fill:#757575;}
</style>

	
		<path class="st0" d="m150.1 83.6-3.2-28.2-16.7-5.5-6.3 33.4 26.2 0.3zm-14.5-24.6 4.8 1.6 1.8 15.9-9.9-0.2 3.3-17.3z"/>
		<path class="st0" d="m108.4 127.9 7.2-37.9-29.6-0.5-8.2 38.5 30.6-0.1zm-16.9-31.2 15.6 0.2-4.5 24-16.2 0.1 5.1-24.3z"/>
		<path class="st0" d="m116.8 83.1 6.7-35.5-26.8-8.9-9.3 44 29.4 0.4zm-14.9-35.3 13.6 4.5-4.5 23.7-15-0.2 5.9-28z"/>
		<path class="st0" d="m155.1 127.7-4.2-37.1-28.3-0.4-7.1 37.7 39.6-0.2zm-26.7-30.5 16.2 0.2 2.6 23.2-23.3 0.1 4.5-23.5z"/>
		<path class="st0" d="m80.2 82.5 9.8-46.1-18.6-6.2-24.1 51.8 32.9 0.5zm-5.1-43.7 6.8 2.2-7.3 34.3-16.4-0.3 16.9-36.2z"/>
		<path class="st0" d="m186 127.5-2.6-36.4-25.4-0.4 4.2 37 23.8-0.2zm-20.2-29.7 11.1 0.2 1.6 22.6-10.1 0.1-2.6-22.9z"/>
		<path class="st0" d="m70.5 128.1 8.2-38.6-34.7-0.5-18.4 39.4 44.9-0.3zm-22-32.1 21.7 0.3-5.3 24.8-28.2 0.1 11.8-25.2z"/>
		<path class="st0" d="m182.9 84.1-1.2-17.2-27.5-9.1 2.9 25.9 25.8 0.4zm-20.5-16.2 12.6 4.2 0.3 4.9-12-0.2-0.9-8.9z"/>
	
	<path class="st0" d="m154.1 167.5-10.7-10.7c-0.8-0.8-0.8-2 0-2.8l4.2-4.2c0.8-0.8 2-0.8 2.8 0l6.6 6.6c0.8 0.8 2 0.8 2.8 0l19.1-19.1c0.8-0.8 2-0.8 2.8 0l4.2 4.2c0.8 0.8 0.8 2 0 2.8l-23.2 23.2c-2.4 2.4-6.2 2.4-8.6 0z"/>
	<path class="st0" d="M42.1,137h27.3v32h-8v-25.1H50V169h-8V137z"/>
	<path class="st0" d="M78.4,137h27.3v32h-8v-25.1H86.4V169h-8V137z"/>
	<path class="st0"  d="M120.7,143.9h-9.6V137H139l-2.5,6.9h-7.8V169h-8V143.9z"/>

</svg>
