<?xml version="1.0" encoding="UTF-8"?>
<svg enable-background="new 0 0 217.5 217.5" version="1.1" viewBox="0 0 217.5 217.5" xml:space="preserve" xmlns="http://www.w3.org/2000/svg">
<style type="text/css">
	.st0{fill:#757575;}
</style>
<path class="st0" d="m183.3 144.6c0-1.5-1.6-1.3-2.1-1-0.9 0.9-4.7 4.8-4.7 4.8l-5.3-1.7-1.7-5.3s3.9-3.8 4.8-4.7c0.3-0.5 0.5-2.1-1-2.1-7.4 0.2-9.9 6.1-10.3 7.7s0.1 4.8 0.4 5.5-0.1 1.9-0.4 2.1c-0.3 0.3-10.8 8.9-12.5 10.3-3.2 3.1-1 6 0 7.1 1 1 4 3.2 7.1 0 1.4-1.7 10.1-12.2 10.3-12.5 0.3-0.3 1.4-0.7 2.1-0.4s4 0.8 5.5 0.4c1.7-0.3 7.6-2.8 7.8-10.2zm-30.9 21c-1-1-1-2.6 0-3.6s2.6-1 3.6 0 1 2.6 0 3.6c-1 0.9-2.6 0.9-3.6 0z"/>

	<path class="st0" d="m150.1 83.6-3.2-28.2-16.7-5.5-6.3 33.4 26.2 0.3zm-14.5-24.6 4.8 1.6 1.8 15.9-9.9-0.2 3.3-17.3z"/>
	<path class="st0" d="m108.4 127.9 7.2-37.9-29.6-0.5-8.2 38.5 30.6-0.1zm-16.9-31.2 15.6 0.2-4.5 24-16.2 0.1 5.1-24.3z"/>
	<path class="st0" d="m116.8 83.1 6.7-35.5-26.8-8.9-9.3 44 29.4 0.4zm-14.9-35.3 13.6 4.5-4.5 23.7-15-0.2 5.9-28z"/>
	<path class="st0" d="m155.1 127.7-4.2-37.1-28.3-0.4-7.1 37.7 39.6-0.2zm-26.7-30.5 16.2 0.2 2.6 23.2-23.3 0.1 4.5-23.5z"/>
	<path class="st0" d="m80.2 82.5 9.8-46.1-18.6-6.2-24.1 51.8 32.9 0.5zm-5.1-43.7 6.8 2.2-7.3 34.3-16.4-0.3 16.9-36.2z"/>
	<path class="st0" d="m186 127.5-2.6-36.4-25.4-0.4 4.2 37 23.8-0.2zm-20.2-29.7 11.1 0.2 1.6 22.6-10.1 0.1-2.6-22.9z"/>
	<path class="st0" d="m70.5 128.1 8.2-38.6-34.7-0.5-18.4 39.4 44.9-0.3zm-22-32.1 21.7 0.3-5.3 24.8-28.2 0.1 11.8-25.2z"/>
	<path class="st0" d="m182.9 84.1-1.2-17.2-27.5-9.1 2.9 25.9 25.8 0.4zm-20.5-16.2 12.6 4.2 0.3 4.9-12-0.2-0.9-8.9z"/>

<path class="st0" d="M42.1,137h27.3v32h-8v-25.1H50V169h-8V137z"/>
<path class="st0" d="M78.4,137h27.3v32h-8v-25.1H86.4V169h-8V137z"/>
<path class="st0" d="M120.7,143.9h-9.6V137H139l-2.5,6.9h-7.8V169h-8V143.9z"/>
</svg>
