<?xml version="1.0" encoding="utf-8"?>
<!-- Generator: Adobe Illustrator 24.1.2, SVG Export Plug-In . SVG Version: 6.00 Build 0)  -->
<svg version="1.1" id="Слой_1" xmlns="http://www.w3.org/2000/svg" xmlns:xlink="http://www.w3.org/1999/xlink" x="0px" y="0px"
	 viewBox="0 0 32 32" enable-background="new 0 0 32 32" xml:space="preserve">
<g>
	<g>
		<path d="M24.3,15.6c-0.5,0-0.9-0.3-1-0.8C22.8,12.1,21,9.9,18.4,9c-3.5-1.2-7.4,0.4-9.1,3.7c-0.2,0.5-0.8,0.7-1.3,0.5
			c-0.5-0.2-0.7-0.8-0.5-1.3c2.1-4.3,7-6.3,11.5-4.7c3.2,1.1,5.6,3.9,6.2,7.3c0.1,0.5-0.3,1.1-0.8,1.1
			C24.4,15.6,24.3,15.6,24.3,15.6z"/>
		<g>
			<path d="M26.6,14.1l-4.9,0c-0.4,0-0.7,0.5-0.4,0.9l2.4,2.4c0.2,0.2,0.5,0.2,0.7,0L27,15C27.3,14.7,27.1,14.1,26.6,14.1z"/>
		</g>
	</g>
	<g>
		<path d="M16,25.4c-1,0-2.1-0.2-3.1-0.5c-3.2-1.1-5.6-3.9-6.2-7.3C6.7,17,7,16.5,7.6,16.4c0.5-0.1,1.1,0.3,1.1,0.8
			c0.4,2.7,2.3,4.9,4.9,5.8c3.5,1.2,7.4-0.4,9.1-3.7c0.2-0.5,0.8-0.7,1.3-0.5s0.7,0.8,0.5,1.3C22.8,23.4,19.5,25.4,16,25.4z"/>
		<g>
			<path d="M5.4,17.9l4.9,0c0.4,0,0.7-0.5,0.4-0.9l-2.4-2.4c-0.2-0.2-0.5-0.2-0.7,0L5,17C4.7,17.3,4.9,17.9,5.4,17.9z"/>
		</g>
	</g>
</g>
</svg>
