<?xml version="1.0" encoding="UTF-8" standalone="no"?>
<svg
   xmlns:dc="http://purl.org/dc/elements/1.1/"
   xmlns:cc="http://creativecommons.org/ns#"
   xmlns:rdf="http://www.w3.org/1999/02/22-rdf-syntax-ns#"
   xmlns:svg="http://www.w3.org/2000/svg"
   xmlns="http://www.w3.org/2000/svg"
   xmlns:sodipodi="http://sodipodi.sourceforge.net/DTD/sodipodi-0.dtd"
   xmlns:inkscape="http://www.inkscape.org/namespaces/inkscape"
   inkscape:version="1.0 (4035a4fb49, 2020-05-01)"
   sodipodi:docname="hash 1.svg"
   id="svg4"
   version="1.1"
   viewBox="0 0 25 25"
   class="bi bi-camera-video"
   fill="currentColor"
   height="25"
   width="25">
  <metadata
     id="metadata10">
    <rdf:RDF>
      <cc:Work
         rdf:about="">
        <dc:format>image/svg+xml</dc:format>
        <dc:type
           rdf:resource="http://purl.org/dc/dcmitype/StillImage" />
        <dc:title></dc:title>
      </cc:Work>
    </rdf:RDF>
  </metadata>
  <defs
     id="defs8" />
  <sodipodi:namedview
     inkscape:current-layer="svg4"
     inkscape:window-maximized="1"
     inkscape:window-y="-11"
     inkscape:window-x="-11"
     inkscape:cy="14.04762"
     inkscape:cx="-0.12552963"
     inkscape:zoom="13.71875"
     showgrid="false"
     id="namedview6"
     inkscape:window-height="1046"
     inkscape:window-width="1920"
     inkscape:pageshadow="2"
     inkscape:pageopacity="0"
     guidetolerance="10"
     gridtolerance="10"
     objecttolerance="10"
     borderopacity="1"
     bordercolor="#666666"
     pagecolor="#ffffff"
     inkscape:document-rotation="0" />
  <path
     style="fill:#6b6b69;fill-opacity:1;stroke:#6b6b69;stroke-width:0.66;stroke-miterlimit:4;stroke-dasharray:none;stroke-opacity:1"
     d="m 12.383491,17.584113 a 1.3981433,1.3981433 0 0 0 -0.01589,0.190655 c 0,0.323056 0.222433,0.538074 0.529601,0.538074 0.281747,0 0.521126,-0.182183 0.587855,-0.505238 l 0.586796,-2.863017 h 1.275277 c 0.445923,0 0.653526,-0.247852 0.653526,-0.579382 0,-0.33047 -0.19913,-0.561375 -0.653526,-0.561375 h -1.043312 l 0.546547,-2.67342 h 1.339888 c 0.455455,0 0.654585,-0.240438 0.654585,-0.579382 0,-0.331529 -0.19913,-0.5550198 -0.654585,-0.5550198 h -1.107925 l 0.504179,-2.4403961 a 1.1227514,1.1227514 0 0 0 0.01694,-0.1737086 0.54019173,0.54019173 0 0 0 -0.546546,-0.546547 0.57196771,0.57196771 0 0 0 -0.570909,0.4554558 L 13.932031,9.9960082 H 11.56472 l 0.505238,-2.4403961 c 0.0085,-0.042368 0.01589,-0.1249855 0.01589,-0.1737086 A 0.54231012,0.54231012 0 0 0 11.531895,6.8353565 0.57090851,0.57090851 0 0 0 10.96946,7.2908123 L 10.41338,9.9960082 H 9.2313134 c -0.4554557,0 -0.653526,0.2330238 -0.653526,0.5634938 0,0.33047 0.1980703,0.570908 0.653526,0.570908 H 10.190948 L 9.6454608,13.80277 H 8.3786579 c -0.445923,0 -0.6450525,0.231965 -0.6450525,0.562435 0,0.33153 0.1991295,0.579382 0.6461117,0.579382 h 1.0337786 l -0.5465469,2.639526 c -0.00847,0.04237 -0.015888,0.1324 -0.015888,0.190655 0,0.323056 0.2224319,0.538074 0.5295997,0.538074 0.2806876,0 0.5211256,-0.182183 0.586796,-0.505238 l 0.5878555,-2.863017 h 2.374726 l -0.545488,2.639526 z m -1.0592,-6.47065 h 2.400146 l -0.545487,2.714728 h -2.417093 l 0.563494,-2.714728 z"
     id="path2-5" />
</svg>
