<svg id="Layer_1" data-name="Layer 1" xmlns="http://www.w3.org/2000/svg" width="25" height="25" viewBox="0 0 25 25">
  <title>Значки радар и тп</title>
  <g>
    <path d="M18.55,11.9a1.45,1.45,0,0,1-1.45-1.45V8.1a.19.19,0,0,0-.19-.19H14.55a1.45,1.45,0,0,1,0-2.9h2.36A3.1,3.1,0,0,1,20,8.1v2.36A1.45,1.45,0,0,1,18.55,11.9Z" style="fill: #3D85C6"/>
    <path d="M6.45,11.9A1.45,1.45,0,0,1,5,10.45V8.1A3.1,3.1,0,0,1,8.09,5h2.36a1.45,1.45,0,0,1,0,2.9H8.09a.19.19,0,0,0-.19.19v2.36A1.45,1.45,0,0,1,6.45,11.9Z" style="fill: #3D85C6"/>
    <path d="M16.91,20H14.55a1.45,1.45,0,1,1,0-2.9h2.36a.19.19,0,0,0,.19-.19V14.55a1.45,1.45,0,0,1,2.9,0V16.9A3.1,3.1,0,0,1,16.91,20Z" style="fill: #3D85C6"/>
    <path d="M10.45,20H8.09A3.1,3.1,0,0,1,5,16.9V14.55a1.45,1.45,0,0,1,2.9,0V16.9a.19.19,0,0,0,.19.19h2.36a1.45,1.45,0,0,1,0,2.9Z" style="fill: #3D85C6"/>
  </g>
  <g id="dot">
    <path d="M12.51,9.64a2.8,2.8,0,0,1,1.68.56,2.84,2.84,0,1,1-1.68-.56" style="fill: #3D85C6"/>
  </g>
</svg>
