<svg id="Layer_2" data-name="Layer 2" xmlns="http://www.w3.org/2000/svg" width="29" height="29" viewBox="0 0 29 29">
  <title>12</title>
  <path d="M14.89,3.78l.35,2.45H14l.35-2.45h.56" style="fill: #383838"/>
  <path d="M18.44,4.68l.46.21L18.3,7l-1-.46,1.18-1.89" style="fill: #cecece"/>
  <path d="M24.25,10.18l.18.47-1.95,1.09-.41-1.06,2.17-.5" style="fill: #cecece"/>
  <path d="M10.7,4.72l1.18,1.89-1,.46-.61-2.15.46-.21" style="fill: #cecece"/>
  <path d="M21.83,6.84l.36.36L20.85,9l-.8-.8,1.78-1.34" style="fill: #cecece"/>
  <path d="M22.95,13.84l2.45.35v.56l-2.45.35V13.84" style="fill: #383838"/>
  <path d="M21.09,19.77l1.34,1.78-.36.36-1.78-1.34.8-.8" style="fill: #cecece"/>
  <path d="M8.54,20.14l.8.8L7.56,22.28l-.36-.36,1.34-1.78" style="fill: #cecece"/>
  <path d="M6.45,13.84V15.1L4,14.75v-.56l2.45-.35" style="fill: #383838"/>
  <path d="M7.37,7,9.16,8.35l-.8.8L7,7.37,7.37,7" style="fill: #cecece"/>
  <path d="M10.93,22l1,.46-1.18,1.89-.46-.21L10.93,22" style="fill: #cecece"/>
  <path d="M22.68,16.83,24.57,18l-.21.46-2.15-.61.46-1" style="fill: #cecece"/>
  <path d="M18.74,21.75l.5,2.17-.47.18-1.09-1.95,1.06-.41" style="fill: #cecece"/>
  <path d="M5.05,10.41,7.2,11l-.46,1L4.85,10.87l.21-.46" style="fill: #cecece"/>
  <path d="M7,17.37l.41,1.06-2.17.5L5,18.46,7,17.37" style="fill: #cecece"/>
  <path d="M19.13,14.47,14.81,25.36,10.49,14.47h8.64" style="fill: #ff0817"/>
</svg>
