<svg id="Layer_2" data-name="Layer 2" xmlns="http://www.w3.org/2000/svg" width="29" height="29" viewBox="0 0 29 29">
  
  <path d="M14.27,6a.53.53,0,0,1,.49.31l3.45,7.34H10.33l3.45-7.34A.53.53,0,0,1,14.27,6" style="fill: #ff0817"/>
  <path d="M22.36,6l.51.51L21,9,19.83,7.89,22.36,6" style="fill: #cecece"/>
  <path d="M22.86,13.47l4,.57V15l-4,.57V13.47" style="fill: #6b6b69"/>
  <path d="M21,20l1.9,2.53-.51.51-2.53-1.9L21,20" style="fill: #cecece"/>
  <path d="M7.4,20l1.14,1.14L6,23l-.51-.51L7.4,20" style="fill: #cecece"/>
  <path d="M5.68,13.47v2.05l-4-.57V14l4-.57" style="fill: #6b6b69"/>
  <path d="M6.18,6l2.53,1.9L7.57,9,5.68,6.51,6.18,6" style="fill: #cecece"/>
  <path d="M15.11,23.74l-.38,2.67h-.92l-.37-2.67a1.49,1.49,0,0,0,.83.24,1.55,1.55,0,0,0,.84-.24" style="fill: #6b6b69"/>
  <path d="M13.44,5.12l.38-2.67h.92l.37,2.67a1.49,1.49,0,0,0-.83-.24,1.55,1.55,0,0,0-.84.24" style="fill: #6b6b69"/>
  <path d="M18.21,15.34l-3.45,7.34a.54.54,0,0,1-1,0l-3.45-7.34h7.87" style="fill: #cecece"/>
</svg>

