<svg id="Layer_2" data-name="Layer 2" xmlns="http://www.w3.org/2000/svg" width="22" height="22" viewBox="0 0 16 16">
  <path d="M8,6.37c1.32,0,2.4.45,2.4,2.15s-1.08,4-2.4,4-2.41-2.3-2.41-4S6.71,6.37,8,6.37m0,5.14a.75.75,0,1,0-.75-.75.75.75,0,0,0,.75.75" style="fill: #333333"/>
  <path d="M14.58,8.38a.6.6,0,0,1,0,1.2H1.43a.6.6,0,1,1,0-1.2H14.58" style="fill: #333333"/>
  <g>
    <path d="M2.53,5.11A.45.45,0,0,1,3,5.55v.19H4.31a.45.45,0,1,1,0,.89H.75a.45.45,0,1,1,0-.89H2.08V5.55a.45.45,0,0,1,.45-.44" style="fill: #333333"/>
    <path d="M3,7.1v3.32a.45.45,0,1,1-.9,0V7.1H3" style="fill: #333333"/>
  </g>
  <g>
    <path d="M13.84,7.1v3.32a.45.45,0,1,1-.9,0V7.1h.9" style="fill: #333333"/>
    <path d="M13.39,5.11a.45.45,0,0,1,.45.44v.19h1.33a.45.45,0,1,1,0,.89H11.61a.45.45,0,1,1,0-.89h1.33V5.55a.45.45,0,0,1,.45-.44" style="fill: #333333"/>
  </g>
</svg>
