<svg id="Layer_2" data-name="Layer 2" xmlns="http://www.w3.org/2000/svg" width="20" height="20" viewBox="0 0 16 16">
  <title>7</title>
  <path d="M8,2.66c1.32,0,2.4.45,2.4,2.15s-1.08,4-2.4,4-2.41-2.3-2.41-4S6.71,2.66,8,2.66M8,7.8A.75.75,0,1,0,7.29,7,.75.75,0,0,0,8,7.8" style="fill: #383838"/>
  <path d="M14.58,4.67a.6.6,0,0,1,0,1.2H1.43a.6.6,0,1,1,0-1.2H14.58" style="fill: #383838"/>
  <g>
    <path d="M2.53,1.4A.45.45,0,0,1,3,1.84V2H4.31a.45.45,0,1,1,0,.89H.75A.45.45,0,1,1,.75,2H2.08V1.84a.45.45,0,0,1,.45-.44" style="fill: #383838"/>
    <path d="M3,3.39V6.71a.45.45,0,1,1-.9,0V3.39H3" style="fill: #383838"/>
  </g>
  <g>
    <path d="M13.84,3.39V6.71a.45.45,0,1,1-.9,0V3.39h.9" style="fill: #383838"/>
    <path d="M13.39,1.4a.45.45,0,0,1,.45.44V2h1.33a.45.45,0,1,1,0,.89H11.61a.45.45,0,1,1,0-.89h1.33V1.84a.45.45,0,0,1,.45-.44" style="fill: #383838"/>
  </g>
  <path d="M8,11.73A5.92,5.92,0,0,1,4.3,10.43a.31.31,0,0,1,0-.45l.24-.27a.31.31,0,0,1,.23-.1.33.33,0,0,1,.21.07,4.95,4.95,0,0,0,6.12,0,.33.33,0,0,1,.2-.07.3.3,0,0,1,.23.1l.24.27a.31.31,0,0,1,0,.45A5.92,5.92,0,0,1,8,11.73" style="fill: #383838"/>
  <path d="M8,14.65a8.83,8.83,0,0,1-5.66-2,.31.31,0,0,1,0-.45l.24-.27a.31.31,0,0,1,.23-.1.32.32,0,0,1,.21.07,7.86,7.86,0,0,0,10,0,.32.32,0,0,1,.2-.07.31.31,0,0,1,.23.1l.24.27a.31.31,0,0,1,0,.45,8.84,8.84,0,0,1-5.64,2" style="fill: #383838"/>
</svg>
