<svg id="Layer_1" data-name="Layer 1" xmlns="http://www.w3.org/2000/svg" width="16" height="16" viewBox="0 0 16 16">
  <title>Знакчки  EDM GIS BIM</title>
  <g>
    <path d="M4.92,10.86a3,3,0,0,1,1.12.2,2.2,2.2,0,0,1,.85.6l-.57.56A1.84,1.84,0,0,0,5,11.66a1.91,1.91,0,0,0-.92.22,1.58,1.58,0,0,0-.63.61,1.75,1.75,0,0,0-.23.9,1.72,1.72,0,0,0,.23.88,1.62,1.62,0,0,0,.63.62A1.84,1.84,0,0,0,5,15.1a2,2,0,0,0,1-.25V13.32h.86v2a2.75,2.75,0,0,1-.88.46,3.4,3.4,0,0,1-1,.16,2.79,2.79,0,0,1-1.35-.33,2.42,2.42,0,0,1-.95-.9,2.62,2.62,0,0,1,0-2.59,2.41,2.41,0,0,1,.95-.9,2.83,2.83,0,0,1,1.36-.33" style="fill: #6b6b69"/>
    <path d="M8.93,10.93v4.9H8v-4.9h.91" style="fill: #6b6b69"/>
    <path d="M11.92,10.86a3.52,3.52,0,0,1,.88.11,2.45,2.45,0,0,1,.75.32l-.29.71a2.84,2.84,0,0,0-.67-.29,2.53,2.53,0,0,0-.68-.1,1.42,1.42,0,0,0-.8.18.56.56,0,0,0-.26.48.44.44,0,0,0,.15.34,1.08,1.08,0,0,0,.38.21L12,13a6.67,6.67,0,0,1,.9.26,1.54,1.54,0,0,1,.6.42,1.1,1.1,0,0,1,.25.76,1.29,1.29,0,0,1-.22.74,1.5,1.5,0,0,1-.67.52,2.73,2.73,0,0,1-1.09.2,3.75,3.75,0,0,1-1.1-.16,2.29,2.29,0,0,1-.84-.43l.31-.71a2.49,2.49,0,0,0,.74.39,2.69,2.69,0,0,0,.88.15,1.52,1.52,0,0,0,.82-.17.53.53,0,0,0,.27-.46.45.45,0,0,0-.15-.35,1,1,0,0,0-.38-.21l-.63-.18a7.25,7.25,0,0,1-.91-.27,1.48,1.48,0,0,1-.59-.42,1.12,1.12,0,0,1-.25-.77,1.31,1.31,0,0,1,.22-.74,1.49,1.49,0,0,1,.67-.53,2.69,2.69,0,0,1,1.09-.2" style="fill: #6b6b69"/>
  </g>
</svg>
