<svg xmlns="http://www.w3.org/2000/svg" viewBox="0 0 16 16" width="17" height="17"><path d="M6.4.38a1.3,1.3,0,1,1-1.3,1.3A1.3,1.3,0,0,1,6.4.38" style="fill:#6B6B69"/><path d="M4.71,6.19l.08,1.09a4,4,0,1,0,6.45,4.22l.59,1A5,5,0,1,1,4.71,6.19" style="fill:#6B6B69"/><path d="M6.62,3.21A1.33,1.33,0,0,1,7.95,4.44L8,5.9h2.43a.58.58,0,0,1,0,1.16H8.13l.05.75h3.16a.81.81,0,0,1,.67.4l2.33,4a.81.81,0,0,1-1.4.81L11.11,9.89H6.89a1.3,1.3,0,0,1-1.28-1.1,1.32,1.32,0,0,1,0-.26L5.29,4.63A1.33,1.33,0,0,1,6.53,3.21h.09" style="fill:#6B6B69"/></svg>
