<svg id="Layer_2" data-name="Layer 2" xmlns="http://www.w3.org/2000/svg" width="26" height="26" viewBox="0 0 16 16">
  <title>5</title>
  <path d="M6.15,4.73a4,4,0,0,0-1.26,1.5H4.09a1.78,1.78,0,1,0,0,3.55H7.2A1.77,1.77,0,0,0,8.68,7,.85.85,0,0,1,9,7H10.3a3.14,3.14,0,0,1,.17,1,3.3,3.3,0,0,1-.16,1,3,3,0,0,1-.37.75,3.28,3.28,0,0,1-2.74,1.5H4.09a3.27,3.27,0,1,1,0-6.54H6.15" style="fill: #383838"/>
  <path d="M12.11,4.73a3.27,3.27,0,0,1,0,6.54H10.28a4,4,0,0,0,1.27-1.5h.55a1.78,1.78,0,0,0,0-3.55H9a1.73,1.73,0,0,0-.89.25A1.68,1.68,0,0,0,7.51,7a1.74,1.74,0,0,0,0,2A.85.85,0,0,1,7.2,9H5.88a3.1,3.1,0,0,1-.17-1,3.14,3.14,0,0,1,.17-1,2.76,2.76,0,0,1,.36-.75A3.27,3.27,0,0,1,8.1,4.86,3.2,3.2,0,0,1,9,4.73h3.12" style="fill: #383838"/>
</svg>
