<?xml version="1.0" encoding="UTF-8" standalone="no"?>
<svg
   xmlns:dc="http://purl.org/dc/elements/1.1/"
   xmlns:cc="http://creativecommons.org/ns#"
   xmlns:rdf="http://www.w3.org/1999/02/22-rdf-syntax-ns#"
   xmlns:svg="http://www.w3.org/2000/svg"
   xmlns="http://www.w3.org/2000/svg"
   xmlns:sodipodi="http://sodipodi.sourceforge.net/DTD/sodipodi-0.dtd"
   xmlns:inkscape="http://www.inkscape.org/namespaces/inkscape"
   inkscape:version="1.0 (4035a4fb49, 2020-05-01)"
   sodipodi:docname="locationnew.svg"
   id="svg6"
   version="1.1"
   fill="3333"
   viewBox="0 0 20 20"
   height="29"
   width="29">
  <metadata
     id="metadata12">
    <rdf:RDF>
      <cc:Work
         rdf:about="">
        <dc:format>image/svg+xml</dc:format>
        <dc:type
           rdf:resource="http://purl.org/dc/dcmitype/StillImage" />
      </cc:Work>
    </rdf:RDF>
  </metadata>
  <defs
     id="defs10" />
  <sodipodi:namedview
     inkscape:current-layer="svg6"
     inkscape:window-maximized="1"
     inkscape:window-y="-11"
     inkscape:window-x="-11"
     inkscape:cy="-3.9908785"
     inkscape:cx="1.2333577"
     inkscape:zoom="7.5689655"
     showgrid="false"
     id="namedview8"
     inkscape:window-height="1046"
     inkscape:window-width="1920"
     inkscape:pageshadow="2"
     inkscape:pageopacity="0"
     guidetolerance="10"
     gridtolerance="10"
     objecttolerance="10"
     borderopacity="1"
     bordercolor="#666666"
     pagecolor="#ffffff" />
  <path
     style="fill:#3d85c6;fill-opacity:1;stroke:none;stroke-opacity:1"
     id="path2"
     d="M10 4C9 4 9 5 9 5v.1A5 5 0 0 0 5.1 9H5s-1 0-1 1 1 1 1 1h.1A5 5 0 0 0 9 14.9v.1s0 1 1 1 1-1 1-1v-.1a5 5 0 0 0 3.9-3.9h.1s1 0 1-1-1-1-1-1h-.1A5 5 0 0 0 11 5.1V5s0-1-1-1zm0 2.5a3.5 3.5 0 1 1 0 7 3.5 3.5 0 1 1 0-7z" />
  <path
     display="none"
     d="M14 5l1 1-9 9-1-1 9-9z"
     id="stroke" />
</svg>
