<?xml version="1.0" encoding="UTF-8" standalone="no"?>
<svg
   xmlns:dc="http://purl.org/dc/elements/1.1/"
   xmlns:cc="http://creativecommons.org/ns#"
   xmlns:rdf="http://www.w3.org/1999/02/22-rdf-syntax-ns#"
   xmlns:svg="http://www.w3.org/2000/svg"
   xmlns="http://www.w3.org/2000/svg"
   xmlns:sodipodi="http://sodipodi.sourceforge.net/DTD/sodipodi-0.dtd"
   xmlns:inkscape="http://www.inkscape.org/namespaces/inkscape"
   inkscape:version="1.0 (4035a4fb49, 2020-05-01)"
   sodipodi:docname="logoemiiaaimrv.svg"
   id="svg837"
   version="1.1"
   viewBox="0 0 65.659713 15.679598"
   height="59.259777"
   width="248.16264">
  <metadata
     id="metadata843">
    <rdf:RDF>
      <cc:Work
         rdf:about="">
        <dc:format>image/svg+xml</dc:format>
        <dc:type
           rdf:resource="http://purl.org/dc/dcmitype/StillImage" />
        <dc:title></dc:title>
      </cc:Work>
    </rdf:RDF>
  </metadata>
  <defs
     id="defs841" />
  <sodipodi:namedview
     inkscape:current-layer="svg837"
     inkscape:window-maximized="1"
     inkscape:window-y="-11"
     inkscape:window-x="-11"
     inkscape:cy="129.02295"
     inkscape:cx="216.4164"
     inkscape:zoom="2.4268929"
     fit-margin-bottom="0"
     fit-margin-right="0"
     fit-margin-left="0"
     fit-margin-top="0"
     showgrid="false"
     id="namedview839"
     inkscape:window-height="1046"
     inkscape:window-width="1920"
     inkscape:pageshadow="2"
     inkscape:pageopacity="0"
     guidetolerance="10"
     gridtolerance="10"
     objecttolerance="10"
     borderopacity="1"
     bordercolor="#666666"
     pagecolor="#ffffff" />
  <g
     transform="translate(-0.3538815,-14.689453)"
     style="font-style:normal;font-variant:normal;font-weight:normal;font-stretch:normal;font-size:16.1244px;line-height:1.25;font-family:Orbitron;-inkscape-font-specification:Orbitron;fill:#383838;fill-opacity:1;stroke-width:0.167962"
     id="text847"
     aria-label="EMIIA.AI">
    <path
       id="path914"
       style="font-style:normal;font-variant:normal;font-weight:normal;font-stretch:normal;font-family:Orbitron;-inkscape-font-specification:Orbitron;fill:#383838;fill-opacity:1;stroke-width:0.167962"
       d="M 10.946676,14.689453 V 15.99553 H 1.6590221 v 3.837607 h 7.4655968 v 1.3222 H 1.6590221 v 3.837607 h 9.2876539 v 1.306077 H 0.35294572 V 14.689453 Z" />
    <path
       id="path916"
       style="font-style:normal;font-variant:normal;font-weight:normal;font-stretch:normal;font-family:Orbitron;-inkscape-font-specification:Orbitron;fill:#383838;fill-opacity:1;stroke-width:0.167962"
       d="m 18.804549,20.429739 4.821195,-5.740286 h 1.789809 V 26.299021 H 24.109476 V 16.172898 l -5.304927,6.30464 -5.304927,-6.30464 V 26.299021 H 12.193545 V 14.689453 h 1.789809 z" />
    <path
       id="path918"
       style="font-style:normal;font-variant:normal;font-weight:normal;font-stretch:normal;font-family:Orbitron;-inkscape-font-specification:Orbitron;fill:#383838;fill-opacity:1;stroke-width:0.167962"
       d="M 27.16883,26.299021 V 14.689453 h 1.306076 v 11.609568 z" />
    <path
       id="path920"
       style="font-style:normal;font-variant:normal;font-weight:normal;font-stretch:normal;font-family:Orbitron;-inkscape-font-specification:Orbitron;fill:#383838;fill-opacity:1;stroke-width:0.167962"
       d="M 30.727534,26.299021 V 14.689453 h 1.306076 v 11.609568 z" />
    <path
       id="path922"
       style="font-style:normal;font-variant:normal;font-weight:normal;font-stretch:normal;font-family:Orbitron;-inkscape-font-specification:Orbitron;fill:#383838;fill-opacity:1;stroke-width:0.167962"
       d="m 36.237291,14.689453 h 7.739711 q 0.80622,0 1.370574,0.564354 0.564354,0.564354 0.564354,1.370574 v 9.67464 h -1.306076 v -4.240717 h -8.997415 v 4.240717 h -1.306076 v -9.67464 q 0,-0.80622 0.564354,-1.370574 0.564354,-0.564354 1.370574,-0.564354 z m -0.628852,6.062774 h 8.997415 v -4.127846 q 0,-0.25799 -0.193493,-0.435359 -0.177368,-0.193492 -0.435359,-0.193492 h -7.739711 q -0.257991,0 -0.451483,0.193492 -0.177369,0.177369 -0.177369,0.435359 z" />
    <path
       id="path924"
       style="font-style:normal;font-variant:normal;font-weight:normal;font-stretch:normal;font-family:Orbitron;-inkscape-font-specification:Orbitron;fill:#383838;fill-opacity:1;stroke-width:0.167962"
       d="m 49.039058,24.97682 v 1.322201 h -1.3222 V 24.97682 Z" />
    <path
       id="path926"
       style="font-style:normal;font-variant:normal;font-weight:normal;font-stretch:normal;font-family:Orbitron;-inkscape-font-specification:Orbitron;fill:#383838;fill-opacity:1;stroke-width:0.167962"
       d="m 53.180509,14.689453 h 7.739712 q 0.80622,0 1.370574,0.564354 0.564353,0.564354 0.564353,1.370574 v 9.67464 h -1.306076 v -4.240717 h -8.997415 v 4.240717 h -1.306076 v -9.67464 q 0,-0.80622 0.564354,-1.370574 0.564354,-0.564354 1.370574,-0.564354 z m -0.628852,6.062774 h 8.997415 v -4.127846 q 0,-0.25799 -0.193493,-0.435359 -0.177368,-0.193492 -0.435358,-0.193492 h -7.739712 q -0.25799,0 -0.451483,0.193492 -0.177369,0.177369 -0.177369,0.435359 z" />
    <path
       id="path928"
       style="font-style:normal;font-variant:normal;font-weight:normal;font-stretch:normal;font-family:Orbitron;-inkscape-font-specification:Orbitron;fill:#383838;fill-opacity:1;stroke-width:0.167962"
       d="M 64.708449,26.299021 V 14.689453 h 1.306076 v 11.609568 z" />
  </g>
  <text
     xml:space="preserve"
     style="font-size:8.2482px;line-height:1.25;font-family:Montserrat;-inkscape-font-specification:Montserrat;fill:#383838;fill-opacity:1;stroke-width:0.085919"
     x="20.142673"
     y="15.577991"
     id="text948"><tspan
       sodipodi:role="line"
       id="tspan946"
       x="20.142673"
       y="15.577991"
       style="font-style:normal;font-variant:normal;font-weight:normal;font-stretch:normal;font-size:3.43674px;font-family:Orbitron;-inkscape-font-specification:Orbitron;fill:#383838;fill-opacity:1;stroke-width:0.085919">MACHINE RADIO VISION</tspan></text>
</svg>
