<?xml version="1.0" encoding="UTF-8" standalone="no"?>
<svg
   xmlns:dc="http://purl.org/dc/elements/1.1/"
   xmlns:cc="http://creativecommons.org/ns#"
   xmlns:rdf="http://www.w3.org/1999/02/22-rdf-syntax-ns#"
   xmlns:svg="http://www.w3.org/2000/svg"
   xmlns="http://www.w3.org/2000/svg"
   xmlns:sodipodi="http://sodipodi.sourceforge.net/DTD/sodipodi-0.dtd"
   xmlns:inkscape="http://www.inkscape.org/namespaces/inkscape"
   inkscape:version="1.0 (4035a4fb49, 2020-05-01)"
   sodipodi:docname="logoemiiaaimrv.svg"
   id="svg837"
   version="1.1"
   viewBox="0 0 65.659713 15.679598"
   height="59.259777"
   width="248.16264">
  <metadata
     id="metadata843">
    <rdf:RDF>
      <cc:Work
         rdf:about="">
        <dc:format>image/svg+xml</dc:format>
        <dc:type
           rdf:resource="http://purl.org/dc/dcmitype/StillImage" />
        <dc:title></dc:title>
      </cc:Work>
    </rdf:RDF>
  </metadata>
  <defs
     id="defs841" />
  <sodipodi:namedview
     inkscape:current-layer="svg837"
     inkscape:window-maximized="1"
     inkscape:window-y="-11"
     inkscape:window-x="-11"
     inkscape:cy="129.07933"
     inkscape:cx="216.76879"
     inkscape:zoom="2.4268929"
     fit-margin-bottom="0"
     fit-margin-right="0"
     fit-margin-left="0"
     fit-margin-top="0"
     showgrid="false"
     id="namedview839"
     inkscape:window-height="1046"
     inkscape:window-width="1920"
     inkscape:pageshadow="2"
     inkscape:pageopacity="0"
     guidetolerance="10"
     gridtolerance="10"
     objecttolerance="10"
     borderopacity="1"
     bordercolor="#666666"
     pagecolor="#ffffff" />
  <g
     transform="translate(-0.3538815,-14.689453)"
     style="font-style:normal;font-variant:normal;font-weight:normal;font-stretch:normal;font-size:16.1244px;line-height:1.25;font-family:Orbitron;-inkscape-font-specification:Orbitron;fill:#383838;fill-opacity:1;stroke-width:0.167962"
     id="text847"
     aria-label="EMIIA.AI">
    <path
       id="path914"
       style="font-style:normal;font-variant:normal;font-weight:normal;font-stretch:normal;font-family:Orbitron;-inkscape-font-specification:Orbitron;fill:#383838;fill-opacity:1;stroke-width:0.167962"
       d="M 10.946676,14.689453 V 15.99553 H 1.6590221 v 3.837607 h 7.4655968 v 1.3222 H 1.6590221 v 3.837607 h 9.2876539 v 1.306077 H 0.35294572 V 14.689453 Z" />
    <path
       id="path916"
       style="font-style:normal;font-variant:normal;font-weight:normal;font-stretch:normal;font-family:Orbitron;-inkscape-font-specification:Orbitron;fill:#383838;fill-opacity:1;stroke-width:0.167962"
       d="m 18.804549,20.429739 4.821195,-5.740286 h 1.789809 V 26.299021 H 24.109476 V 16.172898 l -5.304927,6.30464 -5.304927,-6.30464 V 26.299021 H 12.193545 V 14.689453 h 1.789809 z" />
    <path
       id="path918"
       style="font-style:normal;font-variant:normal;font-weight:normal;font-stretch:normal;font-family:Orbitron;-inkscape-font-specification:Orbitron;fill:#383838;fill-opacity:1;stroke-width:0.167962"
       d="M 27.16883,26.299021 V 14.689453 h 1.306076 v 11.609568 z" />
    <path
       id="path920"
       style="font-style:normal;font-variant:normal;font-weight:normal;font-stretch:normal;font-family:Orbitron;-inkscape-font-specification:Orbitron;fill:#383838;fill-opacity:1;stroke-width:0.167962"
       d="M 30.727534,26.299021 V 14.689453 h 1.306076 v 11.609568 z" />
    <path
       id="path922"
       style="font-style:normal;font-variant:normal;font-weight:normal;font-stretch:normal;font-family:Orbitron;-inkscape-font-specification:Orbitron;fill:#383838;fill-opacity:1;stroke-width:0.167962"
       d="m 36.237291,14.689453 h 7.739711 q 0.80622,0 1.370574,0.564354 0.564354,0.564354 0.564354,1.370574 v 9.67464 h -1.306076 v -4.240717 h -8.997415 v 4.240717 h -1.306076 v -9.67464 q 0,-0.80622 0.564354,-1.370574 0.564354,-0.564354 1.370574,-0.564354 z m -0.628852,6.062774 h 8.997415 v -4.127846 q 0,-0.25799 -0.193493,-0.435359 -0.177368,-0.193492 -0.435359,-0.193492 h -7.739711 q -0.257991,0 -0.451483,0.193492 -0.177369,0.177369 -0.177369,0.435359 z" />
    <path
       id="path924"
       style="font-style:normal;font-variant:normal;font-weight:normal;font-stretch:normal;font-family:Orbitron;-inkscape-font-specification:Orbitron;fill:#383838;fill-opacity:1;stroke-width:0.167962"
       d="m 49.039058,24.97682 v 1.322201 h -1.3222 V 24.97682 Z" />
    <path
       id="path926"
       style="font-style:normal;font-variant:normal;font-weight:normal;font-stretch:normal;font-family:Orbitron;-inkscape-font-specification:Orbitron;fill:#383838;fill-opacity:1;stroke-width:0.167962"
       d="m 53.180509,14.689453 h 7.739712 q 0.80622,0 1.370574,0.564354 0.564353,0.564354 0.564353,1.370574 v 9.67464 h -1.306076 v -4.240717 h -8.997415 v 4.240717 h -1.306076 v -9.67464 q 0,-0.80622 0.564354,-1.370574 0.564354,-0.564354 1.370574,-0.564354 z m -0.628852,6.062774 h 8.997415 v -4.127846 q 0,-0.25799 -0.193493,-0.435359 -0.177368,-0.193492 -0.435358,-0.193492 h -7.739712 q -0.25799,0 -0.451483,0.193492 -0.177369,0.177369 -0.177369,0.435359 z" />
    <path
       id="path928"
       style="font-style:normal;font-variant:normal;font-weight:normal;font-stretch:normal;font-family:Orbitron;-inkscape-font-specification:Orbitron;fill:#383838;fill-opacity:1;stroke-width:0.167962"
       d="M 64.708449,26.299021 V 14.689453 h 1.306076 v 11.609568 z" />
  </g>
  <g
     style="font-size:8.2482px;line-height:1.25;font-family:Montserrat;-inkscape-font-specification:Montserrat;fill:#383838;fill-opacity:1;stroke-width:0.085919"
     id="text948"
     aria-label="MACHINE RADIO VISION">
    <path
       id="path1003"
       style="font-style:normal;font-variant:normal;font-weight:normal;font-stretch:normal;font-size:3.43674px;font-family:Orbitron;-inkscape-font-specification:Orbitron;fill:#383838;fill-opacity:1;stroke-width:0.085919"
       d="m 21.744194,14.327017 1.027586,-1.223479 h 0.381478 v 2.474453 h -0.278376 v -2.158273 l -1.130688,1.343765 -1.130687,-1.343765 v 2.158273 h -0.278376 v -2.474453 h 0.381478 z" />
    <path
       id="path1005"
       style="font-style:normal;font-variant:normal;font-weight:normal;font-stretch:normal;font-size:3.43674px;font-family:Orbitron;-inkscape-font-specification:Orbitron;fill:#383838;fill-opacity:1;stroke-width:0.085919"
       d="m 23.942795,13.103538 h 1.649635 q 0.171837,0 0.292123,0.120286 0.120286,0.120286 0.120286,0.292123 v 2.062044 h -0.278376 v -0.903863 h -1.917701 v 0.903863 h -0.278376 v -2.062044 q 0,-0.171837 0.120286,-0.292123 0.120286,-0.120286 0.292123,-0.120286 z m -0.134033,1.292214 h 1.917701 v -0.879805 q 0,-0.05499 -0.04124,-0.09279 -0.0378,-0.04124 -0.09279,-0.04124 h -1.649635 q -0.05499,0 -0.09623,0.04124 -0.0378,0.0378 -0.0378,0.09279 z" />
    <path
       id="path1007"
       style="font-style:normal;font-variant:normal;font-weight:normal;font-stretch:normal;font-size:3.43674px;font-family:Orbitron;-inkscape-font-specification:Orbitron;fill:#383838;fill-opacity:1;stroke-width:0.085919"
       d="m 28.863991,13.381914 h -2.05517 q -0.05499,0 -0.09623,0.04124 -0.0378,0.0378 -0.0378,0.09279 v 1.649635 q 0,0.05499 0.0378,0.09623 0.04124,0.0378 0.09623,0.0378 h 2.05517 v 0.278376 h -2.05517 q -0.171837,0 -0.292123,-0.120286 -0.120286,-0.120286 -0.120286,-0.292123 v -1.649635 q 0,-0.171837 0.120286,-0.292123 0.120286,-0.120286 0.292123,-0.120286 h 2.05517 z" />
    <path
       id="path1009"
       style="font-style:normal;font-variant:normal;font-weight:normal;font-stretch:normal;font-size:3.43674px;font-family:Orbitron;-inkscape-font-specification:Orbitron;fill:#383838;fill-opacity:1;stroke-width:0.085919"
       d="m 31.480264,13.103538 h 0.281812 v 2.474453 H 31.480264 V 14.48167 h -1.976126 v 1.096321 h -0.278376 v -2.474453 h 0.278376 v 1.09632 h 1.976126 z" />
    <path
       id="path1011"
       style="font-style:normal;font-variant:normal;font-weight:normal;font-stretch:normal;font-size:3.43674px;font-family:Orbitron;-inkscape-font-specification:Orbitron;fill:#383838;fill-opacity:1;stroke-width:0.085919"
       d="m 32.152361,15.577991 v -2.474453 h 0.278376 v 2.474453 z" />
    <path
       id="path1013"
       style="font-style:normal;font-variant:normal;font-weight:normal;font-stretch:normal;font-size:3.43674px;font-family:Orbitron;-inkscape-font-specification:Orbitron;fill:#383838;fill-opacity:1;stroke-width:0.085919"
       d="m 35.1035,15.26181 v -2.158272 h 0.278376 v 2.474453 h -0.381478 l -1.814599,-2.158273 v 2.158273 h -0.278376 v -2.474453 h 0.381478 z" />
    <path
       id="path1015"
       style="font-style:normal;font-variant:normal;font-weight:normal;font-stretch:normal;font-size:3.43674px;font-family:Orbitron;-inkscape-font-specification:Orbitron;fill:#383838;fill-opacity:1;stroke-width:0.085919"
       d="m 38.03171,13.103538 v 0.278376 h -1.979562 v 0.817944 h 1.59121 v 0.281812 h -1.59121 v 0.817945 h 1.979562 v 0.278376 h -2.257938 v -2.474453 z" />
    <path
       id="path1017"
       style="font-style:normal;font-variant:normal;font-weight:normal;font-stretch:normal;font-size:3.43674px;font-family:Orbitron;-inkscape-font-specification:Orbitron;fill:#383838;fill-opacity:1;stroke-width:0.085919"
       d="m 41.802189,13.519383 v 0.725152 q 0,0.171837 -0.120286,0.292123 -0.120286,0.120286 -0.292123,0.120286 h -0.378041 l 0.776703,0.921047 h -0.367731 l -0.773266,-0.921047 h -0.9073 q -0.03093,0 -0.134033,-0.01375 v 0.934794 h -0.278376 v -2.471016 h 2.062044 q 0.171837,0 0.292123,0.120285 0.120286,0.120286 0.120286,0.292123 z m -2.062044,0.855749 h 1.649635 q 0.05499,0 0.09279,-0.03781 0.03781,-0.0378 0.03781,-0.09279 v -0.725152 q 0,-0.05499 -0.03781,-0.09279 -0.0378,-0.04124 -0.09279,-0.04124 h -1.649635 q -0.05499,0 -0.09623,0.04124 -0.0378,0.0378 -0.0378,0.09279 v 0.725152 q 0,0.05499 0.0378,0.09279 0.04124,0.03781 0.09623,0.03781 z" />
    <path
       id="path1019"
       style="font-style:normal;font-variant:normal;font-weight:normal;font-stretch:normal;font-size:3.43674px;font-family:Orbitron;-inkscape-font-specification:Orbitron;fill:#383838;fill-opacity:1;stroke-width:0.085919"
       d="m 42.583082,13.103538 h 1.649635 q 0.171837,0 0.292123,0.120286 0.120286,0.120286 0.120286,0.292123 v 2.062044 H 44.36675 v -0.903863 h -1.917701 v 0.903863 h -0.278376 v -2.062044 q 0,-0.171837 0.120286,-0.292123 0.120286,-0.120286 0.292123,-0.120286 z m -0.134033,1.292214 h 1.917701 v -0.879805 q 0,-0.05499 -0.04124,-0.09279 -0.0378,-0.04124 -0.09279,-0.04124 h -1.649635 q -0.05499,0 -0.09623,0.04124 -0.0378,0.0378 -0.0378,0.09279 z" />
    <path
       id="path1021"
       style="font-style:normal;font-variant:normal;font-weight:normal;font-stretch:normal;font-size:3.43674px;font-family:Orbitron;-inkscape-font-specification:Orbitron;fill:#383838;fill-opacity:1;stroke-width:0.085919"
       d="m 45.043573,13.103538 h 2.062044 q 0.171837,0 0.292123,0.120286 0.120286,0.120286 0.120286,0.292123 v 1.649635 q 0,0.171837 -0.120286,0.292123 -0.120286,0.120286 -0.292123,0.120286 h -2.062044 z m 2.196077,2.062044 v -1.649635 q 0,-0.05499 -0.04124,-0.09279 -0.0378,-0.04124 -0.09279,-0.04124 h -1.649635 q -0.05499,0 -0.09623,0.04124 -0.0378,0.0378 -0.0378,0.09279 v 1.649635 q 0,0.05499 0.0378,0.09623 0.04124,0.0378 0.09623,0.0378 h 1.649635 q 0.05499,0 0.09279,-0.0378 0.04124,-0.04124 0.04124,-0.09623 z" />
    <path
       id="path1023"
       style="font-style:normal;font-variant:normal;font-weight:normal;font-stretch:normal;font-size:3.43674px;font-family:Orbitron;-inkscape-font-specification:Orbitron;fill:#383838;fill-opacity:1;stroke-width:0.085919"
       d="m 47.906322,15.577991 v -2.474453 h 0.278376 v 2.474453 z" />
    <path
       id="path1025"
       style="font-style:normal;font-variant:normal;font-weight:normal;font-stretch:normal;font-size:3.43674px;font-family:Orbitron;-inkscape-font-specification:Orbitron;fill:#383838;fill-opacity:1;stroke-width:0.085919"
       d="m 49.06692,13.103538 h 1.649635 q 0.171837,0 0.292123,0.120286 0.120286,0.120286 0.120286,0.292123 v 1.649635 q 0,0.171837 -0.120286,0.292123 -0.120286,0.120286 -0.292123,0.120286 H 49.06692 q -0.171837,0 -0.292123,-0.120286 -0.120286,-0.120286 -0.120286,-0.292123 v -1.649635 q 0,-0.171837 0.120286,-0.292123 0.120286,-0.120286 0.292123,-0.120286 z m 0,2.196077 h 1.649635 q 0.05499,0 0.09279,-0.0378 0.04124,-0.04124 0.04124,-0.09623 v -1.649635 q 0,-0.05499 -0.04124,-0.09279 -0.0378,-0.04124 -0.09279,-0.04124 H 49.06692 q -0.05499,0 -0.09623,0.04124 -0.0378,0.0378 -0.0378,0.09279 v 1.649635 q 0,0.05499 0.0378,0.09623 0.04124,0.0378 0.09623,0.0378 z" />
    <path
       id="path1027"
       style="font-style:normal;font-variant:normal;font-weight:normal;font-stretch:normal;font-size:3.43674px;font-family:Orbitron;-inkscape-font-specification:Orbitron;fill:#383838;fill-opacity:1;stroke-width:0.085919"
       d="m 53.962934,15.306488 1.264721,-2.20295 h 0.32649 l -1.429684,2.474453 h -0.323053 l -1.433121,-2.474453 h 0.32649 z" />
    <path
       id="path1029"
       style="font-style:normal;font-variant:normal;font-weight:normal;font-stretch:normal;font-size:3.43674px;font-family:Orbitron;-inkscape-font-specification:Orbitron;fill:#383838;fill-opacity:1;stroke-width:0.085919"
       d="m 55.89406,15.577991 v -2.474453 h 0.278376 v 2.474453 z" />
    <path
       id="path1031"
       style="font-style:normal;font-variant:normal;font-weight:normal;font-stretch:normal;font-size:3.43674px;font-family:Orbitron;-inkscape-font-specification:Orbitron;fill:#383838;fill-opacity:1;stroke-width:0.085919"
       d="m 59.106392,13.515947 v 0.09623 h -0.278376 v -0.09623 q 0,-0.05499 -0.04124,-0.09279 -0.0378,-0.04124 -0.09279,-0.04124 h -1.649635 q -0.05499,0 -0.09623,0.04124 -0.0378,0.0378 -0.0378,0.09279 v 0.553315 q 0,0.05499 0.0378,0.09279 0.04124,0.0378 0.09623,0.0378 h 1.649635 q 0.171837,0 0.292123,0.120286 0.120286,0.120286 0.120286,0.292123 v 0.553315 q 0,0.171837 -0.120286,0.292123 -0.120286,0.120286 -0.292123,0.120286 h -1.649635 q -0.171837,0 -0.292123,-0.120286 -0.120286,-0.120286 -0.120286,-0.292123 v -0.09623 h 0.278376 v 0.09623 q 0,0.05499 0.0378,0.09623 0.04124,0.0378 0.09623,0.0378 h 1.649635 q 0.05499,0 0.09279,-0.0378 0.04124,-0.04124 0.04124,-0.09623 v -0.553315 q 0,-0.05499 -0.04124,-0.09279 -0.0378,-0.03781 -0.09279,-0.03781 h -1.649635 q -0.171837,0 -0.292123,-0.120285 -0.120286,-0.120286 -0.120286,-0.292123 v -0.553315 q 0,-0.171837 0.120286,-0.292123 0.120286,-0.120286 0.292123,-0.120286 h 1.649635 q 0.171837,0 0.292123,0.120286 0.120286,0.120286 0.120286,0.292123 z" />
    <path
       id="path1033"
       style="font-style:normal;font-variant:normal;font-weight:normal;font-stretch:normal;font-size:3.43674px;font-family:Orbitron;-inkscape-font-specification:Orbitron;fill:#383838;fill-opacity:1;stroke-width:0.085919"
       d="m 59.478472,15.577991 v -2.474453 h 0.278376 v 2.474453 z" />
    <path
       id="path1035"
       style="font-style:normal;font-variant:normal;font-weight:normal;font-stretch:normal;font-size:3.43674px;font-family:Orbitron;-inkscape-font-specification:Orbitron;fill:#383838;fill-opacity:1;stroke-width:0.085919"
       d="m 60.639069,13.103538 h 1.649636 q 0.171837,0 0.292122,0.120286 0.120286,0.120286 0.120286,0.292123 v 1.649635 q 0,0.171837 -0.120286,0.292123 -0.120285,0.120286 -0.292122,0.120286 h -1.649636 q -0.171837,0 -0.292122,-0.120286 -0.120286,-0.120286 -0.120286,-0.292123 v -1.649635 q 0,-0.171837 0.120286,-0.292123 0.120285,-0.120286 0.292122,-0.120286 z m 0,2.196077 h 1.649636 q 0.05499,0 0.09279,-0.0378 0.04124,-0.04124 0.04124,-0.09623 v -1.649635 q 0,-0.05499 -0.04124,-0.09279 -0.03781,-0.04124 -0.09279,-0.04124 h -1.649636 q -0.05499,0 -0.09623,0.04124 -0.0378,0.0378 -0.0378,0.09279 v 1.649635 q 0,0.05499 0.0378,0.09623 0.04124,0.0378 0.09623,0.0378 z" />
    <path
       id="path1037"
       style="font-style:normal;font-variant:normal;font-weight:normal;font-stretch:normal;font-size:3.43674px;font-family:Orbitron;-inkscape-font-specification:Orbitron;fill:#383838;fill-opacity:1;stroke-width:0.085919"
       d="m 65.275661,15.26181 v -2.158272 h 0.278376 v 2.474453 H 65.172559 L 63.35796,13.419718 v 2.158273 h -0.278376 v -2.474453 h 0.381478 z" />
  </g>
</svg>
