<svg id="Layer_1" data-name="Layer 1" xmlns="http://www.w3.org/2000/svg"  viewBox="-2 -2 22 22">
  <title>9</title>
  <path d="M6.43,6a5,5,0,0,1,1.08.12,5.07,5.07,0,0,1,4,4.94c0,.15,0,.29,0,.43a5,5,0,0,1-.7,2.15,2,2,0,0,1-.17.27s0,0,0,0a3.54,3.54,0,0,1-.23.31,5.07,5.07,0,0,1-2.45,1.67l-.85,1.26-.25.37a.49.49,0,0,1-.38.19.44.44,0,0,1-.38-.2l-.16-.23a0,0,0,0,0,0,0L5,15.88A5.07,5.07,0,0,1,6.43,6m0,7.18a2.1,2.1,0,0,0,2-1.33A1.93,1.93,0,0,0,8.56,11a2.12,2.12,0,1,0-2.12,2.12" style="fill: #383838"/>
  <rect x="-5.24" y="-5.76" width="29.42" height="30.17" style="fill: none;stroke: #e30613;stroke-miterlimit: 10;stroke-width: 0.25px"/>
  <path d="M12.15,5.91A4.38,4.38,0,0,1,13,6a4.17,4.17,0,0,1,3.27,4,4.24,4.24,0,0,1-.92,2.6,4.11,4.11,0,0,1-1.68,1.25l-1.12,1.64a.48.48,0,0,1-.41.21.5.5,0,0,1-.42-.22l-.82-1.21.18-.25a4.81,4.81,0,0,0,.26-.45,5.39,5.39,0,0,0,.61-2,.55.55,0,0,0,.18,0,1.55,1.55,0,0,0,0-3.1,1.59,1.59,0,0,0-.69.16,5.62,5.62,0,0,0-1.64-2,4.15,4.15,0,0,1,2.32-.71" style="fill: #383838"/>
</svg>
