<svg id="Layer_1" data-name="Layer 1" xmlns="http://www.w3.org/2000/svg"  viewBox="-2 -2 22 22">
  <title>9</title>
  <path d="M7,3.45a6.4,6.4,0,0,1,1.39.15,6.59,6.59,0,0,1,4.58,3.7A6.45,6.45,0,0,1,13.51,10c0,.19,0,.37,0,.55a6.41,6.41,0,0,1-.9,2.77,2.59,2.59,0,0,1-.22.35s0,0,0,0a4.56,4.56,0,0,1-.3.4,6.54,6.54,0,0,1-3.16,2.15L7.8,17.86l-.32.48a.63.63,0,0,1-.49.25.57.57,0,0,1-.49-.26L6.29,18a0,0,0,0,0,0,0L5.06,16.24A6.54,6.54,0,0,1,7,3.45m0,9.26A2.7,2.7,0,0,0,9.5,11a2.48,2.48,0,0,0,.21-1A2.73,2.73,0,1,0,7,12.71" style="fill: #383838"/>
  <rect x="-5.24" y="-5.76" width="29.42" height="30.17" style="fill: none;stroke: #e30613;stroke-miterlimit: 10;stroke-width: 0.25px"/>
  <path d="M14.34,3.39a5.65,5.65,0,0,1,1.13.12,5.37,5.37,0,0,1,4.22,5.21,5.47,5.47,0,0,1-1.19,3.35,5.3,5.3,0,0,1-2.17,1.61l-1.44,2.11a.62.62,0,0,1-.53.27.64.64,0,0,1-.54-.28l-1.06-1.56L13,13.9a6.2,6.2,0,0,0,.34-.58,7,7,0,0,0,.79-2.62.71.71,0,0,0,.23,0,2,2,0,0,0,0-4,2.05,2.05,0,0,0-.89.21A7.24,7.24,0,0,0,11.34,4.3a5.35,5.35,0,0,1,3-.92" style="fill: #cecece"/>
</svg>

