<svg id="Layer_1" data-name="Layer 1" xmlns="http://www.w3.org/2000/svg"  viewBox="-2 -2 22 22">
  <title>9</title>
  <rect  style="fill: #fff"/>
  <g>
    <path d="M15.29,7.33A2.32,2.32,0,0,1,17.6,9.64h0a2.33,2.33,0,0,1-1.83,2.27.24.24,0,0,0-.14.08l-.23.3a.15.15,0,0,1-.22,0l0,0-.23-.3a.24.24,0,0,0-.14-.08,2.31,2.31,0,0,1,.49-4.57" style="fill: #383838"/>
    <path d="M15.29,8.89a.75.75,0,1,1-.75.75.75.75,0,0,1,.75-.75" style="fill: #fff"/>
  </g>
  <path d="M12.16,5.13l.27,0a1.27,1.27,0,0,1,1,1.24h0a1.28,1.28,0,0,1-1,1.24.13.13,0,0,0-.07,0l-.13.16a.08.08,0,0,1-.06,0l-.05,0h0L12,7.68a.13.13,0,0,0-.07,0,1.27,1.27,0,0,1,.27-2.51" style="fill: #383838"/>
  <g>
    <path d="M8.92,7.94A4.13,4.13,0,0,1,13,12.05h0a4.15,4.15,0,0,1-3.25,4,.42.42,0,0,0-.24.15l-.42.53a.27.27,0,0,1-.39,0l0,0-.42-.53a.42.42,0,0,0-.24-.15,4.12,4.12,0,0,1,.87-8.15" style="fill: #3d85c6"/>
    <path d="M8.93,10a2.08,2.08,0,1,1-2.08,2.08A2.08,2.08,0,0,1,8.93,10" style="fill: #fff"/>
  </g>
</svg>
