<svg id="Layer_1" data-name="Layer 1" xmlns="http://www.w3.org/2000/svg"  viewBox="-2 -2 22 22">
<title>9</title>
  <rect x="-5.42" y="-5.76" width="29.42" height="30.17" style="fill: none;stroke: #e30613;stroke-miterlimit: 10;stroke-width: 0.25px"/>
  <g>
    <g>
      <path d="M6.67,6.18a4.95,4.95,0,0,1,4.95,4.93h0A5,5,0,0,1,7.72,16a.51.51,0,0,0-.29.18l-.5.63a.33.33,0,0,1-.46,0l0,0-.5-.63A.51.51,0,0,0,5.63,16a4.94,4.94,0,0,1,1-9.78Z" style="fill: #3d85c6"/>
      <path d="M6.68,8.08a3,3,0,1,1-3,3A3,3,0,0,1,6.68,8.08Z" style="fill: #fff"/>
    </g>
    <path d="M5.14,15.71H8.21L7.05,17.43a.44.44,0,0,1-.37.19.45.45,0,0,1-.37-.19L5.14,15.71" style="fill: #3d85c6"/>
  </g>
  <g>
    <g>
      <path d="M13.69,3.72a2.82,2.82,0,0,1,2.82,2.81h0a2.84,2.84,0,0,1-2.22,2.76.29.29,0,0,0-.17.1l-.29.36a.19.19,0,0,1-.26,0l0,0-.29-.36a.29.29,0,0,0-.17-.1,2.82,2.82,0,0,1,.59-5.57Z" style="fill: #cecece"/>
      <path d="M13.69,5.43a1.1,1.1,0,1,1-1.1,1.1A1.1,1.1,0,0,1,13.69,5.43Z" style="fill: #fff"/>
    </g>
    <path d="M12.52,9h2.34L14,10.26a.33.33,0,0,1-.28.14.34.34,0,0,1-.28-.14L12.52,9" style="fill: #cecece"/>
  </g>
  <g>
    <path d="M9.44,2.62A1.43,1.43,0,0,1,10.88,4h0a1.44,1.44,0,0,1-1.13,1.4.15.15,0,0,0-.08.05l-.15.18a.09.09,0,0,1-.07,0l-.06,0h0L9.22,5.5a.15.15,0,0,0-.08-.05,1.43,1.43,0,0,1,.3-2.83Z" style="fill: #383838"/>
    <path d="M8.84,5.27h1.22L9.59,6A.17.17,0,0,1,9.45,6a.18.18,0,0,1-.15-.07l-.46-.68" style="fill: #383838"/>
  </g>
</svg>
