<svg id="Layer_1" data-name="Layer 1" xmlns="http://www.w3.org/2000/svg"  viewBox="-2 -2 22 22">
  <title>9</title>
  <path d="M7.13,4.33a5.65,5.65,0,0,1,1.23.14,5.78,5.78,0,0,1,4.56,5.63c0,.17,0,.33,0,.49A5.66,5.66,0,0,1,12.1,13a2.29,2.29,0,0,1-.19.31s0,0,0,0a4,4,0,0,1-.26.35,5.77,5.77,0,0,1-2.79,1.9l-1,1.44-.28.42a.56.56,0,0,1-.43.22.51.51,0,0,1-.43-.23l-.18-.26a0,0,0,0,0,0,0L5.46,15.63A5.77,5.77,0,0,1,7.13,4.33m0,8.18A2.39,2.39,0,0,0,9.38,11a2.19,2.19,0,0,0,.18-.9,2.41,2.41,0,1,0-2.41,2.41" style="fill: #383838"/>
  <rect x="-5.24" y="-5.76" width="29.42" height="30.17" style="fill: none;stroke: #e30613;stroke-miterlimit: 10;stroke-width: 0.25px"/>
  <path d="M13.65,4.28a5,5,0,0,1,1,.1A4.75,4.75,0,0,1,18.38,9a4.83,4.83,0,0,1-1,3,4.68,4.68,0,0,1-1.91,1.42l-1.28,1.87a.55.55,0,0,1-.47.24.57.57,0,0,1-.48-.25l-.93-1.38.21-.28a5.48,5.48,0,0,0,.3-.51,6.14,6.14,0,0,0,.69-2.31.63.63,0,0,0,.21,0,1.77,1.77,0,0,0,0-3.53,1.81,1.81,0,0,0-.79.18A6.4,6.4,0,0,0,11,5.08a4.73,4.73,0,0,1,2.64-.81" style="fill: #cecece"/>
</svg>
