<svg id="Layer_1" data-name="Layer 1" xmlns="http://www.w3.org/2000/svg" width="25" height="25" viewBox="0 0 25 25">
  <title>Значки радар и тп</title>
  <path d="M12.56,6a1.92,1.92,0,0,1,2,1.82v4a1.92,1.92,0,0,1-2,1.82,1.92,1.92,0,0,1-2-1.82v-4a1.92,1.92,0,0,1,2-1.82m0-2.5A4.42,4.42,0,0,0,8.05,7.85v4a4.42,4.42,0,0,0,4.51,4.32,4.42,4.42,0,0,0,4.51-4.32v-4a4.42,4.42,0,0,0-4.51-4.32Z" style="fill: #3D85C6"/>
  <path d="M20.44,13.21a8,8,0,0,1-6.63,6.32v1.16a1.25,1.25,0,0,1-2.5,0V19.53a8,8,0,0,1-6.63-6.32,1.25,1.25,0,0,1,2.44-.5,5.56,5.56,0,0,0,10.88,0,1.25,1.25,0,0,1,2.44.5Z" style="fill: #3D85C6"/>
</svg>
