<svg id="в_кривых" data-name="в кривых" xmlns="http://www.w3.org/2000/svg" width="29" height="29" viewBox="0 0 29 29">
  <title>местоположение</title>
  <path d="M24.81,13.76H23.39a.42.42,0,0,1-.41-.37,8.36,8.36,0,0,0-7.15-7.15.42.42,0,0,1-.37-.41V4.41A.43.43,0,0,1,15.94,4a10.67,10.67,0,0,1,9.3,9.3.43.43,0,0,1-.43.48Z" style="fill: #6b6b69"/>
  <path d="M21.09,13.76H19.67a.42.42,0,0,1-.41-.33,4.72,4.72,0,0,0-3.48-3.49.42.42,0,0,1-.33-.41V8.12a.44.44,0,0,1,.16-.33A.43.43,0,0,1,16,7.69a6.9,6.9,0,0,1,5.55,5.56.42.42,0,0,1-.09.34A.44.44,0,0,1,21.09,13.76Z" style="fill: #6b6b69"/>
  <path d="M14.71,23.23a1.11,1.11,0,0,1-1.12-1.12v-.76l-.64-.13a6.77,6.77,0,0,1-5-5c0-.2-.08-.38-.11-.55H7.1A1.13,1.13,0,0,1,6,14.51,1.11,1.11,0,0,1,7.1,13.38h.78A6.86,6.86,0,0,1,13.47,7.7a.43.43,0,0,1,.5.42V9.55a.41.41,0,0,1-.33.4,4.7,4.7,0,0,0-3.43,5.86A4.61,4.61,0,0,0,13.45,19a4.68,4.68,0,0,0,5.81-3.43.43.43,0,0,1,.41-.34H21a.59.59,0,0,1,.46.18.4.4,0,0,1,.09.33h0a6.88,6.88,0,0,1-5.67,5.58v.77A1.13,1.13,0,0,1,14.71,23.23Z" style="fill: #6b6b69"/>
  <circle cx="14.71" cy="14.5" r="2.77" style="fill: #6b6b69"/>
</svg>
