<svg id="в_кривых" data-name="в кривых" xmlns="http://www.w3.org/2000/svg" width="29" height="29" viewBox="0 0 29 29">
  <title>местоположение</title>
  <circle cx="14.71" cy="14.5" r="2.77" style="fill: #6B6B69"/>
  <g>
    <path d="M24.81,13.63H23.39a.29.29,0,0,1-.29-.26,8.5,8.5,0,0,0-7.26-7.26.29.29,0,0,1-.26-.29V4.41a.31.31,0,0,1,.34-.3,10.48,10.48,0,0,1,9.19,9.19A.31.31,0,0,1,24.81,13.63Z" style="fill: #6B6B69"/>
    <path d="M21.09,13.63H19.67a.3.3,0,0,1-.29-.23,4.83,4.83,0,0,0-3.57-3.58.3.3,0,0,1-.23-.29V8.12a.31.31,0,0,1,.35-.3,6.78,6.78,0,0,1,5.45,5.46A.31.31,0,0,1,21.09,13.63Z" style="fill: #6B6B69"/>
  </g>
  <path d="M21.38,15.72a6.8,6.8,0,0,1-5.67,5.5v.88a1,1,0,0,1-2,0v-.87c-.25,0-.49-.09-.74-.15a6.6,6.6,0,0,1-4.86-4.93c0-.22-.09-.43-.12-.65H7.1a1,1,0,0,1,0-2H8a6.77,6.77,0,0,1,5.5-5.68.3.3,0,0,1,.35.3V9.55a.29.29,0,0,1-.23.28,4.82,4.82,0,0,0-3.52,6,4.8,4.8,0,0,0,9.28-.23.3.3,0,0,1,.29-.24H21C21.26,15.37,21.41,15.53,21.38,15.72Z" style="fill: #6B6B69"/>
</svg>
