<?xml version="1.0" encoding="UTF-8" standalone="no"?>
<svg
   xmlns:dc="http://purl.org/dc/elements/1.1/"
   xmlns:cc="http://creativecommons.org/ns#"
   xmlns:rdf="http://www.w3.org/1999/02/22-rdf-syntax-ns#"
   xmlns:svg="http://www.w3.org/2000/svg"
   xmlns="http://www.w3.org/2000/svg"
   xmlns:sodipodi="http://sodipodi.sourceforge.net/DTD/sodipodi-0.dtd"
   xmlns:inkscape="http://www.inkscape.org/namespaces/inkscape"
   sodipodi:docname="navilright10m.svg"
   inkscape:version="1.0 (4035a4fb49, 2020-05-01)"
   id="svg857"
   version="1.1"
   viewBox="0 0 31 43"
   height="43mm"
   width="31mm">
  <defs
     id="defs851">
    <marker
       inkscape:isstock="true"
       style="overflow:visible"
       id="marker8131"
       refX="0"
       refY="0"
       orient="auto"
       inkscape:stockid="TriangleOutL">
      <path
         transform="scale(0.8)"
         style="fill:#000000;fill-opacity:1;fill-rule:evenodd;stroke:#000000;stroke-width:1pt;stroke-opacity:1"
         d="M 5.77,0 -2.88,5 V -5 Z"
         id="path8129" />
    </marker>
    <marker
       inkscape:isstock="true"
       style="overflow:visible"
       id="marker8079"
       refX="0"
       refY="0"
       orient="auto"
       inkscape:stockid="Arrow2Mend">
      <path
         transform="scale(-0.6)"
         d="M 8.7185878,4.0337352 -2.2072895,0.01601326 8.7185884,-4.0017078 c -1.7454984,2.3720609 -1.7354408,5.6174519 -6e-7,8.035443 z"
         style="fill:#000000;fill-opacity:1;fill-rule:evenodd;stroke:#000000;stroke-width:0.625;stroke-linejoin:round;stroke-opacity:1"
         id="path8077" />
    </marker>
    <marker
       inkscape:isstock="true"
       style="overflow:visible"
       id="Arrow2Mend"
       refX="0"
       refY="0"
       orient="auto"
       inkscape:stockid="Arrow2Mend">
      <path
         transform="scale(-0.6)"
         d="M 8.7185878,4.0337352 -2.2072895,0.01601326 8.7185884,-4.0017078 c -1.7454984,2.3720609 -1.7354408,5.6174519 -6e-7,8.035443 z"
         style="fill:#000000;fill-opacity:1;fill-rule:evenodd;stroke:#000000;stroke-width:0.625;stroke-linejoin:round;stroke-opacity:1"
         id="path7191" />
    </marker>
    <marker
       inkscape:isstock="true"
       style="overflow:visible"
       id="Arrow2Lend"
       refX="0"
       refY="0"
       orient="auto"
       inkscape:stockid="Arrow2Lend">
      <path
         transform="matrix(-1.1,0,0,-1.1,-1.1,0)"
         d="M 8.7185878,4.0337352 -2.2072895,0.01601326 8.7185884,-4.0017078 c -1.7454984,2.3720609 -1.7354408,5.6174519 -6e-7,8.035443 z"
         style="fill:#000000;fill-opacity:1;fill-rule:evenodd;stroke:#000000;stroke-width:0.625;stroke-linejoin:round;stroke-opacity:1"
         id="path7185" />
    </marker>
    <marker
       inkscape:isstock="true"
       id="ExperimentalArrow"
       refX="5"
       refY="3"
       orient="auto-start-reverse"
       inkscape:stockid="ExperimentalArrow">
      <path
         style="fill:context-stroke;stroke:#000000;stroke-opacity:1"
         d="M 10,3 0,6 V 0 Z"
         id="path7417" />
    </marker>
    <marker
       inkscape:isstock="true"
       style="overflow:visible"
       id="TriangleOutL"
       refX="0"
       refY="0"
       orient="auto"
       inkscape:stockid="TriangleOutL">
      <path
         transform="scale(0.8)"
         style="fill:#000000;fill-opacity:1;fill-rule:evenodd;stroke:#000000;stroke-width:1pt;stroke-opacity:1"
         d="M 5.77,0 -2.88,5 V -5 Z"
         id="path7306" />
    </marker>
    <marker
       inkscape:isstock="true"
       style="overflow:visible"
       id="EmptyTriangleOutL"
       refX="0"
       refY="0"
       orient="auto"
       inkscape:stockid="EmptyTriangleOutL">
      <path
         transform="matrix(0.8,0,0,0.8,-4.8,0)"
         style="fill:#ffffff;fill-rule:evenodd;stroke:#000000;stroke-width:1pt;stroke-opacity:1"
         d="M 5.77,0 -2.88,5 V -5 Z"
         id="path7324" />
    </marker>
    <marker
       inkscape:stockid="ExperimentalArrow"
       orient="auto-start-reverse"
       refY="3"
       refX="5"
       id="ExperimentalArrow-3"
       inkscape:isstock="true">
      <path
         id="path7417-6"
         d="M 10,3 0,6 V 0 Z"
         style="fill:context-stroke;stroke:#000000;stroke-opacity:1" />
    </marker>
  </defs>
  <sodipodi:namedview
     inkscape:window-maximized="0"
     inkscape:window-y="0"
     inkscape:window-x="0"
     inkscape:window-height="1024"
     inkscape:window-width="1898"
     showgrid="false"
     inkscape:document-rotation="0"
     inkscape:current-layer="layer1"
     inkscape:document-units="mm"
     inkscape:cy="235.47803"
     inkscape:cx="413.33991"
     inkscape:zoom="1.4"
     inkscape:pageshadow="2"
     inkscape:pageopacity="0.0"
     borderopacity="1.0"
     bordercolor="#666666"
     pagecolor="#ffffff"
     id="base" />
  <metadata
     id="metadata854">
    <rdf:RDF>
      <cc:Work
         rdf:about="">
        <dc:format>image/svg+xml</dc:format>
        <dc:type
           rdf:resource="http://purl.org/dc/dcmitype/StillImage" />
        <dc:title />
      </cc:Work>
    </rdf:RDF>
  </metadata>
  <g
     id="layer1"
     inkscape:groupmode="layer"
     inkscape:label="Слой 1">
    <g
       transform="translate(3.401784)"
       id="g8229">
      <path
         id="path7162-0"
         d="M 12.240243,26.318747 12.077518,9.606499 h 7.648134"
         style="fill:none;stroke:#3d85c6;stroke-width:5.02774;stroke-linecap:round;stroke-linejoin:round;stroke-miterlimit:4;stroke-dasharray:none;stroke-opacity:1" />
      <path
         d="m -212.42262,150.43452 7.37345,-131.257061 109.985227,72.014132 z"
         sodipodi:type="star"
         style="fill:#3d85c6;fill-opacity:1;stroke:#3d85c6;stroke-width:10.965;stroke-linecap:round;stroke-linejoin:round;stroke-miterlimit:4;stroke-dasharray:none;stroke-opacity:1;paint-order:markers fill stroke"
         id="path8207"
         sodipodi:sides="3"
         sodipodi:cx="-170.84525"
         sodipodi:cy="86.934525"
         sodipodi:r1="75.90078"
         sodipodi:r2="37.950394"
         sodipodi:arg1="2.1505118"
         sodipodi:arg2="3.1977094"
         inkscape:flatsided="true"
         inkscape:rounded="0"
         inkscape:randomized="0"
         inkscape:transform-center-x="-3.8814865"
         inkscape:transform-center-y="0.001250458"
         transform="matrix(0.05620307,-0.0035009,0.0031468,0.0737857,30.921909,2.483779)" />
    </g>
    <g
       style="font-style:normal;font-variant:normal;font-weight:bold;font-stretch:normal;font-size:7.05556px;line-height:1.25;font-family:Montserrat;-inkscape-font-specification:'Montserrat Bold';fill:#3d85c6;fill-opacity:1;stroke:#3d85c6;stroke-width:0;stroke-miterlimit:4;stroke-dasharray:none;stroke-opacity:1"
       id="text15410"
       aria-label="10 м">
      <g
         style="opacity:1"
         id="g916">
        <path
           id="path918"
           d="m 10.583469,33.704621 v 4.938892 H 9.4404686 v -4.02167 H 8.4526902 v -0.917222 z"
           style="color:#000000;font-style:normal;font-variant:normal;font-weight:bold;font-stretch:normal;font-size:7.05556px;line-height:1.25;font-family:Montserrat;-inkscape-font-specification:'Montserrat Bold';font-variant-ligatures:normal;font-variant-position:normal;font-variant-caps:normal;font-variant-numeric:normal;font-variant-alternates:normal;font-variant-east-asian:normal;font-feature-settings:normal;font-variation-settings:normal;text-indent:0;text-align:start;text-decoration:none;text-decoration-line:none;text-decoration-style:solid;text-decoration-color:#000000;letter-spacing:normal;word-spacing:normal;text-transform:none;writing-mode:lr-tb;direction:ltr;text-orientation:mixed;dominant-baseline:auto;baseline-shift:baseline;text-anchor:start;white-space:normal;shape-padding:0;shape-margin:0;inline-size:0;clip-rule:nonzero;display:inline;overflow:visible;visibility:visible;isolation:auto;mix-blend-mode:normal;color-interpolation:sRGB;color-interpolation-filters:linearRGB;solid-color:#000000;solid-opacity:1;vector-effect:none;fill:#3d85c6;fill-opacity:1;fill-rule:nonzero;stroke:none;stroke-width:0;stroke-linecap:butt;stroke-linejoin:miter;stroke-miterlimit:4;stroke-dasharray:none;stroke-dashoffset:0;stroke-opacity:1.0;color-rendering:auto;image-rendering:auto;shape-rendering:auto;text-rendering:auto;enable-background:accumulate;stop-color:#000000;stop-opacity:1;" />
        <path
           id="path920"
           d="M 8.4375 33.689453 L 8.4375 34.638672 L 9.4238281 34.638672 L 9.4238281 38.660156 L 10.599609 38.660156 L 10.599609 33.689453 L 10.583984 33.689453 L 8.4375 33.689453 z M 8.46875 33.720703 L 10.568359 33.720703 L 10.568359 38.626953 L 9.4570312 38.626953 L 9.4570312 34.605469 L 8.46875 34.605469 L 8.46875 33.720703 z "
           style="color:#000000;font-style:normal;font-variant:normal;font-weight:bold;font-stretch:normal;font-size:7.05556px;line-height:1.25;font-family:Montserrat;-inkscape-font-specification:'Montserrat Bold';font-variant-ligatures:normal;font-variant-position:normal;font-variant-caps:normal;font-variant-numeric:normal;font-variant-alternates:normal;font-variant-east-asian:normal;font-feature-settings:normal;font-variation-settings:normal;text-indent:0;text-align:start;text-decoration:none;text-decoration-line:none;text-decoration-style:solid;text-decoration-color:#000000;letter-spacing:normal;word-spacing:normal;text-transform:none;writing-mode:lr-tb;direction:ltr;text-orientation:mixed;dominant-baseline:auto;baseline-shift:baseline;text-anchor:start;white-space:normal;shape-padding:0;shape-margin:0;inline-size:0;clip-rule:nonzero;display:inline;overflow:visible;visibility:visible;isolation:auto;mix-blend-mode:normal;color-interpolation:sRGB;color-interpolation-filters:linearRGB;solid-color:#000000;solid-opacity:1;vector-effect:none;fill:#3d85c6;fill-opacity:1;fill-rule:nonzero;stroke:none;stroke-width:0;stroke-linecap:butt;stroke-linejoin:miter;stroke-miterlimit:4;stroke-dasharray:none;stroke-dashoffset:0;stroke-opacity:1.0;color-rendering:auto;image-rendering:auto;shape-rendering:auto;text-rendering:auto;enable-background:accumulate;stop-color:#000000;stop-opacity:1;" />
      </g>
      <g
         style="opacity:1"
         id="g922">
        <path
           id="path924"
           d="m 13.564995,38.728179 c -0.409223,0 -0.77376,-0.10113 -1.093612,-0.303389 -0.319852,-0.202259 -0.5715,-0.493889 -0.754945,-0.874889 -0.178741,-0.385704 -0.268111,-0.844315 -0.268111,-1.375834 0,-0.531519 0.08937,-0.987779 0.268111,-1.368779 0.183445,-0.385704 0.435093,-0.679686 0.754945,-0.881945 0.319852,-0.202259 0.684389,-0.303389 1.093612,-0.303389 0.409222,0 0.773759,0.10113 1.093612,0.303389 0.319852,0.202259 0.569148,0.496241 0.747889,0.881945 0.183445,0.381 0.275167,0.83726 0.275167,1.368779 0,0.531519 -0.09172,0.99013 -0.275167,1.375834 -0.178741,0.381 -0.428037,0.67263 -0.747889,0.874889 -0.319853,0.202259 -0.68439,0.303389 -1.093612,0.303389 z m 0,-0.966611 c 0.301037,0 0.536223,-0.129352 0.705556,-0.388056 0.174037,-0.258704 0.261055,-0.658519 0.261055,-1.199445 0,-0.540927 -0.08702,-0.940742 -0.261055,-1.199446 -0.169333,-0.258703 -0.404519,-0.388055 -0.705556,-0.388055 -0.296334,0 -0.531519,0.129352 -0.705556,0.388055 -0.169333,0.258704 -0.254,0.658519 -0.254,1.199446 0,0.540926 0.08467,0.940741 0.254,1.199445 0.174037,0.258704 0.409222,0.388056 0.705556,0.388056 z"
           style="color:#000000;font-style:normal;font-variant:normal;font-weight:bold;font-stretch:normal;font-size:7.05556px;line-height:1.25;font-family:Montserrat;-inkscape-font-specification:'Montserrat Bold';font-variant-ligatures:normal;font-variant-position:normal;font-variant-caps:normal;font-variant-numeric:normal;font-variant-alternates:normal;font-variant-east-asian:normal;font-feature-settings:normal;font-variation-settings:normal;text-indent:0;text-align:start;text-decoration:none;text-decoration-line:none;text-decoration-style:solid;text-decoration-color:#000000;letter-spacing:normal;word-spacing:normal;text-transform:none;writing-mode:lr-tb;direction:ltr;text-orientation:mixed;dominant-baseline:auto;baseline-shift:baseline;text-anchor:start;white-space:normal;shape-padding:0;shape-margin:0;inline-size:0;clip-rule:nonzero;display:inline;overflow:visible;visibility:visible;isolation:auto;mix-blend-mode:normal;color-interpolation:sRGB;color-interpolation-filters:linearRGB;solid-color:#000000;solid-opacity:1;vector-effect:none;fill:#3d85c6;fill-opacity:1;fill-rule:nonzero;stroke:none;stroke-width:0;stroke-linecap:butt;stroke-linejoin:miter;stroke-miterlimit:4;stroke-dasharray:none;stroke-dashoffset:0;stroke-opacity:1.0;color-rendering:auto;image-rendering:auto;shape-rendering:auto;text-rendering:auto;enable-background:accumulate;stop-color:#000000;stop-opacity:1;" />
        <path
           id="path926"
           d="M 13.564453 33.603516 C 13.152594 33.603516 12.785348 33.70625 12.462891 33.910156 C 12.140323 34.114133 11.8857 34.410847 11.701172 34.798828 C 11.521216 35.182418 11.431641 35.640515 11.431641 36.173828 C 11.431641 36.70714 11.521252 37.168393 11.701172 37.556641 C 11.885713 37.939918 12.140371 38.233554 12.462891 38.4375 C 12.785348 38.641407 13.152594 38.744141 13.564453 38.744141 C 13.976311 38.744141 14.345511 38.641407 14.667969 38.4375 C 14.990519 38.233535 15.242038 37.939977 15.421875 37.556641 C 15.606544 37.168362 15.697266 36.707188 15.697266 36.173828 C 15.697266 35.640468 15.606581 35.182448 15.421875 34.798828 C 15.242052 34.410789 14.990566 34.114151 14.667969 33.910156 C 14.345511 33.70625 13.976311 33.603516 13.564453 33.603516 z M 13.564453 33.636719 C 13.971039 33.636719 14.333143 33.736888 14.650391 33.9375 C 14.967497 34.138023 15.21492 34.429131 15.392578 34.8125 C 15.574761 35.19088 15.666016 35.644149 15.666016 36.173828 C 15.666016 36.703506 15.574798 37.159839 15.392578 37.542969 C 15.214934 37.921632 14.967545 38.211556 14.650391 38.412109 C 14.333143 38.612721 13.971039 38.712891 13.564453 38.712891 C 13.157866 38.712891 12.797716 38.612721 12.480469 38.412109 C 12.163285 38.211537 11.912817 37.921691 11.730469 37.542969 C 11.552907 37.159809 11.464844 36.703553 11.464844 36.173828 C 11.464844 35.644102 11.552943 35.19091 11.730469 34.8125 C 11.91283 34.429074 12.163332 34.138042 12.480469 33.9375 C 12.797716 33.736888 13.157866 33.636719 13.564453 33.636719 z M 13.564453 34.570312 C 13.263463 34.570312 13.022087 34.702651 12.845703 34.964844 L 12.845703 34.966797 C 12.673571 35.229776 12.589844 35.631232 12.589844 36.173828 C 12.589844 36.716424 12.673571 37.119833 12.845703 37.382812 C 13.022087 37.645006 13.263463 37.777344 13.564453 37.777344 C 13.870074 37.777344 14.11149 37.645152 14.283203 37.382812 C 14.460123 37.119823 14.546875 36.71647 14.546875 36.173828 C 14.546875 35.632022 14.459572 35.229811 14.283203 34.966797 C 14.11149 34.704458 13.870074 34.570313 13.564453 34.570312 z M 13.564453 34.603516 C 13.860907 34.603516 14.090859 34.727354 14.257812 34.982422 L 14.257812 34.984375 C 14.428966 35.238794 14.515625 35.634617 14.515625 36.173828 C 14.515625 36.713038 14.428966 37.110816 14.257812 37.365234 C 14.090859 37.620303 13.860907 37.746094 13.564453 37.746094 C 13.272775 37.746094 13.044736 37.620449 12.873047 37.365234 C 12.706512 37.110806 12.621094 36.713085 12.621094 36.173828 C 12.621094 35.635417 12.707029 35.238851 12.873047 34.984375 C 13.044736 34.729161 13.272775 34.603516 13.564453 34.603516 z "
           style="color:#000000;font-style:normal;font-variant:normal;font-weight:bold;font-stretch:normal;font-size:7.05556px;line-height:1.25;font-family:Montserrat;-inkscape-font-specification:'Montserrat Bold';font-variant-ligatures:normal;font-variant-position:normal;font-variant-caps:normal;font-variant-numeric:normal;font-variant-alternates:normal;font-variant-east-asian:normal;font-feature-settings:normal;font-variation-settings:normal;text-indent:0;text-align:start;text-decoration:none;text-decoration-line:none;text-decoration-style:solid;text-decoration-color:#000000;letter-spacing:normal;word-spacing:normal;text-transform:none;writing-mode:lr-tb;direction:ltr;text-orientation:mixed;dominant-baseline:auto;baseline-shift:baseline;text-anchor:start;white-space:normal;shape-padding:0;shape-margin:0;inline-size:0;clip-rule:nonzero;display:inline;overflow:visible;visibility:visible;isolation:auto;mix-blend-mode:normal;color-interpolation:sRGB;color-interpolation-filters:linearRGB;solid-color:#000000;solid-opacity:1;vector-effect:none;fill:#3d85c6;fill-opacity:1;fill-rule:nonzero;stroke:none;stroke-width:0;stroke-linecap:butt;stroke-linejoin:miter;stroke-miterlimit:4;stroke-dasharray:none;stroke-dashoffset:0;stroke-opacity:1.0;color-rendering:auto;image-rendering:auto;shape-rendering:auto;text-rendering:auto;enable-background:accumulate;stop-color:#000000;stop-opacity:1;" />
      </g>
      <g
         style="opacity:1"
         id="g928">
        <path
           id="path930"
           d="m 22.200228,38.643513 v -2.271891 l -1.135945,1.905002 h -0.465667 l -1.107723,-1.912057 v 2.278946 h -0.994834 v -3.795892 h 1.150057 l 1.213556,2.19428 1.291167,-2.19428 h 1.030112 l 0.01411,3.795892 z"
           style="color:#000000;font-style:normal;font-variant:normal;font-weight:bold;font-stretch:normal;font-size:7.05556px;line-height:1.25;font-family:Montserrat;-inkscape-font-specification:'Montserrat Bold';font-variant-ligatures:normal;font-variant-position:normal;font-variant-caps:normal;font-variant-numeric:normal;font-variant-alternates:normal;font-variant-east-asian:normal;font-feature-settings:normal;font-variation-settings:normal;text-indent:0;text-align:start;text-decoration:none;text-decoration-line:none;text-decoration-style:solid;text-decoration-color:#000000;letter-spacing:normal;word-spacing:normal;text-transform:none;writing-mode:lr-tb;direction:ltr;text-orientation:mixed;dominant-baseline:auto;baseline-shift:baseline;text-anchor:start;white-space:normal;shape-padding:0;shape-margin:0;inline-size:0;clip-rule:nonzero;display:inline;overflow:visible;visibility:visible;isolation:auto;mix-blend-mode:normal;color-interpolation:sRGB;color-interpolation-filters:linearRGB;solid-color:#000000;solid-opacity:1;vector-effect:none;fill:#3d85c6;fill-opacity:1;fill-rule:nonzero;stroke:none;stroke-width:0;stroke-linecap:butt;stroke-linejoin:miter;stroke-miterlimit:4;stroke-dasharray:none;stroke-dashoffset:0;stroke-opacity:1.0;color-rendering:auto;image-rendering:auto;shape-rendering:auto;text-rendering:auto;enable-background:accumulate;stop-color:#000000;stop-opacity:1;" />
        <path
           id="path932"
           d="M 18.480469 34.832031 L 18.480469 38.660156 L 19.507812 38.660156 L 19.507812 36.427734 L 20.589844 38.292969 L 21.074219 38.292969 L 22.183594 36.431641 L 22.183594 38.660156 L 22.201172 38.660156 L 23.210938 38.660156 L 23.197266 34.832031 L 22.142578 34.832031 L 20.859375 37.009766 L 19.65625 34.832031 L 18.480469 34.832031 z M 18.511719 34.863281 L 19.636719 34.863281 L 20.859375 37.074219 L 22.160156 34.863281 L 23.164062 34.863281 L 23.179688 38.626953 L 22.216797 38.626953 L 22.216797 36.314453 L 22.183594 36.371094 L 21.054688 38.259766 L 20.607422 38.259766 L 19.474609 36.304688 L 19.474609 38.626953 L 18.511719 38.626953 L 18.511719 34.863281 z "
           style="color:#000000;font-style:normal;font-variant:normal;font-weight:bold;font-stretch:normal;font-size:7.05556px;line-height:1.25;font-family:Montserrat;-inkscape-font-specification:'Montserrat Bold';font-variant-ligatures:normal;font-variant-position:normal;font-variant-caps:normal;font-variant-numeric:normal;font-variant-alternates:normal;font-variant-east-asian:normal;font-feature-settings:normal;font-variation-settings:normal;text-indent:0;text-align:start;text-decoration:none;text-decoration-line:none;text-decoration-style:solid;text-decoration-color:#000000;letter-spacing:normal;word-spacing:normal;text-transform:none;writing-mode:lr-tb;direction:ltr;text-orientation:mixed;dominant-baseline:auto;baseline-shift:baseline;text-anchor:start;white-space:normal;shape-padding:0;shape-margin:0;inline-size:0;clip-rule:nonzero;display:inline;overflow:visible;visibility:visible;isolation:auto;mix-blend-mode:normal;color-interpolation:sRGB;color-interpolation-filters:linearRGB;solid-color:#000000;solid-opacity:1;vector-effect:none;fill:#3d85c6;fill-opacity:1;fill-rule:nonzero;stroke:none;stroke-width:0;stroke-linecap:butt;stroke-linejoin:miter;stroke-miterlimit:4;stroke-dasharray:none;stroke-dashoffset:0;stroke-opacity:1.0;color-rendering:auto;image-rendering:auto;shape-rendering:auto;text-rendering:auto;enable-background:accumulate;stop-color:#000000;stop-opacity:1;" />
      </g>
    </g>
    <text
       xml:space="preserve"
       style="font-size:25.4px;line-height:1.25;font-family:Orbitron;-inkscape-font-specification:Orbitron;stroke-width:0.264583"
       x="74.461304"
       y="39.498508"
       id="text15414"><tspan
         sodipodi:role="line"
         id="tspan15412"
         x="74.461304"
         y="39.498508"
         style="stroke-width:0.264583" /></text>
  </g>
</svg>
