<?xml version="1.0" encoding="UTF-8" standalone="no"?>
<svg
   xmlns:dc="http://purl.org/dc/elements/1.1/"
   xmlns:cc="http://creativecommons.org/ns#"
   xmlns:rdf="http://www.w3.org/1999/02/22-rdf-syntax-ns#"
   xmlns:svg="http://www.w3.org/2000/svg"
   xmlns="http://www.w3.org/2000/svg"
   xmlns:sodipodi="http://sodipodi.sourceforge.net/DTD/sodipodi-0.dtd"
   xmlns:inkscape="http://www.inkscape.org/namespaces/inkscape"
   sodipodi:docname="navileft5m.svg"
   inkscape:version="1.0 (4035a4fb49, 2020-05-01)"
   id="svg857"
   version="1.1"
   viewBox="0 0 31 43"
   height="43mm"
   width="31mm">
  <defs
     id="defs851">
    <marker
       inkscape:isstock="true"
       style="overflow:visible"
       id="marker8131"
       refX="0"
       refY="0"
       orient="auto"
       inkscape:stockid="TriangleOutL">
      <path
         transform="scale(0.8)"
         style="fill:#000000;fill-opacity:1;fill-rule:evenodd;stroke:#000000;stroke-width:1pt;stroke-opacity:1"
         d="M 5.77,0 -2.88,5 V -5 Z"
         id="path8129" />
    </marker>
    <marker
       inkscape:isstock="true"
       style="overflow:visible"
       id="marker8079"
       refX="0"
       refY="0"
       orient="auto"
       inkscape:stockid="Arrow2Mend">
      <path
         transform="scale(-0.6)"
         d="M 8.7185878,4.0337352 -2.2072895,0.01601326 8.7185884,-4.0017078 c -1.7454984,2.3720609 -1.7354408,5.6174519 -6e-7,8.035443 z"
         style="fill:#000000;fill-opacity:1;fill-rule:evenodd;stroke:#000000;stroke-width:0.625;stroke-linejoin:round;stroke-opacity:1"
         id="path8077" />
    </marker>
    <marker
       inkscape:isstock="true"
       style="overflow:visible"
       id="Arrow2Mend"
       refX="0"
       refY="0"
       orient="auto"
       inkscape:stockid="Arrow2Mend">
      <path
         transform="scale(-0.6)"
         d="M 8.7185878,4.0337352 -2.2072895,0.01601326 8.7185884,-4.0017078 c -1.7454984,2.3720609 -1.7354408,5.6174519 -6e-7,8.035443 z"
         style="fill:#000000;fill-opacity:1;fill-rule:evenodd;stroke:#000000;stroke-width:0.625;stroke-linejoin:round;stroke-opacity:1"
         id="path7191" />
    </marker>
    <marker
       inkscape:isstock="true"
       style="overflow:visible"
       id="Arrow2Lend"
       refX="0"
       refY="0"
       orient="auto"
       inkscape:stockid="Arrow2Lend">
      <path
         transform="matrix(-1.1,0,0,-1.1,-1.1,0)"
         d="M 8.7185878,4.0337352 -2.2072895,0.01601326 8.7185884,-4.0017078 c -1.7454984,2.3720609 -1.7354408,5.6174519 -6e-7,8.035443 z"
         style="fill:#000000;fill-opacity:1;fill-rule:evenodd;stroke:#000000;stroke-width:0.625;stroke-linejoin:round;stroke-opacity:1"
         id="path7185" />
    </marker>
    <marker
       inkscape:isstock="true"
       id="ExperimentalArrow"
       refX="5"
       refY="3"
       orient="auto-start-reverse"
       inkscape:stockid="ExperimentalArrow">
      <path
         style="fill:context-stroke;stroke:#000000;stroke-opacity:1"
         d="M 10,3 0,6 V 0 Z"
         id="path7417" />
    </marker>
    <marker
       inkscape:isstock="true"
       style="overflow:visible"
       id="TriangleOutL"
       refX="0"
       refY="0"
       orient="auto"
       inkscape:stockid="TriangleOutL">
      <path
         transform="scale(0.8)"
         style="fill:#000000;fill-opacity:1;fill-rule:evenodd;stroke:#000000;stroke-width:1pt;stroke-opacity:1"
         d="M 5.77,0 -2.88,5 V -5 Z"
         id="path7306" />
    </marker>
    <marker
       inkscape:isstock="true"
       style="overflow:visible"
       id="EmptyTriangleOutL"
       refX="0"
       refY="0"
       orient="auto"
       inkscape:stockid="EmptyTriangleOutL">
      <path
         transform="matrix(0.8,0,0,0.8,-4.8,0)"
         style="fill:#ffffff;fill-rule:evenodd;stroke:#000000;stroke-width:1pt;stroke-opacity:1"
         d="M 5.77,0 -2.88,5 V -5 Z"
         id="path7324" />
    </marker>
    <marker
       inkscape:stockid="ExperimentalArrow"
       orient="auto-start-reverse"
       refY="3"
       refX="5"
       id="ExperimentalArrow-3"
       inkscape:isstock="true">
      <path
         id="path7417-6"
         d="M 10,3 0,6 V 0 Z"
         style="fill:context-stroke;stroke:#000000;stroke-opacity:1" />
    </marker>
  </defs>
  <sodipodi:namedview
     inkscape:window-maximized="0"
     inkscape:window-y="0"
     inkscape:window-x="0"
     inkscape:window-height="1024"
     inkscape:window-width="1898"
     showgrid="false"
     inkscape:document-rotation="0"
     inkscape:current-layer="layer1"
     inkscape:document-units="mm"
     inkscape:cy="235.47803"
     inkscape:cx="413.33991"
     inkscape:zoom="1.4"
     inkscape:pageshadow="2"
     inkscape:pageopacity="0.0"
     borderopacity="1.0"
     bordercolor="#666666"
     pagecolor="#ffffff"
     id="base" />
  <metadata
     id="metadata854">
    <rdf:RDF>
      <cc:Work
         rdf:about="">
        <dc:format>image/svg+xml</dc:format>
        <dc:type
           rdf:resource="http://purl.org/dc/dcmitype/StillImage" />
        <dc:title />
      </cc:Work>
    </rdf:RDF>
  </metadata>
  <g
     id="layer1"
     inkscape:groupmode="layer"
     inkscape:label="Слой 1">
    <g
       style="font-style:normal;font-variant:normal;font-weight:bold;font-stretch:normal;font-size:7.05556px;line-height:1.25;font-family:Montserrat;-inkscape-font-specification:'Montserrat Bold';fill:#3d85c6;fill-opacity:1;stroke:#3d85c6;stroke-width:0;stroke-miterlimit:4;stroke-dasharray:none;stroke-opacity:1"
       id="text15410-6"
       aria-label="5 м">
      <g
         style="opacity:1"
         id="g16729">
        <path
           id="path16731"
           d="m 11.564367,35.59175 c 0.696148,0 1.208852,0.138759 1.538112,0.416278 0.333963,0.277519 0.500944,0.649112 0.500944,1.114779 0,0.301037 -0.07526,0.576203 -0.225778,0.8255 -0.150518,0.244593 -0.380999,0.442148 -0.691444,0.592667 -0.305741,0.145815 -0.68439,0.218722 -1.135946,0.218722 -0.348074,0 -0.691444,-0.04469 -1.030111,-0.134055 -0.333963,-0.09407 -0.6185377,-0.225778 -0.8537231,-0.395112 L 10.117977,37.35564 c 0.188148,0.141111 0.404518,0.251648 0.649111,0.331611 0.244593,0.07526 0.496241,0.112889 0.754945,0.112889 0.286926,0 0.512704,-0.05644 0.677334,-0.169333 0.16463,-0.112889 0.246945,-0.270464 0.246945,-0.472723 0,-0.211667 -0.08702,-0.371593 -0.261056,-0.479778 -0.169333,-0.108185 -0.465667,-0.162278 -0.889001,-0.162278 H 10.03331 l 0.254,-2.77989 h 3.012724 v 0.917222 h -2.060223 l -0.07761,0.93839 z"
           style="color:#000000;font-style:normal;font-variant:normal;font-weight:bold;font-stretch:normal;font-size:7.05556px;line-height:1.25;font-family:Montserrat;-inkscape-font-specification:'Montserrat Bold';font-variant-ligatures:normal;font-variant-position:normal;font-variant-caps:normal;font-variant-numeric:normal;font-variant-alternates:normal;font-variant-east-asian:normal;font-feature-settings:normal;font-variation-settings:normal;text-indent:0;text-align:start;text-decoration:none;text-decoration-line:none;text-decoration-style:solid;text-decoration-color:#000000;letter-spacing:normal;word-spacing:normal;text-transform:none;writing-mode:lr-tb;direction:ltr;text-orientation:mixed;dominant-baseline:auto;baseline-shift:baseline;text-anchor:start;white-space:normal;shape-padding:0;shape-margin:0;inline-size:0;clip-rule:nonzero;display:inline;overflow:visible;visibility:visible;isolation:auto;mix-blend-mode:normal;color-interpolation:sRGB;color-interpolation-filters:linearRGB;solid-color:#000000;solid-opacity:1;vector-effect:none;fill:#3d85c6;fill-opacity:1;fill-rule:nonzero;stroke:none;stroke-width:0;stroke-linecap:butt;stroke-linejoin:miter;stroke-miterlimit:4;stroke-dasharray:none;stroke-dashoffset:0;stroke-opacity:1.0;color-rendering:auto;image-rendering:auto;shape-rendering:auto;text-rendering:auto;enable-background:accumulate;stop-color:#000000;stop-opacity:1;" />
        <path
           id="path16733"
           d="M 10.273438 33.720703 L 10.015625 36.53125 L 11.296875 36.53125 C 11.718846 36.53125 12.011546 36.586478 12.175781 36.691406 L 12.177734 36.691406 C 12.347798 36.797122 12.429688 36.950922 12.429688 37.158203 C 12.429688 37.356121 12.350407 37.506819 12.189453 37.617188 C 12.028399 37.727624 11.806312 37.783203 11.521484 37.783203 C 11.264332 37.783203 11.014562 37.746668 10.771484 37.671875 C 10.528382 37.5924 10.313599 37.483735 10.126953 37.34375 L 10.113281 37.332031 L 9.6464844 38.236328 L 9.65625 38.244141 C 9.8932096 38.414752 10.180194 38.546137 10.515625 38.640625 C 10.855599 38.73034 11.201338 38.775391 11.550781 38.775391 C 12.004059 38.775391 12.384856 38.70182 12.693359 38.554688 C 13.005952 38.403127 13.238302 38.204558 13.390625 37.957031 C 13.542617 37.705295 13.619141 37.42675 13.619141 37.123047 C 13.619141 36.653555 13.450627 36.276424 13.113281 35.996094 C 12.779772 35.714994 12.262727 35.576172 11.564453 35.576172 L 11.179688 35.576172 L 11.253906 34.669922 L 13.316406 34.669922 L 13.316406 33.720703 L 10.273438 33.720703 z M 10.302734 33.751953 L 13.283203 33.751953 L 13.283203 34.636719 L 11.224609 34.636719 L 11.144531 35.607422 L 11.564453 35.607422 C 12.258475 35.607422 12.766786 35.745594 13.091797 36.019531 C 13.422376 36.294238 13.587891 36.661204 13.587891 37.123047 C 13.587891 37.421417 13.512327 37.692596 13.363281 37.939453 C 13.214569 38.181112 12.987984 38.377867 12.679688 38.527344 C 12.376709 38.671841 12.000615 38.744141 11.550781 38.744141 C 11.204725 38.744141 10.862136 38.698067 10.525391 38.609375 L 10.523438 38.609375 C 10.19641 38.517063 9.9185635 38.387022 9.6875 38.222656 L 10.125 37.378906 C 10.310971 37.515608 10.522368 37.624876 10.761719 37.703125 C 11.007827 37.778851 11.261229 37.816406 11.521484 37.816406 C 11.810509 37.816406 12.040779 37.759872 12.208984 37.644531 C 12.37729 37.529121 12.462891 37.364804 12.462891 37.158203 C 12.462891 36.942151 12.37137 36.774718 12.193359 36.664062 C 12.018928 36.55262 11.721572 36.5 11.296875 36.5 L 10.050781 36.5 L 10.302734 33.751953 z "
           style="color:#000000;font-style:normal;font-variant:normal;font-weight:bold;font-stretch:normal;font-size:7.05556px;line-height:1.25;font-family:Montserrat;-inkscape-font-specification:'Montserrat Bold';font-variant-ligatures:normal;font-variant-position:normal;font-variant-caps:normal;font-variant-numeric:normal;font-variant-alternates:normal;font-variant-east-asian:normal;font-feature-settings:normal;font-variation-settings:normal;text-indent:0;text-align:start;text-decoration:none;text-decoration-line:none;text-decoration-style:solid;text-decoration-color:#000000;letter-spacing:normal;word-spacing:normal;text-transform:none;writing-mode:lr-tb;direction:ltr;text-orientation:mixed;dominant-baseline:auto;baseline-shift:baseline;text-anchor:start;white-space:normal;shape-padding:0;shape-margin:0;inline-size:0;clip-rule:nonzero;display:inline;overflow:visible;visibility:visible;isolation:auto;mix-blend-mode:normal;color-interpolation:sRGB;color-interpolation-filters:linearRGB;solid-color:#000000;solid-opacity:1;vector-effect:none;fill:#3d85c6;fill-opacity:1;fill-rule:nonzero;stroke:none;stroke-width:0;stroke-linecap:butt;stroke-linejoin:miter;stroke-miterlimit:4;stroke-dasharray:none;stroke-dashoffset:0;stroke-opacity:1.0;color-rendering:auto;image-rendering:auto;shape-rendering:auto;text-rendering:auto;enable-background:accumulate;stop-color:#000000;stop-opacity:1;" />
      </g>
      <g
         style="opacity:1"
         id="g16735">
        <path
           id="path16737"
           d="m 20.030377,38.67503 v -2.271891 l -1.135945,1.905002 h -0.465667 l -1.107723,-1.912057 v 2.278946 h -0.994834 v -3.795892 h 1.150056 l 1.213557,2.19428 1.291167,-2.19428 H 21.0111 l 0.01411,3.795892 z"
           style="color:#000000;font-style:normal;font-variant:normal;font-weight:bold;font-stretch:normal;font-size:7.05556px;line-height:1.25;font-family:Montserrat;-inkscape-font-specification:'Montserrat Bold';font-variant-ligatures:normal;font-variant-position:normal;font-variant-caps:normal;font-variant-numeric:normal;font-variant-alternates:normal;font-variant-east-asian:normal;font-feature-settings:normal;font-variation-settings:normal;text-indent:0;text-align:start;text-decoration:none;text-decoration-line:none;text-decoration-style:solid;text-decoration-color:#000000;letter-spacing:normal;word-spacing:normal;text-transform:none;writing-mode:lr-tb;direction:ltr;text-orientation:mixed;dominant-baseline:auto;baseline-shift:baseline;text-anchor:start;white-space:normal;shape-padding:0;shape-margin:0;inline-size:0;clip-rule:nonzero;display:inline;overflow:visible;visibility:visible;isolation:auto;mix-blend-mode:normal;color-interpolation:sRGB;color-interpolation-filters:linearRGB;solid-color:#000000;solid-opacity:1;vector-effect:none;fill:#3d85c6;fill-opacity:1;fill-rule:nonzero;stroke:none;stroke-width:0;stroke-linecap:butt;stroke-linejoin:miter;stroke-miterlimit:4;stroke-dasharray:none;stroke-dashoffset:0;stroke-opacity:1.0;color-rendering:auto;image-rendering:auto;shape-rendering:auto;text-rendering:auto;enable-background:accumulate;stop-color:#000000;stop-opacity:1;" />
        <path
           id="path16739"
           d="M 16.310547 34.863281 L 16.310547 38.691406 L 17.337891 38.691406 L 17.337891 36.458984 L 18.419922 38.324219 L 18.904297 38.324219 L 20.013672 36.464844 L 20.013672 38.691406 L 20.03125 38.691406 L 21.041016 38.691406 L 21.027344 34.863281 L 19.972656 34.863281 L 18.689453 37.041016 L 17.486328 34.863281 L 16.310547 34.863281 z M 16.341797 34.894531 L 17.466797 34.894531 L 18.689453 37.105469 L 19.990234 34.894531 L 20.996094 34.894531 L 21.009766 38.658203 L 20.046875 38.658203 L 20.046875 36.345703 L 20.013672 36.402344 L 18.884766 38.292969 L 18.4375 38.292969 L 17.304688 36.335938 L 17.304688 38.658203 L 16.341797 38.658203 L 16.341797 34.894531 z "
           style="color:#000000;font-style:normal;font-variant:normal;font-weight:bold;font-stretch:normal;font-size:7.05556px;line-height:1.25;font-family:Montserrat;-inkscape-font-specification:'Montserrat Bold';font-variant-ligatures:normal;font-variant-position:normal;font-variant-caps:normal;font-variant-numeric:normal;font-variant-alternates:normal;font-variant-east-asian:normal;font-feature-settings:normal;font-variation-settings:normal;text-indent:0;text-align:start;text-decoration:none;text-decoration-line:none;text-decoration-style:solid;text-decoration-color:#000000;letter-spacing:normal;word-spacing:normal;text-transform:none;writing-mode:lr-tb;direction:ltr;text-orientation:mixed;dominant-baseline:auto;baseline-shift:baseline;text-anchor:start;white-space:normal;shape-padding:0;shape-margin:0;inline-size:0;clip-rule:nonzero;display:inline;overflow:visible;visibility:visible;isolation:auto;mix-blend-mode:normal;color-interpolation:sRGB;color-interpolation-filters:linearRGB;solid-color:#000000;solid-opacity:1;vector-effect:none;fill:#3d85c6;fill-opacity:1;fill-rule:nonzero;stroke:none;stroke-width:0;stroke-linecap:butt;stroke-linejoin:miter;stroke-miterlimit:4;stroke-dasharray:none;stroke-dashoffset:0;stroke-opacity:1.0;color-rendering:auto;image-rendering:auto;shape-rendering:auto;text-rendering:auto;enable-background:accumulate;stop-color:#000000;stop-opacity:1;" />
      </g>
    </g>
    <g
       transform="matrix(-1,0,0,1,29.085832,0)"
       id="g8229">
      <path
         id="path7162-0"
         d="M 12.240243,26.318747 12.077518,9.606499 h 7.648134"
         style="fill:none;stroke:#3d85c6;stroke-width:5.02774;stroke-linecap:round;stroke-linejoin:round;stroke-miterlimit:4;stroke-dasharray:none;stroke-opacity:1" />
      <path
         d="m -212.42262,150.43452 7.37345,-131.257061 109.985227,72.014132 z"
         sodipodi:type="star"
         style="fill:#3d85c6;fill-opacity:1;stroke:#3d85c6;stroke-width:10.965;stroke-linecap:round;stroke-linejoin:round;stroke-miterlimit:4;stroke-dasharray:none;stroke-opacity:1;paint-order:markers fill stroke"
         id="path8207"
         sodipodi:sides="3"
         sodipodi:cx="-170.84525"
         sodipodi:cy="86.934525"
         sodipodi:r1="75.90078"
         sodipodi:r2="37.950394"
         sodipodi:arg1="2.1505118"
         sodipodi:arg2="3.1977094"
         inkscape:flatsided="true"
         inkscape:rounded="0"
         inkscape:randomized="0"
         inkscape:transform-center-x="-3.8814865"
         inkscape:transform-center-y="0.001250458"
         transform="matrix(0.05620307,-0.0035009,0.0031468,0.0737857,30.921909,2.483779)" />
    </g>
  </g>
</svg>
