<svg id="Layer_6" data-name="Layer 6" xmlns="http://www.w3.org/2000/svg" width="87.87" height="121.89" viewBox="0 0 87.87 121.89">
  <title>10 m</title>
  <path d="M37.45,27.23V74.45a1.5,1.5,0,0,0,1.5,1.5h11a1.5,1.5,0,0,0,1.5-1.5V34.23H64.73v4.55A1.51,1.51,0,0,0,67.13,40L83.27,28.06a1.51,1.51,0,0,0,0-2.42L67.13,13.71a1.51,1.51,0,0,0-2.4,1.21v5.31H44.45A7,7,0,0,0,37.45,27.23Z" style="fill: #3D85C6"/>
  <g>
    <path d="M29.52,95.65v14H26.28V98.25h-2.8v-2.6Z" style="fill: #3D85C6"/>
    <path d="M34.86,109a5.77,5.77,0,0,1-2.13-2.49,10.21,10.21,0,0,1,0-7.78,5.77,5.77,0,0,1,2.13-2.49,6,6,0,0,1,6.2,0,5.78,5.78,0,0,1,2.13,2.49,10.22,10.22,0,0,1,0,7.78A5.78,5.78,0,0,1,41.06,109a6,6,0,0,1-6.2,0Zm5.11-3a8.28,8.28,0,0,0,0-6.8,2.37,2.37,0,0,0-4,0,8.28,8.28,0,0,0,0,6.8,2.37,2.37,0,0,0,4,0Z" style="fill: #3D85C6"/>
    <path d="M62.43,109.66v-6.44l-3.22,5.4H57.89l-3.14-5.42v6.46H51.92V98.89h3.26l3.44,6.22,3.66-6.22h2.92l0,10.76Z" style="fill: #3D85C6"/>
  </g>
</svg>
