<svg id="_5_м" data-name="5 м" xmlns="http://www.w3.org/2000/svg" width="87.87" height="121.89" viewBox="0 0 87.87 121.89">
  <title>5 m</title>
  <path d="M51,27.23V74.45a1.5,1.5,0,0,1-1.5,1.5h-11a1.5,1.5,0,0,1-1.5-1.5V34.23H23.7v4.55A1.51,1.51,0,0,1,21.3,40L5.16,28.06a1.51,1.51,0,0,1,0-2.42L21.3,13.71a1.51,1.51,0,0,1,2.4,1.21v5.31H44A7,7,0,0,1,51,27.23Z" style="fill: #3D85C6"/>
  <g>
    <path d="M33.29,102.09a3.91,3.91,0,0,1,1.41,3.16,4.39,4.39,0,0,1-.64,2.33,4.47,4.47,0,0,1-2,1.68,7.42,7.42,0,0,1-3.23.63A11,11,0,0,1,26,109.5a7.5,7.5,0,0,1-2.43-1.11l1.28-2.48a6.11,6.11,0,0,0,1.84.93,7,7,0,0,0,2.14.33,3.36,3.36,0,0,0,1.92-.48,1.53,1.53,0,0,0,.7-1.34,1.51,1.51,0,0,0-.73-1.36,5,5,0,0,0-2.53-.46H24.58l.72-7.88h8.54v2.6H28l-.22,2.66h1.14A6.73,6.73,0,0,1,33.29,102.09Z" style="fill: #3D85C6"/>
    <path d="M52.91,109.66v-6.44l-3.22,5.4H48.37l-3.14-5.42v6.46H42.4V98.89h3.26l3.44,6.22,3.66-6.22h2.92l0,10.76Z" style="fill: #3D85C6"/>
  </g>
</svg>
