<?xml version="1.0" encoding="UTF-8" standalone="no"?>
<svg
   xmlns:dc="http://purl.org/dc/elements/1.1/"
   xmlns:cc="http://creativecommons.org/ns#"
   xmlns:rdf="http://www.w3.org/1999/02/22-rdf-syntax-ns#"
   xmlns:svg="http://www.w3.org/2000/svg"
   xmlns="http://www.w3.org/2000/svg"
   xmlns:sodipodi="http://sodipodi.sourceforge.net/DTD/sodipodi-0.dtd"
   xmlns:inkscape="http://www.inkscape.org/namespaces/inkscape"
   sodipodi:docname="navileft1m.svg"
   inkscape:version="1.0 (4035a4fb49, 2020-05-01)"
   id="svg857"
   version="1.1"
   viewBox="0 0 31 43"
   height="43mm"
   width="31mm">
  <defs
     id="defs851">
    <marker
       inkscape:isstock="true"
       style="overflow:visible"
       id="marker8131"
       refX="0"
       refY="0"
       orient="auto"
       inkscape:stockid="TriangleOutL">
      <path
         transform="scale(0.8)"
         style="fill:#000000;fill-opacity:1;fill-rule:evenodd;stroke:#000000;stroke-width:1pt;stroke-opacity:1"
         d="M 5.77,0 -2.88,5 V -5 Z"
         id="path8129" />
    </marker>
    <marker
       inkscape:isstock="true"
       style="overflow:visible"
       id="marker8079"
       refX="0"
       refY="0"
       orient="auto"
       inkscape:stockid="Arrow2Mend">
      <path
         transform="scale(-0.6)"
         d="M 8.7185878,4.0337352 -2.2072895,0.01601326 8.7185884,-4.0017078 c -1.7454984,2.3720609 -1.7354408,5.6174519 -6e-7,8.035443 z"
         style="fill:#000000;fill-opacity:1;fill-rule:evenodd;stroke:#000000;stroke-width:0.625;stroke-linejoin:round;stroke-opacity:1"
         id="path8077" />
    </marker>
    <marker
       inkscape:isstock="true"
       style="overflow:visible"
       id="Arrow2Mend"
       refX="0"
       refY="0"
       orient="auto"
       inkscape:stockid="Arrow2Mend">
      <path
         transform="scale(-0.6)"
         d="M 8.7185878,4.0337352 -2.2072895,0.01601326 8.7185884,-4.0017078 c -1.7454984,2.3720609 -1.7354408,5.6174519 -6e-7,8.035443 z"
         style="fill:#000000;fill-opacity:1;fill-rule:evenodd;stroke:#000000;stroke-width:0.625;stroke-linejoin:round;stroke-opacity:1"
         id="path7191" />
    </marker>
    <marker
       inkscape:isstock="true"
       style="overflow:visible"
       id="Arrow2Lend"
       refX="0"
       refY="0"
       orient="auto"
       inkscape:stockid="Arrow2Lend">
      <path
         transform="matrix(-1.1,0,0,-1.1,-1.1,0)"
         d="M 8.7185878,4.0337352 -2.2072895,0.01601326 8.7185884,-4.0017078 c -1.7454984,2.3720609 -1.7354408,5.6174519 -6e-7,8.035443 z"
         style="fill:#000000;fill-opacity:1;fill-rule:evenodd;stroke:#000000;stroke-width:0.625;stroke-linejoin:round;stroke-opacity:1"
         id="path7185" />
    </marker>
    <marker
       inkscape:isstock="true"
       id="ExperimentalArrow"
       refX="5"
       refY="3"
       orient="auto-start-reverse"
       inkscape:stockid="ExperimentalArrow">
      <path
         style="fill:context-stroke;stroke:#000000;stroke-opacity:1"
         d="M 10,3 0,6 V 0 Z"
         id="path7417" />
    </marker>
    <marker
       inkscape:isstock="true"
       style="overflow:visible"
       id="TriangleOutL"
       refX="0"
       refY="0"
       orient="auto"
       inkscape:stockid="TriangleOutL">
      <path
         transform="scale(0.8)"
         style="fill:#000000;fill-opacity:1;fill-rule:evenodd;stroke:#000000;stroke-width:1pt;stroke-opacity:1"
         d="M 5.77,0 -2.88,5 V -5 Z"
         id="path7306" />
    </marker>
    <marker
       inkscape:isstock="true"
       style="overflow:visible"
       id="EmptyTriangleOutL"
       refX="0"
       refY="0"
       orient="auto"
       inkscape:stockid="EmptyTriangleOutL">
      <path
         transform="matrix(0.8,0,0,0.8,-4.8,0)"
         style="fill:#ffffff;fill-rule:evenodd;stroke:#000000;stroke-width:1pt;stroke-opacity:1"
         d="M 5.77,0 -2.88,5 V -5 Z"
         id="path7324" />
    </marker>
    <marker
       inkscape:stockid="ExperimentalArrow"
       orient="auto-start-reverse"
       refY="3"
       refX="5"
       id="ExperimentalArrow-3"
       inkscape:isstock="true">
      <path
         id="path7417-6"
         d="M 10,3 0,6 V 0 Z"
         style="fill:context-stroke;stroke:#000000;stroke-opacity:1" />
    </marker>
  </defs>
  <sodipodi:namedview
     inkscape:window-maximized="0"
     inkscape:window-y="0"
     inkscape:window-x="0"
     inkscape:window-height="1024"
     inkscape:window-width="1898"
     showgrid="false"
     inkscape:document-rotation="0"
     inkscape:current-layer="layer1"
     inkscape:document-units="mm"
     inkscape:cy="359.90924"
     inkscape:cx="449.73995"
     inkscape:zoom="0.98994949"
     inkscape:pageshadow="2"
     inkscape:pageopacity="0.0"
     borderopacity="1.0"
     bordercolor="#666666"
     pagecolor="#ffffff"
     id="base" />
  <metadata
     id="metadata854">
    <rdf:RDF>
      <cc:Work
         rdf:about="">
        <dc:format>image/svg+xml</dc:format>
        <dc:type
           rdf:resource="http://purl.org/dc/dcmitype/StillImage" />
        <dc:title></dc:title>
      </cc:Work>
    </rdf:RDF>
  </metadata>
  <g
     id="layer1"
     inkscape:groupmode="layer"
     inkscape:label="Слой 1">
    <g
       transform="matrix(-1,0,0,1,29.085832,0)"
       id="g8229">
      <path
         id="path7162-0"
         d="M 12.240243,26.318747 12.077518,9.606499 h 7.648134"
         style="fill:none;stroke:#3d85c6;stroke-width:5.02774;stroke-linecap:round;stroke-linejoin:round;stroke-miterlimit:4;stroke-dasharray:none;stroke-opacity:1" />
      <path
         d="m -212.42262,150.43452 7.37345,-131.257061 109.985227,72.014132 z"
         sodipodi:type="star"
         style="fill:#3d85c6;fill-opacity:1;stroke:#3d85c6;stroke-width:10.965;stroke-linecap:round;stroke-linejoin:round;stroke-miterlimit:4;stroke-dasharray:none;stroke-opacity:1;paint-order:markers fill stroke"
         id="path8207"
         sodipodi:sides="3"
         sodipodi:cx="-170.84525"
         sodipodi:cy="86.934525"
         sodipodi:r1="75.90078"
         sodipodi:r2="37.950394"
         sodipodi:arg1="2.1505118"
         sodipodi:arg2="3.1977094"
         inkscape:flatsided="true"
         inkscape:rounded="0"
         inkscape:randomized="0"
         inkscape:transform-center-x="-3.8814865"
         inkscape:transform-center-y="0.001250458"
         transform="matrix(0.05620307,-0.0035009,0.0031468,0.0737857,30.921909,2.483779)" />
    </g>
    <g
       aria-label="3 m"
       id="text8225"
       style="font-style:normal;font-variant:normal;font-weight:600;font-stretch:normal;font-size:7.05556px;line-height:1.25;font-family:Comfortaa;-inkscape-font-specification:'Comfortaa Semi-Bold';fill:#3d85c6;fill-opacity:1;stroke:#3d85c6;stroke-width:0.264583;stroke-opacity:1">
      <path
         d="m 21.301725,39.060824 q -0.141111,0 -0.239889,-0.09172 -0.09172,-0.09878 -0.09172,-0.239889 v -2.024945 q 0,-0.458612 -0.232834,-0.698501 -0.232833,-0.246944 -0.606778,-0.246944 -0.388056,0 -0.642056,0.268111 -0.246944,0.268111 -0.246944,0.691445 h -0.550334 q 0,-0.458612 0.197556,-0.81139 0.197555,-0.352778 0.550333,-0.550333 0.352778,-0.197556 0.804334,-0.197556 0.409223,0 0.719667,0.183445 0.3175,0.183444 0.493889,0.529167 0.176389,0.345722 0.176389,0.832556 v 2.024945 q 0,0.141112 -0.09172,0.239889 -0.09172,0.09172 -0.239889,0.09172 z m -4.78367,0 q -0.148166,0 -0.239889,-0.09172 -0.09172,-0.09878 -0.09172,-0.239889 v -3.196168 q 0,-0.148167 0.09172,-0.239889 0.09172,-0.09172 0.239889,-0.09172 0.148167,0 0.239889,0.09172 0.09172,0.09172 0.09172,0.239889 v 3.196168 q 0,0.141112 -0.09172,0.239889 -0.09172,0.09172 -0.239889,0.09172 z m 2.398891,0 q -0.148167,0 -0.239889,-0.09172 -0.09172,-0.09878 -0.09172,-0.239889 v -2.024945 q 0,-0.458612 -0.232833,-0.698501 -0.232834,-0.246944 -0.606778,-0.246944 -0.388056,0 -0.642056,0.268111 -0.254,0.261056 -0.254,0.677334 h -0.43039 q 0.0071,-0.451556 0.190501,-0.797279 0.183444,-0.352778 0.508,-0.550333 0.324556,-0.197556 0.740834,-0.197556 0.409222,0 0.719667,0.183445 0.3175,0.183444 0.486834,0.529167 0.176389,0.345722 0.176389,0.832556 v 2.024945 q 0,0.141112 -0.09172,0.239889 -0.08467,0.09172 -0.232833,0.09172 z"
         style="font-style:normal;font-variant:normal;font-weight:600;font-stretch:normal;font-size:7.05556px;font-family:Comfortaa;-inkscape-font-specification:'Comfortaa Semi-Bold';fill:#3d85c6;fill-opacity:1;stroke:#3d85c6;stroke-width:0.264583;stroke-opacity:1"
         id="path12805" />
    </g>
    <g
       style="font-style:normal;font-variant:normal;font-weight:bold;font-stretch:normal;font-size:7.05556px;line-height:1.25;font-family:Comfortaa;-inkscape-font-specification:'Comfortaa Bold';fill:#3d85c6;fill-opacity:1;stroke:#3d85c6;stroke-width:0.264583;stroke-opacity:1"
       id="text14754"
       aria-label="1">
      <g
         style="opacity:1"
         id="g14759">
        <path
           id="path14761"
           d="m 11.716762,39.498516 c -0.09407,0 -0.176389,-0.03528 -0.246945,-0.105833 -0.07056,-0.07056 -0.105833,-0.155223 -0.105833,-0.254 v -4.303892 l -0.515056,0.218722 c -0.07996,0.03293 -0.155223,0.04939 -0.225778,0.04939 -0.103481,0 -0.1905,-0.03293 -0.261056,-0.09878 -0.06585,-0.06585 -0.09878,-0.15052 -0.09878,-0.254 0,-0.07526 0.01882,-0.143463 0.05645,-0.204611 0.03763,-0.06115 0.09642,-0.105832 0.176389,-0.134056 l 1.100667,-0.395111 c 0.02352,-0.0094 0.04704,-0.01646 0.07056,-0.02117 0.02352,-0.0047 0.04469,-0.0071 0.0635,-0.0071 0.108185,0 0.192852,0.03528 0.254,0.105833 0.06585,0.06585 0.09878,0.152872 0.09878,0.261056 v 4.78367 c 0,0.09878 -0.03528,0.183444 -0.105834,0.254 -0.07056,0.07055 -0.157574,0.105833 -0.261055,0.105833 z"
           style="color:#000000;font-style:normal;font-variant:normal;font-weight:bold;font-stretch:normal;font-size:7.05556px;line-height:1.25;font-family:Comfortaa;-inkscape-font-specification:'Comfortaa Bold';font-variant-ligatures:normal;font-variant-position:normal;font-variant-caps:normal;font-variant-numeric:normal;font-variant-alternates:normal;font-variant-east-asian:normal;font-feature-settings:normal;font-variation-settings:normal;text-indent:0;text-align:start;text-decoration:none;text-decoration-line:none;text-decoration-style:solid;text-decoration-color:#000000;letter-spacing:normal;word-spacing:normal;text-transform:none;writing-mode:lr-tb;direction:ltr;text-orientation:mixed;dominant-baseline:auto;baseline-shift:baseline;text-anchor:start;white-space:normal;shape-padding:0;shape-margin:0;inline-size:0;clip-rule:nonzero;display:inline;overflow:visible;visibility:visible;isolation:auto;mix-blend-mode:normal;color-interpolation:sRGB;color-interpolation-filters:linearRGB;solid-color:#000000;solid-opacity:1;vector-effect:none;fill:#3d85c6;fill-opacity:1;fill-rule:nonzero;stroke:none;stroke-width:0.264583;stroke-linecap:butt;stroke-linejoin:miter;stroke-miterlimit:4;stroke-dasharray:none;stroke-dashoffset:0;stroke-opacity:1.0;color-rendering:auto;image-rendering:auto;shape-rendering:auto;text-rendering:auto;enable-background:accumulate;stop-color:#000000;stop-opacity:1;" />
        <path
           id="path14763"
           d="M 11.730469 33.855469 C 11.700561 33.855469 11.670833 33.859155 11.640625 33.865234 C 11.608797 33.871604 11.577449 33.88035 11.546875 33.892578 L 11.552734 33.892578 L 10.451172 34.287109 C 10.349072 34.323145 10.261819 34.387528 10.207031 34.476562 C 10.1567 34.558342 10.130859 34.65269 10.130859 34.75 C 10.130859 34.881543 10.177226 35.007304 10.267578 35.097656 L 10.269531 35.099609 L 10.271484 35.101562 C 10.365625 35.189428 10.491503 35.234375 10.623047 35.234375 C 10.714181 35.234375 10.805807 35.213924 10.898438 35.175781 L 10.900391 35.175781 L 11.232422 35.035156 L 11.232422 39.138672 C 11.232422 39.268947 11.284571 39.393945 11.376953 39.486328 C 11.468297 39.577671 11.58965 39.630859 11.716797 39.630859 L 11.826172 39.630859 L 11.835938 39.582031 C 11.919919 39.559885 12.010191 39.548403 12.072266 39.486328 C 12.164648 39.393945 12.216797 39.268948 12.216797 39.138672 L 12.216797 34.355469 C 12.216797 34.222625 12.168621 34.097004 12.080078 34.005859 C 11.993636 33.908329 11.865862 33.855469 11.730469 33.855469 z M 11.730469 34.121094 C 11.809895 34.121094 11.848907 34.138312 11.884766 34.179688 L 11.888672 34.183594 L 11.890625 34.1875 C 11.930866 34.227741 11.951172 34.274127 11.951172 34.355469 L 11.951172 39.138672 C 11.951172 39.205951 11.933495 39.250099 11.884766 39.298828 C 11.837077 39.346517 11.790212 39.365234 11.716797 39.365234 L 11.712891 39.365234 C 11.654375 39.364352 11.610982 39.34731 11.5625 39.298828 C 11.513771 39.250099 11.496094 39.205951 11.496094 39.138672 L 11.496094 34.634766 L 10.796875 34.931641 C 10.730483 34.958723 10.672494 34.970703 10.623047 34.970703 C 10.548672 34.970703 10.501443 34.952722 10.455078 34.910156 L 10.453125 34.908203 C 10.413034 34.867382 10.396484 34.824309 10.396484 34.75 C 10.396484 34.696791 10.406705 34.65575 10.431641 34.615234 C 10.452106 34.581976 10.483183 34.557521 10.541016 34.537109 L 10.541016 34.535156 L 11.644531 34.140625 L 11.646484 34.138672 C 11.662951 34.132086 11.678147 34.128044 11.693359 34.125 C 11.710191 34.121613 11.72275 34.121094 11.730469 34.121094 z "
           style="color:#000000;font-style:normal;font-variant:normal;font-weight:bold;font-stretch:normal;font-size:7.05556px;line-height:1.25;font-family:Comfortaa;-inkscape-font-specification:'Comfortaa Bold';font-variant-ligatures:normal;font-variant-position:normal;font-variant-caps:normal;font-variant-numeric:normal;font-variant-alternates:normal;font-variant-east-asian:normal;font-feature-settings:normal;font-variation-settings:normal;text-indent:0;text-align:start;text-decoration:none;text-decoration-line:none;text-decoration-style:solid;text-decoration-color:#000000;letter-spacing:normal;word-spacing:normal;text-transform:none;writing-mode:lr-tb;direction:ltr;text-orientation:mixed;dominant-baseline:auto;baseline-shift:baseline;text-anchor:start;white-space:normal;shape-padding:0;shape-margin:0;inline-size:0;clip-rule:nonzero;display:inline;overflow:visible;visibility:visible;isolation:auto;mix-blend-mode:normal;color-interpolation:sRGB;color-interpolation-filters:linearRGB;solid-color:#000000;solid-opacity:1;vector-effect:none;fill:#3d85c6;fill-opacity:1;fill-rule:nonzero;stroke:none;stroke-width:0.264583;stroke-linecap:butt;stroke-linejoin:miter;stroke-miterlimit:4;stroke-dasharray:none;stroke-dashoffset:0;stroke-opacity:1.0;color-rendering:auto;image-rendering:auto;shape-rendering:auto;text-rendering:auto;enable-background:accumulate;stop-color:#000000;stop-opacity:1;" />
      </g>
    </g>
  </g>
</svg>
