<?xml version="1.0" encoding="UTF-8" standalone="no"?>
<svg
   xmlns:dc="http://purl.org/dc/elements/1.1/"
   xmlns:cc="http://creativecommons.org/ns#"
   xmlns:rdf="http://www.w3.org/1999/02/22-rdf-syntax-ns#"
   xmlns:svg="http://www.w3.org/2000/svg"
   xmlns="http://www.w3.org/2000/svg"
   xmlns:sodipodi="http://sodipodi.sourceforge.net/DTD/sodipodi-0.dtd"
   xmlns:inkscape="http://www.inkscape.org/namespaces/inkscape"
   sodipodi:docname="navileft3m.svg"
   inkscape:version="1.0 (4035a4fb49, 2020-05-01)"
   id="svg857"
   version="1.1"
   viewBox="0 0 31 43"
   height="43mm"
   width="31mm">
  <defs
     id="defs851">
    <marker
       inkscape:isstock="true"
       style="overflow:visible"
       id="marker8131"
       refX="0"
       refY="0"
       orient="auto"
       inkscape:stockid="TriangleOutL">
      <path
         transform="scale(0.8)"
         style="fill:#000000;fill-opacity:1;fill-rule:evenodd;stroke:#000000;stroke-width:1pt;stroke-opacity:1"
         d="M 5.77,0 -2.88,5 V -5 Z"
         id="path8129" />
    </marker>
    <marker
       inkscape:isstock="true"
       style="overflow:visible"
       id="marker8079"
       refX="0"
       refY="0"
       orient="auto"
       inkscape:stockid="Arrow2Mend">
      <path
         transform="scale(-0.6)"
         d="M 8.7185878,4.0337352 -2.2072895,0.01601326 8.7185884,-4.0017078 c -1.7454984,2.3720609 -1.7354408,5.6174519 -6e-7,8.035443 z"
         style="fill:#000000;fill-opacity:1;fill-rule:evenodd;stroke:#000000;stroke-width:0.625;stroke-linejoin:round;stroke-opacity:1"
         id="path8077" />
    </marker>
    <marker
       inkscape:isstock="true"
       style="overflow:visible"
       id="Arrow2Mend"
       refX="0"
       refY="0"
       orient="auto"
       inkscape:stockid="Arrow2Mend">
      <path
         transform="scale(-0.6)"
         d="M 8.7185878,4.0337352 -2.2072895,0.01601326 8.7185884,-4.0017078 c -1.7454984,2.3720609 -1.7354408,5.6174519 -6e-7,8.035443 z"
         style="fill:#000000;fill-opacity:1;fill-rule:evenodd;stroke:#000000;stroke-width:0.625;stroke-linejoin:round;stroke-opacity:1"
         id="path7191" />
    </marker>
    <marker
       inkscape:isstock="true"
       style="overflow:visible"
       id="Arrow2Lend"
       refX="0"
       refY="0"
       orient="auto"
       inkscape:stockid="Arrow2Lend">
      <path
         transform="matrix(-1.1,0,0,-1.1,-1.1,0)"
         d="M 8.7185878,4.0337352 -2.2072895,0.01601326 8.7185884,-4.0017078 c -1.7454984,2.3720609 -1.7354408,5.6174519 -6e-7,8.035443 z"
         style="fill:#000000;fill-opacity:1;fill-rule:evenodd;stroke:#000000;stroke-width:0.625;stroke-linejoin:round;stroke-opacity:1"
         id="path7185" />
    </marker>
    <marker
       inkscape:isstock="true"
       id="ExperimentalArrow"
       refX="5"
       refY="3"
       orient="auto-start-reverse"
       inkscape:stockid="ExperimentalArrow">
      <path
         style="fill:context-stroke;stroke:#000000;stroke-opacity:1"
         d="M 10,3 0,6 V 0 Z"
         id="path7417" />
    </marker>
    <marker
       inkscape:isstock="true"
       style="overflow:visible"
       id="TriangleOutL"
       refX="0"
       refY="0"
       orient="auto"
       inkscape:stockid="TriangleOutL">
      <path
         transform="scale(0.8)"
         style="fill:#000000;fill-opacity:1;fill-rule:evenodd;stroke:#000000;stroke-width:1pt;stroke-opacity:1"
         d="M 5.77,0 -2.88,5 V -5 Z"
         id="path7306" />
    </marker>
    <marker
       inkscape:isstock="true"
       style="overflow:visible"
       id="EmptyTriangleOutL"
       refX="0"
       refY="0"
       orient="auto"
       inkscape:stockid="EmptyTriangleOutL">
      <path
         transform="matrix(0.8,0,0,0.8,-4.8,0)"
         style="fill:#ffffff;fill-rule:evenodd;stroke:#000000;stroke-width:1pt;stroke-opacity:1"
         d="M 5.77,0 -2.88,5 V -5 Z"
         id="path7324" />
    </marker>
    <marker
       inkscape:stockid="ExperimentalArrow"
       orient="auto-start-reverse"
       refY="3"
       refX="5"
       id="ExperimentalArrow-3"
       inkscape:isstock="true">
      <path
         id="path7417-6"
         d="M 10,3 0,6 V 0 Z"
         style="fill:context-stroke;stroke:#000000;stroke-opacity:1" />
    </marker>
  </defs>
  <sodipodi:namedview
     inkscape:window-maximized="0"
     inkscape:window-y="0"
     inkscape:window-x="0"
     inkscape:window-height="1024"
     inkscape:window-width="1898"
     showgrid="false"
     inkscape:document-rotation="0"
     inkscape:current-layer="layer1"
     inkscape:document-units="mm"
     inkscape:cy="235.47803"
     inkscape:cx="413.33991"
     inkscape:zoom="1.4"
     inkscape:pageshadow="2"
     inkscape:pageopacity="0.0"
     borderopacity="1.0"
     bordercolor="#666666"
     pagecolor="#ffffff"
     id="base" />
  <metadata
     id="metadata854">
    <rdf:RDF>
      <cc:Work
         rdf:about="">
        <dc:format>image/svg+xml</dc:format>
        <dc:type
           rdf:resource="http://purl.org/dc/dcmitype/StillImage" />
        <dc:title />
      </cc:Work>
    </rdf:RDF>
  </metadata>
  <g
     id="layer1"
     inkscape:groupmode="layer"
     inkscape:label="Слой 1">
    <g
       style="font-style:normal;font-variant:normal;font-weight:bold;font-stretch:normal;font-size:7.05556px;line-height:1.25;font-family:Montserrat;-inkscape-font-specification:'Montserrat Bold';fill:#3d85c6;fill-opacity:1;stroke:#3d85c6;stroke-width:0;stroke-miterlimit:4;stroke-dasharray:none;stroke-opacity:1"
       id="text15410"
       aria-label="3 м">
      <g
         style="opacity:1"
         id="g17400">
        <path
           id="path17402"
           d="m 12.359679,35.827104 c 0.432741,0.07055 0.764352,0.232833 0.994834,0.486833 0.230481,0.249297 0.345722,0.559741 0.345722,0.931334 0,0.286927 -0.07526,0.552686 -0.225778,0.797279 -0.150519,0.239889 -0.381,0.432741 -0.691445,0.578556 -0.305741,0.145815 -0.682037,0.218722 -1.128889,0.218722 -0.348075,0 -0.691445,-0.04468 -1.030112,-0.134056 -0.333963,-0.09407 -0.618538,-0.225778 -0.8537228,-0.395111 l 0.4444998,-0.874889 c 0.188149,0.141111 0.404519,0.251648 0.649112,0.331611 0.249297,0.07526 0.503297,0.112889 0.762,0.112889 0.286927,0 0.512705,-0.05409 0.677334,-0.162278 0.16463,-0.112889 0.246945,-0.270463 0.246945,-0.472723 0,-0.404519 -0.308093,-0.606778 -0.924279,-0.606778 h -0.522111 v -0.754945 l 1.016001,-1.150056 h -2.102557 v -0.917223 h 3.457224 v 0.740834 z"
           style="color:#000000;font-style:normal;font-variant:normal;font-weight:bold;font-stretch:normal;font-size:7.05556px;line-height:1.25;font-family:Montserrat;-inkscape-font-specification:'Montserrat Bold';font-variant-ligatures:normal;font-variant-position:normal;font-variant-caps:normal;font-variant-numeric:normal;font-variant-alternates:normal;font-variant-east-asian:normal;font-feature-settings:normal;font-variation-settings:normal;text-indent:0;text-align:start;text-decoration:none;text-decoration-line:none;text-decoration-style:solid;text-decoration-color:#000000;letter-spacing:normal;word-spacing:normal;text-transform:none;writing-mode:lr-tb;direction:ltr;text-orientation:mixed;dominant-baseline:auto;baseline-shift:baseline;text-anchor:start;white-space:normal;shape-padding:0;shape-margin:0;inline-size:0;clip-rule:nonzero;display:inline;overflow:visible;visibility:visible;isolation:auto;mix-blend-mode:normal;color-interpolation:sRGB;color-interpolation-filters:linearRGB;solid-color:#000000;solid-opacity:1;vector-effect:none;fill:#3d85c6;fill-opacity:1;fill-rule:nonzero;stroke:none;stroke-width:0;stroke-linecap:butt;stroke-linejoin:miter;stroke-miterlimit:4;stroke-dasharray:none;stroke-dashoffset:0;stroke-opacity:1.0;color-rendering:auto;image-rendering:auto;shape-rendering:auto;text-rendering:auto;enable-background:accumulate;stop-color:#000000;stop-opacity:1;" />
        <path
           id="path17404"
           d="M 10.001953 33.800781 L 10.001953 34.75 L 12.083984 34.75 L 11.087891 35.876953 L 11.087891 36.654297 L 11.625 36.654297 C 11.931342 36.654297 12.160591 36.70429 12.310547 36.802734 C 12.460503 36.901178 12.533203 37.047896 12.533203 37.246094 C 12.533203 37.444013 12.455876 37.59471 12.294922 37.705078 C 12.133858 37.810921 11.909916 37.865234 11.625 37.865234 C 11.367848 37.865234 11.116971 37.82677 10.869141 37.751953 C 10.626038 37.672477 10.411256 37.563812 10.224609 37.423828 L 10.208984 37.412109 L 9.75 38.316406 L 9.7617188 38.324219 C 9.9986781 38.494829 10.283709 38.626216 10.619141 38.720703 C 10.959115 38.810419 11.304853 38.855469 11.654297 38.855469 C 12.102889 38.855469 12.480588 38.781884 12.789062 38.634766 C 13.101663 38.487938 13.335906 38.293629 13.488281 38.050781 C 13.640263 37.80381 13.716797 37.535818 13.716797 37.246094 C 13.716797 36.871193 13.600359 36.554941 13.367188 36.302734 C 13.139312 36.051607 12.805321 35.895819 12.384766 35.822266 L 13.490234 34.5625 L 13.490234 33.800781 L 10.001953 33.800781 z M 10.033203 33.832031 L 13.458984 33.832031 L 13.458984 34.550781 L 12.328125 35.837891 L 12.357422 35.84375 C 12.787598 35.913887 13.114168 36.073363 13.341797 36.324219 C 13.569588 36.570606 13.683594 36.877809 13.683594 37.246094 C 13.683594 37.530223 13.609993 37.790989 13.460938 38.033203 C 13.312275 38.270133 13.08368 38.462619 12.775391 38.607422 C 12.472384 38.751933 12.099409 38.824219 11.654297 38.824219 C 11.307592 38.824219 10.966265 38.778479 10.628906 38.689453 C 10.301693 38.597281 10.024216 38.466961 9.7929688 38.302734 L 10.220703 37.457031 C 10.40716 37.594451 10.619144 37.704666 10.859375 37.783203 C 11.110138 37.858905 11.364745 37.896484 11.625 37.896484 C 11.913938 37.896484 12.144305 37.840997 12.3125 37.730469 C 12.480806 37.61506 12.566406 37.452695 12.566406 37.246094 C 12.566406 37.039772 12.486262 36.881159 12.328125 36.777344 C 12.169988 36.673529 11.934844 36.623047 11.625 36.623047 L 11.119141 36.623047 L 11.119141 35.888672 L 12.15625 34.716797 L 10.033203 34.716797 L 10.033203 33.832031 z "
           style="color:#000000;font-style:normal;font-variant:normal;font-weight:bold;font-stretch:normal;font-size:7.05556px;line-height:1.25;font-family:Montserrat;-inkscape-font-specification:'Montserrat Bold';font-variant-ligatures:normal;font-variant-position:normal;font-variant-caps:normal;font-variant-numeric:normal;font-variant-alternates:normal;font-variant-east-asian:normal;font-feature-settings:normal;font-variation-settings:normal;text-indent:0;text-align:start;text-decoration:none;text-decoration-line:none;text-decoration-style:solid;text-decoration-color:#000000;letter-spacing:normal;word-spacing:normal;text-transform:none;writing-mode:lr-tb;direction:ltr;text-orientation:mixed;dominant-baseline:auto;baseline-shift:baseline;text-anchor:start;white-space:normal;shape-padding:0;shape-margin:0;inline-size:0;clip-rule:nonzero;display:inline;overflow:visible;visibility:visible;isolation:auto;mix-blend-mode:normal;color-interpolation:sRGB;color-interpolation-filters:linearRGB;solid-color:#000000;solid-opacity:1;vector-effect:none;fill:#3d85c6;fill-opacity:1;fill-rule:nonzero;stroke:none;stroke-width:0;stroke-linecap:butt;stroke-linejoin:miter;stroke-miterlimit:4;stroke-dasharray:none;stroke-dashoffset:0;stroke-opacity:1.0;color-rendering:auto;image-rendering:auto;shape-rendering:auto;text-rendering:auto;enable-background:accumulate;stop-color:#000000;stop-opacity:1;" />
      </g>
      <g
         style="opacity:1"
         id="g17406">
        <path
           id="path17408"
           d="m 20.184295,38.755161 v -2.27189 L 19.04835,38.388272 H 18.582683 L 17.47496,36.476215 v 2.278946 H 16.480126 V 34.95927 h 1.150056 l 1.213556,2.194279 1.291168,-2.194279 h 1.030112 l 0.01411,3.795891 z"
           style="color:#000000;font-style:normal;font-variant:normal;font-weight:bold;font-stretch:normal;font-size:7.05556px;line-height:1.25;font-family:Montserrat;-inkscape-font-specification:'Montserrat Bold';font-variant-ligatures:normal;font-variant-position:normal;font-variant-caps:normal;font-variant-numeric:normal;font-variant-alternates:normal;font-variant-east-asian:normal;font-feature-settings:normal;font-variation-settings:normal;text-indent:0;text-align:start;text-decoration:none;text-decoration-line:none;text-decoration-style:solid;text-decoration-color:#000000;letter-spacing:normal;word-spacing:normal;text-transform:none;writing-mode:lr-tb;direction:ltr;text-orientation:mixed;dominant-baseline:auto;baseline-shift:baseline;text-anchor:start;white-space:normal;shape-padding:0;shape-margin:0;inline-size:0;clip-rule:nonzero;display:inline;overflow:visible;visibility:visible;isolation:auto;mix-blend-mode:normal;color-interpolation:sRGB;color-interpolation-filters:linearRGB;solid-color:#000000;solid-opacity:1;vector-effect:none;fill:#3d85c6;fill-opacity:1;fill-rule:nonzero;stroke:none;stroke-width:0;stroke-linecap:butt;stroke-linejoin:miter;stroke-miterlimit:4;stroke-dasharray:none;stroke-dashoffset:0;stroke-opacity:1.0;color-rendering:auto;image-rendering:auto;shape-rendering:auto;text-rendering:auto;enable-background:accumulate;stop-color:#000000;stop-opacity:1;" />
        <path
           id="path17410"
           d="M 16.464844 34.943359 L 16.464844 38.771484 L 17.490234 38.771484 L 17.490234 36.535156 L 18.574219 38.404297 L 19.056641 38.404297 L 20.167969 36.541016 L 20.167969 38.771484 L 20.183594 38.771484 L 21.195312 38.771484 L 21.181641 34.943359 L 20.125 34.943359 L 18.84375 37.121094 L 17.638672 34.943359 L 16.464844 34.943359 z M 16.496094 34.974609 L 17.621094 34.974609 L 18.84375 37.185547 L 20.144531 34.974609 L 21.148438 34.974609 L 21.164062 38.738281 L 20.201172 38.738281 L 20.201172 36.425781 L 20.167969 36.482422 L 19.039062 38.373047 L 18.591797 38.373047 L 17.458984 36.416016 L 17.458984 38.738281 L 16.496094 38.738281 L 16.496094 34.974609 z "
           style="color:#000000;font-style:normal;font-variant:normal;font-weight:bold;font-stretch:normal;font-size:7.05556px;line-height:1.25;font-family:Montserrat;-inkscape-font-specification:'Montserrat Bold';font-variant-ligatures:normal;font-variant-position:normal;font-variant-caps:normal;font-variant-numeric:normal;font-variant-alternates:normal;font-variant-east-asian:normal;font-feature-settings:normal;font-variation-settings:normal;text-indent:0;text-align:start;text-decoration:none;text-decoration-line:none;text-decoration-style:solid;text-decoration-color:#000000;letter-spacing:normal;word-spacing:normal;text-transform:none;writing-mode:lr-tb;direction:ltr;text-orientation:mixed;dominant-baseline:auto;baseline-shift:baseline;text-anchor:start;white-space:normal;shape-padding:0;shape-margin:0;inline-size:0;clip-rule:nonzero;display:inline;overflow:visible;visibility:visible;isolation:auto;mix-blend-mode:normal;color-interpolation:sRGB;color-interpolation-filters:linearRGB;solid-color:#000000;solid-opacity:1;vector-effect:none;fill:#3d85c6;fill-opacity:1;fill-rule:nonzero;stroke:none;stroke-width:0;stroke-linecap:butt;stroke-linejoin:miter;stroke-miterlimit:4;stroke-dasharray:none;stroke-dashoffset:0;stroke-opacity:1.0;color-rendering:auto;image-rendering:auto;shape-rendering:auto;text-rendering:auto;enable-background:accumulate;stop-color:#000000;stop-opacity:1;" />
      </g>
    </g>
    <g
       transform="matrix(-1,0,0,1,29.085832,0)"
       id="g8229">
      <path
         id="path7162-0"
         d="M 12.240243,26.318747 12.077518,9.606499 h 7.648134"
         style="fill:none;stroke:#3d85c6;stroke-width:5.02774;stroke-linecap:round;stroke-linejoin:round;stroke-miterlimit:4;stroke-dasharray:none;stroke-opacity:1" />
      <path
         d="m -212.42262,150.43452 7.37345,-131.257061 109.985227,72.014132 z"
         sodipodi:type="star"
         style="fill:#3d85c6;fill-opacity:1;stroke:#3d85c6;stroke-width:10.965;stroke-linecap:round;stroke-linejoin:round;stroke-miterlimit:4;stroke-dasharray:none;stroke-opacity:1;paint-order:markers fill stroke"
         id="path8207"
         sodipodi:sides="3"
         sodipodi:cx="-170.84525"
         sodipodi:cy="86.934525"
         sodipodi:r1="75.90078"
         sodipodi:r2="37.950394"
         sodipodi:arg1="2.1505118"
         sodipodi:arg2="3.1977094"
         inkscape:flatsided="true"
         inkscape:rounded="0"
         inkscape:randomized="0"
         inkscape:transform-center-x="-3.8814865"
         inkscape:transform-center-y="0.001250458"
         transform="matrix(0.05620307,-0.0035009,0.0031468,0.0737857,30.921909,2.483779)" />
    </g>
  </g>
</svg>
