<svg id="Layer_2" data-name="Layer 2" xmlns="http://www.w3.org/2000/svg" width="29" height="29" viewBox="0 0 29 29">
  <title>8</title>
  <g>
    <path d="M9.76,7.24,8,21.76H5.45L8.06,7.24h1.7" style="fill: white"/>
    
    <path d="M20.94,7.24l2.61,14.52H21.09L19.33,7.24h1.62" style="fill: white"/>
    <path d="M15.46,15a.51.51,0,0,1,.51.49l.17,4.45a.51.51,0,0,1-.51.53H13.39a.51.51,0,0,1-.51-.53l.17-4.45a.51.51,0,0,1,.51-.49h1.9" style="fill: white"/>
    <path d="M15.17,8.55a.51.51,0,0,1,.51.49l.17,3.15a.51.51,0,0,1-.51.53H13.66a.51.51,0,0,1-.51-.53L13.32,9a.51.51,0,0,1,.51-.49h1.34" style="fill: white"/>
  </g>
</svg>
