<svg id="Layer_2" data-name="Layer 2" xmlns="http://www.w3.org/2000/svg" width="22" height="22" viewBox="0 0 29 29">
  <title>8</title>
  <path d="M24,22.13H20.75L18.9,6.87h2.35Z" style="fill: white"/>
  <path d="M15.63,20.81H13.39a.88.88,0,0,1-.88-.92l.17-4.45a.88.88,0,0,1,.88-.85h1.9a.88.88,0,0,1,.88.85l.17,4.45a.88.88,0,0,1-.88.92Z" style="fill: white"/>
  <path d="M15.34,12.71H13.66a.88.88,0,0,1-.88-.92l.17-3.15a.88.88,0,0,1,.88-.84h1.34a.88.88,0,0,1,.88.85l.17,3.14a.88.88,0,0,1-.88.92Z" style="fill: white"/>
  <path d="M8.35,22.13H5L7.74,6.87h2.43Z" style="fill: white"/>
</svg>
