<svg id="Layer_2" data-name="Layer 2" xmlns="http://www.w3.org/2000/svg" width="22" height="22" viewBox="0 0 16 16">
  <title>10</title>
  <path d="M9.73,6.77a1.75,1.75,0,0,1,1.57,1l.79,1.63a1.18,1.18,0,0,1,.83,1.13v1.56a1,1,0,0,1-.09.41v1.38a.36.36,0,0,1-.36.36h-.58a.36.36,0,0,1-.36-.36v-.81H4.47v.81a.36.36,0,0,1-.36.36H3.53a.36.36,0,0,1-.36-.36V12.49a1,1,0,0,1-.09-.42V10.51a1.18,1.18,0,0,1,.83-1.13l.79-1.63a1.74,1.74,0,0,1,1.57-1H9.73M5.21,8.94h5.59A.24.24,0,0,0,11,8.6L10.73,8a1.13,1.13,0,0,0-1-.63H6.28a1.12,1.12,0,0,0-1,.63L5,8.6A.24.24,0,0,0,5.21,8.94Zm5.17,2.15h0L12,10.91a.24.24,0,0,0,.22-.24v-.34a.24.24,0,0,0-.24-.24h0l-1.64.34a.24.24,0,0,0-.17.34l.08.18A.25.25,0,0,0,10.38,11.09Zm-4.81,0a.24.24,0,0,0,.22-.14l.09-.18a.24.24,0,0,0-.17-.34l-1.64-.34H4a.24.24,0,0,0-.24.24v.34a.24.24,0,0,0,.22.24l1.56.17Z" style="fill: #6B6B69"/>
  <path d="M8,3.91A5.92,5.92,0,0,1,11.7,5.22a.31.31,0,0,1,0,.45l-.24.27a.31.31,0,0,1-.23.1A.33.33,0,0,1,11.06,6a4.95,4.95,0,0,0-6.12,0,.33.33,0,0,1-.2.07.3.3,0,0,1-.23-.1l-.24-.27a.31.31,0,0,1,0-.45A5.92,5.92,0,0,1,8,3.91" style="fill: #6B6B69"/>
  <path d="M8,1a8.83,8.83,0,0,1,5.66,2,.31.31,0,0,1,0,.45l-.24.27a.31.31,0,0,1-.23.1A.32.32,0,0,1,13,3.78a7.86,7.86,0,0,0-10,0,.32.32,0,0,1-.2.07.31.31,0,0,1-.23-.1l-.24-.27a.31.31,0,0,1,0-.45A8.84,8.84,0,0,1,8,1" style="fill: #6B6B69"/>
</svg>
