<svg id="Layer_1" data-name="Layer 1" xmlns="http://www.w3.org/2000/svg" width="25" height="25" viewBox="0 0 25 25">
  <title>Значки радар и тп</title>
  <path d="M19.76,10.59A3.77,3.77,0,0,1,16,14.35H9.32a1.26,1.26,0,1,0,0,2.51h5A3.27,3.27,0,0,0,14,18.11a3.47,3.47,0,0,0,.23,1.25h-5a3.76,3.76,0,1,1,0-7.51H16a1.26,1.26,0,0,0,0-2.52H10.72a3.43,3.43,0,0,0,.23-1.25,3.27,3.27,0,0,0-.24-1.25H16A3.77,3.77,0,0,1,19.76,10.59Z" style="fill: #3D85C6"/>
  <path d="M19.69,18.11a2.15,2.15,0,0,1-2.15,2.15,2.14,2.14,0,0,1-1.73-3.4,2.14,2.14,0,0,1,3.88,1.25Z" style="fill: #3D85C6"/>
  <g>
    <path d="M7.46,10.23a2.15,2.15,0,0,1,0-4.29,2.12,2.12,0,0,1,1.74.89,2.08,2.08,0,0,1,.41,1.25,2.17,2.17,0,0,1-2.15,2.15Z" style="fill: #1d1d1b"/>
    <g>
      <path d="M7.46,10.23a2.15,2.15,0,0,1,0-4.29,2.12,2.12,0,0,1,1.74.89,2.08,2.08,0,0,1,.41,1.25,2.17,2.17,0,0,1-2.15,2.15Z" style="fill: #3D85C6"/>
      <path d="M9.61,8.08a2.17,2.17,0,0,1-2.15,2.15,2.15,2.15,0,0,1,0-4.29,2.12,2.12,0,0,1,1.74.89A2.08,2.08,0,0,1,9.61,8.08Z" style="fill: none"/>
    </g>
  </g>
</svg>
