<svg version="1.1" id="Layer_1" xmlns="http://www.w3.org/2000/svg" xmlns:xlink="http://www.w3.org/1999/xlink" x="0px" y="0px"
	 viewBox="0 0 29 29" width="29" height="29" xml:space="preserve">
<style type="text/css">
	.st0{fill:#212121;}
	.st1{fill:#7394EF;}
</style>
<g>
	<path class="st1" d="M8.9,9.2L5.6,9.8c-0.2-0.9-0.2-2-0.2-3.1V6.2L3.7,7.8c-0.6,0.6-1.6,0.6-2.2,0L1.3,7.7c-0.6-0.6-0.6-1.6,0-2.2
		l5.1-5.1c0.3-0.3,0.8-0.3,1.2,0l5.1,5.1c0.6,0.6,0.6,1.6,0,2.2l-0.2,0.2c-0.6,0.6-1.6,0.6-2.2,0L8.7,6.2v0.5
		C8.7,7.7,8.7,8.5,8.9,9.2z"/>
	<path class="st1" d="M11.5,14.6l-2.6,2.1c-1.1-1.2-2-2.7-2.6-4.5l3.2-0.9C9.9,12.6,10.6,13.6,11.5,14.6z"/>
	<path class="st1" d="M27.7,7.6l-0.2,0.2c-0.6,0.6-1.6,0.6-2.2,0l-1.6-1.6v0.6c0,7.2-3.6,10.3-7.1,13.3l-0.4,0.4v7.5
		c0,0.5-0.4,1-1,1h-1.4c-0.5,0-1-0.4-1-1v-7.4l-0.4-0.4c-0.6-0.6-1.3-1.1-1.9-1.7l2.5-2.3c0.5,0.5,1,0.9,1.6,1.4
		c3.4-2.9,5.8-5.1,5.8-10.7V6.2l-1.6,1.6c-0.6,0.6-1.6,0.6-2.2,0l-0.2-0.2c-0.6-0.6-0.6-1.6,0-2.2l5.1-5.1c0.3-0.3,0.8-0.3,1.2,0
		l5.1,5.1C28.3,6,28.3,7,27.7,7.6z"/>
</g>
</svg>
