<svg id="Layer_1" data-name="Layer 1" xmlns="http://www.w3.org/2000/svg" width="29" height="29" viewBox="0 0 29 29">
  <title>volume</title>
  <path d="M20.37,22.16a.91.91,0,0,0,1.34-.06,11.78,11.78,0,0,0,0-15.2.91.91,0,0,0-1.34-.06h0A.89.89,0,0,0,20.3,8,10,10,0,0,1,20.3,21a.89.89,0,0,0,.07,1.2Z" style="fill: #7394ef"/>
  <path d="M20.87,14.5a8.13,8.13,0,0,1-1.71,5,.91.91,0,0,1-1.36.08h0a.89.89,0,0,1-.08-1.18,6.35,6.35,0,0,0,0-7.81.89.89,0,0,1,.08-1.18h0a.91.91,0,0,1,1.37.08A8.13,8.13,0,0,1,20.87,14.5ZM15.38,7.25a.91.91,0,0,0-1.47-.71L9.63,10H5.41a.91.91,0,0,0-.91.91v7.25a.91.91,0,0,0,.91.91H9.63l4.28,3.43a.91.91,0,0,0,1.47-.71Zm-4.87,4.33,3.06-2.45V19.86l-3.06-2.45a.91.91,0,0,0-.57-.2H6.32V11.78H9.95A.91.91,0,0,0,10.51,11.58Z" style="fill: #7394ef"/>
</svg>

