<?xml version="1.0" encoding="utf-8"?>
<!-- Generator: Adobe Illustrator 24.1.2, SVG Export Plug-In . SVG Version: 6.00 Build 0)  -->
<svg version="1.1" id="Слой_1" xmlns="http://www.w3.org/2000/svg" xmlns:xlink="http://www.w3.org/1999/xlink" x="0px" y="0px"
	 width="83.4px" height="65px" viewBox="0 0 83.4 65" style="enable-background:new 0 0 83.4 65;" xml:space="preserve">
<style type="text/css">
	.st0{fill:#FFFFFF;}
</style>
<g>
	<path class="st0" d="M9.6,9.4h29.2V25H9.6V9.4z M43.8,9.4h12.3v38H43.8V9.4z M61.1,9.4h12.3v38H61.1V9.4z M25,59.9
		c-4.3,0-7.8-3.5-7.8-7.8c0-4.3,3.5-7.8,7.8-7.8c4.3,0,7.8,3.5,7.8,7.8C32.7,56.4,29.3,59.9,25,59.9 M7.7,52.1
		c0-2.3,0.5-4.6,1.4-6.8c0.9-2.1,2.1-3.9,3.7-5.5c1.6-1.6,3.5-2.8,5.5-3.7c2.1-0.9,4.4-1.4,6.8-1.4v4.6c-7,0-12.8,5.7-12.8,12.8
		S18,65,25.1,65c5.6,0,10.3-3.5,12.1-8.5h41.3v-9h5v-10h-5v-28L69,0H0v9.4h4.6V25H0v31.5h8.2C7.9,55,7.7,53.6,7.7,52.1"/>
</g>
</svg>
