<svg xmlns="http://www.w3.org/2000/svg" viewBox="0 0 619.6 515.6"><path d="M509.3 301.5c.5 2.1.6 3.3 1.1 4.2 9.6 18 11.9 37.8 15 57.6 3.2 20.5 7.8 40.9 16.3 60 1.9 4.2 4.8 8 7 12.1 3.1 5.7 2.3 8.6-2.9 12.4-15.7 11.5-29.8 9.4-41.9-6.7-11.1-14.7-17.8-31.6-22.1-49.4-3.7-15.3-10.5-29.1-20.2-41.4-.5-.6-1-1.2-2.3-2.5-1.5 7.8-3.1 14.7-4 21.7-1.5 12.7-7.1 23.1-15.4 32.9-11.4 13.4-20.7 28.3-24 46-.9 4.8-.1 9.9.2 14.9.7 15.7-6.5 23.2-22.7 23-2.1 0-9.9-3.2-12.7-10.3-1.9 7.8-8.9 12.4-13.9 15.1-1.5.8-3.1 1.6-4.6 2.5-12.3 6.6-24.6.7-27.5-12.9-1.4-6.7-3.3-13.2-5.2-19.8-4-14-13.1-24-24.4-32.6a716.89 716.89 0 0 1-30.2-24.5c-12.6-10.9-21.9-24.6-30.3-38.8-8-13.5-18.9-24.1-31-33.6-12.4-9.7-21.5-21.9-27.1-36.4-5.6-14.3-14.1-26.8-22.7-39.3-1-1.4-2.6-2.6-4.1-3.4-32-17.4-65.1-32.1-98.6-46.3-13.6-5.8-27.1-12.2-39.9-19.5-5.7-3.2-10.3-8.8-14.4-14.1-3.6-4.5-2.3-6.4 3.8-7.5 1.3-24.1 10.3-46 21.2-67 13-25.2 27.3-49.7 47.9-69.7 9.1-8.8 19.4-15.7 32.1-18.3 3-.6 5 0 6.7 2.6 8 12.1 15.9 24.3 24.4 35.9 19.5 26.6 45.9 44.3 75.6 57.3 40.3 17.7 81.9 32 124 44.9 22.6 7 45.2 14.2 68.1 19.7 24.6 5.8 47.7 15.5 71.3 23.8 16.8 5.9 33.7 11.6 50.9 16.3 7 1.9 14.8 1.1 22.3 1.4 3.3.1 6.6-.4 10-.4 10.4 0 16.4 2.9 17.6 9.7 1.9 10.5.2 18.6-9.9 23.8-4.5 2.3-9.7 3.8-14.8 4.2-14.5 1.2-29.3 3.7-43.2-3.6l-.6 1.2c4.4 2.9 8.7 6.1 13.3 8.6 10.7 6 21.8 11.4 32.4 17.6 10.2 6 20.7 10.6 32.5 12.2 7.4 1 12.3 4.7 13.9 12.2 1.4 6.4-2 14-8 18.1-7.8 5.4-16.5 6-25.4 3.6l-45.1-12.6-18.5-4.9z"/><path d="M379.3 405.2c3.2-11.5 6.7-23.1 9.5-34.9.8-3.4.3-7.4-.6-10.9-2.9-12-6.2-23.8-9.4-35.7-1.3-4.8-4.7-8-9.2-9.8-2.8-1.1-5.7-1.8-8.5-3-2.6-1.1-4.1-.6-5.9 1.6-3.6 4.5-8.1 8.4-11.4 13.1-2.9 4.2-6.7 9.1-6.7 13.7.1 9.1 3.8 17.6 9.3 25.3 7.9 10.9 15.3 22.2 22.1 33.8 2.6 4.5 5.2 6.9 10.8 6.8zm117.5-190.5l2.3-.5 1.2 3.5c1.9 6 3.6 12.1 5.9 18 .8 2 3 4.2 5 4.9 9.1 3.4 18.4 5.6 28.3 3.9 6.5-1.2 13.2-1.6 19.8-2.5 3.1-.4 6.3-.9 9.2-2 6-2.2 10-9.8 8.2-15.4-.7-2.3-1.5-5.8-5.4-3.5-5.9 3.6-12.1 2.9-18.4 1.4-6.6-1.6-13.1-3.3-19.6-5.3-26.2-7.8-52.4-15.3-77.6-25.8-8.8-3.7-18-6.4-27.3-9.6l39.1 27.8.7-5.4h1.2l2.9 10c.3-.1.6-.1 1-.2v-9.3l4.9 13.9c.4-.2.8-.3 1.2-.5v-11.9c.3-.1.7-.1 1-.2l4.6 17.6c.5-.1 1-.3 1.4-.4.4-4.5-2.7-9.2.7-13.7l4.5 19.5c.5-.1 1-.2 1.5-.4l-1.5-16.2c.5-.1.9-.1 1.4-.2 2.6 8.1 2.5 17.4 8.9 24.6l-5.1-22.1zM348.7 463.1l-6.2 5.2c-.8.8-1.5 2.3-1.3 3.3.6 3.6 1.3 7.2 2.6 10.6 1.9 5.2 3.6 5.6 8.1 2.6 2.3-1.5 4.5-3.1 5.7-3.9l-8.9-17.8zm59.7-7.8c-4.3 6.8-5 14.5-5.9 22.2 10.7-5.2 6.8-14.1 5.9-22.2zm-60.6 3.9l-8.7-4.1c-.3-.1-2.3 2.2-2 2.7 1.1 2.4 2.7 4.6 4.2 6.9l6.5-5.5z"/><g fill="#fff"><path d="M234 338.3c-6.4-5.5-13.1-10.8-19.2-16.7-8.7-8.4-15.8-18-20.5-29.3-9.4-22.4-23.8-41.5-39.4-59.8-1.8-2.1-3.1-5-3.7-7.8-4-17.6-4.1-35.3.1-53 .3-1.1.2-2.2-.2-3.4-10.6 15.8-13.7 32.9-9 52.3l-11.9-7.8c-.4.5-.8.9-1.3 1.4l25 25.2c-.3.4-.6.8-1 1.1-3.1-1.8-6.1-3.9-9.3-5.4l-78.2-36.8c-13.8-6.6-27.5-13.4-41-20.7-7.7-4.2-7.6-5-5.6-13.6.7-2.9 1.3-5.8 2-9.2 4.2 1.9 4-.8 3.7-3.6-.4-3-.7-5.9-.9-8.9-.1-.9.5-1.9 1.2-4.1.8 5.8 1.2 10.4 2.2 14.8.4 1.7 2.1 3.1 3.3 4.6.5-1.7 1.5-3.4 1.4-5.1-.3-8.8-1.2-17.6-1.3-26.4 0-3.6 1.4-7.3 2.7-10.8.2 15.1-1.6 30.3 3.9 44.9 2.8-20.9-3.4-42.5 5-62.9-.8 23.5-3.4 47 2 70.2.5 0 1 .1 1.5.1.2-1.6.6-3.2.5-4.8l-1.5-52.4c-.2-12.8 2-25 10.2-35.7C64 62.5 72.4 49.8 81.2 37.4c.4.3.8.6 1.3.8l-11.9 22c.4.3.8.5 1.2.8 1.1-1.5 2.3-2.9 3.2-4.5l10.1-18.4c5.2-10.4 14.6-16.1 24.1-21.6.5-.3 1.2-.2 3 .7-1.3 1.7-2.4 3.6-3.9 5.1-15.4 15.8-24 35.3-31.4 55.6 5.1-10 9.9-20.2 15.3-30 5.5-9.9 12.1-19.1 20.9-26.4.5.3.9.3 1.1.6 1.7 2.7 4.5 5.4 4.5 8.1 0 2.2-3.8 4.1-5.4 6.5L91.1 71c-.8 1.2-1 2.9-.7 4.7 8.6-15.2 17.3-30.1 30.8-42.6 2.7 3.8 5.3 6.8 7.2 10.2.5.9-.5 3.2-1.5 4.5l-20 25.4c-.8 1-1.1 2.3-1 3.9 8.3-9.8 14.3-21.7 25.9-29.2l8.3 9.8c-11.9 9.2-18.3 21.7-24.9 34.1.5.4 1.1.7 1.6 1.1.9-1.4 1.7-2.9 2.6-4.3L137 63.8c2.5-3.4 5.3-4.2 8.3 0 2 2.8 4.6 5.2 7.3 8-10.5 11.2-20.6 22.3-24.9 37.3 7.2-12.9 15.7-24.8 26.8-35.1l9.3 7.8c-14.8 7.2-22.2 20-29.8 32.8l1.5 1.2c.9-1.4 1.9-2.8 2.7-4.2 6.1-9.8 12.4-19.4 22.9-25.3 3.7-2.1 6.8-2.2 9.7 1.3-11.4 12.8-26.4 22.8-30.2 41 5.9-13.4 15.8-23.6 26.2-33.4 6.4-6 6.4-5.9 13.8-1.2 27.5 17.4 57.8 29 88.4 39.2 26.5 8.8 53.4 16.6 80.2 24.8.6.2 1.2.5.9.3-35 .7-68.5-10-101.3-23.7-.2.6-.3 1.2-.5 1.7 8 3.8 15.8 8.2 24 11.4 27 10.6 55.2 16.1 83.9 19.8 16.6 2.1 33.1 5.6 49.7 8.7 12 2.2 18.2 10.2 20.4 21.8.4 2.3 1.3 4.5 2.8 6.6 3.8-5.3 0-10.7 1-16.8 2.2 1.6 4.2 2.8 6 4.2l51.4 41.3c1.2.9 2.5 1.7 3.6 2.7 8.7 7 18.7 13.4 13.1 27.7 4-1.9 4-1.9 5.9-11.2 4.1 1.4 6.4 3.7 6.2 8.3-.2 3.7 0 7.5 0 11.2.7.1 1.3.2 2 .2l2-13.1c6.4 3 12.8 5.7 18.9 9 7.8 4.2 15.4 8.7 22.9 13.4 2.8 1.7 5.2 4 7.5 6.5 5 5.4 10.5 9.9 18.3 9.9 2.3 0 4.6-.8 8.3-1.4l-16.6-4.5.6-2.2c6.1.8 12.6.6 17.4 5.5 5.4 5.5 1.4 15.2-7.1 18-9.2 2.9-17.3.1-25.3-4.5l7.1-11.9c-.5-.3-.9-.6-1.4-.9l-9.7 12-20.2-5.2 3.4-4.4c.8.8 1.9 2.4 2.5 2.3 2.3-.5 8.3-12.3 8.2-15.5l-10.7 13.3 4.9-12.7c-.5-.2-.9-.5-1.4-.7l-10.2 17.6c-9.8-2.9-19.9-5.5-29.7-9.1-7.2-2.6-7.9-6.3-4.3-12.8 1.4-2.6 2.3-5.4 3.4-8.2-.4-.2-.9-.5-1.3-.7l-7.1 10.3c-.6-.3-1.2-.6-1.8-1 1.3-3.2 2.8-6.3 3.8-9.5s1.5-6.6 2.3-9.9c-.5-.2-1-.4-1.6-.5l-6.2 16.4c-.7-.1-1.4-.2-2-.4.1-1.7 0-3.4.3-5 .9-5.1 2.1-10.1 3-15.2.3-1.5-.1-3.1-1.3-4.7l-4.6 19c-.6 0-1.3-.1-1.9-.1 0-1.6-.2-3.2 0-4.8 1-6.8 2.2-13.6 3.3-20.4-.6-.1-1.3-.3-1.9-.4l-4.7 20.6-1.4-.3c1.6-8.1 4.7-16.1 1.1-24.5l-3.5 20.8c-.9-.1-1.8-.2-2.7-.2-1.3-7.4 4.5-14.9.9-23.5l-4.2 18.8-2-.3c2.8-7.6 3.9-15.1.9-23.5l-2.4 19.4c-.6 0-1.1-.1-1.7-.1l1.1-20.1c-.6-.1-1.2-.1-1.8-.2l-2.3 15.4c-3.1-6.1 2.1-12.8-2.7-20l-1.8 15H461c-1.6-7.1 2-14.6-1.6-21.8l-3 16.4h-.9l-1.4-17.2c-.3 0-.7 0-1-.1l-1.6 12c-.4.1-.9.2-1.3.3-.6-3-1.6-6-1.7-9-.2-3 .4-6 .7-9.1l-1.5-.3-2.6 8.2-3.2-13.2-1.7.3.5 9.7c-.3 0-.6.1-.9.1l-3.9-18.4c-.5.1-1 .1-1.5.2l.4 9.6c-1.5-1.4-2.7-2.5-3.9-3.5-.4.2-.8.3-1.1.5.4 1.5.7 3.1 1.3 4.6 5.1 12.7 13.4 23.2 22.7 33.1 11.3 12 22.5 24.1 33.2 36.5 4.9 5.7 8.8 12.2 13.4 18.7-3.9 1.8-7.1 3-10.1 4.7-2.7 1.5-5.1 3.6-6.9 6.4l13.2-4.9c4.3-1.4 6.8.1 8.9 4.4 7.2 14.7 8.6 30.6 11.3 46.3 2.3 13.4 5.7 26.7 9 39.9 1 4.1 1.2 7.6-.5 11.6-4.4 10.5 1.6 28.1 11.9 33-4.4-7.9-10.6-14.4-6.2-24.5 4.1 7.5 8.1 14.1 11.2 21.1.7 1.5-1.8 6.1-3.5 6.5-5.3 1.3-11 1.4-16.5 1.5-.7 0-2.2-2.3-2.2-3.5.1-4.4.7-8.8 1.1-13.9-4.8 3.8-3.8 9.1-4.8 14.4L513 441c.9-1.5 2.2-3 2.7-4.7 1.3-4.3 2.2-8.6 3.2-12.9.2-.8.1-1.7.2-2.5-5.1 5.9-7.2 12.6-6.1 20.1-3.4-4.2-7.4-8.1-10.1-12.8-8.8-15-12.9-31.7-17.1-48.3-.4-1.4.1-3.4.8-4.7l13.8-24.2c.9-1.6 2.1-3.1 3.2-4.6-.5-.4-1-.8-1.5-1.1l-14 18.2c-.4-.2-.8-.5-1.2-.7l13.6-22.5c-9.1 7.5-14.9 17.1-19 27.9 1.8-12.8 7.9-23.6 16.2-34.1-5.8 1.6-8.9 6.4-19.6 28 .4-12.6 6-23.1 14.2-33.2-5.3 1.2-5.3 1.2-17.7 26.5-1.9-2.9-1.2-7.8 3.2-16.4 2.6-5.1 5.9-9.9 8.8-14.8-.4-.4-.9-.7-1.3-1.1-2.9 3.9-6.2 7.6-8.7 11.8-2.6 4.4-4.3 9.2-7 14.9-4.1-7-8.3-13.2-11.2-19.9-.8-1.9 1.9-5.4 2.9-8.2l-.9 6.5c.6.2 1.1.4 1.7.5l12.5-26.5c-.4-.2-.9-.5-1.3-.7l-10.1 16.3 5.8-20.5c-.6-.2-1.1-.5-1.7-.7l-10.7 26.5c-.4-.1-.9-.2-1.3-.3.9-10.7 8.1-20 8.5-30.8-.4-.2-.8-.3-1.3-.5l-8.4 23.9c-.5-.1-1.1-.1-1.6-.2 0-2.3-.4-4.6.1-6.8 1.3-5.5 3.2-10.9 4.7-16.3.4-1.3.4-2.6.6-4-.4-.1-.9-.2-1.3-.4l-6.3 16.4c-.5-.1-1-.2-1.5-.2.3-1.9.5-3.9 1-5.8l7.2-29.8-2.2-.6-7.3 25.7c-.7-12.3 3.1-23.8 6.8-35.3l-1.5-.6c-1.5 3.2-3.1 6.4-4.4 9.8s-2.3 6.9-4.5 10.1l5.6-25c-.3-.1-.5-.2-.8-.4-.9 1-1.8 2-3.2 3.4l-.7-14.4c-.7 0-1.3 0-2-.1l-2 12.7h-1.1v-13.9c-.6 0-1.1-.1-1.7-.1l-2.2 13.8h-.4v-26.6c-.3-.1-.6-.2-1-.3l-2.9 10.9-3.5-22.8c-.5 0-1.1.1-1.6.1 0 5.2-.7 10.4.1 15.5 3 17 6 34.1 9.9 50.9 3.9 16.7 9.2 33 13.4 49.7 1.5 6 2.1 12.6 1.5 18.7-.9 9.7-3.1 19.4-5.1 29-1.6 7.6-2.5 7.9-10 6.5-1-.2-2.1 0-3.5.9 1 .7 1.9 1.4 3 1.9 1.1.6 2.3 1.2 3.9 2-.8 1.4-1.3 2.5-2.1 3.5-11.5 13.6-20.6 28.6-25.7 45.9-.3 1.1-.7 2.5-1.6 3-7.1 5-9.2 12.3-9.7 20.4-.1.8-.4 1.6-1.1 2.3-7-19.6-6.5-39.3-.3-59.1l-1.9-.3c-1.2 4.5-2.5 9-3.5 13.5-1 4.7-2.1 9.5-2.4 14.3-.3 4.9.4 9.9 0 15-.3-5.3-1-10.6-.9-15.9s.4-10.7 1.4-15.9c1.1-5.3 3.2-10.3 4.4-15.7-5.4 6.6-7.1 14.7-9.4 22.6l-1.2-.3 6-24.1c-.3-.1-.7-.3-1-.4l-6 13.9c-1-13.4 6.8-24.6 10.4-36.8l12.8 1.1c.1-.5.1-1.1.2-1.6l-7.8-2.4c1.1-.7 2.6-1 3.3-2l18.6-23.8c.3-.4 0-1.1 0-2.7l-14.5 16.6c-3 3.5-5.6 7.3-8.4 11-3.8-.9-.8-2.3-.1-3.2l19.9-27.5c.4-.5.5-1.2.8-1.7-.4-.3-.8-.6-1.2-1L396 367.1c-.3-.1-.6-.3-1-.4.8-1.9 1.3-4 2.4-5.7l15.5-23.7c-.5-.4-.9-.8-1.4-1.1l-16.6 20.2c-.2-.1-.4-.2-.6-.4l14.3-22.3c-.5-.4-1-.7-1.5-1.1l-13.3 16.7c-.4-7.8 5.5-12.9 8.6-19.2l-1.2-.9-9 11c-.3-.1-.6-.2-.8-.4l6-12.1c-.3-.2-.6-.5-.8-.7l-6.2 7.4c-.2-.1-.4-.2-.7-.3l4.6-11.3c-.4-.2-.8-.4-1.1-.6l-4.6 5.7c-.3-.2-.7-.3-1-.5l4-11.7c-.3-.2-.6-.4-1-.6l-3.9 4.8c-.4-.2-.9-.4-1.3-.6l6.1-12.3c-.8-.3-1.8-.5-2.7-.8l.7-7.5c-.5-.1-1-.3-1.5-.4-1.3 2.5-2.6 5.1-4 7.5-1.7 3.1-3.6 3.7-7.2 1.9-6.9-3.6-14.4-6.2-21.4-9.1 3.9-9.7.9-18.9-.3-28.1h-1.2V293l-4.3-8.7c-.6 0-1.2-.1-1.8-.1 3.2 15.2 2.9 29.1-13.5 36.8 2.6-16-.4-31.1-7.3-45.5-.5.1-.9.2-1.4.2l6.1 29.6c-.4.1-.8.2-1.2.4-1.3-1.7-2.5-3.5-3.8-5.2-.5.2-.9.4-1.4.6.5 3 1.1 6 1.4 9 .7 6.6 1.9 13.3 1.8 19.9-.4 15.9 7.1 28.8 14.8 41.7 2.8 4.7 6.6 8.9 9.2 13.7 5.5 10.2 10.5 20.7 15.8 31 .7 1.3 2.5 13 2.6 16.2.1 2.1.6 4.3.8 6.4.4 3.5 3.1 11.6 1.9 15.2-1.8 5.4-3.9 10.8-6.8 15.9l1.9-7.4-4.6-1.6-7.2 9.1c-.3-.2-.7-.5-1-.7l6.8-10-1.6-1.3-5.2 7.5c-.6-.5-1.2-.9-1.7-1.4l4-7.8c-.3-.2-.6-.4-.9-.7-1.3 1.1-2.5 2.2-4.5 3.8-3.5-9.3-10.9-12.2-20.5-11.4.4-.9.7-1.8 1.1-2.7l15.6 4.1c-4-5.9-8.9-8.2-14.8-8-4.3.1-6.9-1.6-8.3-5.3l16.8-20.9c-.4-.4-.9-.8-1.3-1.2l-18 19.4-1.6-1.3 13.5-17c-.5-.5-1-.9-1.6-1.4l-8.5 9.2c-1.1 1.2-2 2.8-3.3 3.7-1.1.8-2.7.9-4.1 1.3.3-1.4.3-3.1 1.1-4.1 3.4-4.4 7-8.7 10.6-13-.5-.4-1-.9-1.5-1.3l-13.3 14.5-21.5-15.7c-2.7-2-3.5-4.5-.8-7.1l18.5-18c1.3-1.2 2.8-2.3 3.6-4.1-12 4-19.7 13.3-27.5 23.2-2.9-2.5-5.7-4.8-8.3-7.2-14.9-13.3-24.7-30.4-35.2-47-.9-1.5-.8-4.4 0-6.1l15.5-32.8c.7-1.6 1.8-2.9 3.3-5.2-6.7 3-14 15.4-23.5 39.5l-3.5-4.8 8.6-18.9c2.4-5.2 5.1-10.2 7.6-15.3-.5-.3-1-.5-1.5-.8-7.2 10.9-12.5 22.2-16 34.4zm272.1 81.1c-.9 5.6-.5 10.8 4.1 15.5l4.1-18.4-.6-.3-3.9 5.5c-.4-.2-.7-.4-1.1-.6l5.9-14.3c-.4-.2-.9-.4-1.3-.6-2.3 4.4-4.8 8.9-7.2 13.2l7.7-22.5-6.7 8.3c-.3-.2-.7-.4-1-.6l6.9-13.2c-.3-.2-.6-.5-.9-.7l-8.2 10.3c-.3-.2-.6-.3-.9-.5l8.8-16.6-.6-.3c-3.7 5.4-7.9 10.5-10.9 16.3-1.5 2.9-3.8 6.5-.1 10.7 2.1 2.4 1.2 7.4 1.7 11.2.1 1 .5 2 .8 3.1.4.1.7.1 1.1.2l2.3-5.7zM381.4 196.8c-.8-.9-1.5-1.8-2.3-2.7l13.5-12.5c-1.6.1-3.3.5-4.3 1.5-3.7 3.3-7.1 6.9-10.7 10.3-1.2 1.1-2.6 1.9-3.9 2.9l-.9-1.2 9.9-12.2c-.3-.3-.7-.6-1-.8-6.9 3.7-8.8 14.5-19 14.1l10.1-13.8c-.6-.4-1.1-.9-1.7-1.3-.9.9-1.9 1.8-2.8 2.8-2.4 2.7-5 5.3-7.2 8.2-2.9 3.9-6.7 3.7-10.7 2.6-3.1-.8-6.2-1.8-9.2-2.7-.2.4-.3.9-.5 1.3 1.7.8 3.2 2 5 2.4 10.4 2 21 3.5 31.3 5.8 7.9 1.8 15.7 4.1 23.1 7.2 6.7 2.8 9.6 8.5 7.3 16-.1.5.2 1.1.6 2.5l3.1-5.2c5.1 7.2-.1 13.8-1.5 20.5.4.1.8.3 1.3.4l4.9-9 4.5.3c-.1-1.4.2-3-.3-4.3-1.8-5-3.9-9.9-5.9-14.8-2.8-6.8-7.6-11.6-14.6-14.1l-12.6-4.5 9.8-9.2c-.3-.4-.7-.8-1-1.2l-14.3 10.7zm-225.5 30.7v-6.1c0-1.3-.2-2.6.2-3.8.6-2 2.2-3.9 2.1-5.9-.5-17.8.9-35.3 7.9-51.9.3-.8.1-1.7.2-2.6-.6-.2-1.2-.3-1.8-.5l-9 29.4h-.6l3.4-25.7c-8.9 15-11 57.5-2.4 67.1zm195.2-25.3l-107.6-40.3c-.3.7-.5 1.5-.8 2.2 34.8 16.2 70.9 29.1 108.4 38.1zM52.5 89.5c-5.1 26.1-8.2 52.4-3.1 78.9.5 0 1 0 1.6.1l1.5-79zm4.4 85.2c.5 0 .9-.1 1.4-.1V101c-4.4 24.6-6.3 49.1-1.4 73.7zm15-51.6c-5.3 9.8-3.8 57.1 1.8 61.3l-1.8-61.3zm-7.4 58.3c.5 0 .9 0 1.4-.1v-67.4c-4 22.5-5.7 45-1.4 67.5zm303.7 85.4c-.5-.1-1-.1-1.5-.2l-2.5 20.8c-.2 0-.4-.1-.7-.1l-2.1-20c-.7.1-1.4.1-2.1.2v30.1l1.5.3c.6-1.8 1.3-3.5 1.9-5.4.1.8.1 1.4.3 2.1.2.5.6 1 1.4 2.2 5-10.2 4.2-20.1 3.8-30zM114 208.4l-2.1-61.7c-4.6 7-3.2 55.2 2.1 61.7zm6.8-65.2c-5.5 10.6-5.1 53.2 0 59.8v-59.8zm126.1 206.4l18.7-39.9c-8 3.9-21.3 30.6-18.7 39.9zM103.5 147.9c-4.2 19.3-2.8 38.4 1.4 57.6.9-1.7 1.8-3.6 1.5-5.2-3.3-14.9-3.3-30.1-2.9-45.2v-7.2zm-9.4-1.2c-4 9.3-2.5 46.7 1.6 50.6l-1.6-50.6zm308.5 262.7c-5.1 6.8-7.3 36.6-2.6 42.5l2.6-42.5zM162.7 201.2l9.3-45.3c-6.8 8.6-12.4 35.7-9.3 45.3zm-80.4-10.8h1.6V133c-3.7 19.1-4.2 38.2-1.6 57.4zm188 127.1c-8.8 4.8-20.9 25.7-18.8 33.4l18.8-33.4zm-83.2-217.2c-9.2-1.2-33.8 22.8-34.1 32.8 10-12.4 18.2-25.9 34.1-32.8zm-59 51.5c-.4-.1-.9-.1-1.3-.2v34.6c.4 0 .9 0 1.3.1v-34.5zm91.6 102c-10.2 6.5-19.6 21.2-18.2 28.4l18.2-28.4zm-14.4 38.8c.4.3.9.6 1.3.9l17.5-25.2c-8.3 6.6-16.9 13-18.8 24.3zm171.2 8.5c.6.2 1.1.4 1.7.6 5.9-9.5 9.4-19.8 9.5-31.3l-11.2 30.7zm-45.7-25.4c5.5 11.2 5.6 23.3 5.6 35.3 5.4-6 1.7-28.8-5.6-35.3zm-70.9 75.1a11.94 11.94 0 0 0 1.6.8c1-1.6 2-3.2 2.9-4.9 2.4-4.6 4.5-9.2 7.1-13.7.7-1.2 2.5-1.8 4.2-2.9l-.6-6c-7.1 8.5-13.1 16.6-15.2 26.7zm114.8-82.2c-1.6 9.7-5.9 18.7-6.4 28.5 4.7-4.1 8.2-19.8 6.4-28.5zm135.6 104.2c-9 6.7-17 23.9-14.5 29.1l14.5-29.1zm-22 10l15.8-29.8c-6.8 3.8-16.8 22.5-15.8 29.8zM340 280.7l2.5 26.8c4.1-5.2 2.7-20.3-2.5-26.8zm32 20.2l2.5.6c2.8-9.8 6.6-19.4 7.6-29.6-.5-.1-1-.3-1.5-.4l-8.6 29.4zm34.9-14.1c.4.3.8.5 1.3.8 5.2-2.9 14.5-18.7 13.6-23.8l-14.9 23zm19.8 65.8c-.4-.3-.7-.7-1.1-1l-20.1 20.8c.5.5 1 .9 1.5 1.4 8.3-5.5 14-13.4 19.7-21.2zm50.1-39.8c-6.7 7-12 14.8-13.6 24.3.6.3 1.1.5 1.7.8l11.9-25.1zM165 132.3c5.9-9.5 13.6-17 23.7-22.1-8.3-.1-22 12.9-23.7 22.1zm317 186.2c-7.6 5.6-14.9 20-13.3 25.9l13.3-25.9zM366.5 210.4l-1.6-.3c-2.8 7.7-5.2 15.5-4.3 23.7.7.1 1.4.2 2.1.4l3.8-23.8zm-18.6 208.7c-.3-.3-.6-.5-1-.8l-17.7 19.9c.5.4 1 .9 1.6 1.3 7-5.7 12.9-12.3 17.1-20.4zm44.7-141.7L381.2 302c.4.2.9.4 1.3.5 6.8-6.9 9.4-15.6 10.1-25.1zm34.2-3.6a9.13 9.13 0 0 0-1.3-.8l-13.6 20.8a9.13 9.13 0 0 0 1.3.8c7-5.3 10.5-13 13.6-20.8zm-200 43.2l11.4-21.3c-6.8 4-12.9 14.4-11.4 21.3zm262.7 70.3c.5.2.9.5 1.4.7l12.5-24.6-1.2-.6c-5.9 7.4-10 15.6-12.7 24.5zm14.5-15.8c-6.4 3.7-13.2 19.4-10.7 24.8l10.7-24.8zM96.9 93.8c-6.8 6.4-11.1 18.3-9 24.7l9-24.7zm119.8 208.1l14-21.6c-7.6 4-14.4 14.6-14 21.6zm13.9 23.8c.7.3 1.4.6 2 .9l9.2-20.6c-.5-.2-1.1-.5-1.6-.7-3.1 6.9-9.1 12.4-9.6 20.4zM407.2 276c.7.4 1.4.7 2.1 1.1l11-21c-.6-.3-1.1-.6-1.7-.9-3.8 6.9-9.1 13.1-11.4 20.8zm.3 143.4c-5.1 5.6-6.7 17.5-3.1 21.9l3.1-21.9zm23.1-138.9c-.5-.3-1-.6-1.6-1l-11.9 18.7 1.5.9c6.1-4.9 8.7-12 12-18.6zm-62-47.4l3.1-19.7c-5 5.4-6.6 15.3-3.1 19.7zm173.8 48.7l-10.2 15.5c5.6-1.5 10.7-9.1 10.2-15.5zm12.9 22c5.8.8 10.9-5 11-12.1l-11 12.1zm-237.9 96.6c-.4-.3-.7-.7-1.1-1L302 412.6c.4.5.9.9 1.3 1.4 5.8-3.4 10.7-7.8 14.1-13.6zm-46.7-49.6c.8.5 1.6 1 2.4 1.4l8.8-14.6c-.6-.4-1.3-.8-1.9-1.1l-9.3 14.3zm41.4 43.3c-7.2 1.7-12.7 7.2-12.8 12.2l12.8-12.2zm122.1-104c-5.5 3.5-9.2 12.7-6.9 15.9 2.3-5.6 4.6-10.7 6.9-15.9zm-321-178.4c-4.7 4.3-6.5 12.7-3.8 16.8l3.8-16.8zm295.5 150.6l1.8.9 7.4-15.6c-.6-.3-1.1-.6-1.7-.8-2.4 5.2-6.7 9.4-7.5 15.5zm141.6 39.1c5.8-1.2 10-7.7 9.7-13.5l-9.7 13.5zm-31.4-21.6c-.4-.2-.8-.4-1.2-.5l-8 12.8 1.5.9c4-3.5 6.1-8.2 7.7-13.2zm-15 8.1c.8.5 1.6 1 2.4 1.4l7.1-13.1c-.5-.3-1.1-.6-1.6-.9l-7.9 12.6zM372.7 228l2.3.3 2.5-14c-.6-.1-1.3-.2-1.9-.4-.9 4.8-1.9 9.5-2.9 14.1zm130.1 95.1c-.2-1-.4-1.9-.5-2.9l-9.4 1.8c.1.8.3 1.7.4 2.5 3.2-.4 6.4-.9 9.5-1.4zm20.8 110.1c-2.8 4.6-3.5 8-1.6 11.6.5 0 1.1.1 1.6.1v-11.7zm-8.2-140l2 1.4 6.7-9.6c-.6-.4-1.1-.8-1.7-1.2-2.3 3.2-4.7 6.3-7 9.4zM416.2 371c.5.6 1 1.1 1.5 1.7l8.2-7.5c-.5-.5-1-1.1-1.5-1.6l-8.2 7.4zm151.3-63.7c.7.5 1.3 1 2 1.6l5.9-8.9c-.5-.4-1-.7-1.5-1.1l-6.4 8.4zm-45-13.7l2 1.4 6.4-9.7c-.5-.3-1-.7-1.5-1l-6.9 9.3zM352.9 424.1c-.5-.4-.9-.8-1.4-1.2l-8.1 10.3 1.4 1.1c2.8-3.4 5.4-6.8 8.1-10.2zm5.1-208.3c-.6-.1-1.1-.3-1.7-.4l-3 10.7c.6.2 1.3.3 1.9.5.9-3.7 1.8-7.3 2.8-10.8zm213.9 93.3c.6.4 1.1.9 1.7 1.3l5.6-7.1c-.5-.4-1.1-.8-1.6-1.3l-5.7 7.1zm-43.3-14.2c.6.5 1.2.9 1.8 1.4l6.5-8.9c-.4-.3-.9-.6-1.3-.9l-7 8.4zM379.3 405.2c-5.6.1-8.2-2.2-10.8-6.7-6.8-11.6-14.2-22.9-22.1-33.8-5.6-7.7-9.2-16.2-9.3-25.3-.1-4.6 3.7-9.5 6.7-13.7 3.3-4.7 7.8-8.6 11.4-13.1 1.8-2.2 3.3-2.8 5.9-1.6 2.7 1.2 5.7 1.9 8.5 3 4.5 1.9 7.9 5 9.2 9.8l9.4 35.7c.8 3.5 1.4 7.5.6 10.9-2.8 11.7-6.3 23.3-9.5 34.8z"/><path d="M496.8 214.7l5.1 21.9c-6.4-7.2-6.2-16.5-8.9-24.6-.5.1-.9.1-1.4.2l1.5 16.2c-.5.1-1 .2-1.5.4l-4.5-19.5c-3.4 4.5-.3 9.2-.7 13.7-.5.1-1 .3-1.4.4l-4.6-17.6c-.3.1-.7.1-1 .2v11.9c-.4.2-.8.3-1.2.5l-4.9-13.9v9.3c-.3.1-.6.1-1 .2l-2.9-10h-1.2l-.7 5.4-39.1-27.8c9.3 3.2 18.5 5.9 27.3 9.6 25.2 10.5 51.5 18.1 77.6 25.8 6.5 1.9 13.1 3.6 19.6 5.3 6.2 1.6 12.4 2.2 18.4-1.4 3.9-2.3 4.6 1.2 5.4 3.5 1.8 5.6-2.2 13.2-8.2 15.4-2.9 1.1-6.1 1.6-9.2 2-6.6.9-13.2 1.3-19.8 2.5-9.9 1.8-19.2-.5-28.3-3.9-2-.8-4.2-2.9-5-4.9-2.3-5.9-4-12-5.9-18l-1.2-3.5c-.8.3-1.6.5-2.3.7zm25.2 4.7c-.7 8.9 5.7 21.6 10.8 22.9L522 219.4zm-4.8-.6c-.4.2-.9.4-1.3.6 1.5 8.3 3.8 16.1 9.2 22.7.4-.2.9-.4 1.3-.6l-9.2-22.7zm20.5 23.2c.6-.3 1.2-.6 1.9-.9l-9.8-18.6c-.4.2-.8.4-1.2.5 1.6 7 4.8 13.2 9.1 19zm-27.1-23.4c.4 7.9 2.1 15.5 6.7 22.1l1.5-.6-8.2-21.5zm32.3 22.4c.5-.3 1-.6 1.5-.8l-8-16.6-1.2.6c1.2 6.2 3.1 12.2 7.7 16.8zm.9-14.7c-1.4 6.1 1.2 11.8 5.7 13.3l-5.7-13.3zm-36.7-1.9c-.7.2-1.4.4-2.1.5l4.1 13.6c.6-.2 1.3-.4 1.9-.6l-3.9-13.5zm50.7 13.7c.7-.4 1.4-.8 2.1-1.1l-5-8.8c-.5.3-1 .5-1.5.8l4.4 9.1zm-209.1 225l8.8 17.8-5.7 3.9c-4.5 3-6.1 2.6-8.1-2.6-1.3-3.4-1.9-7.1-2.6-10.6-.2-1 .5-2.5 1.3-3.3 2.1-1.9 4.3-3.5 6.3-5.2zm59.7-7.8c.9 8.2 4.7 17-5.9 22.2 1-7.7 1.6-15.4 5.9-22.2z"/></g><path d="M399.3 372.5c2.8-3.7 5.4-7.5 8.4-11 4.5-5.4 9.2-10.6 14.5-16.6 0 1.6.2 2.4 0 2.7l-18.6 23.8c-.8.9-2.2 1.3-3.3 2-.4-.2-.7-.5-1-.9zM234 338.3c3.5-12.2 8.8-23.4 16-33.7.5.3 1 .5 1.5.8l-7.6 15.3c-3 6.3-5.8 12.6-8.6 18.9-.4-.5-.8-.9-1.3-1.3zm229.1-20l10.1-16.3 1.3.7-12.5 26.5c-.6-.2-1.1-.4-1.7-.5l.9-6.5 1.9-3.9z"/><path d="M347.8 459.2l-6.6 5.5c-1.4-2.3-3.1-4.4-4.2-6.9-.2-.5 1.7-2.8 2-2.7 2.7.9 5.1 2.3 8.8 4.1z" fill="#fff"/><path d="M381.4 196.8l14.3-10.8c.3.4.7.8 1 1.2l-9.8 9.2 12.6 4.5c7 2.5 11.8 7.3 14.6 14.1 2.1 4.9 4.1 9.8 5.9 14.8.5 1.3.2 2.8.3 4.3l-4.5-.3-4.9 9c-.4-.1-.8-.3-1.3-.4 1.4-6.7 6.6-13.2 1.5-20.5-.9 1.6-1.8 3-3.1 5.2-.3-1.4-.7-2.1-.6-2.5 2.3-7.5-.6-13.2-7.3-16-7.4-3.1-15.3-5.4-23.1-7.2-10.4-2.4-20.9-3.8-31.3-5.8-1.7-.3-3.3-1.6-5-2.4.2-.4.3-.9.5-1.3l9.2 2.7c4 1.1 7.7 1.3 10.7-2.6 2.2-2.9 4.8-5.5 7.2-8.2.9-1 1.9-1.9 2.8-2.8.6.4 1.1.9 1.7 1.3l-10.1 13.8c10.2.4 12.1-10.4 19-14.1.3.3.7.6 1 .8l-9.9 12.2.9 1.2c1.3-1 2.7-1.8 3.9-2.9 3.6-3.4 7-7 10.7-10.3 1.1-1 2.7-1.4 4.3-1.5L379.1 194c.8 1 1.5 1.9 2.3 2.8zm-225.5 30.7c-8.6-9.6-6.5-52.1 2.3-67.1l-3.4 25.7h.6l9-29.4c.6.2 1.2.3 1.8.5 0 .9.1 1.8-.2 2.6-7 16.7-8.4 34.1-7.9 51.9.1 1.9-1.5 3.9-2.1 5.9-.3 1.2-.2 2.5-.2 3.8.1 2 .1 4.1.1 6.1zm195.2-25.3c-37.5-9.1-73.6-21.9-108.4-38.1.3-.7.5-1.5.8-2.2l107.6 40.3zM52.5 89.5L51 168.4c-.5 0-1 0-1.6-.1-5.1-26.4-2.1-52.7 3.1-78.8zm453.6 329.9l-2.3 5.5c-.4-.1-.7-.1-1.1-.2l-.8-3.1c-.5-3.8.4-8.8-1.7-11.2-3.7-4.2-1.5-7.8.1-10.7 3-5.7 7.2-10.9 10.9-16.3a2.83 2.83 0 0 0 .6.3l-8.8 16.6c.3.2.6.3.9.5l8.2-10.3c.3.2.6.5.9.7l-6.9 13.2c.3.2.7.4 1 .6l6.7-8.3-7.7 22.7zM56.9 174.7c-4.9-24.6-3-49.2 1.4-73.7v73.6c-.5.1-.9.1-1.4.1zm15-51.6l1.8 61.3c-5.6-4.2-7.1-51.6-1.8-61.3zm-7.4 58.3c-4.3-22.5-2.7-45 1.4-67.5v67.4c-.4.1-.9.1-1.4.1zm303.7 85.4c.3 9.8 1.2 19.8-3.8 29.9-.8-1.2-1.2-1.7-1.4-2.2-.2-.6-.2-1.3-.3-2.1l-1.9 5.4-1.5-.3v-30.1c.7-.1 1.4-.1 2.1-.2l2.1 20c.2 0 .4.1.7.1l2.5-20.8c.5.2 1 .3 1.5.3zM114 208.4c-5.3-6.5-6.7-54.7-2.1-61.7l2.1 61.7zm6.8-65.2V203c-5.1-6.6-5.5-49.1 0-59.8zm126.1 206.4c-2.6-9.3 10.7-36 18.7-39.9l-18.7 39.9zM103.5 147.9v7.2c-.4 15.2-.3 30.3 2.9 45.2.4 1.6-.5 3.5-1.5 5.2-4.3-19.2-5.6-38.3-1.4-57.6zm-9.4-1.2l1.6 50.6c-4.1-4-5.5-41.3-1.6-50.6zm308.5 262.7l-2.6 42.5c-4.7-5.9-2.5-35.7 2.6-42.5zM162.7 201.2c-3.1-9.7 2.5-36.7 9.3-45.3l-9.3 45.3z"/><path d="M82.3 190.4c-2.7-19.2-2.1-38.3 1.6-57.4v57.4h-1.6zm188 127.1l-18.8 33.4c-2.1-7.8 10-28.6 18.8-33.4zm-83.2-217.2c-15.9 6.9-24.1 20.4-34.1 32.8.3-10 24.9-34 34.1-32.8zm319 319.2l7.3-13.2 1.3.6-5.9 14.3 1.1.6 3.9-5.5.6.3-4.1 18.4c-4.6-4.8-5.1-10-4.2-15.5h0zm-378-267.7v34.5c-.4 0-.9 0-1.3-.1v-34.6l1.3.2zm91.6 102l-18.2 28.4c-1.4-7.2 8.1-22 18.2-28.4zm-14.4 38.8c2-11.3 10.5-17.7 18.8-24.3l-17.5 25.2c-.4-.3-.9-.6-1.3-.9zm171.2 8.5l11.2-30.7c-.1 11.5-3.6 21.8-9.5 31.3-.5-.2-1.1-.4-1.7-.6zm-45.7-25.4c7.4 6.5 11 29.4 5.6 35.3 0-12.1-.1-24.1-5.6-35.3zm-70.9 75.1c2.2-10.1 8.1-18.2 15.2-26.6l.6 6c-1.7 1.1-3.5 1.7-4.2 2.9-2.6 4.4-4.7 9.1-7.1 13.7-.9 1.7-1.9 3.2-2.9 4.9-.6-.3-1.1-.6-1.6-.9zm114.8-82.2c1.8 8.7-1.7 24.4-6.4 28.5.5-9.8 4.8-18.8 6.4-28.5zm135.6 104.2l-14.5 29.1c-2.6-5.2 5.5-22.4 14.5-29.1zm-22 10c-1.1-7.3 9-26 15.8-29.8l-15.8 29.8zM340 280.7c5.2 6.5 6.6 21.6 2.5 26.8l-2.5-26.8zm32 20.2l8.6-29.4c.5.1 1 .3 1.5.4-1 10.3-4.9 19.8-7.6 29.6-.9-.2-1.7-.4-2.5-.6zm34.9-14.1l14.9-23c.8 5.1-8.5 20.9-13.6 23.8-.4-.3-.9-.5-1.3-.8zm19.8 65.8c-5.8 7.8-11.4 15.7-19.7 21.2-.5-.5-1-.9-1.5-1.4l20.1-20.8c.4.3.7.7 1.1 1zm50.1-39.8l-11.9 25.1-1.7-.8c1.7-9.5 7-17.2 13.6-24.3zM165 132.3c1.7-9.2 15.4-22.3 23.7-22.1-10.1 5.1-17.8 12.7-23.7 22.1zm317 186.2l-13.3 25.9c-1.7-5.9 5.7-20.3 13.3-25.9zM366.5 210.4l-3.9 23.8-2.1-.4c-.8-8.3 1.5-16 4.3-23.7.6.2 1.2.2 1.7.3zm-18.6 208.7c-4.2 8.1-10.1 14.7-17.1 20.4-.5-.4-1-.9-1.6-1.3l17.7-19.9c.4.3.7.5 1 .8zm44.7-141.7c-.7 9.4-3.3 18.2-10.1 25.1-.4-.2-.9-.4-1.3-.5l11.4-24.6zm34.2-3.6c-3.1 7.8-6.6 15.5-13.6 20.8a9.13 9.13 0 0 0-1.3-.8l13.6-20.8a9.13 9.13 0 0 1 1.3.8zm-200 43.2c-1.5-6.9 4.6-17.3 11.4-21.3L226.8 317zm262.7 70.3c2.7-8.9 6.8-17.1 12.7-24.5l1.2.6-12.5 24.6c-.4-.2-.9-.4-1.4-.7zm14.5-15.8l-10.7 24.8c-2.5-5.4 4.3-21.2 10.7-24.8zM96.9 93.8l-9 24.7c-2.1-6.4 2.2-18.3 9-24.7zm119.8 208.1c-.3-6.9 6.5-17.5 14-21.6l-14 21.6zm13.9 23.8c.5-8 6.6-13.5 9.7-20.4.5.2 1.1.5 1.6.7l-9.2 20.6a22.02 22.02 0 0 1-2.1-.9zM407.2 276c2.3-7.7 7.7-13.8 11.4-20.7.6.3 1.1.6 1.7.9l-11 21c-.7-.5-1.4-.9-2.1-1.2zm.3 143.4l-3.1 21.9c-3.6-4.4-2-16.3 3.1-21.9zm23.1-138.9c-3.3 6.6-5.8 13.7-11.9 18.7l-1.5-.9 11.9-18.7c.4.2.9.5 1.5.9zm-62-47.4c-3.5-4.4-1.9-14.3 3.1-19.7l-3.1 19.7zm144.5 208.3c-1.2-7.6.9-14.2 6.1-20.1 0 .8 0 1.7-.2 2.5-1 4.3-2 8.7-3.2 12.9-.5 1.7-1.8 3.1-2.7 4.7zm29.3-159.6c.4 6.4-4.7 14-10.2 15.5l10.2-15.5zm1.7 16.7l10.7-13.3c.1 3.2-5.9 15-8.2 15.5-.6.1-1.6-1.5-2.5-2.2h0zm11.2 5.3l11-12.1c0 7.1-5.2 12.9-11 12.1zm-237.9 96.6c-3.4 5.8-8.3 10.2-14 13.6-.4-.5-.9-.9-1.3-1.4l14.3-13.2 1 1zm-46.7-49.6l9.3-14.3c.6.4 1.3.8 1.9 1.1l-8.8 14.6-2.4-1.4zm41.4 43.3l-12.8 12.2c.1-5 5.6-10.5 12.8-12.2zm122.1-104l-6.9 15.9c-2.4-3.2 1.4-12.4 6.9-15.9zm-321-178.4l-3.8 16.8c-2.7-4.1-.9-12.5 3.8-16.8zm295.5 150.6c.8-6 5.1-10.3 7.5-15.5.6.3 1.1.6 1.7.8l-7.4 15.6c-.5-.3-1.1-.6-1.8-.9zm141.6 39.1l9.7-13.5c.4 5.8-3.9 12.3-9.7 13.5zm-31.4-21.6c-1.5 5-3.7 9.7-7.7 13.2l-1.5-.9 8-12.8c.3.1.8.3 1.2.5zm-15 8.1l8-12.5 1.6.9-7.1 13.1-2.5-1.5zM372.7 228l2.9-14.1c.6.1 1.3.2 1.9.4l-2.5 14c-.7 0-1.5-.1-2.3-.3zm130.1 95.1l-9.4 1.4-.4-2.5 9.4-1.8.4 2.9zm20.8 110.1v11.7c-.5 0-1.1-.1-1.6-.1-1.9-3.6-1.2-7 1.6-11.6zm-8.2-140l7-9.4 1.7 1.2-6.7 9.6c-.7-.4-1.3-.9-2-1.4zM416.2 371l8.2-7.5 1.5 1.6-8.2 7.5-1.5-1.6zm151.3-63.7l6.4-8.4 1.5 1.1-5.9 8.9-2-1.6zm-45-13.7l6.9-9.3 1.5 1-6.4 9.7a14.29 14.29 0 0 0-2-1.4zM352.9 424.1l-8 10.2-1.4-1.1 8.1-10.3 1.3 1.2zm5.1-208.3l-2.9 10.7c-.6-.2-1.3-.3-1.9-.5l3-10.7c.6.2 1.2.3 1.8.5z"/><path d="M571.9 309.1l5.7-7.1c.5.4 1.1.8 1.6 1.3l-5.6 7.1c-.6-.4-1.1-.9-1.7-1.3zm-43.3-14.2l7-8.5 1.3.9-6.5 8.9-1.8-1.3zm-6.6-75.5l10.8 22.9c-5.1-1.3-11.5-14.1-10.8-22.9zm-4.8-.6l9.2 22.7-1.3.6c-5.4-6.5-7.7-14.4-9.2-22.7.5-.2.9-.4 1.3-.6zm20.5 23.2c-4.3-5.7-7.5-12-9.1-19 .4-.2.8-.4 1.2-.5l9.8 18.6c-.7.3-1.3.6-1.9.9zm-27.1-23.4l8.2 21.5-1.5.6c-4.6-6.6-6.3-14.2-6.7-22.1zm32.3 22.4c-4.6-4.6-6.6-10.6-7.7-16.8l1.2-.6 8 16.6c-.5.2-1 .5-1.5.8zm.9-14.7l5.7 13.3c-4.5-1.6-7.1-7.2-5.7-13.3zm-36.7-1.9l4 13.5-1.9.6-4.1-13.6c.6-.2 1.3-.3 2-.5zm50.7 13.7l-4.4-9.1c.5-.3 1-.5 1.5-.8l5 8.8-2.1 1.1z"/></svg>