<?xml version="1.0" encoding="UTF-8" standalone="no"?>
<svg
   xmlns:dc="http://purl.org/dc/elements/1.1/"
   xmlns:cc="http://creativecommons.org/ns#"
   xmlns:rdf="http://www.w3.org/1999/02/22-rdf-syntax-ns#"
   xmlns:svg="http://www.w3.org/2000/svg"
   xmlns="http://www.w3.org/2000/svg"
   xmlns:sodipodi="http://sodipodi.sourceforge.net/DTD/sodipodi-0.dtd"
   xmlns:inkscape="http://www.inkscape.org/namespaces/inkscape"
   inkscape:version="1.0 (4035a4fb49, 2020-05-01)"
   sodipodi:docname="logotermen.svg"
   id="svg1447"
   version="1.1"
   viewBox="0 0 66.067 11.642"
   height="44"
   width="249.702">
  <metadata
     id="metadata1453">
    <rdf:RDF>
      <cc:Work
         rdf:about="">
        <dc:format>image/svg+xml</dc:format>
        <dc:type
           rdf:resource="http://purl.org/dc/dcmitype/StillImage" />
        <dc:title></dc:title>
      </cc:Work>
    </rdf:RDF>
  </metadata>
  <defs
     id="defs1451" />
  <sodipodi:namedview
     inkscape:current-layer="svg1447"
     inkscape:window-maximized="1"
     inkscape:window-y="-11"
     inkscape:window-x="-11"
     inkscape:cy="27.027259"
     inkscape:cx="135.19891"
     inkscape:zoom="3.4944445"
     showgrid="false"
     id="namedview1449"
     inkscape:window-height="1046"
     inkscape:window-width="1920"
     inkscape:pageshadow="2"
     inkscape:pageopacity="0"
     guidetolerance="10"
     gridtolerance="10"
     objecttolerance="10"
     borderopacity="1"
     bordercolor="#666666"
     pagecolor="#ffffff" />
  <g
     style="font-size:10.3754px;line-height:1.25;font-family:Montserrat;-inkscape-font-specification:Montserrat;fill:#6b6b69;fill-opacity:1;stroke:#6b6b69;stroke-width:0.108076;stroke-opacity:1"
     id="text1457"
     aria-label="TERMEN AI">
    <g
       style="opacity:1"
       id="g1476">
      <path
         id="path1478"
         d="M 1.0144276,2.3422838 H 8.4847153 V 3.1826912 H 5.1749629 V 9.8125715 H 4.3345555 V 3.1826912 H 1.0144276 Z"
         style="color:#000000;font-style:normal;font-variant:normal;font-weight:normal;font-stretch:normal;font-size:medium;line-height:1.25;font-family:Orbitron;-inkscape-font-specification:Orbitron;font-variant-ligatures:normal;font-variant-position:normal;font-variant-caps:normal;font-variant-numeric:normal;font-variant-alternates:normal;font-variant-east-asian:normal;font-feature-settings:normal;font-variation-settings:normal;text-indent:0;text-align:start;text-decoration:none;text-decoration-line:none;text-decoration-style:solid;text-decoration-color:#000000;letter-spacing:normal;word-spacing:normal;text-transform:none;writing-mode:lr-tb;direction:ltr;text-orientation:mixed;dominant-baseline:auto;baseline-shift:baseline;text-anchor:start;white-space:normal;shape-padding:0;shape-margin:0;inline-size:0;clip-rule:nonzero;display:inline;overflow:visible;visibility:visible;isolation:auto;mix-blend-mode:normal;color-interpolation:sRGB;color-interpolation-filters:linearRGB;solid-color:#000000;solid-opacity:1;vector-effect:none;fill:#6b6b69;fill-opacity:1;fill-rule:nonzero;stroke:none;stroke-width:0.108076;stroke-linecap:butt;stroke-linejoin:miter;stroke-miterlimit:4;stroke-dasharray:none;stroke-dashoffset:0;stroke-opacity:1.0;color-rendering:auto;image-rendering:auto;shape-rendering:auto;text-rendering:auto;enable-background:accumulate;stop-color:#000000;stop-opacity:1;" />
      <path
         id="path1480"
         d="M 0.9609375 2.2890625 L 0.9609375 2.3417969 L 0.9609375 3.2363281 L 4.28125 3.2363281 L 4.28125 9.8671875 L 5.2285156 9.8671875 L 5.2285156 3.2363281 L 8.5390625 3.2363281 L 8.5390625 2.2890625 L 0.9609375 2.2890625 z M 1.0683594 2.3964844 L 8.4316406 2.3964844 L 8.4316406 3.1289062 L 5.1210938 3.1289062 L 5.1210938 9.7578125 L 4.3886719 9.7578125 L 4.3886719 3.1289062 L 1.0683594 3.1289062 L 1.0683594 2.3964844 z "
         style="color:#000000;font-style:normal;font-variant:normal;font-weight:normal;font-stretch:normal;font-size:medium;line-height:1.25;font-family:Orbitron;-inkscape-font-specification:Orbitron;font-variant-ligatures:normal;font-variant-position:normal;font-variant-caps:normal;font-variant-numeric:normal;font-variant-alternates:normal;font-variant-east-asian:normal;font-feature-settings:normal;font-variation-settings:normal;text-indent:0;text-align:start;text-decoration:none;text-decoration-line:none;text-decoration-style:solid;text-decoration-color:#000000;letter-spacing:normal;word-spacing:normal;text-transform:none;writing-mode:lr-tb;direction:ltr;text-orientation:mixed;dominant-baseline:auto;baseline-shift:baseline;text-anchor:start;white-space:normal;shape-padding:0;shape-margin:0;inline-size:0;clip-rule:nonzero;display:inline;overflow:visible;visibility:visible;isolation:auto;mix-blend-mode:normal;color-interpolation:sRGB;color-interpolation-filters:linearRGB;solid-color:#000000;solid-opacity:1;vector-effect:none;fill:#6b6b69;fill-opacity:1;fill-rule:nonzero;stroke:none;stroke-width:0.108076;stroke-linecap:butt;stroke-linejoin:miter;stroke-miterlimit:4;stroke-dasharray:none;stroke-dashoffset:0;stroke-opacity:1.0;color-rendering:auto;image-rendering:auto;shape-rendering:auto;text-rendering:auto;enable-background:accumulate;stop-color:#000000;stop-opacity:1;" />
    </g>
    <g
       style="opacity:1"
       id="g1482">
      <path
         id="path1484"
         d="m 16.108202,2.3422838 v 0.8404074 h -5.97623 v 2.4693451 h 4.80381 v 0.8507828 h -4.80381 v 2.4693451 h 5.97623 V 9.8125715 H 9.2915649 V 2.3422838 Z"
         style="color:#000000;font-style:normal;font-variant:normal;font-weight:normal;font-stretch:normal;font-size:medium;line-height:1.25;font-family:Orbitron;-inkscape-font-specification:Orbitron;font-variant-ligatures:normal;font-variant-position:normal;font-variant-caps:normal;font-variant-numeric:normal;font-variant-alternates:normal;font-variant-east-asian:normal;font-feature-settings:normal;font-variation-settings:normal;text-indent:0;text-align:start;text-decoration:none;text-decoration-line:none;text-decoration-style:solid;text-decoration-color:#000000;letter-spacing:normal;word-spacing:normal;text-transform:none;writing-mode:lr-tb;direction:ltr;text-orientation:mixed;dominant-baseline:auto;baseline-shift:baseline;text-anchor:start;white-space:normal;shape-padding:0;shape-margin:0;inline-size:0;clip-rule:nonzero;display:inline;overflow:visible;visibility:visible;isolation:auto;mix-blend-mode:normal;color-interpolation:sRGB;color-interpolation-filters:linearRGB;solid-color:#000000;solid-opacity:1;vector-effect:none;fill:#6b6b69;fill-opacity:1;fill-rule:nonzero;stroke:none;stroke-width:0.108076;stroke-linecap:butt;stroke-linejoin:miter;stroke-miterlimit:4;stroke-dasharray:none;stroke-dashoffset:0;stroke-opacity:1.0;color-rendering:auto;image-rendering:auto;shape-rendering:auto;text-rendering:auto;enable-background:accumulate;stop-color:#000000;stop-opacity:1;" />
      <path
         id="path1486"
         d="M 9.2382812 2.2890625 L 9.2382812 9.8671875 L 16.162109 9.8671875 L 16.162109 8.9179688 L 10.185547 8.9179688 L 10.185547 6.5566406 L 14.990234 6.5566406 L 14.990234 5.5976562 L 10.185547 5.5976562 L 10.185547 3.2363281 L 16.162109 3.2363281 L 16.162109 2.2890625 L 16.107422 2.2890625 L 9.2382812 2.2890625 z M 9.3457031 2.3964844 L 16.054688 2.3964844 L 16.054688 3.1289062 L 10.078125 3.1289062 L 10.078125 5.7070312 L 14.880859 5.7070312 L 14.880859 6.4492188 L 10.078125 6.4492188 L 10.078125 9.0253906 L 16.054688 9.0253906 L 16.054688 9.7578125 L 9.3457031 9.7578125 L 9.3457031 2.3964844 z "
         style="color:#000000;font-style:normal;font-variant:normal;font-weight:normal;font-stretch:normal;font-size:medium;line-height:1.25;font-family:Orbitron;-inkscape-font-specification:Orbitron;font-variant-ligatures:normal;font-variant-position:normal;font-variant-caps:normal;font-variant-numeric:normal;font-variant-alternates:normal;font-variant-east-asian:normal;font-feature-settings:normal;font-variation-settings:normal;text-indent:0;text-align:start;text-decoration:none;text-decoration-line:none;text-decoration-style:solid;text-decoration-color:#000000;letter-spacing:normal;word-spacing:normal;text-transform:none;writing-mode:lr-tb;direction:ltr;text-orientation:mixed;dominant-baseline:auto;baseline-shift:baseline;text-anchor:start;white-space:normal;shape-padding:0;shape-margin:0;inline-size:0;clip-rule:nonzero;display:inline;overflow:visible;visibility:visible;isolation:auto;mix-blend-mode:normal;color-interpolation:sRGB;color-interpolation-filters:linearRGB;solid-color:#000000;solid-opacity:1;vector-effect:none;fill:#6b6b69;fill-opacity:1;fill-rule:nonzero;stroke:none;stroke-width:0.108076;stroke-linecap:butt;stroke-linejoin:miter;stroke-miterlimit:4;stroke-dasharray:none;stroke-dashoffset:0;stroke-opacity:1.0;color-rendering:auto;image-rendering:auto;shape-rendering:auto;text-rendering:auto;enable-background:accumulate;stop-color:#000000;stop-opacity:1;" />
    </g>
    <g
       style="opacity:1"
       id="g1488">
      <path
         id="path1490"
         d="m 24.674392,3.5977072 v 2.1892093 c 0,0.3458467 -0.121046,0.6398163 -0.363139,0.8819089 -0.242093,0.2420927 -0.536062,0.363139 -0.881909,0.363139 H 22.28805 l 2.344841,2.7806071 H 23.522723 L 21.188258,7.0319644 h -2.739105 c -0.06225,0 -0.197134,-0.013834 -0.404641,-0.041502 V 9.8125715 H 17.204105 V 2.3526592 h 6.225239 c 0.345847,0 0.639816,0.1210463 0.881909,0.363139 0.242093,0.2420927 0.363139,0.5360623 0.363139,0.881909 z m -6.225239,2.5834745 h 4.980191 c 0.110671,0 0.20405,-0.038043 0.280136,-0.1141294 0.07609,-0.076086 0.11413,-0.1694649 0.11413,-0.2801358 V 3.5977072 c 0,-0.1106709 -0.03804,-0.2040495 -0.11413,-0.2801358 -0.07609,-0.083003 -0.169465,-0.1245048 -0.280136,-0.1245048 h -4.980191 c -0.110671,0 -0.207509,0.041502 -0.290512,0.1245048 -0.07609,0.076086 -0.114129,0.1694649 -0.114129,0.2801358 v 2.1892093 c 0,0.1106709 0.03804,0.2040495 0.114129,0.2801358 0.083,0.076086 0.179841,0.1141294 0.290512,0.1141294 z"
         style="color:#000000;font-style:normal;font-variant:normal;font-weight:normal;font-stretch:normal;font-size:medium;line-height:1.25;font-family:Orbitron;-inkscape-font-specification:Orbitron;font-variant-ligatures:normal;font-variant-position:normal;font-variant-caps:normal;font-variant-numeric:normal;font-variant-alternates:normal;font-variant-east-asian:normal;font-feature-settings:normal;font-variation-settings:normal;text-indent:0;text-align:start;text-decoration:none;text-decoration-line:none;text-decoration-style:solid;text-decoration-color:#000000;letter-spacing:normal;word-spacing:normal;text-transform:none;writing-mode:lr-tb;direction:ltr;text-orientation:mixed;dominant-baseline:auto;baseline-shift:baseline;text-anchor:start;white-space:normal;shape-padding:0;shape-margin:0;inline-size:0;clip-rule:nonzero;display:inline;overflow:visible;visibility:visible;isolation:auto;mix-blend-mode:normal;color-interpolation:sRGB;color-interpolation-filters:linearRGB;solid-color:#000000;solid-opacity:1;vector-effect:none;fill:#6b6b69;fill-opacity:1;fill-rule:nonzero;stroke:none;stroke-width:0.108076;stroke-linecap:butt;stroke-linejoin:miter;stroke-miterlimit:4;stroke-dasharray:none;stroke-dashoffset:0;stroke-opacity:1.0;color-rendering:auto;image-rendering:auto;shape-rendering:auto;text-rendering:auto;enable-background:accumulate;stop-color:#000000;stop-opacity:1;" />
      <path
         id="path1492"
         d="M 17.150391 2.2988281 L 17.150391 9.8671875 L 18.097656 9.8671875 L 18.097656 7.0507812 C 18.256732 7.0710579 18.389279 7.0859375 18.449219 7.0859375 L 21.162109 7.0859375 L 23.498047 9.8671875 L 24.75 9.8671875 L 22.404297 7.0859375 L 23.429688 7.0859375 C 23.788143 7.0859375 24.098419 6.9582217 24.349609 6.7070312 C 24.6008 6.4558409 24.728516 6.1455649 24.728516 5.7871094 L 24.728516 3.5976562 C 24.728516 3.2392007 24.6008 2.9289248 24.349609 2.6777344 C 24.098419 2.4265439 23.788143 2.2988281 23.429688 2.2988281 L 17.150391 2.2988281 z M 17.257812 2.40625 L 23.429688 2.40625 C 23.762925 2.40625 24.040443 2.5209114 24.273438 2.7539062 C 24.506432 2.9869011 24.621094 3.2644184 24.621094 3.5976562 L 24.621094 5.7871094 C 24.621094 6.1203472 24.506432 6.3978645 24.273438 6.6308594 C 24.040443 6.8638543 23.762925 6.9785156 23.429688 6.9785156 L 22.171875 6.9785156 L 24.515625 9.7578125 L 23.548828 9.7578125 L 21.212891 6.9785156 L 18.449219 6.9785156 C 18.394971 6.9785156 18.257587 6.9650744 18.050781 6.9375 L 17.990234 6.9296875 L 17.990234 9.7578125 L 17.257812 9.7578125 L 17.257812 2.40625 z M 18.449219 3.1386719 C 18.325038 3.1386719 18.212588 3.1878024 18.121094 3.2792969 C 18.035745 3.3646463 17.990234 3.4746017 17.990234 3.5976562 L 17.990234 5.7871094 C 17.990234 5.910164 18.035745 6.0201193 18.121094 6.1054688 L 18.123047 6.1074219 C 18.214869 6.1915919 18.326164 6.234375 18.449219 6.234375 L 23.429688 6.234375 C 23.552742 6.234375 23.662698 6.1908183 23.748047 6.1054688 C 23.833397 6.0201193 23.876953 5.9101641 23.876953 5.7871094 L 23.876953 3.5976562 C 23.876953 3.4755128 23.834119 3.3663283 23.75 3.28125 C 23.665095 3.1886264 23.553868 3.1386719 23.429688 3.1386719 L 18.449219 3.1386719 z M 18.449219 3.2480469 L 23.429688 3.2480469 C 23.526849 3.2480469 23.602655 3.2801329 23.669922 3.3535156 L 23.669922 3.3554688 L 23.671875 3.3554688 C 23.738698 3.4222919 23.769531 3.4993691 23.769531 3.5976562 L 23.769531 5.7871094 C 23.769531 5.8853965 23.738698 5.9624738 23.671875 6.0292969 C 23.605052 6.0961199 23.527975 6.1269531 23.429688 6.1269531 L 18.449219 6.1269531 C 18.351843 6.1269531 18.270898 6.096005 18.197266 6.0292969 L 18.195312 6.0273438 C 18.129821 5.9609775 18.097656 5.8844399 18.097656 5.7871094 L 18.097656 3.5976562 C 18.097656 3.499369 18.130443 3.4222918 18.197266 3.3554688 C 18.271778 3.2809568 18.352057 3.2480469 18.449219 3.2480469 z "
         style="color:#000000;font-style:normal;font-variant:normal;font-weight:normal;font-stretch:normal;font-size:medium;line-height:1.25;font-family:Orbitron;-inkscape-font-specification:Orbitron;font-variant-ligatures:normal;font-variant-position:normal;font-variant-caps:normal;font-variant-numeric:normal;font-variant-alternates:normal;font-variant-east-asian:normal;font-feature-settings:normal;font-variation-settings:normal;text-indent:0;text-align:start;text-decoration:none;text-decoration-line:none;text-decoration-style:solid;text-decoration-color:#000000;letter-spacing:normal;word-spacing:normal;text-transform:none;writing-mode:lr-tb;direction:ltr;text-orientation:mixed;dominant-baseline:auto;baseline-shift:baseline;text-anchor:start;white-space:normal;shape-padding:0;shape-margin:0;inline-size:0;clip-rule:nonzero;display:inline;overflow:visible;visibility:visible;isolation:auto;mix-blend-mode:normal;color-interpolation:sRGB;color-interpolation-filters:linearRGB;solid-color:#000000;solid-opacity:1;vector-effect:none;fill:#6b6b69;fill-opacity:1;fill-rule:nonzero;stroke:none;stroke-width:0.108076;stroke-linecap:butt;stroke-linejoin:miter;stroke-miterlimit:4;stroke-dasharray:none;stroke-dashoffset:0;stroke-opacity:1.0;color-rendering:auto;image-rendering:auto;shape-rendering:auto;text-rendering:auto;enable-background:accumulate;stop-color:#000000;stop-opacity:1;" />
    </g>
    <g
       style="opacity:1"
       id="g1494">
      <path
         id="path1496"
         d="m 30.019992,6.0359261 3.102244,-3.6936423 h 1.151669 V 9.8125715 H 33.433498 V 3.2968206 L 30.019992,7.3536018 26.606485,3.2968206 V 9.8125715 H 25.766078 V 2.3422838 h 1.151669 z"
         style="color:#000000;font-style:normal;font-variant:normal;font-weight:normal;font-stretch:normal;font-size:medium;line-height:1.25;font-family:Orbitron;-inkscape-font-specification:Orbitron;font-variant-ligatures:normal;font-variant-position:normal;font-variant-caps:normal;font-variant-numeric:normal;font-variant-alternates:normal;font-variant-east-asian:normal;font-feature-settings:normal;font-variation-settings:normal;text-indent:0;text-align:start;text-decoration:none;text-decoration-line:none;text-decoration-style:solid;text-decoration-color:#000000;letter-spacing:normal;word-spacing:normal;text-transform:none;writing-mode:lr-tb;direction:ltr;text-orientation:mixed;dominant-baseline:auto;baseline-shift:baseline;text-anchor:start;white-space:normal;shape-padding:0;shape-margin:0;inline-size:0;clip-rule:nonzero;display:inline;overflow:visible;visibility:visible;isolation:auto;mix-blend-mode:normal;color-interpolation:sRGB;color-interpolation-filters:linearRGB;solid-color:#000000;solid-opacity:1;vector-effect:none;fill:#6b6b69;fill-opacity:1;fill-rule:nonzero;stroke:none;stroke-width:0.108076;stroke-linecap:butt;stroke-linejoin:miter;stroke-miterlimit:4;stroke-dasharray:none;stroke-dashoffset:0;stroke-opacity:1.0;color-rendering:auto;image-rendering:auto;shape-rendering:auto;text-rendering:auto;enable-background:accumulate;stop-color:#000000;stop-opacity:1;" />
      <path
         id="path1498"
         d="M 25.712891 2.2890625 L 25.712891 9.8671875 L 26.660156 9.8671875 L 26.660156 3.4453125 L 30.019531 7.4375 L 33.378906 3.4453125 L 33.378906 9.8671875 L 34.328125 9.8671875 L 34.328125 2.2890625 L 33.097656 2.2890625 L 30.019531 5.953125 L 26.943359 2.2890625 L 25.712891 2.2890625 z M 25.820312 2.3964844 L 26.892578 2.3964844 L 30.019531 6.1191406 L 30.060547 6.0703125 L 33.146484 2.3964844 L 34.220703 2.3964844 L 34.220703 9.7578125 L 33.488281 9.7578125 L 33.488281 3.1484375 L 30.019531 7.2695312 L 26.552734 3.1484375 L 26.552734 9.7578125 L 25.820312 9.7578125 L 25.820312 2.3964844 z "
         style="color:#000000;font-style:normal;font-variant:normal;font-weight:normal;font-stretch:normal;font-size:medium;line-height:1.25;font-family:Orbitron;-inkscape-font-specification:Orbitron;font-variant-ligatures:normal;font-variant-position:normal;font-variant-caps:normal;font-variant-numeric:normal;font-variant-alternates:normal;font-variant-east-asian:normal;font-feature-settings:normal;font-variation-settings:normal;text-indent:0;text-align:start;text-decoration:none;text-decoration-line:none;text-decoration-style:solid;text-decoration-color:#000000;letter-spacing:normal;word-spacing:normal;text-transform:none;writing-mode:lr-tb;direction:ltr;text-orientation:mixed;dominant-baseline:auto;baseline-shift:baseline;text-anchor:start;white-space:normal;shape-padding:0;shape-margin:0;inline-size:0;clip-rule:nonzero;display:inline;overflow:visible;visibility:visible;isolation:auto;mix-blend-mode:normal;color-interpolation:sRGB;color-interpolation-filters:linearRGB;solid-color:#000000;solid-opacity:1;vector-effect:none;fill:#6b6b69;fill-opacity:1;fill-rule:nonzero;stroke:none;stroke-width:0.108076;stroke-linecap:butt;stroke-linejoin:miter;stroke-miterlimit:4;stroke-dasharray:none;stroke-dashoffset:0;stroke-opacity:1.0;color-rendering:auto;image-rendering:auto;shape-rendering:auto;text-rendering:auto;enable-background:accumulate;stop-color:#000000;stop-opacity:1;" />
    </g>
    <g
       style="opacity:1"
       id="g1500">
      <path
         id="path1502"
         d="m 42.22908,2.3422838 v 0.8404074 h -5.97623 v 2.4693451 h 4.80381 v 0.8507828 h -4.80381 v 2.4693451 h 5.97623 V 9.8125715 H 35.412443 V 2.3422838 Z"
         style="color:#000000;font-style:normal;font-variant:normal;font-weight:normal;font-stretch:normal;font-size:medium;line-height:1.25;font-family:Orbitron;-inkscape-font-specification:Orbitron;font-variant-ligatures:normal;font-variant-position:normal;font-variant-caps:normal;font-variant-numeric:normal;font-variant-alternates:normal;font-variant-east-asian:normal;font-feature-settings:normal;font-variation-settings:normal;text-indent:0;text-align:start;text-decoration:none;text-decoration-line:none;text-decoration-style:solid;text-decoration-color:#000000;letter-spacing:normal;word-spacing:normal;text-transform:none;writing-mode:lr-tb;direction:ltr;text-orientation:mixed;dominant-baseline:auto;baseline-shift:baseline;text-anchor:start;white-space:normal;shape-padding:0;shape-margin:0;inline-size:0;clip-rule:nonzero;display:inline;overflow:visible;visibility:visible;isolation:auto;mix-blend-mode:normal;color-interpolation:sRGB;color-interpolation-filters:linearRGB;solid-color:#000000;solid-opacity:1;vector-effect:none;fill:#6b6b69;fill-opacity:1;fill-rule:nonzero;stroke:none;stroke-width:0.108076;stroke-linecap:butt;stroke-linejoin:miter;stroke-miterlimit:4;stroke-dasharray:none;stroke-dashoffset:0;stroke-opacity:1.0;color-rendering:auto;image-rendering:auto;shape-rendering:auto;text-rendering:auto;enable-background:accumulate;stop-color:#000000;stop-opacity:1;" />
      <path
         id="path1504"
         d="M 35.359375 2.2890625 L 35.359375 9.8671875 L 42.283203 9.8671875 L 42.283203 8.9179688 L 36.306641 8.9179688 L 36.306641 6.5566406 L 41.111328 6.5566406 L 41.111328 5.5976562 L 36.306641 5.5976562 L 36.306641 3.2363281 L 42.283203 3.2363281 L 42.283203 2.2890625 L 42.228516 2.2890625 L 35.359375 2.2890625 z M 35.466797 2.3964844 L 42.175781 2.3964844 L 42.175781 3.1289062 L 36.199219 3.1289062 L 36.199219 5.7070312 L 41.001953 5.7070312 L 41.001953 6.4492188 L 36.199219 6.4492188 L 36.199219 9.0253906 L 42.175781 9.0253906 L 42.175781 9.7578125 L 35.466797 9.7578125 L 35.466797 2.3964844 z "
         style="color:#000000;font-style:normal;font-variant:normal;font-weight:normal;font-stretch:normal;font-size:medium;line-height:1.25;font-family:Orbitron;-inkscape-font-specification:Orbitron;font-variant-ligatures:normal;font-variant-position:normal;font-variant-caps:normal;font-variant-numeric:normal;font-variant-alternates:normal;font-variant-east-asian:normal;font-feature-settings:normal;font-variation-settings:normal;text-indent:0;text-align:start;text-decoration:none;text-decoration-line:none;text-decoration-style:solid;text-decoration-color:#000000;letter-spacing:normal;word-spacing:normal;text-transform:none;writing-mode:lr-tb;direction:ltr;text-orientation:mixed;dominant-baseline:auto;baseline-shift:baseline;text-anchor:start;white-space:normal;shape-padding:0;shape-margin:0;inline-size:0;clip-rule:nonzero;display:inline;overflow:visible;visibility:visible;isolation:auto;mix-blend-mode:normal;color-interpolation:sRGB;color-interpolation-filters:linearRGB;solid-color:#000000;solid-opacity:1;vector-effect:none;fill:#6b6b69;fill-opacity:1;fill-rule:nonzero;stroke:none;stroke-width:0.108076;stroke-linecap:butt;stroke-linejoin:miter;stroke-miterlimit:4;stroke-dasharray:none;stroke-dashoffset:0;stroke-opacity:1.0;color-rendering:auto;image-rendering:auto;shape-rendering:auto;text-rendering:auto;enable-background:accumulate;stop-color:#000000;stop-opacity:1;" />
    </g>
    <g
       style="opacity:1"
       id="g1506">
      <path
         id="path1508"
         d="m 49.965241,8.8580348 v -6.515751 h 0.840407 V 9.8125715 H 49.653979 L 44.175768,3.2968206 V 9.8125715 H 43.33536 V 2.3422838 h 1.15167 z"
         style="color:#000000;font-style:normal;font-variant:normal;font-weight:normal;font-stretch:normal;font-size:medium;line-height:1.25;font-family:Orbitron;-inkscape-font-specification:Orbitron;font-variant-ligatures:normal;font-variant-position:normal;font-variant-caps:normal;font-variant-numeric:normal;font-variant-alternates:normal;font-variant-east-asian:normal;font-feature-settings:normal;font-variation-settings:normal;text-indent:0;text-align:start;text-decoration:none;text-decoration-line:none;text-decoration-style:solid;text-decoration-color:#000000;letter-spacing:normal;word-spacing:normal;text-transform:none;writing-mode:lr-tb;direction:ltr;text-orientation:mixed;dominant-baseline:auto;baseline-shift:baseline;text-anchor:start;white-space:normal;shape-padding:0;shape-margin:0;inline-size:0;clip-rule:nonzero;display:inline;overflow:visible;visibility:visible;isolation:auto;mix-blend-mode:normal;color-interpolation:sRGB;color-interpolation-filters:linearRGB;solid-color:#000000;solid-opacity:1;vector-effect:none;fill:#6b6b69;fill-opacity:1;fill-rule:nonzero;stroke:none;stroke-width:0.108076;stroke-linecap:butt;stroke-linejoin:miter;stroke-miterlimit:4;stroke-dasharray:none;stroke-dashoffset:0;stroke-opacity:1.0;color-rendering:auto;image-rendering:auto;shape-rendering:auto;text-rendering:auto;enable-background:accumulate;stop-color:#000000;stop-opacity:1;" />
      <path
         id="path1510"
         d="M 43.28125 2.2890625 L 43.28125 9.8671875 L 44.230469 9.8671875 L 44.230469 3.4453125 L 49.628906 9.8671875 L 50.859375 9.8671875 L 50.859375 2.2890625 L 49.912109 2.2890625 L 49.912109 8.7128906 L 44.511719 2.2890625 L 43.28125 2.2890625 z M 43.388672 2.3964844 L 44.460938 2.3964844 L 50.019531 9.0058594 L 50.019531 8.8574219 L 50.019531 2.3964844 L 50.751953 2.3964844 L 50.751953 9.7578125 L 49.679688 9.7578125 L 44.121094 3.1484375 L 44.121094 9.7578125 L 43.388672 9.7578125 L 43.388672 2.3964844 z "
         style="color:#000000;font-style:normal;font-variant:normal;font-weight:normal;font-stretch:normal;font-size:medium;line-height:1.25;font-family:Orbitron;-inkscape-font-specification:Orbitron;font-variant-ligatures:normal;font-variant-position:normal;font-variant-caps:normal;font-variant-numeric:normal;font-variant-alternates:normal;font-variant-east-asian:normal;font-feature-settings:normal;font-variation-settings:normal;text-indent:0;text-align:start;text-decoration:none;text-decoration-line:none;text-decoration-style:solid;text-decoration-color:#000000;letter-spacing:normal;word-spacing:normal;text-transform:none;writing-mode:lr-tb;direction:ltr;text-orientation:mixed;dominant-baseline:auto;baseline-shift:baseline;text-anchor:start;white-space:normal;shape-padding:0;shape-margin:0;inline-size:0;clip-rule:nonzero;display:inline;overflow:visible;visibility:visible;isolation:auto;mix-blend-mode:normal;color-interpolation:sRGB;color-interpolation-filters:linearRGB;solid-color:#000000;solid-opacity:1;vector-effect:none;fill:#6b6b69;fill-opacity:1;fill-rule:nonzero;stroke:none;stroke-width:0.108076;stroke-linecap:butt;stroke-linejoin:miter;stroke-miterlimit:4;stroke-dasharray:none;stroke-dashoffset:0;stroke-opacity:1.0;color-rendering:auto;image-rendering:auto;shape-rendering:auto;text-rendering:auto;enable-background:accumulate;stop-color:#000000;stop-opacity:1;" />
    </g>
    <g
       style="opacity:1"
       id="g1512">
      <path
         id="path1514"
         d="m 56.050572,2.3422838 h 4.980192 c 0.345847,0 0.639816,0.1210463 0.881909,0.363139 0.242093,0.2420927 0.363139,0.5360623 0.363139,0.881909 V 9.8125715 H 61.435405 V 7.0838414 H 55.645932 V 9.8125715 H 54.805524 V 3.5873318 c 0,-0.3458467 0.121046,-0.6398163 0.363139,-0.881909 0.242093,-0.2420927 0.536062,-0.363139 0.881909,-0.363139 z m -0.40464,3.9011503 h 5.789473 V 3.5873318 c 0,-0.1106709 -0.0415,-0.2040495 -0.124505,-0.2801358 -0.07609,-0.083003 -0.169465,-0.1245048 -0.280136,-0.1245048 h -4.980192 c -0.110671,0 -0.207508,0.041502 -0.290511,0.1245048 -0.07609,0.076086 -0.114129,0.1694649 -0.114129,0.2801358 z"
         style="color:#000000;font-style:normal;font-variant:normal;font-weight:normal;font-stretch:normal;font-size:medium;line-height:1.25;font-family:Orbitron;-inkscape-font-specification:Orbitron;font-variant-ligatures:normal;font-variant-position:normal;font-variant-caps:normal;font-variant-numeric:normal;font-variant-alternates:normal;font-variant-east-asian:normal;font-feature-settings:normal;font-variation-settings:normal;text-indent:0;text-align:start;text-decoration:none;text-decoration-line:none;text-decoration-style:solid;text-decoration-color:#000000;letter-spacing:normal;word-spacing:normal;text-transform:none;writing-mode:lr-tb;direction:ltr;text-orientation:mixed;dominant-baseline:auto;baseline-shift:baseline;text-anchor:start;white-space:normal;shape-padding:0;shape-margin:0;inline-size:0;clip-rule:nonzero;display:inline;overflow:visible;visibility:visible;isolation:auto;mix-blend-mode:normal;color-interpolation:sRGB;color-interpolation-filters:linearRGB;solid-color:#000000;solid-opacity:1;vector-effect:none;fill:#6b6b69;fill-opacity:1;fill-rule:nonzero;stroke:none;stroke-width:0.108076;stroke-linecap:butt;stroke-linejoin:miter;stroke-miterlimit:4;stroke-dasharray:none;stroke-dashoffset:0;stroke-opacity:1.0;color-rendering:auto;image-rendering:auto;shape-rendering:auto;text-rendering:auto;enable-background:accumulate;stop-color:#000000;stop-opacity:1;" />
      <path
         id="path1516"
         d="M 56.050781 2.2890625 C 55.692326 2.2890625 55.38205 2.4167783 55.130859 2.6679688 C 54.879669 2.9191592 54.751953 3.2294351 54.751953 3.5878906 L 54.751953 9.8671875 L 55.699219 9.8671875 L 55.699219 7.1386719 L 61.380859 7.1386719 L 61.380859 9.8671875 L 62.330078 9.8671875 L 62.330078 3.5878906 C 62.330078 3.2294351 62.202362 2.9191592 61.951172 2.6679688 C 61.699981 2.4167783 61.389706 2.2890625 61.03125 2.2890625 L 56.050781 2.2890625 z M 56.050781 2.3964844 L 61.03125 2.3964844 C 61.364488 2.3964844 61.642005 2.5111457 61.875 2.7441406 C 62.107995 2.9771355 62.222656 3.2546528 62.222656 3.5878906 L 62.222656 9.7578125 L 61.490234 9.7578125 L 61.490234 7.0292969 L 55.591797 7.0292969 L 55.591797 9.7578125 L 54.859375 9.7578125 L 54.859375 3.5878906 C 54.859375 3.2546528 54.974036 2.9771355 55.207031 2.7441406 C 55.440026 2.5111457 55.717543 2.3964844 56.050781 2.3964844 z M 56.050781 3.1289062 C 55.926601 3.1289062 55.814151 3.1780368 55.722656 3.2695312 C 55.637307 3.3548807 55.591797 3.464836 55.591797 3.5878906 L 55.591797 6.296875 L 55.646484 6.296875 L 61.490234 6.296875 L 61.490234 3.5878906 C 61.490234 3.4646235 61.440921 3.3541904 61.349609 3.2695312 C 61.26495 3.1782203 61.154517 3.1289063 61.03125 3.1289062 L 56.050781 3.1289062 z M 56.050781 3.2363281 L 61.03125 3.2363281 C 61.128411 3.2363281 61.204216 3.2703671 61.271484 3.34375 L 61.273438 3.3457031 L 61.273438 3.3476562 C 61.34682 3.4149239 61.380859 3.4907292 61.380859 3.5878906 L 61.380859 6.1894531 L 55.699219 6.1894531 L 55.699219 3.5878906 C 55.699219 3.4896034 55.732005 3.4125262 55.798828 3.3457031 C 55.87334 3.2711911 55.95362 3.2363281 56.050781 3.2363281 z "
         style="color:#000000;font-style:normal;font-variant:normal;font-weight:normal;font-stretch:normal;font-size:medium;line-height:1.25;font-family:Orbitron;-inkscape-font-specification:Orbitron;font-variant-ligatures:normal;font-variant-position:normal;font-variant-caps:normal;font-variant-numeric:normal;font-variant-alternates:normal;font-variant-east-asian:normal;font-feature-settings:normal;font-variation-settings:normal;text-indent:0;text-align:start;text-decoration:none;text-decoration-line:none;text-decoration-style:solid;text-decoration-color:#000000;letter-spacing:normal;word-spacing:normal;text-transform:none;writing-mode:lr-tb;direction:ltr;text-orientation:mixed;dominant-baseline:auto;baseline-shift:baseline;text-anchor:start;white-space:normal;shape-padding:0;shape-margin:0;inline-size:0;clip-rule:nonzero;display:inline;overflow:visible;visibility:visible;isolation:auto;mix-blend-mode:normal;color-interpolation:sRGB;color-interpolation-filters:linearRGB;solid-color:#000000;solid-opacity:1;vector-effect:none;fill:#6b6b69;fill-opacity:1;fill-rule:nonzero;stroke:none;stroke-width:0.108076;stroke-linecap:butt;stroke-linejoin:miter;stroke-miterlimit:4;stroke-dasharray:none;stroke-dashoffset:0;stroke-opacity:1.0;color-rendering:auto;image-rendering:auto;shape-rendering:auto;text-rendering:auto;enable-background:accumulate;stop-color:#000000;stop-opacity:1;" />
    </g>
    <g
       style="opacity:1"
       id="g1518">
      <path
         id="path1520"
         d="M 63.468336,9.8125715 V 2.3422838 h 0.840408 v 7.4702877 z"
         style="color:#000000;font-style:normal;font-variant:normal;font-weight:normal;font-stretch:normal;font-size:medium;line-height:1.25;font-family:Orbitron;-inkscape-font-specification:Orbitron;font-variant-ligatures:normal;font-variant-position:normal;font-variant-caps:normal;font-variant-numeric:normal;font-variant-alternates:normal;font-variant-east-asian:normal;font-feature-settings:normal;font-variation-settings:normal;text-indent:0;text-align:start;text-decoration:none;text-decoration-line:none;text-decoration-style:solid;text-decoration-color:#000000;letter-spacing:normal;word-spacing:normal;text-transform:none;writing-mode:lr-tb;direction:ltr;text-orientation:mixed;dominant-baseline:auto;baseline-shift:baseline;text-anchor:start;white-space:normal;shape-padding:0;shape-margin:0;inline-size:0;clip-rule:nonzero;display:inline;overflow:visible;visibility:visible;isolation:auto;mix-blend-mode:normal;color-interpolation:sRGB;color-interpolation-filters:linearRGB;solid-color:#000000;solid-opacity:1;vector-effect:none;fill:#6b6b69;fill-opacity:1;fill-rule:nonzero;stroke:none;stroke-width:0.108076;stroke-linecap:butt;stroke-linejoin:miter;stroke-miterlimit:4;stroke-dasharray:none;stroke-dashoffset:0;stroke-opacity:1.0;color-rendering:auto;image-rendering:auto;shape-rendering:auto;text-rendering:auto;enable-background:accumulate;stop-color:#000000;stop-opacity:1;" />
      <path
         id="path1522"
         d="M 63.414062 2.2890625 L 63.414062 9.8671875 L 63.46875 9.8671875 L 64.363281 9.8671875 L 64.363281 2.2890625 L 63.414062 2.2890625 z M 63.521484 2.3964844 L 64.253906 2.3964844 L 64.253906 9.7578125 L 63.521484 9.7578125 L 63.521484 2.3964844 z "
         style="color:#000000;font-style:normal;font-variant:normal;font-weight:normal;font-stretch:normal;font-size:medium;line-height:1.25;font-family:Orbitron;-inkscape-font-specification:Orbitron;font-variant-ligatures:normal;font-variant-position:normal;font-variant-caps:normal;font-variant-numeric:normal;font-variant-alternates:normal;font-variant-east-asian:normal;font-feature-settings:normal;font-variation-settings:normal;text-indent:0;text-align:start;text-decoration:none;text-decoration-line:none;text-decoration-style:solid;text-decoration-color:#000000;letter-spacing:normal;word-spacing:normal;text-transform:none;writing-mode:lr-tb;direction:ltr;text-orientation:mixed;dominant-baseline:auto;baseline-shift:baseline;text-anchor:start;white-space:normal;shape-padding:0;shape-margin:0;inline-size:0;clip-rule:nonzero;display:inline;overflow:visible;visibility:visible;isolation:auto;mix-blend-mode:normal;color-interpolation:sRGB;color-interpolation-filters:linearRGB;solid-color:#000000;solid-opacity:1;vector-effect:none;fill:#6b6b69;fill-opacity:1;fill-rule:nonzero;stroke:none;stroke-width:0.108076;stroke-linecap:butt;stroke-linejoin:miter;stroke-miterlimit:4;stroke-dasharray:none;stroke-dashoffset:0;stroke-opacity:1.0;color-rendering:auto;image-rendering:auto;shape-rendering:auto;text-rendering:auto;enable-background:accumulate;stop-color:#000000;stop-opacity:1;" />
    </g>
  </g>
</svg>
