<svg id="в_кривых" data-name="в кривых" xmlns="http://www.w3.org/2000/svg" width="26" height="26" viewBox="0 0 26 26">
  <title>Нумерация помещений</title>
  <g>
    <path d="M5.39,10.15v5.6h-1V11H3.17v-.87Z" style="fill: #6b6b69"/>
    <path d="M11.5,14.48h-1v1.27h-1V14.48H6.43v-.72l2.76-3.61H10.3L7.7,13.6H9.53V12.47h1V13.6h1Z" style="fill: #6b6b69"/>
    <path d="M12.11,13.11h2.2v.83h-2.2Z" style="fill: #6b6b69"/>
    <path d="M16.87,10.15v5.6h-1V11H14.65v-.87Z" style="fill: #6b6b69"/>
    <path d="M22.29,13.35a1.36,1.36,0,0,1,.24.8,1.47,1.47,0,0,1-.28.9,1.78,1.78,0,0,1-.8.59,3.28,3.28,0,0,1-1.21.2,3.24,3.24,0,0,1-1.2-.2,1.75,1.75,0,0,1-.8-.59,1.48,1.48,0,0,1-.28-.9,1.38,1.38,0,0,1,.23-.8,1.59,1.59,0,0,1,.66-.54,1.33,1.33,0,0,1-.52-.48,1.32,1.32,0,0,1-.18-.69,1.35,1.35,0,0,1,.26-.82,1.66,1.66,0,0,1,.73-.54,2.86,2.86,0,0,1,1.09-.19,2.89,2.89,0,0,1,1.1.19,1.68,1.68,0,0,1,.74.54,1.33,1.33,0,0,1,.26.82,1.27,1.27,0,0,1-.18.69,1.42,1.42,0,0,1-.53.49A1.61,1.61,0,0,1,22.29,13.35Zm-1.15,1.43a.77.77,0,0,0,.34-.66.76.76,0,0,0-.34-.66,1.54,1.54,0,0,0-.91-.24,1.5,1.5,0,0,0-.9.24.77.77,0,0,0-.33.66.78.78,0,0,0,.33.66,1.5,1.5,0,0,0,.9.24A1.54,1.54,0,0,0,21.15,14.77Zm-1.68-3.68a.73.73,0,0,0,0,1.16,1.26,1.26,0,0,0,.77.21,1.29,1.29,0,0,0,.78-.21.72.72,0,0,0,0-1.16,1.32,1.32,0,0,0-.78-.21A1.28,1.28,0,0,0,19.46,11.09Z" style="fill: #6b6b69"/>
  </g>
</svg>
