<svg id="в_кривых" data-name="в кривых" xmlns="http://www.w3.org/2000/svg" width="26" height="26" viewBox="0 0 26 26">
  <title>Нумерация помещений</title>
  <g>
    <path d="M5.39,10.15v5.6h-1V11H3.17v-.87Z" style="fill: #6b6b69"/>
    <path d="M11.5,14.48h-1v1.27h-1V14.48H6.43v-.72l2.76-3.61H10.3L7.7,13.6H9.53V12.47h1V13.6h1Z" style="fill: #6b6b69"/>
    <path d="M12.11,13.11h2.2v.83h-2.2Z" style="fill: #6b6b69"/>
    <path d="M16.87,10.15v5.6h-1V11H14.65v-.87Z" style="fill: #6b6b69"/>
    <path d="M21.52,12.5a1.64,1.64,0,0,1,.69.6,1.66,1.66,0,0,1,.25.9,1.7,1.7,0,0,1-.27,1,1.8,1.8,0,0,1-.74.64,2.36,2.36,0,0,1-1,.22,2.26,2.26,0,0,1-1.79-.72A3,3,0,0,1,18,13a3.48,3.48,0,0,1,.34-1.61,2.38,2.38,0,0,1,1-1,2.88,2.88,0,0,1,1.44-.35,3.44,3.44,0,0,1,.81.09,2.22,2.22,0,0,1,.66.27l-.38.78a1.91,1.91,0,0,0-1.06-.27,1.63,1.63,0,0,0-1.26.5A2,2,0,0,0,19,12.87h0a1.55,1.55,0,0,1,.63-.44,2.39,2.39,0,0,1,.86-.15A2.26,2.26,0,0,1,21.52,12.5Zm-.38,2.25a.94.94,0,0,0,0-1.39,1.4,1.4,0,0,0-1.64,0,.87.87,0,0,0-.32.69.86.86,0,0,0,.31.68,1.25,1.25,0,0,0,.85.27A1.17,1.17,0,0,0,21.15,14.75Z" style="fill: #6b6b69"/>
  </g>
</svg>
