<svg id="в_кривых" data-name="в кривых" xmlns="http://www.w3.org/2000/svg" width="26" height="26" viewBox="0 0 26 26">
  <title>Нумерация помещений</title>
  <g>
    <path d="M5.73,10.15v5.6h-1V11H3.5v-.87Z" style="fill: #6b6b69"/>
    <path d="M11.83,14.48h-1v1.27h-1V14.48H6.76v-.72l2.76-3.61h1.11L8,13.6H9.86V12.47h1V13.6h1Z" style="fill: #6b6b69"/>
    <path d="M12.44,13.11h2.2v.83h-2.2Z" style="fill: #6b6b69"/>
    <path d="M17.21,10.15v5.6h-1V11H15v-.87Z" style="fill: #6b6b69"/>
    <path d="M19.46,15.49a2.29,2.29,0,0,1-.83-1,3.63,3.63,0,0,1-.3-1.55,3.63,3.63,0,0,1,.3-1.55,2.29,2.29,0,0,1,.83-1,2.29,2.29,0,0,1,2.4,0,2.28,2.28,0,0,1,.84,1,3.63,3.63,0,0,1,.3,1.55,3.63,3.63,0,0,1-.3,1.55,2.28,2.28,0,0,1-.84,1,2.29,2.29,0,0,1-2.4,0Zm2.15-1.06A2.58,2.58,0,0,0,22,12.95a2.58,2.58,0,0,0-.35-1.48,1.15,1.15,0,0,0-1.89,0,2.58,2.58,0,0,0-.35,1.48,2.58,2.58,0,0,0,.35,1.48,1.15,1.15,0,0,0,1.89,0Z" style="fill: #6b6b69"/>
  </g>
</svg>
