<svg id="в_кривых" data-name="в кривых" xmlns="http://www.w3.org/2000/svg" width="26" height="26" viewBox="0 0 26 26">
  <title>Нумерация помещений</title>
  <g>
    <path d="M5.73,10.15v5.6h-1V11H3.5v-.87Z" style="fill: #6b6b69"/>
    <path d="M11.83,14.48h-1v1.27h-1V14.48H6.76v-.72l2.76-3.61h1.11L8,13.6H9.86V12.47h1V13.6h1Z" style="fill: #6b6b69"/>
    <path d="M12.44,13.11h2.2v.83h-2.2Z" style="fill: #6b6b69"/>
    <path d="M17.21,10.15v5.6h-1V11H15v-.87Z" style="fill: #6b6b69"/>
    <path d="M21.82,12.78A1.53,1.53,0,0,1,22.39,14a1.73,1.73,0,0,1-.25.91,1.71,1.71,0,0,1-.74.65,2.79,2.79,0,0,1-1.22.24A3.94,3.94,0,0,1,19,15.66a2.87,2.87,0,0,1-.94-.48l.44-.81a2.36,2.36,0,0,0,.75.4,2.78,2.78,0,0,0,.9.15A1.45,1.45,0,0,0,21,14.7a.79.79,0,0,0,0-1.28,2.26,2.26,0,0,0-1.16-.22H18.49l.29-3h3.29V11H19.66l-.12,1.3h.54A2.76,2.76,0,0,1,21.82,12.78Z" style="fill: #6b6b69"/>
  </g>
</svg>
