<svg id="в_кривых" data-name="в кривых" xmlns="http://www.w3.org/2000/svg" width="26" height="26" viewBox="0 0 26 26">
  <title>Нумерация помещений</title>
  <g>
    <path d="M5.73,10.15v5.6h-1V11H3.5v-.87Z" style="fill: #6b6b69"/>
    <path d="M11.83,14.48h-1v1.27h-1V14.48H6.76v-.72l2.76-3.61h1.11L8,13.6H9.86V12.47h1V13.6h1Z" style="fill: #6b6b69"/>
    <path d="M12.44,13.11h2.2v.83h-2.2Z" style="fill: #6b6b69"/>
    <path d="M17.21,10.15v5.6h-1V11H15v-.87Z" style="fill: #6b6b69"/>
    <path d="M22.38,14.87v.88H18.25v-.7l2.22-2.11a2.43,2.43,0,0,0,.51-.63,1.2,1.2,0,0,0,.13-.53.72.72,0,0,0-.26-.6,1.23,1.23,0,0,0-.78-.21,1.57,1.57,0,0,0-1.31.58L18,11a2.15,2.15,0,0,1,.88-.68,3.06,3.06,0,0,1,1.24-.24,2.28,2.28,0,0,1,1.46.43,1.42,1.42,0,0,1,.54,1.18,2,2,0,0,1-.19.86,3.32,3.32,0,0,1-.74.91l-1.5,1.42Z" style="fill: #6b6b69"/>
  </g>
</svg>
