<svg id="в_кривых" data-name="в кривых" xmlns="http://www.w3.org/2000/svg" width="26" height="26" viewBox="0 0 26 26">
  <title>Нумерация помещений</title>
  <g>
    <path d="M7.1,10.15v5.6h-1V11H4.88v-.87Z" style="fill: #6b6b69"/>
    <path d="M13.21,14.48h-1v1.27h-1V14.48H8.14v-.72l2.76-3.61H12L9.41,13.6h1.83V12.47h1V13.6h1Z" style="fill: #6b6b69"/>
    <path d="M13.82,13.11H16v.83h-2.2Z" style="fill: #6b6b69"/>
    <path d="M20.38,12.5a1.64,1.64,0,0,1,.69.6,1.66,1.66,0,0,1,.25.9A1.7,1.7,0,0,1,21,15a1.8,1.8,0,0,1-.74.64,2.36,2.36,0,0,1-1,.22,2.26,2.26,0,0,1-1.79-.72A3,3,0,0,1,16.85,13a3.48,3.48,0,0,1,.34-1.61,2.38,2.38,0,0,1,1-1,2.88,2.88,0,0,1,1.44-.35,3.44,3.44,0,0,1,.81.09,2.22,2.22,0,0,1,.66.27l-.38.78a1.91,1.91,0,0,0-1.06-.27,1.63,1.63,0,0,0-1.26.5,2,2,0,0,0-.46,1.43h0a1.55,1.55,0,0,1,.63-.44,2.39,2.39,0,0,1,.86-.15A2.26,2.26,0,0,1,20.38,12.5ZM20,14.75a.94.94,0,0,0,0-1.39,1.4,1.4,0,0,0-1.64,0,.87.87,0,0,0-.32.69.86.86,0,0,0,.31.68,1.25,1.25,0,0,0,.85.27A1.17,1.17,0,0,0,20,14.75Z" style="fill: #6b6b69"/>
  </g>
</svg>
