<svg id="в_кривых" data-name="в кривых" xmlns="http://www.w3.org/2000/svg" width="26" height="26" viewBox="0 0 26 26">
  <title>Нумерация помещений</title>
  <g>
    <path d="M6.89,10.15v5.6h-1V11H4.67v-.87Z" style="fill: #6b6b69"/>
    <path d="M13,14.48H12v1.27H11V14.48H7.93v-.72l2.76-3.61H11.8L9.2,13.6H11V12.47h1V13.6h1Z" style="fill: #6b6b69"/>
    <path d="M13.61,13.11h2.2v.83h-2.2Z" style="fill: #6b6b69"/>
    <path d="M20.27,10.79a3,3,0,0,1,.64,2.06,3.49,3.49,0,0,1-.34,1.61,2.39,2.39,0,0,1-1,1,2.89,2.89,0,0,1-1.44.35,3.43,3.43,0,0,1-.81-.09,2.21,2.21,0,0,1-.66-.27l.38-.78a1.92,1.92,0,0,0,1.06.27,1.63,1.63,0,0,0,1.26-.5A2,2,0,0,0,19.86,13h0a1.56,1.56,0,0,1-.63.44,2.39,2.39,0,0,1-.86.15,2.26,2.26,0,0,1-1-.21,1.63,1.63,0,0,1-.69-.6,1.65,1.65,0,0,1-.25-.9,1.69,1.69,0,0,1,.27-1,1.8,1.8,0,0,1,.74-.64,2.36,2.36,0,0,1,1-.22A2.26,2.26,0,0,1,20.27,10.79Zm-.89,1.73a.87.87,0,0,0,.32-.69.86.86,0,0,0-.31-.68,1.26,1.26,0,0,0-.85-.27,1.18,1.18,0,0,0-.79.26.94.94,0,0,0,0,1.39,1.23,1.23,0,0,0,.82.26A1.21,1.21,0,0,0,19.39,12.52Z" style="fill: #6b6b69"/>
  </g>
</svg>
