<svg xmlns="http://www.w3.org/2000/svg" width="26" height="26" viewBox="0 0 26 26">
  <title>Пожарные знаки</title>
  <g id="Layer_2" data-name="Layer 2">
    <path d="M0,0H26V26H0V0" style="fill: #fff"/>
    <path d="M1.05,1H25V25h-24V1m13,5.09A1.16,1.16,0,1,0,12.93,5a1.16,1.16,0,0,0,1.16,1.16m6.1,3.22a.68.68,0,0,0,.3-1.3L16,5.87a.64.64,0,0,0-.29-.07.76.76,0,0,0-.28.06l-.07,0h0l-1.14.46h0a.69.69,0,0,0-.39.89l.56,1.44-1.06.16a.69.69,0,0,0,.1,1.37h.1l1.79-.27h0l.26.87-1.75,1.91a.86.86,0,0,0-.22.58v3.21a.86.86,0,0,0,1.72,0V13.64l1.37-1.48V13a.87.87,0,0,0,.35.7l2.24,1.66a.82.82,0,0,0,.51.17.86.86,0,0,0,.51-1.55l-1.89-1.4V10.1a.89.89,0,0,0-.07-.35l-.78-1.61,2.34,1.14a.55.55,0,0,0,.3.07M8.13,16.05l1.08-.78L7.43,15.1l3.35-2.44-.59-.81L6.86,14.29l.36-1.74-1.07.79-.43,2a.43.43,0,0,0,.38.52l2,.2m15.26-.36V14.31h-1.8v1.52H17.38V17.5H12.73v1.84H7.85v1.76H4v1.77H2.56v1.37h2.8V22.49H9.23V20.73h4.88V18.88h4.65V17.21H23V15.69h.43" style="fill: #009835"/>
  </g>
</svg>
