<svg xmlns="http://www.w3.org/2000/svg" width="26" height="26" viewBox="0 0 26 26">
  <title>Пожарные знаки</title>
  <g id="Layer_2" data-name="Layer 2">
    <path d="M26,0V26H0V0H26" style="fill: #fff"/>
    <path d="M24.95,1V25H1V1h24m-13,5.09a1.16,1.16,0,1,0,0-2.32,1.16,1.16,0,1,0,0,2.32M5.81,9.35a.55.55,0,0,0,.3-.07L8.45,8.14,7.68,9.75a.89.89,0,0,0-.07.35v2.44l-1.89,1.4a.86.86,0,0,0,.51,1.55.82.82,0,0,0,.51-.17L9,13.66a.87.87,0,0,0,.35-.7v-.81l1.37,1.48v2.89a.86.86,0,0,0,1.72,0V13.32a.86.86,0,0,0-.22-.58l-1.75-1.91.26-.87h0l1.79.27h.1a.69.69,0,0,0,.1-1.37l-1.06-.16.56-1.44a.69.69,0,0,0-.39-.89h0l-1.14-.46h0l-.07,0a.76.76,0,0,0-.28-.06.64.64,0,0,0-.29.07L5.51,8a.68.68,0,0,0,.3,1.3m12.06,6.7,2-.2a.43.43,0,0,0,.38-.52l-.43-2-1.07-.79.36,1.74-3.33-2.44-.59.81,3.35,2.44-1.77.17,1.08.78M2.61,15.69H3v1.52h4.2v1.67h4.65v1.84h4.88v1.76h3.87v1.76h2.8V22.88H22V21.11H18.15V19.35H13.27V17.5H8.62V15.83H4.41V14.31H2.61v1.38" style="fill: #009835"/>
  </g>
</svg>
