<svg xmlns="http://www.w3.org/2000/svg" width="26" height="26" viewBox="0 0 26 26">
  <title>Пожарные знаки</title>
  <g id="Layer_2" data-name="Layer 2">
    <path d="M26,0V26H0V0H26" style="fill: #fff"/>
    <path d="M25,.94v24H1V.94H25m-11.88,16a.41.41,0,0,0,.41-.41V10.25h3.19a3.55,3.55,0,1,0,0-1H13.52V3.36A.4.4,0,0,0,13.1,3V16.89m-9.75,0V3a.4.4,0,0,0-.4.4V16.48a.4.4,0,0,0,.4.41m8.33-.36h.14a.43.43,0,0,0,.43-.43V3.73a.43.43,0,0,0-.43-.43h-.14a.43.43,0,0,0-.43.43V16.1a.43.43,0,0,0,.43.43m-1.73,0h.14a.43.43,0,0,0,.43-.43V3.73a.43.43,0,0,0-.43-.43H10a.43.43,0,0,0-.43.43V16.1a.43.43,0,0,0,.43.43m-1.73,0h.14a.43.43,0,0,0,.43-.43V3.73a.43.43,0,0,0-.43-.43H8.22a.43.43,0,0,0-.43.43V16.1a.43.43,0,0,0,.43.43m-1.74,0h.14a.43.43,0,0,0,.43-.43V3.73a.43.43,0,0,0-.43-.43H6.48a.43.43,0,0,0-.43.43V16.1a.43.43,0,0,0,.43.43M4.09,18.86H5.36V3.7A.38.38,0,0,0,5,3.31H4.48a.39.39,0,0,0-.39.39V18.86m0,.63H5.36v-.38H4.09Zm.71,3.6c.38,0,.5-3.2.5-3.2H4.09s.33,3.2.71,3.2" style="fill: #fd0302"/>
    <path d="M3.35,3V16.89a.4.4,0,0,1-.4-.41V3.36a.4.4,0,0,1,.4-.4" style="fill: none;stroke: #e30613;stroke-miterlimit: 10;stroke-width: 0.100000001490116px"/>
    <path d="M5,3.31a.38.38,0,0,1,.39.39V18.86H4.09V3.7a.39.39,0,0,1,.39-.39H5" style="fill: none;stroke: #e30613;stroke-miterlimit: 10;stroke-width: 0.100000001490116px"/>
    <path d="M6.63,3.31a.43.43,0,0,1,.43.43V16.1a.43.43,0,0,1-.43.43H6.48a.43.43,0,0,1-.43-.43V3.73a.43.43,0,0,1,.43-.43h.14" style="fill: none;stroke: #e30613;stroke-miterlimit: 10;stroke-width: 0.100000001490116px"/>
    <path d="M8.36,3.31a.43.43,0,0,1,.43.43V16.1a.43.43,0,0,1-.43.43H8.22a.43.43,0,0,1-.43-.43V3.73a.43.43,0,0,1,.43-.43h.14" style="fill: none;stroke: #e30613;stroke-miterlimit: 10;stroke-width: 0.100000001490116px"/>
    <path d="M10.09,3.31a.43.43,0,0,1,.43.43V16.1a.43.43,0,0,1-.43.43H10a.43.43,0,0,1-.43-.43V3.73A.43.43,0,0,1,10,3.31h.14" style="fill: none;stroke: #e30613;stroke-miterlimit: 10;stroke-width: 0.100000001490116px"/>
    <path d="M11.83,3.31a.43.43,0,0,1,.43.43V16.1a.43.43,0,0,1-.43.43h-.14a.43.43,0,0,1-.43-.43V3.73a.43.43,0,0,1,.43-.43h.14" style="fill: none;stroke: #e30613;stroke-miterlimit: 10;stroke-width: 0.100000001490116px"/>
    <path d="M20.57,9.28h2.55a2.93,2.93,0,0,0-2.55-2.44Zm-3.26,0h2.55V6.84A2.93,2.93,0,0,0,17.3,9.28m3.26,3.4a2.94,2.94,0,0,0,2.55-2.44H20.57Zm-.71,0V10.25H17.3A2.94,2.94,0,0,0,19.85,12.69Z" style="fill: #fd0302"/>
  </g>
</svg>
