
<svg xmlns="http://www.w3.org/2000/svg" width="26" height="26" viewBox="0 0 26 26">
  <title>Пожарные знаки</title>
  <g id="Layer_2" data-name="Layer 2">
    <rect x="0.1" y="0.11" width="25.8" height="25.8" rx="7.4" ry="7.4" style="fill: #fff"/>
    <g>
      <path d="M24.9,18.51a6.4,6.4,0,0,1-6.4,6.4H7.5a6.4,6.4,0,0,1-6.4-6.4v-11a6.39,6.39,0,0,1,6.4-6.4h11a6.39,6.39,0,0,1,6.4,6.4Z" style="fill: #fff"/>
      <path d="M18.5,1.11H7.5a6.39,6.39,0,0,0-6.4,6.4v11a6.4,6.4,0,0,0,6.4,6.4h11a6.4,6.4,0,0,0,6.4-6.4v-11A6.39,6.39,0,0,0,18.5,1.11Zm3.29,17.4a3.29,3.29,0,0,1-3.29,3.28H7.5a3.29,3.29,0,0,1-3.29-3.28v-11A3.29,3.29,0,0,1,7.5,4.22h11a3.29,3.29,0,0,1,3.29,3.29Z" style="fill: #fd0302"/>
    </g>
    <g>
      <rect x="9.14" y="9.14" width="7.72" height="7.73" style="fill: #fd0302"/>
      <path d="M15.36,10.64v4.73H10.64V10.64h4.72m3-3H7.64V18.38H18.36V7.64Z" style="fill: #fd0302"/>
    </g>
  </g>
</svg>
