<svg id="Layer_2" data-name="Layer 2" xmlns="http://www.w3.org/2000/svg" width="25" height="25" viewBox="0 0 25 25">
  <title>Значки радар и тп</title>
  <g>
    <path d="M11.47,14.21H9.23l-.43,1H7.66l2.15-4.81h1.1l2.15,4.81H11.89Zm-.35-.85-.76-1.84-.76,1.84Z" style="fill: #6b6b69"/>
    <path d="M16.63,15.24,15.7,13.9h-1v1.34H13.56V10.43h2.08a2.67,2.67,0,0,1,1.11.21,1.59,1.59,0,0,1,1,1.53,1.57,1.57,0,0,1-1,1.52l1.08,1.55Zm-.28-3.69a1.17,1.17,0,0,0-.76-.22h-.91V13h.91a1.16,1.16,0,0,0,.76-.22.87.87,0,0,0,0-1.24Z" style="fill: #6b6b69"/>
  </g>
  <path d="M4.43,7.77A.67.67,0,0,0,4.34,8a.62.62,0,0,1,.07-.19S4.42,7.78,4.43,7.77Z" style="fill: #1d1d1b"/>
  <g>
    <path d="M21.92,8a.49.49,0,0,0,0-.11l-.06-.11a.51.51,0,0,0-.19-.22.72.72,0,0,0-.15-.11h0l-7.9-4.33a.93.93,0,0,0-.86,0L4.77,7.44a.85.85,0,0,0-.34.34A.67.67,0,0,0,4.34,8a.85.85,0,0,0,0,.23v9.47a.9.9,0,0,0,.47.79l7.92,4.31a.9.9,0,0,0,.86,0l7.92-4.31a.9.9,0,0,0,.47-.79V8.21A.85.85,0,0,0,21.92,8Zm-1.77,9.16-7,3.82-7-3.82V9.72l1.68.89a1,1,0,0,0,.43.11A.88.88,0,0,0,9,10.25.9.9,0,0,0,8.64,9L7.11,8.2l6-3.29,6,3.29L17.62,9a.9.9,0,0,0-.37,1.22.88.88,0,0,0,.79.48.91.91,0,0,0,.42-.11l1.69-.9Z" style="fill: #6b6b69"/>
    <path d="M21.88,7.88l-.06-.11s0,0,0,0S21.88,7.84,21.88,7.88Z" style="fill: #6b6b69"/>
  </g>
  <circle cx="13.13" cy="5.94" r="0.55" style="fill: #6b6b69"/>
  <circle cx="13.13" cy="7.38" r="0.55" style="fill: #6b6b69"/>
  <circle cx="13.13" cy="8.82" r="0.55" style="fill: #6b6b69"/>
  <circle cx="6.97" cy="16.61" r="0.55" transform="translate(-6.98 5.21) rotate(-27.97)" style="fill: #6b6b69"/>
  <circle cx="19.31" cy="16.61" r="0.55" transform="translate(-4.42 25.87) rotate(-62.03)" style="fill: #6b6b69"/>
</svg>
