<svg id="Layer_2" data-name="Layer 2" xmlns="http://www.w3.org/2000/svg" width="25" height="25" viewBox="0 0 25 25">
  <title>Значки радар и тп</title>
  <path d="M22.26,7.51a.11.11,0,0,0,0-.05,1.39,1.39,0,0,0-.1-.26c0-.05,0-.1-.08-.14a1.47,1.47,0,0,0-.25-.25.71.71,0,0,0-.14-.1l0,0L13.73,2.35a1.22,1.22,0,0,0-1.2,0L4.61,6.69l0,0a.71.71,0,0,0-.14.1,1.17,1.17,0,0,0-.34.39.42.42,0,0,0,0,.1,1,1,0,0,0-.08.3.61.61,0,0,0,0,.19v9.46a1.25,1.25,0,0,0,.65,1.1l7.92,4.3a1.17,1.17,0,0,0,.6.16,1.2,1.2,0,0,0,.6-.16l7.92-4.3a1.25,1.25,0,0,0,.65-1.1V7.78A.9.9,0,0,0,22.26,7.51Zm-2.46,9-6.67,3.63L6.46,16.5V9.86l1.17.62a1.26,1.26,0,0,0,.59.15A1.25,1.25,0,0,0,8.8,8.27l-1-.51,5.29-2.89,5.28,2.89-1,.51a1.25,1.25,0,0,0-.51,1.7,1.24,1.24,0,0,0,1.1.66,1.26,1.26,0,0,0,.59-.15l1.17-.62Z" style="fill: #6b6b69"/>
  <g>
    <path d="M11.68,14.18H9.57l-.4,1H8.09l2-4.55h1l2,4.55h-1.1Zm-.33-.8-.72-1.74-.72,1.74Z" style="fill: #6b6b69"/>
    <path d="M16.56,15.15l-.88-1.27h-1v1.27H13.66V10.6h2a2.53,2.53,0,0,1,1,.2,1.56,1.56,0,0,1,.69.57,1.58,1.58,0,0,1,.24.88,1.48,1.48,0,0,1-.94,1.44l1,1.46Zm-.27-3.49a1.11,1.11,0,0,0-.72-.2h-.86V13h.86a1.09,1.09,0,0,0,.72-.21.82.82,0,0,0,0-1.17Z" style="fill: #6b6b69"/>
  </g>
  <circle cx="13.13" cy="5.96" r="0.55" style="fill: #6b6b69"/>
  <circle cx="13.13" cy="7.4" r="0.55" style="fill: #6b6b69"/>
  <circle cx="13.13" cy="8.84" r="0.55" style="fill: #6b6b69"/>
  <circle cx="7.26" cy="15.9" r="0.55" transform="translate(-6.61 5.26) rotate(-27.97)" style="fill: #6b6b69"/>
  <circle cx="19.07" cy="16.01" r="0.55" transform="translate(-4.01 25.35) rotate(-62.03)" style="fill: #6b6b69"/>
</svg>
