<svg xmlns="http://www.w3.org/2000/svg" width="25" height="25" viewBox="0 0 25 25">
  <title>Значки радар и тп</title>
  <g id="Layer_1" data-name="Layer 1">
    <path d="M20.66,14.23H19a2.49,2.49,0,0,0-2.43,1.93c-1-.36-1.21-1.38-1.48-3.45a10.31,10.31,0,0,0-1.13-4h1.39a1.87,1.87,0,0,0,1.46.68,1.93,1.93,0,1,0,0-3.86,1.87,1.87,0,0,0-1.46.68H9.92a2.51,2.51,0,0,0-2.47-2.1H5.76A2.52,2.52,0,0,0,3.25,6.57V8.26a2.51,2.51,0,0,0,2.51,2.5H7.45a2.5,2.5,0,0,0,2.45-2C12,9.1,12.25,10.51,12.58,13a11.15,11.15,0,0,0,.79,3.3H11.1a1.9,1.9,0,0,0-1.47-.68,1.93,1.93,0,1,0,0,3.86,1.9,1.9,0,0,0,1.47-.68h5.41A2.5,2.5,0,0,0,19,20.94h1.69a2.51,2.51,0,0,0,2.5-2.51V16.73A2.5,2.5,0,0,0,20.66,14.23Zm-13.21-6H5.75V6.57H7.45ZM20.66,18.44H19V16.73h1.69Z" style="fill: #6b6b69"/>
  </g>
</svg>
