<?xml version="1.0" encoding="UTF-8" standalone="no"?>
<svg
   xmlns:dc="http://purl.org/dc/elements/1.1/"
   xmlns:cc="http://creativecommons.org/ns#"
   xmlns:rdf="http://www.w3.org/1999/02/22-rdf-syntax-ns#"
   xmlns:svg="http://www.w3.org/2000/svg"
   xmlns="http://www.w3.org/2000/svg"
   xmlns:sodipodi="http://sodipodi.sourceforge.net/DTD/sodipodi-0.dtd"
   xmlns:inkscape="http://www.inkscape.org/namespaces/inkscape"
   inkscape:version="1.0 (4035a4fb49, 2020-05-01)"
   sodipodi:docname="bot-logo.svg"
   id="svg10"
   version="1.1"
   viewBox="0 0 17.391304 17.391304"
   class="bi bi-robot"
   fill="#3d85c6"
   height="25"
   width="25">
  <metadata
     id="metadata16">
    <rdf:RDF>
      <cc:Work
         rdf:about="">
        <dc:format>image/svg+xml</dc:format>
        <dc:type
           rdf:resource="http://purl.org/dc/dcmitype/StillImage" />
        <dc:title></dc:title>
      </cc:Work>
    </rdf:RDF>
  </metadata>
  <defs
     id="defs14" />
  <sodipodi:namedview
     inkscape:current-layer="svg10"
     inkscape:window-maximized="1"
     inkscape:window-y="-11"
     inkscape:window-x="-11"
     inkscape:cy="8.2339617"
     inkscape:cx="1.691964"
     inkscape:zoom="19.086957"
     showgrid="false"
     id="namedview12"
     inkscape:window-height="1046"
     inkscape:window-width="1920"
     inkscape:pageshadow="2"
     inkscape:pageopacity="0"
     guidetolerance="10"
     gridtolerance="10"
     objecttolerance="10"
     borderopacity="1"
     bordercolor="#666666"
     pagecolor="#ffffff" />
  <path
     style="fill:#6b6b69;fill-opacity:1;stroke:#6b6b69;stroke-width:0.356309;stroke-miterlimit:4;stroke-dasharray:none;stroke-opacity:1"
     id="path2-3"
     d="m 3.3520347,7.521568 a 0.17303396,0.25255461 0 0 1 0.167452,0.2444075 v 3.3076515 a 0.17024327,0.2484814 0 0 1 -0.3404863,0 V 7.7659755 A 0.17303396,0.25255461 0 0 1 3.3464523,7.521568 m 0,-0.8146927 v 0 A 0.72562624,1.0590999 0 0 0 2.6208258,7.7659755 v 3.3076515 a 0.72562624,1.0590999 0 0 0 0.7256265,1.059102 v 0 A 0.72562624,1.0590999 0 0 0 4.0720789,11.073627 V 7.7659755 A 0.72562624,1.0590999 0 0 0 3.3464523,6.7068753 Z" />
  <path
     style="fill:#6b6b69;fill-opacity:1;stroke:#6b6b69;stroke-width:0.837577;stroke-miterlimit:4;stroke-dasharray:none;stroke-opacity:1"
     id="path6"
     d="m 8.8410756,4.5736951 a 3.1292172,3.0158182 0 0 1 3.0724714,2.4845331 2.3266459,2.2423311 0 0 1 0,0.2500176 v 0 0 a 0.81067797,0.78130001 0 0 1 0,0.1015602 v 3.250211 a 1.7997052,1.7344861 0 0 1 -1.74296,1.726674 H 7.5358846 A 1.7915982,1.7266729 0 0 1 5.7442855,10.660018 V 7.5348152 c 0,-0.046879 0,-0.093759 0,-0.1406375 0,-0.04688 0,-0.1171981 0,-0.1718865 a 2.2780053,2.1954532 0 0 1 0,-0.2343897 3.1211104,3.0080052 0 0 1 3.0967901,-2.4142177 m 0,-0.781299 a 3.939895,3.7971181 0 0 0 -3.858825,3.1252009 3.1048967,2.9923791 0 0 0 -0.056755,0.3359591 c 0,0.117198 0,0.2422019 0,0.3593968 v 3.1252014 a 2.6022762,2.5079729 0 0 0 2.6103821,2.429844 h 2.6347073 a 2.6103832,2.5157861 0 0 0 2.610383,-2.507972 V 7.4410567 a 1.4430066,1.3907139 0 0 0 0,-0.2265778 3.1048967,2.9923791 0 0 0 -0.05676,-0.3359588 3.939895,3.7971181 0 0 0 -3.8831457,-3.0861356 z" />
  <path
     style="fill:#6b6b69;fill-opacity:1;stroke:#6b6b69;stroke-width:0.47447;stroke-miterlimit:4;stroke-dasharray:none;stroke-opacity:1"
     id="path8"
     d="m 8.8211344,6.2460374 a 1.5782542,1.5782542 0 0 1 1.5712396,1.5712394 0.29460743,0.29460743 0 0 1 0,0.077156 v 0 C 10.238056,8.0768092 9.2139444,8.0768092 8.8281495,8.0768092 A 4.0964462,4.0964462 0 0 1 7.2779541,7.908462 a 0.24550618,0.24550618 0 0 1 0,-0.09118 1.5782542,1.5782542 0 0 1 1.5431803,-1.5712397 m 0,-0.7014468 A 2.2726858,2.2726858 0 0 0 6.5624785,7.81728 c 0,0.9399381 1.017096,0.9609806 2.2586559,0.9609806 1.2415596,0 2.2726846,-0.042088 2.2726846,-0.9609806 A 2.2726858,2.2726858 0 0 0 8.8211344,5.5445921 Z" />
  <path
     d="m 14.33187,7.5294594 a 0.17303396,0.2525546 0 0 1 0.167452,0.2444075 v 3.3076511 a 0.17024327,0.24848139 0 0 1 -0.340486,0 V 7.7738669 a 0.17303396,0.2525546 0 0 1 0.167451,-0.2444075 m 0,-0.8146927 v 0 a 0.72562621,1.0590999 0 0 0 -0.725626,1.0591002 v 3.3076511 a 0.72562621,1.0590999 0 0 0 0.725626,1.059102 v 0 a 0.72562621,1.0590999 0 0 0 0.725627,-1.059102 V 7.7738669 A 0.72562621,1.0590999 0 0 0 14.326287,6.7147667 Z"
     id="path2-3-2"
     style="fill:#6b6b69;fill-opacity:1;stroke:#6b6b69;stroke-width:0.356309;stroke-miterlimit:4;stroke-dasharray:none;stroke-opacity:1" />
</svg>
