<svg xmlns="http://www.w3.org/2000/svg" width="25" height="25" viewBox="0 0 25 25">
  <title>Значки радар и тп</title>
  <g id="Layer_1" data-name="Layer 1">
    <path d="M17.42,17.07v1.81h-.85V18C16.57,17.58,17.14,17.26,17.42,17.07Z" style="fill: #fff"/>
    <path d="M17.42,17.07v-.19h0C17.66,16.88,17.59,16.95,17.42,17.07Z" style="fill: #fff"/>
    <path d="M16.09,14.87a.83.83,0,0,1,1.48-.57l.12.16a.83.83,0,0,0,1.16.15l.13-.12.13-.15a.83.83,0,0,1,1.45.64l0,.2a.83.83,0,0,0,.71.93h.18l.2,0a.83.83,0,0,1,.57,1.48l-.16.12a.83.83,0,0,0-.15,1.16L22,19l.15.13a.83.83,0,0,1-.64,1.45l-.2,0a.83.83,0,0,0-.93.89l0,.2a.83.83,0,0,1-1.48.57L18.81,22a.83.83,0,0,0-1.16-.15l-.13.12-.13.15a.83.83,0,0,1-1.45-.64l0-.2a.83.83,0,0,0-.71-.93h-.38a.83.83,0,0,1-.57-1.48l.16-.12a.83.83,0,0,0,.15-1.16l-.12-.13-.15-.13A.83.83,0,0,1,15,15.93l.2,0a.83.83,0,0,0,.93-.89Zm4,2.67a1.94,1.94,0,1,0-1.11,2.51A1.94,1.94,0,0,0,20.05,17.54Z" style="fill: #6b6b69"/>
    <path d="M19.06,4.06A1.25,1.25,0,0,0,17.86,4L10.07,7.75a1.22,1.22,0,0,0-.71,1.12v2.61L4,13.38a1.25,1.25,0,0,0-.83,1.18V20a1.25,1.25,0,0,0,1.25,1.25h8.87v-2.5H11.86V9.65L17.15,7.1v6.42h2.5V5.11A1.25,1.25,0,0,0,19.06,4.06ZM5.69,18.76V15.44l3.67-1.31v4.64Z" style="fill: #6b6b69"/>
  </g>
</svg>
