
<svg id="Layer_1" data-name="Layer 1" xmlns="http://www.w3.org/2000/svg" width="25" height="25" viewBox="0 0 25 25">
  <title>Знакчки</title>
  <path d="M19.5,21h-3a1.08,1.08,0,0,1-1-.68,1.08,1.08,0,0,1-1,.68h-9A1.08,1.08,0,0,1,4.42,20v-5.5a1.08,1.08,0,0,1,.74-1l5.26-1.75V9A1.07,1.07,0,0,1,11,8l8-4a1.09,1.09,0,0,1,1,0,1.07,1.07,0,0,1,.51.91V20A1.08,1.08,0,0,1,19.5,21Zm-1.92-2.15h.85V6.69L12.58,9.62v9.26h.85V18a1.08,1.08,0,0,1,1.08-1.08h2A1.08,1.08,0,0,1,17.58,18Zm-11,0h3.85V13.94L6.58,15.23Z" style="fill: #6b6b69"/>
</svg>

