
<svg id="Layer_1" data-name="Layer 1" xmlns="http://www.w3.org/2000/svg" width="25" height="25" viewBox="0 0 25 25">
  <title>building</title>
  <path d="M19.5,20.83h-3a.88.88,0,0,1-.87-.87V18.83h-.25V20a.88.88,0,0,1-.87.88h-9A.88.88,0,0,1,4.63,20v-5.5a.88.88,0,0,1,.6-.83l5.4-1.8V9a.87.87,0,0,1,.48-.78l8-4a.89.89,0,0,1,.85,0,.87.87,0,0,1,.41.74V20A.88.88,0,0,1,19.5,20.83Zm-2.12-1.75h1.25V6.37L12.38,9.49v9.58h1.25V18a.88.88,0,0,1,.88-.87h2a.88.88,0,0,1,.88.88Zm-11,0h4.25V13.67L6.38,15.08Z" style="fill: #6b6b69"/>
</svg>
