<svg id="Layer_1" data-name="Layer 1" xmlns="http://www.w3.org/2000/svg" width="25" height="25" viewBox="0 0 25 25">
  <title>Знакчки</title>
  <path d="M13.84,17A1.71,1.71,0,0,1,12,15.48v-.13h.93v.11a.87.87,0,0,0,.93.71c.65,0,1.07-.6,1.16-1.62a1.66,1.66,0,0,1-1.27.5,1.79,1.79,0,0,1-1.8-1.9,1.89,1.89,0,0,1,1.92-1.93c1.38,0,2.08.94,2.08,2.79S15.17,17,13.84,17Zm-2.77-.1h-.93V12.37c-.31.18-.77.46-1.07.67l-.2.13v-1l.05,0a12.79,12.79,0,0,1,1.33-.81h.82ZM13.93,12a1,1,0,0,0-1,1.08,1,1,0,0,0,1,1.07A1,1,0,0,0,15,13.15,1,1,0,0,0,13.93,12Z" style="fill: #6b6b69"/>
  <path d="M7,8.09a.5.5,0,0,1,.5-.5h10a.5.5,0,0,1,.5.5v1a.5.5,0,0,1-.5.5H7.5a.5.5,0,0,1-.5-.5Z" style="fill: #6b6b69"/>
  <path d="M18.5,20.59H6.5A2.5,2.5,0,0,1,4,18.09v-11a2.5,2.5,0,0,1,2.5-2.5H7a1,1,0,1,1,2,0h7a1,1,0,1,1,2,0h.5A2.5,2.5,0,0,1,21,7.09v11A2.5,2.5,0,0,1,18.5,20.59Zm-12-14a.5.5,0,0,0-.5.5v11a.5.5,0,0,0,.5.5h12a.5.5,0,0,0,.5-.5v-11a.5.5,0,0,0-.5-.5Z" style="fill: #6b6b69"/>
</svg>
