 <svg id="Layer_1" data-name="Layer 1" xmlns="http://www.w3.org/2000/svg" width="25" height="25"
 viewBox="2 0 20 18">
  <title></title> 
  
  
<path
     style="fill:#6b6b69;fill-opacity:1;stroke:#6b6b69;stroke-width:1.435;stroke-miterlimit:4;stroke-dasharray:none;stroke-opacity:1"
     fill-rule="evenodd"
     d="m 4.3939065,9.1954153 a 2.0706027,2.0706027 0 0 1 2.070602,-2.0706038 h 7.7647605 a 2.0706027,2.0706027 0 0 1 2.053003,1.7993548 l 3.219789,-1.430787 a 1.0353014,1.0353014 0 0 1 1.456669,0.945231 v 7.7254187 a 1.0353014,1.0353014 0 0 1 -1.455634,0.945229 l -3.220824,-1.430786 a 2.0706027,2.0706027 0 0 1 -2.053003,1.799354 H 6.4645085 A 2.0706027,2.0706027 0 0 1 4.3939065,15.407222 Z M 16.299875,14.5531 19.923427,16.164029 V 8.4386103 L 16.299875,10.049539 Z M 6.4645085,8.1601133 a 1.0353014,1.0353014 0 0 0 -1.035301,1.035302 v 6.2118067 a 1.0353014,1.0353014 0 0 0 1.035301,1.035303 h 7.7647605 a 1.0353014,1.0353014 0 0 0 1.035302,-1.035303 V 9.1954153 a 1.0353014,1.0353014 0 0 0 -1.035302,-1.035302 z"
     id="path2" /> </svg>
     
