<svg id="Layer_1" data-name="Layer 1" xmlns="http://www.w3.org/2000/svg" width="25" height="25" viewBox="0 0 25 25">
  <title>Знакчки</title>
  <path d="M16.5,21h-8A2.5,2.5,0,0,1,6,18.5V6.5A2.5,2.5,0,0,1,8.5,4h5.71L19,8.79V18.5A2.5,2.5,0,0,1,16.5,21ZM8.5,6a.5.5,0,0,0-.5.5v12a.5.5,0,0,0,.5.5h8a.5.5,0,0,0,.5-.5v-9H15.5a2,2,0,0,1-2-2V6Z" style="fill: #6b6b69"/>
  <path d="M10.6,18c-1,0-1.65-.85-1.65-2.33s.6-2.33,1.65-2.33,1.65.85,1.65,2.33S11.65,18,10.6,18ZM16.05,18H12.8v-.85H14V14.53l-1.19.78v-1l1.28-.84h.85v3.63h1.12Zm-6-1.3c.12.37.31.54.59.54.58,0,.71-.81.71-1.49h0Zm.55-2.43c-.55,0-.67.82-.67,1.49h0l1.3-.95c-.12-.36-.31-.55-.59-.55Z" style="fill: #6b6b69"/>
</svg>
