<svg id="Layer_1" data-name="Layer 1" xmlns="http://www.w3.org/2000/svg" width="25" height="25" viewBox="0 0 25 25">
  <title>Знакчки</title>
  <path d="M12.5,4A8.5,8.5,0,1,1,4,12.5,8.51,8.51,0,0,1,12.5,4M10.58,17.11h-.06a1.6,1.6,0,0,1-1.37-.88L7.88,13.65A7.47,7.47,0,0,0,6.22,12.3L6,12.23a2.43,2.43,0,0,0,0,.27A6.51,6.51,0,0,0,12.5,19a6.44,6.44,0,0,0,3.85-1.27l-1-2.68-.22-1.41a1.4,1.4,0,0,1,.59-1.12,4.81,4.81,0,0,1,2.54-.79,2,2,0,0,1,.45,0l.27.06a6.34,6.34,0,0,0-.5-1.9,4.91,4.91,0,0,1-2.1.78,1.48,1.48,0,0,1-1.27-.62,1.79,1.79,0,0,1-.25-1.27,2.34,2.34,0,0,1-.14-1.23l.16-1.15a6,6,0,0,0-1.53-.39,2.31,2.31,0,0,1-.23,1,12.25,12.25,0,0,1-1.19,1.83c-.13.16-.27.36-.41.56a2.29,2.29,0,0,1,1,.4l.76.52a2,2,0,0,1,.59,2.68L12,16.31a1.59,1.59,0,0,1-1.38.8m0-2.45,1.51-2.58-.77-.55a.44.44,0,0,0-.26-.08l-.15,0a2.2,2.2,0,0,1-.59.09,1.36,1.36,0,0,1-.82-.25,1.25,1.25,0,0,1-.53-1c0-.71.44-1.41,1.31-2.59a11.28,11.28,0,0,0,1-1.48.3.3,0,0,0,0-.15,6.45,6.45,0,0,0-4.65,3.5l.56,1a11.33,11.33,0,0,1,2.17,1.8l.18.25,1,2M17,8.48l.43-.24a6.05,6.05,0,0,0-.67-.67l0,.32a.4.4,0,0,0,.06.26l.23.33m.91,7.66a6.51,6.51,0,0,0,1-2.26l-.62-.15h0a3.36,3.36,0,0,0-1,.24l.11.66.58,1.51" style="fill: #6b6b69"/>
</svg>
