<svg id="в_кривых" data-name="в кривых" xmlns="http://www.w3.org/2000/svg" width="26" height="26" viewBox="0 0 26 26">
  <title>Нумерация помещений</title>
  <g>
    <path d="M9.18,13.4l-.89.91v1.43h-1v-5.6h1V13l2.77-2.87h1.17l-2.35,2.5,2.5,3.1H11.16Z" style="fill: #6b6b69"/>
    <path d="M18.46,13a1.51,1.51,0,0,1,.41,1.08,1.65,1.65,0,0,1-.25.89,1.71,1.71,0,0,1-.75.64,2.85,2.85,0,0,1-1.22.24,3.9,3.9,0,0,1-1.16-.17,3,3,0,0,1-.95-.48l.45-.81a2.25,2.25,0,0,0,.74.4,2.78,2.78,0,0,0,.9.15,1.46,1.46,0,0,0,.87-.23.77.77,0,0,0,0-1.23,1.55,1.55,0,0,0-.92-.22h-.51v-.71L17.37,11H14.82v-.87h3.82v.7l-1.36,1.62A1.89,1.89,0,0,1,18.46,13Z" style="fill: #6b6b69"/>
  </g>
</svg>
