<svg id="Layer_1" data-name="Layer 1" xmlns="http://www.w3.org/2000/svg" width="25" height="25" viewBox="0 0 25 25">
  <title>Значки радар и тп</title>
  <path d="M20.68,13.25l-1.22-.74,1.22-.75a1.26,1.26,0,0,0,.6-1.07,1.27,1.27,0,0,0-.6-1.07L13.43,5.2a1.26,1.26,0,0,0-1.3,0L4.88,9.61a1.27,1.27,0,0,0-.6,1.07,1.26,1.26,0,0,0,.6,1.07l1.14.7-1.2.83a1.25,1.25,0,0,0,.06,2.1l7.25,4.41a1.26,1.26,0,0,0,1.3,0l7.25-4.41a1.27,1.27,0,0,0,.6-1.07A1.26,1.26,0,0,0,20.68,13.25Zm-7.9-5.51,4.85,3-1.18.72-.13.08-3.54,2.16L8.89,11.27l-1-.59Zm0,9.53-5-3,.54-.37,3.77,2.3a1.26,1.26,0,0,0,1.3,0L17.06,14l.57.35Z" style="fill: #6b6b69"/>
</svg>
