<svg id="Layer_1" data-name="Layer 1" xmlns="http://www.w3.org/2000/svg" width="25" height="25" viewBox="0 0 25 25">
  <title>Значки радар и тп</title>
  <path d="M12.78,16.35a1.25,1.25,0,0,1-.59-.15L3.94,11.79a1.25,1.25,0,0,1,0-2.2l8.25-4.42a1.25,1.25,0,0,1,1.18,0l8.25,4.42a1.25,1.25,0,0,1,0,2.2l-8.25,4.42A1.25,1.25,0,0,1,12.78,16.35Zm-5.6-5.67,5.6,3,5.6-3-5.6-3Z" style="fill: #6b6b69"/>
  <path d="M12.78,20a1.25,1.25,0,0,1-.59-.15L3.94,15.41a1.25,1.25,0,0,1,1.18-2.2l7.66,4.1,7.66-4.1a1.25,1.25,0,0,1,1.18,2.2l-8.25,4.42A1.25,1.25,0,0,1,12.78,20Z" style="fill: #6b6b69"/>
</svg>
