<svg id="Layer_1" data-name="Layer 1" xmlns="http://www.w3.org/2000/svg" width="25" height="25"
 viewBox="2 5 20 18">
  <title></title>     
     
     
     <path
     d="m 20.180621,10.323244 c 0.305136,-0.305135 0.274057,-0.8165195 -0.089,-1.0524343 a 13.358146,13.358146 0 0 0 -7.29782,-2.1557244 c -2.691124,0 -5.1986021,0.7910915 -7.29782,2.1557244 a 0.67807846,0.67807846 0 0 0 -0.088998,1.0524343 0.74164831,0.74164831 0 0 0 0.9210566,0.09182 11.951133,11.951133 0 0 1 6.4657614,-1.8873184 11.951133,11.951133 0 0 1 6.465761,1.8873184 c 0.289596,0.186472 0.678078,0.152568 0.921056,-0.09182 z m -3.083844,3.083845 c 0.319262,-0.319262 0.261343,-0.854662 -0.141266,-1.059498 a 9.1441705,9.1441705 0 0 0 -4.161707,-0.994515 c -1.497424,0 -2.9129119,0.358817 -4.1617071,0.994515 -0.4026091,0.204836 -0.4605283,0.740236 -0.1412664,1.059498 l 0.02119,0.02119 c 0.2260261,0.226026 0.5763671,0.268406 0.8631371,0.127139 A 7.7385704,7.7385704 0 0 1 12.793804,12.76574 c 1.226192,0 2.387401,0.283945 3.418646,0.791091 0.28677,0.141266 0.635698,0.09889 0.863137,-0.128552 z m -2.80555,2.805549 c 0.276882,-0.276882 0.279708,-0.734585 -0.05651,-0.932358 a 2.8112003,2.8112003 0 0 0 -1.440913,-0.395545 2.8112003,2.8112003 0 0 0 -1.440917,0.395545 c -0.336214,0.197773 -0.333389,0.655476 -0.05651,0.932358 l 0.99734,0.997341 a 0.70633173,0.70633173 0 0 0 1.000167,0 l 0.998756,-0.998753 z"
     id="path2"
     style="fill:#3d85c6;fill-opacity:1;stroke:#3d85c6;stroke-width:1.41266;stroke-opacity:1" />
</svg>
