<svg xmlns="http://www.w3.org/2000/svg" width="25" height="25" viewBox="0 0 25 25">
  <title>Пожарные знаки</title>
  <g id="Layer_2" data-name="Layer 2">
    <path d="M12.5,3.84a8.7,8.7,0,1,1-8.7,8.7,8.7,8.7,0,0,1,8.7-8.7m1.37,6.69a2.38,2.38,0,0,0-2.76,0L8.9,6.9a6.7,6.7,0,1,0,7.12,0l-2.15,3.68" style="fill: #6b6b69"/>
    <g id="dot">
      <path d="M12.5,11.1a1.3,1.3,0,0,1,.86.31,1.35,1.35,0,0,1,.53,1.09,1.4,1.4,0,1,1-2.26-1.09,1.34,1.34,0,0,1,.87-.31" style="fill: #6b6b69"/>
      <path d="M12.5,11.1a1.3,1.3,0,0,1,.86.31,1.35,1.35,0,0,1,.53,1.09,1.4,1.4,0,1,1-2.26-1.09,1.34,1.34,0,0,1,.87-.31" style="fill: #6b6b69"/>
    </g>
  </g>
</svg>
