<svg id="Layer_2" data-name="Layer 2" xmlns="http://www.w3.org/2000/svg" width="48" height="24" viewBox="0 0 48 24">
  <title>Пожарные знаки</title>
  <path d="M11.32,7.59v4.25a.69.69,0,0,1-1.39,0V8.19H9.72V19.25a.83.83,0,0,1-1.65,0V12.78H7.79v6.47a.82.82,0,1,1-1.65,0V8.19h-.2v3.64a.69.69,0,0,1-1.39,0V7.59a1.84,1.84,0,0,1,.07-.52h0a1.79,1.79,0,0,1,1.7-1.25h3.2a1.78,1.78,0,0,1,1.71,1.27A1.74,1.74,0,0,1,11.32,7.59Z" style="fill: #6b6b69"/>
  <path d="M11.32,7.38v.2a1.74,1.74,0,0,0-.07-.51A.64.64,0,0,1,11.32,7.38Z" style="fill: #6b6b69"/>
  <path d="M4.63,7.06a1.84,1.84,0,0,0-.07.52v-.2A.69.69,0,0,1,4.63,7.06Z" style="fill: #6b6b69"/>
  <circle cx="7.93" cy="4.02" r="1.5" style="fill: #6b6b69"/>
  <circle cx="21.48" cy="4.02" r="1.5" style="fill: #6b6b69"/>
  <circle cx="35.76" cy="5.82" r="1.5" style="fill: #6b6b69"/>
  <path d="M25.12,12.2l-.18,0a.6.6,0,0,1-.57-.42L23.19,8h-.25l1.82,6.35H23v5.08a.66.66,0,1,1-1.31,0V14.39h-.39v5.08a.66.66,0,1,1-1.31,0V14.39H18.21L20,8h-.25L18.6,11.8a.6.6,0,0,1-.57.42l-.18,0a.6.6,0,0,1-.39-.75L18.52,8l.3-1h0A1.65,1.65,0,0,1,19.9,6a1.62,1.62,0,0,1,.49-.07h2.19a1.59,1.59,0,0,1,.48.07,1.64,1.64,0,0,1,1.06,1h0l.22.72.07.24V8l1.06,3.41A.6.6,0,0,1,25.12,12.2Z" style="fill: #6b6b69"/>
  <path d="M24.36,7.75,24.13,7l0,0Z" style="fill: #6b6b69"/>
  <path d="M44.82,17.08a.84.84,0,0,1-.84.84h-.43a1.74,1.74,0,0,1-1.42-.73l-2.55-3.6a.31.31,0,0,0-.25-.13H37.13a1.92,1.92,0,0,1-1.91-1.72l-.33-3.13a.84.84,0,0,1,1.68-.18l.12,1.13h3.4a.84.84,0,1,1,0,1.69H36.86l0,.31a.23.23,0,0,0,.23.21h2.21a2,2,0,0,1,1.63.85l2.54,3.6,0,0H44A.84.84,0,0,1,44.82,17.08Z" style="fill: #6b6b69"/>
  <path d="M41.39,17.11A5.24,5.24,0,1,1,34.45,10l.17,1.63a3.74,3.74,0,1,0,5.73,4.05Z" style="fill: #6b6b69"/>
  <path d="M14.37,19.35a.49.49,0,0,1-.49-.49V4.69a.49.49,0,0,1,1,0V18.86A.49.49,0,0,1,14.37,19.35Z" style="fill: #6b6b69"/>
  <path d="M28.53,19.35a.49.49,0,0,1-.49-.49V4.69a.49.49,0,1,1,1,0V18.86A.49.49,0,0,1,28.53,19.35Z" style="fill: #6b6b69"/>
</svg>
