<svg id="Layer_2" data-name="Layer 2" xmlns="http://www.w3.org/2000/svg" width="24" height="24" viewBox="0 0 31 31">
  <title>Пожарные знаки</title>
  <path d="M5.59,12.47v3.17a.52.52,0,0,1-1,0V12.92H4.4v8.26a.62.62,0,0,1-1.23,0V16.35H3v4.83a.62.62,0,0,1-1.23,0V12.92H1.58v2.72a.52.52,0,0,1-1,0V12.47a1.38,1.38,0,0,1,.06-.39h0a1.34,1.34,0,0,1,1.27-.94H4.26a1.33,1.33,0,0,1,1.28,1A1.3,1.3,0,0,1,5.59,12.47Z" style="fill: #6b6b69"/>
  <path d="M5.59,12.32v.15a1.3,1.3,0,0,0-.06-.38A.48.48,0,0,1,5.59,12.32Z" style="fill: #6b6b69"/>
  <path d="M.6,12.08a1.38,1.38,0,0,0-.06.39v-.15A.51.51,0,0,1,.6,12.08Z" style="fill: #6b6b69"/>
  <circle cx="3.07" cy="9.81" r="1.12" style="fill: #6b6b69"/>
  <circle cx="13.19" cy="9.81" r="1.12" style="fill: #6b6b69"/>
  <circle cx="23.85" cy="11.15" r="1.12" style="fill: #6b6b69"/>
  <path d="M15.9,15.91l-.13,0a.45.45,0,0,1-.43-.31l-.88-2.82h-.19l1.36,4.75H14.31v3.8a.49.49,0,1,1-1,0v-3.8H13v3.8a.49.49,0,1,1-1,0v-3.8H10.74L12.1,12.8h-.19L11,15.62a.45.45,0,0,1-.43.31l-.13,0a.45.45,0,0,1-.29-.56L11,12.8l.22-.72h0a1.23,1.23,0,0,1,.8-.8,1.21,1.21,0,0,1,.36-.06H14a1.18,1.18,0,0,1,.36.06,1.22,1.22,0,0,1,.8.76h0l.17.54.06.18v0l.8,2.55A.45.45,0,0,1,15.9,15.91Z" style="fill: #6b6b69"/>
  <path d="M15.33,12.59l-.17-.54v0Z" style="fill: #6b6b69"/>
  <path d="M30.63,19.56a.63.63,0,0,1-.63.63h-.32a1.3,1.3,0,0,1-1.06-.55L26.72,17a.23.23,0,0,0-.19-.1H24.87a1.44,1.44,0,0,1-1.43-1.28l-.25-2.34a.63.63,0,0,1,1.25-.13l.09.84h2.54a.63.63,0,0,1,0,1.26h-2.4l0,.24a.17.17,0,0,0,.17.16h1.65a1.49,1.49,0,0,1,1.22.63l1.9,2.69,0,0H30A.63.63,0,0,1,30.63,19.56Z" style="fill: #6b6b69"/>
  <path d="M28.06,19.59a3.91,3.91,0,1,1-5.18-5.33L23,15.48a2.79,2.79,0,1,0,4.28,3Z" style="fill: #6b6b69"/>
  <path d="M7.88,21.26a.37.37,0,0,1-.37-.37V10.31a.37.37,0,0,1,.74,0V20.89A.37.37,0,0,1,7.88,21.26Z" style="fill: #6b6b69"/>
  <path d="M18.45,21.26a.37.37,0,0,1-.37-.37V10.31a.37.37,0,0,1,.74,0V20.89A.37.37,0,0,1,18.45,21.26Z" style="fill: #6b6b69"/>
</svg>
