<svg xmlns="http://www.w3.org/2000/svg" width="25" height="25" viewBox="0 0 25 25">
  <title>Значки радар и тп</title>
  <g id="Layer_2" data-name="Layer 2">
    <g>
      <path d="M12.72,10.57l-2,4.56h-1l-2-4.56H8.88l1.39,3.25,1.41-3.25h1" style="fill: #6b6b69"/>
      <path d="M15.07,10.57a2.52,2.52,0,0,1,1.05.2,1.56,1.56,0,0,1,.69.57,1.58,1.58,0,0,1,.24.88,1.48,1.48,0,0,1-.94,1.44l1,1.46H16l-.88-1.27h-1v1.27H13.09V10.57h2M14.15,13H15a1.09,1.09,0,0,0,.72-.21.82.82,0,0,0,0-1.17,1.11,1.11,0,0,0-.72-.21h-.86V13" style="fill: #6b6b69"/>
    </g>
  </g>
  <g id="Layer_1" data-name="Layer 1">
    <path d="M12.5,4.33c3.28,0,5.65.81,7,2.41a4.58,4.58,0,0,1,1.11,2.38,5.58,5.58,0,1,1-7.31,8.41l-.12-.07a1.45,1.45,0,0,0-.57-.16h-.13a1.61,1.61,0,0,0-.72.15l-.14.08a5.57,5.57,0,0,1-7.71-8c.14-.13.28-.26.43-.38C4.54,8,5.62,4.33,12.5,4.33M6.75,8a5.46,5.46,0,0,1,1.07-.1h9.35a6.37,6.37,0,0,1,1.08.1c-.72-.9-2.3-1.89-5.75-1.89s-5,1-5.75,1.89m1.07,9.25a3.75,3.75,0,0,0,2.63-1.06l.09-.08a2.92,2.92,0,0,1,.48-.29,3.58,3.58,0,0,1,1.51-.32,3.44,3.44,0,0,1,1.44.32,3,3,0,0,1,.49.29l.09.08a3.7,3.7,0,0,0,2.62,1.06,3.78,3.78,0,1,0,0-7.55H7.82A3.79,3.79,0,0,0,4,13.43a3.78,3.78,0,0,0,3.78,3.83" style="fill: #6b6b69"/>
  </g>
</svg>
