
<svg xmlns="http://www.w3.org/2000/svg" width="25" height="25" viewBox="0 0 25 25">
  <title>Значки радар и тп</title>
  <g id="Layer_2" data-name="Layer 2">
    <g>
      <path d="M13.21,11.08l-2,4.55h-1l-2-4.55H9.38l1.38,3.25,1.4-3.25Z" style="fill: #6b6b69"/>
      <path d="M16.49,15.63l-.88-1.27h-1v1.27H13.59V11.08h2a2.53,2.53,0,0,1,1,.2,1.56,1.56,0,0,1,.69.57,1.58,1.58,0,0,1,.24.88,1.48,1.48,0,0,1-.94,1.44l1,1.46Zm-.27-3.49a1.11,1.11,0,0,0-.72-.2h-.86v1.59h.86a1.09,1.09,0,0,0,.72-.21.82.82,0,0,0,0-1.17Z" style="fill: #6b6b69"/>
    </g>
  </g>
  <g id="Layer_1" data-name="Layer 1">
    <path d="M22,10.89l-.1-.17a5.49,5.49,0,0,0-1.14-1.35.09.09,0,0,0,0-.05,4.48,4.48,0,0,0-1.15-2.77C18.25,5,15.94,4.16,12.76,4.16c-7.92,0-8,5.11-8,5.16a.81.81,0,0,0,0,.31,5.79,5.79,0,0,0-.87,1.09l-.11.17a5.94,5.94,0,0,0,5.08,9,6.73,6.73,0,0,0,3.32-.75,4.64,4.64,0,0,0,.69-.44,4.65,4.65,0,0,0,.69.44,6.77,6.77,0,0,0,3.33.75,5.94,5.94,0,0,0,5.07-9ZM12.76,6.66c2.59,0,4,.62,4.69,1.25a4.44,4.44,0,0,0-.63,0H9A6.37,6.37,0,0,0,8,8C8.74,7.31,10.12,6.66,12.76,6.66Zm7,9.23a3.44,3.44,0,0,1-2.85,1.52A4.34,4.34,0,0,1,14.79,17c-.62-.33-.78-.7-1.59-.79h-.53c-.85.08-1,.45-1.63.79a4.39,4.39,0,0,1-2.14.45A3.44,3.44,0,0,1,6,12.2L6.07,12A3.41,3.41,0,0,1,9,10.38h7.82A3.43,3.43,0,0,1,19.76,12l.1.17A3.44,3.44,0,0,1,19.78,15.89Z" style="fill: #6b6b69"/>
  </g>
</svg>
