<svg id="в_кривых" data-name="в кривых" xmlns="http://www.w3.org/2000/svg" width="26" height="26" viewBox="0 0 26 26">
  <title>Нумерация помещений</title>
  <g>
    <path d="M7.73,10.15v5.6h-1V11H5.51v-.87Z" style="fill: #6b6b69"/>
    <path d="M13.83,14.48h-1v1.27h-1V14.48H8.76v-.72l2.76-3.61h1.11L10,13.6h1.83V12.47h1V13.6h1Z" style="fill: #6b6b69"/>
    <path d="M14.44,13.11h2.2v.83h-2.2Z" style="fill: #6b6b69"/>
    <path d="M20.84,13a1.51,1.51,0,0,1,.41,1.08A1.65,1.65,0,0,1,21,15a1.71,1.71,0,0,1-.75.64,2.85,2.85,0,0,1-1.22.24,3.9,3.9,0,0,1-1.16-.17,3,3,0,0,1-.95-.48l.45-.81a2.25,2.25,0,0,0,.74.4,2.78,2.78,0,0,0,.9.15,1.46,1.46,0,0,0,.87-.23.77.77,0,0,0,0-1.23,1.55,1.55,0,0,0-.92-.22h-.51v-.71L19.74,11H17.2v-.87H21v.7l-1.36,1.62A1.89,1.89,0,0,1,20.84,13Z" style="fill: #6b6b69"/>
  </g>
</svg>
