<svg id="в_кривых" data-name="в кривых" xmlns="http://www.w3.org/2000/svg" width="26" height="26" viewBox="0 0 26 26">
  <title>Нумерация помещений</title>
  <g>
    <path d="M7.1,10.15v5.6h-1V11H4.88v-.87Z" style="fill: #6b6b69"/>
    <path d="M13.21,14.48h-1v1.27h-1V14.48H8.14v-.72l2.76-3.61H12L9.41,13.6h1.83V12.47h1V13.6h1Z" style="fill: #6b6b69"/>
    <path d="M13.82,13.11H16v.83h-2.2Z" style="fill: #6b6b69"/>
    <path d="M20.31,12.78A1.53,1.53,0,0,1,20.88,14a1.73,1.73,0,0,1-.25.91,1.71,1.71,0,0,1-.74.65,2.79,2.79,0,0,1-1.22.24,3.94,3.94,0,0,1-1.16-.17,2.87,2.87,0,0,1-.94-.48l.44-.81a2.36,2.36,0,0,0,.75.4,2.78,2.78,0,0,0,.9.15,1.45,1.45,0,0,0,.87-.23.79.79,0,0,0,0-1.28,2.26,2.26,0,0,0-1.16-.22H17l.29-3h3.29V11H18.14L18,12.32h.54A2.76,2.76,0,0,1,20.31,12.78Z" style="fill: #6b6b69"/>
  </g>
</svg>
